<svg width="28" height="28" viewBox="0 0 28 28" fill="none" xmlns="http://www.w3.org/2000/svg">
<g clip-path="url(#clip0_165_440)">
<path d="M18.9082 10.0577L14.483 14.4829C14.042 14.9239 13.4563 15.1666 12.8333 15.1666C12.2103 15.1666 11.6247 14.9239 11.1837 14.4829L8.5085 11.8077L10.1582 10.1581L12.8333 12.8332L17.2585 8.40806L18.9082 10.0577ZM28 22.2086H22.1667V28.0419L17.1512 23.0264C16.8303 23.3764 16.4745 23.6926 16.0417 23.9329C15.4082 24.2841 14.6977 24.4602 13.9872 24.4602C13.2767 24.4602 12.5662 24.2852 11.9327 23.9329C11.5045 23.6961 11.151 23.3846 10.8337 23.0404L5.83333 28.0407V22.2074H0L4.09383 18.1136C4.0635 17.6924 4.08917 17.2736 4.1825 16.8606C4.26767 16.4837 4.088 16.0789 3.73567 15.8502C3.129 15.4582 2.639 14.9286 2.27733 14.2741C1.932 13.6522 1.75117 12.9347 1.75467 12.2021C1.75117 11.4787 1.932 10.7612 2.2785 10.1382C2.64017 9.48606 3.13017 8.95639 3.73683 8.56439C4.09033 8.33573 4.27 7.93089 4.18483 7.55406C4.0215 6.83539 4.046 6.09923 4.25717 5.36306C4.65617 3.97123 5.76917 2.85823 7.16217 2.45806C7.8995 2.24806 8.6345 2.22356 9.35084 2.38689C9.72767 2.47556 10.1337 2.29239 10.3612 1.94006C10.7508 1.33456 11.2805 0.84456 11.935 0.481727C13.202 -0.221773 14.777 -0.221773 16.0428 0.481727C16.6973 0.84456 17.2258 1.33456 17.6167 1.94006C17.8453 2.29356 18.2537 2.47556 18.627 2.38806C19.3457 2.22356 20.0807 2.24806 20.8157 2.45923C22.2087 2.85823 23.3217 3.97123 23.7218 5.36306C23.933 6.10039 23.9575 6.83773 23.7942 7.55523C23.709 7.92973 23.8887 8.33573 24.2422 8.56439C24.8477 8.95523 25.3377 9.48489 25.7005 10.1394C26.0458 10.7636 26.2267 11.4799 26.2232 12.2126C26.2267 12.9347 26.0458 13.6511 25.7005 14.2752C25.3377 14.9309 24.8477 15.4606 24.2422 15.8502C23.8887 16.0789 23.709 16.4849 23.7942 16.8606C23.8863 17.2654 23.912 17.6761 23.8852 18.0891L28.0035 22.2074L28 22.2086ZM19.1415 19.7527C19.4717 19.8286 19.8193 19.8157 20.1705 19.7131C20.7865 19.5369 21.2998 19.0247 21.4772 18.4087C21.5775 18.0552 21.5915 17.7087 21.5157 17.3797C21.2147 16.0497 21.8003 14.6486 22.974 13.8914C23.2517 13.7117 23.4827 13.4609 23.6565 13.1459C23.8082 12.8706 23.8887 12.5474 23.8875 12.2137C23.8887 11.8696 23.8093 11.5476 23.6565 11.2711C23.4827 10.9561 23.2517 10.7064 22.974 10.5256C21.8015 9.76956 21.2147 8.36723 21.5157 7.03956C21.5903 6.70823 21.5775 6.36173 21.476 6.00823C21.2998 5.39339 20.7865 4.88123 20.1705 4.70389C19.817 4.60356 19.4717 4.58956 19.1403 4.66423C17.815 4.96406 16.4115 4.38073 15.6532 3.20589C15.4735 2.92823 15.2227 2.69723 14.9077 2.52339C14.3488 2.21189 13.6232 2.21189 13.062 2.52339C12.747 2.69723 12.4973 2.92706 12.3177 3.20589C11.5593 4.37956 10.1582 4.96406 8.8305 4.66423C8.50033 4.58839 8.155 4.60239 7.79917 4.70389C7.18433 4.88006 6.67217 5.39223 6.496 6.00823C6.3945 6.36173 6.38167 6.70939 6.45633 7.03956C6.7585 8.36723 6.17283 9.76839 4.998 10.5267C4.71917 10.7064 4.48933 10.9572 4.31667 11.2711C4.16383 11.5464 4.08333 11.8696 4.08567 12.2044C4.0845 12.5497 4.16383 12.8717 4.31667 13.1471C4.4905 13.4621 4.72033 13.7117 4.99917 13.8926C6.17283 14.6497 6.7585 16.0509 6.45633 17.3797C6.38167 17.7099 6.3945 18.0564 6.496 18.4099C6.67217 19.0247 7.18433 19.5369 7.80033 19.7142C8.155 19.8157 8.5015 19.8286 8.8305 19.7539C9.06267 19.7014 9.29834 19.6757 9.53167 19.6757C10.6295 19.6757 11.6923 20.2439 12.3177 21.2122C12.4973 21.4911 12.7482 21.7209 13.062 21.8947C13.622 22.2062 14.3477 22.2062 14.9077 21.8947C15.2215 21.7209 15.4723 21.4899 15.6532 21.2111C16.4103 20.0374 17.8127 19.4529 19.1403 19.7539L19.1415 19.7527Z" fill="#103E13"/>
</g>
<defs>
<clipPath id="clip0_165_440">
<rect width="28" height="28" fill="white"/>
</clipPath>
</defs>
</svg>
