<svg width="40" height="40" viewBox="0 0 40 40" fill="none" xmlns="http://www.w3.org/2000/svg">
<path d="M18.1818 5.45455V12.7273C18.1818 14.1739 17.6071 15.5613 16.5842 16.5842C15.5613 17.6071 14.1739 18.1818 12.7273 18.1818H5.45455C4.00791 18.1818 2.62053 17.6071 1.5976 16.5842C0.574674 15.5613 0 14.1739 0 12.7273V5.45455C0 4.00791 0.574674 2.62053 1.5976 1.5976C2.62053 0.574674 4.00791 0 5.45455 0H12.7273C14.1739 0 15.5613 0.574674 16.5842 1.5976C17.6071 2.62053 18.1818 4.00791 18.1818 5.45455ZM34.5455 0H27.2727C25.8261 0 24.4387 0.574674 23.4158 1.5976C22.3929 2.62053 21.8182 4.00791 21.8182 5.45455V12.7273C21.8182 14.1739 22.3929 15.5613 23.4158 16.5842C24.4387 17.6071 25.8261 18.1818 27.2727 18.1818H34.5455C35.9921 18.1818 37.3795 17.6071 38.4024 16.5842C39.4253 15.5613 40 14.1739 40 12.7273V5.45455C40 4.00791 39.4253 2.62053 38.4024 1.5976C37.3795 0.574674 35.9921 0 34.5455 0ZM12.7273 21.8182H5.45455C4.00791 21.8182 2.62053 22.3929 1.5976 23.4158C0.574674 24.4387 0 25.8261 0 27.2727V34.5455C0 35.9921 0.574674 37.3795 1.5976 38.4024C2.62053 39.4253 4.00791 40 5.45455 40H12.7273C14.1739 40 15.5613 39.4253 16.5842 38.4024C17.6071 37.3795 18.1818 35.9921 18.1818 34.5455V27.2727C18.1818 25.8261 17.6071 24.4387 16.5842 23.4158C15.5613 22.3929 14.1739 21.8182 12.7273 21.8182ZM34.5455 21.8182H27.2727C25.8261 21.8182 24.4387 22.3929 23.4158 23.4158C22.3929 24.4387 21.8182 25.8261 21.8182 27.2727V34.5455C21.8182 35.9921 22.3929 37.3795 23.4158 38.4024C24.4387 39.4253 25.8261 40 27.2727 40H34.5455C35.9921 40 37.3795 39.4253 38.4024 38.4024C39.4253 37.3795 40 35.9921 40 34.5455V27.2727C40 25.8261 39.4253 24.4387 38.4024 23.4158C37.3795 22.3929 35.9921 21.8182 34.5455 21.8182Z" fill="white"/>
</svg>
