<svg width="44" height="44" viewBox="0 0 44 44" fill="none" xmlns="http://www.w3.org/2000/svg">
<g clip-path="url(#clip0_632_240)">
<path d="M9.12568 23.2908H0.0117188C0.321587 28.6895 2.57043 33.7219 6.42542 37.5769C10.3177 41.4691 15.41 43.7251 20.8681 44.0001V34.8905C14.6878 34.3512 9.73845 29.4499 9.12568 23.2908Z" fill="white"/>
<path d="M23.4434 34.8592V43.9807C28.7827 43.6367 33.7551 41.3943 37.5729 37.5767C41.4279 33.7217 43.6766 28.6893 43.9866 23.2905H34.8725C34.2702 29.3454 29.477 34.1845 23.4434 34.8592Z" fill="white"/>
<path d="M20.868 9.10966V0C15.41 0.274932 10.3177 2.53092 6.42533 6.42325C2.57043 10.2782 0.321587 15.3106 0.0117188 20.7093H9.12577C9.73845 14.5501 14.6878 9.64885 20.868 9.10966Z" fill="white"/>
<path d="M34.8725 20.7092H43.9866C43.6767 15.3106 41.4279 10.2782 37.5729 6.42327C33.7551 2.60547 28.7828 0.363073 23.4434 0.019043V9.14067C29.4769 9.8153 34.2702 14.6544 34.8725 20.7092Z" fill="white"/>
<path d="M19.5089 20.7092V22.4239C19.5089 22.8113 19.4447 23.0939 19.3277 23.2907C19.1727 23.5514 18.9248 23.6613 18.6082 23.6613C18.2916 23.6613 18.0437 23.5514 17.8887 23.2907C17.7717 23.0939 17.7074 22.8113 17.7074 22.4239V20.7092V19.2417H15.7207V20.7091V22.4826C15.7207 22.7727 15.7498 23.0421 15.8055 23.2906C16.0895 24.5569 17.0783 25.2691 18.5914 25.2691C19.6035 25.2691 20.381 24.9504 20.8701 24.3604C21.2556 23.8954 21.4619 23.2619 21.4619 22.4826V19.2417H20.8701H19.5089V20.7092Z" fill="white"/>
<path d="M26.445 19.2417L25.4778 20.7092L25.4685 20.7233L25.459 20.7092L24.4667 19.2417H23.4509H22.2359L24.2899 22.1629L23.4816 23.2907L23.4509 23.3335L22.1602 25.1344H23.4509H24.4247L25.418 23.5602L26.4366 25.1344H28.7096L27.3955 23.2907L26.5376 22.087L27.5283 20.7092L28.5832 19.2417H26.445Z" fill="white"/>
</g>
<defs>
<clipPath id="clip0_632_240">
<rect width="44" height="44" fill="white"/>
</clipPath>
</defs>
</svg>
