<svg width="44" height="44" viewBox="0 0 44 44" fill="none" xmlns="http://www.w3.org/2000/svg">
<path d="M23.9357 3.65377L24.6624 2.2002H15.3887L16.1155 3.65377H23.9357Z" fill="white"/>
<path d="M33.828 13.1021H29.2565C28.8648 13.1032 28.4804 13.2089 28.1431 13.4082C27.8058 13.6075 27.5278 13.8932 27.3378 14.2358C27.1685 14.5589 27.0788 14.9177 27.0762 15.2824V19.8539C27.0779 20.4316 27.3081 20.9852 27.7167 21.3938C28.1252 21.8023 28.6788 22.0325 29.2565 22.0342H33.828C34.4061 22.0336 34.9603 21.8037 35.3691 21.3949C35.7778 20.9862 36.0077 20.432 36.0084 19.8539V15.2824C36.0067 14.7047 35.7764 14.1511 35.3679 13.7425C34.9594 13.334 34.4057 13.1037 33.828 13.1021Z" fill="white"/>
<path d="M34.8746 23.3281C34.5514 23.1592 34.1927 23.0695 33.828 23.0664H29.2565C28.6793 23.0699 28.1268 23.3007 27.7186 23.7088C27.3105 24.117 27.0796 24.6696 27.0762 25.2468V29.8183C27.0786 30.3098 27.2461 30.7863 27.5519 31.1712C27.8577 31.5561 28.284 31.827 28.7623 31.9405C28.7674 32.0479 33.6214 31.9825 33.828 31.9987C34.4057 31.997 34.9593 31.7667 35.3679 31.3582C35.7764 30.9497 36.0067 30.3961 36.0084 29.8183V25.2468C36.0072 24.855 35.9015 24.4707 35.7022 24.1334C35.5029 23.7961 35.2172 23.5181 34.8746 23.3281Z" fill="white"/>
<path d="M26.5593 32.2455C26.2214 32.6267 25.8061 32.9314 25.3412 33.1394C24.8762 33.3475 24.3723 33.454 23.8629 33.452H19.2914C18.3278 33.4516 17.4037 33.0687 16.7223 32.3873C16.0408 31.7058 15.6579 30.7817 15.6575 29.8181V25.2466C15.6555 24.7372 15.762 24.2333 15.9701 23.7683C16.1781 23.3034 16.4828 22.8881 16.864 22.5502C16.4829 22.2123 16.1781 21.797 15.9701 21.3321C15.762 20.8671 15.6555 20.3632 15.6575 19.8539V15.2824C15.6579 14.3187 16.0408 13.3946 16.7223 12.7132C17.4037 12.0318 18.3278 11.6488 19.2914 11.6484H23.8629C24.3723 11.6464 24.8762 11.753 25.3412 11.961C25.8061 12.169 26.2214 12.4738 26.5593 12.8549C26.8972 12.4738 27.3125 12.1691 27.7774 11.961C28.2424 11.753 28.7463 11.6464 29.2557 11.6484H32.3372V5.10739C32.3373 4.72559 32.2622 4.34751 32.1161 3.99475C31.9701 3.64199 31.7559 3.32147 31.486 3.0515C31.216 2.78152 30.8955 2.56739 30.5427 2.42133C30.19 2.27527 29.8119 2.20014 29.4301 2.20025H26.2831L25.5563 3.65382L25.0258 4.70765C24.9662 4.82815 24.874 4.92949 24.7596 5.00016C24.6452 5.07083 24.5134 5.10798 24.3789 5.10739H15.6575C15.5231 5.10798 15.3912 5.07083 15.2768 5.00016C15.1625 4.92949 15.0703 4.82815 15.0107 4.70765C14.7069 4.09284 14.07 2.81801 13.7606 2.2002L10.6064 2.20025C10.2246 2.20014 9.84648 2.27527 9.49372 2.42133C9.14096 2.56739 8.82044 2.78152 8.55047 3.0515C8.2805 3.32147 8.06636 3.64199 7.9203 3.99475C7.77424 4.34751 7.69911 4.72559 7.69922 5.10739V39.9931C7.69912 40.3749 7.77425 40.7529 7.92032 41.1057C8.06638 41.4584 8.28052 41.779 8.55049 42.0489C8.82046 42.3189 9.14098 42.533 9.49373 42.6791C9.84649 42.8252 10.2246 42.9003 10.6064 42.9002H29.4301C29.8119 42.9003 30.19 42.8252 30.5427 42.6791C30.8955 42.533 31.216 42.3189 31.486 42.0489C31.7559 41.779 31.9701 41.4584 32.1161 41.1057C32.2622 40.7529 32.3373 40.3749 32.3372 39.9931V33.452H29.2557C28.7463 33.454 28.2424 33.3475 27.7774 33.1394C27.3125 32.9314 26.8972 32.6267 26.5593 32.2455ZM22.9254 39.9931H17.1111C16.9202 39.9902 16.7381 39.9124 16.6041 39.7764C16.4701 39.6404 16.395 39.4572 16.395 39.2662C16.395 39.0753 16.4701 38.8921 16.6041 38.7561C16.7381 38.6201 16.9202 38.5423 17.1111 38.5395H22.9254C23.1162 38.5423 23.2984 38.6201 23.4323 38.7561C23.5663 38.8921 23.6414 39.0754 23.6414 39.2663C23.6414 39.4572 23.5663 39.6404 23.4323 39.7764C23.2984 39.9124 23.1162 39.9902 22.9254 39.9931Z" fill="white"/>
<path d="M18.8397 21.9833C18.906 22.0803 23.6524 22.0181 23.869 22.0342C24.2614 22.0321 24.6462 21.9253 24.9835 21.7247C25.3209 21.524 25.5985 21.237 25.7877 20.8931C25.9564 20.5725 26.0461 20.2162 26.0494 19.8539V15.2824C26.0448 14.7056 25.8136 14.1536 25.4057 13.7457C24.9978 13.3378 24.4458 13.1066 23.869 13.1021H19.2975C18.7198 13.1037 18.1662 13.334 17.7577 13.7425C17.3491 14.1511 17.1189 14.7047 17.1172 15.2824V19.8539C17.1199 20.3517 17.2919 20.8337 17.6049 21.2207C17.918 21.6077 18.3534 21.8767 18.8397 21.9833Z" fill="white"/>
<path d="M17.1172 29.8182C17.1189 30.396 17.3491 30.9496 17.7577 31.3581C18.1662 31.7666 18.7198 31.9969 19.2975 31.9986H23.869C24.2977 31.997 24.7164 31.8693 25.0731 31.6316C25.4297 31.3938 25.7086 31.0564 25.875 30.6613C26.2122 30.1914 25.9894 25.8555 26.0495 25.2468C26.0458 24.6696 25.8149 24.1172 25.4067 23.7091C24.9986 23.301 24.4462 23.0701 23.869 23.0664H19.2975C18.7207 23.071 18.1688 23.3022 17.7609 23.7101C17.353 24.118 17.1218 24.6699 17.1172 25.2468L17.1172 29.8182Z" fill="white"/>
</svg>
