<svg width="44" height="44" viewBox="0 0 44 44" fill="none" xmlns="http://www.w3.org/2000/svg">
<path d="M33.4862 29.1777C32.3111 30.8346 30.8651 32.2798 29.209 33.4549L34.8438 39.9576C36.2014 41.5269 38.6612 41.6291 40.1436 40.1912C41.6611 38.7241 41.5881 36.1921 39.9896 34.8118L33.4862 29.1777Z" fill="white"/>
<path d="M19.6186 33.8931C21.5601 33.7617 23.4725 33.2654 25.2242 32.426C26.1585 33.0099 27.3409 32.9807 28.2467 32.3457C29.8518 31.2216 31.2459 29.8275 32.3699 28.2225C33.005 27.3174 33.0342 26.135 32.4502 25.2C35.3114 19.2075 33.91 11.8501 29.0336 7.33937C24.1075 2.79211 16.5895 1.99652 10.8233 5.39784C5.04254 8.80647 2.11565 15.8208 3.75062 22.3315C5.53887 29.4188 12.305 34.3675 19.6186 33.8931ZM16.2173 7.90869C22.9615 6.3978 29.5671 11.6823 29.5671 18.5944C29.5671 23.6526 25.9614 28.1707 21.02 29.2801C16.0494 30.3903 10.8379 27.8284 8.68474 23.2081C5.78704 16.9813 9.51682 9.41228 16.2173 7.90869Z" fill="white"/>
<path d="M25.3994 25.2366V24.5359C25.3994 22.8645 24.0418 21.5142 22.3703 21.5142H14.867C13.1955 21.5142 11.8379 22.8645 11.8379 24.5359V25.2366C15.5166 28.9883 21.7134 28.9737 25.3994 25.2366Z" fill="white"/>
<path d="M18.6143 20.0544C20.5997 20.0544 22.2638 18.3902 22.2638 16.4049C22.2638 14.4195 20.607 12.7554 18.6143 12.7554C16.6217 12.7554 14.9648 14.4195 14.9648 16.4049C14.9648 18.3902 16.629 20.0544 18.6143 20.0544Z" fill="white"/>
</svg>
