<svg width="44" height="44" viewBox="0 0 44 44" fill="none" xmlns="http://www.w3.org/2000/svg">
<path d="M5.96737 10.9848C6.27744 12.2106 6.91344 13.3312 7.80726 14.225L8.62559 15.0328L15.0443 8.61444L14.2261 7.80656C13.3316 6.91282 12.2116 6.27688 10.9857 5.96682L4.82881 4.41032C4.71125 4.38076 4.58681 4.41513 4.50087 4.50038C4.41562 4.58632 4.38125 4.71076 4.41081 4.82832L5.96737 10.9848Z" fill="white"/>
<path d="M13.1956 19.5649L19.6138 13.1472L16.4909 10.0637L10.0723 16.4819L13.1956 19.5649Z" fill="white"/>
<path d="M24.4297 30.8516L30.8469 24.4344L34.6934 28.2809L28.2762 34.6981L24.4297 30.8516Z" fill="white"/>
<path d="M36.1648 29.7402L29.7461 36.1585L31.8585 38.271C32.7159 39.1276 33.8558 39.5999 35.068 39.5999C36.2801 39.5999 37.42 39.1276 38.2774 38.271C40.0465 36.5014 40.0465 33.6221 38.2774 31.8526L36.1648 29.7402Z" fill="white"/>
<path d="M20.2784 23.2984C20.6812 22.8957 21.3342 22.8957 21.7369 23.2984L25.2892 26.8505L26.8525 25.2873L24.8248 23.2598C24.422 22.8572 24.422 22.2043 24.8248 21.8015C25.2275 21.3988 25.8805 21.3986 26.2833 21.8015L28.311 23.829L29.9018 22.2382L26.3495 18.6861C25.9467 18.2835 25.9467 17.6305 26.3495 17.2277C26.7522 16.8251 27.4052 16.8249 27.8079 17.2277L31.3602 20.7799L32.9511 19.1892L30.9234 17.1617C30.5206 16.759 30.5206 16.1061 30.9234 15.7033C31.3261 15.3006 31.9791 15.3005 32.3818 15.7033L34.4096 17.7308L36.0004 16.14L32.4481 12.5879C32.0452 12.1852 32.0452 11.5322 32.4481 11.1295C32.8509 10.7267 33.5038 10.7267 33.9065 11.1295L37.4588 14.6817L38.9177 13.2205C39.3579 12.7804 39.6002 12.1951 39.6002 11.5726C39.6002 10.9502 39.3578 10.3651 38.9177 9.92485L34.0749 5.08252C33.6347 4.64231 33.0495 4.3999 32.427 4.3999C31.8046 4.3999 31.2193 4.64225 30.7791 5.08245L5.08294 30.7792C4.6428 31.2193 4.40039 31.8046 4.40039 32.427C4.40039 33.0494 4.6428 33.6345 5.08294 34.0747L9.92581 38.9172C10.366 39.3573 10.9511 39.5998 11.5737 39.5998C12.1962 39.5998 12.7814 39.3574 13.2215 38.9173L14.6828 37.4563L12.6551 35.4288C12.2524 35.0261 12.2524 34.3731 12.6551 33.9704C13.0579 33.5677 13.7108 33.5677 14.1136 33.9704L16.1412 35.9979L17.732 34.4072L14.1797 30.8551C13.777 30.4525 13.777 29.7995 14.1797 29.3967C14.5824 28.9941 15.2354 28.9941 15.6382 29.3967L19.1905 32.9488L20.7813 31.358L18.7536 29.3305C18.3509 28.9279 18.3509 28.2749 18.7536 27.8721C19.1564 27.4695 19.8094 27.4693 20.2122 27.8721L22.2399 29.8996L23.8307 28.3089L20.2784 24.7568C19.8756 24.3541 19.8756 23.7012 20.2784 23.2984Z" fill="white"/>
</svg>
