<svg width="44" height="44" viewBox="0 0 44 44" fill="none" xmlns="http://www.w3.org/2000/svg">
<path fill-rule="evenodd" clip-rule="evenodd" d="M24.0393 2.06574C27.2423 4.4634 26.516 4.19888 30.5104 4.42103C31.2481 4.45521 31.9542 4.73086 32.5199 5.20556C33.0857 5.68027 33.4797 6.32773 33.6415 7.04831C34.554 10.9437 34.1674 10.2742 37.0847 13.0124C37.6279 13.5128 37.9915 14.1777 38.1198 14.905C38.248 15.6323 38.1337 16.3816 37.7944 17.0375C35.9897 20.608 36.1238 19.8469 36.5986 23.8194C36.693 24.5519 36.5442 25.2951 36.1749 25.9346C35.8057 26.5742 35.2365 27.0747 34.555 27.3591C31.1089 28.835 31.4246 28.5056 29.2795 31.7857C28.8811 32.4075 28.2894 32.8811 27.5954 33.1337C26.9015 33.3862 26.1437 33.4038 25.4388 33.1836C21.609 32.0262 22.3819 32.0262 18.5522 33.1836C17.8473 33.4038 17.0896 33.3863 16.3956 33.1337C15.7016 32.8811 15.1099 32.4075 14.7114 31.7857C12.5217 28.4373 13.1138 28.9342 9.43598 27.3591C8.75446 27.0747 8.18528 26.5742 7.81604 25.9346C7.44679 25.2951 7.29794 24.5519 7.39239 23.8194C7.86762 19.8468 8.00169 20.6079 6.19683 17.0374C5.85757 16.3815 5.74326 15.6322 5.87149 14.9049C5.99971 14.1777 6.36337 13.5127 6.9065 13.0123C9.82373 10.2742 9.43727 10.9438 10.3498 7.04822C10.5116 6.32764 10.9057 5.68019 11.4714 5.20548C12.0371 4.73077 12.7432 4.45512 13.4809 4.42094C17.4755 4.19879 16.7492 4.46314 19.952 2.06565C20.5391 1.61766 21.2571 1.375 21.9956 1.375C22.7341 1.375 23.4521 1.61766 24.0392 2.06565L24.0393 2.06574ZM22.4254 24.4347L27.9122 21.2669C28.0442 21.1931 28.1539 21.085 28.2295 20.954C28.3051 20.823 28.344 20.674 28.3419 20.5227V14.1871C28.344 14.0359 28.3052 13.8869 28.2295 13.7559C28.1539 13.6249 28.0442 13.5167 27.9122 13.4429L26.089 12.3903L19.7429 16.0542V18.4932C19.7431 18.5385 19.7313 18.5831 19.7087 18.6224C19.6861 18.6617 19.6536 18.6944 19.6143 18.7171C19.5751 18.7397 19.5305 18.7516 19.4852 18.7516C19.4399 18.7515 19.3954 18.7394 19.3562 18.7166L18.2032 18.0511C18.1108 17.9994 18.0341 17.9237 17.9811 17.832C17.9282 17.7403 17.901 17.636 17.9025 17.5301V14.9917L24.2485 11.3277L22.4254 10.2752C22.2955 10.1977 22.147 10.1568 21.9957 10.1568C21.8445 10.1568 21.696 10.1977 21.5661 10.2752L16.0793 13.4429C15.9472 13.5167 15.8376 13.6248 15.762 13.7559C15.6863 13.8869 15.6475 14.0359 15.6496 14.1871V20.5227C15.6475 20.674 15.6863 20.823 15.762 20.954C15.8376 21.085 15.9473 21.1931 16.0793 21.2669L21.5661 24.4347C21.696 24.5121 21.8445 24.553 21.9957 24.553C22.147 24.553 22.2955 24.5121 22.4254 24.4347ZM26.0338 34.6907L28.7014 40.8846L31.6856 36.0756L37.2301 37.211L33.7728 29.1836C31.975 29.9521 32.0484 30.0643 30.4305 32.5381C29.9623 33.2625 29.3056 33.8456 28.531 34.2248C27.7564 34.604 26.893 34.7651 26.0338 34.6906V34.6907ZM15.1803 42.6251L18.9502 34.4997C17.9609 34.8043 16.8991 34.7776 15.9264 34.4235C14.9536 34.0695 14.1231 33.4075 13.561 32.5382C12.8292 31.4192 12.2805 30.1219 11.0292 29.5394L6.76144 38.7058L12.3364 37.7317L15.1803 42.6251ZM21.9957 7.51598C20.0498 7.51598 18.1476 8.09302 16.5296 9.17413C14.9116 10.2552 13.6505 11.7919 12.9058 13.5897C12.1611 15.3875 11.9663 17.3658 12.3459 19.2743C12.7255 21.1829 13.6626 22.936 15.0386 24.312C16.4146 25.688 18.1677 26.6251 20.0762 27.0047C21.9848 27.3844 23.963 27.1895 25.7609 26.4449C27.5587 25.7002 29.0953 24.4391 30.1764 22.8211C31.2576 21.2032 31.8346 19.3009 31.8346 17.355C31.8346 14.7455 30.7981 12.2429 28.9529 10.3978C27.1078 8.55262 24.6052 7.516 21.9957 7.51598Z" fill="white"/>
</svg>
