<svg width="44" height="44" viewBox="0 0 44 44" fill="none" xmlns="http://www.w3.org/2000/svg">
<g clip-path="url(#clip0_125_3288)">
<path fill-rule="evenodd" clip-rule="evenodd" d="M22.0002 8.59375C16.672 8.59375 12.3477 12.9195 12.3477 18.2463C12.3477 23.5744 16.672 27.8988 22.0002 27.8988C27.3283 27.8988 31.6527 23.5744 31.6527 18.2463C31.6527 12.9195 27.3283 8.59375 22.0002 8.59375ZM22.0002 10.6562C26.1898 10.6562 29.5902 14.058 29.5902 18.2463C29.5902 22.4359 26.1898 25.8363 22.0002 25.8363C17.8105 25.8363 14.4102 22.4359 14.4102 18.2463C14.4102 14.058 17.8105 10.6562 22.0002 10.6562Z" fill="#0E191E"/>
<path fill-rule="evenodd" clip-rule="evenodd" d="M18.0674 3.65493C16.7722 3.13105 15.1304 3.17918 13.7224 3.9918C12.3158 4.80443 11.4523 6.2028 11.2584 7.58605C9.87379 7.77993 8.47679 8.64343 7.66416 10.0514C6.85154 11.4594 6.80204 13.1012 7.32591 14.3964C6.22454 15.2572 5.44629 16.7037 5.44629 18.3289C5.44629 19.9542 6.22454 21.4007 7.32591 22.26C6.80204 23.5553 6.85154 25.1984 7.66416 26.6051C8.47679 28.0131 9.87379 28.8766 11.2584 29.0704C11.4523 30.4551 12.3158 31.8521 13.7224 32.6647C15.1304 33.4773 16.7722 33.5268 18.0688 33.0029C18.9282 34.1043 20.3747 34.8825 21.9999 34.8825C23.6252 34.8825 25.0717 34.1043 25.9324 33.0015C27.2277 33.5268 28.8694 33.4773 30.2774 32.6647C31.684 31.8521 32.5475 30.4551 32.7414 29.0704C34.126 28.8766 35.523 28.0131 36.3357 26.6051C37.1483 25.1984 37.1978 23.5553 36.6739 22.26C37.7753 21.4007 38.5535 19.9542 38.5535 18.3289C38.5535 16.7037 37.7753 15.2572 36.6739 14.3964C37.1978 13.1012 37.1483 11.4594 36.3357 10.0514C35.523 8.64343 34.126 7.77993 32.7414 7.58605C32.5475 6.2028 31.684 4.80443 30.2774 3.9918C28.8694 3.17918 27.2277 3.13105 25.931 3.65493C25.0717 2.55355 23.6252 1.77393 21.9999 1.77393C20.3747 1.77393 18.9282 2.55355 18.0674 3.65493ZM17.7979 5.85493C18.0537 6.0598 18.3919 6.12993 18.7082 6.04605C19.0258 5.9608 19.2829 5.73118 19.4025 5.42593C19.76 4.51293 20.8133 3.83643 21.9999 3.83643C23.1865 3.83643 24.2398 4.51293 24.5973 5.42593C24.7169 5.73118 24.974 5.9608 25.2917 6.04605C25.6079 6.12993 25.9462 6.0598 26.2019 5.85493C26.9678 5.24305 28.2177 5.1853 29.2462 5.77793C30.2733 6.37193 30.848 7.4843 30.7009 8.45368C30.6514 8.7768 30.76 9.10543 30.991 9.33643C31.2234 9.5688 31.5507 9.67605 31.8752 9.62793C32.8445 9.4808 33.9569 10.0556 34.5495 11.0827C35.1435 12.1112 35.0844 13.3611 34.4725 14.1269C34.269 14.3827 34.1975 14.7209 34.2828 15.0372C34.368 15.3534 34.5977 15.6119 34.9029 15.7302C35.8159 16.0877 36.491 17.1423 36.491 18.3289C36.491 19.5156 35.8159 20.5688 34.9029 20.9263C34.5977 21.0459 34.368 21.3031 34.2828 21.6193C34.1975 21.9356 34.269 22.2738 34.4725 22.5296C35.0844 23.2954 35.1435 24.5467 34.5495 25.5738C33.9569 26.6023 32.8445 27.1771 31.8752 27.0299C31.5507 26.9804 31.2234 27.089 30.991 27.32C30.76 27.5524 30.6514 27.8797 30.7009 28.2042C30.848 29.1736 30.2733 30.2845 29.2462 30.8786C28.2177 31.4726 26.9678 31.4134 26.2019 30.8016C25.9462 30.5967 25.6079 30.5266 25.2917 30.6118C24.974 30.6957 24.7169 30.9267 24.5973 31.2319C24.2398 32.1436 23.1865 32.82 21.9999 32.82C20.8133 32.82 19.76 32.1436 19.4025 31.2319C19.2829 30.9267 19.0258 30.6957 18.7082 30.6118C18.3919 30.5266 18.0537 30.5967 17.7979 30.8016C17.032 31.4134 15.7822 31.4726 14.7537 30.8786C13.7265 30.2845 13.1518 29.1736 13.2989 28.2042C13.3484 27.8797 13.2398 27.5524 13.0088 27.32C12.7764 27.089 12.4492 26.9804 12.1247 27.0299C11.1553 27.1771 10.0429 26.6023 9.45029 25.5738C8.85629 24.5467 8.91541 23.2954 9.52729 22.5296C9.73079 22.2738 9.80229 21.9356 9.71704 21.6193C9.63179 21.3031 9.40216 21.0459 9.09691 20.9263C8.18391 20.5688 7.50879 19.5156 7.50879 18.3289C7.50879 17.1423 8.18391 16.0877 9.09691 15.7302C9.40216 15.6119 9.63179 15.3534 9.71704 15.0372C9.80229 14.7209 9.73079 14.3827 9.52729 14.1269C8.91541 13.3611 8.85629 12.1112 9.45029 11.0827C10.0429 10.0556 11.1553 9.4808 12.1247 9.62793C12.4492 9.67605 12.7764 9.5688 13.0088 9.33643C13.2398 9.10543 13.3484 8.7768 13.2989 8.45368C13.1518 7.4843 13.7265 6.37193 14.7537 5.77793C15.7822 5.1853 17.032 5.24305 17.7979 5.85493Z" fill="#0E191E"/>
<path fill-rule="evenodd" clip-rule="evenodd" d="M35.7473 26.3589C35.585 26.0784 35.3004 25.89 34.9773 25.8515C34.6555 25.8116 34.3338 25.9271 34.1097 26.1609C33.4923 26.8058 32.6384 27.1454 31.8753 27.0299C31.5508 26.9804 31.2235 27.089 30.9912 27.32C30.7602 27.5524 30.6515 27.8796 30.701 28.2041C30.8482 29.1735 30.2734 30.2845 29.2463 30.8785C28.6399 31.2278 27.9593 31.346 27.3405 31.2621C26.95 31.2085 26.565 31.3831 26.345 31.709C26.1264 32.0363 26.1127 32.4584 26.3093 32.7994L31.0352 40.9861C31.5357 41.8524 32.4885 42.3529 33.4854 42.2731C34.4823 42.1934 35.343 41.5458 35.6978 40.6121L36.2368 39.1945C36.3165 38.9855 36.5297 38.8618 36.7497 38.8975L38.247 39.1395C39.2343 39.3004 40.2243 38.8769 40.7922 38.0546C41.36 37.231 41.4027 36.1558 40.9035 35.2895L35.7473 26.3589ZM34.5565 28.4214L39.1174 36.3208C39.2192 36.4968 39.2095 36.7154 39.094 36.8831C38.9785 37.0509 38.7778 37.1361 38.577 37.1045L37.0797 36.8611C35.893 36.67 34.7353 37.3383 34.309 38.4616L33.77 39.8793C33.6985 40.069 33.5225 40.201 33.3204 40.2175C33.1169 40.234 32.923 40.1323 32.8213 39.9549L28.9245 33.2064C29.3865 33.0936 29.843 32.9149 30.2775 32.6646C31.6842 31.852 32.5477 30.455 32.7415 29.0718C33.3617 28.9865 33.9845 28.7665 34.5565 28.4214Z" fill="#0E191E"/>
<path fill-rule="evenodd" clip-rule="evenodd" d="M9.8904 26.1609C9.66627 25.9271 9.34452 25.8116 9.02277 25.8515C8.69965 25.89 8.41502 26.0784 8.25277 26.3589L3.09652 35.2895C2.5974 36.1558 2.64002 37.231 3.2079 38.0546C3.77577 38.8769 4.76577 39.3004 5.75302 39.1395L7.25039 38.8975C7.4704 38.8618 7.68352 38.9855 7.76327 39.1945L8.30227 40.6121C8.65702 41.5458 9.51777 42.1934 10.5146 42.2731C11.5115 42.3529 12.4644 41.8524 12.9649 40.9861L17.6908 32.7994C17.8874 32.4584 17.8736 32.0363 17.655 31.709C17.435 31.3831 17.05 31.2085 16.6595 31.2621C16.0408 31.346 15.3601 31.2278 14.7538 30.8785C13.7266 30.2845 13.1519 29.1735 13.299 28.2041C13.3485 27.8796 13.2399 27.5524 13.0089 27.32C12.7765 27.089 12.4493 26.9804 12.1248 27.0299C11.3616 27.1454 10.5078 26.8058 9.8904 26.1609ZM9.44352 28.4214C10.0155 28.7665 10.6384 28.9865 11.2585 29.0718C11.4524 30.455 12.3159 31.852 13.7225 32.6646C14.157 32.9149 14.6135 33.0936 15.0755 33.2064L11.1788 39.9549C11.077 40.1323 10.8831 40.234 10.6796 40.2175C10.4775 40.201 10.3015 40.069 10.23 39.8793L9.69102 38.4616C9.26477 37.3383 8.10702 36.67 6.9204 36.8611L5.42302 37.1045C5.22227 37.1361 5.02152 37.0509 4.90602 36.8831C4.79052 36.7154 4.7809 36.4968 4.88265 36.3208L9.44352 28.4214Z" fill="#0E191E"/>
</g>
<defs>
<clipPath id="clip0_125_3288">
<rect width="44" height="44" fill="white"/>
</clipPath>
</defs>
</svg>
