<svg width="44" height="44" viewBox="0 0 44 44" fill="none" xmlns="http://www.w3.org/2000/svg">
<g clip-path="url(#clip0_125_3270)">
<path fill-rule="evenodd" clip-rule="evenodd" d="M23.1248 2.75C17.8131 2.75 13.4998 7.06337 13.4998 12.375C13.4998 17.6866 17.8131 22 23.1248 22C28.4378 22 32.7498 17.6866 32.7498 12.375C32.7498 7.06337 28.4378 2.75 23.1248 2.75ZM23.1248 5.5C26.9198 5.5 29.9998 8.58 29.9998 12.375C29.9998 16.17 26.9198 19.25 23.1248 19.25C19.3311 19.25 16.2498 16.17 16.2498 12.375C16.2498 8.58 19.3311 5.5 23.1248 5.5Z" fill="#0E191E"/>
<path fill-rule="evenodd" clip-rule="evenodd" d="M6.62476 38.5H22C22.759 38.5 23.375 39.116 23.375 39.875C23.375 40.634 22.759 41.25 22 41.25H5.24976C4.49076 41.25 3.87476 40.634 3.87476 39.875C3.87476 39.875 3.87476 38.7406 3.87476 37.125C3.87476 30.2899 9.41601 24.75 16.2498 24.75H22C22.759 24.75 23.375 25.366 23.375 26.125C23.375 26.884 22.759 27.5 22 27.5H16.2498C10.934 27.5 6.62476 31.8092 6.62476 37.125V38.5Z" fill="#0E191E"/>
<path fill-rule="evenodd" clip-rule="evenodd" d="M34.4424 39.3417L31.152 41.5706C30.7299 41.8552 30.1854 41.8855 29.7371 41.6462C29.2875 41.4084 29.0056 40.9409 29.0056 40.4321V31.1715C29.0056 30.6009 29.359 30.088 29.8925 29.8859C30.4274 29.6837 31.031 29.8309 31.4091 30.2585C32.153 31.0959 33.2379 31.6252 34.4437 31.6252C35.651 31.6252 36.7359 31.0959 37.4784 30.2585C37.8579 29.8309 38.4615 29.6837 38.995 29.8859C39.5299 30.088 39.8819 30.6009 39.8819 31.1715V40.4321C39.8819 40.9409 39.6014 41.4084 39.1517 41.6462C38.7021 41.8855 38.1576 41.8552 37.7369 41.5706L34.4424 39.3417ZM31.7556 33.8225V37.8402L33.6724 36.5436C34.1371 36.2287 34.7476 36.2274 35.2137 36.5422L37.1319 37.8416V33.8225C36.3082 34.1786 35.398 34.3752 34.4437 34.3752C33.4895 34.3752 32.5806 34.1786 31.7556 33.8225Z" fill="#0E191E"/>
<path fill-rule="evenodd" clip-rule="evenodd" d="M34.4438 20.7637C30.6887 20.7637 27.6389 23.8134 27.6389 27.5685C27.6389 31.325 30.6887 34.3748 34.4438 34.3748C38.2003 34.3748 41.25 31.325 41.25 27.5685C41.25 23.8134 38.2003 20.7637 34.4438 20.7637ZM34.4438 23.5137C36.6823 23.5137 38.5 25.33 38.5 27.5685C38.5 29.807 36.6823 31.6248 34.4438 31.6248C32.2053 31.6248 30.3889 29.807 30.3889 27.5685C30.3889 25.33 32.2053 23.5137 34.4438 23.5137Z" fill="#0E191E"/>
</g>
<defs>
<clipPath id="clip0_125_3270">
<rect width="44" height="44" fill="white"/>
</clipPath>
</defs>
</svg>
