<svg width="44" height="44" viewBox="0 0 44 44" fill="none" xmlns="http://www.w3.org/2000/svg">
<g clip-path="url(#clip0_125_3300)">
<path fill-rule="evenodd" clip-rule="evenodd" d="M24.3718 2.75V10.3125C24.3718 10.8818 24.8338 11.3438 25.4031 11.3438H32.9656C33.5348 11.3438 33.9968 10.8818 33.9968 10.3125C33.9968 9.74325 33.5348 9.28125 32.9656 9.28125H26.4343V2.75C26.4343 2.18075 25.9723 1.71875 25.4031 1.71875C24.8338 1.71875 24.3718 2.18075 24.3718 2.75Z" fill="#0E191E"/>
<path fill-rule="evenodd" clip-rule="evenodd" d="M34.2362 29.3148C35.2014 28.3495 35.2014 26.7834 34.2362 25.8182C33.2709 24.8529 31.7048 24.8529 30.7396 25.8182C28.8764 27.6799 24.9453 31.611 23.0836 33.4742C22.1183 34.4394 22.1183 36.0042 23.0836 36.9694V36.9708C24.0502 37.9361 25.6149 37.9361 26.5802 36.9708C28.4419 35.1091 32.3744 31.1765 34.2362 29.3148ZM32.7773 27.8559C30.9156 29.7191 26.9844 33.6502 25.1213 35.5119C24.9618 35.6714 24.7019 35.6714 24.5424 35.5119C24.3816 35.3511 24.3816 35.0926 24.5424 34.9317C26.4042 33.0699 30.3353 29.1388 32.1971 27.2757C32.3579 27.1162 32.6164 27.1162 32.7773 27.2757C32.9382 27.4352 32.9382 27.6964 32.7773 27.8559Z" fill="#0E191E"/>
<path fill-rule="evenodd" clip-rule="evenodd" d="M24.9879 33.0277L27.0257 35.0668C27.4286 35.4697 28.0817 35.4697 28.4846 35.0668C28.8874 34.664 28.8874 34.0108 28.4846 33.608L26.4454 31.5702C26.0439 31.1673 25.3894 31.1673 24.9879 31.5702C24.5851 31.9731 24.5851 32.6262 24.9879 33.0277Z" fill="#0E191E"/>
<path fill-rule="evenodd" clip-rule="evenodd" d="M36.3592 23.6954C32.109 19.4453 25.2093 19.4453 20.9605 23.6954C16.7104 27.9442 16.7104 34.8439 20.9605 39.094C25.2093 43.3428 32.109 43.3428 36.3592 39.094C40.6093 34.8439 40.6093 27.9442 36.3592 23.6954ZM34.9003 25.1529C38.346 28.5973 38.346 34.1908 34.9003 37.6352C31.4559 41.0795 25.8624 41.0795 22.418 37.6352C18.9737 34.1908 18.9737 28.5973 22.418 25.1529C25.8624 21.7085 31.4559 21.7085 34.9003 25.1529Z" fill="#0E191E"/>
<path fill-rule="evenodd" clip-rule="evenodd" d="M8.23486 42.2812H30.2156C31.042 42.2812 31.8051 42.0159 32.4266 41.5676C32.8405 41.2693 32.9739 40.7124 32.7401 40.2586C32.5064 39.8062 31.977 39.5904 31.493 39.754C30.5759 40.0634 29.6175 40.2188 28.6591 40.2188C26.4 40.2188 24.1409 39.358 22.418 37.6351C18.9736 34.1908 18.9736 28.5972 22.418 25.1529C25.1474 22.4235 29.2256 21.857 32.516 23.4534C32.835 23.6074 33.2117 23.5881 33.5129 23.3984C33.814 23.21 33.9969 22.88 33.9969 22.5252C33.9969 22.5252 33.9969 13.3375 33.9969 10.0677C33.9969 9.064 33.5981 8.10287 32.89 7.39337C31.7047 6.2095 29.5061 4.01087 28.3222 2.82563C27.6127 2.1175 26.6516 1.71875 25.6492 1.71875H8.23486C6.14624 1.71875 4.45361 3.41137 4.45361 5.5V38.5C4.45361 40.5886 6.14624 42.2812 8.23486 42.2812ZM22.2777 40.2188H8.23486C7.28611 40.2188 6.51611 39.4487 6.51611 38.5C6.51611 31.4132 6.51611 12.5868 6.51611 5.5C6.51611 4.55125 7.28611 3.78125 8.23486 3.78125H25.6492C26.1044 3.78125 26.5416 3.96275 26.8634 4.2845C28.0486 5.46837 30.2472 7.667 31.4311 8.85225C31.7529 9.174 31.9344 9.61125 31.9344 10.0677V21.0086C28.1875 19.8316 23.9277 20.7281 20.9605 23.6954C16.7104 27.9441 16.7104 34.8439 20.9605 39.094C21.3757 39.5093 21.8171 39.8846 22.2777 40.2188Z" fill="#0E191E"/>
<path fill-rule="evenodd" clip-rule="evenodd" d="M12.3503 15.8013H26.1003C26.6696 15.8013 27.1316 15.3393 27.1316 14.77C27.1316 14.2008 26.6696 13.7388 26.1003 13.7388H12.3503C11.7811 13.7388 11.3191 14.2008 11.3191 14.77C11.3191 15.3393 11.7811 15.8013 12.3503 15.8013Z" fill="#0E191E"/>
<path fill-rule="evenodd" clip-rule="evenodd" d="M12.3503 22.854H26.1003C26.6696 22.854 27.1316 22.392 27.1316 21.8228C27.1316 21.2535 26.6696 20.7915 26.1003 20.7915H12.3503C11.7811 20.7915 11.3191 21.2535 11.3191 21.8228C11.3191 22.392 11.7811 22.854 12.3503 22.854Z" fill="#0E191E"/>
<path fill-rule="evenodd" clip-rule="evenodd" d="M12.3503 29.9062H19.1291C19.6983 29.9062 20.1603 29.4442 20.1603 28.875C20.1603 28.3057 19.6983 27.8438 19.1291 27.8438H12.3503C11.7811 27.8438 11.3191 28.3057 11.3191 28.875C11.3191 29.4442 11.7811 29.9062 12.3503 29.9062Z" fill="#0E191E"/>
<path fill-rule="evenodd" clip-rule="evenodd" d="M24.75 37.6929H31.5948C32.164 37.6929 32.626 37.2309 32.626 36.6616C32.626 36.0924 32.164 35.6304 31.5948 35.6304H24.75C24.1808 35.6304 23.7188 36.0924 23.7188 36.6616C23.7188 37.2309 24.1808 37.6929 24.75 37.6929Z" fill="#0E191E"/>
</g>
<defs>
<clipPath id="clip0_125_3300">
<rect width="44" height="44" fill="white"/>
</clipPath>
</defs>
</svg>
