<svg width="44" height="44" viewBox="0 0 44 44" fill="none" xmlns="http://www.w3.org/2000/svg">
<g clip-path="url(#clip0_125_3312)">
<path fill-rule="evenodd" clip-rule="evenodd" d="M29.7026 24.3855V18.022C29.7026 17.0196 29.3053 16.0571 28.5958 15.3476C27.8863 14.6395 26.9251 14.2407 25.9214 14.2407C22.7135 14.2407 17.4418 14.2407 14.2339 14.2407C13.2315 14.2407 12.269 14.6395 11.5595 15.3476C10.8514 16.0571 10.4526 17.0196 10.4526 18.022V24.3855C10.4526 25.3878 10.8514 26.349 11.5595 27.0585C12.269 27.768 13.2315 28.1667 14.2339 28.1667H25.9214C26.9251 28.1667 27.8863 27.768 28.5958 27.0585C29.3053 26.349 29.7026 25.3878 29.7026 24.3855ZM27.6401 18.022V24.3855C27.6401 24.8406 27.46 25.2778 27.1369 25.5996C26.8151 25.9227 26.3779 26.1042 25.9214 26.1042H14.2339C13.7774 26.1042 13.3401 25.9227 13.0184 25.5996C12.6966 25.2778 12.5151 24.8406 12.5151 24.3855V18.022C12.5151 17.5655 12.6966 17.1282 13.0184 16.8065C13.3401 16.4847 13.7774 16.3032 14.2339 16.3032H25.9214C26.3779 16.3032 26.8151 16.4847 27.1369 16.8065C27.46 17.1282 27.6401 17.5655 27.6401 18.022Z" fill="#0E191E"/>
<path fill-rule="evenodd" clip-rule="evenodd" d="M35.1408 23.8286V18.5417C35.1408 17.8074 34.8053 17.1131 34.2291 16.6566C33.6544 16.2001 32.9009 16.0309 32.1859 16.1987L28.4376 17.0746C27.9701 17.1846 27.6401 17.5998 27.6401 18.0797V24.2906C27.6401 24.7691 27.9701 25.1857 28.4376 25.2943L32.1859 26.1716C32.9009 26.3379 33.6544 26.1702 34.2291 25.7137C34.8053 25.2572 35.1408 24.5628 35.1408 23.8286ZM33.0783 18.5417V23.8286C33.0783 23.9331 33.0301 24.0321 32.9476 24.0967C32.8651 24.1627 32.7579 24.1861 32.6561 24.1627L29.7026 23.4724V18.8978L32.6561 18.2076C32.7579 18.1828 32.8651 18.2076 32.9476 18.2722C33.0301 18.3382 33.0783 18.4372 33.0783 18.5417Z" fill="#0E191E"/>
<path fill-rule="evenodd" clip-rule="evenodd" d="M4.16779 29.6354L1.84266 37.9583C1.51816 39.1188 1.84404 40.3645 2.69654 41.217C3.54904 42.0695 4.79479 42.3954 5.95529 42.0709C5.95529 42.0709 11.26 40.5886 14.1737 39.809C14.1778 39.8076 14.1819 39.8076 14.1847 39.8063C15.154 39.5354 16.1812 39.5519 17.1409 39.853C17.1437 39.8544 17.1478 39.8558 17.1505 39.8558C18.938 40.3975 20.8342 40.6876 22.7963 40.6876C33.5502 40.6876 42.2814 31.9578 42.2814 21.2039C42.2814 10.45 33.5502 1.71875 22.7963 1.71875C12.0424 1.71875 3.31254 10.45 3.31254 21.2039C3.31254 23.1165 3.58891 24.9645 4.13341 26.7025C4.42491 27.6567 4.43591 28.6742 4.16779 29.6354ZM3.82816 38.5124L6.15466 30.1895C6.52866 28.8502 6.51216 27.4299 6.10516 26.1003C6.10516 26.0975 6.10379 26.0947 6.10379 26.092C5.61841 24.5465 5.37504 22.9034 5.37504 21.2039C5.37504 11.5885 13.1809 3.78125 22.7963 3.78125C32.4117 3.78125 40.2189 11.5885 40.2189 21.2039C40.2189 30.8193 32.4117 38.6251 22.7963 38.6251C21.0418 38.6251 19.3464 38.3666 17.7487 37.8826C16.4135 37.4646 14.9863 37.4426 13.6388 37.8166C10.7169 38.599 5.40116 40.0854 5.40116 40.0854C4.95704 40.2091 4.48129 40.084 4.15541 39.7581C3.82954 39.4323 3.70441 38.9565 3.82816 38.5124Z" fill="#0E191E"/>
</g>
<defs>
<clipPath id="clip0_125_3312">
<rect width="44" height="44" fill="white"/>
</clipPath>
</defs>
</svg>
