<svg width="44" height="44" viewBox="0 0 44 44" fill="none" xmlns="http://www.w3.org/2000/svg">
<g clip-path="url(#clip0_125_3306)">
<path fill-rule="evenodd" clip-rule="evenodd" d="M17.7512 37.418H26.2487C26.818 37.418 27.28 36.956 27.28 36.3867C27.28 35.8175 26.818 35.3555 26.2487 35.3555H17.7512C17.182 35.3555 16.72 35.8175 16.72 36.3867C16.72 36.956 17.182 37.418 17.7512 37.418Z" fill="#0E191E"/>
<path fill-rule="evenodd" clip-rule="evenodd" d="M19.1674 27.5415C19.7367 27.5415 20.1987 27.0795 20.1987 26.5102V24.0118C20.1987 23.0631 20.9673 22.2931 21.9174 22.2931H22.0824C23.0326 22.2931 23.8012 23.0631 23.8012 24.0118V26.5102C23.8012 27.0795 24.2632 27.5415 24.8324 27.5415H37.6639C38.6663 27.5415 39.6288 27.1427 40.3383 26.4332C41.0464 25.7251 41.4452 24.7626 41.4452 23.7602C41.4452 20.9208 41.4452 16.5181 41.4452 13.6787C41.4452 12.6763 41.0464 11.7138 40.3383 11.0057C39.6288 10.2962 38.6663 9.89746 37.6639 9.89746H6.33594C5.33356 9.89746 4.37106 10.2962 3.66156 11.0057C2.95344 11.7138 2.55469 12.6763 2.55469 13.6787V23.7602C2.55469 24.7626 2.95344 25.7251 3.66156 26.4332C4.37106 27.1427 5.33356 27.5415 6.33594 27.5415H19.1674ZM18.1362 25.479H6.33594C5.87944 25.479 5.44356 25.2975 5.12044 24.9757C4.79869 24.6526 4.61719 24.2153 4.61719 23.7602V13.6787C4.61719 13.2236 4.79869 12.7863 5.12044 12.4632C5.44356 12.1415 5.87944 11.96 6.33594 11.96H37.6639C38.1204 11.96 38.5563 12.1415 38.8794 12.4632C39.2012 12.7863 39.3827 13.2236 39.3827 13.6787V23.7602C39.3827 24.2153 39.2012 24.6526 38.8794 24.9757C38.5563 25.2975 38.1204 25.479 37.6639 25.479H25.8637V24.0118C25.8637 21.9232 24.1711 20.2306 22.0824 20.2306C22.0274 20.2306 21.9724 20.2306 21.9174 20.2306C19.8288 20.2306 18.1362 21.9232 18.1362 24.0118V25.479Z" fill="#0E191E"/>
<path fill-rule="evenodd" clip-rule="evenodd" d="M24.8324 25.4788C24.2632 25.4788 23.8012 25.9408 23.8012 26.5101V28.1367C23.8012 29.0854 23.0326 29.8554 22.0824 29.8554C22.0274 29.8554 21.9724 29.8554 21.9174 29.8554C20.9673 29.8554 20.1987 29.0854 20.1987 28.1367V26.5101C20.1987 25.9408 19.7367 25.4788 19.1674 25.4788H6.41845C6.09945 25.4788 5.79007 25.3936 5.51782 25.2368C5.19882 25.0526 4.80557 25.0526 4.48657 25.2368C4.16757 25.4211 3.97095 25.7621 3.97095 26.1306V37.8414C3.97095 38.8658 4.37795 39.8489 5.10257 40.5736C5.8272 41.2982 6.81032 41.7052 7.83607 41.7052H36.1652C37.1896 41.7052 38.1727 41.2982 38.8973 40.5736C39.6219 39.8489 40.0289 38.8658 40.0289 37.8414V26.1306C40.0289 25.7621 39.8323 25.4211 39.5133 25.2368C39.1943 25.0526 38.8011 25.0526 38.4821 25.2368C38.2098 25.3936 37.9004 25.4788 37.5814 25.4788H24.8324ZM25.8637 27.5413H37.5814C37.7107 27.5413 37.8386 27.5344 37.9664 27.5221V37.8414C37.9664 38.3199 37.7767 38.7778 37.4384 39.1161C37.1002 39.4529 36.6423 39.6427 36.1652 39.6427H7.8347C7.35757 39.6427 6.8997 39.4529 6.56145 39.1161C6.2232 38.7778 6.03345 38.3199 6.03345 37.8414V27.5221C6.16132 27.5344 6.2892 27.5413 6.41845 27.5413H18.1362V28.1367C18.1362 30.2253 19.8288 31.9179 21.9174 31.9179H22.0824C24.1711 31.9179 25.8637 30.2253 25.8637 28.1367V27.5413Z" fill="#0E191E"/>
<path fill-rule="evenodd" clip-rule="evenodd" d="M25.8637 24.0117C25.8637 21.9231 24.1711 20.2305 22.0825 20.2305C22.0275 20.2305 21.9725 20.2305 21.9175 20.2305C19.8289 20.2305 18.1362 21.9231 18.1362 24.0117V28.1367C18.1362 30.2253 19.8289 31.918 21.9175 31.918H22.0825C24.1711 31.918 25.8637 30.2253 25.8637 28.1367V24.0117ZM23.8012 24.0117V28.1367C23.8012 29.0855 23.0326 29.8555 22.0825 29.8555C22.0275 29.8555 21.9725 29.8555 21.9175 29.8555C20.9674 29.8555 20.1987 29.0855 20.1987 28.1367V24.0117C20.1987 23.063 20.9674 22.293 21.9175 22.293H22.0825C23.0326 22.293 23.8012 23.063 23.8012 24.0117Z" fill="#0E191E"/>
<path fill-rule="evenodd" clip-rule="evenodd" d="M15.2157 10.8844L15.2144 10.839V7.73975C15.2144 6.91338 15.5155 6.21625 15.8606 5.86013C16.1672 5.54388 16.533 5.40088 16.9029 5.40088H27.0971C27.467 5.40088 27.8327 5.54388 28.1394 5.86013C28.4845 6.21625 28.7856 6.91338 28.7856 7.73975V10.9284C28.7856 11.312 28.5739 11.6626 28.2342 11.8414C28.2342 11.8414 28.072 11.9101 27.7654 11.9431L27.7544 11.9596C27.7159 11.9596 27.6774 11.9583 27.6389 11.9528C27.5742 11.9583 27.5055 11.9596 27.4326 11.9596C25.5681 11.9596 16.2456 11.9596 16.2456 11.9596L15.2859 11.3093C15.2322 11.1718 15.2089 11.0274 15.2157 10.8844ZM17.314 7.46338H26.686L26.6956 7.50738C26.7094 7.58438 26.7217 7.66138 26.7231 7.73975V9.89713H17.2769V7.74113C17.2769 7.6545 17.2947 7.55138 17.314 7.46338Z" fill="#0E191E"/>
<path fill-rule="evenodd" clip-rule="evenodd" d="M32.7318 10.9285V7.3535C32.7318 4.24188 30.2087 1.71875 27.0971 1.71875H16.9028C13.7912 1.71875 11.2681 4.24188 11.2681 7.3535V10.9285H13.3306V7.3535C13.3306 5.38038 14.9297 3.78125 16.9028 3.78125H27.0971C29.0702 3.78125 30.6693 5.38038 30.6693 7.3535V10.9285H32.7318Z" fill="#0E191E"/>
</g>
<defs>
<clipPath id="clip0_125_3306">
<rect width="44" height="44" fill="white"/>
</clipPath>
</defs>
</svg>
