<svg width="44" height="44" viewBox="0 0 44 44" fill="none" xmlns="http://www.w3.org/2000/svg">
<g clip-path="url(#clip0_125_3294)">
<path fill-rule="evenodd" clip-rule="evenodd" d="M33.6875 38.1561H37.8125C38.3818 38.1561 38.8438 37.6941 38.8438 37.1248V22.2886C38.8438 20.5808 37.4577 19.1948 35.75 19.1948C34.0423 19.1948 32.6562 20.5808 32.6562 22.2886V37.1248C32.6562 37.6941 33.1182 38.1561 33.6875 38.1561ZM34.7188 36.0936V22.2886C34.7188 21.7193 35.1807 21.2573 35.75 21.2573C36.3193 21.2573 36.7812 21.7193 36.7812 22.2886V36.0936H34.7188Z" fill="#0E191E"/>
<path fill-rule="evenodd" clip-rule="evenodd" d="M23.489 37.125C23.489 37.6943 23.951 38.1562 24.5203 38.1562H28.6453C29.2159 38.1562 29.6765 37.6943 29.6765 37.125V24.75C29.6765 23.0423 28.2905 21.6562 26.5828 21.6562C24.8764 21.6562 23.489 23.0423 23.489 24.75V37.125ZM25.5515 36.0938V24.75C25.5515 24.1807 26.0135 23.7188 26.5828 23.7188C27.152 23.7188 27.614 24.1807 27.614 24.75V36.0938H25.5515Z" fill="#0E191E"/>
<path fill-rule="evenodd" clip-rule="evenodd" d="M19.4797 38.1562C20.049 38.1562 20.511 37.6943 20.511 37.125V15.8125C20.511 14.1048 19.1236 12.7188 17.4172 12.7188C15.7095 12.7188 14.3235 14.1048 14.3235 15.8125V37.125C14.3235 37.6943 14.7841 38.1562 15.3547 38.1562H19.4797ZM18.4485 36.0938H16.386V15.8125C16.386 15.2432 16.848 14.7812 17.4172 14.7812C17.9865 14.7812 18.4485 15.2432 18.4485 15.8125V36.0938Z" fill="#0E191E"/>
<path fill-rule="evenodd" clip-rule="evenodd" d="M6.1875 38.1562H10.3125C10.8818 38.1562 11.3438 37.6943 11.3438 37.125V20.625C11.3438 18.9173 9.95775 17.5312 8.25 17.5312C6.54225 17.5312 5.15625 18.9173 5.15625 20.625V37.125L6.1875 38.1562ZM7.21875 36.0938V20.625C7.21875 20.0557 7.68075 19.5938 8.25 19.5938C8.81925 19.5938 9.28125 20.0557 9.28125 20.625V36.0938H7.21875Z" fill="#0E191E"/>
<path fill-rule="evenodd" clip-rule="evenodd" d="M39.1875 42.2812C40.8952 42.2812 42.2812 40.8952 42.2812 39.1875C42.2812 37.4798 40.8952 36.0938 39.1875 36.0938H4.8125C3.10475 36.0938 1.71875 37.4798 1.71875 39.1875C1.71875 40.8952 3.10475 42.2812 4.8125 42.2812H39.1875ZM39.1875 40.2188H4.8125C4.24325 40.2188 3.78125 39.7568 3.78125 39.1875C3.78125 38.6182 4.24325 38.1562 4.8125 38.1562H39.1875C39.7567 38.1562 40.2188 38.6182 40.2188 39.1875C40.2188 39.7568 39.7567 40.2188 39.1875 40.2188Z" fill="#0E191E"/>
<path fill-rule="evenodd" clip-rule="evenodd" d="M32.8446 10.6905L28.9203 12.7406C28.4157 13.0046 28.2191 13.6275 28.4831 14.1321C28.7471 14.6367 29.37 14.8334 29.8746 14.5694L33.8002 12.5192C34.3048 12.2552 34.5001 11.6324 34.2361 11.1277C33.9735 10.6231 33.3492 10.4279 32.8446 10.6905Z" fill="#0E191E"/>
<path fill-rule="evenodd" clip-rule="evenodd" d="M25.3331 12.1607L20.3281 6.53693C19.95 6.11068 19.2982 6.07355 18.8734 6.45168C18.4471 6.8298 18.41 7.48155 18.7881 7.9078L23.7931 13.5329C24.1712 13.9578 24.823 13.9949 25.2479 13.6168C25.6741 13.2387 25.7112 12.5869 25.3331 12.1607Z" fill="#0E191E"/>
<path fill-rule="evenodd" clip-rule="evenodd" d="M14.3179 5.27473L10.2204 7.42523C9.71718 7.69061 9.52193 8.31486 9.7873 8.81811C10.0513 9.32273 10.6756 9.51661 11.1802 9.25261L15.2777 7.10073C15.7809 6.83673 15.9748 6.21248 15.7108 5.70786C15.4468 5.20461 14.8226 5.01073 14.3179 5.27473Z" fill="#0E191E"/>
<path fill-rule="evenodd" clip-rule="evenodd" d="M35.75 6.53125C33.6628 6.53125 31.9688 8.22525 31.9688 10.3125C31.9688 12.3998 33.6628 14.0938 35.75 14.0938C37.8373 14.0938 39.5312 12.3998 39.5312 10.3125C39.5312 8.22525 37.8373 6.53125 35.75 6.53125ZM35.75 8.59375C36.6988 8.59375 37.4688 9.36375 37.4688 10.3125C37.4688 11.2613 36.6988 12.0312 35.75 12.0312C34.8012 12.0312 34.0312 11.2613 34.0312 10.3125C34.0312 9.36375 34.8012 8.59375 35.75 8.59375Z" fill="#0E191E"/>
<path fill-rule="evenodd" clip-rule="evenodd" d="M26.7739 10.7002C24.6867 10.7002 22.9927 12.3942 22.9927 14.4814C22.9927 16.5687 24.6867 18.2627 26.7739 18.2627C28.8612 18.2627 30.5552 16.5687 30.5552 14.4814C30.5552 12.3942 28.8612 10.7002 26.7739 10.7002ZM26.7739 12.7627C27.7227 12.7627 28.4927 13.5327 28.4927 14.4814C28.4927 15.4302 27.7227 16.2002 26.7739 16.2002C25.8252 16.2002 25.0552 15.4302 25.0552 14.4814C25.0552 13.5327 25.8252 12.7627 26.7739 12.7627Z" fill="#0E191E"/>
<path fill-rule="evenodd" clip-rule="evenodd" d="M17.4172 1.71582C15.33 1.71582 13.636 3.40982 13.636 5.49707C13.636 7.58432 15.33 9.27832 17.4172 9.27832C19.5031 9.27832 21.1985 7.58432 21.1985 5.49707C21.1985 3.40982 19.5031 1.71582 17.4172 1.71582ZM17.4172 3.77832C18.366 3.77832 19.136 4.54832 19.136 5.49707C19.136 6.44582 18.366 7.21582 17.4172 7.21582C16.4685 7.21582 15.6985 6.44582 15.6985 5.49707C15.6985 4.54832 16.4685 3.77832 17.4172 3.77832Z" fill="#0E191E"/>
<path fill-rule="evenodd" clip-rule="evenodd" d="M8.25 5.80664C6.16275 5.80664 4.46875 7.50064 4.46875 9.58789C4.46875 11.6751 6.16275 13.3691 8.25 13.3691C10.3373 13.3691 12.0312 11.6751 12.0312 9.58789C12.0312 7.50064 10.3373 5.80664 8.25 5.80664ZM8.25 7.86914C9.19875 7.86914 9.96875 8.63914 9.96875 9.58789C9.96875 10.5366 9.19875 11.3066 8.25 11.3066C7.30125 11.3066 6.53125 10.5366 6.53125 9.58789C6.53125 8.63914 7.30125 7.86914 8.25 7.86914Z" fill="#0E191E"/>
</g>
<defs>
<clipPath id="clip0_125_3294">
<rect width="44" height="44" fill="white"/>
</clipPath>
</defs>
</svg>
