<svg width="44" height="44" viewBox="0 0 44 44" fill="none" xmlns="http://www.w3.org/2000/svg">
<g clip-path="url(#clip0_125_3276)">
<path d="M7.56239 10.9012C8.28761 10.9012 8.87552 10.3132 8.87552 9.58803C8.87552 8.86281 8.28761 8.2749 7.56239 8.2749C6.83717 8.2749 6.24927 8.86281 6.24927 9.58803C6.24927 10.3132 6.83717 10.9012 7.56239 10.9012Z" fill="#0E191E"/>
<path d="M7.56239 17.1077C8.28761 17.1077 8.87552 16.5198 8.87552 15.7946C8.87552 15.0694 8.28761 14.4814 7.56239 14.4814C6.83717 14.4814 6.24927 15.0694 6.24927 15.7946C6.24927 16.5198 6.83717 17.1077 7.56239 17.1077Z" fill="#0E191E"/>
<path d="M7.56239 23.3133C8.28761 23.3133 8.87552 22.7254 8.87552 22.0001C8.87552 21.2749 8.28761 20.687 7.56239 20.687C6.83717 20.687 6.24927 21.2749 6.24927 22.0001C6.24927 22.7254 6.83717 23.3133 7.56239 23.3133Z" fill="#0E191E"/>
<path d="M7.56239 29.5183C8.28761 29.5183 8.87552 28.9304 8.87552 28.2052C8.87552 27.48 8.28761 26.8921 7.56239 26.8921C6.83717 26.8921 6.24927 27.48 6.24927 28.2052C6.24927 28.9304 6.83717 29.5183 7.56239 29.5183Z" fill="#0E191E"/>
<path d="M7.56239 35.7254C8.28761 35.7254 8.87552 35.1375 8.87552 34.4122C8.87552 33.687 8.28761 33.0991 7.56239 33.0991C6.83717 33.0991 6.24927 33.687 6.24927 34.4122C6.24927 35.1375 6.83717 35.7254 7.56239 35.7254Z" fill="#0E191E"/>
<path fill-rule="evenodd" clip-rule="evenodd" d="M11.4648 10.6191H26.1251C26.6943 10.6191 27.1563 10.1571 27.1563 9.58789C27.1563 9.01864 26.6943 8.55664 26.1251 8.55664H11.4648C10.8956 8.55664 10.4336 9.01864 10.4336 9.58789C10.4336 10.1571 10.8956 10.6191 11.4648 10.6191Z" fill="#0E191E"/>
<path fill-rule="evenodd" clip-rule="evenodd" d="M11.4648 16.8257H23.6886C24.2578 16.8257 24.7198 16.3623 24.7198 15.7944C24.7198 15.2252 24.2578 14.7632 23.6886 14.7632H11.4648C10.8956 14.7632 10.4336 15.2252 10.4336 15.7944C10.4336 16.3623 10.8956 16.8257 11.4648 16.8257Z" fill="#0E191E"/>
<path fill-rule="evenodd" clip-rule="evenodd" d="M11.4648 23.0312H21.1613C21.7306 23.0312 22.1926 22.5692 22.1926 22C22.1926 21.4307 21.7306 20.9688 21.1613 20.9688H11.4648C10.8956 20.9688 10.4336 21.4307 10.4336 22C10.4336 22.5692 10.8956 23.0312 11.4648 23.0312Z" fill="#0E191E"/>
<path fill-rule="evenodd" clip-rule="evenodd" d="M11.4648 29.2368H18.9847C19.554 29.2368 20.016 28.7748 20.016 28.2056C20.016 27.6377 19.554 27.1743 18.9847 27.1743H11.4648C10.8956 27.1743 10.4336 27.6377 10.4336 28.2056C10.4336 28.7748 10.8956 29.2368 11.4648 29.2368Z" fill="#0E191E"/>
<path fill-rule="evenodd" clip-rule="evenodd" d="M11.4648 35.4434H18.9847C19.554 35.4434 20.016 34.9814 20.016 34.4121C20.016 33.8429 19.554 33.3809 18.9847 33.3809H11.4648C10.8956 33.3809 10.4336 33.8429 10.4336 34.4121C10.4336 34.9814 10.8956 35.4434 11.4648 35.4434Z" fill="#0E191E"/>
<path fill-rule="evenodd" clip-rule="evenodd" d="M32.6562 25.0938C28.4818 25.0938 25.0938 28.4818 25.0938 32.6562C25.0938 36.8307 28.4818 40.2188 32.6562 40.2188H32.6631C33.2296 40.2229 33.6875 40.6821 33.6875 41.25C33.6875 41.8192 33.2255 42.2812 32.6562 42.2812H6.1875C5.18513 42.2812 4.22263 41.8825 3.51313 41.1744C2.805 40.4649 2.40625 39.5024 2.40625 38.5C2.40625 31.4132 2.40625 12.5868 2.40625 5.5C2.40625 4.49763 2.805 3.53513 3.51313 2.82563C4.22263 2.1175 5.18513 1.71875 6.1875 1.71875H29.9062C30.9086 1.71875 31.8711 2.1175 32.5806 2.82563C33.2887 3.53513 33.6875 4.49763 33.6875 5.5V24.0625C33.6875 24.6139 33.2544 25.0649 32.7099 25.0924L32.6562 25.0938ZM31.625 23.0863C26.7974 23.6019 23.0312 27.6925 23.0312 32.6562C23.0312 35.7225 24.4681 38.456 26.7053 40.2188H6.1875C5.731 40.2188 5.29513 40.0373 4.972 39.7155C4.65025 39.3924 4.46875 38.9565 4.46875 38.5V5.5C4.46875 5.0435 4.65025 4.60763 4.972 4.2845C5.29513 3.96275 5.731 3.78125 6.1875 3.78125H29.9062C30.3627 3.78125 30.7986 3.96275 31.1218 4.2845C31.4435 4.60763 31.625 5.0435 31.625 5.5V23.0863Z" fill="#0E191E"/>
<path fill-rule="evenodd" clip-rule="evenodd" d="M32.6562 23.0312C27.3446 23.0312 23.0312 27.3446 23.0312 32.6562C23.0312 37.9679 27.3446 42.2812 32.6562 42.2812C37.9679 42.2812 42.2812 37.9679 42.2812 32.6562C42.2812 27.3446 37.9679 23.0312 32.6562 23.0312ZM32.6562 25.0938C36.8308 25.0938 40.2188 28.4818 40.2188 32.6562C40.2188 36.8308 36.8308 40.2188 32.6562 40.2188C28.4818 40.2188 25.0938 36.8308 25.0938 32.6562C25.0938 28.4818 28.4818 25.0938 32.6562 25.0938Z" fill="#0E191E"/>
<path d="M29.8086 35.7871C29.6037 35.5341 29.502 35.3072 29.502 35.1065C29.502 34.9057 29.6711 34.639 30.0107 34.3076C30.2073 34.1179 30.4163 34.023 30.6377 34.023C30.8591 34.023 31.1671 34.221 31.5617 34.6156C31.6717 34.749 31.8298 34.8783 32.0347 35.0006C32.2396 35.123 32.4293 35.1835 32.6026 35.1835C33.3368 35.1835 33.704 34.8837 33.704 34.2843C33.704 34.1027 33.6036 33.9501 33.4015 33.8277C33.2007 33.7054 32.9505 33.6174 32.6507 33.5624C32.351 33.506 32.0265 33.418 31.68 33.2956C31.3321 33.1733 31.009 33.0289 30.7092 32.8639C30.4095 32.6975 30.1578 32.4349 29.9571 32.076C29.7563 31.7171 29.656 31.2854 29.656 30.7794C29.656 30.085 29.9145 29.48 30.4301 28.963C30.9471 28.446 31.6525 28.1875 32.5435 28.1875C33.0178 28.1875 33.4496 28.248 33.8401 28.3704C34.2306 28.4927 34.5015 28.6179 34.6513 28.7444L34.947 28.9685C35.1917 29.1981 35.3141 29.3906 35.3141 29.5487C35.3141 29.7069 35.2192 29.9241 35.0295 30.2005C34.7613 30.5951 34.485 30.7917 34.2017 30.7917C34.0353 30.7917 33.8305 30.7134 33.5857 30.5553C33.5623 30.5388 33.517 30.5002 33.4496 30.437C33.3822 30.3737 33.3217 30.3229 33.2653 30.283C33.1003 30.1799 32.8886 30.129 32.6328 30.129C32.3757 30.129 32.1626 30.1895 31.9935 30.3119C31.823 30.4343 31.7391 30.6048 31.7391 30.822C31.7391 31.0379 31.8395 31.2139 32.0402 31.3486C32.2423 31.482 32.4926 31.5727 32.7923 31.6209C33.0921 31.6676 33.4193 31.7405 33.7755 31.8395C34.1302 31.9385 34.4575 32.0581 34.7572 32.2011C35.057 32.3428 35.3072 32.5889 35.5093 32.9409C35.7101 33.2915 35.8105 33.7233 35.8105 34.2361C35.8105 34.749 35.7087 35.2014 35.5038 35.5919C35.2976 35.9824 35.0295 36.2849 34.6981 36.498C34.0587 36.916 33.3767 37.125 32.6507 37.125C32.2795 37.125 31.9288 37.0796 31.5961 36.9889C31.2647 36.8981 30.9966 36.7854 30.7917 36.652C30.3737 36.399 30.0808 36.1542 29.9158 35.9177L29.8086 35.7871Z" fill="#0E191E"/>
</g>
<defs>
<clipPath id="clip0_125_3276">
<rect width="44" height="44" fill="white"/>
</clipPath>
</defs>
</svg>
