<svg width="44" height="44" viewBox="0 0 44 44" fill="none" xmlns="http://www.w3.org/2000/svg">
<g clip-path="url(#clip0_125_3282)">
<path fill-rule="evenodd" clip-rule="evenodd" d="M22 7.34814C19.932 7.34814 18.2532 9.02702 18.2532 11.095C18.2532 13.163 19.932 14.8419 22 14.8419C24.068 14.8419 25.7469 13.163 25.7469 11.095C25.7469 9.02702 24.068 7.34814 22 7.34814ZM22 9.41064C22.9295 9.41064 23.6844 10.1655 23.6844 11.095C23.6844 12.0245 22.9295 12.7794 22 12.7794C21.0705 12.7794 20.3157 12.0245 20.3157 11.095C20.3157 10.1655 21.0705 9.41064 22 9.41064Z" fill="#0E191E"/>
<path fill-rule="evenodd" clip-rule="evenodd" d="M28.6178 21.2701V20.0051C28.6178 18.857 28.1613 17.7556 27.3501 16.943C26.5375 16.1303 25.4361 15.6738 24.2866 15.6738C22.8442 15.6738 21.1557 15.6738 19.7133 15.6738C18.5638 15.6738 17.4625 16.1303 16.6498 16.943C15.8386 17.7556 15.3821 18.857 15.3821 20.0051V21.2701C15.3821 22.74 16.5742 23.9321 18.0441 23.9321H25.9558C27.4257 23.9321 28.6178 22.74 28.6178 21.2701ZM26.5553 20.0051V21.2701C26.5553 21.6015 26.2872 21.8696 25.9558 21.8696H18.0441C17.7127 21.8696 17.4446 21.6015 17.4446 21.2701V20.0051C17.4446 19.4042 17.6838 18.8267 18.1087 18.4018C18.535 17.9756 19.1111 17.7363 19.7133 17.7363H24.2866C24.8888 17.7363 25.465 17.9756 25.8912 18.4018C26.3161 18.8267 26.5553 19.4042 26.5553 20.0051Z" fill="#0E191E"/>
<path fill-rule="evenodd" clip-rule="evenodd" d="M3.0896 27.0835H40.9104C41.4796 27.0835 41.9416 26.6215 41.9416 26.0522C41.9416 25.483 41.4796 25.021 40.9104 25.021H3.0896C2.52035 25.021 2.05835 25.483 2.05835 26.0522C2.05835 26.6215 2.52035 27.0835 3.0896 27.0835Z" fill="#0E191E"/>
<path fill-rule="evenodd" clip-rule="evenodd" d="M34.738 32.355C34.738 31.7857 34.276 31.3237 33.7067 31.3237H10.2932C9.72396 31.3237 9.26196 31.7857 9.26196 32.355V35.9094C9.26196 36.9117 9.66071 37.8729 10.3702 38.5824C11.0783 39.2919 12.0408 39.6906 13.0432 39.6906H30.9567C31.9591 39.6906 32.9216 39.2919 33.6297 38.5824C34.3392 37.8729 34.738 36.9117 34.738 35.9094C34.738 34.2112 34.738 32.355 34.738 32.355ZM32.6755 33.3862V35.9094C32.6755 36.3645 32.494 36.8017 32.1722 37.1249C31.8491 37.4466 31.4118 37.6281 30.9567 37.6281H13.0432C12.5881 37.6281 12.1508 37.4466 11.8277 37.1249C11.506 36.8017 11.3245 36.3645 11.3245 35.9094V33.3862H32.6755Z" fill="#0E191E"/>
<path fill-rule="evenodd" clip-rule="evenodd" d="M5.79147 4.30908C4.80147 4.30908 3.85135 4.70233 3.15147 5.40221C2.4516 6.10346 2.05835 7.05221 2.05835 8.04221V29.6545C2.05835 30.6445 2.4516 31.5932 3.15147 32.2931C3.85135 32.993 4.80147 33.3862 5.79147 33.3862H38.2085C39.1985 33.3862 40.1486 32.993 40.8485 32.2931C41.5484 31.5932 41.9416 30.6445 41.9416 29.6545C41.9416 24.4776 41.9416 13.2177 41.9416 8.04221C41.9416 7.05221 41.5484 6.10346 40.8485 5.40221C40.1486 4.70233 39.1985 4.30908 38.2085 4.30908H5.79147ZM5.79147 6.37158H38.2085C38.6512 6.37158 39.0761 6.54758 39.3896 6.86108C39.7031 7.17458 39.8791 7.59946 39.8791 8.04221V29.6545C39.8791 30.0972 39.7031 30.5221 39.3896 30.8356C39.0761 31.1477 38.6512 31.3237 38.2085 31.3237H5.79147C5.34872 31.3237 4.92385 31.1477 4.61035 30.8356C4.29685 30.5221 4.12085 30.0972 4.12085 29.6545V8.04221C4.12085 7.59946 4.29685 7.17458 4.61035 6.86108C4.92385 6.54758 5.34872 6.37158 5.79147 6.37158Z" fill="#0E191E"/>
<path fill-rule="evenodd" clip-rule="evenodd" d="M18.5928 30.2349H25.4375C26.0068 30.2349 26.4688 29.7729 26.4688 29.2036C26.4688 28.6344 26.0068 28.1724 25.4375 28.1724H18.5928C18.0235 28.1724 17.5615 28.6344 17.5615 29.2036C17.5615 29.7729 18.0235 30.2349 18.5928 30.2349Z" fill="#0E191E"/>
</g>
<defs>
<clipPath id="clip0_125_3282">
<rect width="44" height="44" fill="white"/>
</clipPath>
</defs>
</svg>
