<svg width="40" height="40" viewBox="0 0 40 40" fill="none" xmlns="http://www.w3.org/2000/svg">
<g clip-path="url(#clip0_231_2416)">
<path d="M37.1666 3.49902H22.4681C21.2456 3.49902 20.2544 4.49023 20.2544 5.71277V14.027C20.2544 15.2495 21.2456 16.2407 22.4681 16.2407H27.6967L26.8517 19.6517C26.7415 20.096 27.253 20.4305 27.6161 20.1516L32.7074 16.2407H37.1669C38.3895 16.2407 39.3807 15.2498 39.3807 14.027V5.71277C39.3804 4.49023 38.3895 3.49902 37.1666 3.49902Z" fill="#88DBFD"/>
<path d="M27.505 17.0134L26.8517 19.6517C26.7415 20.096 27.253 20.4305 27.6161 20.1516L32.7074 16.2407H28.5109L27.505 17.0134Z" fill="#5ABFE9"/>
<path d="M37.1667 3.49902H32.9702C34.1931 3.49902 35.184 4.49023 35.184 5.71277V14.027C35.184 15.2495 34.1931 16.2407 32.9702 16.2407H37.1667C38.3895 16.2407 39.3804 15.2498 39.3804 14.027V5.71277C39.3804 4.49023 38.3895 3.49902 37.1667 3.49902Z" fill="#5ABFE9"/>
<path d="M31.4583 29.722C31.3481 27.8434 30.1555 26.3126 28.3806 25.4813C26.208 24.4642 20.2916 22.9252 20.2916 22.9252C19.7197 22.819 19.3049 22.32 19.3049 21.7386V18.3567H12.8727V21.7386C12.8727 22.32 12.458 22.819 11.8864 22.9252C11.8864 22.9252 5.96997 24.4642 3.79712 25.4813C2.02222 26.3126 0.829591 27.8434 0.719423 29.722L0.586061 37.7851C0.575075 38.6814 1.29895 39.4141 2.19556 39.4141H29.9821C30.8787 39.4141 31.6026 38.6814 31.5919 37.7851L31.4583 29.722Z" fill="#FCC18B"/>
<path d="M31.4582 29.722C31.348 27.8434 30.1554 26.3126 28.3805 25.4813C26.2079 24.4642 20.2915 22.9252 20.2915 22.9252C19.7196 22.819 19.3049 22.32 19.3049 21.7386V18.3567H15.1084V23.7672C15.1084 24.3485 15.5231 24.8475 16.0947 24.9534C16.0947 24.9534 22.0115 26.4927 24.184 27.5098C25.9589 28.3408 27.1516 29.8719 27.2617 31.7502L27.3887 39.4141H29.9821C30.8787 39.4141 31.6025 38.6814 31.5919 37.7851L31.4582 29.722Z" fill="#EAAB65"/>
<path d="M9.42058 9.79443H8.57616C8.27037 9.79443 7.98839 9.89789 7.76378 10.0715C7.37377 10.373 7.20256 10.8802 7.29076 11.3655L7.62249 13.1913C7.87975 14.5445 9.42272 13.9262 9.42272 13.9262L9.42058 9.79443Z" fill="#EAAB65"/>
<path d="M22.757 9.79443H23.6014C23.9072 9.79443 24.1892 9.89789 24.4138 10.0715C24.8038 10.373 24.975 10.8802 24.8868 11.3655L24.5551 13.1913C24.2979 14.5445 22.7549 13.9262 22.7549 13.9262L22.757 9.79443Z" fill="#FCC18B"/>
<path d="M20.7693 2.85516C19.6713 1.83984 18.1277 0.953919 16.0891 0.929199C14.0502 0.953919 12.5067 1.83984 11.4086 2.85516C10.0082 4.15002 9.24951 6.07324 9.24951 8.0578L9.25134 14.9777C9.25134 18.2491 13.5034 21.6369 16.0891 21.6369C18.6746 21.6369 22.9269 18.2491 22.9269 14.9777L22.9287 8.0578C22.9284 6.07324 22.1697 4.15002 20.7693 2.85516Z" fill="#FCC18B"/>
<path d="M20.7693 2.85516C19.6713 1.83984 18.1277 0.953919 16.0891 0.929199C15.3201 0.93866 14.6215 1.0705 13.9907 1.28564C15.0323 1.64087 15.8889 2.22284 16.5728 2.85516C17.9733 4.15002 18.7319 6.07324 18.7319 8.0578L18.7301 14.9777C18.7301 17.4529 16.2957 19.9948 13.9907 21.0851C14.732 21.4358 15.4598 21.6369 16.0888 21.6369C18.6746 21.6369 22.9266 18.2491 22.9266 14.9777L22.9284 8.0578C22.9284 6.07324 22.1697 4.15002 20.7693 2.85516Z" fill="#EAAB65"/>
<path d="M20.32 0.585938H11.8578C9.68036 0.585938 7.91553 2.35107 7.91553 4.5282V9.96826C7.91553 9.96826 9.00104 9.94354 9.69867 10.6339C9.84393 10.7776 10.0908 10.6726 10.0908 10.4681V6.20483C10.0908 5.24231 10.8712 4.46228 11.8334 4.46228H13.4169C13.8323 4.46228 14.2348 4.60571 14.5562 4.86877L14.7115 4.99573C15.1 5.31342 15.5867 5.48706 16.0887 5.48706C16.5911 5.48706 17.0775 5.31342 17.4663 4.99573L17.6216 4.86877C17.943 4.60571 18.3455 4.46228 18.7609 4.46228H20.3441C21.3066 4.46228 22.087 5.24231 22.087 6.20483V10.4684C22.087 10.6726 22.3339 10.7779 22.4791 10.6342C23.1765 9.94354 24.2623 9.96826 24.2623 9.96826V4.5285C24.2623 2.35107 22.4971 0.585938 20.32 0.585938Z" fill="#426175"/>
<path d="M20.3201 0.585938H18.8564C19.5928 1.45294 20.0549 2.75513 20.0665 4.46228H20.3445C21.3067 4.46228 22.087 5.24231 22.087 6.20483V10.4684C22.087 10.6726 22.3339 10.7779 22.4792 10.6342C23.1768 9.94354 24.2623 9.96826 24.2623 9.96826V4.5285C24.2623 2.35107 22.4972 0.585938 20.3201 0.585938Z" fill="#2C4456"/>
<path d="M28.3806 25.4813C27.1162 24.8895 24.5845 24.1208 22.6881 23.5815L22.278 23.7372C18.2902 25.2475 13.8875 25.2475 9.89972 23.7372L9.48956 23.5815C7.5932 24.1208 5.06146 24.8895 3.79712 25.4813C2.02222 26.3126 0.829591 27.8433 0.719423 29.722L0.586061 37.785C0.575075 38.6813 1.29895 39.4141 2.19556 39.4141H29.9821C30.8787 39.4141 31.6026 38.6813 31.5919 37.785L31.4583 29.722C31.3481 27.8433 30.1555 26.3126 28.3806 25.4813Z" fill="#33BCA5"/>
<path d="M25.9541 37.3935H5.93031C5.32148 37.3935 4.8158 36.9229 4.77247 36.3153L3.95368 24.8251C3.90577 24.1531 4.438 23.5815 5.11152 23.5815H26.7732C27.4467 23.5815 27.9789 24.1531 27.931 24.8251L27.1119 36.3153C27.0686 36.9229 26.5632 37.3935 25.9541 37.3935Z" fill="#F2F2F2"/>
<path d="M26.7732 23.5815H22.5459C23.2194 23.5815 23.7516 24.1531 23.7037 24.8251L22.808 37.3935H25.9541C26.5632 37.3935 27.0689 36.9229 27.1119 36.3153L27.931 24.8251C27.9789 24.1531 27.4467 23.5815 26.7732 23.5815Z" fill="#CDD6DF"/>
<path d="M27.3902 39.4141H4.78796C4.2301 39.4141 3.77783 38.9619 3.77783 38.404C3.77783 37.8458 4.2301 37.3936 4.78796 37.3936H27.3902C27.9481 37.3936 28.4003 37.8458 28.4003 38.404C28.4003 38.9619 27.9481 39.4141 27.3902 39.4141Z" fill="#CDD6DF"/>
<path d="M17.7058 30.9508C17.7058 31.8438 16.9819 32.5676 16.089 32.5676C15.196 32.5676 14.4722 31.8438 14.4722 30.9508C14.4722 30.0579 15.196 29.334 16.089 29.334C16.9819 29.334 17.7058 30.0579 17.7058 30.9508Z" fill="white"/>
<path d="M28.9717 9.14398C28.9717 8.84735 28.6965 8.61572 28.4795 8.61572C28.4288 8.61572 28.3782 8.62305 28.3422 8.65204L26.5041 9.84589C26.3378 9.95453 26.2798 10.1282 26.2798 10.2512C26.2798 10.3741 26.3378 10.5478 26.5041 10.6564L28.3422 11.8503C28.3782 11.8793 28.4288 11.8866 28.4795 11.8866C28.6965 11.8866 28.9717 11.655 28.9717 11.3583C28.9717 11.2354 28.9211 11.1267 28.8414 11.076L27.5676 10.2512L28.8414 9.42627C28.9208 9.37561 28.9717 9.26697 28.9717 9.14398Z" fill="#263238"/>
<path d="M32.6112 6.66919C32.4809 6.66919 32.3649 6.72687 32.3073 6.85016L29.7673 12.0671C29.7456 12.1105 29.731 12.1611 29.731 12.2048C29.731 12.3854 29.8903 12.5881 30.1365 12.5881C30.2739 12.5881 30.4115 12.5157 30.4622 12.4074L33.0092 7.19012C33.0308 7.14679 33.0381 7.09613 33.0381 7.05249C33.0378 6.82117 32.8135 6.66919 32.6112 6.66919Z" fill="#263238"/>
<path d="M36.2657 9.84589L34.4279 8.65204C34.3916 8.62305 34.3409 8.61572 34.2903 8.61572C34.0733 8.61572 33.7983 8.84735 33.7983 9.14398C33.7983 9.26697 33.849 9.37561 33.9286 9.42627L35.2021 10.2512L33.9286 11.076C33.849 11.1267 33.7983 11.2354 33.7983 11.3583C33.7983 11.655 34.0733 11.8866 34.2903 11.8866C34.3409 11.8866 34.3916 11.8793 34.4279 11.8503L36.2657 10.6564C36.4323 10.5478 36.49 10.3741 36.49 10.2512C36.49 10.1282 36.4323 9.95453 36.2657 9.84589Z" fill="#263238"/>
<path d="M37.1666 2.91321H24.5506C23.8988 1.21155 22.2481 0 20.3197 0H11.8578C9.36113 0 7.32958 2.03156 7.32958 4.5282V9.6701C6.82482 10.105 6.59014 10.7852 6.71435 11.47L7.04699 13.3005C7.16662 13.9291 7.50048 14.2523 7.75927 14.4125C8.04888 14.5917 8.37023 14.6509 8.66533 14.6524V14.9777C8.66533 16.6281 9.62816 18.447 11.3069 19.9683C11.6231 20.2545 11.9518 20.5185 12.2869 20.7571V21.7386C12.2869 22.0377 12.0735 22.2943 11.7793 22.3489C11.7656 22.3514 11.7522 22.3544 11.7388 22.3578C11.7287 22.3605 10.7228 22.6227 9.40783 22.9956H5.11126C4.62816 22.9956 4.16216 23.1985 3.83288 23.5519C3.50359 23.9053 3.33452 24.3848 3.36901 24.8666L3.38061 25.032C1.45891 25.9958 0.249807 27.7237 0.134451 29.6875C0.134145 29.6957 0.13384 29.704 0.133535 29.7122L0.000173179 37.7777C-0.00715104 38.3691 0.218069 38.9267 0.633413 39.3475C1.04937 39.7684 1.60387 40 2.19561 40H29.9822C30.5736 40 31.1284 39.7684 31.5441 39.3475C31.9597 38.9267 32.1849 38.3694 32.1776 37.7753L32.0442 29.7122C32.0439 29.704 32.0436 29.6957 32.043 29.6875C31.9246 27.6669 30.6484 25.8963 28.6287 24.9506C28.5918 24.9332 28.553 24.9155 28.5131 24.8975L28.5152 24.8666C28.5494 24.3848 28.3803 23.9056 28.0513 23.5519C27.722 23.1985 27.256 22.9956 26.7729 22.9956H22.7699C21.4553 22.6227 20.4491 22.3605 20.439 22.3581C20.4256 22.3544 20.4122 22.3514 20.3984 22.3489C20.1042 22.2943 19.8909 22.0377 19.8909 21.7386V20.7574C20.226 20.5185 20.5547 20.2545 20.8708 19.9683C21.9377 19.0015 22.7156 17.9144 23.1407 16.8268H26.9478L26.2828 19.5108C26.172 19.9585 26.3497 20.4108 26.7354 20.6631C26.9167 20.7819 27.1199 20.8408 27.3223 20.8408C27.5511 20.8408 27.7788 20.7657 27.9729 20.6165L32.9064 16.8268H37.1666C38.7105 16.8268 39.9663 15.571 39.9663 14.0271V5.71289C39.9663 4.16931 38.7105 2.91321 37.1666 2.91321ZM23.5137 10.6824C23.7377 10.6061 23.9498 10.5746 24.088 10.5621C24.272 10.7254 24.3587 10.9943 24.3105 11.2604L23.9797 13.0817C23.9314 13.3359 23.8338 13.3963 23.8017 13.4161C23.7337 13.4583 23.6333 13.4799 23.5131 13.4811L23.5137 10.6824ZM8.50146 4.5282C8.50146 2.67761 10.0072 1.17188 11.8578 1.17188H20.32C22.1706 1.17188 23.6763 2.67761 23.6763 4.5282V9.43756C23.3864 9.48883 23.0254 9.5871 22.6729 9.77509V6.20483C22.6729 4.92096 21.6283 3.87634 20.3444 3.87634H18.7609C18.2118 3.87634 17.6756 4.06769 17.2505 4.41498L17.0955 4.54193C16.8123 4.77356 16.4546 4.90112 16.0887 4.90112C15.7228 4.90112 15.3655 4.77356 15.0823 4.54224L14.9269 4.41498C14.5021 4.06769 13.9656 3.87634 13.4166 3.87634H11.8334C10.5495 3.87634 9.50487 4.92065 9.50487 6.20483V9.77478C9.1524 9.5871 8.79137 9.48853 8.50146 9.43756V4.5282ZM8.37603 13.4161C8.34398 13.3963 8.24633 13.3359 8.19903 13.0865L7.8673 11.2607C7.81908 10.9946 7.90575 10.726 8.08916 10.5624C8.22741 10.575 8.43981 10.6058 8.66411 10.6821L8.66472 13.4811C8.54479 13.4799 8.44439 13.4583 8.37603 13.4161ZM3.1917 38.4036C3.1917 38.5507 3.21184 38.6929 3.24907 38.8281H2.19561C1.91973 38.8281 1.66124 38.7201 1.46715 38.5239C1.27337 38.3276 1.16869 38.0676 1.17174 37.7945L1.3051 29.7443C1.39177 28.3374 2.1715 27.1176 3.47246 26.3199L4.1878 36.3568C4.20092 36.5411 4.24303 36.7172 4.30895 36.8811C3.66198 37.085 3.1917 37.6904 3.1917 38.4036ZM27.6961 36.3568L28.423 26.1581C29.8934 26.947 30.7799 28.2382 30.8727 29.7443L31.006 37.7921C31.0091 38.0676 30.9041 38.3276 30.7106 38.5239C30.5165 38.7201 30.258 38.8281 29.9822 38.8281H28.9287C28.9662 38.6929 28.9861 38.5507 28.9861 38.4036C28.9861 37.594 28.3803 36.9235 27.5981 36.8213C27.6509 36.6745 27.6848 36.5189 27.6961 36.3568ZM27.8142 38.4036C27.8142 38.6377 27.6238 38.8281 27.39 38.8281H4.78777C4.55401 38.8281 4.36358 38.6377 4.36358 38.4036C4.36358 38.1699 4.55401 37.9794 4.78777 37.9794H27.39C27.6238 37.9794 27.8142 38.1699 27.8142 38.4036ZM27.1938 24.3506C27.3036 24.4687 27.358 24.6222 27.3464 24.7833L26.5273 36.2738C26.5059 36.5732 26.2541 36.8076 25.9538 36.8076H5.93004C5.63006 36.8076 5.37829 36.5732 5.35662 36.2735L4.53783 24.7833C4.52624 24.6222 4.58056 24.4687 4.69042 24.3506C4.80059 24.2325 4.94982 24.1675 5.11126 24.1675H26.7729C26.9341 24.1675 27.0836 24.2325 27.1938 24.3506ZM19.2339 22.9956H12.9439C13.2643 22.6697 13.4587 22.2235 13.4587 21.7386V21.4764C14.3825 21.9547 15.3005 22.2229 16.0887 22.2229C16.877 22.2229 17.795 21.9547 18.719 21.4764V21.7386C18.719 22.2235 18.9134 22.6697 19.2339 22.9956ZM20.0838 19.0997C18.7755 20.285 17.2075 21.051 16.0887 21.051C14.9703 21.051 13.4023 20.285 12.094 19.0997C10.6597 17.8006 9.83721 16.2979 9.83721 14.9774L9.83599 11.286C9.84362 11.286 9.85125 11.2863 9.85888 11.2863C9.96477 11.2863 10.0716 11.2656 10.1738 11.2228C10.4793 11.0953 10.6767 10.799 10.6767 10.4681V6.20483C10.6767 5.56702 11.1955 5.04822 11.8334 5.04822H13.4169C13.6962 5.04822 13.969 5.14557 14.185 5.32227L14.3407 5.44952C14.8326 5.85144 15.4534 6.073 16.0887 6.073C16.7241 6.073 17.3451 5.85144 17.8371 5.44922L17.9924 5.32227C18.2085 5.14557 18.4816 5.04822 18.7609 5.04822H20.3441C20.9819 5.04822 21.501 5.56702 21.501 6.20483V10.4681C21.501 10.7993 21.6982 11.0953 22.004 11.2228C22.1132 11.2686 22.2283 11.2891 22.3415 11.286L22.3406 14.9777C22.3409 16.2979 21.5181 17.8006 20.0838 19.0997ZM38.7944 14.0271C38.7944 14.9246 38.0644 15.6549 37.1666 15.6549H32.7074C32.5783 15.6549 32.4529 15.6976 32.3506 15.7764L27.4904 19.5096L28.2652 16.3818C28.3086 16.207 28.2692 16.0217 28.1581 15.8798C28.047 15.7379 27.8768 15.6549 27.6967 15.6549H23.4606C23.495 15.4269 23.5127 15.2008 23.5127 14.9777V14.6524C23.8075 14.6509 24.1289 14.5917 24.4185 14.4125C24.6776 14.2523 25.0115 13.9291 25.1317 13.2959L25.4634 11.47C25.5879 10.7852 25.3527 10.1047 24.8482 9.6701V4.5282C24.8482 4.37897 24.8409 4.23096 24.8265 4.08508H37.1666C38.0644 4.08508 38.7944 4.81537 38.7944 5.71289V14.0271Z" fill="#263238"/>
<path d="M16.089 33.1536C17.3036 33.1536 18.2917 32.1654 18.2917 30.9508C18.2917 29.7362 17.3036 28.748 16.089 28.748C14.8744 28.748 13.8862 29.7362 13.8862 30.9508C13.8862 32.1654 14.8744 33.1536 16.089 33.1536ZM16.089 29.9199C16.6575 29.9199 17.1199 30.3826 17.1199 30.9508C17.1199 31.5193 16.6575 31.9817 16.089 31.9817C15.5208 31.9817 15.0581 31.5193 15.0581 30.9508C15.0581 30.3826 15.5208 29.9199 16.089 29.9199Z" fill="#263238"/>
</g>
<defs>
<clipPath id="clip0_231_2416">
<rect width="40" height="40" fill="white"/>
</clipPath>
</defs>
</svg>
