<svg width="40" height="40" viewBox="0 0 40 40" fill="none" xmlns="http://www.w3.org/2000/svg">
<g clip-path="url(#clip0_231_2513)">
<path d="M33.6603 18.5294C33.6603 27.6627 26.2564 35.0665 17.1231 35.0665C7.98981 35.0665 0.585938 27.6627 0.585938 18.5294C0.585938 9.39606 7.98981 1.99219 17.1231 1.99219C26.2564 1.99219 33.6603 9.39606 33.6603 18.5294Z" fill="#88DBFD"/>
<path d="M17.1229 1.99219C16.4085 1.99219 15.7048 2.03735 15.0142 2.12524C23.1517 3.16101 29.4426 10.1105 29.4426 18.5294C29.4426 26.9482 23.1517 33.8977 15.0142 34.9335C15.7048 35.0214 16.4085 35.0665 17.1229 35.0665C26.2562 35.0665 33.6601 27.6627 33.6601 18.5294C33.6601 9.39606 26.2562 1.99219 17.1229 1.99219Z" fill="#5ABFE9"/>
<path d="M27.596 25.7548H25.269V24.0541C25.269 23.6931 25.5617 23.4004 25.923 23.4004H26.942C27.303 23.4004 27.596 23.6931 27.596 24.0541V25.7548Z" fill="#33BCA5"/>
<path d="M32.6082 25.7548H30.2812V24.0541C30.2812 23.6931 30.5739 23.4004 30.9352 23.4004H31.9542C32.3152 23.4004 32.6082 23.6931 32.6082 24.0541V25.7548Z" fill="#33BCA5"/>
<path d="M32.6487 25.5198H25.1374C24.8713 25.5198 24.6174 25.6299 24.4355 25.8237L19.7205 30.8533C19.433 31.1597 19.2734 31.5638 19.2734 31.9837V36.3096C19.2734 37.222 20.0135 37.9621 20.926 37.9621H36.8601C37.7729 37.9621 38.5126 37.222 38.5126 36.3096V31.9837C38.5126 31.5638 38.353 31.1597 38.0659 30.8533L33.3509 25.8237C33.1687 25.6299 32.9148 25.5198 32.6487 25.5198Z" fill="#46D1C0"/>
<path d="M38.0652 30.8533L33.3503 25.824C33.1684 25.6299 32.9145 25.5198 32.6484 25.5198H28.8413L33.8413 30.8533C34.1285 31.1597 34.2881 31.5638 34.2881 31.9837V36.3096C34.2881 37.2224 33.5483 37.9621 32.6356 37.9621H36.8598C37.7726 37.9621 38.5123 37.2224 38.5123 36.3096V31.9837C38.5123 31.5638 38.3524 31.1597 38.0652 30.8533Z" fill="#33BCA5"/>
<path d="M36.2582 26.8281C35.4755 26.8281 34.7897 26.1964 34.7296 25.4197C34.5505 23.0994 33.3438 22.0423 32.2986 22.0423H25.4874C24.4418 22.0423 23.2352 23.0994 23.056 25.4197C22.9962 26.1964 22.3105 26.8281 21.5277 26.8281H19.9237C19.068 26.8281 18.3716 26.132 18.3716 25.2762C18.3716 22.7354 19.9597 20.4392 22.3233 19.5627C24.1025 18.903 26.1334 18.7644 27.5235 18.7644H30.2621C31.6522 18.7644 33.6832 18.903 35.4626 19.5627C37.8259 20.4392 39.4141 22.7354 39.4141 25.2762C39.4141 26.132 38.718 26.8281 37.8619 26.8281H36.2582Z" fill="#46D1C0"/>
<path d="M19.9237 26.8281H21.5277C22.3105 26.8281 22.9962 26.1964 23.056 25.4197C23.1091 24.734 23.2516 24.1588 23.4534 23.6885H18.5825C18.4448 24.1987 18.3716 24.7319 18.3716 25.2763C18.3716 26.132 19.068 26.8281 19.9237 26.8281Z" fill="#33BCA5"/>
<path d="M32.418 32.4961C32.418 34.4431 30.8396 36.0215 28.8926 36.0215C26.9456 36.0215 25.3672 34.4431 25.3672 32.4961C25.3672 30.5491 26.9456 28.9707 28.8926 28.9707C30.8396 28.9707 32.418 30.5491 32.418 32.4961Z" fill="#FED066"/>
<path d="M34.7294 25.4197C34.7895 26.1964 35.4752 26.8281 36.258 26.8281H37.862C38.7177 26.8281 39.4138 26.132 39.4138 25.2763C39.4138 24.7319 39.3409 24.1987 39.2032 23.6885H34.332C34.5338 24.1588 34.6766 24.734 34.7294 25.4197Z" fill="#33BCA5"/>
<path d="M37.8622 27.4139C39.0411 27.4139 40 26.4551 40 25.2762C40 22.4915 38.2584 19.9747 35.6662 19.0134C35.2032 18.8419 34.7253 18.7039 34.2462 18.5934C34.2462 18.5721 34.2462 18.5507 34.2462 18.5294C34.2462 13.9557 32.4652 9.65546 29.231 6.42151C25.997 3.18726 21.6971 1.40625 17.1231 1.40625C12.5494 1.40625 8.24951 3.18726 5.01526 6.42151C1.78101 9.65576 0 13.9557 0 18.5294C0 23.103 1.78101 27.4033 5.01526 30.6372C8.24951 33.8715 12.5494 35.6525 17.1231 35.6525C17.6447 35.6525 18.1683 35.6287 18.6874 35.5817V36.3095C18.6874 37.5436 19.6915 38.548 20.9259 38.548H36.8597C38.0942 38.548 39.0985 37.5436 39.0985 36.3095V31.9836C39.0985 31.4127 38.8834 30.8688 38.493 30.4523L35.5109 27.2717C35.7455 27.3633 35.9979 27.4139 36.2579 27.4139H37.8622ZM30.2621 18.1784H27.5235C26.842 18.1784 26.0107 18.2111 25.127 18.3188C25.1187 16.8106 25.0214 15.3333 24.841 13.9163H32.3944C32.8223 15.3302 33.0588 16.8262 33.0737 18.3743C32.0364 18.2217 31.0495 18.1784 30.2621 18.1784ZM32.0224 24.9338H30.8673V24.054C30.8673 24.0164 30.8978 23.9859 30.9354 23.9859H31.9543C31.9919 23.9859 32.0224 24.0164 32.0224 24.054V24.9338ZM32.4619 22.9227C32.3068 22.8531 32.135 22.8143 31.9543 22.8143H30.9354C30.2518 22.8143 29.6954 23.3704 29.6954 24.054V24.9338H28.1821V24.054C28.1821 23.3704 27.6257 22.8143 26.9421 22.8143H25.9232C25.2396 22.8143 24.6832 23.3704 24.6832 24.054V25.0021C24.4275 25.0809 24.1934 25.2252 24.0079 25.423L23.5559 25.9052C23.5999 25.7635 23.6285 25.6161 23.6404 25.4648C23.7842 23.6026 24.6783 22.6282 25.4874 22.6282H32.2986C32.3804 22.6282 32.4594 22.6367 32.5366 22.6526C32.5122 22.7429 32.4875 22.8329 32.4619 22.9227ZM27.0102 24.9338H25.8551V24.054C25.8551 24.0164 25.8856 23.9859 25.9232 23.9859H26.9421C26.9797 23.9859 27.0102 24.0164 27.0102 24.054V24.9338ZM19.2929 30.4526C18.9023 30.8688 18.6874 31.4127 18.6874 31.9836V34.0366C18.1732 34.3314 17.6483 34.4806 17.1231 34.4806C15.4114 34.4806 13.6942 32.8415 12.4121 29.9832C11.6785 28.3478 11.1218 26.4197 10.7629 24.3146H17.8555C17.8094 24.6301 17.7856 24.9515 17.7856 25.2762C17.7856 26.4551 18.7448 27.4139 19.9237 27.4139H21.5277C21.7877 27.4139 22.0401 27.3636 22.2748 27.2717L19.2929 30.4526ZM18.1363 23.1427H10.5862C10.3915 21.6653 10.2908 20.1154 10.2908 18.5294C10.2908 16.9498 10.3915 15.3995 10.5878 13.9163H23.66C23.8538 15.3857 23.9545 16.9272 23.9557 18.5043C23.3383 18.6267 22.7164 18.7921 22.1194 19.0134C20.2142 19.7198 18.7686 21.2668 18.1363 23.1427ZM31.9891 12.7444H24.6704C24.2963 10.4636 23.699 8.36975 22.9031 6.59607C22.2046 5.03876 21.3867 3.80707 20.4874 2.93518C25.7553 4.07043 30.0644 7.81525 31.9891 12.7444ZM13.757 2.93549C12.836 3.82904 12.0007 5.1004 11.2909 6.71356C11.1606 7.00958 11.2949 7.35535 11.5912 7.48566C11.8872 7.61566 12.233 7.48169 12.3636 7.18536C13.6517 4.2572 15.3867 2.57812 17.1231 2.57812C18.8348 2.57812 20.5521 4.21722 21.8341 7.0755C22.5677 8.71094 23.1247 10.639 23.4833 12.7444H10.7651C10.9695 11.5479 11.2384 10.4041 11.5689 9.33411C11.6644 9.02496 11.4911 8.6969 11.1819 8.60138C10.8728 8.50586 10.5447 8.67889 10.4492 8.98804C10.0858 10.1648 9.7937 11.4255 9.57703 12.7444H2.25739C4.18182 7.81586 8.48999 4.07135 13.757 2.93549ZM1.85181 13.9163H9.40613C9.21631 15.4044 9.11896 16.9537 9.11896 18.5294C9.11896 20.1105 9.21631 21.6595 9.40521 23.1427H1.85181C1.40961 21.6815 1.17188 20.1328 1.17188 18.5294C1.17188 16.926 1.40961 15.3772 1.85181 13.9163ZM2.25739 24.3146H9.57581C9.94995 26.5955 10.5475 28.6893 11.3431 30.463C12.0416 32.02 12.8595 33.2516 13.7589 34.1235C8.49091 32.9883 4.18213 29.2435 2.25739 24.3146ZM37.9266 31.9836V36.3095C37.9266 36.8976 37.4481 37.3761 36.86 37.3761H20.9259C20.3378 37.3761 19.8593 36.8976 19.8593 36.3095V34.9429C19.8596 34.9338 19.8596 34.9246 19.8593 34.9155V31.9836C19.8593 31.7117 19.9619 31.4526 20.1477 31.254L24.8627 26.2247C24.9335 26.149 25.0336 26.1057 25.1373 26.1057H32.6486C32.7524 26.1057 32.8522 26.149 32.923 26.2247L37.6382 31.254C37.8241 31.4523 37.9266 31.7114 37.9266 31.9836ZM33.7781 25.423C33.6148 25.249 33.414 25.1166 33.1943 25.0336V24.4516C33.3173 24.118 33.4302 23.779 33.5324 23.4369C33.876 23.9777 34.0881 24.7238 34.1455 25.4648C34.1571 25.6161 34.1861 25.7635 34.23 25.9052L33.7781 25.423ZM35.314 25.3748C35.1062 22.6825 33.605 21.4563 32.2986 21.4563H25.4874C24.7589 21.4563 24.0323 21.8329 23.494 22.4893C22.9166 23.1927 22.5632 24.1904 22.4719 25.3748C22.4356 25.845 22.0032 26.2421 21.5277 26.2421H19.9237C19.3909 26.2421 18.9575 25.8087 18.9575 25.2762C18.9575 22.9791 20.3922 20.9039 22.5269 20.1123C24.2249 19.4824 26.1813 19.3503 27.5238 19.3503H30.2621C31.6043 19.3503 33.5608 19.4824 35.2588 20.1123C37.3938 20.9039 38.8281 22.9791 38.8281 25.2762C38.8281 25.8087 38.3948 26.2421 37.8622 26.2421H36.2582C35.7828 26.2421 35.35 25.8447 35.314 25.3748Z" fill="#263238"/>
<path d="M31.9551 30.6375C31.653 30.7538 31.5026 31.0928 31.6185 31.3949C32.0357 32.4789 31.7748 33.71 30.9536 34.5309C30.3984 35.0863 29.6602 35.3921 28.875 35.3921C28.0898 35.3921 27.3516 35.0863 26.7964 34.5309C26.2413 33.9758 25.9355 33.2376 25.9355 32.4524C25.9355 31.6675 26.2413 30.9292 26.7964 30.3741C27.7324 29.4378 29.1875 29.2431 30.3344 29.8999C30.6151 30.061 30.9734 29.9633 31.1342 29.6826C31.295 29.4018 31.1977 29.0439 30.9169 28.883C29.312 27.9638 27.2768 28.2364 25.9679 29.5456C25.1912 30.3219 24.7637 31.3543 24.7637 32.4527C24.7637 33.5507 25.1912 34.5831 25.9679 35.3598C26.7693 36.1615 27.8221 36.5622 28.875 36.5622C29.9279 36.5622 30.9807 36.1615 31.7824 35.3598C32.9305 34.2117 33.2955 32.4902 32.7123 30.9741C32.5963 30.672 32.2573 30.5209 31.9551 30.6375Z" fill="#263238"/>
</g>
<defs>
<clipPath id="clip0_231_2513">
<rect width="40" height="40" fill="white"/>
</clipPath>
</defs>
</svg>
