<svg width="40" height="40" viewBox="0 0 40 40" fill="none" xmlns="http://www.w3.org/2000/svg">
<g clip-path="url(#clip0_231_2450)">
<path d="M22.6189 26.1323H17.3809C17.3809 34.1951 12.4688 38.322 12.4688 38.322H27.531C27.531 38.322 22.6189 34.1951 22.6189 26.1323Z" fill="#426175"/>
<path d="M28.5619 38.9128H11.4379C11.0256 38.9128 10.6914 38.5786 10.6914 38.1663C10.6914 36.8528 11.7565 35.7881 13.0699 35.7881H26.9298C28.2433 35.7881 29.3084 36.8528 29.3084 38.1663C29.3084 38.5786 28.9742 38.9128 28.5619 38.9128Z" fill="#CDD6DF"/>
<path d="M37.905 30.7581H2.09503C1.2616 30.7581 0.585938 30.0827 0.585938 29.2493V2.72003C0.585938 1.8866 1.2616 1.21094 2.09503 1.21094H37.905C38.7384 1.21094 39.4141 1.8866 39.4141 2.72003V29.2493C39.4141 30.0827 38.7384 30.7581 37.905 30.7581Z" fill="#426175"/>
<path d="M37.905 1.21094H33.7085C34.5416 1.21094 35.2173 1.8866 35.2173 2.72003V29.2493C35.2173 30.0827 34.5419 30.7581 33.7085 30.7581H37.905C38.7384 30.7581 39.4141 30.0827 39.4141 29.2493V2.72003C39.4141 1.8866 38.7384 1.21094 37.905 1.21094Z" fill="#2C4456"/>
<path d="M2.77344 3.47656H37.2266V24.0616H2.77344V3.47656Z" fill="#F2F2F2"/>
<path d="M0.585938 26.4053V29.2492C0.585938 30.0826 1.2616 30.758 2.09503 30.758H37.905C38.7384 30.758 39.4141 30.0826 39.4141 29.2492V26.4053H0.585938Z" fill="#CDD6DF"/>
<path d="M37.905 30.7581C38.7384 30.7581 39.4141 30.0827 39.4141 29.2493V26.405H35.2173V29.2493C35.2173 30.0824 34.5419 30.7581 33.7085 30.7581H37.905Z" fill="#ABB2BA"/>
<path d="M24.4707 8.55029C23.076 9.8299 20.2928 10.1506 18.8277 10.2297C18.2631 10.2602 17.7889 10.6646 17.6726 11.2178L15.7158 20.5126L25.0106 18.5558C25.5638 18.4395 25.9682 17.9656 25.9987 17.4007C26.0778 15.9355 26.3985 13.1523 27.6781 11.7574L24.4707 8.55029ZM22.4236 15.8766C21.8514 16.4489 20.9236 16.4489 20.3514 15.8766C19.7795 15.3047 19.7795 14.377 20.3514 13.8048C20.9236 13.2326 21.8514 13.2326 22.4236 13.8048C22.9958 14.377 22.9958 15.3047 22.4236 15.8766Z" fill="#46D1C0"/>
<path d="M26.7253 6.28076L24.4707 8.55035L27.6781 11.7578L29.9477 9.50311L26.7253 6.28076Z" fill="#426175"/>
<path d="M8.36993 9.24799H6.08417C5.83087 9.24799 5.62549 9.0426 5.62549 8.78961V6.50354C5.62549 6.25055 5.83087 6.04517 6.08417 6.04517H8.36993C8.62323 6.04517 8.82861 6.25055 8.82861 6.50354V8.78961C8.82861 9.0426 8.62323 9.24799 8.36993 9.24799Z" fill="#FD715C"/>
<path d="M8.36993 15.0373H6.08417C5.83087 15.0373 5.62549 14.8322 5.62549 14.5789V12.2928C5.62549 12.0399 5.83087 11.8345 6.08417 11.8345H8.36993C8.62323 11.8345 8.82861 12.0399 8.82861 12.2928V14.5789C8.82861 14.8322 8.62323 15.0373 8.36993 15.0373Z" fill="#FED066"/>
<path d="M8.36993 20.7485H6.08417C5.83087 20.7485 5.62549 20.5432 5.62549 20.2899V18.0041C5.62549 17.7508 5.83087 17.5454 6.08417 17.5454H8.36993C8.62323 17.5454 8.82861 17.7508 8.82861 18.0041V20.2899C8.82861 20.5432 8.62323 20.7485 8.36993 20.7485Z" fill="#88DBFD"/>
<path d="M37.9053 0.625H2.09503C0.939636 0.625 0 1.56494 0 2.72003V29.2493C0 30.4044 0.939636 31.344 2.09503 31.344H16.0294C15.607 32.7164 15.0162 34.01 14.267 35.202H13.0701C11.4355 35.202 10.1056 36.5317 10.1056 38.1662C10.1056 38.9011 10.7034 39.4986 11.438 39.4986H28.562C29.2966 39.4986 29.8944 38.9011 29.8944 38.1662C29.8944 36.5317 28.5648 35.202 26.9299 35.202H25.733C24.9838 34.01 24.393 32.7164 23.9709 31.344H37.9053C39.0604 31.344 40 30.4044 40 29.2493V2.72003C40 1.56494 39.0604 0.625 37.9053 0.625ZM2.09503 1.79688H37.9053C38.414 1.79688 38.8281 2.211 38.8281 2.72003V25.8194H1.17188V2.72003C1.17188 2.211 1.586 1.79688 2.09503 1.79688ZM28.7225 38.1665C28.7225 38.2547 28.6505 38.327 28.562 38.327H11.438C11.3495 38.327 11.2775 38.255 11.2775 38.1665C11.2775 37.178 12.0816 36.3739 13.0701 36.3739H26.9299C27.9184 36.3739 28.7225 37.178 28.7225 38.1665ZM24.3671 35.202H15.6329C16.3199 33.9975 16.8625 32.7051 17.2516 31.344H22.7484C23.1375 32.7048 23.6798 33.9972 24.3671 35.202ZM37.9053 30.1721H2.09503C1.586 30.1721 1.17188 29.7583 1.17188 29.2493V26.9913H38.8281V29.2493C38.8281 29.758 38.414 30.1721 37.9053 30.1721Z" fill="#263238"/>
<path d="M2.77344 24.6476H37.2266C37.5504 24.6476 37.8125 24.3852 37.8125 24.0617V14.5479C37.8125 14.2241 37.5504 13.9619 37.2266 13.9619C36.9031 13.9619 36.6406 14.2241 36.6406 14.5479V23.4758H3.35938V14.5518C3.35938 14.2283 3.09692 13.9659 2.77344 13.9659C2.44965 13.9659 2.1875 14.2283 2.1875 14.5518V24.0617C2.1875 24.3852 2.44965 24.6476 2.77344 24.6476Z" fill="#263238"/>
<path d="M2.77344 12.7899C3.09692 12.7899 3.35938 12.5275 3.35938 12.204V4.0625H36.6406V12.204C36.6406 12.5278 36.9031 12.7899 37.2266 12.7899C37.5504 12.7899 37.8125 12.5278 37.8125 12.204V3.47656C37.8125 3.15308 37.5504 2.89062 37.2266 2.89062H2.77344C2.44965 2.89062 2.1875 3.15308 2.1875 3.47656V12.204C2.1875 12.5278 2.44965 12.7899 2.77344 12.7899Z" fill="#263238"/>
<path d="M9.41455 6.50354C9.41455 5.92767 8.9458 5.45923 8.36993 5.45923H6.08417C5.508 5.45923 5.03955 5.92767 5.03955 6.50354V8.78961C5.03955 9.36548 5.5083 9.83392 6.08417 9.83392H8.36993C8.9458 9.83392 9.41455 9.36548 9.41455 8.78961V6.50354ZM8.24268 8.66205H6.21143V6.6311H8.24268V8.66205Z" fill="#263238"/>
<path d="M9.41455 12.2932C9.41455 11.717 8.9458 11.2485 8.36993 11.2485H6.08417C5.508 11.2485 5.03955 11.717 5.03955 12.2932V14.5789C5.03955 15.1548 5.5083 15.6235 6.08417 15.6235H8.36993C8.9458 15.6235 9.41455 15.1548 9.41455 14.5789V12.2932ZM8.24268 14.4517H6.21143V12.4204H8.24268V14.4517Z" fill="#263238"/>
<path d="M8.36993 16.9595H6.08417C5.508 16.9595 5.03955 17.4282 5.03955 18.0041V20.2899C5.03955 20.866 5.5083 21.3345 6.08417 21.3345H8.36993C8.9458 21.3345 9.41455 20.8657 9.41455 20.2899V18.0041C9.41455 17.4279 8.9458 16.9595 8.36993 16.9595ZM8.24268 20.1626H6.21143V18.1313H8.24268V20.1626Z" fill="#263238"/>
<path d="M15.1299 20.5227C15.1302 20.5264 15.1302 20.53 15.1302 20.5337C15.1305 20.5355 15.1305 20.5374 15.1305 20.5392C15.1308 20.5447 15.1311 20.5502 15.1314 20.5557C15.1314 20.5557 15.1314 20.556 15.1317 20.556C15.132 20.5615 15.1326 20.567 15.1329 20.5724C15.1332 20.5737 15.1332 20.5746 15.1332 20.5755C15.1339 20.5807 15.1345 20.5856 15.1354 20.5908V20.592C15.1497 20.6973 15.1927 20.7995 15.2645 20.8859C15.2645 20.8859 15.2645 20.8862 15.2648 20.8862C15.2681 20.8904 15.2718 20.8944 15.2755 20.8987C15.2761 20.8996 15.2767 20.9002 15.2776 20.9011C15.2806 20.9045 15.2837 20.9081 15.287 20.9115C15.288 20.9124 15.2886 20.9136 15.2895 20.9146C15.2935 20.9188 15.2977 20.9228 15.3017 20.9268C15.3051 20.9304 15.3087 20.9338 15.3124 20.9371C15.3148 20.9396 15.3173 20.9417 15.3197 20.9442C15.3206 20.9451 15.3218 20.946 15.3231 20.9472C15.4259 21.0406 15.5544 21.0906 15.6844 21.0977C15.6853 21.0977 15.6865 21.098 15.6874 21.098C15.6911 21.098 15.6948 21.0983 15.6984 21.0983H15.7018C15.7064 21.0986 15.7112 21.0986 15.7158 21.0986C15.721 21.0986 15.7259 21.0986 15.7308 21.0983H15.7341C15.7378 21.098 15.7415 21.098 15.7454 21.0977H15.7494C15.7531 21.0974 15.7567 21.097 15.7604 21.0967C15.7616 21.0967 15.7625 21.0967 15.7637 21.0964C15.7677 21.0961 15.7717 21.0958 15.7756 21.0955C15.7762 21.0952 15.7772 21.0952 15.7781 21.0952C15.7823 21.0946 15.7866 21.0943 15.7906 21.0937C15.7912 21.0934 15.7918 21.0934 15.7924 21.0934C15.8101 21.0909 15.8278 21.0879 15.8452 21.0839L25.1314 19.129C25.942 18.9584 26.5392 18.2607 26.584 17.4322C26.7699 13.991 27.6995 12.6064 28.1011 12.1633L30.3609 9.91846C30.4714 9.8089 30.5336 9.65967 30.5336 9.50372C30.5339 9.34808 30.4723 9.19855 30.3621 9.08868L27.1401 5.86633C27.0302 5.75647 26.881 5.69482 26.7256 5.69482H26.7247C26.5688 5.69482 26.4199 5.75708 26.31 5.86755L24.0657 8.12646C23.6238 8.52777 22.2393 9.45856 18.7963 9.64441C17.9677 9.68927 17.2701 10.2865 17.0992 11.097L15.1442 20.3848C15.1396 20.4049 15.1363 20.425 15.1339 20.4455C15.1339 20.4464 15.1335 20.4473 15.1335 20.4485C15.1329 20.4531 15.1326 20.4574 15.1323 20.462C15.132 20.4638 15.132 20.4653 15.1317 20.4669C15.1314 20.4711 15.1311 20.4754 15.1311 20.48C15.1308 20.4812 15.1308 20.4824 15.1308 20.4839C15.1305 20.4891 15.1302 20.4943 15.1302 20.4998V20.5056C15.1299 20.5093 15.1299 20.5126 15.1302 20.516C15.1299 20.5184 15.1299 20.5206 15.1299 20.5227ZM26.7269 7.11084L29.1176 9.50159L27.6796 10.9304L25.2983 8.54913L26.7269 7.11084ZM18.246 11.3387C18.3074 11.0464 18.5598 10.8309 18.8591 10.8148C20.3075 10.7366 22.8365 10.4379 24.4255 9.33344L26.895 11.8029C25.7906 13.3917 25.4918 15.921 25.4134 17.369C25.3975 17.6687 25.1818 17.9211 24.8897 17.9824L17.524 19.5333L20.4119 16.6451C20.7152 16.809 21.0515 16.8908 21.3878 16.8908C21.913 16.8908 22.4379 16.6909 22.838 16.2911C23.6376 15.4913 23.6376 14.1903 22.838 13.3904C22.4504 13.0032 21.9353 12.7899 21.3878 12.7899C20.8397 12.7899 20.3249 13.0032 19.9373 13.3904C19.55 13.778 19.3367 14.2928 19.3367 14.8409C19.3367 15.1873 19.4222 15.5209 19.5827 15.8172L16.6951 18.7048L18.246 11.3387ZM20.5086 14.8409C20.5086 14.606 20.5999 14.3853 20.7662 14.2193C20.9322 14.0533 21.1528 13.9617 21.3878 13.9617C21.6225 13.9617 21.8431 14.0533 22.0092 14.2193C22.3522 14.562 22.3522 15.1196 22.0092 15.4626C21.6664 15.8053 21.1089 15.8053 20.7662 15.4626C20.5999 15.2966 20.5086 15.0756 20.5086 14.8409Z" fill="#263238"/>
</g>
<defs>
<clipPath id="clip0_231_2450">
<rect width="40" height="40" fill="white"/>
</clipPath>
</defs>
</svg>
