<svg width="40" height="40" viewBox="0 0 40 40" fill="none" xmlns="http://www.w3.org/2000/svg">
<g clip-path="url(#clip0_231_2439)">
<path d="M36.4791 25.9741L28.4731 31.332L26.0872 31.1981L25.9938 30.2587C25.8547 28.861 24.7783 27.7389 23.3873 27.5421L16.9945 26.806C15.5199 26.5975 14.0999 26.1031 12.8145 25.3512C11.0591 24.3246 9.06238 23.7832 7.02899 23.7832H2.41992V34.3041L14.6016 38.9172C15.0618 39.0472 15.5455 39.0862 16.0179 39.0115C16.0207 39.0112 16.0234 39.0106 16.0265 39.0103L28.2906 37.2424C29.2354 37.0916 30.1235 36.6937 30.8647 36.0888L38.7914 28.9599C39.5027 28.3282 39.6346 27.2668 39.0993 26.48C38.5137 25.6194 37.343 25.3933 36.4791 25.9741Z" fill="#FFE8C2"/>
<path d="M38.925 26.2607L30.8647 31.952C30.1235 32.5565 29.2354 32.9545 28.2906 33.1052L16.0265 34.8731C16.0237 34.8737 16.0207 34.874 16.0179 34.8746C15.5455 34.9491 15.0618 34.9103 14.6016 34.7803L2.41992 30.1673V34.3043L14.6016 38.9173C15.0618 39.0473 15.5455 39.0864 16.0179 39.0116C16.0207 39.0113 16.0234 39.0107 16.0265 39.0104L28.2906 37.2425C29.2354 37.0917 30.1235 36.6938 30.8647 36.0889L38.7914 28.96C39.5027 28.3283 39.6346 27.2669 39.0993 26.4802C39.0459 26.4017 38.9873 26.3285 38.925 26.2607Z" fill="#EFD5AF"/>
<path d="M4.77484 37.3979H1.21954C0.863403 37.3979 0.574707 37.1093 0.574707 36.7531V22.4056C0.574707 22.0494 0.863403 21.7607 1.21954 21.7607H4.77484C5.13098 21.7607 5.41968 22.0494 5.41968 22.4056V36.7534C5.41968 37.1096 5.13098 37.3979 4.77484 37.3979Z" fill="#33BCA5"/>
<path d="M0.574707 36.7537C0.574707 37.1098 0.863403 37.3982 1.21954 37.3982H4.77484C5.13098 37.3982 5.41968 37.1098 5.41968 36.7537V33.2612H0.574707V36.7537Z" fill="#46D1C0"/>
<path d="M31.0063 12.2593C31.0063 18.4968 25.9499 23.5532 19.7124 23.5532C13.4749 23.5532 8.41846 18.4968 8.41846 12.2593C8.41846 6.02179 13.4749 0.965332 19.7124 0.965332C25.9499 0.965332 31.0063 6.02179 31.0063 12.2593Z" fill="#88DBFD"/>
<path d="M19.712 0.965332C19.0052 0.965332 18.314 1.03094 17.6436 1.15515C22.8929 2.12683 26.8687 6.72858 26.8687 12.2593C26.8687 17.7903 22.8929 22.3917 17.6436 23.3634C18.314 23.4876 19.0052 23.5532 19.712 23.5532C25.9492 23.5532 31.006 18.4968 31.006 12.2593C31.006 6.02179 25.9495 0.965332 19.712 0.965332Z" fill="#5ABFE9"/>
<path d="M19.7123 24.1278C26.2565 24.1278 31.5809 18.8037 31.5809 12.2592C31.5809 5.71472 26.2565 0.390625 19.7123 0.390625C13.1678 0.390625 7.84375 5.71472 7.84375 12.2592C7.84375 18.8037 13.1678 24.1278 19.7123 24.1278ZM9.81854 16.3846H14.4102C14.6696 17.9007 15.0731 19.2941 15.6053 20.4803C15.9861 21.329 16.4192 22.0398 16.8922 22.6019C13.6915 21.7282 11.0829 19.4052 9.81854 16.3846ZM19.7123 1.53992C20.8094 1.53992 21.924 2.62177 22.7702 4.50836C23.2417 5.55939 23.6052 6.79016 23.8481 8.13385H15.5763C15.8192 6.79016 16.1827 5.55939 16.6542 4.50836C17.5004 2.62207 18.6149 1.53992 19.7123 1.53992ZM24.0229 9.28314C24.1423 10.2386 24.2039 11.2378 24.2039 12.2592C24.2039 13.2806 24.1423 14.2798 24.0229 15.2353H15.4014C15.2821 14.2798 15.2208 13.2806 15.2208 12.2592C15.2208 11.2378 15.2821 10.2386 15.4014 9.28314H24.0229ZM30.4313 12.2592C30.4313 13.2916 30.2849 14.2899 30.0111 15.2353H25.1802C25.2943 14.2749 25.3532 13.2767 25.3532 12.2592C25.3532 11.2418 25.2943 10.2435 25.1802 9.28345H30.0111C30.2849 10.2286 30.4313 11.2271 30.4313 12.2592ZM19.7123 22.9785C18.6149 22.9785 17.5004 21.8964 16.6542 20.0101C16.1827 18.959 15.8192 17.7283 15.5763 16.3846H23.8481C23.6052 17.7283 23.2417 18.959 22.7702 20.0101C21.924 21.8964 20.8094 22.9785 19.7123 22.9785ZM14.2442 15.2353H9.41327C9.13953 14.2899 8.99304 13.2916 8.99304 12.2592C8.99304 11.2271 9.13983 10.2286 9.41327 9.28345H14.2442C14.1301 10.2435 14.0712 11.2421 14.0712 12.2592C14.0712 13.2767 14.1301 14.2749 14.2442 15.2353ZM22.5325 22.6019C23.0055 22.0398 23.4385 21.329 23.8191 20.4803C24.3513 19.2941 24.7548 17.9007 25.0142 16.3846H29.6058C28.3418 19.4052 25.7332 21.7282 22.5325 22.6019ZM29.6058 8.13385H25.0142C24.7548 6.61774 24.3513 5.22461 23.8191 4.03809C23.4385 3.18939 23.0055 2.47864 22.5325 1.9165C25.7332 2.79022 28.3418 5.11353 29.6058 8.13385ZM16.8922 1.9165C16.4192 2.47864 15.9861 3.1897 15.6056 4.03809C15.0734 5.22461 14.6696 6.61774 14.4102 8.13385H9.81885C11.0829 5.11353 13.6912 2.79022 16.8922 1.9165Z" fill="#263238"/>
<path d="M4.77478 21.1863H1.21948C0.54718 21.1863 0 21.7332 0 22.4055V36.7533C0 37.4259 0.54718 37.9728 1.21948 37.9728H4.77478C5.44739 37.9728 5.99426 37.4259 5.99426 36.7533V22.4055C5.99426 21.7332 5.44739 21.1863 4.77478 21.1863ZM4.84497 36.7536C4.84497 36.7921 4.81354 36.8235 4.77478 36.8235H1.21948C1.18073 36.8235 1.14929 36.7921 1.14929 36.7536V22.4055C1.14929 22.367 1.18073 22.3356 1.21948 22.3356H4.77478C4.81354 22.3356 4.84497 22.367 4.84497 22.4055V36.7536Z" fill="#263238"/>
<path d="M39.574 26.1568C38.8132 25.0384 37.2806 24.7427 36.1591 25.4961L28.3131 30.7473L26.6099 30.6518L26.5653 30.2019C26.3996 28.5354 25.1258 27.2076 23.4675 26.9732C23.4626 26.9723 23.4577 26.9717 23.4528 26.971L17.0673 26.2359C15.6626 26.0363 14.3293 25.5715 13.1043 24.855C11.4841 23.9074 9.63722 23.3456 7.76374 23.2308C7.44819 23.214 7.17445 23.4527 7.15492 23.7694C7.13538 24.0862 7.37678 24.3587 7.69355 24.3783C9.38819 24.482 11.0584 24.9898 12.5239 25.8471C13.8807 26.6408 15.3574 27.1548 16.9135 27.3751C16.9187 27.3757 16.9236 27.3763 16.9285 27.3769L23.3134 28.1121C24.4422 28.2751 25.3086 29.1802 25.4215 30.3158L25.4615 30.7171L16.4088 32.1822L12.4793 31.2179C12.1708 31.1419 11.8598 31.3305 11.7844 31.639C11.7087 31.9472 11.897 32.2585 12.2056 32.3342L16.2485 33.3263C16.2934 33.3373 16.3395 33.3428 16.3853 33.3428C16.4161 33.3428 16.4469 33.3404 16.4771 33.3355L26.117 31.7754L28.4406 31.9057C28.5654 31.9131 28.6887 31.8789 28.7925 31.8096L36.7994 26.451C37.3991 26.0479 38.2175 26.2063 38.624 26.8032C38.9954 27.3492 38.9033 28.0917 38.4067 28.5326L30.4908 35.6518C29.8319 36.1864 29.0415 36.5395 28.2035 36.6741L15.9443 38.4414C15.9415 38.4417 15.9391 38.442 15.9363 38.4423L15.9278 38.4435C15.5573 38.5021 15.1713 38.4777 14.7803 38.3703L8.33045 35.928C8.03352 35.8153 7.70179 35.9649 7.58918 36.2618C7.47688 36.5588 7.62641 36.8905 7.92335 37.0028L14.3977 39.4546C14.4132 39.4607 14.4291 39.4659 14.4453 39.4701C14.8084 39.5727 15.1716 39.6242 15.5302 39.6242C15.7239 39.6242 15.9168 39.609 16.1072 39.5791C16.1076 39.5788 16.11 39.5785 16.1118 39.5782L28.3723 37.8109C28.375 37.8106 28.3781 37.81 28.3808 37.8097C29.4245 37.643 30.409 37.2018 31.2278 36.534C31.2351 36.5282 31.2421 36.5221 31.2488 36.516L39.1727 29.3896C40.0968 28.5686 40.2695 27.1789 39.574 26.1568Z" fill="#263238"/>
</g>
<defs>
<clipPath id="clip0_231_2439">
<rect width="40" height="40" fill="white"/>
</clipPath>
</defs>
</svg>
