<svg width="52" height="52" viewBox="0 0 52 52" fill="none" xmlns="http://www.w3.org/2000/svg">
<path d="M36.0067 39.4158L7.57278 39.527C5.89757 39.5344 4.53369 38.1779 4.53369 36.5027V8.66917C4.53369 7.00138 5.88275 5.65232 7.54313 5.64491L35.9845 5.53372C37.6597 5.52631 39.0236 6.88278 39.0236 8.55798V36.399C39.0236 38.0593 37.6745 39.4158 36.0067 39.4158Z" fill="#1E1D26"/>
<path d="M7.55795 40.0606C6.60916 40.0606 5.71968 39.69 5.04515 39.0229C4.37062 38.3484 4 37.4515 4 36.5027V8.66914C4 6.71226 5.59367 5.1186 7.54313 5.11119L35.9845 5H35.9993C36.9481 5 37.8376 5.37062 38.5121 6.03774C39.1867 6.71226 39.5573 7.60916 39.5573 8.55795V36.3989C39.5573 38.3558 37.9636 39.9495 36.0141 39.9569L7.57278 40.0606C7.56536 40.0606 7.56536 40.0606 7.55795 40.0606ZM35.9993 6.06739H35.9919L7.55054 6.17857C6.17925 6.17857 5.06739 7.29784 5.06739 8.66914V36.5101C5.06739 37.1772 5.32682 37.8073 5.80121 38.2743C6.26819 38.7412 6.89825 39.0007 7.55795 39.0007H7.56536L36.0067 38.8895C37.378 38.8821 38.4899 37.7702 38.4899 36.3989V8.55795C38.4899 7.89084 38.2305 7.26819 37.7561 6.7938C37.2817 6.32682 36.659 6.06739 35.9993 6.06739Z" fill="#1E1D26"/>
<path d="M39.0236 12.6645V8.55798C39.0236 6.88278 37.6597 5.52631 35.9845 5.53372L7.54313 5.64491C5.88275 5.64491 4.53369 7.00138 4.53369 8.66917V12.6645H39.0236Z" fill="#1E1D26"/>
<path d="M39.5573 13.1981H4V8.66914C4 6.71226 5.59367 5.1186 7.54313 5.11119L35.9845 5H35.9993C36.9481 5 37.8376 5.37062 38.5121 6.03774C39.1867 6.71226 39.5573 7.60916 39.5573 8.55795V13.1981ZM5.06739 12.1307H38.4825V8.55795C38.4825 7.89084 38.223 7.26819 37.7487 6.7938C37.2817 6.32682 36.6516 6.06739 35.9919 6.06739H35.9845L7.55054 6.17857C6.17925 6.17857 5.06739 7.29784 5.06739 8.66914V12.1307Z" fill="#1E1D26"/>
<path d="M39.7204 8.55798V36.399C39.7204 38.0667 38.3713 39.4158 36.7035 39.4232L8.26955 39.527C6.59435 39.5344 5.23047 38.1779 5.23047 36.5027V8.66917C5.23047 7.00138 6.57953 5.65232 8.24732 5.64491L33.1382 5.54855L36.6813 5.53372C38.3565 5.52631 39.7204 6.88278 39.7204 8.55798Z" fill="white"/>
<path d="M29.0243 23.9162C31.7817 16.7706 20.4185 13.6723 18.002 20.0766C15.4299 26.8812 26.4225 30.6615 29.0243 23.9162Z" fill="#1E1D26"/>
<path d="M23.8282 28.0007C22.9238 28.0007 22.0195 27.8302 21.1745 27.504C18.4171 26.4515 16.0896 23.62 17.498 19.8915C18.2614 17.8753 19.9663 16.5115 22.1678 16.1557C24.6806 15.748 27.3565 16.6968 28.8241 18.5054C30.0694 20.0472 30.3214 22.0337 29.5209 24.1092C28.4757 26.8295 26.1705 28.0007 23.8282 28.0007ZM23.3241 17.1267C22.998 17.1267 22.6718 17.1489 22.3457 17.2008C21.2783 17.3713 19.3585 18.0014 18.506 20.2621C17.3497 23.3235 19.2102 25.5991 21.56 26.5034C24.1098 27.4818 27.3268 26.8369 28.5276 23.7237C29.3726 21.5445 28.7055 20.0472 28.0013 19.1725C26.9636 17.905 25.1401 17.1267 23.3241 17.1267Z" fill="#1E1D26"/>
<path d="M39.7204 8.55798V12.6645H5.23047V8.66917C5.23047 7.00138 6.57953 5.65232 8.24732 5.64491L33.1382 5.54855L36.6813 5.53372C38.3565 5.52631 39.7204 6.88278 39.7204 8.55798Z" fill="#95CBFC"/>
<g opacity="0.1">
<path d="M39.7204 8.55798V36.399C39.7204 38.0667 38.3713 39.4158 36.7035 39.4232L8.26955 39.527C6.59435 39.5344 5.23047 38.1779 5.23047 36.5027V26.2143C6.11254 26.7332 7.02427 27.1705 7.97306 27.4744C12.1833 28.8012 16.7493 29.1867 21.0263 28.0897C25.3032 27 29.2541 24.3538 31.4926 20.5512C32.901 18.1644 33.5903 15.4367 33.7534 12.6644C33.8497 11.056 33.7682 9.43264 33.5532 7.84639C33.4495 7.0755 33.3086 6.30461 33.1456 5.54855L36.6887 5.53372C38.3565 5.52631 39.7204 6.88278 39.7204 8.55798Z" fill="#1E1D26"/>
</g>
<path d="M28.3201 23.9162C31.0775 16.7706 19.7143 13.6723 17.2978 20.0766C14.7257 26.8812 25.7183 30.6615 28.3201 23.9162Z" fill="#64C682"/>
<path d="M8.26211 40.0606C7.31333 40.0606 6.42384 39.69 5.74931 39.0229C5.07478 38.3484 4.70416 37.4515 4.70416 36.5027V8.66914C4.70416 6.71226 6.29783 5.1186 8.24729 5.11119L36.6887 5H36.7035C37.6523 5 38.5418 5.37062 39.2163 6.03774C39.8908 6.71226 40.2614 7.60916 40.2614 8.55795V36.3989C40.2614 38.3558 38.6678 39.9495 36.7183 39.9569L8.26953 40.0606H8.26211ZM36.6961 6.06739H36.6887L8.24729 6.17857C6.88341 6.17857 5.77155 7.29784 5.77155 8.66914V36.5101C5.77155 37.1772 6.03098 37.8073 6.50538 38.2743C6.97236 38.7412 7.60241 39.0007 8.26211 39.0007H8.26953L36.7109 38.8895C38.0822 38.8821 39.1941 37.7702 39.1941 36.3989V8.55795C39.1941 7.89084 38.9346 7.26819 38.4602 6.7938C37.9858 6.32682 37.3632 6.06739 36.6961 6.06739Z" fill="#1E1D26"/>
<path d="M39.7203 13.1981H5.23786C4.94136 13.1981 4.70416 12.9609 4.70416 12.6644V8.66914C4.70416 6.71226 6.29783 5.1186 8.24729 5.11119L36.6887 5H36.7035C37.6523 5 38.5418 5.37062 39.2163 6.03774C39.8908 6.71226 40.2614 7.60916 40.2614 8.55795V12.6644C40.254 12.9609 40.0168 13.1981 39.7203 13.1981ZM5.77155 12.1307H39.1866V8.55795C39.1866 7.89084 38.9272 7.26819 38.4528 6.7938C37.9858 6.32682 37.3558 6.06739 36.6961 6.06739H36.6887L8.24729 6.17857C6.88341 6.17857 5.77155 7.29784 5.77155 8.66914V12.1307Z" fill="#1E1D26"/>
<path d="M23.124 28.0007C22.2197 28.0007 21.3154 27.8302 20.4704 27.504C17.7129 26.4515 15.3854 23.62 16.7938 19.8915C17.5573 17.8753 19.2621 16.5115 21.4636 16.1557C23.9764 15.748 26.6523 16.6968 28.1199 18.5054C29.3652 20.0472 29.6173 22.0337 28.8167 24.1092C27.7716 26.8295 25.4737 28.0007 23.124 28.0007ZM22.6199 17.1267C22.2938 17.1267 21.9677 17.1489 21.6415 17.2008C20.5741 17.3713 18.6543 18.0014 17.8019 20.2621C16.6456 23.3235 18.5061 25.5991 20.8558 26.5034C23.4057 27.4818 26.6226 26.8369 27.8235 23.7237C28.6685 21.5445 28.0013 20.0472 27.2972 19.1725C26.2668 17.905 24.436 17.1267 22.6199 17.1267Z" fill="#1E1D26"/>
<path d="M25.3625 22.449C24.5397 22.9382 23.25 23.6869 22.2271 24.2058C21.8564 24.3911 21.4265 24.1168 21.4265 23.7091C21.4413 22.7826 21.4636 21.3298 21.4784 20.3884C21.4858 19.9733 21.9306 19.7213 22.2938 19.914C23.3019 20.4625 24.3322 20.9517 25.3403 21.4928C25.7183 21.693 25.7331 22.2267 25.3625 22.449Z" fill="#1E1D26"/>
<path d="M21.9825 24.7987C21.7823 24.7987 21.5822 24.7394 21.4117 24.6357C21.0856 24.4355 20.9003 24.0797 20.9003 23.7017L20.9522 20.3809C20.9596 19.9955 21.1597 19.6545 21.4858 19.4618C21.8194 19.2691 22.2123 19.2617 22.5532 19.447C23.0647 19.7286 23.5836 19.9881 24.1024 20.2475C24.6065 20.4995 25.1031 20.759 25.5997 21.0258C25.9407 21.2111 26.1631 21.5669 26.1705 21.9598C26.1779 22.3526 25.9778 22.7084 25.6442 22.916C24.7621 23.4423 23.4946 24.1761 22.4791 24.6875C22.316 24.7617 22.1456 24.7987 21.9825 24.7987ZM22.0418 20.3809L22.0047 21.3075L21.9677 23.7165C22.9832 23.2347 24.221 22.5083 25.0883 21.9968C25.0957 21.9968 25.0957 21.9894 25.0957 21.982C24.5991 21.7003 24.1024 21.4483 23.6132 21.2037C23.0869 20.9295 22.5606 20.6626 22.0418 20.3809Z" fill="#1E1D26"/>
<path d="M20.4259 31.9884C17.3201 31.9884 14.2143 31.9217 11.1307 31.7883C10.8342 31.7735 10.6044 31.5289 10.6193 31.2324C10.6341 30.9359 10.8861 30.7135 11.1752 30.7209C18.7284 31.0397 26.3854 30.9655 33.9313 30.4986C34.2278 30.4763 34.4798 30.7061 34.4946 30.9952C34.5094 31.2917 34.2871 31.5437 33.998 31.5585C29.4987 31.8476 24.9623 31.9884 20.4259 31.9884Z" fill="#1E1D26"/>
<path d="M20.4259 35.6351C17.3201 35.6351 14.2143 35.5684 11.1307 35.435C10.8342 35.4202 10.6044 35.1756 10.6193 34.8791C10.6341 34.5826 10.8861 34.3528 11.1752 34.3676C18.7284 34.6863 26.3854 34.6122 33.9313 34.1452C34.2278 34.1304 34.4798 34.3528 34.4946 34.6419C34.5094 34.9384 34.2871 35.1904 33.998 35.2052C29.4987 35.4943 24.9623 35.6351 20.4259 35.6351Z" fill="#1E1D26"/>
<path d="M10.7527 10.4403C11.279 10.2254 11.6348 9.64721 11.5755 9.08386C11.4494 7.89788 9.75201 7.51244 9.08489 8.47605C8.35106 9.54343 9.61117 10.9073 10.7527 10.4403Z" fill="#1E1D26"/>
<path d="M10.2783 11.0708C9.70757 11.0708 9.14423 10.8039 8.75137 10.3147C8.2325 9.66982 8.19544 8.83222 8.6476 8.17251C9.08493 7.53505 9.89288 7.25338 10.6934 7.46092C11.4791 7.66106 12.0351 8.27629 12.1092 9.03235C12.1907 9.83289 11.7089 10.6334 10.9603 10.9373C10.7379 11.0263 10.5081 11.0708 10.2783 11.0708ZM10.1746 8.46901C9.93735 8.46901 9.68533 8.54313 9.52226 8.78033C9.26283 9.15836 9.47779 9.51416 9.58897 9.64758C9.79652 9.90702 10.182 10.1072 10.56 9.95149C10.8713 9.82548 11.0863 9.46968 11.0492 9.15095C11.0122 8.78033 10.7008 8.57278 10.4266 8.50607C10.3524 8.47642 10.2635 8.46901 10.1746 8.46901Z" fill="#1E1D26"/>
<path d="M16.1712 10.4404C16.6974 10.2254 17.0532 9.64727 16.9939 9.08392C16.8679 7.89794 15.1705 7.50508 14.5034 8.46869C13.7621 9.54349 15.0297 10.9074 16.1712 10.4404Z" fill="#1E1D26"/>
<path d="M15.6968 11.0708C15.126 11.0708 14.5627 10.8039 14.1698 10.3147C13.651 9.66982 13.6139 8.83222 14.0661 8.17251C14.5034 7.53505 15.3113 7.25338 16.1119 7.46092C16.8976 7.66106 17.4535 8.27629 17.5276 9.03235C17.6092 9.83289 17.1274 10.6334 16.3787 10.9373C16.1564 11.0263 15.9266 11.0708 15.6968 11.0708ZM15.593 8.46901C15.3558 8.46901 15.1038 8.55055 14.9407 8.78033C14.6739 9.15836 14.8962 9.51416 15 9.64758C15.2076 9.90702 15.593 10.1072 15.971 9.95149C16.2824 9.82548 16.4973 9.46968 16.4603 9.15095C16.4232 8.78033 16.1119 8.57278 15.8376 8.50607C15.7635 8.47642 15.682 8.46901 15.593 8.46901Z" fill="#1E1D26"/>
<path d="M41.1361 24.0277C42.2999 22.938 44.153 22.649 45.591 23.3457C47.029 24.0425 47.9629 25.6658 47.8295 27.2521C47.6961 28.8383 46.5175 30.2986 44.9906 30.7507" fill="white"/>
<path d="M26.3409 40.9054C27.186 42.8548 27.9568 44.6635 29.4097 46.2126C30.8625 47.7618 33.0418 48.8144 35.1172 48.3622C35.7843 48.214 36.4515 47.8953 36.8369 47.3319C37.2223 46.7686 37.2446 45.9236 36.7554 45.4418C36.3032 44.997 35.6064 44.9748 34.9838 44.8784C32.3524 44.4781 30.1139 41.9431 29.8396 39.2969" fill="#95CBFC"/>
<path d="M34.1314 49.0001C32.3524 49.0001 30.4697 48.1254 29.0168 46.5762C27.5269 44.99 26.7412 43.1665 25.9036 41.2319L25.8517 41.1133C25.7331 40.839 25.8592 40.5277 26.126 40.4091C26.4003 40.2905 26.7116 40.4165 26.8302 40.6834L26.8821 40.802C27.6826 42.6477 28.4387 44.3896 29.7951 45.835C30.9737 47.0877 32.9602 48.2737 34.9986 47.8289C35.3693 47.7474 36.0364 47.5398 36.3922 47.021C36.6294 46.6726 36.6813 46.1093 36.3773 45.8128C36.1253 45.5607 35.6732 45.5014 35.1988 45.4421C35.095 45.4273 34.9986 45.4125 34.9023 45.3977C32.0707 44.9677 29.6172 42.3067 29.3059 39.3417C29.2763 39.0452 29.4912 38.7858 29.7803 38.7562C30.0768 38.7265 30.3362 38.9415 30.3659 39.2305C30.6179 41.6915 32.7304 43.9893 35.0579 44.3377C35.1469 44.3525 35.2432 44.3599 35.3396 44.3747C35.94 44.4563 36.622 44.5452 37.126 45.0419C37.7709 45.6793 37.8376 46.7838 37.2742 47.614C36.7406 48.3997 35.8659 48.7258 35.2284 48.8667C34.8652 48.963 34.502 49.0001 34.1314 49.0001Z" fill="#1E1D26"/>
<path d="M47.4811 38.5333C41.9441 38.1775 36.3329 39.1559 31.2257 41.3129C30.0916 41.7873 28.9872 42.321 27.9124 42.914C25.5108 44.226 22.4939 43.4477 21.0782 41.1054C20.5741 40.2752 20.3369 39.3635 20.3369 38.4666C20.3369 36.8358 21.1152 35.2496 22.5384 34.2563C22.6199 34.197 22.7089 34.1377 22.7978 34.0858C23.9986 33.352 25.1772 32.5959 26.3187 31.788C26.3706 31.7583 26.4225 31.7213 26.4744 31.6842C28.7352 30.0831 30.8699 28.2671 32.5303 26.0582C34.0647 24.0272 35.347 21.7442 35.6732 19.2462C35.7028 19.0238 35.7251 18.8015 35.7399 18.5791L47.4811 38.5333Z" fill="#FFC94D"/>
<g opacity="0.1">
<path d="M47.4811 38.5333C40.721 38.0959 33.8497 39.66 27.9124 42.914C25.5108 44.226 22.5013 43.4477 21.0782 41.1054C20.5741 40.2752 20.3369 39.3635 20.3369 38.4666C20.3369 36.8358 21.1152 35.2496 22.5384 34.2563C22.9461 35.1384 23.2055 36.102 23.7244 36.9174C24.6583 38.4073 26.4744 39.2968 28.2311 39.1263C29.9804 38.9558 31.5963 37.7402 32.2338 36.0946C32.4636 35.5016 32.597 34.8271 33.0492 34.3749C33.6941 33.7523 34.7244 33.8042 35.5546 33.4706C36.5182 33.0778 37.1779 32.1512 37.4744 31.1579C37.7709 30.1647 37.7486 29.1047 37.6745 28.0744C37.4521 25.0501 36.7776 22.0629 35.6732 19.2462C35.7028 19.0238 35.7251 18.8015 35.7399 18.5791L47.4811 38.5333Z" fill="#1E1D26"/>
</g>
<path d="M31.2332 41.313C30.0991 41.7874 28.9946 42.3211 27.9198 42.9141C25.5182 44.2261 22.5014 43.4478 21.0856 41.1055C20.5816 40.2753 20.3444 39.3636 20.3444 38.4667C20.3444 36.8359 21.1227 35.2497 22.5458 34.2564C22.6274 34.1971 22.7163 34.1378 22.8053 34.0859C24.0061 33.3521 25.1847 32.596 26.3262 31.7881C26.8006 33.2335 27.6752 34.5751 28.3868 35.9242L31.1665 41.1722C31.1813 41.2167 31.2109 41.2611 31.2332 41.313Z" fill="white"/>
<path d="M25.4366 44.0858C23.5317 44.0858 21.6786 43.1222 20.626 41.3802C19.0101 38.7266 19.8625 35.2502 22.5236 33.6269C23.9023 32.7893 25.0957 32.0036 26.1705 31.2475C28.7945 29.387 30.6846 27.6302 32.1078 25.7327C34.0869 23.0939 35.0728 20.8108 35.2062 18.5426C35.221 18.3054 35.3841 18.1127 35.6139 18.0534C35.8437 18.0015 36.0809 18.0979 36.1994 18.298L47.9407 38.2596C48.0445 38.4301 48.0371 38.6451 47.9333 38.8081C47.8295 38.9786 47.6442 39.075 47.4441 39.0602C40.8693 38.6377 34.0202 40.172 28.1644 43.3742C27.2972 43.856 26.3632 44.0858 25.4366 44.0858ZM36.0586 20.166C35.6361 22.1377 34.628 24.1464 32.9602 26.3701C31.4629 28.3567 29.5061 30.1875 26.7857 32.1147C25.6887 32.893 24.4804 33.6862 23.0795 34.5386C20.9225 35.8506 20.2257 38.6747 21.5377 40.8243C22.8052 42.9146 25.4959 43.6262 27.6604 42.4402C33.3976 39.2974 40.0539 37.7185 46.5249 37.9483L36.0586 20.166Z" fill="#1E1D26"/>
<path d="M31.2776 41.6544C31.0849 41.6544 30.907 41.5507 30.8106 41.3728L25.8739 32.2185C25.7331 31.959 25.8295 31.6329 26.0889 31.4921C26.3483 31.3512 26.6745 31.4476 26.8153 31.707L31.752 40.8613C31.8928 41.1208 31.7965 41.4469 31.537 41.5877C31.4481 41.6322 31.3591 41.6544 31.2776 41.6544Z" fill="#1E1D26"/>
<path d="M44.9906 31.2844C44.7608 31.2844 44.5458 31.1361 44.4791 30.8989C44.3976 30.6173 44.5607 30.3208 44.8423 30.2318C46.1543 29.8464 47.1921 28.5714 47.3033 27.2001C47.4144 25.8363 46.5991 24.4131 45.3612 23.8127C44.1233 23.2197 42.5074 23.4643 41.5068 24.4057C41.2918 24.6058 40.9508 24.5984 40.7507 24.3834C40.5506 24.1685 40.558 23.8275 40.7729 23.6274C42.0998 22.3821 44.1826 22.0633 45.8208 22.8565C47.4663 23.6496 48.5115 25.473 48.3632 27.2891C48.215 29.1051 46.8882 30.7359 45.1388 31.2547C45.0944 31.277 45.0425 31.2844 44.9906 31.2844Z" fill="#1E1D26"/>
<path d="M49.8902 36.6284L38.7345 17.1116C38.2527 16.274 37.1631 16.022 36.3625 16.5557C35.6435 17.0449 35.4212 18.0011 35.8511 18.7572L47.0067 38.2814C47.4885 39.119 48.5782 39.371 49.3787 38.8373C50.0977 38.3481 50.3201 37.3845 49.8902 36.6284Z" fill="#3D68F8"/>
<path d="M48.4447 39.6529C48.2816 39.6529 48.1111 39.6307 47.9481 39.5936C47.3551 39.4528 46.8436 39.0747 46.5397 38.5485L35.3915 19.0242C34.8281 18.0309 35.1246 16.756 36.0734 16.1185C36.5774 15.7776 37.2075 15.659 37.8005 15.7998C38.3935 15.9406 38.9049 16.3187 39.2088 16.845L50.3645 36.3692C50.9278 37.3625 50.6313 38.6374 49.69 39.2749C49.3119 39.5195 48.882 39.6529 48.4447 39.6529ZM37.289 16.8079C37.0667 16.8079 36.8517 16.8746 36.659 17.0006C36.1698 17.3268 36.0215 17.9865 36.3106 18.4905L47.4663 38.0148C47.6219 38.289 47.8813 38.4817 48.1853 38.5559C48.4966 38.63 48.8079 38.5707 49.0747 38.3928C49.564 38.0667 49.7122 37.4069 49.4231 36.9029L38.2749 17.3712C38.1192 17.097 37.8598 16.9043 37.5559 16.8301C37.4669 16.8153 37.378 16.8079 37.289 16.8079Z" fill="#1E1D26"/>
<path d="M31.2554 9.08431H24.5027C24.2581 9.08431 24.058 8.88418 24.058 8.63957C24.058 8.39496 24.2581 8.19482 24.5027 8.19482H31.2554C31.5 8.19482 31.7002 8.39496 31.7002 8.63957C31.7002 8.88418 31.5 9.08431 31.2554 9.08431Z" fill="white"/>
<path d="M33.8572 9.1805H33.6051C33.3605 9.1805 33.1604 8.98037 33.1604 8.73576C33.1604 8.49115 33.3605 8.29102 33.6051 8.29102H33.8572C34.1018 8.29102 34.3019 8.49115 34.3019 8.73576C34.3019 8.98037 34.1018 9.1805 33.8572 9.1805Z" fill="white"/>
</svg>
