<svg width="52" height="52" viewBox="0 0 52 52" fill="none" xmlns="http://www.w3.org/2000/svg">
<path d="M17.0261 45.2793L10.983 37.7314C10.1873 36.7387 8.7297 36.589 7.75273 37.3926L6.21637 38.6532C5.25515 39.449 5.10546 40.8672 5.88546 41.8442L11.9285 49.392C12.7242 50.3848 14.1818 50.5345 15.1588 49.7308L16.6952 48.4702C17.6564 47.6745 17.8061 46.2484 17.0261 45.2793Z" fill="#1E1D26"/>
<path d="M13.7091 50.8183C13.6067 50.8183 13.5121 50.8104 13.4097 50.8025C12.6454 50.7237 11.96 50.3455 11.4794 49.7467L5.43636 42.1989C4.46727 40.9855 4.65636 39.197 5.85393 38.2122L7.3903 36.9516C7.98121 36.4631 8.72969 36.2425 9.49393 36.3213C10.2582 36.4001 10.9436 36.7783 11.4242 37.377L17.4673 44.9249C18.4364 46.1383 18.2473 47.9267 17.0497 48.9116L15.5133 50.1722C15.0012 50.5898 14.3709 50.8183 13.7091 50.8183ZM9.19454 37.4322C8.8006 37.4322 8.41454 37.5661 8.10727 37.8261L6.5709 39.0867C5.85393 39.6777 5.73575 40.757 6.31878 41.4819L12.3618 49.0298C12.6533 49.3922 13.063 49.6128 13.5279 49.668C13.9848 49.7152 14.4418 49.5813 14.7964 49.2898L16.3327 48.0292C17.0497 47.4383 17.1679 46.3589 16.5848 45.634L10.5418 38.0861C10.2503 37.7237 9.8406 37.5031 9.38363 37.448C9.3206 37.4401 9.25757 37.4322 9.19454 37.4322Z" fill="#1E1D26"/>
<path d="M36.2818 11.4085C37.7079 10.9595 39.3703 11.3298 40.4655 12.3461C41.5606 13.3625 42.0649 14.9855 41.7182 16.451C41.3794 17.9085 40.2133 19.1455 38.7715 19.571" fill="#FFC94D"/>
<path d="M38.7794 20.1384C38.5351 20.1384 38.3067 19.9808 38.2357 19.7287C38.1491 19.4293 38.3145 19.1141 38.6218 19.0196C39.8588 18.6572 40.883 17.5699 41.1745 16.3172C41.466 15.0644 41.0327 13.6384 40.0873 12.7638C39.1418 11.8893 37.6842 11.5584 36.4551 11.9523C36.1557 12.0469 35.8406 11.8814 35.746 11.582C35.6515 11.2826 35.817 10.9675 36.1164 10.8729C37.7473 10.3608 39.6067 10.7784 40.8594 11.9366C42.1121 13.0947 42.6715 14.9226 42.2776 16.5851C41.8915 18.2475 40.5757 19.6341 38.9448 20.1226C38.8897 20.1305 38.8345 20.1384 38.7794 20.1384Z" fill="#1E1D26"/>
<path d="M39.26 8.71419C39.1654 8.71419 39.063 8.69056 38.9764 8.63541C38.7085 8.47783 38.6139 8.13116 38.7715 7.85541L39.6854 6.30328C39.843 6.03541 40.1897 5.94086 40.4654 6.09844C40.7333 6.25601 40.8279 6.60268 40.6703 6.87844L39.7563 8.43056C39.646 8.61177 39.457 8.71419 39.26 8.71419Z" fill="#1E1D26"/>
<path d="M43.6958 12.1017C43.4988 12.1017 43.3097 11.9993 43.1994 11.8181C43.0418 11.5423 43.1364 11.1957 43.4121 11.046L44.2394 10.5733C44.5152 10.4157 44.8618 10.5102 45.0115 10.786C45.1691 11.0617 45.0746 11.4084 44.7988 11.5581L43.9715 12.0308C43.8927 12.0781 43.7903 12.1017 43.6958 12.1017Z" fill="#1E1D26"/>
<path d="M44.8776 17.4593C44.5703 17.4593 44.3182 17.2151 44.3103 16.9078C44.3024 16.5927 44.5467 16.3327 44.8618 16.3248L46.5952 16.2775C46.9103 16.2697 47.1703 16.5139 47.1782 16.829C47.1861 17.1442 46.9418 17.4042 46.6267 17.4121L44.8933 17.4593C44.8933 17.4593 44.8855 17.4593 44.8776 17.4593Z" fill="#1E1D26"/>
<path d="M44.0109 22.2734C43.9085 22.2734 43.8061 22.2498 43.7115 22.1868L42.6636 21.5407C42.3958 21.3753 42.317 21.0286 42.4824 20.7607C42.6479 20.4928 42.9945 20.414 43.2624 20.5795L44.3103 21.2256C44.5782 21.391 44.657 21.7377 44.4915 22.0056C44.3891 22.1789 44.2 22.2734 44.0109 22.2734Z" fill="#1E1D26"/>
<path d="M20.0909 27.9932L23.6048 39.8665C23.8333 40.6307 23.4079 41.4265 22.6436 41.6629L21.2806 42.0883C20.5085 42.3326 19.6812 41.8913 19.4527 41.1113L15.9467 29.2853" fill="white"/>
<path d="M41.9624 27.2211L34.5642 3.13569C34.2412 2.09569 33.1382 1.51266 32.0903 1.83569C31.0582 2.15872 30.483 3.25387 30.7982 4.28599L38.1964 28.3714C38.5194 29.4114 39.6224 29.9945 40.6703 29.6714C41.7024 29.3563 42.2776 28.2533 41.9624 27.2211Z" fill="#3D68F8"/>
<path d="M38.0939 28.9229C32.8782 26.7877 27.4655 26.5986 22.163 27.5835C22.0764 27.5992 21.9976 27.615 21.9109 27.6307C19.7521 28.0404 17.6012 28.6471 15.4976 29.3956C13.7248 30.0259 11.7867 29.0332 11.2194 27.2447L9.55697 21.9659C9.43091 21.5641 9.38363 21.1701 9.40727 20.7683C9.48606 19.3895 10.4158 18.1368 11.8339 17.7507C14.0715 17.1362 16.2618 16.3641 18.3497 15.4107C22.7933 13.378 26.7721 10.5023 29.7503 6.44469C30.0576 6.03499 30.3412 5.61742 30.6248 5.18408L38.0939 28.9229Z" fill="#95CBFC"/>
<path d="M22.163 27.5839C22.0764 27.5996 21.9976 27.6154 21.9109 27.6311C19.7521 28.0408 17.6012 28.6475 15.4976 29.396C13.7248 30.0263 11.7867 29.0336 11.2194 27.2451L9.55697 21.9663C9.43091 21.5645 9.38363 21.1705 9.40727 20.7687C9.48606 19.3899 10.4158 18.1372 11.8339 17.7511C14.0715 17.1366 16.2618 16.3645 18.3497 15.4111L22.163 27.5839Z" fill="white"/>
<g opacity="0.1">
<path d="M38.1018 28.9229C30.6721 25.8817 22.8327 26.7878 15.5054 29.3878C13.7327 30.0181 11.7945 29.0254 11.2273 27.2369L9.56484 21.9581C9.43878 21.5563 9.39151 21.1545 9.41514 20.7605C11.6448 22.8011 14.6703 23.9672 17.6958 23.912C20.1776 23.8648 22.5727 23.0532 24.9206 22.2496C26.5042 21.706 28.2218 21.0442 29.0097 19.5708C29.4036 18.846 29.5061 18.0108 29.6085 17.1914C29.6873 16.5611 29.7661 15.9308 29.8527 15.3005C30.0261 13.9375 30.1915 12.5745 30.2309 11.2035C30.2703 9.60415 30.1048 7.99688 29.7582 6.43688C30.0576 6.02718 30.3491 5.6096 30.6248 5.17627L38.1018 28.9229Z" fill="#1E1D26"/>
</g>
<path d="M14.4024 30.1519C13.8115 30.1519 13.2285 30.018 12.677 29.7422C11.7157 29.2616 11.0067 28.4344 10.6836 27.4101L9.0212 22.1313C8.69817 21.1071 8.8006 20.0198 9.3206 19.0744C9.82484 18.1447 10.6679 17.475 11.6842 17.1913C20.1697 14.8513 26.3861 10.7071 30.1442 4.86891C30.3176 4.60891 30.6642 4.53012 30.9321 4.69557C31.1921 4.86891 31.2709 5.21557 31.1054 5.48345C27.1897 11.558 20.7527 15.8677 11.9915 18.2865C11.2745 18.4834 10.6836 18.9562 10.3212 19.618C9.95878 20.2877 9.87999 21.0598 10.1085 21.7847L11.7709 27.0634C11.9994 27.7883 12.5036 28.3792 13.1891 28.718C13.8588 29.0489 14.6151 29.0962 15.3164 28.8519C23.8806 25.8107 31.6254 25.6531 38.3145 28.395C38.6061 28.5131 38.74 28.8441 38.6218 29.1356C38.5036 29.4271 38.1727 29.561 37.8812 29.4428C31.4521 26.8113 23.9909 26.9768 15.6945 29.9234C15.277 30.0731 14.8357 30.1519 14.4024 30.1519Z" fill="#1E1D26"/>
<path d="M40.0794 30.3334C39.6776 30.3334 39.2758 30.2388 38.9055 30.0418C38.3067 29.7267 37.8655 29.1909 37.6606 28.5449L30.2624 4.45942C29.8527 3.13578 30.6012 1.7176 31.9249 1.30002C32.5709 1.09517 33.2642 1.15821 33.863 1.47336C34.4618 1.78851 34.903 2.32427 35.1079 2.97033L42.5061 27.0558C42.9158 28.3794 42.1673 29.7976 40.8436 30.2152C40.5915 30.294 40.3394 30.3334 40.0794 30.3334ZM32.6812 2.31639C32.5394 2.31639 32.3976 2.34002 32.2558 2.37942C31.523 2.6079 31.1133 3.39578 31.3418 4.12851L38.74 28.214C38.8503 28.5764 39.0946 28.8679 39.4255 29.0412C39.7564 29.2146 40.1424 29.254 40.497 29.1358C41.2297 28.9073 41.6394 28.1194 41.4109 27.3867L34.0206 3.30911C33.9103 2.94669 33.6661 2.65517 33.3352 2.48184C33.1303 2.37154 32.9097 2.31639 32.6812 2.31639Z" fill="#1E1D26"/>
<path d="M21.9818 28.0802C21.7376 28.0802 21.517 27.9226 21.4382 27.6784C20.8 25.5826 20.2091 23.6287 19.6261 21.6669C19.0352 19.7129 18.4521 17.7511 17.814 15.6554C17.7194 15.356 17.8927 15.0408 18.1921 14.9463C18.4915 14.8517 18.8067 15.0251 18.9012 15.3245C19.5394 17.4202 20.1303 19.3742 20.7133 21.336C21.3043 23.2899 21.8873 25.2517 22.5255 27.3475C22.62 27.6469 22.4467 27.962 22.1473 28.0566C22.0921 28.0723 22.037 28.0802 21.9818 28.0802Z" fill="#1E1D26"/>
<path d="M20.8473 42.7345C20.5242 42.7345 20.1933 42.6558 19.9018 42.4982C19.4212 42.2382 19.0667 41.8127 18.9091 41.2848L15.403 29.4588C15.3164 29.1594 15.4818 28.8442 15.7891 28.7497C16.0885 28.663 16.4036 28.8364 16.4982 29.1358L20.0042 40.9618C20.0752 41.1903 20.2249 41.3794 20.4376 41.4897C20.6503 41.6 20.8945 41.6236 21.123 41.5527L22.4861 41.1273C22.943 40.9855 23.203 40.4891 23.0691 40.0321L19.5552 28.1588C19.4685 27.8594 19.6339 27.5442 19.9412 27.4497C20.2406 27.363 20.5558 27.5285 20.6503 27.8358L24.1642 39.7091C24.4715 40.757 23.8806 41.8836 22.8327 42.2145L21.4697 42.64C21.257 42.703 21.0521 42.7345 20.8473 42.7345Z" fill="#1E1D26"/>
<path d="M22.2103 17.6642C21.9739 17.6642 21.7691 17.4908 21.7454 17.2545C21.7139 16.9945 21.8951 16.7581 22.1551 16.7266C24.3218 16.443 26.3467 15.3084 27.7176 13.6145C27.883 13.4096 28.1824 13.3781 28.3794 13.5436C28.5842 13.709 28.6157 14.0084 28.4503 14.2054C26.9297 16.0884 24.6763 17.349 22.2733 17.6642C22.2497 17.6642 22.2339 17.6642 22.2103 17.6642Z" fill="white"/>
<path d="M29.9394 12.2752L29.5218 12.0546L29.1357 11.7788L29.183 11.7079C29.3248 11.4873 29.6163 11.4243 29.837 11.5582C30.0576 11.7 30.1206 11.9916 29.9867 12.2122L29.9394 12.2752Z" fill="white"/>
<path d="M27.8042 39.189C27.8594 40.1187 27.5994 41.1272 26.8903 41.8363C25.8345 42.8999 24.1248 43.0102 22.62 43.2939C20.3588 43.7193 18.2 44.7121 16.4194 46.1381C16.0412 46.4375 15.6867 46.7605 15.3479 47.0915L8.88727 40.3078C9.31272 39.8745 9.69878 39.4569 10.0533 39.0315C11.18 37.6842 11.9679 36.329 12.4091 34.7927C12.7479 33.6266 12.8897 32.3581 12.8503 30.9084C12.8345 30.3254 12.7794 29.7345 12.937 29.1751C13.0867 28.6157 13.4806 28.0721 14.0479 27.946C14.9382 27.749 15.6945 28.6078 16.0964 29.4351C16.6715 30.6248 16.963 31.9484 16.9551 33.2642C17.7351 32.7363 18.5309 32.2399 19.3976 31.8775C20.5558 31.3969 21.8715 31.1684 23.0533 31.4993C23.8412 31.7121 24.5188 32.169 25.0703 32.7363C25.3067 32.9727 25.5194 33.2405 25.7085 33.5163C26.3388 34.4302 26.7248 35.4702 27.103 36.4945C27.4182 37.369 27.7491 38.2515 27.8042 39.189Z" fill="#FFC94D"/>
<g opacity="0.1">
<path d="M27.8042 39.1889C27.8594 40.1186 27.5994 41.1271 26.8903 41.8362C25.8345 42.8998 24.1248 43.0101 22.62 43.2938C20.3588 43.7192 18.2 44.712 16.4194 46.138C15.2376 45.4447 14.1503 44.5307 13.1812 43.5616C12.157 42.5453 11.2115 41.4344 10.5418 40.158C10.3527 39.7956 10.1873 39.4253 10.0533 39.0392C11.18 37.692 11.9679 36.3368 12.4091 34.8004C12.5273 34.9107 12.6376 35.0289 12.74 35.155C13.583 36.1871 14.0715 37.4713 14.9224 38.4956C15.7733 39.5198 17.2309 40.2604 18.4285 39.6853C19.0351 39.3938 19.4606 38.8107 20.0121 38.4326C20.8236 37.881 21.8558 37.7707 22.7224 37.3216C24.3297 36.4865 25.1018 34.5877 25.0545 32.752C25.2909 32.9883 25.5036 33.2562 25.6927 33.532C26.323 34.4459 26.7091 35.4859 27.0873 36.5101C27.4182 37.3689 27.7491 38.2513 27.8042 39.1889Z" fill="#1E1D26"/>
</g>
<path d="M8.89515 40.8751C8.75333 40.8751 8.60363 40.82 8.49333 40.7097C8.27272 40.4891 8.26485 40.1266 8.48545 39.906C11.3218 37.0303 12.3855 34.5169 12.2751 30.9242L12.2673 30.6879C12.2436 30.1521 12.2279 29.5927 12.3776 29.0254C12.5982 28.1824 13.1891 27.5521 13.9139 27.3945C15.1194 27.1266 16.0885 28.143 16.5927 29.1909C17.1994 30.4515 17.5145 31.8618 17.5067 33.2721C17.5067 33.5873 17.2545 33.8394 16.9394 33.8394C16.6242 33.8394 16.3721 33.5794 16.3721 33.2721C16.38 32.0351 16.1042 30.7982 15.5685 29.6873C15.2455 29.0176 14.6782 28.3951 14.1582 28.5054C13.8115 28.5842 13.5673 28.9703 13.4727 29.3169C13.3624 29.7188 13.3782 30.1679 13.4018 30.6406L13.4097 30.8848C13.5279 34.8242 12.3697 37.5818 9.28909 40.7018C9.18666 40.82 9.03697 40.8751 8.89515 40.8751Z" fill="#1E1D26"/>
<path d="M15.3479 47.6587C15.2061 47.6587 15.0564 47.6035 14.9461 47.4932C14.7255 47.2726 14.7255 46.9102 14.9461 46.6896C16.963 44.6805 19.6497 43.2702 22.5097 42.7344C22.7618 42.6872 23.0218 42.6478 23.2739 42.6005C24.4794 42.4035 25.7242 42.1908 26.4806 41.4344C27.0006 40.9144 27.2764 40.1029 27.2291 39.2205C27.1818 38.3696 26.8667 37.5187 26.5594 36.6914C26.197 35.7144 25.8188 34.6981 25.2279 33.8314C24.7867 33.1932 24.0224 32.3581 22.8879 32.0429C21.9503 31.7829 20.7842 31.909 19.6024 32.3975C18.7358 32.7599 17.9321 33.272 17.2624 33.729C17.0024 33.9023 16.6479 33.8393 16.4745 33.5793C16.3012 33.3193 16.3642 32.9647 16.6242 32.7914C17.3412 32.3029 18.2079 31.7514 19.1691 31.3496C20.5873 30.7666 22.0133 30.6169 23.1952 30.9478C24.6606 31.3496 25.6139 32.3896 26.1655 33.1853C26.843 34.1702 27.2606 35.2969 27.6309 36.2896C27.9697 37.1956 28.3164 38.1253 28.3715 39.1496C28.4345 40.355 28.0485 41.4738 27.2921 42.2302C26.2758 43.2465 24.8497 43.4829 23.463 43.7193C23.2109 43.7587 22.9667 43.8059 22.7224 43.8453C20.083 44.3417 17.6091 45.6338 15.7497 47.4932C15.6394 47.6035 15.4976 47.6587 15.3479 47.6587Z" fill="#1E1D26"/>
<path d="M17.4909 44.8145L11.4479 37.2666C10.6521 36.2739 9.19454 36.1242 8.21757 36.9278L6.68121 38.1884C5.72 38.9842 5.5703 40.4023 6.3503 41.3793L12.3933 48.9272C13.1891 49.9199 14.6467 50.0696 15.6236 49.266L17.16 48.0054C18.1212 47.2096 18.2709 45.7914 17.4909 44.8145Z" fill="#64C682"/>
<path d="M14.1739 50.3534C14.0715 50.3534 13.977 50.3455 13.8745 50.3376C13.1103 50.2588 12.4248 49.8806 11.9442 49.2819L5.9012 41.734C4.93211 40.5206 5.1212 38.7322 6.31878 37.7473L7.85514 36.4867C8.44605 35.9982 9.20241 35.7697 9.95878 35.8564C10.723 35.9352 11.4085 36.3134 11.8891 36.9122L17.9321 44.46C18.9012 45.6734 18.7121 47.4619 17.5145 48.4467L15.9782 49.7073C15.4661 50.1328 14.8357 50.3534 14.1739 50.3534ZM9.65938 36.9752C9.26544 36.9752 8.87938 37.1091 8.57211 37.3691L7.03575 38.6297C6.3109 39.2206 6.2006 40.3 6.78363 41.0249L12.8267 48.5728C13.1182 48.9352 13.5279 49.1558 13.9848 49.2109C14.4497 49.2582 14.8988 49.1243 15.2533 48.8328L16.7897 47.5722C17.5145 46.9813 17.6248 45.9019 17.0418 45.177L10.9988 37.6291C10.7073 37.2667 10.2976 37.0461 9.83272 36.9909C9.77757 36.9752 9.72241 36.9752 9.65938 36.9752Z" fill="#1E1D26"/>
<path d="M15.1824 46.4691C15.8127 45.3503 14.0952 44.5073 13.4255 45.5C12.7321 46.5479 14.5521 47.5879 15.1824 46.4691Z" fill="#1E1D26"/>
</svg>
