<svg width="52" height="52" viewBox="0 0 52 52" fill="none" xmlns="http://www.w3.org/2000/svg">
<circle cx="25.5" cy="26.5" r="14.5" fill="#95CBFC"/>
<path d="M45.3897 37.1878C48.7382 20.9969 41.2139 11.9599 33.8867 8.93444C33.6424 8.83202 33.3509 8.94232 33.2248 9.17081L32.9885 9.60414C32.7994 9.95868 32.2873 9.97444 32.0745 9.63565C30.9085 7.79202 29.8133 5.9405 28.6473 4.08899C28.4424 3.76596 28.6315 3.34838 29.0097 3.28535C31.1921 2.92293 33.9891 2.30838 36.2188 1.9302C36.66 1.85141 36.9909 2.31626 36.7703 2.7102L36.3842 3.40353C36.2424 3.65565 36.337 3.97081 36.597 4.11262C45.4527 9.04475 50.637 19.9569 48.4861 29.8605C47.9188 32.492 46.8473 34.966 45.3897 37.1878Z" fill="#3D68F8"/>
<path d="M6.6103 14.8198C3.26181 31.0107 10.7861 40.0477 18.1133 43.0732C18.3576 43.1756 18.6491 43.0653 18.7751 42.8368L19.0115 42.4035C19.2006 42.0489 19.7127 42.0332 19.9255 42.3719C21.0915 44.2156 22.1867 46.0671 23.3527 47.9186C23.5576 48.2416 23.3685 48.6592 22.9903 48.7222C20.8079 49.0847 18.0109 49.6992 15.7812 50.0774C15.34 50.1562 15.0091 49.6913 15.2297 49.2974L15.6158 48.6041C15.7576 48.3441 15.663 48.0289 15.403 47.8871C6.54727 42.9471 1.3709 32.0429 3.51393 22.1313C4.08121 19.5077 5.15272 17.0338 6.6103 14.8198Z" fill="#95CBFC"/>
<path d="M29.1043 21.7688C30.2152 20.3822 30.1443 18.1919 28.9467 16.884C26.9455 14.7016 22.557 15.4343 22.3443 19.2161C22.1473 22.6591 26.8115 24.621 29.1043 21.7688Z" fill="#1E1D26"/>
<path d="M26.26 23.7069C25.7243 23.7069 25.1727 23.6044 24.6291 23.3996C22.7934 22.6984 21.6746 21.0438 21.777 19.1844C21.8794 17.3644 22.9037 15.9384 24.5267 15.3632C26.2364 14.7566 28.1824 15.2135 29.3643 16.5056C30.743 18.0105 30.8218 20.5317 29.5455 22.1232C28.7182 23.1553 27.5206 23.7069 26.26 23.7069ZM26.0552 16.2299C25.6691 16.2299 25.2752 16.2929 24.897 16.4269C23.7073 16.8523 22.9746 17.8766 22.9037 19.2475C22.8091 20.8941 23.9909 21.942 25.0309 22.3438C26.0946 22.7535 27.6073 22.722 28.6552 21.4141C29.6006 20.2402 29.5376 18.3808 28.5212 17.2699C27.9146 16.6002 26.9927 16.2299 26.0552 16.2299Z" fill="#1E1D26"/>
<path d="M33.3667 34.1619C34.3436 34.1619 35.0685 33.2873 34.9188 32.3261C34.4933 29.537 32.8939 26.9055 30.4909 25.4086C26.9139 23.1867 21.8715 23.6595 18.783 26.5195C17.1442 28.0322 16.1121 30.0492 15.5764 32.2316C15.3321 33.2164 16.0964 34.1619 17.1127 34.1619H33.3667Z" fill="#1E1D26"/>
<path d="M33.3667 34.7214H17.1206C16.4588 34.7214 15.8364 34.4221 15.4267 33.8942C15.0249 33.3742 14.8752 32.7202 15.0327 32.0821C15.6236 29.6554 16.7897 27.5833 18.4049 26.0942C21.6824 23.0687 27.0085 22.5566 30.7982 24.9202C33.2721 26.4566 35.0212 29.1905 35.4861 32.2317C35.5806 32.8621 35.3994 33.5002 34.9897 33.9808C34.58 34.4536 33.9891 34.7214 33.3667 34.7214ZM25.4327 24.5657C23.1479 24.5657 20.8552 25.3693 19.1691 26.9293C17.7194 28.2687 16.6715 30.1439 16.1279 32.3578C16.057 32.6493 16.12 32.9566 16.317 33.2008C16.5139 33.453 16.8055 33.5948 17.1206 33.5948H33.3745C33.6739 33.5948 33.9418 33.4687 34.1309 33.2481C34.3279 33.0196 34.4145 32.7124 34.3673 32.413C33.9497 29.6948 32.3976 27.2602 30.1994 25.8893C28.7733 24.999 27.103 24.5657 25.4327 24.5657Z" fill="#1E1D26"/>
<path d="M33.3667 33.3663H17.1206C16.1043 33.3663 15.34 32.4209 15.5843 31.436C16.0097 29.7027 16.7503 28.0718 17.8612 26.7166C18.1449 26.37 18.4521 26.0391 18.783 25.7318C21.8794 22.8718 26.9218 22.3912 30.4988 24.6209C30.7273 24.7627 30.9479 24.9124 31.1606 25.0778C33.2012 26.6142 34.5485 29.0094 34.9346 31.5384C35.0764 32.4918 34.3437 33.3663 33.3667 33.3663Z" fill="#64C682"/>
<g opacity="0.1">
<path d="M33.3667 33.3661H17.1206C16.1043 33.3661 15.34 32.4207 15.5843 31.4358C16.0097 29.7025 16.7503 28.0716 17.8612 26.7164C17.9479 26.7795 18.0267 26.8425 18.0976 26.9055C18.917 27.5989 19.5788 28.4655 20.4455 29.0958C21.3121 29.7261 22.5018 30.0885 23.4552 29.6079C24.2509 29.2061 24.763 28.2843 25.6376 28.1267C26.7327 27.9298 27.694 29.0328 28.8049 28.9934C29.514 28.9698 30.1285 28.4734 30.4752 27.8667C30.8218 27.2601 30.9558 26.551 31.0503 25.8498C31.0897 25.5898 31.1212 25.3376 31.1527 25.0776C33.1934 26.614 34.5406 29.0092 34.9267 31.5382C35.0764 32.4916 34.3437 33.3661 33.3667 33.3661Z" fill="#1E1D26"/>
</g>
<path d="M33.3667 33.9334H17.1206C16.4588 33.9334 15.8364 33.634 15.4267 33.1061C15.0249 32.5861 14.8752 31.9321 15.0327 31.294C15.6236 28.8673 16.7897 26.7952 18.4049 25.3061C21.6824 22.2806 27.0085 21.7685 30.7982 24.1321C33.2721 25.6685 35.0212 28.4025 35.4861 31.4437C35.5806 32.074 35.3994 32.7121 34.9897 33.1928C34.58 33.6655 33.9891 33.9334 33.3667 33.9334ZM25.4327 23.7776C23.1479 23.7776 20.8552 24.5891 19.1691 26.1412C17.7194 27.4806 16.6715 29.3558 16.1279 31.5697C16.057 31.8612 16.12 32.1685 16.317 32.4128C16.5139 32.6649 16.8055 32.8067 17.1206 32.8067H33.3745C33.6739 32.8067 33.9418 32.6806 34.1309 32.46C34.3279 32.2315 34.4145 31.9243 34.3673 31.6249C33.9497 28.9067 32.3976 26.4721 30.1994 25.1012C28.7733 24.2031 27.103 23.7776 25.4327 23.7776Z" fill="#1E1D26"/>
<path d="M20.4927 33.8392C20.1855 33.8392 19.9255 33.5871 19.9255 33.2798L19.894 30.081C19.894 29.7659 20.1461 29.5137 20.4533 29.5059H20.4612C20.7685 29.5059 21.0285 29.758 21.0285 30.0653L21.06 33.264C21.06 33.5792 20.8079 33.8392 20.4927 33.8392Z" fill="#1E1D26"/>
<path d="M30.0182 33.8392C29.7109 33.8392 29.4509 33.5871 29.4509 33.2798L29.4194 30.081C29.4194 29.7659 29.6715 29.5137 29.9788 29.5059H29.9867C30.2939 29.5059 30.5539 29.758 30.5539 30.0653L30.5855 33.264C30.5855 33.5792 30.3333 33.8392 30.0182 33.8392Z" fill="#1E1D26"/>
<path d="M28.3321 21.7687C26.5515 23.9905 23.3212 23.2972 22.0764 21.2487C21.7218 20.6657 21.5327 19.9802 21.5721 19.216C21.7376 16.2063 24.5582 15.1269 26.7091 15.9148C27.2606 16.1117 27.7648 16.4348 28.1745 16.8838C29.3721 18.1917 29.443 20.382 28.3321 21.7687Z" fill="white"/>
<g opacity="0.1">
<path d="M28.3321 21.7689C26.5515 23.9907 23.3212 23.2974 22.0764 21.2489C23.4079 20.8156 24.637 20.0277 25.4957 18.9247C26.1733 18.058 26.583 17.0101 26.7091 15.9229C27.2606 16.1198 27.7648 16.4429 28.1745 16.8919C29.3721 18.1919 29.443 20.3822 28.3321 21.7689Z" fill="#1E1D26"/>
</g>
<path d="M25.4879 23.7069C24.9521 23.7069 24.4006 23.6044 23.857 23.3996C22.0212 22.6984 20.9024 21.0438 21.0049 19.1844C21.1073 17.3644 22.1315 15.9384 23.7546 15.3632C25.4643 14.7566 27.4103 15.2135 28.5921 16.5056C29.9709 18.0105 30.0497 20.5317 28.7733 22.1232C27.9461 23.1553 26.7485 23.7069 25.4879 23.7069ZM25.2909 16.2299C24.9049 16.2299 24.5109 16.2929 24.1327 16.4269C22.943 16.8523 22.2103 17.8766 22.1394 19.2475C22.0449 20.8941 23.2267 21.942 24.2667 22.3438C25.3303 22.7535 26.843 22.722 27.8909 21.4141C28.8364 20.2402 28.7733 18.3808 27.757 17.2699C27.1424 16.6002 26.2285 16.2299 25.2909 16.2299Z" fill="#1E1D26"/>
<path d="M19.5158 28.6863C19.4291 28.6863 19.3345 28.6627 19.2558 28.6075C19.0352 28.4657 18.98 28.1742 19.1218 27.9536C19.6812 27.1027 20.4455 26.3857 21.3358 25.8815C21.5642 25.7554 21.8479 25.8342 21.9818 26.0548C22.1079 26.2833 22.0291 26.5669 21.8085 26.7008C21.0442 27.1342 20.3903 27.7487 19.9097 28.4736C19.823 28.6154 19.6733 28.6863 19.5158 28.6863Z" fill="white"/>
<path d="M23.2109 26.1574C22.9824 26.1574 22.7854 25.992 22.7461 25.7635C22.6988 25.5035 22.8721 25.2592 23.1321 25.2198L23.2818 25.1962C23.5418 25.1568 23.7861 25.3223 23.8254 25.5823C23.8727 25.8423 23.6994 26.0865 23.4394 26.1259L23.2897 26.1495C23.2661 26.1495 23.2424 26.1574 23.2109 26.1574Z" fill="white"/>
<path d="M25.5982 41.2376C21.7927 41.2376 17.9794 39.8745 15.1745 37.2351C10.9279 33.2485 9.54908 27.1582 11.5818 21.3436C13.6067 15.5449 18.4757 11.6449 24.2903 11.1721C30.9873 10.6206 37.6606 15.017 39.8194 21.383C41.9703 27.7491 39.3388 35.2891 33.6897 38.9212C31.263 40.4812 28.4345 41.2376 25.5982 41.2376ZM25.3697 12.2673C25.0388 12.2673 24.7079 12.283 24.377 12.3067C19.0194 12.74 14.5285 16.3485 12.6454 21.7218C10.7624 27.103 12.0309 32.7364 15.9467 36.4079C20.4061 40.5915 27.9224 41.277 33.0673 37.9679C38.2121 34.6588 40.7018 27.5364 38.74 21.7455C36.8806 16.2776 31.137 12.2673 25.3697 12.2673Z" fill="#1E1D26"/>
<path d="M25.8503 13.7875C25.8424 13.7875 25.8267 13.7875 25.8188 13.7875C25.5036 13.7717 25.2673 13.5038 25.283 13.1887L25.4249 10.5887C25.4406 10.2735 25.7164 10.0451 26.0236 10.0529C26.3388 10.0687 26.5752 10.3366 26.5594 10.6517L26.4176 13.2517C26.4018 13.5511 26.1497 13.7875 25.8503 13.7875Z" fill="#1E1D26"/>
<path d="M25.8503 42.5297C25.8424 42.5297 25.8267 42.5297 25.8188 42.5297C25.5036 42.5139 25.2673 42.246 25.283 41.9309L25.4249 39.3309C25.4406 39.0157 25.7164 38.7872 26.0236 38.7951C26.3388 38.8109 26.5752 39.0788 26.5594 39.3939L26.4176 41.9939C26.4018 42.3012 26.1497 42.5297 25.8503 42.5297Z" fill="#1E1D26"/>
<path d="M41.5921 26.9295C41.5842 26.9295 41.5685 26.9295 41.5606 26.9295L38.9606 26.7876C38.6455 26.7719 38.4091 26.504 38.4248 26.1888C38.4406 25.8737 38.7164 25.6373 39.0236 25.6531L41.6236 25.7949C41.9388 25.8107 42.1751 26.0785 42.1594 26.3937C42.1436 26.6931 41.8915 26.9295 41.5921 26.9295Z" fill="#1E1D26"/>
<path d="M12.8424 26.9295C12.8345 26.9295 12.8188 26.9295 12.8109 26.9295L10.2188 26.7876C9.90363 26.7719 9.66727 26.504 9.68303 26.1888C9.69878 25.8737 9.97454 25.6373 10.2818 25.6531L12.8818 25.7949C13.197 25.8107 13.4333 26.0785 13.4176 26.3937C13.3939 26.6931 13.1418 26.9295 12.8424 26.9295Z" fill="#1E1D26"/>
<path d="M45.3897 37.7471C45.3188 37.7471 45.24 37.7313 45.177 37.7077C44.9248 37.6052 44.783 37.3374 44.8382 37.0695C48.0685 21.4537 40.8673 12.4483 33.7055 9.4701L33.4848 9.8798C33.3036 10.2265 32.9491 10.4392 32.5551 10.4471C32.1612 10.4549 31.7988 10.2659 31.5939 9.93495C31.003 9.00525 30.42 8.05192 29.8606 7.1301C29.3091 6.23192 28.7418 5.30222 28.1667 4.38828C27.9697 4.08101 27.9382 3.69495 28.0879 3.35616C28.2376 3.01737 28.5448 2.78101 28.9073 2.71798C30.0261 2.52889 31.3339 2.27676 32.5945 2.02464C33.7921 1.78828 35.0291 1.54404 36.1164 1.36283C36.5339 1.29192 36.9436 1.45737 37.1958 1.80404C37.44 2.1507 37.4715 2.5998 37.2667 2.9701L36.9042 3.63192C46.1303 8.78464 51.2358 19.8622 49.0455 29.9786C48.4782 32.618 47.4067 35.1392 45.8703 37.4871C45.76 37.6604 45.5788 37.7471 45.3897 37.7471ZM33.6897 8.32767C33.8315 8.32767 33.9655 8.35131 34.0994 8.40646C41.1588 11.3216 48.2733 19.7204 46.4848 34.044C47.1309 32.6574 47.6115 31.2156 47.9345 29.7422C49.9909 20.2483 44.9958 9.43858 36.3212 4.60889C35.8012 4.31737 35.6042 3.65555 35.8879 3.12767L36.2345 2.49737C35.1788 2.67858 33.9733 2.91495 32.8151 3.14343C31.5624 3.38767 30.2703 3.64767 29.1515 3.82889C29.7267 4.73495 30.2861 5.64889 30.8297 6.53919C31.3812 7.43737 31.9485 8.36707 32.5236 9.27313L32.7364 8.89495C32.9255 8.5404 33.3036 8.32767 33.6897 8.32767Z" fill="#1E1D26"/>
<path d="M15.6945 50.6527C15.3479 50.6527 15.017 50.4873 14.8121 50.1957C14.56 49.8491 14.5364 49.4 14.7412 49.0297L15.1036 48.3679C5.87757 43.2073 0.772119 32.1297 2.96242 22.0133C3.5297 19.3739 4.60121 16.8527 6.13757 14.5048C6.28727 14.2764 6.57879 14.1897 6.83091 14.2921C7.08303 14.3945 7.22485 14.6624 7.1697 14.9303C3.93939 30.5461 11.1406 39.5515 18.3024 42.5297L18.523 42.12C18.7042 41.7733 19.0588 41.5606 19.4527 41.5527C19.8467 41.537 20.2091 41.7339 20.4139 42.0648C21.0048 42.9945 21.5879 43.9479 22.1473 44.8697C22.6988 45.7679 23.2661 46.6976 23.8412 47.6115C24.0382 47.9188 24.0697 48.3048 23.92 48.6436C23.7703 48.9824 23.463 49.2188 23.1006 49.2818C21.9818 49.4709 20.6739 49.723 19.4133 49.9751C18.2158 50.2115 16.9788 50.4557 15.8915 50.637C15.8206 50.6448 15.7576 50.6527 15.6945 50.6527ZM5.51515 17.9479C4.86909 19.3345 4.38848 20.7764 4.06545 22.2497C2.00909 31.7515 7.00424 42.5533 15.6788 47.3909C16.1988 47.6824 16.3958 48.3442 16.1121 48.8721L15.7655 49.5024C16.8212 49.3212 18.0267 49.0848 19.1848 48.8564C20.4376 48.6121 21.7297 48.3521 22.8485 48.1709C22.2733 47.2648 21.7139 46.3509 21.1703 45.4606C20.6188 44.5624 20.0515 43.6327 19.4764 42.7267L19.2636 43.1048C18.9879 43.6012 18.397 43.8061 17.8848 43.5933C10.8412 40.6782 3.72666 32.2794 5.51515 17.9479Z" fill="#1E1D26"/>
</svg>
