<svg width="52" height="52" viewBox="0 0 52 52" fill="none" xmlns="http://www.w3.org/2000/svg">
<path d="M33.3438 43.6083C33.3787 33.895 33.3158 18.1398 33.3507 8.4195C33.3577 6.25866 31.6095 4.50342 29.4487 4.50342H12.4207C10.2668 4.50342 8.52558 6.23768 8.51858 8.39153C8.48362 18.1048 8.53956 33.8601 8.5046 43.5803C8.49761 45.7412 10.2459 47.4964 12.4067 47.4964H29.4347C31.5885 47.4964 33.3368 45.7622 33.3438 43.6083Z" fill="#1E1D26"/>
<path d="M29.4416 48H12.4137C11.2319 48 10.12 47.5385 9.28779 46.7063C8.45563 45.8741 8.00108 44.7622 8.00108 43.5804C8.02206 38.7273 8.01507 32.2587 8.00807 26C8.00108 19.7343 7.99409 13.2517 8.00807 8.39161C8.01507 5.97203 9.99409 4 12.4137 4H29.4486C30.6305 4 31.7423 4.46154 32.5745 5.29371C33.4067 6.12587 33.8612 7.23776 33.8612 8.41958C33.8472 13.2727 33.8542 19.7343 33.8542 25.979C33.8612 32.2517 33.8682 38.7413 33.8472 43.6084C33.8402 46.035 31.8612 48 29.4416 48ZM12.4207 5.00699C10.5535 5.00699 9.02905 6.52448 9.02206 8.39161C9.00108 13.2587 9.00807 19.7343 9.01507 26C9.02206 32.2587 9.02905 38.7273 9.00807 43.5874C9.00807 44.4965 9.35773 45.3497 10.0011 45.993C10.6444 46.6364 11.4976 46.993 12.4137 46.993H29.4416C31.3088 46.993 32.8332 45.4755 32.8402 43.6084C32.8542 38.7413 32.8472 32.2587 32.8472 25.986C32.8402 19.7343 32.8332 13.2727 32.8542 8.41958C32.8542 7.51049 32.5046 6.65734 31.8612 6.01399C31.2179 5.37063 30.3647 5.01399 29.4486 5.01399H12.4207V5.00699Z" fill="#1E1D26"/>
<path d="M34.0221 43.6083C34.0151 45.7622 32.2668 47.4964 30.12 47.4964H13.092C10.9311 47.4964 9.18289 45.7412 9.18989 43.5803C9.19688 41.2936 9.19688 38.6712 9.19688 35.874C9.19688 26.7831 9.16891 15.8181 9.19688 8.39153C9.20387 6.23768 10.9521 4.50342 13.099 4.50342H30.1269C30.2039 4.50342 30.2808 4.50342 30.3507 4.51041C32.4067 4.62929 34.036 6.33559 34.029 8.4195C33.9941 18.1468 34.057 33.895 34.0221 43.6083Z" fill="white"/>
<path d="M23.4906 28.0562L24.1899 39.3289C24.2318 40.0492 23.6934 40.6785 22.9731 40.7345L21.6794 40.8394C20.9381 40.8953 20.2948 40.3359 20.2528 39.6016L19.5605 28.3778" fill="#3D68F8"/>
<g opacity="0.1">
<path d="M34.0221 43.6086C34.0151 45.7625 32.2668 47.4968 30.12 47.4968H13.092C10.9312 47.4968 9.18291 45.7415 9.1899 43.5807C9.19689 41.294 9.19689 38.6716 9.19689 35.8744C10.9102 36.5667 12.7074 37.0492 14.5465 37.1191C17.6235 37.231 20.8962 35.9793 22.5256 33.3709C23.4976 31.8184 23.8402 29.9093 24.9451 28.4478C26.1689 26.8394 28.1829 25.9793 29.3857 24.3569C30.7284 22.5597 30.8472 20.1611 30.8612 17.9093C30.8962 13.4338 30.7214 8.95829 30.3437 4.51074C32.3997 4.62962 34.0291 6.33592 34.0221 8.41983C33.9941 18.1471 34.057 33.8954 34.0221 43.6086Z" fill="#1E1D26"/>
</g>
<path d="M30.1199 48H13.092C11.9101 48 10.7982 47.5385 9.96608 46.7063C9.13391 45.8741 8.67937 44.7622 8.67937 43.5804C8.70034 38.7273 8.69335 32.2587 8.68636 26C8.67937 19.7343 8.67237 13.2517 8.68636 8.39161C8.69335 5.97203 10.6724 4 13.092 4H30.1199C31.3017 4 32.4136 4.46154 33.2458 5.29371C34.078 6.12587 34.5325 7.23776 34.5325 8.41958C34.5185 13.2727 34.5255 19.7343 34.5255 25.979C34.5325 32.2517 34.5395 38.7413 34.5185 43.6084C34.5185 46.035 32.5395 48 30.1199 48ZM13.0989 5.00699C11.2318 5.00699 9.70734 6.52448 9.70034 8.39161C9.67937 13.2587 9.68636 19.7343 9.69335 26C9.70034 32.2587 9.70734 38.7273 9.68636 43.5804C9.68636 44.4895 10.036 45.3427 10.6794 45.986C11.3227 46.6294 12.1759 46.986 13.092 46.986H30.1199C31.9871 46.986 33.5115 45.4685 33.5185 43.6014C33.5325 38.7343 33.5255 32.2517 33.5255 25.979C33.5185 19.7273 33.5115 13.2657 33.5325 8.41259C33.5325 7.5035 33.1829 6.65035 32.5395 6.00699C31.8961 5.36364 31.043 5.00699 30.1269 5.00699H13.0989Z" fill="#1E1D26"/>
<path d="M26.099 8.21687H17.12C16.4626 8.21687 15.8612 7.82526 15.5955 7.22386L14.4976 4.71337C14.3857 4.46162 14.5046 4.16093 14.7563 4.04904C15.0151 3.93715 15.3088 4.05603 15.4207 4.30778L16.5186 6.81827C16.6235 7.05603 16.8612 7.20988 17.12 7.20988H26.099C26.3577 7.20988 26.5955 7.05603 26.7004 6.81827L27.7983 4.30778C27.9102 4.05603 28.2039 3.93715 28.4626 4.04904C28.7144 4.16093 28.8333 4.45463 28.7214 4.71337L27.6235 7.22386C27.3577 7.82526 26.7563 8.21687 26.099 8.21687Z" fill="#1E1D26"/>
<path d="M28.2598 4.50342L27.1619 7.01391C26.9801 7.43349 26.5605 7.70622 26.099 7.70622H21.6025H21.6095H17.113C16.6514 7.70622 16.2389 7.43349 16.0501 7.01391L14.9521 4.50342" fill="#1E1D26"/>
<path d="M23.1829 6.54557H17.5815C17.3018 6.54557 17.078 6.32179 17.078 6.04207C17.078 5.76235 17.3018 5.53857 17.5815 5.53857H23.1829C23.4626 5.53857 23.6864 5.76235 23.6864 6.04207C23.6864 6.32179 23.4556 6.54557 23.1829 6.54557Z" fill="white"/>
<path d="M39.7773 32.9862C33.7982 28.7694 26.1759 28.224 19.1339 29.0351C17.4276 29.2309 15.9101 27.9582 15.7773 26.2449L15.3787 21.217C15.2458 19.5107 16.5465 18.0072 18.2598 17.9372C25.3437 17.6365 32.2738 15.7205 37.5185 10.6226" fill="#1E1D26"/>
<path d="M39.7703 33.4897C39.6724 33.4897 39.5675 33.4618 39.4836 33.3988C34.4696 29.8604 27.6375 28.5597 19.1899 29.5387C18.2389 29.6506 17.3018 29.3709 16.5605 28.7625C15.8053 28.1401 15.3507 27.266 15.2738 26.2939L14.8752 21.266C14.7983 20.2939 15.113 19.3569 15.7563 18.6226C16.3927 17.9023 17.2738 17.4827 18.2319 17.4408C26.2528 17.0981 32.6235 14.6855 37.1619 10.266C37.3577 10.0702 37.6794 10.0772 37.8752 10.273C38.071 10.4758 38.064 10.7904 37.8682 10.9862C33.148 15.5806 26.5535 18.0911 18.2808 18.4478C17.5955 18.4758 16.9731 18.7765 16.5186 19.2939C16.057 19.8184 15.8263 20.4897 15.8822 21.189L16.2808 26.217C16.3368 26.9163 16.6654 27.5457 17.2039 27.9862C17.7354 28.4198 18.3997 28.6226 19.078 28.5457C27.7843 27.5387 34.8473 28.9023 40.071 32.5876C40.3018 32.7485 40.3507 33.0632 40.1899 33.2869C40.085 33.4128 39.9312 33.4897 39.7703 33.4897Z" fill="#1E1D26"/>
<path d="M42.05 16.6361C43.4137 16.5242 44.8053 17.1956 45.5745 18.3284C46.3438 19.4543 46.4486 20.9998 45.8473 22.2305C45.2459 23.4543 43.9591 24.3145 42.5955 24.3984" fill="white"/>
<path d="M43.078 31.8463L41.4276 8.93724C41.3577 7.94423 40.4906 7.20298 39.4976 7.2799C38.5185 7.35682 37.7773 8.20997 37.8472 9.19598L39.4976 32.1051C39.5675 33.0981 40.4346 33.8393 41.4276 33.7624C42.4137 33.6855 43.1479 32.8323 43.078 31.8463Z" fill="#FFC94D"/>
<path d="M39.2948 32.5666C35.099 29.6015 30.3228 28.3288 25.4137 28.119C25.3368 28.119 25.2598 28.112 25.1829 28.112C23.1759 28.0351 21.148 28.133 19.127 28.3708C17.4207 28.5666 15.9032 27.2938 15.7703 25.5805L15.3717 20.5526C15.3438 20.1749 15.3787 19.8043 15.4836 19.4617C15.8333 18.2519 16.9242 17.3288 18.2529 17.2729C20.3647 17.1819 22.4696 16.9442 24.5186 16.5246C28.8822 15.6295 33.0081 13.8882 36.4766 10.8882C36.8263 10.5875 37.1689 10.2798 37.5046 9.95117L39.2948 32.5666Z" fill="#64C682"/>
<path d="M25.4207 28.1188C25.3437 28.1188 25.2668 28.1118 25.1899 28.1118C23.1829 28.0349 21.1549 28.1328 19.1339 28.3706C17.4276 28.5664 15.9102 27.2936 15.7773 25.5804L15.3787 20.5524C15.3507 20.1748 15.3857 19.8041 15.4906 19.4615C15.8402 18.2517 16.9311 17.3286 18.2598 17.2727C20.3717 17.1818 22.4766 16.944 24.5255 16.5244L25.4207 28.1188Z" fill="white"/>
<g opacity="0.1">
<path d="M39.3018 32.5664C33.3228 28.3496 26.1759 27.5524 19.1339 28.3636C17.4346 28.5594 15.9102 27.2867 15.7773 25.5734L15.3787 20.5454C15.3507 20.1678 15.3857 19.7972 15.4906 19.4545C17.057 21.7202 19.5046 23.3776 22.2039 23.944C24.4137 24.4126 26.7144 24.1748 28.9591 23.944C30.4766 23.7832 32.1339 23.5524 33.1409 22.4056C33.6374 21.8391 33.9032 21.1188 34.1619 20.4195C34.3647 19.8741 34.5605 19.3286 34.7633 18.7902C35.1969 17.6154 35.6235 16.4405 35.9311 15.2307C36.2878 13.8181 36.4766 12.3566 36.4906 10.9021C36.8402 10.6014 37.1829 10.2867 37.5186 9.95801L39.3018 32.5664Z" fill="#1E1D26"/>
</g>
<path d="M23.8333 44.9582H19.3787C19.099 44.9582 18.8752 44.7344 18.8752 44.4547C18.8752 44.1749 19.099 43.9512 19.3787 43.9512H23.8333C24.113 43.9512 24.3368 44.1749 24.3368 44.4547C24.3368 44.7344 24.113 44.9582 23.8333 44.9582Z" fill="#1E1D26"/>
<path d="M39.3018 33.0701C39.2039 33.0701 39.099 33.0421 39.015 32.9792C33.8402 29.3288 27.1689 27.9442 19.1969 28.8673C18.2458 28.9792 17.3088 28.6995 16.5675 28.0911C15.8123 27.4687 15.3577 26.5946 15.2808 25.6225L14.8822 20.5946C14.8053 19.6225 15.1199 18.6855 15.7633 17.9512C16.3997 17.2309 17.2808 16.8114 18.2388 16.7694C26.2598 16.4267 32.6304 14.0142 37.1689 9.59458C37.3647 9.39877 37.6864 9.40576 37.8822 9.60157C38.078 9.80437 38.071 10.1191 37.8752 10.3149C33.1549 14.9093 26.5605 17.4197 18.2878 17.7764C17.6025 17.8044 16.9801 18.1051 16.5255 18.6225C16.064 19.147 15.8332 19.8184 15.8892 20.5177L16.2878 25.5456C16.3437 26.2449 16.6724 26.8743 17.2109 27.3149C17.7423 27.7554 18.4067 27.9512 19.085 27.8743C27.3018 26.9093 34.2039 28.3568 39.5885 32.154C39.8192 32.3149 39.8682 32.6295 39.7074 32.8533C39.6164 32.9932 39.4556 33.0701 39.3018 33.0701Z" fill="#1E1D26"/>
<path d="M41.2878 34.2729C40.7424 34.2729 40.2179 34.0771 39.7913 33.7205C39.3228 33.3219 39.0431 32.7554 39.0011 32.1471L37.3508 9.23097C37.2599 7.97923 38.2039 6.87433 39.4627 6.77643C40.0781 6.72748 40.6725 6.92328 41.141 7.32188C41.6095 7.72048 41.8892 8.28692 41.9312 8.89531L43.5815 31.8044C43.6725 33.0561 42.7284 34.161 41.4697 34.2589C41.4137 34.2729 41.3508 34.2729 41.2878 34.2729ZM39.6445 7.77643C39.6095 7.77643 39.5746 7.77643 39.5396 7.78342C38.8333 7.83936 38.3018 8.45475 38.3578 9.16104L40.0081 32.0701C40.0361 32.4128 40.1899 32.7275 40.4557 32.9582C40.7214 33.182 41.0501 33.2939 41.3997 33.2659C42.106 33.21 42.6375 32.5946 42.5815 31.8883L40.9242 8.97223C40.8962 8.62957 40.7424 8.31489 40.4767 8.08412C40.2459 7.88832 39.9522 7.77643 39.6445 7.77643Z" fill="#1E1D26"/>
<path d="M25.2668 28.5247C25.0011 28.5247 24.7843 28.3219 24.7633 28.0562C24.6234 26.0632 24.5046 24.203 24.3787 22.3429C24.2528 20.4827 24.1339 18.6226 23.9941 16.6366C23.9731 16.3569 24.1829 16.1191 24.4626 16.0981C24.7423 16.0771 24.9801 16.2869 25.0011 16.5667C25.1409 18.5597 25.2598 20.4198 25.3857 22.2799C25.5115 24.1401 25.6304 26.0002 25.7703 27.9862C25.7913 28.266 25.5815 28.5037 25.3018 28.5247C25.2948 28.5247 25.2808 28.5247 25.2668 28.5247Z" fill="#1E1D26"/>
<path d="M42.5955 24.8953C42.3297 24.8953 42.1129 24.6925 42.092 24.4197C42.078 24.14 42.2878 23.9023 42.5605 23.8883C43.7353 23.8183 44.8752 23.0561 45.3927 22.0002C45.9101 20.9442 45.8122 19.5806 45.1549 18.6016C44.4976 17.6225 43.2528 17.0351 42.085 17.133C41.8052 17.154 41.5675 16.9512 41.5395 16.6715C41.5185 16.3918 41.7213 16.154 42.0011 16.126C43.5535 16.0002 45.1129 16.7484 45.9871 18.0351C46.8612 19.3218 46.9801 21.0491 46.3018 22.4407C45.6164 23.8323 44.1759 24.7974 42.6304 24.8883C42.6164 24.8953 42.6094 24.8953 42.5955 24.8953Z" fill="#1E1D26"/>
<path d="M21.5606 41.3358C21.12 41.3358 20.7004 41.1819 20.3648 40.8882C19.9941 40.5666 19.7704 40.112 19.7354 39.6225L19.0431 28.3987C19.0291 28.119 19.2389 27.8812 19.5116 27.8673C19.7843 27.8533 20.0291 28.0631 20.0431 28.3358L20.7354 39.5596C20.7494 39.7833 20.8473 39.9861 21.0151 40.126C21.1829 40.2729 21.3927 40.3428 21.6165 40.3218L22.9102 40.2169C23.3578 40.1819 23.6934 39.7903 23.6655 39.3498L22.9662 28.0771C22.9522 27.7973 23.162 27.5596 23.4347 27.5456C23.7144 27.5316 23.9522 27.7414 23.9662 28.0141L24.6655 39.2868C24.7284 40.2799 23.9732 41.147 22.9801 41.2239L21.6864 41.3288C21.6585 41.3358 21.6095 41.3358 21.5606 41.3358Z" fill="#1E1D26"/>
<path d="M45.3647 14.846C45.2389 14.846 45.113 14.797 45.0221 14.7061C44.8193 14.5173 44.8123 14.1956 45.0011 13.9928L46.127 12.804C46.3158 12.6012 46.6375 12.5942 46.8403 12.783C47.0431 12.9718 47.0501 13.2935 46.8613 13.4963L45.7354 14.6851C45.6305 14.797 45.4976 14.846 45.3647 14.846Z" fill="#1E1D26"/>
<path d="M48.6095 18.7694C48.3927 18.7694 48.1899 18.6295 48.127 18.4127C48.043 18.147 48.1969 17.8673 48.4626 17.7834L49.2948 17.5316C49.5605 17.4547 49.8402 17.6016 49.9242 17.8673C50.0081 18.133 49.8542 18.4127 49.5885 18.4967L48.7563 18.7484C48.7074 18.7624 48.6514 18.7694 48.6095 18.7694Z" fill="#1E1D26"/>
<path d="M50.113 24.0837C50.078 24.0837 50.0431 24.0837 50.0151 24.0767L48.4626 23.7621C48.1899 23.7061 48.0151 23.4404 48.071 23.1677C48.127 22.8949 48.3927 22.7201 48.6654 22.776L50.2179 23.0907C50.4906 23.1467 50.6654 23.4124 50.6095 23.6851C50.5605 23.9229 50.3507 24.0837 50.113 24.0837Z" fill="#1E1D26"/>
<path d="M46.8123 27.8667C46.6864 27.8667 46.5536 27.8178 46.4557 27.7199L45.6584 26.9297C45.4626 26.7339 45.4626 26.4122 45.6584 26.2164C45.8543 26.0206 46.1759 26.0136 46.3717 26.2164L47.1689 27.0066C47.3647 27.2024 47.3647 27.5241 47.1689 27.7199C47.071 27.8178 46.9382 27.8667 46.8123 27.8667Z" fill="#1E1D26"/>
<path d="M28.3577 19.3563C28.085 19.3563 27.8123 19.3423 27.5395 19.3143C27.3088 19.2934 27.1409 19.0836 27.1619 18.8528C27.1829 18.622 27.3927 18.4542 27.6235 18.4752C29.6095 18.664 31.6444 18.0696 33.2039 16.8458C33.3857 16.6989 33.6514 16.7339 33.7913 16.9157C33.9312 17.0976 33.9032 17.3633 33.7214 17.5031C32.2039 18.6989 30.2878 19.3563 28.3577 19.3563Z" fill="white"/>
<path d="M35.1269 16.245C35.022 16.245 34.9101 16.203 34.8332 16.1191C34.6724 15.9583 34.6724 15.6925 34.8332 15.5247L34.9031 15.4478C35.071 15.2869 35.3367 15.2869 35.4975 15.4478C35.6584 15.6156 35.6584 15.8813 35.4975 16.0422L35.4206 16.1191C35.3367 16.203 35.2318 16.245 35.1269 16.245Z" fill="white"/>
</svg>
