<svg width="52" height="52" viewBox="0 0 52 52" fill="none" xmlns="http://www.w3.org/2000/svg">
<path d="M47.9734 42.835L47.959 41.9947C47.9517 41.6035 47.633 41.292 47.2418 41.292H4.23908C3.84063 41.292 3.52188 41.618 3.52188 42.0164L3.53637 42.9872C3.57984 45.4792 5.60827 47.4787 8.10034 47.4787H43.4022C45.9595 47.4787 48.0169 45.3851 47.9734 42.835Z" fill="#1E1D26"/>
<path d="M43.4095 47.9999H8.10034C5.34022 47.9999 3.05824 45.7542 3.01478 42.994L3.00029 42.0233C2.99304 41.6901 3.12344 41.3785 3.35526 41.1395C3.58708 40.9004 3.89859 40.77 4.23908 40.77H47.249C47.9155 40.77 48.4733 41.3133 48.4806 41.9871L48.495 42.8274C48.5168 44.2039 48.0024 45.5006 47.0389 46.4786C46.0682 47.4566 44.7787 47.9999 43.4095 47.9999ZM4.23908 41.8132C4.16663 41.8132 4.12317 41.8494 4.10143 41.8712C4.0797 41.8929 4.04348 41.9364 4.04348 42.0088L4.05797 42.9796C4.09419 45.1746 5.91253 46.9567 8.10034 46.9567H43.4022C44.4961 46.9567 45.5176 46.5293 46.2855 45.7469C47.0534 44.9645 47.4663 43.9358 47.4446 42.8419L47.4301 42.0016C47.4301 41.9001 47.3432 41.8132 47.2345 41.8132H4.23908Z" fill="#1E1D26"/>
<path d="M45.9668 12.8214L45.9088 40.5964H5.52858L5.55031 29.7588L5.58653 12.8142C5.58653 11.2783 6.83257 10.0396 8.36114 10.0396H43.1777C44.1339 10.0396 44.9743 10.5249 45.4741 11.2566C45.7856 11.6985 45.9668 12.2418 45.9668 12.8214Z" fill="white"/>
<path d="M10.462 37.1192C9.65788 37.1192 9.00589 36.4672 9.00589 35.6631L9.02038 29.7662L9.0566 14.9586C9.0566 14.1545 9.7086 13.5098 10.5127 13.5098H41.0333C41.8375 13.5098 42.4895 14.1618 42.4895 14.9659L42.446 35.6704C42.446 36.4745 41.794 37.1192 40.9899 37.1192H10.462Z" fill="#95CBFC"/>
<path d="M40.9899 37.6404H10.462C9.93316 37.6404 9.4333 37.4376 9.06383 37.0609C8.68713 36.6842 8.48428 36.1916 8.48428 35.6627L8.52775 14.9583C8.52775 13.8716 9.41881 12.9878 10.5055 12.9878H41.0333C41.5622 12.9878 42.062 13.1906 42.4315 13.5673C42.8082 13.9441 43.011 14.4367 43.011 14.9655L42.9676 35.67C42.9603 36.7566 42.0765 37.6404 40.9899 37.6404ZM10.5127 14.031C9.99836 14.031 9.57819 14.4512 9.57819 14.9655L9.53472 35.67C9.53472 35.9163 9.6289 36.1553 9.81001 36.3292C9.98387 36.5031 10.2229 36.6045 10.4692 36.6045H40.9899C41.5042 36.6045 41.9244 36.1843 41.9244 35.67L41.9678 14.9655C41.9678 14.712 41.8737 14.4801 41.6926 14.3063C41.5187 14.1324 41.2796 14.031 41.0333 14.031H10.5127Z" fill="#1E1D26"/>
<g opacity="0.1">
<path d="M45.9668 12.8212L45.9088 40.5962H5.52858L5.55031 29.7586C9.04211 32.1782 13.1569 33.714 17.3876 34.1125C23.8424 34.7138 30.5072 32.6564 35.4986 28.5126C39.7438 24.9845 42.7285 21.4493 44.3513 16.1754C44.8439 14.5671 45.2206 12.9226 45.4814 11.2637C45.7856 11.6983 45.9668 12.2417 45.9668 12.8212Z" fill="#1E1D26"/>
</g>
<path d="M45.9016 41.1108H5.52858C5.39094 41.1108 5.26054 41.0528 5.15912 40.9586C5.0577 40.8572 5.00699 40.7268 5.00699 40.5892L5.06494 12.8069C5.06494 10.9886 6.55004 9.51074 8.36839 9.51074H43.1849C44.0687 9.51074 44.8946 9.85123 45.5176 10.4815C46.1406 11.1045 46.4811 11.9376 46.4811 12.8214L46.4232 40.5892C46.4232 40.8789 46.1913 41.1108 45.9016 41.1108ZM6.05018 40.0676H45.3872L45.4452 12.8142C45.4452 12.2129 45.2133 11.6406 44.7859 11.2132C44.3585 10.7858 43.7934 10.5467 43.1849 10.5467H8.36114C7.11511 10.5467 6.10814 11.5609 6.10089 12.7997L6.05018 40.0676Z" fill="#1E1D26"/>
<path d="M47.9734 42.1397L47.959 41.2994C47.9517 40.9082 47.633 40.5967 47.2418 40.5967H4.23908C3.84063 40.5967 3.52188 40.9227 3.52188 41.3211L3.53637 42.2919C3.57984 44.7839 5.60827 46.7834 8.10034 46.7834H43.4022C45.9595 46.7834 48.0169 44.697 47.9734 42.1397Z" fill="#64C682"/>
<path d="M43.4095 47.3047H8.10034C5.34022 47.3047 3.05824 45.0589 3.01478 42.2988L3.00029 41.3353C2.99304 41.0021 3.12344 40.6833 3.35526 40.4515C3.58708 40.2124 3.89859 40.082 4.23908 40.082H47.249C47.9155 40.082 48.4733 40.6254 48.4806 41.2991L48.495 42.1394C48.5168 43.5159 48.0024 44.8126 47.0389 45.7906C46.0682 46.7686 44.7787 47.3047 43.4095 47.3047ZM4.23908 41.118C4.16663 41.118 4.12317 41.1542 4.10143 41.1759C4.0797 41.1977 4.04348 41.2411 4.04348 41.3136L4.05797 42.2843C4.09419 44.4794 5.91253 46.2615 8.10034 46.2615H43.4022C44.4961 46.2615 45.5176 45.8341 46.2855 45.0517C47.0534 44.2693 47.4663 43.2406 47.4446 42.1467L47.4301 41.3063C47.4301 41.2049 47.3432 41.118 47.2345 41.118H4.23908Z" fill="#1E1D26"/>
<path d="M29.8045 43.987H21.6836C21.3938 43.987 21.162 43.7552 21.162 43.4654C21.162 43.1757 21.3938 42.9438 21.6836 42.9438H29.8045C30.0943 42.9438 30.3261 43.1757 30.3261 43.4654C30.3189 43.7552 30.087 43.987 29.8045 43.987Z" fill="#1E1D26"/>
<path d="M21.0605 25.6509C21.3793 26.7738 22.2486 30.3815 22.8427 32.7504C23.0962 33.7646 22.4804 34.7861 21.4662 35.0396C20.4593 35.2859 19.445 34.6774 19.1915 33.6777C18.583 31.3015 17.6412 27.6214 17.3732 26.5782" fill="#1E1D26"/>
<path d="M21.0098 35.6195C19.9377 35.6195 18.9524 34.895 18.6772 33.8084L18.0396 31.309C17.547 29.382 17.0472 27.426 16.8588 26.7089C16.7864 26.4336 16.953 26.1438 17.2355 26.0713C17.518 25.9989 17.8006 26.1655 17.873 26.4481C18.0541 27.1653 18.5612 29.1285 19.0539 31.0555L19.6914 33.5548C19.8725 34.2792 20.6186 34.7211 21.3358 34.54C21.6908 34.4531 21.9878 34.2358 22.1762 33.917C22.3645 33.6055 22.4225 33.236 22.3283 32.8811C22.1327 32.0914 21.9009 31.1642 21.6763 30.2369C21.2272 28.4185 20.7635 26.535 20.5534 25.7888C20.4738 25.5135 20.6331 25.2238 20.9084 25.1441C21.1837 25.0644 21.4735 25.2238 21.5532 25.499C21.7705 26.2597 22.2341 28.1505 22.6833 29.9833C22.9079 30.9106 23.1397 31.8306 23.3353 32.6203C23.4947 33.2433 23.3932 33.8953 23.06 34.4459C22.7268 34.9964 22.1979 35.3876 21.5749 35.5398C21.3938 35.5977 21.2054 35.6195 21.0098 35.6195Z" fill="#1E1D26"/>
<path d="M20.7925 24.7383C21.1113 25.8612 21.9806 29.4689 22.5746 31.8378C22.8282 32.852 22.2124 33.8735 21.1982 34.127C20.1912 34.3733 19.177 33.7648 18.9235 32.7651C18.3149 30.3889 17.3732 26.7088 17.1051 25.6656" fill="white"/>
<path d="M20.749 34.7064C19.6769 34.7064 18.6916 33.9819 18.4164 32.8953L17.7644 30.338C17.279 28.4327 16.7864 26.5057 16.6053 25.7958C16.5328 25.5205 16.6994 25.2307 16.982 25.1583C17.2645 25.0858 17.547 25.2524 17.6195 25.535C17.8006 26.2449 18.2932 28.1719 18.7858 30.0772L19.4378 32.6345C19.6189 33.3589 20.3578 33.8008 21.0823 33.6197C21.4373 33.5328 21.7343 33.3082 21.9226 32.9967C22.111 32.6852 22.1689 32.3157 22.0748 31.9607C21.8792 31.1711 21.6473 30.2438 21.4228 29.3165C20.9736 27.4982 20.5172 25.6147 20.2999 24.8757C20.2202 24.6004 20.3796 24.3107 20.6549 24.231C20.9302 24.1513 21.2199 24.3107 21.2996 24.586C21.5169 25.3466 21.9589 27.1505 22.4297 29.063C22.6543 29.9903 22.8861 30.9176 23.0817 31.7072C23.2411 32.3302 23.1397 32.9822 22.8065 33.5328C22.4732 34.0834 21.9444 34.4745 21.3213 34.6267C21.1258 34.6846 20.9374 34.7064 20.749 34.7064Z" fill="#1E1D26"/>
<path d="M20.4013 18.6602C20.9881 20.7176 21.3141 22.4562 21.814 24.3977C21.9878 25.0787 21.5749 25.7741 20.8867 25.948L17.2935 26.8318C16.6197 26.9984 15.9315 26.5855 15.7577 25.9118L14.287 20.196" fill="white"/>
<path d="M16.9964 27.3895C16.1996 27.3895 15.4679 26.8462 15.2578 26.0421L13.7872 20.3263C13.7147 20.051 13.8814 19.7612 14.1639 19.6887C14.4392 19.6163 14.729 19.7829 14.8014 20.0655L16.272 25.7813C16.3734 26.1797 16.7791 26.4188 17.1776 26.3246L20.7708 25.4408C20.9664 25.3901 21.133 25.2742 21.2344 25.1003C21.3358 24.9264 21.3648 24.7236 21.3213 24.528C21.1257 23.7528 20.9519 22.9922 20.778 22.2677C20.5245 21.1666 20.2637 20.0292 19.9159 18.8049C19.8362 18.5296 19.9956 18.2399 20.2709 18.1602C20.5462 18.0805 20.836 18.2399 20.9157 18.5152C21.2706 19.7684 21.5387 20.9203 21.7922 22.0287C21.9589 22.7531 22.1327 23.4993 22.3283 24.2672C22.4442 24.7308 22.379 25.2162 22.1327 25.6291C21.8864 26.0421 21.488 26.3319 21.0243 26.4478L17.4311 27.3316C17.279 27.3678 17.1341 27.3895 16.9964 27.3895Z" fill="#1E1D26"/>
<path d="M31.1954 7.9099L35.629 25.3109C35.7087 25.6804 35.7884 26.0426 35.8681 26.4193C31.6156 25.492 27.3632 24.572 23.1107 23.6447L21.0026 15.3571C24.2988 12.5101 27.5877 9.67029 30.8767 6.82324C30.9781 7.19271 31.0868 7.54768 31.1954 7.9099Z" fill="#1E1D26"/>
<path d="M35.8608 26.941C35.8246 26.941 35.7884 26.9337 35.7522 26.9265C31.4997 25.9992 27.2473 25.0792 22.9948 24.1519C22.7992 24.1084 22.6471 23.9635 22.6036 23.7679L20.4955 15.4948C20.4448 15.3065 20.51 15.1036 20.6621 14.9732L30.529 6.43211C30.6594 6.3162 30.8477 6.27998 31.0143 6.32345C31.181 6.37416 31.3186 6.50456 31.3693 6.67118C31.4273 6.85953 31.478 7.04064 31.5359 7.22175C31.5866 7.39562 31.6374 7.57672 31.6953 7.75059C31.6953 7.75783 31.7026 7.76508 31.7026 7.77232L36.1361 25.1733C36.1796 25.3762 36.2231 25.5645 36.2593 25.7457C36.3027 25.934 36.339 26.1151 36.3752 26.3035C36.4114 26.4773 36.3607 26.6584 36.2303 26.7816C36.1289 26.8903 35.9985 26.941 35.8608 26.941ZM23.5309 23.2101C27.4139 24.0505 31.2969 24.8981 35.1799 25.7457C35.1581 25.637 35.1364 25.5356 35.1147 25.4269L30.6883 8.05485C30.6594 7.95343 30.6304 7.85201 30.6014 7.75783L21.5821 15.5456L23.5309 23.2101Z" fill="#1E1D26"/>
<path d="M23.089 23.6006C20.0319 24.47 17.5036 24.9191 14.5479 25.7088C14.048 25.8392 13.5409 25.5421 13.4177 25.0423L11.9254 18.9715C11.7588 18.2905 12.1717 17.5951 12.8527 17.4212L21.0098 15.3203" fill="#1E1D26"/>
<path d="M14.3088 26.2594C14.0552 26.2594 13.8017 26.1942 13.5771 26.0565C13.2439 25.8609 13.0048 25.5422 12.9106 25.1582L11.4183 19.0874C11.1865 18.1312 11.766 17.1532 12.7223 16.9069L20.8794 14.806C21.1547 14.7335 21.4445 14.9002 21.5169 15.1827C21.5894 15.458 21.4228 15.7478 21.1402 15.8202L12.9831 17.9211C12.5774 18.0225 12.3311 18.4354 12.4325 18.8411L13.9248 24.9119C13.9538 25.0133 14.019 25.1003 14.1059 25.1582C14.2001 25.2162 14.3088 25.2307 14.4174 25.2017C15.7577 24.8395 17.0254 24.5497 18.257 24.2672C19.7493 23.9267 21.2851 23.5717 22.9513 23.0936C23.2266 23.0139 23.5164 23.1733 23.5961 23.4485C23.6758 23.7238 23.5164 24.0136 23.2411 24.0933C21.5459 24.5787 19.9956 24.9336 18.4888 25.2814C17.2717 25.5639 16.0112 25.8537 14.6855 26.2087C14.5551 26.2449 14.4319 26.2594 14.3088 26.2594Z" fill="#1E1D26"/>
<path d="M35.8608 25.8832C31.6084 24.9559 27.3559 24.0286 23.1035 23.1086L22.5601 20.9715L20.9954 14.821C24.2481 12.0174 27.4936 9.2066 30.7463 6.39578C30.7898 6.35955 30.8332 6.32333 30.8695 6.28711C30.9781 6.64933 31.0795 7.01155 31.1882 7.37377L35.6218 24.7748C35.7015 25.1515 35.7812 25.5137 35.8608 25.8832Z" fill="white"/>
<g opacity="0.1">
<path d="M35.8608 25.8826C31.6084 24.9553 27.3559 24.028 23.1035 23.108L22.5601 20.9709C23.002 20.8912 23.4439 20.7971 23.8641 20.6956C25.2043 20.3841 26.5373 20.0654 27.8775 19.7466C28.6309 19.5728 29.4278 19.3699 29.9639 18.8048C30.6811 18.0442 30.6883 16.8706 30.4927 15.8419C30.2971 14.8204 29.9422 13.7917 30.0726 12.7558C30.174 11.9734 30.5434 11.2634 30.7608 10.51C31.152 9.17705 31.0723 7.75715 30.739 6.38796C30.7825 6.35174 30.826 6.31552 30.8622 6.2793C30.9709 6.64152 31.0723 7.00374 31.181 7.36596L35.6145 24.767C35.7015 25.1509 35.7811 25.5131 35.8608 25.8826Z" fill="#1E1D26"/>
</g>
<path d="M38.6427 25.6799L33.4122 5.14204C33.2963 4.70013 32.8472 4.43209 32.4052 4.54076L31.391 4.80156C30.9491 4.91747 30.6811 5.36662 30.7898 5.80853L36.0202 26.3464C36.1361 26.7883 36.5853 27.0563 37.0272 26.9477L38.0414 26.6869C38.4905 26.5709 38.7586 26.1218 38.6427 25.6799Z" fill="#FFC94D"/>
<path d="M23.089 23.0577C20.0319 23.927 17.5036 24.3762 14.5479 25.1658C14.048 25.3034 13.5409 24.9992 13.4105 24.4993L12.773 21.9131L11.9181 18.4285C11.7515 17.7403 12.1644 17.0521 12.8454 16.8782L20.3361 14.9512L21.0098 14.7773L23.089 23.0577Z" fill="#3D68F8"/>
<path d="M35.1581 11.7561C36.3824 11.7127 37.614 12.3067 38.3384 13.2992C39.0629 14.2917 39.2584 15.6464 38.8528 16.7982C38.5413 17.6748 37.8096 18.4644 36.8895 18.5514" fill="white"/>
<path d="M35.8608 26.4048C35.8246 26.4048 35.7884 26.3976 35.7522 26.3904C31.4997 25.4631 27.2473 24.543 22.9948 23.6158C22.7992 23.5723 22.6471 23.4274 22.6036 23.2318L20.4955 14.9442C20.4448 14.7559 20.51 14.553 20.6621 14.4226L30.529 5.89598C30.6594 5.78007 30.8477 5.74385 31.0143 5.78731C31.181 5.83802 31.3186 5.96842 31.3693 6.13504C31.4273 6.3234 31.478 6.50451 31.5359 6.68562C31.5866 6.85948 31.6374 7.04059 31.6953 7.21446C31.6953 7.2217 31.7026 7.22895 31.7026 7.23619L36.1361 24.6372C36.1796 24.8401 36.2231 25.0284 36.2593 25.2095C36.3027 25.3979 36.339 25.579 36.3752 25.7673C36.4114 25.9412 36.3607 26.1223 36.2303 26.2455C36.1289 26.3541 35.9985 26.4048 35.8608 26.4048ZM23.5309 22.674C27.4139 23.5143 31.2969 24.3619 35.1799 25.2095C35.1581 25.1009 35.1364 24.9994 35.1147 24.8908L30.6883 7.51148C30.6594 7.41006 30.6304 7.30863 30.6014 7.21446L21.5821 15.0094L23.5309 22.674Z" fill="#1E1D26"/>
<path d="M36.8243 27.4911C36.5853 27.4911 36.3462 27.4259 36.1361 27.3028C35.8246 27.1217 35.6073 26.8247 35.5203 26.4769L30.2899 5.93908C30.1088 5.22189 30.5434 4.48296 31.2606 4.30185L32.2748 4.04105C32.9993 3.85994 33.731 4.29461 33.9121 5.01905L39.1425 25.5496C39.3236 26.2668 38.889 27.0058 38.1718 27.1869L37.1576 27.4477C37.0417 27.4767 36.933 27.4911 36.8243 27.4911ZM32.6153 5.04078C32.5936 5.04078 32.5646 5.04078 32.5429 5.04802L31.5287 5.30882C31.3621 5.35229 31.2679 5.51891 31.3041 5.67828L36.5346 26.2161C36.5563 26.2958 36.607 26.361 36.6722 26.4045C36.7446 26.4479 36.8243 26.4552 36.904 26.4407L37.9182 26.1799C38.0848 26.1364 38.179 25.9698 38.1428 25.8032L32.9124 5.2726C32.8761 5.13496 32.753 5.04078 32.6153 5.04078Z" fill="#1E1D26"/>
<path d="M14.3088 25.7232C14.0552 25.7232 13.8017 25.658 13.5771 25.5204C13.2439 25.3248 13.0048 25.006 12.9106 24.6221L11.4183 18.5513C11.1865 17.595 11.766 16.617 12.7223 16.3707L20.8794 14.2698C21.1547 14.1974 21.4445 14.364 21.5169 14.6466C21.5894 14.9218 21.4228 15.2116 21.1402 15.2841L12.9831 17.3849C12.5774 17.4864 12.3311 17.8993 12.4325 18.305L13.9248 24.3758C13.9538 24.4772 14.019 24.5641 14.1059 24.6221C14.2001 24.68 14.3088 24.6945 14.4174 24.6655C15.7577 24.3033 17.0254 24.0136 18.257 23.731C19.7493 23.3905 21.2851 23.0356 22.9513 22.5574C23.2266 22.4777 23.5164 22.6371 23.5961 22.9124C23.6758 23.1877 23.5164 23.4775 23.2411 23.5572C21.5459 24.0425 19.9956 24.3975 18.4888 24.7452C17.2717 25.0278 16.0112 25.3175 14.6855 25.6725C14.5551 25.7087 14.4319 25.7232 14.3088 25.7232Z" fill="#1E1D26"/>
<path d="M36.8895 19.073C36.6215 19.073 36.3969 18.8702 36.3679 18.5949C36.3462 18.3051 36.5563 18.0588 36.8388 18.0298C37.5633 17.9646 38.1283 17.2764 38.3602 16.6244C38.7151 15.6392 38.5413 14.4511 37.9182 13.6035C37.2952 12.7559 36.2231 12.2271 35.1726 12.2706C34.8901 12.285 34.6438 12.0532 34.6365 11.7707C34.6293 11.4809 34.8539 11.2419 35.1364 11.2346C36.5346 11.1839 37.9255 11.8576 38.7586 12.9877C39.5917 14.1179 39.809 15.6464 39.3381 16.9722C38.918 18.153 37.969 18.9716 36.9258 19.0658C36.9185 19.073 36.904 19.073 36.8895 19.073Z" fill="#1E1D26"/>
<g opacity="0.1">
<path d="M23.089 23.0577C20.0318 23.927 17.5036 24.3762 14.5478 25.1658C14.048 25.3034 13.5409 24.9992 13.4105 24.4993L12.773 21.9131C13.2511 21.8696 13.751 21.9131 14.2436 21.9348C15.7649 21.9928 17.4746 21.5871 18.2859 20.2976C18.6699 19.6963 18.8075 18.9718 19.0683 18.3054C19.3654 17.5737 19.8218 16.9144 20.0753 16.1683C20.213 15.7698 20.2926 15.3641 20.3289 14.9512L21.0026 14.7773L23.089 23.0577Z" fill="#1E1D26"/>
</g>
<path d="M14.1349 19.4789C13.9321 19.4789 13.7582 19.3413 13.7147 19.1385C13.664 18.9066 13.8089 18.6748 14.048 18.6241L17.3731 17.8924C17.6122 17.8417 17.8368 17.9866 17.8875 18.2257C17.9382 18.4575 17.7933 18.6893 17.5543 18.74L14.2291 19.4717C14.1929 19.4789 14.1639 19.4789 14.1349 19.4789Z" fill="white"/>
<path d="M19.1191 18.3127H19.0104C18.7713 18.3127 18.5757 18.1171 18.5757 17.878C18.5757 17.639 18.7713 17.4434 19.0104 17.4434H19.1191C19.3581 17.4434 19.5537 17.639 19.5537 17.878C19.5537 18.1171 19.3581 18.3127 19.1191 18.3127Z" fill="white"/>
<path d="M13.396 43.6971C13.3887 43.6971 13.3887 43.6971 13.396 43.6971L7.23825 43.6392C6.99919 43.6392 6.80359 43.4436 6.81083 43.2045C6.81083 42.9655 7.01368 42.7626 7.2455 42.7771L13.396 42.8351C13.635 42.8351 13.8306 43.0307 13.8234 43.2697C13.8234 43.5015 13.6278 43.6971 13.396 43.6971Z" fill="white"/>
<path d="M15.8736 43.8708H15.4751C15.2361 43.8708 15.0405 43.6752 15.0405 43.4361C15.0405 43.1971 15.2361 43.0015 15.4751 43.0015H15.8736C16.1126 43.0015 16.3082 43.1971 16.3082 43.4361C16.3082 43.6752 16.1199 43.8708 15.8736 43.8708Z" fill="white"/>
</svg>
