<svg width="32" height="32" viewBox="0 0 32 32" fill="none" xmlns="http://www.w3.org/2000/svg">
<g clip-path="url(#clip0_632_450)">
<path d="M24.2861 12.1305C24.8021 12.6558 24.7941 13.4998 24.2674 14.0158L18.3661 19.8091C17.3221 20.8331 15.9781 21.3438 14.6341 21.3438C13.3034 21.3438 11.9714 20.8425 10.9314 19.8385L8.39941 17.3478C7.87408 16.8318 7.86741 15.9878 8.38341 15.4625C8.89941 14.9358 9.74208 14.9291 10.2687 15.4465L12.7927 17.9278C13.8301 18.9278 15.4621 18.9225 16.5007 17.9038L22.4007 12.1118C22.9247 11.5945 23.7661 11.6051 24.2861 12.1305ZM31.1434 19.3598L26.4767 27.3598C25.2847 29.3998 23.0794 30.6665 20.7181 30.6665H11.2887C8.92741 30.6665 6.72074 29.3985 5.53008 27.3598L0.862078 19.3598C-0.347255 17.2878 -0.347255 14.7131 0.862078 12.6411L5.52874 4.64114C6.71941 2.60114 8.92475 1.33447 11.2874 1.33447H20.7167C23.0781 1.33447 25.2847 2.60247 26.4741 4.64114L31.1421 12.6411C32.3501 14.7131 32.3514 17.2878 31.1434 19.3598ZM28.8381 13.9851L24.1714 5.98514C23.4581 4.76114 22.1341 4.00114 20.7167 4.00114H11.2874C9.87008 4.00114 8.54608 4.76114 7.83274 5.98514L3.16608 13.9851C2.44074 15.2291 2.44074 16.7731 3.16608 18.0158L7.83274 26.0158C8.54741 27.2398 9.87008 27.9998 11.2874 27.9998H20.7167C22.1327 27.9998 23.4581 27.2398 24.1727 26.0158L28.8381 18.0158C29.5634 16.7718 29.5634 15.2278 28.8381 13.9851Z" fill="white"/>
</g>
<defs>
<clipPath id="clip0_632_450">
<rect width="32" height="32" fill="white"/>
</clipPath>
</defs>
</svg>
