<svg width="30" height="30" viewBox="0 0 30 30" fill="none" xmlns="http://www.w3.org/2000/svg">
<path d="M28.5 15C28.5 22.4558 22.4558 28.5 15 28.5C7.54416 28.5 1.5 22.4558 1.5 15C1.5 7.54416 7.54416 1.5 15 1.5M22.5 15C22.5 19.1421 19.1421 22.5 15 22.5C10.8579 22.5 7.5 19.1421 7.5 15C7.5 10.8579 10.8579 7.5 15 7.5M19.1368 11.0274L25.0753 11.6511L28.2944 7.14439L24.4315 5.85675L23.1438 1.99382L18.6371 5.21292L19.1368 11.0274ZM19.1368 11.0274L15 14.9999" stroke="white" stroke-width="2" stroke-linecap="round" stroke-linejoin="round"/>
</svg>
