<svg width="28" height="28" viewBox="0 0 28 28" fill="none" xmlns="http://www.w3.org/2000/svg">
<path d="M28 14C28 12.103 27.167 10.3133 25.7542 9.18867C25.9175 7.29633 25.2408 5.4425 23.8992 4.09967C22.5575 2.75917 20.7095 2.08017 18.9093 2.2855C17.6867 0.833 15.897 0 14 0C12.103 0 10.3133 0.833 9.18867 2.24583C7.294 2.0825 5.44133 2.758 4.09967 4.10083C2.758 5.4425 2.0825 7.2975 2.2855 9.09067C0.833 10.3133 0 12.103 0 14C0 15.897 0.833 17.6867 2.24583 18.8113C2.0825 20.7037 2.75917 22.5587 4.10083 23.9003C5.4425 25.2432 7.30217 25.921 9.09067 25.7145C10.3133 27.167 12.103 28 14 28C15.897 28 17.6867 27.167 18.8113 25.7542C20.699 25.9163 22.5563 25.242 23.8992 23.8992C25.2397 22.5575 25.9163 20.7025 25.7133 18.9093C27.167 17.6867 28 15.897 28 14ZM24.2118 17.1243C23.653 17.5945 23.3672 18.2828 23.4302 19.0108C23.5328 20.216 23.1035 21.3967 22.2495 22.2495C21.3955 23.1035 20.2172 23.5317 19.0108 23.4302C18.2805 23.3707 17.5957 23.653 17.1255 24.2118C16.3462 25.137 15.2075 25.6678 14 25.6678C12.7925 25.6678 11.6538 25.137 10.8745 24.2118C10.4463 23.7043 9.83967 23.4232 9.18633 23.4232C9.121 23.4232 9.0545 23.4255 8.98917 23.4313C7.791 23.5352 6.6045 23.1047 5.7505 22.2507C4.89767 21.3967 4.46717 20.216 4.571 19.012C4.63283 18.284 4.34933 17.598 3.78933 17.1255C2.86417 16.3473 2.33333 15.2075 2.33333 14.0012C2.33333 12.7948 2.86417 11.655 3.78933 10.8757C4.34817 10.4043 4.63283 9.71717 4.56983 8.98917C4.46717 7.78517 4.8965 6.6045 5.7505 5.7505C6.6045 4.89767 7.78517 4.47067 8.98917 4.571C9.71367 4.62817 10.4032 4.34817 10.8757 3.78933C11.6538 2.86417 12.7937 2.33333 14 2.33333C15.2063 2.33333 16.3462 2.86417 17.1255 3.78933C17.5957 4.347 18.2817 4.63633 19.012 4.56983C20.2078 4.47183 21.3955 4.8965 22.2495 5.7505C23.1023 6.60333 23.5328 7.78517 23.4302 8.98917C23.3672 9.71717 23.6518 10.4043 24.2118 10.8757C25.1358 11.6538 25.6667 12.7937 25.6667 14C25.6667 15.2063 25.1358 16.3462 24.2118 17.1243ZM18.6667 16.3333C18.6667 18.263 17.0963 19.8333 15.1667 19.8333V21C15.1667 21.644 14.644 22.1667 14 22.1667C13.356 22.1667 12.8333 21.644 12.8333 21V19.8333H12.5207C11.2747 19.8333 10.1138 19.1637 9.48967 18.0845C9.16767 17.5268 9.35783 16.814 9.9155 16.4908C10.472 16.1677 11.186 16.359 11.5092 16.9167C11.7168 17.276 12.1053 17.5 12.5207 17.5H15.1667C15.8107 17.5 16.3333 16.9762 16.3333 16.3333C16.3333 15.8923 16.0172 15.519 15.582 15.4467L12.033 14.8552C10.4685 14.595 9.33217 13.2533 9.33217 11.6667C9.33217 9.737 10.9025 8.16667 12.8322 8.16667V7C12.8322 6.356 13.3548 5.83333 13.9988 5.83333C14.6428 5.83333 15.1655 6.356 15.1655 7V8.16667H15.4782C16.723 8.16667 17.885 8.8375 18.5092 9.91667C18.8323 10.4743 18.641 11.1872 18.0845 11.5103C17.5245 11.8323 16.8105 11.6422 16.4908 11.0845C16.282 10.724 15.8947 10.5012 15.4793 10.5012H12.8333C12.1905 10.5012 11.6667 11.025 11.6667 11.6678C11.6667 12.1088 11.9828 12.4822 12.418 12.5545L15.9658 13.146C17.5315 13.4062 18.6667 14.7478 18.6667 16.3345V16.3333Z" fill="white"/>
</svg>
