<svg width="28" height="30" viewBox="0 0 28 30" fill="none" xmlns="http://www.w3.org/2000/svg">
<path d="M8.63407 11.57C9.12282 12.0587 9.12282 12.85 8.63407 13.3375C8.14532 13.8262 7.35407 13.8262 6.86657 13.3375C6.37782 12.8487 6.37782 12.0575 6.86657 11.57C7.35532 11.0812 8.14657 11.0812 8.63407 11.57ZM25.9491 19.1762L25.2428 19.8825C25.2091 21.4237 24.6116 22.9537 23.4491 24.1312L19.4903 28.1412C18.3116 29.335 16.7391 29.995 15.0616 30H15.0403C13.3716 30 11.8028 29.35 10.6228 28.17L1.35282 18.9787C0.54032 18.1675 0.14782 17.0512 0.27282 15.9125L1.22907 7.26748C1.29282 6.69748 1.73407 6.24373 2.30157 6.16623L10.9128 4.98873C12.0778 4.83373 13.2503 5.22998 14.0728 6.05248L23.4166 15.3175C23.9003 15.8012 24.2878 16.3462 24.5803 16.9275C25.5953 15.47 25.4528 13.4337 24.1528 12.1337L14.6641 2.87748C14.3778 2.59123 13.9828 2.45873 13.6003 2.51248L4.98907 3.68998C4.30282 3.78248 3.67407 3.30373 3.58032 2.62123C3.48782 1.93748 3.96657 1.30748 4.64907 1.21373L13.2616 0.0349817C14.4128 -0.128768 15.5978 0.273732 16.4216 1.09998L25.9078 10.3562C28.3403 12.7875 28.3541 16.74 25.9478 19.1775L25.9491 19.1762ZM21.6516 17.0887L12.3078 7.82373C12.0291 7.54498 11.6378 7.41623 11.2491 7.46498L3.60532 8.51123L2.75657 16.1862C2.71532 16.565 2.84532 16.9375 3.11532 17.2062L12.3853 26.3975C13.0966 27.11 14.0378 27.4987 15.0391 27.4987H15.0516C16.0591 27.4962 17.0028 27.1 17.7091 26.3825L21.6678 22.3725C23.1116 20.91 23.1041 18.5387 21.6503 17.0862L21.6516 17.0887Z" fill="white"/>
</svg>
