<svg width="120" height="136" viewBox="0 0 120 136" fill="none" xmlns="http://www.w3.org/2000/svg">
<circle cx="60" cy="60" r="60" fill="#794AFF" fill-opacity="0.05"/>
<path d="M77.2608 133.934C92.8224 133.934 105.437 127.352 105.437 119.232C105.437 111.113 92.8224 104.531 77.2608 104.531C61.6993 104.531 49.0842 111.113 49.0842 119.232C49.0842 127.352 61.6993 133.934 77.2608 133.934Z" fill="url(#paint0_radial_377_459)"/>
<path d="M99.4515 104.055C99.4515 81.2379 83.3219 53.437 63.4355 41.9409C53.8429 36.4058 45.127 35.6794 38.6902 38.9604L38.6651 38.9354L33.0799 42.0411L35.6596 46.4993C34.4574 49.9306 33.8062 53.9629 33.8062 58.5714C33.8062 81.3882 49.9358 109.189 69.8222 120.685C73.9047 123.039 77.8369 124.517 81.4936 125.193L84.1234 129.727L87.8552 127.723C94.9933 124.267 99.4515 116.052 99.4515 104.055Z" fill="url(#paint1_linear_377_459)"/>
<path d="M95.2437 106.334C95.2437 129.151 79.1142 138.343 59.2278 126.872C39.3413 115.401 23.2118 87.5746 23.2118 64.7578C23.2118 41.941 39.3413 32.7492 59.2278 44.2202C79.1142 55.7162 95.2437 83.5172 95.2437 106.334Z" fill="url(#paint2_radial_377_459)"/>
<path d="M94.4423 106.785C94.4423 129.602 78.3127 138.794 58.4263 127.323C38.5399 115.851 22.4103 88.0255 22.4103 65.2087C22.4103 42.3919 38.5399 33.2001 58.4263 44.6711C78.3127 56.1672 94.4423 83.9681 94.4423 106.785Z" fill="url(#paint3_linear_377_459)"/>
<path d="M80.2903 123.385C92.2079 116.417 92.084 94.0316 80.0134 73.3846C67.9429 52.7376 48.4965 41.6481 36.5789 48.6153C24.6612 55.5826 24.7851 77.9684 36.8557 98.6153C48.9263 119.262 68.3726 130.352 80.2903 123.385Z" fill="white"/>
<path d="M85.2755 118.656C87.7551 115 89.1576 109.965 89.1576 103.729C89.1576 103.629 89.1576 103.529 89.1576 103.454L58.4263 85.9966L85.2755 118.656Z" fill="url(#paint4_linear_377_459)"/>
<path d="M59.6786 120.61C42.6975 110.817 28.9473 87.0988 28.9473 67.6131C28.9473 57.8702 32.4036 51.0327 37.9638 47.877C31.6523 50.6821 27.695 57.7951 27.695 68.2392C27.695 87.6999 41.4452 111.443 58.4263 121.236C66.8918 126.12 74.5809 126.621 80.116 123.465C74.7061 125.895 67.543 125.143 59.6786 120.61Z" fill="url(#paint5_linear_377_459)"/>
<path d="M60.1295 86.9483C60.1295 88.0253 59.3781 88.4511 58.4514 87.9001C57.5247 87.3741 56.7733 86.0717 56.7733 84.9947C56.7733 83.9178 57.5247 83.492 58.4514 84.043C59.353 84.594 60.1295 85.8964 60.1295 86.9483Z" fill="url(#paint6_linear_377_459)"/>
<path d="M58.9023 56.0419C58.6518 55.8916 58.4264 55.4909 58.4264 55.1402V53.5874C58.4264 53.2367 58.6268 53.0865 58.9023 53.2367C59.1527 53.387 59.3781 53.7878 59.3781 54.1384V55.6912C59.3781 56.0168 59.1527 56.1922 58.9023 56.0419Z" fill="#AFB6E5"/>
<path d="M58.9023 118.757C58.6518 118.606 58.4264 118.206 58.4264 117.855V116.302C58.4264 115.952 58.6268 115.801 58.9023 115.952C59.1527 116.102 59.3781 116.503 59.3781 116.853V118.406C59.3781 118.732 59.1527 118.907 58.9023 118.757Z" fill="#AFB6E5"/>
<path d="M32.8045 70.9192C32.8045 71.2198 32.6292 71.345 32.4037 71.2197L30.7507 70.268C30.5253 70.1428 30.35 69.7921 30.35 69.4916C30.35 69.191 30.5253 69.0658 30.7507 69.191L32.4037 70.1428C32.6292 70.268 32.8045 70.6187 32.8045 70.9192Z" fill="#AFB6E5"/>
<path d="M87.4546 102.477C87.4546 102.777 87.2792 102.903 87.0538 102.777L85.4008 101.826C85.1754 101.7 85.0001 101.35 85.0001 101.049C85.0001 100.749 85.1754 100.623 85.4008 100.749L87.0538 101.7C87.2792 101.826 87.4546 102.176 87.4546 102.477Z" fill="#AFB6E5"/>
<path d="M45.8534 52.5105C45.628 52.5355 45.3525 52.2851 45.2272 51.9595L44.4759 50.031C44.3506 49.7054 44.4258 49.4298 44.6512 49.4048C44.8766 49.3798 45.1521 49.6302 45.2773 49.9558L46.0287 51.8844C46.1539 52.2099 46.0788 52.4855 45.8534 52.5105Z" fill="#AFB6E5"/>
<path d="M73.1784 122.614C72.953 122.639 72.6775 122.388 72.5522 122.063L71.8009 120.134C71.6756 119.809 71.7508 119.533 71.9762 119.508C72.2016 119.483 72.4771 119.733 72.6023 120.059L73.3537 121.988C73.4789 122.313 73.4038 122.589 73.1784 122.614Z" fill="#AFB6E5"/>
<path d="M36.2858 87.9253C36.4111 88.2509 36.3359 88.5264 36.1105 88.5514L34.8081 88.6516C34.5827 88.6767 34.3072 88.4262 34.182 88.1006C34.0567 87.775 34.1319 87.4995 34.3573 87.4745L35.6597 87.3743C35.8851 87.3242 36.1606 87.5747 36.2858 87.9253Z" fill="#AFB6E5"/>
<path d="M83.6226 83.8928C83.7478 84.2184 83.6726 84.4939 83.4472 84.519L82.1448 84.6192C81.9194 84.6442 81.6439 84.3938 81.5187 84.0682C81.3935 83.7426 81.4686 83.4671 81.694 83.442L82.9964 83.3418C83.2218 83.2918 83.4973 83.5673 83.6226 83.8928Z" fill="#AFB6E5"/>
<path d="M36.2858 57.9702C36.1606 58.1455 35.86 58.0704 35.6597 57.7949L34.3573 56.1669C34.1319 55.8914 34.0567 55.5157 34.182 55.3404C34.3072 55.1651 34.6078 55.2402 34.8081 55.5157L36.1105 57.1437C36.361 57.3942 36.4361 57.7699 36.2858 57.9702Z" fill="#AFB6E5"/>
<path d="M83.6226 116.653C83.4973 116.828 83.1968 116.753 82.9964 116.478L81.694 114.85C81.4686 114.574 81.3935 114.198 81.5187 114.023C81.6439 113.848 81.9445 113.923 82.1448 114.198L83.4472 115.826C83.6726 116.102 83.7728 116.478 83.6226 116.653Z" fill="#AFB6E5"/>
<path d="M45.8534 104.405C46.0788 104.681 46.1539 105.057 46.0287 105.232L45.2773 106.309C45.1521 106.484 44.8515 106.409 44.6512 106.134C44.4258 105.858 44.3506 105.482 44.4759 105.307L45.2272 104.23C45.3525 104.055 45.628 104.13 45.8534 104.405Z" fill="#AFB6E5"/>
<path d="M73.1784 65.86C73.4038 66.1355 73.4789 66.5112 73.3537 66.6865L72.6023 67.7634C72.4771 67.9388 72.1766 67.8636 71.9762 67.5881C71.7508 67.3126 71.6756 66.9369 71.8009 66.7616L72.5522 65.6846C72.6775 65.5093 72.953 65.5845 73.1784 65.86Z" fill="#AFB6E5"/>
<path d="M59.2528 87.6747L57.6248 86.748V60.7253L59.2528 61.6521V87.6747Z" fill="url(#paint7_linear_377_459)"/>
<path d="M58.7269 85.646L58.226 86.3473L80.1912 113.572L80.6921 112.871L58.7269 85.646Z" fill="url(#paint8_linear_377_459)"/>
<path d="M59.2779 86.4725C59.2779 86.9984 58.9022 87.2239 58.4263 86.9484C57.9505 86.6729 57.5748 86.0217 57.5748 85.4957C57.5748 84.9697 57.9505 84.7443 58.4263 85.0198C58.9022 85.2953 59.2779 85.9465 59.2779 86.4725Z" fill="#EB4680"/>
<path d="M64.8881 83.3669L64.0115 81.8391L60.43 83.8929L60.6554 84.2936L38.4647 96.9418L38.8905 97.6681L61.0812 85.0199L61.3316 85.4207L64.8881 83.3669Z" fill="url(#paint9_linear_377_459)"/>
<defs>
<radialGradient id="paint0_radial_377_459" cx="0" cy="0" r="1" gradientUnits="userSpaceOnUse" gradientTransform="translate(77.2731 119.225) scale(28.1723 14.7027)">
<stop offset="0.1919" stop-color="#AFB6E5"/>
<stop offset="1" stop-color="white"/>
</radialGradient>
<linearGradient id="paint1_linear_377_459" x1="90.6408" y1="125.719" x2="42.78" y2="37.1326" gradientUnits="userSpaceOnUse">
<stop offset="0.0909091" stop-color="#4088EC"/>
<stop offset="0.5" stop-color="#388CD6"/>
<stop offset="0.691" stop-color="#4EC0EA"/>
<stop offset="0.798" stop-color="#58D9F3"/>
<stop offset="1" stop-color="#38A6F5"/>
</linearGradient>
<radialGradient id="paint2_radial_377_459" cx="0" cy="0" r="1" gradientUnits="userSpaceOnUse" gradientTransform="translate(59.2379 85.5553) scale(41.4509 41.4509)">
<stop stop-color="white"/>
<stop offset="1"/>
</radialGradient>
<linearGradient id="paint3_linear_377_459" x1="75.8758" y1="57.2839" x2="36.6289" y2="121.891" gradientUnits="userSpaceOnUse">
<stop stop-color="#00C7C5"/>
<stop offset="0.3301" stop-color="#2D9BE0"/>
<stop offset="0.6313" stop-color="#5277F7"/>
<stop offset="0.6913" stop-color="#5B76F7"/>
<stop offset="0.7887" stop-color="#7374F6"/>
<stop offset="0.9106" stop-color="#9A70F4"/>
<stop offset="1" stop-color="#BB6DF3"/>
</linearGradient>
<linearGradient id="paint4_linear_377_459" x1="58.4373" y1="102.322" x2="89.1615" y2="102.322" gradientUnits="userSpaceOnUse">
<stop offset="0.0353535" stop-color="#BB6DF3"/>
<stop offset="0.3625" stop-color="#CA6DEA"/>
<stop offset="0.9939" stop-color="#F36DD4"/>
<stop offset="1" stop-color="#F36DD4"/>
</linearGradient>
<linearGradient id="paint5_linear_377_459" x1="27.7132" y1="86.6723" x2="80.1384" y2="86.6723" gradientUnits="userSpaceOnUse">
<stop offset="0.0959596" stop-color="#45108A"/>
<stop offset="1" stop-color="#7C1DC9"/>
</linearGradient>
<linearGradient id="paint6_linear_377_459" x1="56.7571" y1="85.9903" x2="60.1175" y2="85.9903" gradientUnits="userSpaceOnUse">
<stop offset="0.0959596" stop-color="#45108A"/>
<stop offset="1" stop-color="#7C1DC9"/>
</linearGradient>
<linearGradient id="paint7_linear_377_459" x1="57.6254" y1="74.1983" x2="59.2491" y2="74.1983" gradientUnits="userSpaceOnUse">
<stop offset="0.0959596" stop-color="#45108A"/>
<stop offset="1" stop-color="#7C1DC9"/>
</linearGradient>
<linearGradient id="paint8_linear_377_459" x1="58.2285" y1="99.6063" x2="80.6804" y2="99.6063" gradientUnits="userSpaceOnUse">
<stop offset="0.0959596" stop-color="#45108A"/>
<stop offset="1" stop-color="#7C1DC9"/>
</linearGradient>
<linearGradient id="paint9_linear_377_459" x1="38.4766" y1="89.757" x2="64.8983" y2="89.757" gradientUnits="userSpaceOnUse">
<stop offset="0.0353535" stop-color="#BB6DF3"/>
<stop offset="0.3625" stop-color="#CA6DEA"/>
<stop offset="0.9939" stop-color="#F36DD4"/>
<stop offset="1" stop-color="#F36DD4"/>
</linearGradient>
</defs>
</svg>
