<svg width="120" height="136" viewBox="0 0 120 136" fill="none" xmlns="http://www.w3.org/2000/svg">
<circle cx="60" cy="60" r="60" fill="#794AFF" fill-opacity="0.05"/>
<g clip-path="url(#clip0_377_414)">
<path d="M26.4437 62.9105C27.792 62.7701 29.1965 62.7982 30.6852 63.0229L30.4886 61.2533C30.0391 61.2533 29.5616 61.2813 29.1122 61.3375L25.8257 55.5229C24.0841 55.8038 22.483 56.3656 20.9943 57.1522L18.3257 58.7252C19.7864 57.9387 21.4156 57.3769 23.1572 57.096L26.4437 62.9105Z" fill="#C6CCF4"/>
<path d="M61.4716 83.6407L58.8873 86.7025C59.9547 88.6126 60.9379 90.607 61.8086 92.6013L66.2468 93.2755C67.3142 95.8878 68.2131 98.5563 68.9434 101.197L71.6119 99.6237C70.9097 96.9833 70.0108 94.3148 68.9153 91.7025L64.4772 91.0283C63.6064 89.0339 62.6232 87.0396 61.5558 85.1295L64.1401 82.0677C62.6794 79.5677 61.0502 77.152 59.3087 74.8486L56.6401 76.4217C58.3817 78.725 60.0109 81.1407 61.4716 83.6407Z" fill="#C6CCF4"/>
<path d="M36.0785 59.1745L37.5673 65.1857C38.3538 65.5509 39.1122 65.9442 39.9268 66.4217C40.7133 66.8711 41.4998 67.3767 42.2863 67.9104L43.2133 65.2138C43.0166 65.1015 42.82 64.961 42.6234 64.8487C41.8369 64.3992 41.0504 63.9779 40.2639 63.6127L38.7751 57.6015C36.6965 56.7026 34.674 56.0566 32.7639 55.6914L30.0954 57.2644C31.9774 57.6296 33.9999 58.2476 36.0785 59.1745Z" fill="#C6CCF4"/>
<path d="M49.7582 68.6412L49.1402 73.6692C50.6289 75.158 52.0334 76.7591 53.3817 78.4445L56.0222 76.8153C54.7019 75.1299 53.2975 73.5569 51.8087 72.0681L52.4267 67.04C50.4885 65.1861 48.4941 63.5007 46.4155 61.9839L43.7469 63.5569C45.7975 65.0738 47.82 66.7872 49.7582 68.6412Z" fill="#C6CCF4"/>
<path d="M68.1289 116.674L65.9098 115.635C65.6851 117.32 65.348 118.865 64.8705 120.298L68.9435 125.466C68.2412 127.292 67.3424 128.921 66.2469 130.298L68.9154 128.725C69.9828 127.348 70.8817 125.719 71.612 123.893L67.539 118.725C67.7918 118.05 67.9603 117.376 68.1289 116.674Z" fill="#C6CCF4"/>
<path d="M73.3254 109.174L68.6063 105.944C68.4378 104.427 68.185 102.882 67.8479 101.337L64.8985 101.674C65.376 103.641 65.7131 105.607 65.9378 107.517L70.6569 110.747C70.7692 111.983 70.7973 113.191 70.7973 114.371C70.7973 115.579 70.7412 116.731 70.6569 117.826L73.3254 116.253C73.4378 115.158 73.4659 114.006 73.4659 112.798C73.4659 111.618 73.4378 110.41 73.3254 109.174Z" fill="#C6CCF4"/>
<path d="M62.2581 126.281L61.8086 125.832C60.9379 126.843 59.9547 127.685 58.8873 128.332L61.303 133.978C62.3143 133.669 63.2693 133.275 64.1401 132.798L61.5559 126.758C61.8087 126.59 62.0334 126.45 62.2581 126.281Z" fill="#CED3F4"/>
<path d="M49.1403 130.101L49.7582 135.86L52.4268 134.259L51.8088 128.528L49.1403 130.101Z" fill="#AFB6E5"/>
<path d="M61.4716 134.399L64.1682 132.798L61.5559 126.758L58.8873 128.331L61.4716 134.399Z" fill="#AFB6E5"/>
<path d="M67.5671 118.697L64.8705 120.298L68.9435 125.438L71.612 123.865L67.5671 118.697Z" fill="#AFB6E5"/>
<path d="M49.1403 73.6692L51.8088 72.0962L52.4268 67.04L49.7582 68.6412L49.1403 73.6692Z" fill="#AFB6E5"/>
<path d="M37.5672 65.186L40.2358 63.613L38.747 57.5737L36.0785 59.1748L37.5672 65.186Z" fill="#AFB6E5"/>
<path d="M26.4437 62.9108L29.1122 61.3097L25.8257 55.4951L23.1572 57.0962L26.4437 62.9108Z" fill="#AFB6E5"/>
<path d="M17.9887 67.2927L20.6572 65.7197L16.2191 61.2534L13.5225 62.8264L17.9887 67.2927Z" fill="#AFB6E5"/>
<path d="M9.14044 75.2701L11.8371 73.6689L16.5561 75.888L13.8876 77.4891L9.14044 75.2701Z" fill="#AFB6E5"/>
<path d="M13.5225 90.3262L10.8539 91.8992L14.9269 91.4497L17.5955 89.8486L13.5225 90.3262Z" fill="#AFB6E5"/>
<path d="M36.0785 129.539L38.747 127.938L40.2358 123.641L37.5672 125.214L36.0785 129.539Z" fill="#AFB6E5"/>
<path d="M70.6569 117.854C70.7693 116.759 70.7974 115.607 70.7974 114.399C70.7974 113.191 70.7412 111.983 70.6569 110.776L65.9378 107.545C65.7131 105.607 65.376 103.669 64.8985 101.703L68.9715 101.225C68.2693 98.5847 67.3704 95.9162 66.2749 93.3038L61.8367 92.6297C60.966 90.6353 59.9828 88.6409 58.9154 86.7308L61.4997 83.6691C60.039 81.1691 58.4098 78.7534 56.6682 76.45L53.3817 78.4725C52.0334 76.7871 50.6289 75.186 49.1402 73.6972L49.7582 68.6692C47.82 66.8152 45.8256 65.1299 43.747 63.613L42.2582 67.9107C41.4717 67.377 40.7133 66.8995 39.8987 66.422C39.1122 65.9725 38.3257 65.5512 37.5392 65.186L36.0504 59.1748C33.9717 58.276 31.9493 57.6299 30.0392 57.2647L30.6572 63.0231C29.1684 62.7984 27.7639 62.7703 26.4156 62.9108L23.1291 57.0962C21.3876 57.3771 19.7865 57.9389 18.2977 58.7254L20.8819 64.7647C19.8145 65.4388 18.8314 66.2815 17.9606 67.2647L13.5225 62.7984C12.455 64.1748 11.5562 65.804 10.8258 67.6298L14.8988 72.7983C14.4213 74.2028 14.0842 75.7758 13.8595 77.4612L9.14045 75.2421C9.02809 76.3376 9 77.4893 9 78.6972C9 79.905 9.05618 81.1129 9.14045 82.3208L13.8595 85.5511C14.0842 87.4893 14.4213 89.4274 14.8988 91.3937L10.8258 91.8713C11.5281 94.5117 12.427 97.1802 13.5225 99.7925L17.9606 100.467C18.8314 102.461 19.8145 104.455 20.8819 106.366L18.2977 109.427C19.7584 111.927 21.3876 114.343 23.1291 116.646L26.4156 114.624C27.7639 116.309 29.1684 117.91 30.6572 119.399L30.0392 124.427C31.9774 126.281 33.9717 127.967 36.0504 129.483L37.5392 125.186C38.3257 125.719 39.0841 126.197 39.8987 126.674C40.6852 127.124 41.4717 127.545 42.2582 127.91L43.747 133.922C45.8256 134.82 47.8481 135.466 49.7582 135.832L49.1402 130.073C50.6289 130.298 52.0334 130.326 53.3817 130.186L56.6682 136C58.4098 135.719 60.0109 135.157 61.4997 134.371L58.9154 128.332C59.9828 127.658 60.966 126.815 61.8367 125.832L66.2749 130.298C67.3423 128.922 68.2412 127.292 68.9715 125.467L64.8985 120.298C65.376 118.894 65.7131 117.321 65.9378 115.635L70.6569 117.854ZM39.8987 104.933C35.8818 102.602 32.5954 96.9836 32.5954 92.3488C32.5954 87.714 35.8538 85.8601 39.8987 88.1915C43.9155 90.5229 47.202 96.1409 47.202 100.776C47.202 105.382 43.9155 107.264 39.8987 104.933Z" fill="url(#paint0_linear_377_414)"/>
<path d="M39.8987 69.371C26.8089 61.8149 16.2191 67.8542 16.2191 82.8822C16.2191 97.9102 26.837 116.197 39.8987 123.753C52.9885 131.309 63.5783 125.27 63.5783 110.242C63.5783 95.2135 52.9885 76.9271 39.8987 69.371ZM39.8987 107.798C34.5054 104.68 30.1235 97.1236 30.1235 90.9158C30.1235 84.708 34.5054 82.208 39.8987 85.326C45.2919 88.4439 49.6739 96.0001 49.6739 102.208C49.6739 108.416 45.2919 110.916 39.8987 107.798Z" fill="url(#paint1_linear_377_414)"/>
<path d="M50.7133 101.197C50.7133 94.9893 46.3313 87.4332 40.9381 84.3152C37.3707 82.2647 34.2808 82.6579 32.5673 84.9332C34.3651 83.613 37.0055 83.6411 39.9268 85.3265C45.3201 88.4444 49.702 96.0005 49.702 102.208C49.702 104.315 49.1964 106 48.2976 107.18C49.7863 106.057 50.7133 104.006 50.7133 101.197Z" fill="#AFB6E5"/>
<path d="M40.9099 122.714C27.8201 115.157 17.2303 96.8711 17.2303 81.8431C17.2303 76.2532 18.6909 71.8993 21.219 69.0342C18.073 71.8432 16.2191 76.5341 16.2191 82.8543C16.2191 97.8823 26.837 116.169 39.8987 123.725C48.1009 128.472 55.348 127.854 59.5896 123.023C55.2638 126.899 48.5222 127.124 40.9099 122.714Z" fill="#AFB6E5"/>
<path d="M64.1682 82.0679L61.4716 83.6409L58.8873 86.7027L61.5559 85.1297L64.1682 82.0679Z" fill="#AFB6E5"/>
<path d="M64.5053 91.0005L61.8087 92.6016L66.2749 93.2758L68.9434 91.7027L64.5053 91.0005Z" fill="#AFB6E5"/>
<path d="M65.9098 107.517L68.6064 105.944L73.3255 109.174L70.6569 110.775L65.9098 107.517Z" fill="#AFB6E5"/>
<path d="M32.5112 92.4329C32.5112 97.0677 35.7696 102.686 39.8145 105.017C42.2583 106.422 44.4212 106.281 45.7695 104.933C44.4493 106.169 42.3145 106.253 39.9549 104.905C35.9381 102.573 32.6516 96.9554 32.6516 92.3206C32.6516 90.5228 33.1572 89.1183 33.9999 88.2476C33.0449 89.1183 32.5112 90.5509 32.5112 92.4329Z" fill="#AFB6E5"/>
<path d="M18.6068 66.6183C19.281 65.9441 20.0113 65.3823 20.7978 64.8767V64.8486C20.0113 65.3542 19.281 65.9441 18.6068 66.6183Z" fill="#AFB6E5"/>
<path d="M35.9663 59.2588L37.455 65.27C38.2415 65.6352 38.9999 66.0284 39.8146 66.5059C40.6011 66.9554 41.3876 67.461 42.1741 67.9947L42.2303 67.8261C41.4718 67.3205 40.7134 66.843 39.955 66.3936C39.1685 65.9441 38.382 65.5228 37.5955 65.1576L36.1067 59.1464C34.0281 58.2476 32.0056 57.6015 30.0955 57.2363L30.1236 57.3768C31.9775 57.77 33.9438 58.388 35.9663 59.2588Z" fill="#AFB6E5"/>
<path d="M23.0449 57.2086L26.3314 63.0231C27.6797 62.8827 29.0842 62.9108 30.573 63.1355L30.5449 62.995C29.1123 62.7984 27.7359 62.7703 26.4438 62.9108L23.1573 57.0962C21.4157 57.3771 19.8146 57.9389 18.3259 58.7254L18.3539 58.7816C19.7865 57.9951 21.3596 57.4614 23.0449 57.2086Z" fill="#AFB6E5"/>
<path d="M14.7866 91.4219L10.8821 91.8713C10.8821 91.8994 10.9102 91.9556 10.9102 91.9837L14.8147 91.5342C14.8147 91.5061 14.7866 91.4781 14.7866 91.4219Z" fill="#AFB6E5"/>
<path d="M49.6459 68.7251L49.028 73.7532C50.5167 75.242 51.9212 76.8431 53.2695 78.5285L56.556 76.506C58.2976 78.8094 59.8987 81.2251 61.3874 83.7251L58.8032 86.7868C59.8706 88.6969 60.8537 90.6913 61.7245 92.6857L66.1627 93.3598C67.2301 95.9441 68.1009 98.5564 68.8031 101.197L68.9436 101.169C68.2413 98.5283 67.3425 95.8598 66.247 93.2475L61.8088 92.5733C60.938 90.5789 59.9549 88.5846 58.8875 86.6745L61.4717 83.6127C60.011 81.1127 58.3819 78.697 56.6403 76.3936L53.3538 78.4161C52.0055 76.7307 50.601 75.1296 49.1122 73.6408L49.7302 68.6128C47.792 66.7589 45.7977 65.0735 43.719 63.5566L43.6628 63.7252C45.7415 65.2139 47.7358 66.8993 49.6459 68.7251Z" fill="#AFB6E5"/>
<path d="M58.7751 128.444L61.3593 134.455C61.4155 134.427 61.4436 134.399 61.4998 134.371L58.9155 128.36C58.8874 128.36 58.8313 128.416 58.7751 128.444Z" fill="#AFB6E5"/>
<path d="M49.028 130.213L49.6178 135.803C49.674 135.803 49.7021 135.831 49.7583 135.831L49.1684 130.213C49.1403 130.213 49.0841 130.213 49.028 130.213Z" fill="#AFB6E5"/>
<path d="M65.9099 115.775L65.7975 115.719C65.5728 117.405 65.2357 118.95 64.7582 120.382L68.8312 125.551C68.157 127.32 67.2862 128.893 66.2469 130.242L66.275 130.27C67.3424 128.893 68.2413 127.264 68.9716 125.438L64.8986 120.27C65.3762 118.893 65.7132 117.405 65.9099 115.775Z" fill="#AFB6E5"/>
<path d="M17.8765 67.405C17.9046 67.3489 17.9607 67.3208 17.9888 67.2646L13.5507 62.7983C13.5226 62.8545 13.4945 62.8826 13.4383 62.9388L17.8765 67.405Z" fill="#AFB6E5"/>
<path d="M70.6571 110.747L65.938 107.517C65.7414 105.635 65.3762 103.697 64.9268 101.759L64.7863 101.787C65.2638 103.753 65.6009 105.719 65.8256 107.63L70.5447 110.86C70.6571 112.096 70.6852 113.304 70.6852 114.483C70.6852 115.607 70.629 116.703 70.5447 117.77L70.6571 117.826C70.7694 116.731 70.7975 115.579 70.7975 114.371C70.8256 113.191 70.7694 111.955 70.6571 110.747Z" fill="#AFB6E5"/>
<path d="M13.7754 77.5736C13.7754 77.5175 13.8035 77.4613 13.8035 77.4051L9.1687 75.2422C9.1687 75.2984 9.1687 75.3545 9.1687 75.4107L13.7754 77.5736Z" fill="#AFB6E5"/>
<path d="M37.455 125.326L36.0224 129.455C36.0505 129.483 36.0786 129.483 36.0786 129.512L37.5112 125.382C37.5112 125.354 37.4831 125.326 37.455 125.326Z" fill="#AFB6E5"/>
<path d="M68.1007 80.3823L70.7692 78.8093L69.8703 73.8936L67.1737 75.4947L68.1007 80.3823Z" fill="#AFB6E5"/>
<path d="M73.9152 79.4273C75.1511 78.7812 76.5275 78.416 78.0444 78.3599L77.8758 77.2644C77.4264 77.4048 77.005 77.6014 76.5837 77.8262L73.6624 74.3149C72.8197 74.8767 72.0332 75.5509 71.359 76.3655L73.9152 79.4273Z" fill="#C6CCF4"/>
<path d="M106.134 115.916L104.055 115.017C103.775 116.815 103.213 118.388 102.482 119.68L104.898 123.697C104.055 124.961 103.016 126 101.808 126.759L104.477 125.186C105.657 124.427 106.696 123.388 107.567 122.124L105.151 118.107C105.544 117.461 105.853 116.731 106.134 115.916Z" fill="#C6CCF4"/>
<path d="M77.4545 74.2307C79.0276 74.2869 80.6848 74.624 82.4264 75.242L83.859 79.5116C84.7017 79.8487 85.5444 80.27 86.4152 80.7756C87.2859 81.2813 88.1286 81.8431 88.9713 82.461L90.3196 79.961C89.8983 79.6801 89.505 79.4273 89.0837 79.2026C88.2129 78.697 87.3702 78.2757 86.5275 77.9386L85.0949 73.6689C83.3534 73.051 81.668 72.7139 80.1231 72.6577L77.4545 74.2307Z" fill="#C6CCF4"/>
<path d="M110.039 108.865L106.724 106.478C106.443 104.399 105.909 102.264 105.207 100.158L107.567 98.753C106.724 96.5058 105.685 94.2587 104.477 92.1238L101.555 92.2643C100.32 90.1857 98.9431 88.2194 97.4263 86.4216L98.0443 83.0228C96.4712 81.2812 94.814 79.6801 93.0724 78.3037L90.4039 79.8767C92.1454 81.2531 93.8308 82.8542 95.3758 84.5958L94.7578 87.9947C96.2746 89.7924 97.6791 91.7587 98.887 93.8373L101.808 93.6969C102.988 95.8598 104.027 98.0789 104.898 100.326L102.482 101.562C103.241 103.725 103.775 105.916 104.055 108.051L107.37 110.438C107.482 111.478 107.539 112.517 107.539 113.528C107.539 114.539 107.482 115.523 107.37 116.421L110.039 114.848C110.151 113.921 110.207 112.966 110.207 111.955C110.207 110.944 110.151 109.905 110.039 108.865Z" fill="#C6CCF4"/>
<path d="M82.4264 122.854L85.0949 121.253L86.5275 118.641L83.859 120.214L82.4264 122.854Z" fill="#AFB6E5"/>
<path d="M95.3757 128.472L98.0443 126.871L97.4263 122.77L94.7578 124.343L95.3757 128.472Z" fill="#AFB6E5"/>
<path d="M102.482 119.708L105.151 118.107L107.567 122.152L104.898 123.725L102.482 119.708Z" fill="#AFB6E5"/>
<path d="M104.055 108.051L106.724 106.45L110.039 108.865L107.37 110.438L104.055 108.051Z" fill="#AFB6E5"/>
<path d="M98.8869 93.8373L101.555 92.2362L104.505 92.0957L101.808 93.6968L98.8869 93.8373Z" fill="#AFB6E5"/>
<path d="M94.7578 87.9946L97.4263 86.3935L98.0443 82.9946L95.3757 84.5957L94.7578 87.9946Z" fill="#AFB6E5"/>
<path d="M83.859 79.5397L86.5275 77.9386L85.0949 73.6689L82.4264 75.242L83.859 79.5397Z" fill="#AFB6E5"/>
<path d="M73.9152 79.4273L76.6118 77.8262L73.6624 74.3149L70.9939 75.888L73.9152 79.4273Z" fill="#AFB6E5"/>
<path d="M68.7748 87.6577L71.4433 86.0847L68.1287 84.6802L65.4602 86.2532L68.7748 87.6577Z" fill="#AFB6E5"/>
<path d="M107.37 116.449C107.482 115.523 107.539 114.567 107.539 113.556C107.539 112.545 107.482 111.506 107.37 110.466L104.055 108.079C103.775 105.944 103.213 103.753 102.482 101.59L104.898 100.354C104.055 98.1069 103.016 95.8597 101.808 93.7249L98.887 93.8654C97.651 91.7867 96.2746 89.8205 94.7578 88.0227L95.3758 84.6239C93.8027 82.8823 92.1454 81.2812 90.4039 79.9048L88.9713 82.5452C88.1286 81.9272 87.2859 81.3655 86.4151 80.8598C85.5444 80.3542 84.7017 79.9329 83.859 79.5958L82.4264 75.3262C80.6848 74.7082 78.9995 74.3711 77.4545 74.3149L78.0725 78.4441C76.5557 78.5003 75.1512 78.8374 73.9433 79.5115L71.022 76.0003C69.8422 76.7587 68.8029 77.7981 67.9321 79.0621L70.3478 83.0789C69.5894 84.3711 69.0557 85.9441 68.7748 87.7418L65.4602 86.3373C65.3479 87.2643 65.2917 88.2193 65.2917 89.2306C65.2917 90.2418 65.3479 91.2811 65.4602 92.3204L68.7748 94.7081C69.0557 96.8429 69.6175 99.0339 70.3478 101.197L67.9321 102.433C68.7748 104.68 69.8141 106.927 71.022 109.062L73.9433 108.921C75.1793 111 76.5557 112.966 78.0725 114.764L77.4545 118.163C79.0275 119.905 80.6848 121.506 82.4264 122.882L83.859 120.242C84.7017 120.86 85.5444 121.421 86.4151 121.927C87.2859 122.433 88.1286 122.854 88.9713 123.191L90.4039 127.461C92.1454 128.079 93.8308 128.416 95.3758 128.472L94.7578 124.343C96.2746 124.287 97.6791 123.949 98.887 123.275L101.808 126.787C102.988 126.028 104.027 124.989 104.898 123.725L102.482 119.708C103.241 118.416 103.775 116.843 104.055 115.045L107.37 116.449ZM86.4151 108.472C82.9882 106.478 80.2073 101.702 80.2073 97.7418C80.2073 93.8092 82.9882 92.2081 86.4151 94.2024C89.8421 96.1968 92.623 100.972 92.623 104.933C92.623 108.865 89.8421 110.466 86.4151 108.472Z" fill="url(#paint2_linear_377_414)"/>
<path d="M82.3422 75.4105L83.7748 79.6801C84.6175 80.0172 85.4601 80.4386 86.3309 80.9442C87.2017 81.4498 88.0444 82.0116 88.8871 82.6295L88.9994 82.4329C88.1568 81.815 87.3141 81.2532 86.4433 80.7475C85.5725 80.2419 84.7298 79.8206 83.8871 79.4835L82.4545 75.2139C80.713 74.5959 79.0276 74.2588 77.4827 74.2026L77.5108 74.3993C79.0276 74.4835 80.6568 74.7925 82.3422 75.4105Z" fill="url(#paint3_radial_377_414)"/>
<path d="M80.123 97.9101C80.123 101.843 82.9039 106.646 86.3309 108.64C88.7747 110.045 90.8533 109.652 91.8926 107.91C90.8252 109.511 88.8028 109.82 86.4432 108.472C83.0163 106.477 80.2354 101.702 80.2354 97.7416C80.2354 96.5899 80.4882 95.6629 80.9096 94.9326C80.4039 95.6629 80.123 96.6742 80.123 97.9101Z" fill="url(#paint4_radial_377_414)"/>
<path d="M95.2915 84.7365L94.6735 88.1354C96.1903 89.9331 97.5948 91.8994 98.8027 93.978L101.724 93.8376C102.904 95.9443 103.915 98.1353 104.758 100.354L104.898 100.27C104.055 98.0229 103.016 95.7758 101.808 93.6409L98.8869 93.7814C97.651 91.7027 96.2746 89.7365 94.7578 87.9387L95.3757 84.5399C93.8027 82.7983 92.1454 81.1972 90.4039 79.8208L90.2915 80.0174C92.0612 81.3938 93.7465 82.9949 95.2915 84.7365Z" fill="url(#paint5_radial_377_414)"/>
<path d="M70.2355 101.197L67.9602 102.348C67.9602 102.377 67.9883 102.433 68.0164 102.461L70.2916 101.309C70.2636 101.281 70.2355 101.225 70.2355 101.197Z" fill="url(#paint6_radial_377_414)"/>
<path d="M70.9096 76.0567L73.831 79.5679C75.0669 78.9219 76.4433 78.5567 77.9602 78.5005L77.9321 78.332C76.4714 78.3882 75.1231 78.7533 73.9433 79.3994L71.022 75.8882C69.8422 76.6466 68.8029 77.6859 67.9321 78.95V78.9781C68.7748 77.7702 69.7861 76.7871 70.9096 76.0567Z" fill="url(#paint7_radial_377_414)"/>
<path d="M107.398 110.41L104.084 108.023C103.803 105.916 103.269 103.781 102.539 101.646L102.398 101.731C103.157 103.894 103.69 106.085 103.971 108.219L107.286 110.607C107.398 111.646 107.454 112.686 107.454 113.697C107.454 114.624 107.398 115.523 107.314 116.394L107.398 116.422C107.511 115.495 107.567 114.54 107.567 113.528C107.567 112.489 107.482 111.45 107.398 110.41Z" fill="url(#paint8_radial_377_414)"/>
<path d="M104.056 115.214L103.999 115.186C103.718 116.983 103.157 118.556 102.426 119.848L104.842 123.865C104.87 123.809 104.926 123.753 104.954 123.697L102.539 119.68C103.213 118.416 103.747 116.927 104.056 115.214Z" fill="url(#paint9_radial_377_414)"/>
<path d="M94.6735 124.511L95.2634 128.444C95.3196 128.444 95.3477 128.444 95.4039 128.444L94.814 124.511C94.7578 124.511 94.7297 124.511 94.6735 124.511Z" fill="url(#paint10_radial_377_414)"/>
<path d="M68.6906 87.8262C68.6906 87.7419 68.7187 87.6858 68.7187 87.6015L65.4884 86.2251C65.4884 86.3094 65.4603 86.3655 65.4603 86.4498L68.6906 87.8262Z" fill="url(#paint11_radial_377_414)"/>
<path d="M86.4152 83.3318C77.7354 78.3319 70.713 82.3206 70.713 92.2925C70.713 102.236 77.7354 114.371 86.4152 119.399C95.0949 124.399 102.117 120.41 102.117 110.438C102.117 100.467 95.0949 88.3318 86.4152 83.3318ZM86.4152 110.804C81.8646 108.163 78.1849 101.815 78.1849 96.5902C78.1849 91.3655 81.8646 89.2588 86.4152 91.8992C90.9657 94.5396 94.6454 100.888 94.6454 106.113C94.6454 111.337 90.9657 113.444 86.4152 110.804Z" fill="url(#paint12_linear_377_414)"/>
<path d="M92.5105 111.197C94.4206 110.579 95.6566 108.613 95.6566 105.579C95.6566 100.354 91.9768 94.0059 87.4263 91.3655C85.0106 89.961 82.8196 89.9329 81.3027 90.9722C82.7072 90.5228 84.4769 90.7756 86.387 91.8711C90.9375 94.5115 94.6172 100.86 94.6172 106.084C94.6453 108.556 93.8307 110.298 92.5105 111.197Z" fill="#AFB6E5"/>
<path d="M87.4264 118.866C78.7467 113.866 71.7242 101.731 71.7242 91.759C71.7242 86.8713 73.4096 83.4444 76.1624 81.7871C72.8197 83.1635 70.713 86.8152 70.713 92.2646C70.713 102.208 77.7354 114.343 86.4152 119.371C90.8252 121.927 94.814 122.124 97.6791 120.382C94.9263 121.534 91.3589 121.141 87.4264 118.866Z" fill="#AFB6E5"/>
<path d="M80.2073 97.7697C80.2073 101.702 82.9882 106.506 86.4151 108.5C88.8589 109.904 90.9375 109.511 91.9769 107.77C91.1061 107.798 90.151 107.517 89.1117 106.927C85.6848 104.933 82.9039 100.157 82.9039 96.1967C82.9039 95.045 83.1567 94.118 83.578 93.3877C81.5556 93.4158 80.2073 95.0169 80.2073 97.7697Z" fill="url(#paint13_linear_377_414)"/>
<path d="M55.4884 38.2197L57.5389 43.2478C58.0726 43.4725 58.6063 43.7534 59.14 44.0624C59.6737 44.3714 60.2355 44.7366 60.7412 45.1017L62.4546 42.8826C62.2299 42.7422 62.0052 42.6017 61.7805 42.4894C61.2468 42.1804 60.685 41.8995 60.1794 41.6748L58.1288 36.6467C56.2187 36.0287 54.4491 35.8602 52.876 36.113L50.2075 37.686C51.8367 37.4332 53.6064 37.6018 55.4884 38.2197Z" fill="#C6CCF4"/>
<path d="M68.1007 47.9949L67.1737 51.8432C68.0164 53.1072 68.8029 54.4274 69.449 55.7757L73.2692 56.9274C74.2804 59.3431 75.0388 61.815 75.4602 64.2307L78.1287 62.6577C77.7074 60.242 76.9489 57.7701 75.9377 55.3544L72.1175 54.2027C71.4433 52.8544 70.6849 51.5061 69.8422 50.2701L70.7692 46.4219C69.1681 44.3432 67.3984 42.4612 65.5164 40.8882L62.8479 42.4612C64.7299 44.0342 66.4996 45.9162 68.1007 47.9949Z" fill="#C6CCF4"/>
<path d="M54.7861 56.5064C54.7861 59.2872 56.7524 62.658 59.1681 64.0625C61.1063 65.1861 62.7355 64.6805 63.3253 63.0232C62.8759 62.9389 62.3703 62.7704 61.8647 62.4614C59.449 61.0569 57.4827 57.6861 57.4827 54.9052C57.4827 54.3435 57.567 53.8659 57.7074 53.4446C55.9939 53.1918 54.7861 54.3435 54.7861 56.5064Z" fill="url(#paint14_linear_377_414)"/>
<path d="M74.8984 64.9891C74.8984 64.7644 74.8984 64.5397 74.8703 64.3149L72.1175 64.652C72.1737 65.2981 72.2299 65.9441 72.2299 66.5621C72.2299 67.1801 72.2018 67.7981 72.1175 68.3599L75.4602 72.6576C75.0388 74.5958 74.2804 76.1969 73.2692 77.4328L75.9377 75.8598C76.9489 74.6239 77.7074 73.0228 78.1287 71.0846L74.786 66.7868C74.8422 66.1969 74.8984 65.6071 74.8984 64.9891Z" fill="#AFB6E5"/>
<path d="M47.7356 39.0625L45.039 40.6355L48.8592 43.8939L51.5558 42.3209L47.7356 39.0625Z" fill="#AFB6E5"/>
<path d="M42.8761 53.8374L45.5446 52.2644L48.8873 51.8149L46.2188 53.4161L42.8761 53.8374Z" fill="#AFB6E5"/>
<path d="M55.4883 75.6354L58.185 74.0342L60.2355 71.3657L57.5389 72.9668L55.4883 75.6354Z" fill="#AFB6E5"/>
<path d="M74.786 66.7871L72.1175 68.3601L75.4602 72.6579L78.1287 71.0848L74.786 66.7871Z" fill="#C6CCF4"/>
<path d="M72.2298 66.5622C72.2298 65.9442 72.2017 65.2982 72.1174 64.6521L75.4601 64.2308C75.0387 61.8151 74.2803 59.3432 73.2691 56.9275L69.4489 55.7758C68.7747 54.4275 68.0163 53.0792 67.1736 51.8432L68.1006 47.9949C66.4995 45.9163 64.7298 44.0343 62.8478 42.4613L60.7973 45.1298C60.2635 44.7365 59.7298 44.3994 59.1961 44.0905C58.6624 43.7815 58.1006 43.5006 57.595 43.2759L55.5445 38.2478C53.6344 37.6298 51.8647 37.4613 50.2917 37.7141L51.2187 42.6298C50.376 42.9107 49.5895 43.332 48.9434 43.9219L45.1232 40.6635C44.112 41.8995 43.3535 43.5006 42.9322 45.4388L46.2749 49.7365C46.2187 50.2983 46.1625 50.8882 46.1625 51.5342C46.1625 52.1522 46.1906 52.7983 46.2749 53.4443L42.9322 53.8657C43.3535 56.2814 44.112 58.7533 45.1232 61.169L48.9434 62.3207C49.6175 63.669 50.376 65.0173 51.2187 66.2532L50.2917 70.1015C51.8928 72.1802 53.6625 74.0622 55.5445 75.6352L57.595 72.9667C58.1287 73.3599 58.6624 73.697 59.1961 74.006C59.7298 74.315 60.2916 74.5959 60.7973 74.8206L62.8478 79.8486C64.7579 80.4666 66.5276 80.6352 68.1006 80.3824L67.1736 75.4667C68.0163 75.1858 68.8028 74.7644 69.4489 74.1745L73.2691 77.4329C74.2803 76.197 75.0387 74.5959 75.4601 72.6577L72.1174 68.36C72.1736 67.7982 72.2298 67.2083 72.2298 66.5622ZM59.1681 64.0622C56.7523 62.6578 54.786 59.287 54.786 56.5061C54.786 53.7252 56.7523 52.6016 59.1681 54.0061C61.5838 55.4106 63.55 58.7814 63.55 61.5622C63.55 64.3431 61.5838 65.4667 59.1681 64.0622Z" fill="url(#paint15_linear_377_414)"/>
<path d="M46.1906 53.4165L42.9322 53.8378C42.9322 53.8659 42.9603 53.9221 42.9603 53.9502L46.1906 53.5289C46.1906 53.4727 46.1906 53.4446 46.1906 53.4165Z" fill="url(#paint16_radial_377_414)"/>
<path d="M55.4602 38.3321L57.5107 43.3601C58.0444 43.5849 58.5782 43.8658 59.1119 44.1747C59.6456 44.4837 60.2074 44.8489 60.713 45.2141L62.7635 42.5455C64.6736 44.1186 66.4433 46.0006 68.0163 48.0792L67.0893 51.9275C67.932 53.1915 68.7185 54.5118 69.3646 55.8601L73.1848 57.0117C74.1679 59.3713 74.9264 61.8151 75.3477 64.2027L75.4601 64.1746C75.0387 61.7589 74.2803 59.287 73.2691 56.8713L69.4489 55.7196C68.7747 54.3713 68.0163 53.023 67.1736 51.7871L68.1006 47.9388C66.4995 45.8601 64.7298 43.9781 62.8478 42.4051L60.7972 45.0736C60.2635 44.6804 59.7298 44.3433 59.1961 44.0343C58.6624 43.7253 58.1006 43.4444 57.595 43.2197L55.5445 38.1916C53.6344 37.5737 51.8647 37.4051 50.2917 37.6579L50.3198 37.7703C51.8928 37.5456 53.6344 37.7141 55.4602 38.3321Z" fill="url(#paint17_radial_377_414)"/>
<path d="M54.758 56.6185C54.758 59.3994 56.7243 62.7701 59.14 64.1746C60.7973 65.1297 62.2579 64.905 62.9883 63.7533C62.2299 64.7926 60.8254 64.9611 59.2242 64.0342C56.8085 62.6297 54.8423 59.2589 54.8423 56.4781C54.8423 55.6073 55.0389 54.905 55.376 54.3994C54.9827 54.9331 54.758 55.6634 54.758 56.6185Z" fill="url(#paint18_radial_377_414)"/>
<path d="M72.2859 66.5624C72.2859 65.9725 72.2578 65.3826 72.2016 64.7646H72.0893C72.1455 65.4107 72.2016 66.0568 72.2016 66.6747C72.2016 67.2927 72.1736 67.9107 72.0893 68.4725L75.432 72.7702C75.0668 74.4556 74.4488 75.8882 73.6342 77.0679C74.505 75.8882 75.1511 74.3994 75.5443 72.6578L72.2016 68.3601C72.2578 67.7702 72.2859 67.1804 72.2859 66.5624Z" fill="url(#paint19_radial_377_414)"/>
<path d="M67.1455 75.5789L68.0444 80.3822C68.0725 80.3822 68.1287 80.3822 68.1567 80.3822L67.2579 75.5508C67.2298 75.5508 67.2017 75.5789 67.1455 75.5789Z" fill="url(#paint20_radial_377_414)"/>
<path d="M45.0109 40.7476L48.8311 44.006C49.5052 43.4161 50.2637 42.9667 51.1063 42.7139L51.0782 42.6296C50.2636 42.9105 49.5333 43.3319 48.9154 43.8937L45.0951 40.6353C44.9547 40.8038 44.8423 40.9442 44.73 41.1409C44.8423 40.9723 44.9266 40.86 45.0109 40.7476Z" fill="url(#paint21_radial_377_414)"/>
<path d="M59.1681 46.0289C52.9041 42.4053 47.8479 45.2985 47.8479 52.4895C47.8479 59.6805 52.9322 68.4164 59.1681 72.0399C65.4321 75.6635 70.4882 72.7703 70.4882 65.5793C70.4882 58.3883 65.4321 49.6524 59.1681 46.0289ZM59.1681 66.1411C55.7411 64.1748 52.9883 59.3996 52.9883 55.467C52.9883 51.5625 55.7692 49.9614 59.1681 51.9558C62.595 53.9221 65.3478 58.6973 65.3478 62.6299C65.3478 66.5344 62.5669 68.1074 59.1681 66.1411Z" fill="url(#paint22_linear_377_414)"/>
<path d="M65.8535 61.5905C65.8535 57.686 63.0726 52.9108 59.6738 50.9164C56.921 49.3434 54.6176 50.0456 53.803 52.4052C54.8704 50.8883 56.8648 50.6074 59.1682 51.9276C62.5951 53.8939 65.3479 58.6692 65.3479 62.6017C65.3479 63.3601 65.2355 64.0343 65.0389 64.6242C65.5445 63.8938 65.8535 62.8826 65.8535 61.5905Z" fill="#AFB6E5"/>
<path d="M59.6737 71.0285C53.4097 67.405 48.3535 58.6691 48.3535 51.4781C48.3535 49.8489 48.6344 48.4444 49.1119 47.2646C48.2973 48.5849 47.8479 50.3545 47.8479 52.4893C47.8479 59.6803 52.9322 68.4162 59.1681 72.0398C63.9995 74.8207 68.1006 73.7252 69.7298 69.7926C67.8478 72.8825 64.0557 73.5566 59.6737 71.0285Z" fill="#AFB6E5"/>
<path d="M60.2355 41.6748L57.5389 43.2478L55.4883 38.2198L58.185 36.6187L60.2355 41.6748Z" fill="#AFB6E5"/>
<path d="M68.1007 47.9949L70.7692 46.4219L69.8703 50.2702L67.1737 51.8432L68.1007 47.9949Z" fill="#AFB6E5"/>
<path d="M72.1456 54.2026L75.9658 55.3543L73.2692 56.9273L69.449 55.7757L72.1456 54.2026Z" fill="#AFB6E5"/>
</g>
<defs>
<linearGradient id="paint0_linear_377_414" x1="-7.97034" y1="163.228" x2="58.6435" y2="70.451" gradientUnits="userSpaceOnUse">
<stop stop-color="#B9BFEA"/>
<stop offset="0.3889" stop-color="#CED3F4"/>
<stop offset="0.6747" stop-color="#DEE2FC"/>
<stop offset="0.7828" stop-color="#E5E9FF"/>
<stop offset="1" stop-color="#EFF1FF"/>
</linearGradient>
<linearGradient id="paint1_linear_377_414" x1="12.9127" y1="87.197" x2="100.777" y2="117.67" gradientUnits="userSpaceOnUse">
<stop stop-color="#00C7C5"/>
<stop offset="0.3301" stop-color="#2D9BE0"/>
<stop offset="0.6313" stop-color="#5277F7"/>
<stop offset="0.6913" stop-color="#5B76F7"/>
<stop offset="0.7887" stop-color="#7374F6"/>
<stop offset="0.9106" stop-color="#9A70F4"/>
<stop offset="1" stop-color="#BB6DF3"/>
</linearGradient>
<linearGradient id="paint2_linear_377_414" x1="34.3424" y1="153.269" x2="98.9152" y2="88.8817" gradientUnits="userSpaceOnUse">
<stop stop-color="#B9BFEA"/>
<stop offset="0.3889" stop-color="#CED3F4"/>
<stop offset="0.6747" stop-color="#DEE2FC"/>
<stop offset="0.7828" stop-color="#E5E9FF"/>
<stop offset="1" stop-color="#EFF1FF"/>
</linearGradient>
<radialGradient id="paint3_radial_377_414" cx="0" cy="0" r="1" gradientUnits="userSpaceOnUse" gradientTransform="translate(83.2344 78.4247) scale(5.04769)">
<stop stop-color="white"/>
<stop offset="1"/>
</radialGradient>
<radialGradient id="paint4_radial_377_414" cx="0" cy="0" r="1" gradientUnits="userSpaceOnUse" gradientTransform="translate(86.0013 102.207) scale(6.61898 6.61897)">
<stop stop-color="white"/>
<stop offset="1"/>
</radialGradient>
<radialGradient id="paint5_radial_377_414" cx="0" cy="0" r="1" gradientUnits="userSpaceOnUse" gradientTransform="translate(97.6272 90.0984) scale(8.91109)">
<stop stop-color="white"/>
<stop offset="1"/>
</radialGradient>
<radialGradient id="paint6_radial_377_414" cx="0" cy="0" r="1" gradientUnits="userSpaceOnUse" gradientTransform="translate(69.1073 101.826) scale(0.932521 0.932522)">
<stop stop-color="white"/>
<stop offset="1"/>
</radialGradient>
<radialGradient id="paint7_radial_377_414" cx="0" cy="0" r="1" gradientUnits="userSpaceOnUse" gradientTransform="translate(72.9664 77.7185) scale(3.78149)">
<stop stop-color="white"/>
<stop offset="1"/>
</radialGradient>
<radialGradient id="paint8_radial_377_414" cx="0" cy="0" r="1" gradientUnits="userSpaceOnUse" gradientTransform="translate(104.978 109.026) scale(5.53652 5.53651)">
<stop stop-color="white"/>
<stop offset="1"/>
</radialGradient>
<radialGradient id="paint9_radial_377_414" cx="0" cy="0" r="1" gradientUnits="userSpaceOnUse" gradientTransform="translate(103.665 119.529) scale(3.19709)">
<stop stop-color="white"/>
<stop offset="1"/>
</radialGradient>
<radialGradient id="paint10_radial_377_414" cx="0" cy="0" r="1" gradientUnits="userSpaceOnUse" gradientTransform="translate(95.0428 126.468) scale(1.41574 1.41572)">
<stop stop-color="white"/>
<stop offset="1"/>
</radialGradient>
<radialGradient id="paint11_radial_377_414" cx="0" cy="0" r="1" gradientUnits="userSpaceOnUse" gradientTransform="translate(67.0975 87.0236) scale(1.28359 1.28358)">
<stop stop-color="white"/>
<stop offset="1"/>
</radialGradient>
<linearGradient id="paint12_linear_377_414" x1="16.422" y1="77.0786" x2="104.286" y2="107.552" gradientUnits="userSpaceOnUse">
<stop stop-color="#00C7C5"/>
<stop offset="0.3301" stop-color="#2D9BE0"/>
<stop offset="0.6313" stop-color="#5277F7"/>
<stop offset="0.6913" stop-color="#5B76F7"/>
<stop offset="0.7887" stop-color="#7374F6"/>
<stop offset="0.9106" stop-color="#9A70F4"/>
<stop offset="1" stop-color="#BB6DF3"/>
</linearGradient>
<linearGradient id="paint13_linear_377_414" x1="80.301" y1="95.1646" x2="90.3209" y2="109.36" gradientUnits="userSpaceOnUse">
<stop stop-color="#AFB6E5"/>
<stop offset="0.4697" stop-color="#D1D5F0"/>
<stop offset="0.796" stop-color="#B8BEE8"/>
<stop offset="0.9949" stop-color="#AFB6E5"/>
</linearGradient>
<linearGradient id="paint14_linear_377_414" x1="55.0008" y1="54.5304" x2="61.8663" y2="64.1792" gradientUnits="userSpaceOnUse">
<stop stop-color="#AFB6E5"/>
<stop offset="0.4697" stop-color="#D1D5F0"/>
<stop offset="0.796" stop-color="#B8BEE8"/>
<stop offset="0.9949" stop-color="#AFB6E5"/>
</linearGradient>
<linearGradient id="paint15_linear_377_414" x1="16.1454" y1="138.396" x2="65.1316" y2="48.0313" gradientUnits="userSpaceOnUse">
<stop stop-color="#B9BFEA"/>
<stop offset="0.3889" stop-color="#CED3F4"/>
<stop offset="0.6747" stop-color="#DEE2FC"/>
<stop offset="0.7828" stop-color="#E5E9FF"/>
<stop offset="1" stop-color="#EFF1FF"/>
</linearGradient>
<radialGradient id="paint16_radial_377_414" cx="0" cy="0" r="1" gradientUnits="userSpaceOnUse" gradientTransform="translate(44.5644 53.6641) scale(1.16573 1.16572)">
<stop stop-color="white"/>
<stop offset="1"/>
</radialGradient>
<radialGradient id="paint17_radial_377_414" cx="0" cy="0" r="1" gradientUnits="userSpaceOnUse" gradientTransform="translate(66.7685 52.0523) scale(12.9807 12.9807)">
<stop stop-color="white"/>
<stop offset="1"/>
</radialGradient>
<radialGradient id="paint18_radial_377_414" cx="0" cy="0" r="1" gradientUnits="userSpaceOnUse" gradientTransform="translate(57.1633 61.0688) scale(4.67764 4.67764)">
<stop stop-color="white"/>
<stop offset="1"/>
</radialGradient>
<radialGradient id="paint19_radial_377_414" cx="0" cy="0" r="1" gradientUnits="userSpaceOnUse" gradientTransform="translate(73.8118 70.897) scale(4.51365 4.51365)">
<stop stop-color="white"/>
<stop offset="1"/>
</radialGradient>
<radialGradient id="paint20_radial_377_414" cx="0" cy="0" r="1" gradientUnits="userSpaceOnUse" gradientTransform="translate(67.6609 77.9624) scale(1.74829 1.74827)">
<stop stop-color="white"/>
<stop offset="1"/>
</radialGradient>
<radialGradient id="paint21_radial_377_414" cx="0" cy="0" r="1" gradientUnits="userSpaceOnUse" gradientTransform="translate(47.9361 42.3062) scale(2.55291 2.5529)">
<stop stop-color="white"/>
<stop offset="1"/>
</radialGradient>
<linearGradient id="paint22_linear_377_414" x1="26.5961" y1="47.7429" x2="114.461" y2="78.2161" gradientUnits="userSpaceOnUse">
<stop stop-color="#00C7C5"/>
<stop offset="0.3301" stop-color="#2D9BE0"/>
<stop offset="0.6313" stop-color="#5277F7"/>
<stop offset="0.6913" stop-color="#5B76F7"/>
<stop offset="0.7887" stop-color="#7374F6"/>
<stop offset="0.9106" stop-color="#9A70F4"/>
<stop offset="1" stop-color="#BB6DF3"/>
</linearGradient>
<clipPath id="clip0_377_414">
<rect width="100" height="100" fill="white" transform="translate(10 36)"/>
</clipPath>
</defs>
</svg>
