<svg width="60" height="60" viewBox="0 0 60 60" fill="none" xmlns="http://www.w3.org/2000/svg">
<path d="M56.3086 35.297C55.9922 34.9103 55.5117 34.6876 54.9609 34.6876H51.6094V28.8751C51.6094 27.9728 50.9883 27.1993 50.1445 26.9767L52.9922 15.5392C53.0273 15.422 53.0391 15.3048 53.0391 15.1993C53.0391 14.5665 52.6055 13.9923 51.9727 13.8282L48.9492 13.0782L46.8047 1.26573C46.6641 0.504009 45.9375 0.000102311 45.1758 0.140727L16.9453 5.27354C16.1953 5.41417 15.6797 6.15245 15.8203 6.90245L16.1953 8.97666H15.3047C14.5313 8.97666 13.8984 9.60948 13.8984 10.3829V22.3126H5.29688C4.21875 22.3126 3.33984 23.1798 3.33984 24.2579V57.9142C3.33984 57.9728 3.35156 58.0548 3.375 58.1485C3.48047 59.1329 4.3125 59.8712 5.32031 59.8712H49.3711C50.3203 59.8712 51.2695 59.1681 51.5625 58.2775C51.5859 58.2306 51.6211 58.1368 51.6328 58.0079L56.6016 36.797V36.7853C56.7305 36.2345 56.6133 35.6954 56.3086 35.297ZM50.3555 28.8751V34.6876H48.2344L49.8516 28.1837C50.1445 28.2774 50.3555 28.547 50.3555 28.8751ZM48.2695 14.2032L51.6797 15.047C51.75 15.0704 51.7969 15.1524 51.7852 15.2345L47.25 33.4337L46.9336 34.6876H45.3984V13.4884L48.2578 14.2032H48.2695ZM17.1797 6.51573L45.3984 1.38292C45.4805 1.3712 45.5508 1.42979 45.5742 1.5001L47.6133 12.7501L45.3984 12.1993V10.3829C45.3984 9.60948 44.7656 8.97666 43.9922 8.97666H17.4727L17.0625 6.67979C17.0508 6.60948 17.1094 6.52745 17.1797 6.51573ZM15.1523 10.3829C15.1523 10.3009 15.2227 10.2423 15.3047 10.2423H16.9453H16.957H43.9922C44.0742 10.2423 44.1328 10.3126 44.1328 10.3829V34.6876H15.1523V10.3829ZM4.60547 24.2579C4.60547 23.8829 4.91016 23.5665 5.29688 23.5665H13.8984V34.6876H10.6406C9.59766 34.6876 8.60156 35.4845 8.36719 36.504L4.60547 52.629V24.2579ZM55.3828 36.504L50.4141 57.7853L50.3789 57.8439C50.2383 58.254 49.7812 58.6173 49.3711 58.6173H5.32031C4.98047 58.6173 4.6875 58.3829 4.62891 58.0665L9.59766 36.7853C9.70312 36.34 10.1836 35.9415 10.6406 35.9415H54.9609C55.0781 35.9415 55.2188 35.965 55.3125 36.0821C55.3945 36.1876 55.418 36.3282 55.3828 36.504Z" fill="#263238"/>
<path d="M50.3555 28.875V34.6875H48.2344L49.8516 28.1836C50.1445 28.2773 50.3555 28.5469 50.3555 28.875Z" fill="white"/>
<path d="M13.8984 23.5664V34.6875H10.6406C9.59766 34.6875 8.60156 35.4844 8.36719 36.5039L4.60547 52.6289V24.2578C4.60547 23.8828 4.91016 23.5664 5.29688 23.5664H13.8984Z" fill="white"/>
<path d="M55.3125 36.082C55.2188 35.9648 55.0781 35.9414 54.9609 35.9414H10.6406C10.1836 35.9414 9.70312 36.3398 9.59766 36.7852L4.62891 58.0664C4.6875 58.3828 4.98047 58.6172 5.32031 58.6172H49.3711C49.7812 58.6172 50.2383 58.2656 50.3789 57.8438L50.4141 57.7852L55.3828 36.5039C55.418 36.3281 55.3945 36.1875 55.3125 36.082ZM49.9336 50.0742L48.6797 55.3477C48.5508 55.7344 48.1523 56.0273 47.707 56.0273H37.043C36.5508 56.0273 36.1406 55.6523 36.0938 55.1602L36.082 55.0781L36.1055 54.9258L37.3125 49.7812C37.418 49.3125 37.8516 48.9727 38.332 48.9727H49.0547C49.3359 48.9727 49.582 49.0898 49.7461 49.3008C49.875 49.4531 49.9453 49.6523 49.9453 49.8633C49.957 49.9336 49.957 50.0039 49.9336 50.0742Z" fill="white"/>
<path d="M51.7734 15.2344L47.2383 33.4336L46.9219 34.6875H45.3867V13.4883L48.2461 14.2031H48.2578L51.668 15.0469C51.75 15.0703 51.7969 15.1523 51.7734 15.2344Z" fill="#D2EBD3"/>
<path d="M45.3868 12.1875V10.3828C45.3868 9.60941 44.7539 8.9766 43.9805 8.9766H17.4727L17.0625 6.67972C17.0508 6.60941 17.1094 6.52738 17.1797 6.50394L45.3985 1.37113C45.4805 1.35941 45.5508 1.418 45.5743 1.48832L47.6133 12.7383L45.3868 12.1875Z" fill="#D2EBD3"/>
<path d="M43.9922 10.2422H16.957C16.9453 10.2422 16.9453 10.2422 16.9453 10.2422H15.3047C15.2227 10.2422 15.1523 10.3008 15.1523 10.3828V34.6875H44.1328V10.3828C44.1328 10.3125 44.0742 10.2422 43.9922 10.2422ZM31.8633 32.6953H19.5C19.1484 32.6953 18.8672 32.4141 18.8672 32.0625C18.8672 31.7109 19.1484 31.4297 19.5 31.4297H31.8633C32.2148 31.4297 32.4961 31.7109 32.4961 32.0625C32.4844 32.4141 32.2148 32.6953 31.8633 32.6953ZM31.1953 28.3008C30.6914 28.4063 30.1641 28.4531 29.6484 28.4531C27.668 28.4531 25.7813 27.7031 24.3516 26.3438C22.8164 24.9023 21.9258 22.8516 21.9258 20.7305C21.9258 16.4766 25.3828 13.0078 29.6484 13.0078C33.9023 13.0078 37.3711 16.4766 37.3711 20.7305C37.3711 22.7461 36.5977 24.6562 35.2031 26.0977H35.1914C34.4648 26.8594 33.6094 27.4453 32.6836 27.832C32.2031 28.043 31.7109 28.1953 31.1953 28.3008ZM39.7852 32.6953H35.543C35.1914 32.6953 34.9102 32.4141 34.9102 32.0625C34.9102 31.7109 35.1914 31.4297 35.543 31.4297H39.7852C40.1367 31.4297 40.418 31.7109 40.418 32.0625C40.418 32.4141 40.1367 32.6953 39.7852 32.6953Z" fill="#D2EBD3"/>
<path d="M49.7695 49.3008C49.6055 49.0898 49.3477 48.9727 49.0781 48.9727H38.3555C37.8867 48.9727 37.4531 49.3242 37.3359 49.7812L36.1289 54.9258L36.1055 55.0781L36.1172 55.1602C36.1641 55.6523 36.5742 56.0273 37.0664 56.0273H47.7305C48.1758 56.0273 48.5742 55.7344 48.7031 55.3477L49.957 50.0742C49.9805 50.0039 49.9805 49.9336 49.9805 49.8633C49.957 49.6523 49.8984 49.4531 49.7695 49.3008ZM47.543 54.7617H37.4531L38.5078 50.2266H48.5859L47.543 54.7617Z" fill="#263238"/>
<path d="M48.5977 50.2383L47.543 54.7617H37.4648L38.5195 50.2383H48.5977Z" fill="#C8E6C9"/>
<path d="M29.6484 13.0078C25.3828 13.0078 21.9258 16.4766 21.9258 20.7305C21.9258 22.8516 22.8047 24.9023 24.3516 26.3438C25.793 27.7031 27.668 28.4531 29.6484 28.4531C30.1758 28.4531 30.6914 28.4063 31.1953 28.3008C31.7109 28.1953 32.2031 28.043 32.6836 27.832C33.6094 27.4336 34.4648 26.8477 35.1914 26.0977H35.2031C36.5977 24.6562 37.3711 22.7461 37.3711 20.7305C37.3711 16.4766 33.9023 13.0078 29.6484 13.0078ZM34.125 25.3711C34.1133 25.6641 33.1875 26.1445 32.9648 26.2617C32.4375 26.5664 31.875 26.8008 31.2891 26.9531C30.5625 27.1406 29.8008 27.1992 29.0508 27.1289C27.7734 27.0117 26.543 26.5312 25.5469 25.7109C25.5 25.6641 25.4414 25.6172 25.3945 25.5703C25.3828 25.4766 25.3828 25.3945 25.3828 25.3125C25.3828 23.5547 26.4375 21.9727 28.0312 21.293C28.0664 21.3047 28.0898 21.3164 28.125 21.3398C28.1836 21.375 28.2539 21.3984 28.3125 21.4336C29.2148 21.8672 30.293 21.8672 31.207 21.4336C31.2656 21.3984 31.3242 21.375 31.3945 21.3398C31.4297 21.3164 31.4531 21.3047 31.4883 21.293C33.082 21.9727 34.1367 23.5547 34.1367 25.3125V25.3711H34.125ZM27.668 18.4336C27.668 17.2852 28.6055 16.3594 29.7422 16.3594C30.8906 16.3594 31.8164 17.2969 31.8164 18.4336C31.8164 19.0898 31.5234 19.6992 31.0078 20.0859C30.457 20.5078 29.7187 20.6133 29.0859 20.4023C28.875 20.332 28.6641 20.2266 28.4766 20.0859C27.9727 19.6875 27.668 19.0898 27.668 18.4336ZM32.4609 20.3789C32.8594 19.8164 33.082 19.1484 33.082 18.4336C33.082 16.5938 31.5938 15.0938 29.7422 15.0938C27.9023 15.0938 26.4023 16.5938 26.4023 18.4336C26.4023 19.1484 26.625 19.8164 27.0352 20.3789C25.5703 21.1875 24.5508 22.6055 24.2227 24.2461C23.543 23.2148 23.1797 22.0078 23.1797 20.7305C23.1797 17.168 26.0742 14.2734 29.6367 14.2734C33.1992 14.2734 36.0938 17.168 36.0938 20.7305C36.0938 21.9023 35.7773 23.0156 35.2031 24C34.8398 22.4648 33.8555 21.1406 32.4609 20.3789Z" fill="#263238"/>
<path d="M31.8281 18.4337C31.8281 19.09 31.5352 19.6993 31.0195 20.086C30.4688 20.5079 29.7305 20.6134 29.0977 20.4025C28.8867 20.3321 28.6758 20.2267 28.4883 20.086C27.9727 19.6876 27.668 19.0782 27.668 18.4337C27.668 17.2853 28.6055 16.3595 29.7422 16.3595C30.8906 16.3478 31.8281 17.2853 31.8281 18.4337Z" fill="white"/>
<path d="M36.1055 20.7305C36.1055 21.9024 35.7891 23.0157 35.2148 24C34.8398 22.4649 33.8555 21.1407 32.4609 20.3789C32.8594 19.8164 33.082 19.1485 33.082 18.4336C33.082 16.5938 31.5938 15.0938 29.7422 15.0938C27.9023 15.0938 26.4023 16.5938 26.4023 18.4336C26.4023 19.1485 26.625 19.8164 27.0352 20.3789C25.5703 21.1875 24.5508 22.6055 24.2227 24.2461C23.543 23.2149 23.1797 22.0078 23.1797 20.7305C23.1797 17.168 26.0742 14.2735 29.6367 14.2735C33.2109 14.2618 36.1055 17.168 36.1055 20.7305Z" fill="#4CAF4F"/>
<path d="M34.125 25.3125V25.3711C34.1133 25.6641 33.1875 26.1445 32.9648 26.2617C32.4375 26.5664 31.875 26.8008 31.2891 26.9531C30.5625 27.1406 29.8008 27.1992 29.0508 27.1289C27.7734 27.0117 26.543 26.5312 25.5469 25.7109C25.5 25.6641 25.4414 25.6172 25.3945 25.5703C25.3828 25.4766 25.3828 25.3945 25.3828 25.3125C25.3828 23.5547 26.4375 21.9727 28.0312 21.293C28.0664 21.3047 28.0898 21.3164 28.125 21.3398C28.1836 21.375 28.2539 21.3984 28.3125 21.4336C29.2148 21.8672 30.293 21.8672 31.207 21.4336C31.2656 21.3984 31.3242 21.375 31.3945 21.3398C31.4297 21.3164 31.4531 21.3047 31.4883 21.293C33.0703 21.9727 34.125 23.5547 34.125 25.3125Z" fill="white"/>
<path d="M32.4844 32.0625C32.4844 32.4141 32.2031 32.6953 31.8516 32.6953H19.5C19.1484 32.6953 18.8672 32.4141 18.8672 32.0625C18.8672 31.7109 19.1484 31.4297 19.5 31.4297H31.8633C32.2148 31.4297 32.4844 31.7109 32.4844 32.0625Z" fill="#263238"/>
<path d="M40.418 32.0625C40.418 32.4141 40.1367 32.6953 39.7852 32.6953H35.543C35.1914 32.6953 34.9102 32.4141 34.9102 32.0625C34.9102 31.7109 35.1914 31.4297 35.543 31.4297H39.7852C40.1367 31.4297 40.418 31.7109 40.418 32.0625Z" fill="#263238"/>
</svg>
