<svg width="60" height="60" viewBox="0 0 60 60" fill="none" xmlns="http://www.w3.org/2000/svg">
<path d="M31.5469 6.52734H14.4844C13.8047 6.52734 13.2539 7.07812 13.2539 7.75781V11.707C13.2539 12.375 13.8047 12.9375 14.4844 12.9375H31.5586C32.2266 12.9375 32.7891 12.3867 32.7891 11.707V7.75781C32.7773 7.07812 32.2266 6.52734 31.5469 6.52734ZM31.5117 11.6719L14.5078 11.707L14.4727 7.79297L31.5117 7.75781V11.6719Z" fill="#263238"/>
<path d="M41.9883 22.582C35.9648 22.582 31.0664 27.4805 31.0664 33.5039C31.0664 39.5273 35.9648 44.4258 41.9883 44.4258C48.0117 44.4258 52.9102 39.5273 52.9102 33.5039C52.9102 27.4805 48 22.582 41.9883 22.582ZM41.9883 43.1719C36.668 43.1719 32.332 38.8359 32.332 33.5156C32.332 28.1836 36.668 23.8477 41.9883 23.8477C47.3203 23.8477 51.6562 28.1836 51.6562 33.5156C51.6445 38.8359 47.3086 43.1719 41.9883 43.1719Z" fill="#263238"/>
<path d="M59.8008 53.3789L53.1328 41.9883C53.2149 41.6719 53.2969 41.3672 53.4375 41.1562C53.5899 40.9219 53.8945 40.6992 54.2227 40.4648C54.7031 40.1133 55.2539 39.7266 55.5117 39.0938C55.7578 38.4844 55.6524 37.8281 55.5586 37.2422C55.5 36.8437 55.4414 36.4687 55.5 36.1875C55.5469 35.918 55.7461 35.6016 55.957 35.2734C56.2617 34.7812 56.6016 34.2187 56.625 33.6094C56.6484 32.9648 56.332 32.3555 56.0039 31.8164C55.8047 31.5 55.6055 31.1836 55.5234 30.8203C55.3008 29.8359 55.9219 28.875 55.5117 27.8906C55.2656 27.3047 54.7149 26.8359 54.1875 26.4844C53.625 26.1094 53.3203 25.6992 53.1445 25.0312C52.9688 24.4219 52.875 23.7773 52.4766 23.2852C52.0781 22.793 51.4219 22.5586 50.8008 22.4062C50.4375 22.3242 50.0625 22.2539 49.7344 22.0664C48.8438 21.5391 48.5977 20.3672 47.5899 19.957C46.6289 19.5586 45.7149 20.1211 44.7656 19.9687C44.0859 19.8633 43.5586 19.3125 42.9258 19.043C42.3398 18.7969 41.6484 18.7852 41.0625 19.0312C40.6289 19.2187 40.2656 19.5117 39.8555 19.7344C39.3047 20.0273 38.8242 20.0039 38.2266 19.8984C38.1211 19.875 38.0039 19.8633 37.8984 19.8516V3.30469C37.8984 2.25 37.0313 1.38281 35.9766 1.38281H8.40234C8.37891 1.38281 8.36719 1.39453 8.35547 1.39453C8.30859 1.39453 8.26172 1.40625 8.21484 1.41797C8.19141 1.42969 8.16797 1.44141 8.14453 1.44141C8.09766 1.46484 8.03906 1.5 8.00391 1.54687C7.99219 1.55859 7.98047 1.55859 7.96875 1.57031L3.70313 5.82422L0.292969 9.22265C0.234375 9.28125 0.199219 9.35156 0.164063 9.42187C0.152344 9.43359 0.152344 9.44531 0.152344 9.45703C0.128906 9.51562 0.117188 9.58594 0.117188 9.65625C0.117188 9.66797 0.105469 9.67969 0.105469 9.67969V48.2578C0.105469 49.3125 0.960938 50.1797 2.01563 50.1797H26.0391L24.1641 53.3906C24.0352 53.6133 24.0469 53.8945 24.2109 54.0938C24.375 54.3047 24.6445 54.3867 24.8906 54.3047L30.2227 52.6758L31.418 58.125C31.4766 58.3711 31.6875 58.5703 31.9453 58.6055C31.9805 58.6172 32.0039 58.6172 32.0391 58.6172C32.2617 58.6172 32.4727 58.5 32.5781 58.3008L39.1875 47.0156C39.2227 47.0273 39.2578 47.0273 39.293 47.0273C39.5625 47.0742 39.8672 47.2734 40.207 47.4727C40.7109 47.7891 41.2969 48.1406 41.9883 48.1406C42.668 48.1406 43.2422 47.7891 43.7578 47.4727C44.0859 47.2617 44.4024 47.0742 44.6719 47.0156C44.707 47.0039 44.7422 47.0039 44.7774 47.0039L51.375 58.2891C51.4922 58.4883 51.6914 58.6055 51.9141 58.6055C51.9492 58.6055 51.9844 58.5937 52.0195 58.5937C52.2774 58.5586 52.4766 58.3594 52.5352 58.1133L53.7422 52.6641L59.0742 54.293C59.3203 54.3633 59.5899 54.2812 59.7539 54.082C59.9063 53.8828 59.9297 53.6016 59.8008 53.3789ZM4.24219 7.06641L7.76953 3.53906V8.37891C7.76953 8.74219 7.47656 9.03516 7.11328 9.03516H2.26172L4.24219 7.06641ZM2.02734 48.9141C1.66406 48.9141 1.37109 48.6211 1.37109 48.2578V10.3008H7.11328C8.16797 10.3008 9.02344 9.43359 9.02344 8.37891V2.64844H35.9766C36.3398 2.64844 36.6328 2.94141 36.6328 3.30469V19.8984C36.5625 19.9219 36.5039 19.9453 36.4336 19.957C36.4102 19.9687 36.3867 19.9687 36.375 19.9805C35.4609 20.3555 35.1797 21.293 34.4883 21.9023C33.7617 22.5469 32.6602 22.3945 31.8633 22.9687C31.7813 23.0273 31.6992 23.0859 31.6289 23.1562C31.1719 23.6133 30.9727 24.3164 30.8086 24.9258C30.6211 25.6406 30.3047 26.0859 29.7188 26.5664C29.1797 27 28.582 27.4453 28.3828 28.1016C28.1367 28.9336 28.6055 29.8359 28.4766 30.6914C28.3242 31.7461 27.2578 32.5781 27.3281 33.6445C27.3867 34.5352 28.207 35.2031 28.418 36.0703C28.6289 36.9727 28.1367 37.9453 28.4063 38.8242C28.6523 39.6445 29.4609 40.1484 30.0938 40.7227C30.3164 40.9219 30.5391 41.1445 30.6563 41.4141C30.9844 42.0938 30.4219 42.6797 30.0938 43.2539C29.8711 43.6406 29.6484 44.0273 29.4258 44.4023L26.8008 48.9023H2.02734V48.9141ZM32.3203 56.2734L31.3711 51.9844L33.2695 48.9609C33.457 48.668 33.3633 48.2695 33.0703 48.0937C32.7774 47.9062 32.3906 48 32.2031 48.293L30.293 51.3281L26.0742 52.6172L29.6016 46.5938L31.3828 43.5469C31.4531 43.6523 31.5352 43.7578 31.6289 43.8516C31.875 44.1094 32.1914 44.2617 32.5195 44.3906C32.7891 44.4961 33.0703 44.5664 33.3281 44.625C33.5391 44.6719 33.7383 44.7305 33.9258 44.7773C34.0195 44.8125 34.1016 44.8359 34.1719 44.8828C34.2188 44.9062 34.2773 44.9297 34.3242 44.9648C34.4766 45.0703 34.6406 45.2578 34.793 45.457C34.8633 45.5508 34.9336 45.6445 35.0039 45.75C35.3555 46.2305 35.7422 46.7812 36.375 47.0391C36.5156 47.0977 36.6563 47.1328 36.7969 47.1562C36.832 47.168 36.8672 47.168 36.9023 47.168C37.0313 47.1914 37.1484 47.1914 37.2774 47.1914H37.3828C37.4766 47.1797 37.5586 47.1797 37.6406 47.168L32.3203 56.2734ZM43.1016 46.4062C43.043 46.4414 42.9844 46.4766 42.9141 46.5234C42.6563 46.6875 42.375 46.8516 42.082 46.875C41.5899 46.9102 41.168 46.5937 40.7578 46.3359C40.3242 46.0547 39.8555 45.8203 39.3399 45.7734C38.7188 45.7031 38.0977 45.8906 37.4649 45.9375C37.2422 45.9492 37.0078 45.9492 36.8086 45.8555C36.4453 45.6914 36.2578 45.3047 36.0469 44.9766C35.6016 44.3203 34.9336 43.8047 34.1836 43.5469C33.4805 43.3008 32.625 43.3594 32.2852 42.5508C32.1094 42.1406 32.0859 41.6719 31.957 41.2383C31.8047 40.7344 31.5 40.2773 31.1016 39.9258C30.5859 39.4805 29.8594 39.2109 29.6484 38.5078C29.4844 37.9805 29.6953 37.4297 29.7656 36.8789C29.8477 36.2344 29.707 35.5547 29.3789 34.9805C29.1914 34.6523 28.9336 34.3477 28.7695 34.0078C28.5234 33.4453 28.6992 33.082 29.0156 32.6133C29.4375 31.9922 29.6836 31.2656 29.7422 30.5273C29.7891 29.8594 29.3789 28.9922 29.6367 28.3828C29.6719 28.3125 29.707 28.2422 29.7656 28.1719C29.9414 27.9609 30.2109 27.7734 30.4922 27.5625C30.8906 27.2812 31.3008 26.9883 31.582 26.5547C31.8633 26.1328 31.9805 25.6406 32.0977 25.1602C32.2031 24.7031 32.3086 24.2695 32.5313 24.0469C32.5547 24.0234 32.5898 24.0117 32.6133 23.9883C33.082 23.625 33.7734 23.6367 34.3125 23.4375C34.9688 23.2031 35.543 22.7578 35.9531 22.1953C36.2578 21.7617 36.5156 21.2227 37.0195 21.0937C37.3359 21.0234 37.6641 21.1289 37.9805 21.1875C38.9883 21.4102 40.0898 21.1875 40.9453 20.6133C41.2031 20.4375 41.4609 20.2266 41.7656 20.1562C42.3867 20.0273 42.9258 20.543 43.4766 20.8711C43.9922 21.1641 44.5899 21.3164 45.1875 21.2695C45.7266 21.2344 46.2656 21.0469 46.793 21.0937C47.3555 21.1523 47.6133 21.5742 47.9414 22.0078C48.2227 22.4062 48.5156 22.8164 48.9375 23.0977C49.7227 23.625 51.1172 23.4492 51.6328 24.3164C51.8086 24.6094 51.8203 24.9609 51.8906 25.2891C52.0547 26.1445 52.5586 26.918 53.2734 27.4336C53.6836 27.7266 54.1992 27.9844 54.3633 28.4648C54.5156 28.8984 54.3399 29.3672 54.2578 29.8125C54.1289 30.5273 54.2461 31.2891 54.5859 31.9336C54.8203 32.3672 55.1719 32.7656 55.3008 33.2578C55.4297 33.8086 55.1602 34.1836 54.8789 34.6289C54.6328 35.0391 54.3633 35.4727 54.2578 35.9648C54.1641 36.4805 54.2344 36.9727 54.3164 37.4648C54.4219 38.1328 54.4922 38.6133 53.9649 39.0938C53.5195 39.5039 52.9688 39.7617 52.5703 40.2188C52.125 40.7461 51.9609 41.4492 51.7969 42.1289C51.7383 42.3867 51.6797 42.6562 51.5156 42.8672C51.2344 43.2187 50.7539 43.3242 50.3086 43.418C49.8164 43.5234 49.3125 43.6523 48.9023 43.9453C48.3867 44.2969 48.0586 44.8477 47.6719 45.3516C47.5195 45.5508 47.3438 45.75 47.1094 45.8672C46.5234 46.1719 45.8203 45.8555 45.1641 45.7969C44.3906 45.6797 43.7461 45.9844 43.1016 46.4062ZM53.707 51.3398L51.7969 48.293C51.6094 48 51.2227 47.9062 50.9297 48.0937C50.6367 48.2812 50.543 48.668 50.7305 48.9609L52.6055 51.9492L51.6563 56.2617L46.3359 47.1562C46.418 47.168 46.5 47.168 46.582 47.1797H46.6875C46.8047 47.1797 46.9336 47.168 47.0625 47.1562C47.0977 47.1562 47.1328 47.1445 47.1797 47.1445C47.3203 47.1211 47.4609 47.0859 47.5899 47.0273C47.6484 47.0039 47.6953 46.9688 47.7422 46.9336C48.2695 46.6523 48.6328 46.1719 48.9492 45.7266C49.1133 45.5039 49.2656 45.293 49.418 45.1289C49.4883 45.0586 49.5586 45 49.6289 44.9414C49.8281 44.8125 50.1211 44.7305 50.4375 44.6484C50.4961 44.6367 50.5664 44.6133 50.6367 44.6016C50.8711 44.543 51.1055 44.4844 51.3516 44.4023C51.7149 44.2852 52.0547 44.1211 52.3359 43.8398C52.4414 43.7461 52.5234 43.6406 52.582 43.5352L57.8906 52.6055L53.707 51.3398Z" fill="#263238"/>
<path d="M50.7305 48.9609L52.6055 51.9492L51.6562 56.2617L46.3359 47.1562C46.418 47.168 46.5 47.168 46.582 47.1797H46.6875C46.8047 47.1797 46.9336 47.168 47.0625 47.1562C47.0977 47.1562 47.1328 47.1445 47.1797 47.1445C47.3203 47.1211 47.4609 47.0859 47.5898 47.0273C47.6484 47.0039 47.6953 46.9687 47.7422 46.9336C48.2695 46.6523 48.6328 46.1719 48.9492 45.7266C49.1133 45.5039 49.2656 45.293 49.418 45.1289C49.4883 45.0586 49.5586 45 49.6289 44.9414C49.8281 44.8125 50.1211 44.7305 50.4375 44.6484C50.4961 44.6367 50.5664 44.6133 50.6367 44.6016C50.8711 44.543 51.1055 44.4844 51.3516 44.4023C51.7148 44.2852 52.0547 44.1211 52.3359 43.8398C52.4414 43.7461 52.5234 43.6406 52.582 43.5352L57.8906 52.6055L53.6953 51.3281L51.7852 48.2812C51.5977 47.9883 51.2109 47.8945 50.918 48.082C50.6367 48.2812 50.543 48.668 50.7305 48.9609Z" fill="#D2EBD3"/>
<path d="M37.6406 47.168L32.3203 56.2734L31.3711 51.9844L33.2695 48.9609C33.457 48.668 33.3633 48.2695 33.0703 48.0937C32.7773 47.9062 32.3906 48 32.2031 48.293L30.293 51.3281L26.0742 52.6172L29.6016 46.5937L31.3828 43.5469C31.4531 43.6523 31.5352 43.7578 31.6289 43.8516C31.875 44.1094 32.1914 44.2617 32.5195 44.3906C32.7891 44.4961 33.0703 44.5664 33.3281 44.625C33.5391 44.6719 33.7383 44.7305 33.9258 44.7773C34.0195 44.8125 34.1016 44.8359 34.1719 44.8828C34.2188 44.9062 34.2773 44.9297 34.3242 44.9648C34.4766 45.0703 34.6406 45.2578 34.793 45.457C34.8633 45.5508 34.9336 45.6445 35.0039 45.75C35.3555 46.2305 35.7422 46.7812 36.375 47.0391C36.5156 47.0977 36.6562 47.1328 36.7969 47.1562C36.832 47.168 36.8672 47.168 36.9023 47.168C37.0312 47.1914 37.1484 47.1914 37.2773 47.1914H37.3828C37.4648 47.1797 37.5586 47.1797 37.6406 47.168Z" fill="#D2EBD3"/>
<path d="M7.76953 3.53906V8.37891C7.76953 8.74219 7.47656 9.03516 7.11328 9.03516H2.26172L4.24219 7.05469L7.76953 3.53906Z" fill="#D2EBD3"/>
<path d="M54.8791 34.6172C55.1604 34.1719 55.4299 33.7969 55.301 33.2461C55.1838 32.7657 54.8322 32.3555 54.5861 31.9219C54.2346 31.2774 54.1174 30.5157 54.258 29.8008C54.3518 29.3555 54.5275 28.8868 54.3635 28.4532C54.1877 27.9727 53.6838 27.7266 53.2736 27.4219C52.5705 26.9063 52.0666 26.1329 51.8908 25.2774C51.8205 24.9493 51.7971 24.586 51.633 24.3047C51.1174 23.4375 49.7229 23.6133 48.9377 23.086C48.5158 22.8047 48.2229 22.3946 47.9416 21.9961C47.6252 21.5625 47.3674 21.1407 46.7932 21.0821C46.2541 21.0352 45.715 21.2227 45.1877 21.2579C44.6018 21.293 44.0041 21.1524 43.4768 20.8594C42.926 20.543 42.3869 20.0274 41.7658 20.1446C41.4494 20.2032 41.2033 20.4258 40.9455 20.6016C40.09 21.1758 39.0002 21.3985 37.9807 21.1758C37.6643 21.1172 37.3361 21.0118 37.0197 21.0821C36.5041 21.211 36.2463 21.75 35.9533 22.1836C35.5549 22.7461 34.9689 23.1914 34.3127 23.4258C33.7736 23.625 33.0822 23.6133 32.6135 23.9766C32.59 24 32.5549 24.0118 32.5314 24.0352C32.3088 24.2579 32.2033 24.6914 32.0979 25.1485C31.9807 25.6289 31.8635 26.1211 31.5822 26.543C31.301 26.9766 30.8791 27.2696 30.4924 27.5508C30.1994 27.7618 29.9299 27.9493 29.7658 28.1602C29.7072 28.2305 29.6604 28.3008 29.6369 28.3711C29.3791 28.9805 29.7893 29.8477 29.7424 30.5157C29.6838 31.2539 29.4377 31.9922 29.0158 32.6016C28.6994 33.0586 28.5236 33.4336 28.7697 33.9961C28.9221 34.3477 29.1799 34.6407 29.3791 34.9688C29.7072 35.5313 29.8479 36.211 29.7658 36.8672C29.7072 37.418 29.4846 37.9688 29.6486 38.4961C29.8596 39.1993 30.5979 39.4688 31.1018 39.9141C31.5002 40.2657 31.8049 40.7227 31.9572 41.2266C32.0861 41.6602 32.1096 42.1172 32.2854 42.5391C32.6252 43.3477 33.4807 43.2891 34.1838 43.5352C34.9338 43.8047 35.6018 44.3086 36.0471 44.9649C36.258 45.293 36.4455 45.6797 36.8088 45.8438C37.008 45.9375 37.2424 45.9375 37.465 45.9258C38.0979 45.8789 38.7189 45.6914 39.34 45.7618C39.8557 45.8204 40.3244 46.0547 40.758 46.3243C41.1682 46.5821 41.59 46.8985 42.0822 46.8633C42.3869 46.8399 42.6564 46.6758 42.9143 46.5118C42.9729 46.4766 43.0432 46.4414 43.1018 46.3946C43.7463 45.9844 44.4025 45.668 45.1877 45.7618C45.8439 45.8321 46.5471 46.1485 47.133 45.8321C47.3557 45.7149 47.5314 45.5157 47.6955 45.3164C48.0822 44.8243 48.4104 44.2618 48.926 43.9102C49.3361 43.6172 49.84 43.4883 50.3322 43.3829C50.7775 43.2891 51.258 43.1836 51.5393 42.8321C51.7033 42.6211 51.7619 42.3516 51.8205 42.0938C51.9729 41.4258 52.1369 40.711 52.5939 40.1836C52.9924 39.7266 53.5549 39.4688 53.9885 39.0586C54.5158 38.5782 54.4455 38.0977 54.34 37.4297C54.258 36.9375 54.1877 36.4336 54.2815 35.9297C54.3635 35.461 54.6213 35.0274 54.8791 34.6172ZM41.9885 44.4258C35.965 44.4258 31.0666 39.5274 31.0666 33.5039C31.0666 27.4805 35.965 22.5821 41.9885 22.5821C48.0119 22.5821 52.9104 27.4805 52.9104 33.5039C52.9104 39.5274 48.0002 44.4258 41.9885 44.4258Z" fill="white"/>
<path d="M41.9883 23.8359C36.668 23.8359 32.332 28.1719 32.332 33.5039C32.332 38.8242 36.668 43.1602 41.9883 43.1602C47.3203 43.1602 51.6562 38.8242 51.6562 33.5039C51.6445 28.1836 47.3086 23.8359 41.9883 23.8359ZM48.6914 32.3086L45.9609 34.9687L46.6055 38.7187C46.6641 39.0469 46.5352 39.3633 46.2656 39.5508C45.9961 39.75 45.6445 39.7734 45.3633 39.6211L41.9883 37.8516L38.625 39.6211C38.4961 39.6797 38.3555 39.7266 38.2266 39.7266C38.0508 39.7266 37.875 39.668 37.7227 39.5508C37.4531 39.3516 37.3242 39.0352 37.3828 38.7187L38.0273 34.9687L35.2969 32.3086C35.0625 32.0859 34.9805 31.7461 35.0742 31.4297C35.1797 31.125 35.4492 30.8906 35.7773 30.8438L39.5391 30.293L41.2266 26.8828C41.3672 26.5898 41.6719 26.4023 42 26.4023C42.3281 26.4023 42.6328 26.5898 42.7734 26.8828L44.4609 30.293L48.2227 30.8438C48.5508 30.8906 48.8086 31.125 48.9141 31.4297C49.0078 31.7461 48.9141 32.0859 48.6914 32.3086Z" fill="#D2EBD3"/>
<path d="M35.9766 2.64844H9.02344V8.37891C9.02344 9.43359 8.16797 10.3008 7.11328 10.3008H1.37109V48.2461C1.37109 48.6211 1.66406 48.9023 2.02734 48.9023H26.7891L29.4141 44.4023C29.6367 44.0273 29.8594 43.6406 30.082 43.2539C30.4102 42.6914 30.9727 42.0938 30.6445 41.4141C30.5156 41.1445 30.3047 40.9219 30.082 40.7227C29.4375 40.1484 28.6289 39.6445 28.3945 38.8242C28.125 37.9336 28.6172 36.9727 28.4063 36.0703C28.1953 35.2031 27.375 34.5352 27.3164 33.6445C27.2578 32.5781 28.3125 31.7461 28.4648 30.6914C28.5938 29.8242 28.1133 28.9336 28.3711 28.1016C28.5703 27.4453 29.1797 27 29.707 26.5664C30.293 26.0977 30.6211 25.6523 30.7969 24.9258C30.9492 24.3164 31.1602 23.6133 31.6172 23.1563C31.6875 23.0859 31.7695 23.0273 31.8516 22.9688C32.6484 22.3945 33.75 22.5352 34.4766 21.9023C35.168 21.293 35.4492 20.3555 36.3633 19.9805C36.3867 19.9688 36.3984 19.9688 36.4219 19.957C36.4805 19.9336 36.5508 19.9102 36.6211 19.8984V3.30469C36.6445 2.94141 36.3398 2.64844 35.9766 2.64844ZM4.57031 33.457H23.0156C23.3672 33.457 23.6484 33.7383 23.6484 34.0898C23.6484 34.4414 23.3672 34.7227 23.0156 34.7227H4.57031C4.21875 34.7227 3.9375 34.4414 3.9375 34.0898C3.94922 33.7383 4.23047 33.457 4.57031 33.457ZM3.94922 26.7891C3.94922 26.4375 4.23047 26.1562 4.58203 26.1562H23.0273C23.3789 26.1562 23.6602 26.4375 23.6602 26.7891C23.6602 27.1406 23.3789 27.4219 23.0273 27.4219H4.57031C4.23047 27.4219 3.94922 27.1289 3.94922 26.7891ZM25.4531 42H4.57031C4.21875 42 3.9375 41.7188 3.9375 41.3672C3.9375 41.0156 4.21875 40.7344 4.57031 40.7344H25.4414C25.793 40.7344 26.0742 41.0156 26.0742 41.3672C26.0742 41.7188 25.793 42 25.4531 42ZM27.0469 20.1211H4.57031C4.21875 20.1211 3.9375 19.8398 3.9375 19.4883C3.9375 19.1367 4.21875 18.8555 4.57031 18.8555H27.0469C27.3984 18.8555 27.6797 19.1367 27.6797 19.4883C27.6797 19.8398 27.3984 20.1211 27.0469 20.1211ZM32.7773 11.6953C32.7773 12.3633 32.2266 12.9258 31.5469 12.9258H14.4844C13.8047 12.9258 13.2539 12.375 13.2539 11.6953V7.75781C13.2539 7.08984 13.8047 6.52734 14.4844 6.52734H31.5586C32.2266 6.52734 32.7891 7.07812 32.7891 7.75781V11.6953H32.7773Z" fill="white"/>
<path d="M31.5117 7.75781V11.6719L14.5078 11.6953L14.4844 7.78125L31.5117 7.75781Z" fill="#C8E6C9"/>
<path d="M48.9024 31.4297C48.797 31.125 48.5392 30.8906 48.211 30.8438L44.4493 30.293L42.7618 26.8828C42.6212 26.5898 42.3165 26.4023 41.9884 26.4023C41.6603 26.4023 41.3673 26.5898 41.215 26.8828L39.5274 30.293L35.7657 30.8438C35.4376 30.8906 35.1798 31.125 35.0626 31.4297C34.9571 31.7461 35.0392 32.0859 35.2853 32.3086L38.0157 34.9687L37.3712 38.7187C37.3126 39.0352 37.4415 39.3633 37.711 39.5508C37.8634 39.668 38.0392 39.7266 38.215 39.7266C38.3556 39.7266 38.4962 39.6914 38.6134 39.6211L41.9767 37.8516L45.3517 39.6211C45.6446 39.7734 45.9845 39.75 46.254 39.5508C46.5235 39.3633 46.6525 39.0352 46.5939 38.7187L45.9493 34.9687L48.6798 32.3086C48.9142 32.0859 49.0079 31.7461 48.9024 31.4297ZM44.9298 34.2187C44.7306 34.418 44.6368 34.6992 44.6837 34.9687L45.2228 38.1328L42.3868 36.6445C42.2579 36.5742 42.1173 36.5391 41.9884 36.5391C41.8595 36.5391 41.7189 36.5742 41.59 36.6445L38.754 38.1328L39.2931 34.9687C39.3399 34.6875 39.2462 34.4062 39.047 34.207L36.7501 31.9687L39.9259 31.5117C40.2071 31.4648 40.4532 31.2891 40.5704 31.043L41.9884 28.1719L43.4064 31.043C43.5353 31.2891 43.7696 31.4766 44.0509 31.5117L47.2267 31.9687L44.9298 34.2187Z" fill="#263238"/>
<path d="M44.6836 34.9805L45.2227 38.1445L42.3867 36.6562C42.2578 36.5859 42.1172 36.5508 41.9883 36.5508C41.8594 36.5508 41.7187 36.5859 41.5898 36.6562L38.7539 38.1445L39.293 34.9805C39.3398 34.6992 39.2461 34.418 39.0469 34.2188L36.75 31.9805L39.9258 31.5234C40.207 31.4766 40.4531 31.3008 40.5703 31.0547L41.9883 28.1836L43.4062 31.0547C43.5352 31.3008 43.7695 31.4883 44.0508 31.5234L47.2266 31.9805L44.9297 34.2188C44.7305 34.418 44.6367 34.6992 44.6836 34.9805Z" fill="#4CAF4F"/>
<path d="M27.6797 19.4883C27.6797 19.8398 27.3984 20.1211 27.0469 20.1211H4.57031C4.21875 20.1211 3.9375 19.8398 3.9375 19.4883C3.9375 19.1367 4.21875 18.8555 4.57031 18.8555H27.0469C27.3984 18.8672 27.6797 19.1484 27.6797 19.4883Z" fill="#263238"/>
<path d="M23.6484 26.7891C23.6484 27.1406 23.3672 27.4219 23.0156 27.4219H4.57031C4.21875 27.4219 3.9375 27.1406 3.9375 26.7891C3.9375 26.4375 4.21875 26.1562 4.57031 26.1562H23.0156C23.3555 26.1562 23.6484 26.4375 23.6484 26.7891Z" fill="#263238"/>
<path d="M23.6484 34.0781C23.6484 34.4297 23.3672 34.7109 23.0156 34.7109H4.57031C4.21875 34.7109 3.9375 34.4297 3.9375 34.0781C3.9375 33.7266 4.21875 33.4453 4.57031 33.4453H23.0156C23.3555 33.457 23.6484 33.7383 23.6484 34.0781Z" fill="#263238"/>
<path d="M26.0742 41.3789C26.0742 41.7305 25.793 42.0117 25.4414 42.0117H4.57031C4.21875 42.0117 3.9375 41.7305 3.9375 41.3789C3.9375 41.0273 4.21875 40.7461 4.57031 40.7461H25.4414C25.793 40.7461 26.0742 41.0273 26.0742 41.3789Z" fill="#263238"/>
</svg>
