<svg width="60" height="60" viewBox="0 0 60 60" fill="none" xmlns="http://www.w3.org/2000/svg">
<path d="M21.3049 18.2461C18.8908 18.2461 16.6525 18.9844 14.7892 20.2383L14.2736 19.5586L14.6252 17.9766C14.6603 17.8008 14.6252 17.625 14.5197 17.4727L12.2931 14.5078C12.1291 14.3086 11.8595 14.2149 11.6135 14.2969C11.3556 14.3789 11.1916 14.6016 11.1799 14.8594L11.133 16.3828L9.63298 16.0078C9.37517 15.9492 9.11736 16.0547 8.96501 16.2656C8.82439 16.4766 8.82439 16.7695 8.98845 16.9688L11.215 19.9336C11.3205 20.0859 11.4963 20.168 11.672 20.1797L13.2892 20.2734L13.8049 20.9649C11.2502 23.1094 9.62126 26.3203 9.62126 29.9063C9.62126 37.1953 16.7931 42.9024 23.883 41.25C29.0978 40.0313 32.9767 35.2969 32.9767 29.9063C32.9885 23.4727 27.7502 18.2461 21.3049 18.2461ZM13.1369 19.043L12.0353 18.9727L11.0158 17.625L11.5666 17.7656C11.7541 17.8125 11.9416 17.7774 12.0939 17.6602C12.2463 17.543 12.3283 17.3672 12.34 17.1914L12.3635 16.6289L13.383 17.9766L13.1369 19.043ZM28.758 37.2422C28.0666 37.957 27.2697 38.5547 26.4025 39.0469L26.2619 39.1172C24.7385 39.9375 23.0627 40.3711 21.3049 40.3711C19.5705 40.3711 17.8595 39.9375 16.3478 39.1172C15.422 38.6133 14.59 37.9805 13.8517 37.2422C11.9299 35.2734 10.8635 32.6836 10.8635 29.9297C10.8635 26.7422 12.2931 23.8945 14.5549 21.9727L16.1955 24.1641C14.6017 25.582 13.5939 27.6328 13.5939 29.9297C13.5939 34.1836 17.051 37.6524 21.3166 37.6524C25.5705 37.6524 29.0392 34.1836 29.0392 29.9297C29.0392 25.6641 25.5705 22.207 21.3166 22.207C19.7931 22.207 18.3752 22.6524 17.1799 23.4141L15.5392 21.2344C17.1916 20.1328 19.172 19.4883 21.3049 19.4883C27.0588 19.4883 31.7463 24.1758 31.7463 29.9297C31.758 32.6719 30.6916 35.2734 28.758 37.2422ZM21.3049 33.8438C23.4728 33.8438 25.2306 32.0859 25.2306 29.918C25.2306 27.75 23.4728 25.9922 21.3049 25.9922C20.6369 25.9922 20.0041 26.1563 19.4533 26.4492L17.9064 24.3867C18.9025 23.7774 20.051 23.4141 21.3049 23.4141C24.8791 23.4141 27.797 26.332 27.797 29.9063C27.797 33.4805 24.8791 36.3984 21.3049 36.3984C17.7306 36.3984 14.8127 33.4805 14.8127 29.9063C14.8127 28.0078 15.633 26.3086 16.9338 25.125L18.4806 27.1875C17.801 27.8906 17.3791 28.8516 17.3791 29.9063C17.3791 32.0859 19.1369 33.8438 21.3049 33.8438ZM21.3049 30.75C21.7619 30.75 22.1369 30.375 22.1369 29.918C22.1369 29.5078 21.8322 29.168 21.4455 29.0977L20.2033 27.457C20.5431 27.3047 20.9064 27.2227 21.3049 27.2227C22.7931 27.2227 24.0002 28.4297 24.0002 29.918C24.0002 31.4063 22.7814 32.6133 21.3049 32.6133C19.8166 32.6133 18.6095 31.3945 18.6095 29.918C18.6095 29.2617 18.8439 28.6758 19.2424 28.207L20.4845 29.8594C20.4728 29.8828 20.4728 29.8945 20.4728 29.918C20.4728 30.375 20.8478 30.75 21.3049 30.75Z" fill="#263238"/>
<path d="M20.9297 2.94141C20.1094 2.94141 19.4414 3.60937 19.4414 4.42969C19.4414 5.25 20.1094 5.91797 20.9297 5.91797C21.75 5.91797 22.418 5.25 22.418 4.42969C22.418 3.60937 21.75 2.94141 20.9297 2.94141ZM20.9297 4.6875C20.7891 4.6875 20.6719 4.58203 20.6719 4.42969C20.6719 4.28906 20.7891 4.17187 20.9297 4.17187C21.0703 4.17187 21.1875 4.27734 21.1875 4.42969C21.1875 4.58203 21.0703 4.6875 20.9297 4.6875Z" fill="#263238"/>
<path d="M56.2266 56.0625H55.2305V51.1641C55.2305 50.6133 54.8086 50.1563 54.2813 50.1563H53.1797C52.1719 47.0391 51.3516 43.8281 50.707 40.5938H51.2344C51.7617 40.5938 52.1836 40.1484 52.1836 39.5977V37.6758C52.1836 37.125 51.7617 36.668 51.2344 36.668H50.0156C49.5352 33.5156 49.2305 30.3164 49.0898 27.1055H51.1875C51.7383 27.1055 52.1836 26.6602 52.1836 26.1094V24.1523C52.1836 23.6133 51.7383 23.168 51.1875 23.168H50.8008V16.7578C50.8008 16.418 50.5313 16.1367 50.1797 16.1367H47.4609C47.1211 16.1367 46.8398 16.418 46.8398 16.7578V19.2656H45.293V16.7578C45.293 16.418 45.0117 16.1367 44.6719 16.1367H41.9531C41.6133 16.1367 41.332 16.418 41.332 16.7578V19.2656H39.7852V16.7578C39.7852 16.418 39.5039 16.1367 39.1641 16.1367H39.0234V7.23047C39.0234 6.52734 38.4492 5.94141 37.7344 5.94141H30.7617V4.13672C30.7617 3.52734 30.2578 3.02344 29.6367 3.02344H25.1133C24.4688 1.28906 22.8047 0.117188 20.9297 0.117188C19.043 0.117188 17.3789 1.28906 16.7344 3.03516H12.1992C11.5898 3.03516 11.0859 3.53906 11.0859 4.14844V5.95313H4.11328C3.41016 5.95313 2.82422 6.52734 2.82422 7.24219V53.4961C2.82422 54.1992 3.39844 54.7852 4.11328 54.7852H31.4297V56.0742H30.4219C29.8945 56.0742 29.4727 56.5195 29.4727 57.082V58.8984C29.4727 59.4492 29.8945 59.9063 30.4219 59.9063H56.2148C56.7422 59.9063 57.1641 59.4609 57.1641 58.8984V57.082C57.1758 56.5078 56.7422 56.0625 56.2266 56.0625ZM54 51.3867V56.0625H32.6719V54.1758V54.1641V51.3867H33.9375H33.9492H54ZM51.8789 50.1563H34.7812C34.875 50.1563 35.2852 48.5039 35.3203 48.3398C35.5195 47.6367 35.7188 46.9336 35.9062 46.2305C36.3984 44.3672 36.832 42.4805 37.207 40.5938H49.4414C50.0742 43.8164 50.8945 47.0273 51.8789 50.1563ZM50.9414 37.8984V39.3633H35.707V37.8984H50.9414ZM38.8125 27.1055H47.8594C48 30.3047 48.3047 33.5156 48.7734 36.668H37.9102C38.0508 36.6562 38.3203 33.5039 38.3438 33.3281C38.3789 32.8125 38.8477 27.1055 38.8125 27.1055ZM50.9414 24.4102V25.875H48.4453C48.4336 25.875 48.4336 25.8633 48.4336 25.8633H38.2148C38.2148 25.8633 38.2148 25.875 38.2031 25.875H35.707V24.4102H36.4688H36.4805H50.9414ZM39.1875 20.5195H41.9648C42.3047 20.5195 42.5859 20.2383 42.5859 19.8984V17.3906H44.0742V19.8984C44.0742 20.2383 44.3438 20.5195 44.6953 20.5195H47.4609C47.8008 20.5195 48.082 20.2383 48.082 19.8984V17.3906H49.5703V23.1797H37.0898V17.3906H38.5781V19.8984C38.5781 20.2383 38.8477 20.5195 39.1875 20.5195ZM12.3164 4.26563H17.1797C17.4609 4.26563 17.707 4.07813 17.7773 3.80859C18.1523 2.36719 19.4414 1.35938 20.9297 1.35938C22.418 1.35938 23.707 2.36719 24.082 3.80859C24.1523 4.07813 24.3984 4.26563 24.6797 4.26563H29.543V8.85938H12.3164V4.26563ZM4.11328 53.543C4.07812 53.543 4.05469 53.5078 4.05469 53.4844V7.23047C4.05469 7.20703 4.07812 7.17188 4.11328 7.17188H11.0859V8.97656C11.0859 9.58594 11.5898 10.0898 12.1992 10.0898H29.6484C30.2695 10.0898 30.7734 9.58594 30.7734 8.97656V7.17188H37.7461C37.7813 7.17188 37.8047 7.19531 37.8047 7.23047V16.1602H36.4805C36.3047 16.1602 36.1523 16.2305 36.0469 16.3359C35.9414 16.4531 35.8711 16.6055 35.8711 16.7695V23.1797H35.4844C35.1445 23.1797 34.8398 23.3555 34.6641 23.6133C34.5586 23.7656 34.4883 23.9531 34.4883 24.1641V26.1211C34.4883 26.6719 34.9336 27.1172 35.4844 27.1172H37.582C37.5586 27.5039 37.5469 27.8789 37.5234 28.2539C37.3594 31.0664 37.0781 33.8789 36.6562 36.668H35.4375C34.9102 36.668 34.5 37.1133 34.5 37.6758V39.5977C34.5 40.1484 34.9219 40.5938 35.4375 40.5938H35.9648C35.8945 40.9336 35.8242 41.2734 35.7539 41.6133C35.1445 44.4961 34.3945 47.3438 33.5039 50.1563H32.4023C31.875 50.1563 31.4648 50.6016 31.4648 51.1641V53.543H4.11328ZM55.9453 58.6523H30.7148V57.293H55.9453V58.6523Z" fill="#263238"/>
<path d="M35.7188 37.8984H50.9531V39.3633H35.7188V37.8984Z" fill="#D2EBD3"/>
<path d="M54 51.3867V56.0625H32.6719V54.1758V54.1641V51.3867H33.9375H33.9492H54Z" fill="#D2EBD3"/>
<path d="M50.9414 24.4102V25.875H48.4453C48.4336 25.875 48.4336 25.8633 48.4336 25.8633H38.2148C38.2148 25.8633 38.2148 25.875 38.2031 25.875H35.707V24.4102H36.4688H36.4805H50.9414Z" fill="#D2EBD3"/>
<path d="M24.6797 4.26563C24.3984 4.26563 24.1523 4.07812 24.082 3.80859C23.707 2.36719 22.418 1.35938 20.9297 1.35938C19.4414 1.35938 18.1406 2.36719 17.7773 3.80859C17.707 4.07812 17.4609 4.26563 17.1797 4.26563H12.3164V8.85938H29.5312V4.26563H24.6797ZM20.9297 5.91797C20.1094 5.91797 19.4414 5.25 19.4414 4.42969C19.4414 3.60937 20.1094 2.94141 20.9297 2.94141C21.75 2.94141 22.418 3.60937 22.418 4.42969C22.418 5.25 21.75 5.91797 20.9297 5.91797Z" fill="#4CAF4F"/>
<path d="M30.7148 57.293H55.9453V58.6523H30.7148V57.293Z" fill="#C8E6C9"/>
<path d="M49.5703 17.3906V23.1797H37.0898V17.3906H38.5781V19.8984C38.5781 20.2383 38.8594 20.5195 39.1992 20.5195H41.9766C42.3164 20.5195 42.5977 20.2383 42.5977 19.8984V17.3906H44.0859V19.8984C44.0859 20.2383 44.3555 20.5195 44.707 20.5195H47.4609C47.8008 20.5195 48.082 20.2383 48.082 19.8984V17.3906H49.5703Z" fill="#C8E6C9"/>
<path d="M48.7617 36.668H37.8984C38.0391 36.6562 38.3086 33.5039 38.332 33.3281C38.3906 32.8125 38.8594 27.1055 38.8125 27.1055H47.8594C47.9883 30.3047 48.293 33.5156 48.7617 36.668Z" fill="#D2EBD3"/>
<path d="M51.8789 50.1562H34.7812C34.875 50.1562 35.2852 48.5039 35.3203 48.3398C35.5195 47.6367 35.7188 46.9336 35.9063 46.2305C36.3984 44.3672 36.832 42.4805 37.207 40.5938H49.4414C50.0742 43.8164 50.8945 47.0273 51.8789 50.1562Z" fill="#D2EBD3"/>
<path d="M34.6523 23.6133C34.8281 23.3438 35.1328 23.1797 35.4727 23.1797H35.8594V16.7695C35.8594 16.6055 35.9297 16.4531 36.0352 16.3359C36.1406 16.2305 36.3047 16.1602 36.4688 16.1602H37.793V7.23047C37.793 7.19531 37.7695 7.17188 37.7344 7.17188H30.7617V8.97656C30.7617 9.58594 30.2578 10.0898 29.6367 10.0898H12.1992C11.5898 10.0898 11.0859 9.58594 11.0859 8.97656V7.17188H4.11328C4.07812 7.17188 4.05469 7.20703 4.05469 7.23047V53.4844C4.05469 53.5078 4.07812 53.543 4.11328 53.543H31.4297V51.1641C31.4297 50.6133 31.8516 50.1562 32.3672 50.1562H33.4687C34.3711 47.3438 35.1211 44.4961 35.7187 41.6133C35.7891 41.2734 35.8711 40.9336 35.9297 40.5938H35.4023C34.875 40.5938 34.4648 40.1484 34.4648 39.5977V37.6758C34.4648 37.125 34.8867 36.668 35.4023 36.668H36.6211C37.043 33.8789 37.3242 31.0664 37.4883 28.2539C37.5117 27.8672 37.5352 27.4922 37.5469 27.1172H35.4492C34.8984 27.1172 34.4531 26.6719 34.4531 26.1211V24.1641C34.4766 23.9531 34.5352 23.7656 34.6523 23.6133ZM23.8945 41.2617C16.8047 42.9141 9.63281 37.207 9.63281 29.918C9.63281 26.332 11.2617 23.1211 13.8164 20.9766L13.3008 20.2852L11.6836 20.1914C11.5078 20.1797 11.3438 20.0977 11.2266 19.9453L9 16.9805C8.83594 16.7695 8.83594 16.4883 8.97656 16.2773C9.12891 16.0664 9.38672 15.9609 9.64453 16.0195L11.1445 16.3945L11.2031 14.8594C11.2148 14.5898 11.3789 14.3672 11.6367 14.2969C11.8828 14.2148 12.1523 14.3086 12.3164 14.5078L14.543 17.4727C14.6484 17.625 14.6953 17.8008 14.6484 17.9766L14.2969 19.5586L14.8125 20.2383C16.6758 18.9844 18.9141 18.2461 21.3281 18.2461C27.7617 18.2461 33 23.4844 33 29.918C32.9883 35.3086 29.1094 40.0547 23.8945 41.2617Z" fill="white"/>
<path d="M13.3828 17.9766L13.1484 19.043L12.0469 18.9727L11.0273 17.625L11.5781 17.7656C11.7656 17.8125 11.9531 17.7773 12.1055 17.6602C12.2578 17.543 12.3398 17.3672 12.3516 17.1914L12.375 16.6289L13.3828 17.9766Z" fill="#D2EBD3"/>
<path d="M27.7969 29.918C27.7969 33.4922 24.8789 36.4102 21.3047 36.4102C17.7305 36.4102 14.8125 33.4922 14.8125 29.918C14.8125 28.0195 15.6328 26.3203 16.9336 25.1367L18.4805 27.1992C17.8008 27.9023 17.3789 28.8633 17.3789 29.918C17.3789 32.0859 19.1367 33.8437 21.3047 33.8437C23.4727 33.8437 25.2305 32.0859 25.2305 29.918C25.2305 27.75 23.4727 25.9922 21.3047 25.9922C20.6367 25.9922 20.0039 26.1562 19.4531 26.4492L17.9063 24.3867C18.9023 23.7773 20.0508 23.4141 21.3047 23.4141C24.8906 23.4258 27.7969 26.3438 27.7969 29.918Z" fill="#D2EBD3"/>
<path d="M24.0117 29.918C24.0117 31.4062 22.793 32.6133 21.3164 32.6133C19.8281 32.6133 18.6211 31.3945 18.6211 29.918C18.6211 29.2617 18.8555 28.6758 19.2539 28.207L20.4961 29.8594C20.4844 29.8828 20.4844 29.8945 20.4844 29.918C20.4844 30.375 20.8594 30.75 21.3164 30.75C21.7734 30.75 22.1484 30.375 22.1484 29.918C22.1484 29.5078 21.8438 29.168 21.457 29.0977L20.2148 27.457C20.5547 27.3047 20.918 27.2227 21.3164 27.2227C22.793 27.2227 24.0117 28.4297 24.0117 29.918Z" fill="white"/>
<path d="M31.7578 29.918C31.7578 32.6719 30.6914 35.2734 28.7695 37.2305C28.0781 37.9453 27.2812 38.543 26.4141 39.0352L26.2734 39.1055C24.75 39.9258 23.0742 40.3594 21.3164 40.3594C19.582 40.3594 17.8711 39.9258 16.3594 39.1055C15.4336 38.6016 14.6016 37.9688 13.8633 37.2305C11.9414 35.2617 10.875 32.6719 10.875 29.918C10.875 26.7305 12.3047 23.8828 14.5664 21.9609L16.207 24.1523C14.6133 25.5703 13.6055 27.6211 13.6055 29.918C13.6055 34.1719 17.0625 37.6406 21.3281 37.6406C25.582 37.6406 29.0508 34.1719 29.0508 29.918C29.0508 25.6523 25.582 22.1953 21.3281 22.1953C19.8047 22.1953 18.3867 22.6406 17.1914 23.4023L15.5508 21.2227C17.2031 20.1211 19.1836 19.4766 21.3164 19.4766C27.0703 19.4766 31.7578 24.1641 31.7578 29.918Z" fill="white"/>
</svg>
