<svg width="60" height="60" viewBox="0 0 60 60" fill="none" xmlns="http://www.w3.org/2000/svg">
<path d="M31.6055 13.8164C31.0781 13.8164 30.5625 13.875 30.0703 13.9805V9.87891C30.0703 9.50391 29.7656 9.1875 29.3789 9.1875H19.0898C18.7148 9.1875 18.3984 9.49219 18.3984 9.87891V20.168C18.3984 20.543 18.7031 20.8594 19.0898 20.8594H24.3633C24.3633 20.9297 24.3516 21 24.3516 21.0703C24.3516 25.0664 27.6094 28.3125 31.6055 28.3125C35.6016 28.3125 38.8594 25.0664 38.8594 21.0703C38.8477 17.0625 35.6016 13.8164 31.6055 13.8164ZM19.7813 19.4883V10.5703H28.6992V14.4258C26.6133 15.3398 25.043 17.2148 24.5391 19.4883H19.7813ZM28.6992 15.9727V19.4883H25.957C26.3672 17.9883 27.3633 16.7344 28.6992 15.9727ZM31.6055 26.9414C28.3711 26.9414 25.7344 24.3047 25.7344 21.0703C25.7344 21 25.7461 20.9297 25.7461 20.8594H29.3906C29.7656 20.8594 30.082 20.5547 30.082 20.168V15.3984C30.5742 15.2578 31.0898 15.1875 31.6172 15.1875C34.8633 15.1875 37.5 17.8242 37.5 21.0703C37.4766 24.3047 34.8398 26.9414 31.6055 26.9414Z" fill="#263238"/>
<path d="M59.6134 4.55859C59.3907 4.25391 59.0626 4.06641 58.6876 4.00781L49.8985 2.68359C49.1368 2.57812 48.422 3.09375 48.3048 3.86719L47.6134 8.48438L44.672 27.9375L44.6837 3.50391C44.6837 2.48438 43.8517 1.65234 42.8321 1.65234H9.99619C8.97666 1.65234 8.14462 2.48438 8.14462 3.50391V24.2461C7.94541 23.6484 7.57041 23.1328 7.01962 22.793C6.39853 22.3945 5.66025 22.2656 4.93369 22.4297L2.26181 23.0273C1.53525 23.1914 0.925875 23.625 0.539156 24.2461C0.140719 24.8672 0.0118124 25.6172 0.175875 26.332L0.996187 30.0117L5.92978 52.125C5.92978 52.1367 5.9415 52.1367 5.9415 52.1484C5.95322 52.2188 5.98837 52.2891 6.02353 52.3477C6.03525 52.3594 6.04697 52.3828 6.04697 52.3945C6.05869 52.4063 6.05869 52.418 6.07041 52.4297L10.8634 58.1484C11.004 58.3008 11.1915 58.3945 11.3907 58.3945C11.4376 58.3945 11.4962 58.3828 11.5431 58.3711C11.7892 58.3242 11.9884 58.125 12.0587 57.8789L13.9688 50.6602C13.9806 50.6484 13.9806 50.6367 13.9806 50.625C13.9923 50.6016 13.9923 50.5898 13.9923 50.5781C14.004 50.5078 14.004 50.4375 13.9806 50.3672V50.3438L13.922 50.0508H41.3321L40.547 55.2539C40.4298 56.0156 40.9571 56.7305 41.7306 56.8477L50.5196 58.1719C50.5899 58.1836 50.6602 58.1836 50.7306 58.1836C51.4102 58.1836 52.0079 57.6914 52.1134 56.9883L59.8712 5.63672C59.9181 5.23828 59.8243 4.86328 59.6134 4.55859ZM1.52353 26.0156C1.4415 25.6523 1.50009 25.2773 1.69931 24.9609C1.89853 24.6562 2.20322 24.4336 2.5665 24.3516L5.23837 23.7539C5.33212 23.7305 5.43759 23.7188 5.54306 23.7188C5.80087 23.7188 6.05869 23.7891 6.28134 23.9414C6.58603 24.1406 6.80869 24.4453 6.89072 24.8086L7.55869 27.8203L4.87509 28.418L2.1915 29.0156L1.52353 26.0156ZM2.49619 30.3633L4.51181 29.918L6.82041 40.3008L9.14072 50.6836L7.12509 51.1289L2.49619 30.3633ZM11.086 56.2148L7.86337 52.3711L12.3634 51.3633L11.086 56.2148ZM12.2579 49.9805L10.4884 50.3789L8.17978 39.9961L5.85947 29.6016L6.48056 29.4609L7.87509 29.1563L11.461 45.2461L12.504 49.9219L12.2579 49.9805ZM13.8868 48.6328H13.6173L9.97275 32.2969L9.52744 30.2695V3.49219C9.52744 3.22266 9.73837 3.01172 10.0079 3.01172H13.8985V48.6328H13.8868ZM41.5431 48.6328H15.2696V3.01172H42.8321C43.1017 3.01172 43.3126 3.23438 43.3126 3.49219V36.9961L42.8087 40.3125L41.5431 48.6328ZM50.754 56.7539C50.7423 56.7773 50.7306 56.7891 50.7188 56.7773L41.9063 55.418L42.6563 50.5078L44.9415 50.8477C44.9767 50.8594 45.0118 50.8594 45.047 50.8594C45.3868 50.8594 45.6681 50.6133 45.7267 50.2734C45.7852 49.8984 45.5274 49.5469 45.1524 49.4883L42.8673 49.1484L43.547 44.625L45.8321 44.9648C45.8673 44.9766 45.8907 44.9766 45.9376 44.9766C46.2774 44.9766 46.5587 44.7305 46.6173 44.4023C46.6759 44.0273 46.4181 43.6758 46.0431 43.6172L43.7579 43.2773L44.4376 38.7539L46.7227 39.0938C46.7579 39.1055 46.7931 39.1055 46.8282 39.1055C47.1681 39.1055 47.461 38.8594 47.5079 38.5312C47.5548 38.1562 47.297 37.8047 46.9337 37.7461L44.6485 37.4063L45.3282 32.8828L47.6134 33.2227C47.6485 33.2344 47.6837 33.2344 47.7188 33.2344C48.0587 33.2344 48.3399 32.9883 48.3985 32.6602C48.4571 32.2852 48.1993 31.9336 47.8243 31.875L45.5392 31.5352L46.2188 27.0117L48.504 27.3516C48.5392 27.3633 48.5743 27.3633 48.6095 27.3633C48.9493 27.3633 49.2306 27.1172 49.2892 26.7773C49.3477 26.4023 49.0899 26.0508 48.7149 25.9922L46.4415 25.6523L47.1212 21.1289L49.3946 21.4688C49.4298 21.4805 49.4649 21.4805 49.5001 21.4805C49.8399 21.4805 50.1329 21.2344 50.1798 20.8945C50.2267 20.5195 49.9688 20.168 49.5938 20.1094L47.3204 19.7695L48.0118 15.2461L50.2735 15.5859C50.3087 15.5977 50.3438 15.5977 50.379 15.5977C50.7188 15.5977 51.0001 15.3516 51.0587 15.0117C51.1173 14.6367 50.8595 14.2852 50.4845 14.2266L48.211 13.8867L48.8907 9.36328L51.1642 9.70313C51.1993 9.71484 51.2227 9.71484 51.2696 9.71484C51.6095 9.71484 51.8907 9.46875 51.9493 9.12891C52.0079 8.75391 51.7501 8.40234 51.3634 8.34375L49.1017 8.00391L49.6993 4.04297L58.5118 5.40234L50.754 56.7539Z" fill="#263238"/>
<path d="M12.3633 51.375L11.0859 56.2148L7.86328 52.3711L12.3633 51.375Z" fill="#C8E6C9"/>
<path d="M7.55884 27.832L4.87524 28.4297L2.19165 29.0273L1.52368 26.0156C1.44165 25.6523 1.50024 25.2773 1.69946 24.9609C1.89868 24.6563 2.20337 24.4336 2.56665 24.3516L5.23853 23.7539C5.33228 23.7305 5.43774 23.7188 5.54321 23.7188C5.80103 23.7188 6.05884 23.7891 6.28149 23.9414C6.58618 24.1406 6.80884 24.4453 6.89087 24.8086L7.55884 27.832Z" fill="#C8E6C9"/>
<path d="M12.4922 49.9336L12.2578 49.9805L10.4883 50.3789L8.16797 40.0078L5.84766 29.6133L6.46875 29.4727L7.86328 29.168L11.4609 45.2578L12.4922 49.9336Z" fill="#4CAF4F"/>
<path d="M9.14063 50.6836L7.125 51.1289L2.49609 30.3633L4.51172 29.918L6.82031 40.3008L9.14063 50.6836Z" fill="#4CAF4F"/>
<path d="M13.8867 3.01172V48.6328H13.6172L9.97266 32.2969L9.52734 30.2695V3.49219C9.52734 3.22266 9.73828 3.01172 10.0078 3.01172H13.8867Z" fill="#D2EBD3"/>
<path d="M42.832 3.01172H15.2695V48.6328H41.5547L42.8086 40.3008L43.3125 36.9844V3.49219C43.3008 3.23437 43.0898 3.01172 42.832 3.01172ZM31.6055 28.3125C27.6094 28.3125 24.3516 25.0664 24.3516 21.0703C24.3516 21 24.3633 20.9297 24.3633 20.8594H19.0898C18.7148 20.8594 18.3984 20.5547 18.3984 20.168V9.89062C18.3984 9.51562 18.7031 9.19922 19.0898 9.19922H29.3789C29.7539 9.19922 30.0703 9.50391 30.0703 9.89062V13.9922C30.5625 13.8867 31.0781 13.8281 31.6055 13.8281C35.6016 13.8281 38.8594 17.0742 38.8594 21.082C38.8477 25.0664 35.6016 28.3125 31.6055 28.3125Z" fill="white"/>
<path d="M28.6992 15.9727V19.4883H25.957C26.3672 17.9883 27.3633 16.7344 28.6992 15.9727Z" fill="#D2EBD3"/>
<path d="M28.6992 10.5703V14.4258C26.6133 15.3398 25.043 17.2148 24.5391 19.4883H19.793V10.5703H28.6992Z" fill="#D2EBD3"/>
<path d="M37.4766 21.0703C37.4766 24.3047 34.8398 26.9414 31.5938 26.9414C28.3594 26.9414 25.7227 24.3047 25.7227 21.0703C25.7227 21 25.7344 20.9297 25.7344 20.8594H29.3789C29.7539 20.8594 30.0703 20.5547 30.0703 20.168V15.3984C30.5625 15.2578 31.0781 15.1875 31.6055 15.1875C34.8398 15.1875 37.4766 17.8242 37.4766 21.0703Z" fill="#D2EBD3"/>
<path d="M58.5117 5.40234L50.7539 56.7539C50.7422 56.7773 50.7305 56.7891 50.7187 56.7773L41.9062 55.418L42.6562 50.5078L44.9414 50.8477C44.9766 50.8594 45.0117 50.8594 45.0469 50.8594C45.3867 50.8594 45.668 50.6133 45.7266 50.2734C45.7852 49.8984 45.5273 49.5469 45.1523 49.4883L42.8672 49.1484L43.5469 44.625L45.832 44.9648C45.8672 44.9766 45.8906 44.9766 45.9375 44.9766C46.2773 44.9766 46.5586 44.7305 46.6172 44.4023C46.6758 44.0273 46.418 43.6758 46.043 43.6172L43.7578 43.2773L44.4375 38.7539L46.7227 39.0938C46.7578 39.1055 46.793 39.1055 46.8281 39.1055C47.168 39.1055 47.4609 38.8594 47.5078 38.5312C47.5547 38.1562 47.2969 37.8047 46.9336 37.7461L44.6484 37.4062L45.3281 32.8828L47.6133 33.2227C47.6484 33.2344 47.6836 33.2344 47.7188 33.2344C48.0586 33.2344 48.3398 32.9883 48.3984 32.6602C48.457 32.2852 48.1992 31.9336 47.8242 31.875L45.5391 31.5352L46.2187 27.0117L48.5039 27.3516C48.5391 27.3633 48.5742 27.3633 48.6094 27.3633C48.9492 27.3633 49.2305 27.1172 49.2891 26.7773C49.3477 26.4023 49.0898 26.0508 48.7148 25.9922L46.4414 25.6523L47.1211 21.1289L49.3945 21.4688C49.4297 21.4805 49.4648 21.4805 49.5 21.4805C49.8398 21.4805 50.1328 21.2344 50.1797 20.8945C50.2266 20.5195 49.9688 20.168 49.5937 20.1094L47.3203 19.7695L48.0117 15.2461L50.2734 15.5859C50.3086 15.5977 50.3437 15.5977 50.3789 15.5977C50.7187 15.5977 51 15.3516 51.0586 15.0117C51.1172 14.6367 50.8594 14.2852 50.4844 14.2266L48.2109 13.8867L48.8906 9.36328L51.1641 9.70313C51.1992 9.71484 51.2227 9.71484 51.2695 9.71484C51.6094 9.71484 51.8906 9.46875 51.9492 9.12891C52.0078 8.75391 51.75 8.40234 51.3633 8.34375L49.1016 8.00391L49.6992 4.04297L58.5117 5.40234Z" fill="#D2EBD3"/>
</svg>
