<svg width="72" height="72" viewBox="0 0 72 72" fill="none" xmlns="http://www.w3.org/2000/svg">
<g clip-path="url(#clip0_125_3633)">
<path d="M55.3701 29.6426V11.6165H15.3867V29.6426C15.3867 31.5076 16.8986 33.0194 18.7635 33.0194H51.9931C53.8581 33.0194 55.3701 31.5076 55.3701 29.6426ZM49.9581 25.7808C49.9581 27.1206 48.8719 28.2068 47.532 28.2068H43.8159C42.476 28.2068 41.3898 27.1206 41.3898 25.7808V18.9444C41.3898 17.6045 42.476 16.5184 43.8159 16.5184H47.532C48.8719 16.5184 49.9581 17.6045 49.9581 18.9444V25.7808Z" fill="white"/>
<path d="M55.3701 7.01696C55.3701 5.152 53.8582 3.64014 51.9932 3.64014H18.7635C16.8986 3.64014 15.3867 5.152 15.3867 7.01696V11.6162H55.3701V7.01696Z" fill="#FF521C"/>
<path d="M17.4847 52.8582H3.81839C2.48611 52.8582 1.40625 53.9382 1.40625 55.2703V65.9482C1.40625 67.2805 2.48625 68.3604 3.81839 68.3604H17.4847C18.8169 68.3604 19.8969 67.2804 19.8969 65.9482V55.2703C19.8969 53.9382 18.8169 52.8582 17.4847 52.8582Z" fill="#FFD277"/>
<path d="M42.8334 52.8582H29.167C27.8349 52.8582 26.7549 53.9382 26.7549 55.2703V65.9482C26.7549 67.2805 27.8349 68.3604 29.167 68.3604H42.8334C44.1655 68.3604 45.2455 67.2804 45.2455 65.9482V55.2703C45.2457 53.9382 44.1657 52.8582 42.8334 52.8582Z" fill="#FFD277"/>
<path d="M68.182 52.8582H54.5157C53.1835 52.8582 52.1035 53.9382 52.1035 55.2703V65.9482C52.1035 67.2805 53.1835 68.3604 54.5157 68.3604H68.182C69.5143 68.3604 70.5942 67.2804 70.5942 65.9482V55.2703C70.5942 53.9382 69.5142 52.8582 68.182 52.8582Z" fill="#FFD277"/>
<path d="M47.5319 16.5183H43.8157C42.4758 16.5183 41.3896 17.6045 41.3896 18.9444V25.7807C41.3896 27.1206 42.4758 28.2068 43.8157 28.2068H47.5319C48.8717 28.2068 49.9579 27.1206 49.9579 25.7807V18.9444C49.9579 17.6045 48.8717 16.5183 47.5319 16.5183Z" fill="#FFD277"/>
<path d="M68.1816 51.4516H62.7548V45.8253C62.7548 43.5834 60.9307 41.7595 58.6889 41.7595H37.4062V34.4255H51.9931C54.6306 34.4255 56.7762 32.2797 56.7762 29.6423C56.7762 27.1444 56.7762 9.29246 56.7762 7.01672C56.7762 4.3793 54.6306 2.23364 51.9931 2.23364H18.7636C16.1262 2.23364 13.9804 4.3793 13.9804 7.01672V29.6423C13.9804 32.2797 16.1262 34.4255 18.7636 34.4255H34.5938V41.7595H13.3111C11.0693 41.7595 9.24525 43.5834 9.24525 45.8253V51.4516H3.81839C1.71295 51.4516 0 53.1645 0 55.2701V65.948C0 68.0536 1.71295 69.7664 3.81839 69.7664H17.4847C19.5903 69.7664 21.3031 68.0535 21.3031 65.948V55.2701C21.3031 53.1645 19.5902 51.4517 17.4847 51.4517H12.0578V45.8254C12.0578 45.1344 12.62 44.5722 13.3111 44.5722H34.5938V51.4517H29.1669C27.0613 51.4517 25.3485 53.1646 25.3485 55.2701V65.948C25.3485 68.0536 27.0615 69.7664 29.1669 69.7664H42.8331C44.9387 69.7664 46.6515 68.0535 46.6515 65.948V55.2701C46.6515 53.1645 44.9385 51.4517 42.8331 51.4517H37.4062V44.5722H58.6889C59.38 44.5722 59.9423 45.1344 59.9423 45.8254V51.4517H54.5153C52.4097 51.4517 50.6969 53.1646 50.6969 55.2701V65.948C50.6969 68.0536 52.4098 69.7664 54.5153 69.7664H68.1816C70.2872 69.7664 72 68.0535 72 65.948V55.2701C72 53.1645 70.287 51.4516 68.1816 51.4516ZM16.7929 7.01686C16.7929 5.93025 17.6768 5.04628 18.7636 5.04628H51.9931C53.0798 5.04628 53.9637 5.93025 53.9637 7.01686V10.2099H16.7929V7.01686ZM16.7929 29.6424V13.0224H53.9636V29.6424C53.9636 30.7292 53.0796 31.6132 51.993 31.6132H18.7636C17.6768 31.613 16.7929 30.729 16.7929 29.6424ZM18.4906 55.2701V65.948C18.4906 66.5026 18.0394 66.9539 17.4847 66.9539H3.81839C3.26377 66.9539 2.8125 66.5026 2.8125 65.948V55.2701C2.8125 54.7155 3.26377 54.2642 3.81839 54.2642H17.4847C18.0394 54.264 18.4906 54.7153 18.4906 55.2701ZM43.839 55.2701V65.948C43.839 66.5026 43.3877 66.9539 42.8331 66.9539H29.1669C28.6123 66.9539 28.161 66.5026 28.161 65.948V55.2701C28.161 54.7155 28.6123 54.2642 29.1669 54.2642H42.8331C43.3877 54.264 43.839 54.7153 43.839 55.2701ZM69.1875 65.9479C69.1875 66.5025 68.7362 66.9538 68.1816 66.9538H54.5153C53.9606 66.9538 53.5094 66.5025 53.5094 65.9479V55.2699C53.5094 54.7153 53.9606 54.2641 54.5153 54.2641H68.1816C68.7362 54.2641 69.1875 54.7153 69.1875 55.2699V65.9479Z" fill="#0E191E"/>
<path d="M43.8157 29.6129H47.5319C49.6449 29.6129 51.3642 27.8936 51.3642 25.7806V18.9444C51.3642 16.8313 49.6449 15.1121 47.5319 15.1121H43.8157C41.7027 15.1121 39.9834 16.8313 39.9834 18.9444V25.7806C39.9834 27.8936 41.7027 29.6129 43.8157 29.6129ZM42.7959 18.9442C42.7959 18.3819 43.2534 17.9244 43.8157 17.9244H47.5319C48.0942 17.9244 48.5517 18.3819 48.5517 18.9442V25.7804C48.5517 26.3428 48.0942 26.8002 47.5319 26.8002H43.8157C43.2534 26.8002 42.7959 26.3428 42.7959 25.7804V18.9442Z" fill="#0E191E"/>
<path d="M20.333 18.4453H33.5222C34.2988 18.4453 34.9285 17.8156 34.9285 17.0391C34.9285 16.2625 34.2988 15.6328 33.5222 15.6328H20.333C19.5565 15.6328 18.9268 16.2625 18.9268 17.0391C18.9268 17.8156 19.5563 18.4453 20.333 18.4453Z" fill="#0E191E"/>
<path d="M33.5226 20.5422C32.6462 20.5422 31.968 21.3476 32.1429 22.2241C32.2782 22.8858 32.8553 23.3561 33.5226 23.3561C34.3071 23.3561 34.9288 22.7146 34.9288 21.9485C34.9288 21.1897 34.312 20.5422 33.5226 20.5422Z" fill="#0E191E"/>
<path d="M20.333 23.3552H28.7088C29.4853 23.3552 30.115 22.7255 30.115 21.949C30.115 21.1724 29.4853 20.5427 28.7088 20.5427H20.333C19.5565 20.5427 18.9268 21.1724 18.9268 21.949C18.9268 22.7255 19.5563 23.3552 20.333 23.3552Z" fill="#0E191E"/>
<path d="M33.5222 25.4526H20.333C19.5565 25.4526 18.9268 26.0824 18.9268 26.8589C18.9268 27.6354 19.5565 28.2651 20.333 28.2651H33.5222C34.2988 28.2651 34.9285 27.6354 34.9285 26.8589C34.9285 26.0824 34.2988 25.4526 33.5222 25.4526Z" fill="#0E191E"/>
<path d="M7.68359 58.125C7.68359 58.9015 8.31331 59.5312 9.08984 59.5312H15.3863C16.1629 59.5312 16.7926 58.9015 16.7926 58.125C16.7926 57.3485 16.1629 56.7188 15.3863 56.7188H9.08984C8.31317 56.7188 7.68359 57.3483 7.68359 58.125Z" fill="#0E191E"/>
<path d="M15.3865 61.6868H6.00684C5.2303 61.6868 4.60059 62.3165 4.60059 63.093C4.60059 63.8695 5.2303 64.4993 6.00684 64.4993H15.3865C16.1631 64.4993 16.7928 63.8695 16.7928 63.093C16.7928 62.3165 16.1631 61.6868 15.3865 61.6868Z" fill="#0E191E"/>
<path d="M32.249 58.125C32.249 58.9015 32.8787 59.5312 33.6553 59.5312H38.3451C39.1216 59.5312 39.7514 58.9015 39.7514 58.125C39.7514 57.3485 39.1216 56.7188 38.3451 56.7188H33.6553C32.8787 56.7188 32.249 57.3483 32.249 58.125Z" fill="#0E191E"/>
<path d="M29.9043 63.093C29.9043 63.8695 30.534 64.4993 31.3105 64.4993H40.6901C41.4666 64.4993 42.0963 63.8695 42.0963 63.093C42.0963 62.3165 41.4666 61.6868 40.6901 61.6868H31.3105C30.534 61.6868 29.9043 62.3163 29.9043 63.093Z" fill="#0E191E"/>
<path d="M56.6582 59.5312H62.7751C63.5516 59.5312 64.1814 58.9015 64.1814 58.125C64.1814 57.3485 63.5516 56.7188 62.7751 56.7188H56.6582C55.8817 56.7188 55.252 57.3485 55.252 58.125C55.252 58.9015 55.8817 59.5312 56.6582 59.5312Z" fill="#0E191E"/>
<path d="M66.0379 61.6868H56.6582C55.8817 61.6868 55.252 62.3165 55.252 63.093C55.252 63.8695 55.8817 64.4993 56.6582 64.4993H66.0379C66.8144 64.4993 67.4441 63.8695 67.4441 63.093C67.4441 62.3165 66.8146 61.6868 66.0379 61.6868Z" fill="#0E191E"/>
<path d="M51.052 6.22192H50.085C49.3084 6.22192 48.6787 6.85164 48.6787 7.62817C48.6787 8.40471 49.3084 9.03442 50.085 9.03442H51.052C51.8286 9.03442 52.4583 8.40471 52.4583 7.62817C52.4583 6.85164 51.8287 6.22192 51.052 6.22192Z" fill="#0E191E"/>
</g>
<defs>
<clipPath id="clip0_125_3633">
<rect width="72" height="72" fill="white"/>
</clipPath>
</defs>
</svg>
