<svg width="60" height="60" viewBox="0 0 60 60" fill="none" xmlns="http://www.w3.org/2000/svg">
<path d="M5.42578 45.2344C6.11182 45.2344 6.66797 44.6782 6.66797 43.9922C6.66797 43.3061 6.11182 42.75 5.42578 42.75C4.73974 42.75 4.18359 43.3061 4.18359 43.9922C4.18359 44.6782 4.73974 45.2344 5.42578 45.2344Z" fill="#263238"/>
<path d="M11.0273 45.2344C11.7134 45.2344 12.2695 44.6782 12.2695 43.9922C12.2695 43.3061 11.7134 42.75 11.0273 42.75C10.3413 42.75 9.78516 43.3061 9.78516 43.9922C9.78516 44.6782 10.3413 45.2344 11.0273 45.2344Z" fill="#263238"/>
<path d="M27.1055 22.4062H25.3477C25.2539 22.1133 25.125 21.832 24.9961 21.5508L26.2383 20.3086C26.4844 20.0625 26.625 19.7227 26.625 19.3711C26.625 19.0195 26.4844 18.6797 26.2383 18.4336L23.5195 15.7148C23.2734 15.4688 22.9336 15.3281 22.582 15.3281C22.2305 15.3281 21.9023 15.4688 21.6445 15.7148L20.4023 16.9453C20.1211 16.8164 19.8398 16.6992 19.5469 16.5938V14.8477C19.5469 14.1211 18.9492 13.5234 18.2227 13.5234H14.3789C13.6406 13.5234 13.0547 14.1211 13.0547 14.8477V16.6289C12.7734 16.7344 12.4922 16.8516 12.2227 16.9805L10.957 15.7148C10.4414 15.1992 9.59766 15.1992 9.08203 15.7148L6.36328 18.4336C6.11719 18.6797 5.97656 19.0195 5.97656 19.3711C5.97656 19.7227 6.11719 20.0508 6.36328 20.3086L7.66406 21.6094C7.54687 21.8672 7.42969 22.1367 7.33594 22.3945H5.50781C4.76953 22.3945 4.18359 22.9922 4.18359 23.7187V27.5625C4.18359 28.3008 4.76953 28.8867 5.50781 28.8867H7.39453C7.48828 29.1445 7.59375 29.4023 7.71094 29.6484L6.375 30.9844C6.12891 31.2422 5.98828 31.5703 5.98828 31.9219C5.98828 32.2734 6.12891 32.6016 6.375 32.8594L9.09375 35.5781C9.60937 36.0938 10.4531 36.0938 10.9687 35.5781L12.3047 34.2422C12.5508 34.3594 12.8086 34.4648 13.0664 34.5586V36.4453C13.0664 37.1836 13.6523 37.7695 14.3906 37.7695H18.2344C18.9609 37.7695 19.5586 37.1836 19.5586 36.4453V34.5938C19.8281 34.5 20.0859 34.3828 20.3438 34.2656L21.6445 35.5664C21.8906 35.8242 22.2187 35.9531 22.582 35.9531C22.9453 35.9531 23.2734 35.8125 23.5195 35.5664L26.2383 32.8477C26.4844 32.5898 26.625 32.2617 26.625 31.9102C26.625 31.5586 26.4844 31.2305 26.2383 30.9727L24.9727 29.707C25.1016 29.4375 25.2188 29.1562 25.3242 28.875H27.1055C27.832 28.875 28.4297 28.2891 28.4297 27.5508V23.707C28.4297 23.0039 27.832 22.4062 27.1055 22.4062ZM27.1875 27.5742C27.1875 27.6211 27.1523 27.6562 27.1055 27.6562H24.4219L24.2812 28.0898C24.1172 28.6055 23.918 29.0859 23.6602 29.5547L23.4375 29.9531L25.3477 31.8633C25.3828 31.8867 25.3828 31.9453 25.3477 31.9805L22.6406 34.6992H22.5234L20.5781 32.7539L20.1797 32.9648C19.7227 33.2109 19.2422 33.3984 18.75 33.5508L18.3047 33.6797V36.4453C18.3047 36.4922 18.2695 36.5273 18.2227 36.5273H14.3789C14.332 36.5273 14.2969 36.4922 14.2969 36.4453V33.6562L13.8633 33.5156C13.3828 33.3633 12.9141 33.1641 12.457 32.9297L12.0586 32.707L10.0781 34.6875C10.043 34.7227 9.99609 34.7227 9.96094 34.6875L7.24219 31.9687C7.20703 31.9453 7.20703 31.8867 7.24219 31.8516L9.22266 29.8711L9 29.4727C8.75391 29.0156 8.56641 28.5469 8.41406 28.0664L8.27344 27.6328H5.50781C5.46094 27.6328 5.42578 27.5977 5.42578 27.5508V23.707C5.42578 23.6602 5.46094 23.625 5.50781 23.625H8.27344L8.40234 23.1797C8.55469 22.6875 8.74219 22.207 8.98828 21.75L9.19922 21.3516L7.25391 19.4062C7.21875 19.3711 7.21875 19.3242 7.25391 19.2891L9.97266 16.5703C10.0078 16.5352 10.0547 16.5352 10.0898 16.5703L12 18.4805L12.3984 18.2578C12.8672 18 13.3594 17.8008 13.8633 17.6367L14.2969 17.4961V14.8125C14.2969 14.7656 14.332 14.7305 14.3789 14.7305H18.2227C18.2695 14.7305 18.3047 14.7656 18.3047 14.8125V17.4727L18.75 17.6133C19.2656 17.7656 19.7695 17.9766 20.2383 18.2227L20.6484 18.4453L22.5234 16.5703H22.6406L25.3477 19.2891C25.3828 19.3242 25.3828 19.3711 25.3477 19.4062L23.4727 21.2812L23.6836 21.6914C23.9414 22.1602 24.1406 22.6641 24.3047 23.1797L24.4453 23.625H27.1055C27.1523 23.625 27.1875 23.6602 27.1875 23.707V27.5742Z" fill="#263238"/>
<path d="M16.3594 20.0859C13.3242 20.0859 10.8398 22.5586 10.8398 25.6055C10.8398 28.6523 13.3125 31.125 16.3594 31.125C19.4062 31.125 21.8789 28.6523 21.8789 25.6055C21.8789 22.5586 19.3945 20.0859 16.3594 20.0859ZM16.3594 29.8711C14.0039 29.8711 12.082 27.9609 12.082 25.5937C12.082 23.2383 13.9922 21.3164 16.3594 21.3164C18.7266 21.3164 20.6367 23.2266 20.6367 25.5937C20.625 27.9492 18.7148 29.8711 16.3594 29.8711Z" fill="#263238"/>
<path d="M58.8281 4.81641H54.5977V3.89062C54.5977 3.375 54.1758 2.95312 53.6602 2.95312H50.9062C50.4258 1.82812 49.3125 1.08984 48.0703 1.08984C46.8281 1.08984 45.7148 1.83984 45.2344 2.95312H42.4922C41.9648 2.95312 41.543 3.375 41.543 3.89062V4.81641H37.3125C36.7266 4.81641 36.2578 5.28516 36.2578 5.87109V9.79687H3.08203C1.44141 9.79687 0.117188 11.1211 0.117188 12.7617V44.7539C0.117188 46.3945 1.44141 47.7188 3.08203 47.7188H24.0469L22.1836 53.9414H20.0039C18.6328 53.9414 17.5195 55.0664 17.5195 56.4258C17.5195 57.7969 18.6445 58.9102 20.0039 58.9102H36.1758C37.5469 58.9102 38.6602 57.7969 38.6602 56.4258C38.6602 55.0547 37.5469 53.9414 36.1758 53.9414H34.0078L32.1445 47.7188H53.1094C54.75 47.7188 56.0742 46.3828 56.0742 44.7539V36.5273H58.8281C59.4023 36.5273 59.8828 36.0586 59.8828 35.4727V5.87109C59.8828 5.28516 59.4141 4.81641 58.8281 4.81641ZM42.7852 4.19531H46.1484L46.2656 3.73828C46.4883 2.90625 47.2266 2.33203 48.0703 2.33203C48.9141 2.33203 49.6523 2.90625 49.8633 3.72656L49.9805 4.19531H53.3555V6.67969H42.7852V4.19531ZM36.1758 55.1836C36.8672 55.1836 37.418 55.7461 37.418 56.4258C37.418 57.1172 36.8672 57.668 36.1758 57.668H20.0039C19.3242 57.668 18.7617 57.1172 18.7617 56.4258C18.7617 55.7461 19.3242 55.1836 20.0039 55.1836H36.1758ZM32.707 53.9414H23.4844L25.3477 47.7188H30.8555L32.707 53.9414ZM54.832 44.7539C54.832 45.7031 54.0586 46.4766 53.1094 46.4766H3.07031C2.12109 46.4766 1.35938 45.7031 1.35938 44.7539V41.5078H54.832V44.7539ZM54.832 40.2539H1.35938V12.7617C1.35938 11.8125 2.12109 11.0391 3.07031 11.0391H36.2461V35.4844C36.2461 36.0586 36.7148 36.5391 37.3008 36.5391H54.832V40.2539ZM58.6406 35.2852H37.5V6.05859H41.543V6.98437C41.543 7.51172 41.9648 7.92187 42.4922 7.92187H53.6602C54.1758 7.92187 54.5977 7.5 54.5977 6.98437V6.05859H58.6406V35.2852Z" fill="#263238"/>
<path d="M54.5977 6.05859V6.98437C54.5977 7.51172 54.1758 7.92187 53.6602 7.92187H42.4922C41.9648 7.92187 41.543 7.5 41.543 6.98437V6.05859H37.5V35.2852H58.6406V6.05859H54.5977ZM55.793 28.4414H40.8633C40.5117 28.4414 40.2422 28.1719 40.2422 27.8203C40.2422 27.4805 40.5117 27.1992 40.8633 27.1992H55.7812C56.1211 27.1992 56.4023 27.4805 56.4023 27.8203C56.4141 28.1719 56.1328 28.4414 55.793 28.4414ZM55.793 23.4727H40.8633C40.5117 23.4727 40.2422 23.2031 40.2422 22.8516C40.2422 22.5117 40.5117 22.2305 40.8633 22.2305H55.7812C56.1211 22.2305 56.4023 22.5117 56.4023 22.8516C56.4141 23.2031 56.1328 23.4727 55.793 23.4727ZM55.793 18.4922H40.8633C40.5117 18.4922 40.2422 18.2227 40.2422 17.8711C40.2422 17.5312 40.5117 17.25 40.8633 17.25H55.7812C56.1211 17.25 56.4023 17.5312 56.4023 17.8711C56.4141 18.2227 56.1328 18.4922 55.793 18.4922ZM55.793 13.5234H40.8633C40.5117 13.5234 40.2422 13.2539 40.2422 12.9023C40.2422 12.5625 40.5117 12.2812 40.8633 12.2812H55.7812C56.1211 12.2812 56.4023 12.5625 56.4023 12.9023C56.4141 13.2539 56.1328 13.5234 55.793 13.5234Z" fill="#D2EBD3"/>
<path d="M37.418 56.4258C37.418 57.1172 36.8672 57.668 36.1758 57.668H20.0039C19.3242 57.668 18.7617 57.1172 18.7617 56.4258C18.7617 55.7461 19.3242 55.1836 20.0039 55.1836H36.1758C36.8672 55.1836 37.418 55.7461 37.418 56.4258Z" fill="#D2EBD3"/>
<path d="M1.35938 41.5078V44.7539C1.35938 45.7031 2.12109 46.4766 3.07031 46.4766H53.1094C54.0586 46.4766 54.832 45.7031 54.832 44.7539V41.5078H1.35938ZM5.42578 45.2344C4.73437 45.2344 4.18359 44.6836 4.18359 43.9922C4.18359 43.3125 4.73437 42.75 5.42578 42.75C6.10547 42.75 6.66797 43.3125 6.66797 43.9922C6.66797 44.6836 6.10547 45.2344 5.42578 45.2344ZM11.0273 45.2344C10.3359 45.2344 9.78516 44.6836 9.78516 43.9922C9.78516 43.3125 10.3359 42.75 11.0273 42.75C11.707 42.75 12.2695 43.3125 12.2695 43.9922C12.2695 44.6836 11.707 45.2344 11.0273 45.2344Z" fill="#D2EBD3"/>
<path d="M32.707 53.9414H23.4844L25.3477 47.7188H30.8438L32.707 53.9414Z" fill="#C8E6C9"/>
<path d="M53.3555 4.19531V6.67969H42.7852V4.19531H46.1484L46.2656 3.73828C46.4883 2.90625 47.2266 2.33203 48.0703 2.33203C48.9141 2.33203 49.6523 2.90625 49.8633 3.72656L49.9805 4.19531H53.3555Z" fill="#C8E6C9"/>
<path d="M37.3008 36.5273C36.7148 36.5273 36.2461 36.0586 36.2461 35.4727V11.0391H3.08203C2.13281 11.0391 1.37109 11.8125 1.37109 12.7617V40.2656H54.8437V36.5391H37.3008V36.5273ZM28.4297 27.5742C28.4297 28.3125 27.832 28.8984 27.1055 28.8984H25.3242C25.2188 29.1797 25.1016 29.4609 24.9727 29.7305L26.2383 30.9961C26.4844 31.2422 26.625 31.5703 26.625 31.9336C26.625 32.2969 26.4844 32.6133 26.2383 32.8711L23.5195 35.5898C23.2734 35.8359 22.9336 35.9766 22.582 35.9766C22.2305 35.9766 21.9023 35.8359 21.6445 35.5898L20.3438 34.2891C20.0859 34.4062 19.8164 34.5234 19.5586 34.6172V36.4453C19.5586 37.1836 18.9609 37.7695 18.2344 37.7695H14.3906C13.6523 37.7695 13.0664 37.1836 13.0664 36.4453V34.5586C12.8086 34.4648 12.5508 34.3594 12.3047 34.2422L10.9688 35.5781C10.4531 36.0938 9.60938 36.0938 9.09375 35.5781L6.375 32.8594C6.12891 32.6016 5.98828 32.2734 5.98828 31.9219C5.98828 31.5703 6.12891 31.2422 6.375 30.9844L7.71094 29.6484C7.59375 29.4023 7.48828 29.1445 7.39453 28.8867H5.50781C4.76953 28.8867 4.18359 28.3008 4.18359 27.5625V23.7187C4.18359 22.9922 4.76953 22.3945 5.50781 22.3945H7.35937C7.45312 22.125 7.57031 21.8672 7.6875 21.6094L6.38672 20.3086C6.14062 20.0625 6 19.7227 6 19.3711C6 19.0195 6.14062 18.6797 6.38672 18.4336L9.10547 15.7148C9.62109 15.1992 10.4648 15.1992 10.9805 15.7148L12.2461 16.9805C12.5156 16.8516 12.7969 16.7344 13.0781 16.6289V14.8477C13.0781 14.1211 13.6641 13.5234 14.4023 13.5234H18.2461C18.9727 13.5234 19.5703 14.1211 19.5703 14.8477V16.5938C19.8633 16.6992 20.1445 16.8164 20.4258 16.9453L21.668 15.7148C21.9141 15.4688 22.2422 15.3281 22.6055 15.3281C22.9687 15.3281 23.2969 15.4688 23.543 15.7148L26.2617 18.4336C26.5078 18.6797 26.6484 19.0195 26.6484 19.3711C26.6484 19.7227 26.5078 20.0508 26.2617 20.3086L25.0195 21.5508C25.1602 21.832 25.2773 22.1133 25.3711 22.4062H27.1289C27.8555 22.4062 28.4531 23.0039 28.4531 23.7305V27.5742H28.4297Z" fill="white"/>
<path d="M27.1055 23.6484H24.4453L24.3047 23.2031C24.1523 22.6875 23.9414 22.1836 23.6836 21.7148L23.4727 21.3047L25.3477 19.4297C25.3828 19.3945 25.3828 19.3477 25.3477 19.3125L22.6406 16.5938H22.5234L20.6484 18.4688L20.2383 18.2461C19.7695 18 19.2656 17.7891 18.75 17.6367L18.3047 17.4961V14.8359C18.3047 14.7891 18.2695 14.7539 18.2227 14.7539H14.3789C14.332 14.7539 14.2969 14.7891 14.2969 14.8359V17.5195L13.8633 17.6602C13.3477 17.8242 12.8672 18.0234 12.3984 18.2812L12 18.5039L10.0898 16.5938C10.0547 16.5586 10.0078 16.5586 9.97266 16.5938L7.25391 19.3125C7.21875 19.3477 7.21875 19.3945 7.25391 19.4297L9.19922 21.375L8.98828 21.7734C8.74219 22.2305 8.55469 22.7109 8.40234 23.2031L8.27344 23.6484H5.50781C5.46094 23.6484 5.42578 23.6836 5.42578 23.7305V27.5742C5.42578 27.6211 5.46094 27.6562 5.50781 27.6562H8.28516L8.42578 28.0898C8.57813 28.5703 8.77734 29.0391 9.01172 29.4961L9.23438 29.8945L7.25391 31.875C7.21875 31.8984 7.21875 31.957 7.25391 31.9922L9.97266 34.7109C10.0078 34.7461 10.0547 34.7461 10.0898 34.7109L12.0703 32.7305L12.4688 32.9531C12.9258 33.1875 13.3945 33.3867 13.875 33.5391L14.3086 33.6797V36.4453C14.3086 36.4922 14.3438 36.5273 14.3906 36.5273H18.2344C18.2813 36.5273 18.3164 36.4922 18.3164 36.4453V33.6797L18.7617 33.5508C19.2539 33.3984 19.7344 33.2109 20.1914 32.9648L20.5898 32.7539L22.5352 34.6992H22.6523L25.3594 31.9805C25.3945 31.957 25.3945 31.8984 25.3594 31.8633L23.4492 29.9531L23.6719 29.5547C23.9297 29.0859 24.1289 28.5937 24.293 28.0898L24.4336 27.6562H27.1172C27.1641 27.6562 27.1992 27.6211 27.1992 27.5742V23.7305C27.1875 23.6836 27.1523 23.6484 27.1055 23.6484ZM16.3594 31.1133C13.3242 31.1133 10.8398 28.6406 10.8398 25.5937C10.8398 22.5469 13.3125 20.0742 16.3594 20.0742C19.4063 20.0742 21.8789 22.5469 21.8789 25.5937C21.8789 28.6406 19.3945 31.1133 16.3594 31.1133Z" fill="#4CAF4F"/>
<path d="M16.3594 29.8711C18.7217 29.8711 20.6367 27.9561 20.6367 25.5938C20.6367 23.2314 18.7217 21.3164 16.3594 21.3164C13.9971 21.3164 12.082 23.2314 12.082 25.5938C12.082 27.9561 13.9971 29.8711 16.3594 29.8711Z" fill="#D2EBD3"/>
<path d="M56.4141 12.9023C56.4141 13.2539 56.1328 13.5234 55.793 13.5234H40.8633C40.5117 13.5234 40.2422 13.2539 40.2422 12.9023C40.2422 12.5625 40.5117 12.2812 40.8633 12.2812H55.7813C56.1328 12.2812 56.4141 12.5625 56.4141 12.9023Z" fill="#263238"/>
<path d="M56.4141 17.8711C56.4141 18.2227 56.1328 18.4922 55.793 18.4922H40.8633C40.5117 18.4922 40.2422 18.2227 40.2422 17.8711C40.2422 17.5313 40.5117 17.25 40.8633 17.25H55.7813C56.1328 17.25 56.4141 17.5313 56.4141 17.8711Z" fill="#263238"/>
<path d="M56.4141 22.8516C56.4141 23.2031 56.1328 23.4727 55.793 23.4727H40.8633C40.5117 23.4727 40.2422 23.2031 40.2422 22.8516C40.2422 22.5117 40.5117 22.2305 40.8633 22.2305H55.7813C56.1328 22.2305 56.4141 22.5117 56.4141 22.8516Z" fill="#263238"/>
<path d="M56.4141 27.8203C56.4141 28.1719 56.1328 28.4414 55.793 28.4414H40.8633C40.5117 28.4414 40.2422 28.1719 40.2422 27.8203C40.2422 27.4805 40.5117 27.1992 40.8633 27.1992H55.7813C56.1328 27.1992 56.4141 27.4805 56.4141 27.8203Z" fill="#263238"/>
</svg>
