<svg width="72" height="72" viewBox="0 0 72 72" fill="none" xmlns="http://www.w3.org/2000/svg">
<g clip-path="url(#clip0_125_3564)">
<path d="M1.40625 58.4601C1.40625 61.2997 3.70828 63.6017 6.54792 63.6017H14.2657V47.3247C14.2657 46.3393 15.0646 45.5404 16.05 45.5404H21.1641C22.1494 45.5404 22.9483 46.3393 22.9483 47.3247V63.6017H29.9662V53.8048C29.9662 52.5506 30.9831 51.5337 32.2373 51.5337H32.5195L28.0375 40.7798C27.501 39.4924 27.8234 38.0073 28.8474 37.0605C30.9485 35.1176 34.4139 31.5844 36.0257 28.0906C37.639 31.5876 41.0863 35.1241 43.1716 37.0658C44.1861 38.0104 44.506 39.4854 43.977 40.7668L39.5319 51.5339H39.7631C41.0174 51.5339 42.0342 52.5506 42.0342 53.805V63.6019H48.7855V51.0013C48.7855 50.084 49.5291 49.3403 50.4465 49.3403H50.1296V46.8872C50.1296 45.8779 50.9477 45.0598 51.957 45.0598H52.9241C53.9333 45.0598 54.7515 45.8779 54.7515 46.8872V49.34H54.4345C55.3518 49.34 56.0956 50.0836 56.0956 51.001V63.6016H65.4525C68.2921 63.6016 70.5942 61.2996 70.5942 58.4599V24.4419H1.40625V58.4601Z" fill="white"/>
<path d="M65.4522 8.39844H6.54792C3.70828 8.39844 1.40625 10.7003 1.40625 13.54V24.4419H70.5938V13.54C70.5938 10.7003 68.2917 8.39844 65.4522 8.39844ZM9.99281 19.6974C8.42048 19.6974 7.14586 18.4227 7.14586 16.8504C7.14586 15.2781 8.42048 14.0035 9.99281 14.0035C11.5651 14.0035 12.8398 15.2781 12.8398 16.8504C12.8398 18.4227 11.5651 19.6974 9.99281 19.6974ZM21.4538 19.6974C19.8814 19.6974 18.6068 18.4227 18.6068 16.8504C18.6068 15.2781 19.8814 14.0035 21.4538 14.0035C23.0261 14.0035 24.3007 15.2781 24.3007 16.8504C24.3007 18.4227 23.0261 19.6974 21.4538 19.6974ZM32.9148 19.6974C31.3425 19.6974 30.0679 18.4227 30.0679 16.8504C30.0679 15.2781 31.3425 14.0035 32.9148 14.0035C34.4872 14.0035 35.7618 15.2781 35.7618 16.8504C35.7618 18.4227 34.4872 19.6974 32.9148 19.6974Z" fill="#FF521C"/>
<path d="M9.99246 19.6973C11.5648 19.6973 12.8394 18.4227 12.8394 16.8504C12.8394 15.278 11.5648 14.0034 9.99246 14.0034C8.42013 14.0034 7.14551 15.278 7.14551 16.8504C7.14551 18.4227 8.42013 19.6973 9.99246 19.6973Z" fill="white"/>
<path d="M21.4534 19.6973C23.0257 19.6973 24.3004 18.4227 24.3004 16.8504C24.3004 15.278 23.0257 14.0034 21.4534 14.0034C19.8811 14.0034 18.6064 15.278 18.6064 16.8504C18.6064 18.4227 19.8811 19.6973 21.4534 19.6973Z" fill="white"/>
<path d="M32.9153 19.6973C34.4876 19.6973 35.7623 18.4227 35.7623 16.8504C35.7623 15.278 34.4876 14.0034 32.9153 14.0034C31.343 14.0034 30.0684 15.278 30.0684 16.8504C30.0684 18.4227 31.343 19.6973 32.9153 19.6973Z" fill="white"/>
<path d="M43.9768 40.7666C44.5058 39.4852 44.1859 38.0102 43.1714 37.0656C41.0861 35.1238 37.6388 31.5874 36.0256 28.0903C34.4137 31.5842 30.9483 35.1175 28.8472 37.0602C27.8232 38.0071 27.5009 39.4922 28.0374 40.7796L32.5194 51.5335H39.5318L43.9768 40.7666Z" fill="#FFD277"/>
<path d="M65.4522 6.99219H6.54792C2.93738 6.99219 0 9.92942 0 13.54V58.4601C0 62.0706 2.93738 65.008 6.54792 65.008H65.4522C69.0628 65.008 72.0001 62.0706 72.0001 58.4601C72.0001 57.2097 72.0001 14.7102 72.0001 13.54C72 9.92942 69.0626 6.99219 65.4522 6.99219ZM2.8125 13.54C2.8125 11.4804 4.48819 9.80455 6.54792 9.80455H65.4522C67.5118 9.80455 69.1876 11.4802 69.1876 13.54V23.0355H2.8125V13.54ZM15.6718 62.1954V60.9793H17.6718C18.4485 60.9793 19.078 60.3495 19.078 59.573C19.078 58.7965 18.4485 58.1668 17.6718 58.1668H15.6718V56.4182H17.6718C18.4485 56.4182 19.078 55.7885 19.078 55.012C19.078 54.2354 18.4485 53.6057 17.6718 53.6057H15.6718V51.857H17.6718C18.4485 51.857 19.078 51.2273 19.078 50.4508C19.078 49.6743 18.4485 49.0445 17.6718 49.0445H15.6718V47.3246C15.6718 47.1163 15.8414 46.9466 16.0498 46.9466H21.1638C21.3722 46.9466 21.5418 47.1162 21.5418 47.3246V62.1954H15.6718ZM38.5909 50.1274H37.4062V43.1142C37.4062 42.3377 36.7767 41.708 36 41.708C35.2233 41.708 34.5938 42.3377 34.5938 43.1142V50.1274H33.4568L29.3354 40.2389C29.0268 39.4986 29.2144 38.6363 29.8018 38.0928C31.772 36.2712 34.2512 33.7145 36.0242 30.9734C37.7913 33.7146 40.2557 36.2724 42.2131 38.0951C42.7943 38.6362 42.9806 39.4941 42.6769 40.23L38.5909 50.1274ZM31.3722 62.1954V53.8047C31.3722 53.3277 31.7602 52.9399 32.237 52.9399H39.763C40.2398 52.9399 40.6278 53.3278 40.6278 53.8047V62.1954H31.3722ZM51.5355 46.8872C51.5355 46.655 51.7245 46.466 51.9569 46.466H52.9239C53.1561 46.466 53.3451 46.655 53.3451 46.8872V47.9338H51.5355V46.8872ZM50.1915 62.1954V51.0011C50.1915 50.8606 50.3058 50.7463 50.4463 50.7463H54.4342C54.5747 50.7463 54.6891 50.8606 54.6891 51.0011V62.1954H50.1915ZM65.4522 62.1954H57.5016V51.0011C57.5016 49.9482 56.9682 49.0177 56.1576 48.4652V46.8872C56.1576 45.4247 55.1814 44.1865 53.8466 43.7884V40.3401C53.8466 39.5636 53.217 38.9339 52.4403 38.9339C51.6637 38.9339 51.0341 39.5636 51.0341 40.3401V43.7884C49.6993 44.1867 48.723 45.4247 48.723 46.8872V48.4652C47.9125 49.0177 47.3791 49.9482 47.3791 51.0011V62.1954H43.4403V53.8047C43.4403 52.3896 42.6362 51.1593 41.4615 50.5446L45.2766 41.3031C46.0256 39.4889 45.5646 37.3724 44.1298 36.0365C42.2378 34.2747 38.8351 30.8232 37.3025 27.5012C36.8009 26.4136 35.2503 26.4138 34.7487 27.5012C33.2179 30.8195 29.796 34.2677 27.8924 36.0279C26.4421 37.369 25.9788 39.496 26.7393 41.3207L30.5757 50.5258C29.3808 51.1337 28.5597 52.3748 28.5597 53.8048V62.1955H24.3543V47.3246C24.3543 45.5653 22.923 44.1341 21.1638 44.1341H16.0498C14.2906 44.1341 12.8593 45.5653 12.8593 47.3246V62.1954H6.54792C4.48819 62.1954 2.8125 60.5197 2.8125 58.4601V25.8482H69.1875V58.4601C69.1875 60.5197 67.5118 62.1954 65.4522 62.1954Z" fill="#0E191E"/>
<path d="M9.99246 12.5972C7.64726 12.5972 5.73926 14.505 5.73926 16.8502C5.73926 19.1954 7.64726 21.1034 9.99246 21.1034C12.3377 21.1034 14.2457 19.1954 14.2457 16.8502C14.2457 14.505 12.3377 12.5972 9.99246 12.5972ZM9.99246 18.2909C9.19807 18.2909 8.55176 17.6446 8.55176 16.8502C8.55176 16.056 9.19807 15.4097 9.99246 15.4097C10.7869 15.4097 11.4332 16.056 11.4332 16.8502C11.4332 17.6448 10.7869 18.2909 9.99246 18.2909Z" fill="#0E191E"/>
<path d="M21.4544 12.5972C19.1092 12.5972 17.2012 14.505 17.2012 16.8502C17.2012 19.1954 19.1092 21.1034 21.4544 21.1034C23.7996 21.1034 25.7076 19.1954 25.7076 16.8502C25.7076 14.505 23.7994 12.5972 21.4544 12.5972ZM21.4544 18.2909C20.66 18.2909 20.0137 17.6446 20.0137 16.8502C20.0137 16.056 20.66 15.4097 21.4544 15.4097C22.2488 15.4097 22.8951 16.056 22.8951 16.8502C22.8949 17.6448 22.2486 18.2909 21.4544 18.2909Z" fill="#0E191E"/>
<path d="M32.9153 12.5972C30.5701 12.5972 28.6621 14.505 28.6621 16.8502C28.6621 19.1954 30.5701 21.1034 32.9153 21.1034C35.2605 21.1034 37.1685 19.1954 37.1685 16.8502C37.1685 14.505 35.2605 12.5972 32.9153 12.5972ZM32.9153 18.2909C32.1209 18.2909 31.4746 17.6446 31.4746 16.8502C31.4746 16.056 32.1209 15.4097 32.9153 15.4097C33.7097 15.4097 34.356 16.056 34.356 16.8502C34.356 17.6448 33.7097 18.2909 32.9153 18.2909Z" fill="#0E191E"/>
<path d="M35.7255 37.1207C34.9487 37.2784 34.4704 38.0288 34.6216 38.7746C34.7595 39.4516 35.3454 39.9067 35.9997 39.9067C36.7646 39.9067 37.406 39.2844 37.406 38.5004C37.406 37.6006 36.5764 36.9493 35.7255 37.1207Z" fill="#0E191E"/>
</g>
<defs>
<clipPath id="clip0_125_3564">
<rect width="72" height="72" fill="white"/>
</clipPath>
</defs>
</svg>
