<svg width="72" height="72" viewBox="0 0 72 72" fill="none" xmlns="http://www.w3.org/2000/svg">
<path d="M62.8838 10.7695H59.1341L50.1564 21.7153L45.3094 27.6247C45.3094 27.6247 47.5063 32.4614 43.5415 35.2365C40.3127 37.4968 35.5906 34.1871 31.5909 38.0092C27.3331 22.0467 39.554 23.3545 39.554 23.3545L43.8045 17.0026L47.9753 10.7697H9.11605C6.75528 10.7697 4.84155 12.6834 4.84155 15.0442V43.3717H67.1584V15.044C67.1584 12.6833 65.2446 10.7695 62.8838 10.7695Z" fill="white"/>
<path d="M4.84131 51.3631C4.84131 53.7239 6.75504 55.6376 9.1158 55.6376H32.9618H39.0377H62.8837C65.2445 55.6376 67.1582 53.7239 67.1582 51.3631V43.3716H4.84131V51.3631Z" fill="#FF521C"/>
<path d="M30.6245 65.4527H41.3742L39.0374 55.6377H32.9614L30.6245 65.4527Z" fill="white"/>
<path d="M25.916 65.4526C24.3437 65.4526 23.0691 66.7272 23.0691 68.2995V70.5938H48.9307V68.2995C48.9307 66.7272 47.656 65.4526 46.0837 65.4526H41.3747H30.625H25.916Z" fill="#FF521C"/>
<path d="M50.156 21.7152L59.1337 10.7695L60.447 9.16834C62.1676 7.07054 61.7839 3.95983 59.6049 2.34324C57.426 0.726506 54.3376 1.26101 52.8288 3.51603L47.9751 10.7696L43.8042 17.0025L50.156 21.7152Z" fill="white"/>
<path d="M31.5908 38.0092C35.5905 34.1871 40.3126 37.4968 43.5415 35.2366C47.5063 32.4612 45.3094 27.6247 45.3094 27.6247L39.5541 23.3545C39.5541 23.3545 27.3331 22.0467 31.5908 38.0092Z" fill="#FFF398"/>
<path d="M43.8044 17.0024L39.554 23.3543L45.3092 27.6245L50.1562 21.7151L43.8044 17.0024Z" fill="white"/>
<path d="M62.8838 9.36315H62.0295C63.6579 6.712 63.0566 3.15271 60.4431 1.21367C57.6272 -0.875417 53.6255 -0.202961 51.6603 2.73379L47.2242 9.36329H9.11602C5.98366 9.36329 3.4353 11.9116 3.4353 15.044V51.3631C3.4353 54.4954 5.98366 57.0438 9.11602 57.0438H31.1816L29.5144 64.0464H25.916C23.5709 64.0464 21.6629 65.9542 21.6629 68.2993V69.1874H17.227C16.4503 69.1874 15.8207 69.8171 15.8207 70.5936C15.8207 71.3701 16.4503 71.9998 17.227 71.9998H54.773C55.5496 71.9998 56.1792 71.3701 56.1792 70.5936C56.1792 69.8171 55.5496 69.1874 54.773 69.1874H50.337V68.2993C50.337 65.9542 48.4291 64.0464 46.0839 64.0464H42.4855L40.8183 57.0438H62.8839C66.0163 57.0438 68.5646 54.4954 68.5646 51.3631V43.3715V15.0439C68.5646 11.9115 66.0163 9.36315 62.8838 9.36315ZM42.7351 34.0844C40.5365 35.6235 36.4175 33.5315 32.4841 35.6304C31.5243 30.6446 32.1294 25.9556 37.125 24.9206C37.7706 24.786 38.4657 24.7251 39.0574 24.737C40.7483 25.9914 42.4585 27.2603 44.1446 28.5114C44.8827 30.6584 44.6057 32.7751 42.7351 34.0844ZM44.1523 19.0114L48.1329 21.9647L45.0717 25.697C43.8115 24.762 42.7281 23.9582 41.4679 23.0231C41.7296 22.632 43.9131 19.3687 44.1523 19.0114ZM53.9979 4.29793C55.0629 2.70595 57.2351 2.33555 58.7673 3.47248C60.3001 4.60955 60.5746 6.79567 59.3601 8.27656C57.205 10.9038 52.0816 17.1504 49.9184 19.7878L45.718 16.6713L53.9979 4.29793ZM47.5245 68.2993V69.1874H24.4753V68.2993C24.4753 67.5051 25.1216 66.8588 25.916 66.8588H46.0838C46.8782 66.8588 47.5245 67.5051 47.5245 68.2993ZM39.5943 64.0464H32.4055L34.0727 57.0438H37.9271L39.5943 64.0464ZM65.7522 51.3631C65.7522 52.9447 64.4655 54.2313 62.8839 54.2313C60.6517 54.2313 11.626 54.2313 9.11616 54.2313C7.53458 54.2313 6.24789 52.9447 6.24789 51.3631V44.7777H10.2663C11.043 44.7777 11.6725 44.148 11.6725 43.3715C11.6725 42.595 11.043 41.9653 10.2663 41.9653H6.24761V15.0439C6.24761 13.4623 7.5343 12.1756 9.11588 12.1756H45.3423C43.9951 14.1889 40.0649 20.0624 38.8199 21.9227C36.0642 21.9476 33.3129 22.9076 31.5118 25.0102C29.0609 27.8711 28.6303 32.3666 30.232 38.3714C30.5058 39.3982 31.787 39.7661 32.5622 39.0256C36.1983 35.5512 40.7269 39.341 44.7823 36.0586C47.2578 34.0547 47.8437 30.8691 46.9102 27.8901C48.172 26.3517 58.5346 13.7177 59.7994 12.1756H62.8836C64.4652 12.1756 65.7519 13.4623 65.7519 15.0439V41.9651H21.5158C20.7392 41.9651 20.1096 42.5949 20.1096 43.3714C20.1096 44.1479 20.7392 44.7776 21.5158 44.7776H65.7522V51.3631Z" fill="#0E191E"/>
<path d="M15.6196 41.9924C14.9427 42.1307 14.489 42.7159 14.489 43.372C14.489 44.2516 15.2932 44.9252 16.1695 44.7502C16.9481 44.5921 17.4225 43.8417 17.2734 43.0964C17.1169 42.3272 16.3707 41.8412 15.6196 41.9924Z" fill="#0E191E"/>
</svg>
