<svg width="72" height="72" viewBox="0 0 72 72" fill="none" xmlns="http://www.w3.org/2000/svg">
<g clip-path="url(#clip0_125_3667)">
<g clip-path="url(#clip1_125_3667)">
<g clip-path="url(#clip2_125_3667)">
<path d="M35.9999 39.1317C42.2625 39.1317 47.3392 34.0549 47.3392 27.7924C47.3392 21.5299 42.2625 16.4531 35.9999 16.4531C29.7374 16.4531 24.6606 21.5299 24.6606 27.7924C24.6606 34.0549 29.7374 39.1317 35.9999 39.1317Z" fill="#FFD277"/>
<path d="M55.601 14.9753L52.6992 17.8771C53.637 19.4531 54.3586 21.1726 54.8218 22.9956H58.9231C60.8356 22.9956 62.386 24.546 62.386 26.4585V29.1267C62.386 31.0392 60.8356 32.5896 58.9231 32.5896H54.8218C54.3586 34.4125 53.637 36.1321 52.6992 37.708L55.601 40.6098C56.5757 41.5845 56.8478 42.9957 56.4176 44.2141H70.4391V16.0068C70.4391 13.3526 68.2874 11.2009 65.6332 11.2009H56.3524C56.8718 12.4563 56.6214 13.9549 55.601 14.9753Z" fill="white"/>
<path d="M16.3987 40.6096L19.3005 37.7078C18.3627 36.1318 17.6412 34.4122 17.1779 32.5893H13.0766C11.1641 32.5893 9.61372 31.0389 9.61372 29.1264V26.4582C9.61372 24.5457 11.1641 22.9953 13.0766 22.9953H17.1779C17.6412 21.1724 18.3627 19.4528 19.3005 17.8769L16.3987 14.9751C15.3784 13.9547 15.1279 12.4559 15.6474 11.2007H6.36641C3.71225 11.2007 1.56055 13.3524 1.56055 16.0065V44.214H15.582C15.1518 42.9954 15.4241 41.5843 16.3987 40.6096Z" fill="white"/>
<path d="M29.957 63.2112H42.0428L39.4155 53.7791H32.5845L29.957 63.2112Z" fill="white"/>
<path d="M24.6628 63.2112C22.8951 63.2112 21.4622 64.6441 21.4622 66.4118V70.5939H50.5378V66.4118C50.5378 64.6441 49.1048 63.2112 47.3372 63.2112H42.0428H29.957H24.6628Z" fill="#FF521C"/>
<path d="M16.3988 14.9752L19.3006 17.877C18.3628 19.4529 17.6412 21.1725 17.178 22.9954H13.0767C11.1642 22.9954 9.61377 24.5458 9.61377 26.4583V29.1265C9.61377 31.039 11.1642 32.5894 13.0767 32.5894H17.178C17.6412 34.4123 18.3628 36.1319 19.3006 37.7079L16.3988 40.6097C15.4241 41.5844 15.152 42.9955 15.5823 44.2139H56.4177C56.848 42.9954 56.5759 41.5844 55.6011 40.6097L52.6993 37.7079C53.6371 36.1319 54.3587 34.4123 54.8219 32.5894H58.9232C60.8357 32.5894 62.3861 31.039 62.3861 29.1265V26.4583C62.3861 24.5458 60.8357 22.9954 58.9232 22.9954H54.8219C54.3587 21.1725 53.6371 19.4529 52.6993 17.877L55.6011 14.9752C56.6215 13.9548 56.8719 12.456 56.3525 11.2008C55.9323 10.1855 55.3168 9.87933 53.7143 8.19112C52.3619 6.83873 50.1695 6.83873 48.8171 8.19112L45.9154 11.0931C44.3394 10.1552 42.6199 9.43369 40.7969 8.97047V4.86914C40.7969 2.95664 39.2466 1.40625 37.3341 1.40625H34.6658C32.7533 1.40625 31.2029 2.95664 31.2029 4.86914V8.97047C29.38 9.43369 27.6605 10.1552 26.0845 11.0931L23.1827 8.19127C21.8303 6.83888 19.6378 6.83888 18.2854 8.19127C16.6892 9.873 16.0685 10.1835 15.6473 11.2009C15.128 12.4561 15.3784 13.9548 16.3988 14.9752ZM35.9999 39.1317C29.7375 39.1317 24.6606 34.055 24.6606 27.7924C24.6606 21.53 29.7374 16.4531 35.9999 16.4531C42.2625 16.4531 47.3392 21.53 47.3392 27.7924C47.3391 34.0549 42.2624 39.1317 35.9999 39.1317Z" fill="white"/>
<path d="M70.4392 44.2139H56.4178H15.5822H1.56079V48.973C1.56079 51.6272 3.71249 53.7789 6.36665 53.7789H32.5845H65.6333C68.2875 53.7789 70.4392 51.6272 70.4392 48.973V44.2139Z" fill="#FF521C"/>
<path d="M40.6208 18.8408C41.6304 18.8408 42.2998 17.8077 41.9202 16.8975C41.6685 16.2828 41.0056 15.9238 40.3468 16.0565C39.6706 16.1936 39.2146 16.7813 39.2146 17.4347C39.2146 18.1869 39.8229 18.8408 40.6208 18.8408Z" fill="#0E191E"/>
<path d="M36 40.5379C43.0281 40.5379 48.7456 34.8204 48.7456 27.7924C48.7456 24.9194 47.7618 22.1017 45.9756 19.8583C45.492 19.2507 44.607 19.15 43.9995 19.634C43.3919 20.1178 43.2915 21.0024 43.7752 21.6101C45.1869 23.3831 45.9331 25.5209 45.9331 27.7924C45.9331 33.2694 41.4771 37.7254 36 37.7254C30.523 37.7254 26.0671 33.2694 26.0671 27.7924C26.0671 22.513 30.1922 18.1563 35.4582 17.8738C35.749 17.8582 36.0145 17.7553 36.2305 17.5919C37.3308 16.7595 36.6905 14.9928 35.3076 15.0654C28.5489 15.4279 23.2546 21.0182 23.2546 27.7924C23.2545 34.8203 28.9722 40.5379 36 40.5379Z" fill="#0E191E"/>
<path d="M65.6333 9.79453H57.1837C56.7527 9.1613 56.484 9.0045 54.7086 7.19662C52.8102 5.29847 49.7211 5.29847 47.8226 7.19662L45.6732 9.34622C44.5608 8.76164 43.4 8.28014 42.203 7.90706V4.86914C42.2031 2.18433 40.0189 0 37.334 0H34.6659C31.9811 0 29.7967 2.18433 29.7967 4.86914V7.9072C28.6 8.28028 27.4389 8.76192 26.3267 9.3465L24.1771 7.19677C22.2787 5.29833 19.1897 5.29833 17.2911 7.19677C15.5454 8.97455 15.2478 9.16031 14.8162 9.79467H6.36665C2.94131 9.79467 0.154541 12.5813 0.154541 16.0068V48.9732C0.154541 52.3887 2.93146 55.1853 6.36651 55.1853H30.7329L28.889 61.805H24.6628C22.1226 61.805 20.0559 63.8716 20.0559 66.412V69.1875H14.8939C14.1172 69.1875 13.4876 69.8172 13.4876 70.5938C13.4876 71.3703 14.1172 72 14.8939 72H57.1061C57.8827 72 58.5124 71.3703 58.5124 70.5938C58.5124 69.8172 57.8827 69.1875 57.1061 69.1875H51.9441V66.4118C51.9441 63.8716 49.8774 61.8048 47.3372 61.8048H43.1108L41.267 55.1852H65.6335C69.0588 55.1852 71.8456 52.3986 71.8456 48.9731C71.8456 47.2243 71.8456 17.1667 71.8456 16.0066C71.8455 12.5813 69.0588 9.79453 65.6333 9.79453ZM65.6333 12.607C67.5079 12.607 69.0329 14.1321 69.0329 16.0066V42.8077H58.006C57.9434 41.6242 57.4563 40.4761 56.5955 39.6152L54.4459 37.4657C55.0306 36.3534 55.5121 35.1925 55.8852 33.9955C58.958 33.9878 58.9916 34.0141 59.4204 33.9704C61.8726 33.7206 63.7924 31.6436 63.7924 29.1264V26.4583C63.7924 23.7734 61.6082 21.5892 58.9233 21.5892H55.8852C55.5121 20.3922 55.0305 19.2313 54.4459 18.119L56.5955 15.9695C57.528 15.037 58.0043 13.816 58.023 12.607H65.6333ZM17.3932 11.0723L19.2798 9.18548C20.0818 8.38364 21.3865 8.38364 22.1884 9.18548L25.0902 12.0874C25.5451 12.5419 26.2506 12.6302 26.8037 12.3015C28.287 11.4189 29.8837 10.7567 31.5495 10.3331C32.1729 10.1748 32.6094 9.61355 32.6094 8.97033V4.86914C32.6094 3.73514 33.532 2.8125 34.666 2.8125H37.3341C38.4681 2.8125 39.3907 3.73514 39.3907 4.86914V8.97033C39.3907 9.61355 39.8272 10.1748 40.4506 10.3331C42.1165 10.7565 43.7131 11.4189 45.1964 12.3015C45.7491 12.6304 46.4548 12.5422 46.91 12.0874L49.8116 9.18548C50.6135 8.38392 51.9183 8.38364 52.7203 9.18548C54.6172 11.1454 55.0055 11.2427 55.1746 12.1539C55.2988 12.836 55.0765 13.5108 54.6069 13.9807L51.7051 16.8825C51.2502 17.3374 51.162 18.043 51.4911 18.5961C52.2634 19.8939 52.867 21.2785 53.2894 22.7205C53.3497 22.9265 53.4064 23.1337 53.4594 23.3419C53.6178 23.9653 54.179 24.4017 54.8222 24.4017H58.9234C60.0574 24.4017 60.9801 25.3243 60.9801 26.4583V29.1264C60.9801 30.2604 60.0574 31.183 58.9234 31.183H54.8222C54.179 31.183 53.6178 31.6195 53.4594 32.2429C53.036 33.9088 52.3737 35.5054 51.4911 36.9887C51.4706 37.0233 51.4516 37.0585 51.4343 37.0941C51.1746 37.6289 51.2786 38.2756 51.7053 38.7023C54.2846 41.4487 55.0568 41.6479 55.1945 42.8077H16.8058C16.8588 42.3609 17.0595 41.9375 17.3931 41.6039L20.2949 38.7021C20.7498 38.2472 20.8379 37.5415 20.509 36.9886C19.6262 35.505 18.964 33.9083 18.5408 32.2428C18.3825 31.6192 17.8211 31.1829 17.1779 31.1829H13.0767C11.9427 31.1829 11.0201 30.2603 11.0201 29.1262V26.4582C11.0201 25.3242 11.9427 24.4015 13.0767 24.4015H17.178C17.8213 24.4015 18.3825 23.965 18.541 23.3416C18.9644 21.6757 19.6265 20.0791 20.5092 18.596C20.8368 18.0453 20.752 17.3393 20.295 16.8823C17.4502 14.0033 17.3559 14.0053 17.1217 13.6441C16.5988 12.84 16.703 11.7622 17.3932 11.0723ZM6.36665 12.607H13.977C13.9961 13.831 14.4838 15.0488 15.4045 15.9695L17.5541 18.119C16.9695 19.2313 16.4879 20.3925 16.1148 21.5892H13.0767C10.3919 21.5892 8.20757 23.7734 8.20757 26.4583V29.1264C8.20757 31.814 10.3946 33.9955 13.0767 33.9955H16.1148C16.4879 35.1922 16.9694 36.3534 17.5541 37.4657L15.4045 39.6152C14.5436 40.4761 14.0566 41.6242 13.994 42.8077H2.96704V16.0066C2.96704 14.1321 4.49212 12.607 6.36665 12.607ZM49.1316 66.4118V69.1875H22.8684V66.4118C22.8684 65.4224 23.6734 64.6173 24.6628 64.6173H47.3372C48.3266 64.6173 49.1316 65.4224 49.1316 66.4118ZM40.1913 61.8048H31.8085L33.6524 55.1852H38.3473L40.1913 61.8048ZM69.0329 48.9731C69.0329 50.8476 67.5079 52.3727 65.6333 52.3727C63.5344 52.3727 8.32485 52.3727 6.36651 52.3727C4.48649 52.3727 2.9669 50.8424 2.9669 48.9731V45.6202H69.0328V48.9731H69.0329Z" fill="#0E191E"/>
</g>
</g>
</g>
<defs>
<clipPath id="clip0_125_3667">
<rect width="72" height="72" fill="white"/>
</clipPath>
<clipPath id="clip1_125_3667">
<rect width="72" height="72" fill="white"/>
</clipPath>
<clipPath id="clip2_125_3667">
<rect width="72" height="72" fill="white"/>
</clipPath>
</defs>
</svg>
