<svg width="160" height="160" viewBox="0 0 160 160" fill="none" xmlns="http://www.w3.org/2000/svg">
<circle cx="80" cy="80" r="80" fill="#794AFF" fill-opacity="0.16"/>
<path d="M102.864 123.277C117.895 123.277 130.08 116.917 130.08 109.073C130.08 101.228 117.895 94.8691 102.864 94.8691C87.8336 94.8691 75.6487 101.228 75.6487 109.073C75.6487 116.917 87.8336 123.277 102.864 123.277Z" fill="url(#paint0_radial_377_257)"/>
<path d="M89.4235 40.0324C80.9632 35.1469 73.2656 34.4081 67.4983 37.1488L62.8511 39.7703V39.7941C68.6184 37.125 76.2684 37.8637 84.681 42.7254C102.626 53.0922 117.164 78.1631 117.164 98.7299C117.164 108.715 113.732 115.817 108.155 119.273L111.277 117.462C117.807 114.411 121.906 106.952 121.906 96.0131C121.882 75.4702 107.345 50.3992 89.4235 40.0324Z" fill="url(#paint1_linear_377_257)"/>
<path d="M84.6571 42.7496C66.7119 32.4066 52.1745 40.6762 52.1745 61.2668C52.1745 81.8574 66.7119 106.928 84.6571 117.271C102.602 127.614 117.14 119.345 117.14 98.7541C117.14 78.1873 102.602 53.0925 84.6571 42.7496Z" fill="url(#paint2_linear_377_257)"/>
<path d="M85.1338 42.4632C76.0301 37.2202 67.8082 36.7674 61.9217 40.2707C67.7843 37.0534 75.7918 37.6254 84.6571 42.7492C102.602 53.0921 117.14 78.1869 117.14 98.7536C117.14 108.906 113.613 116.055 107.869 119.463C113.875 116.175 117.616 108.906 117.616 98.4677C117.616 77.9009 103.079 52.83 85.1338 42.4632Z" fill="white"/>
<path d="M117.14 98.7541C117.14 119.345 102.602 127.614 84.6571 117.271C66.7119 106.928 52.1745 81.8336 52.1745 61.2668C52.1745 40.6762 66.7119 32.4066 84.6571 42.7496C102.602 53.0925 117.14 78.1873 117.14 98.7541Z" fill="url(#paint3_linear_377_257)"/>
<path d="M106.509 117.383C118.428 110.414 118.306 88.0287 106.236 67.3827C94.1663 46.7368 74.719 35.6489 62.7996 42.6172C50.8802 49.5855 51.0022 71.9712 63.0722 92.6172C75.1422 113.263 94.5894 124.351 106.509 117.383Z" fill="white"/>
<path d="M103.357 111.992C113.561 106.027 113.459 86.8679 103.13 69.199C92.8 51.5301 76.1545 42.0423 65.9509 48.0076C55.7472 53.9728 55.8493 73.1321 66.1788 90.801C76.5084 108.47 93.1538 117.958 103.357 111.992Z" fill="#AFB6E5"/>
<path d="M99.8211 105.944C108.093 101.108 108.008 85.5724 99.6318 71.2441C91.2552 56.9158 77.7589 49.2208 69.4869 54.0567C61.2149 58.8927 61.2997 74.4284 69.6762 88.7567C78.0528 103.085 91.5491 110.78 99.8211 105.944Z" fill="white"/>
<path d="M96.4655 100.204C102.908 96.4376 102.843 84.3388 96.3195 73.1807C89.7963 62.0226 79.2854 56.0304 72.8427 59.7969C66.4001 63.5634 66.4655 75.6621 72.9887 86.8203C79.5119 97.9784 90.0228 103.971 96.4655 100.204Z" fill="#AFB6E5"/>
<path d="M93.3139 94.8142C98.0408 92.0508 97.9954 83.1785 93.2126 74.9974C88.4298 66.8163 80.7207 62.4244 75.9938 65.1878C71.2669 67.9512 71.3123 76.8235 76.0951 85.0046C80.8779 93.1857 88.587 97.5776 93.3139 94.8142Z" fill="white"/>
<path d="M85.1337 114.959C68.1656 105.165 54.4147 81.452 54.4147 61.9815C54.4147 52.6871 57.5605 46.0381 62.6843 42.7017C57.2745 45.9428 53.9619 52.6871 53.9619 62.2675C53.9619 81.738 67.7128 105.45 84.6809 115.245C93.5463 120.369 101.53 120.655 107.13 117.009C101.554 120.345 93.7608 119.94 85.1337 114.959Z" fill="#AFB6E5"/>
<path d="M85.1338 104.164C73.3609 97.3718 63.8283 80.9041 63.8283 67.4154C63.8283 60.9332 66.0208 56.3336 69.5955 54.022C65.7348 56.2145 63.3516 60.957 63.3516 67.7014C63.3516 81.2139 72.8843 97.6578 84.6571 104.45C90.7819 107.977 96.3108 108.191 100.195 105.689C96.3347 107.905 91.0202 107.548 85.1338 104.164Z" fill="#CED3F4"/>
<path d="M85.1338 93.6778C78.4132 89.7932 72.9558 80.4036 72.9558 72.6821C72.9558 69.0835 74.1474 66.4858 76.0777 65.1274C73.8614 66.3667 72.4792 69.0835 72.4792 72.9681C72.4792 80.6895 77.9366 90.0792 84.6571 93.9638C88.2557 96.0371 91.473 96.1086 93.6894 94.5596C91.4968 95.8227 88.4702 95.6082 85.1338 93.6778Z" fill="#CED3F4"/>
<path d="M91.4491 83.9307C91.4491 88.2204 88.4225 89.9601 84.681 87.7915C80.9394 85.6228 77.9128 80.4036 77.9128 76.1139C77.9128 71.8242 80.9394 70.0845 84.681 72.2532C88.3987 74.398 91.4491 79.6172 91.4491 83.9307Z" fill="url(#paint4_linear_377_257)"/>
<path opacity="0.5" d="M85.3959 80.1653C85.3959 80.4989 85.1576 80.6419 84.8716 80.4751C84.5856 80.3083 84.3473 79.9031 84.3473 79.5456C84.3473 79.1882 84.5856 79.069 84.8716 79.2358C85.1576 79.4027 85.3959 79.8316 85.3959 80.1653Z" fill="url(#paint5_linear_377_257)"/>
<path d="M84.6571 72.2292C82.9651 71.2521 81.416 71.0614 80.2245 71.5619C81.3445 71.2759 82.703 71.5142 84.2044 72.3722C87.9459 74.5408 90.9725 79.76 90.9725 84.0497C90.9725 86.409 90.0669 87.9819 88.6132 88.5777C90.3053 88.1487 91.4015 86.4805 91.4015 83.9067C91.4492 79.617 88.3987 74.3978 84.6571 72.2292Z" fill="#BB6DF3"/>
<path d="M35.9689 108.406L32.418 107.929C30.4876 107.667 30.2969 104.926 32.1796 104.402L52.0791 98.9683L35.9689 108.406Z" fill="url(#paint6_linear_377_257)"/>
<path d="M36.1119 108.048L32.5609 107.571C31.3217 107.405 30.7974 106.237 31.0834 105.284C30.5591 106.284 31.0595 107.738 32.4418 107.905L35.9927 108.382L52.1029 98.9443L51.245 99.1827L36.1119 108.048Z" fill="#5277F7"/>
<path opacity="0.7" d="M32.5133 107.691L36.0642 108.168L51.4833 99.1592L51.2688 99.2307L36.1357 108.096L32.5848 107.619C31.3455 107.453 30.8212 106.285 31.1072 105.332C31.0834 105.379 31.0595 105.403 31.0595 105.451C30.7736 106.38 31.274 107.524 32.5133 107.691Z" fill="#836DF3"/>
<path d="M86.0393 79.4025C86.0393 79.474 86.0155 79.5216 85.9678 79.5455C85.9678 79.5455 85.6103 81.166 81.2491 83.6922C75.029 87.2908 77.7935 85.3842 77.7935 85.3842C77.6267 85.4796 77.722 85.2651 77.4837 85.1221C76.9832 84.8361 76.5781 84.1211 76.5781 83.5492C76.5781 83.2632 76.316 83.2632 76.4828 83.1679C76.4828 83.1679 73.4323 84.6216 79.6762 81.023C84.0374 78.4969 85.658 78.9973 85.658 78.9973C85.7056 78.9735 85.7533 78.9735 85.8248 79.0212C85.944 79.0927 86.0393 79.2595 86.0393 79.4025Z" fill="#AFB6E5"/>
<path d="M78.3179 84.8602C78.3179 85.5275 77.8651 85.7897 77.2931 85.456C76.7212 85.1224 76.2683 84.3359 76.2683 83.6686C76.2683 83.0014 76.7212 82.7392 77.2931 83.0728C77.8412 83.4065 78.3179 84.2168 78.3179 84.8602Z" fill="#CED3F4"/>
<path d="M78.1034 84.8837C78.1034 85.1935 78.008 85.408 77.8174 85.5034L34.8727 110.479C34.7059 110.574 34.8012 110.36 34.539 110.193C33.9909 109.883 33.5619 109.121 33.5619 108.501C33.5619 108.191 33.276 108.191 33.4428 108.096L76.4352 83.1202C76.602 83.0249 76.8641 83.0487 77.1263 83.1917C77.6506 83.5015 78.1034 84.2641 78.1034 84.8837Z" fill="url(#paint7_linear_377_257)"/>
<path d="M35.1348 109.86C35.1348 110.479 34.682 110.741 34.1577 110.432C33.6096 110.122 33.1806 109.359 33.1806 108.74C33.1806 108.12 33.6334 107.858 34.1577 108.168C34.682 108.477 35.1348 109.24 35.1348 109.86Z" fill="#361CAC"/>
<path d="M35.3731 107.095L51.8408 97.6097L38.9955 96.5611C34.1815 96.156 31.2026 101.685 34.1339 105.498L35.3731 107.095Z" fill="#5277F7"/>
<path d="M35.6353 107.047L52.103 97.5623L39.2577 96.5137C34.4437 96.1086 31.4647 101.638 34.396 105.451L35.6353 107.047Z" fill="url(#paint8_linear_377_257)"/>
<path opacity="0.7" d="M34.6343 105.546C31.6792 101.733 34.682 96.2039 39.496 96.6091L51.9838 97.6338L52.103 97.5623L39.2577 96.5137C34.4437 96.1086 31.4647 101.638 34.396 105.451L35.6353 107.047L35.7544 106.976L34.6343 105.546Z" fill="#836DF3"/>
<path d="M36.4217 109.025L36.8268 110.479C37.8993 114.363 43.0708 115.126 45.2156 111.718L52.8894 99.6831L36.4217 109.025Z" fill="#5277F7"/>
<path d="M36.6838 108.835L37.089 110.288C38.1614 114.173 43.3329 114.936 45.4777 111.528L53.1277 99.4927L36.6838 108.835Z" fill="url(#paint9_linear_377_257)"/>
<path opacity="0.7" d="M45.6207 111.289C43.452 114.673 38.3044 113.911 37.232 110.05L36.8745 108.739L36.7077 108.835L37.1128 110.288C38.1852 114.173 43.3567 114.936 45.5016 111.528L53.1754 99.4927L53.1515 99.5165L45.6207 111.289Z" fill="#836DF3"/>
<defs>
<radialGradient id="paint0_radial_377_257" cx="0" cy="0" r="1" gradientUnits="userSpaceOnUse" gradientTransform="translate(102.873 109.076) scale(27.224 14.2078)">
<stop offset="0.1919" stop-color="#AFB6E5"/>
<stop offset="1" stop-color="white"/>
</radialGradient>
<linearGradient id="paint1_linear_377_257" x1="122.224" y1="109.269" x2="71.6654" y2="34.5801" gradientUnits="userSpaceOnUse">
<stop offset="0.0909091" stop-color="#4088EC"/>
<stop offset="0.5" stop-color="#388CD6"/>
<stop offset="0.691" stop-color="#4EC0EA"/>
<stop offset="0.798" stop-color="#58D9F3"/>
<stop offset="1" stop-color="#38A6F5"/>
</linearGradient>
<linearGradient id="paint2_linear_377_257" x1="52.1879" y1="61.2599" x2="117.137" y2="61.2599" gradientUnits="userSpaceOnUse">
<stop stop-color="#311B61"/>
<stop offset="0.2031" stop-color="#290F52"/>
<stop offset="0.4949" stop-color="#200041"/>
<stop offset="1" stop-color="#0F001F"/>
</linearGradient>
<linearGradient id="paint3_linear_377_257" x1="104.4" y1="61.606" x2="61.8842" y2="101.249" gradientUnits="userSpaceOnUse">
<stop stop-color="#00C7C5"/>
<stop offset="0.3301" stop-color="#2D9BE0"/>
<stop offset="0.6313" stop-color="#5277F7"/>
<stop offset="0.6913" stop-color="#5B76F7"/>
<stop offset="0.7887" stop-color="#7374F6"/>
<stop offset="0.9106" stop-color="#9A70F4"/>
<stop offset="1" stop-color="#BB6DF3"/>
</linearGradient>
<linearGradient id="paint4_linear_377_257" x1="70.4251" y1="97.477" x2="88.045" y2="75.8594" gradientUnits="userSpaceOnUse">
<stop offset="0.00505051" stop-color="#836DF3"/>
<stop offset="0.0529011" stop-color="#8C6DF3"/>
<stop offset="0.2205" stop-color="#A66DF3"/>
<stop offset="0.3713" stop-color="#B56DF3"/>
<stop offset="0.4899" stop-color="#BB6DF3"/>
<stop offset="1" stop-color="#F36DD4"/>
</linearGradient>
<linearGradient id="paint5_linear_377_257" x1="84.319" y1="79.856" x2="85.3857" y2="79.856" gradientUnits="userSpaceOnUse">
<stop stop-color="#311B61"/>
<stop offset="0.2031" stop-color="#290F52"/>
<stop offset="0.4949" stop-color="#200041"/>
<stop offset="1" stop-color="#0F001F"/>
</linearGradient>
<linearGradient id="paint6_linear_377_257" x1="30.861" y1="103.686" x2="52.0906" y2="103.686" gradientUnits="userSpaceOnUse">
<stop offset="0.00505051" stop-color="#00C7C5"/>
<stop offset="0.399" stop-color="#5277F7"/>
<stop offset="0.5195" stop-color="#6176F6"/>
<stop offset="0.7529" stop-color="#8A72F5"/>
<stop offset="1" stop-color="#BB6DF3"/>
</linearGradient>
<linearGradient id="paint7_linear_377_257" x1="55.0908" y1="95.4116" x2="56.5209" y2="97.8956" gradientUnits="userSpaceOnUse">
<stop offset="0.00505051" stop-color="#273B98"/>
<stop offset="0.2274" stop-color="#2F2BA2"/>
<stop offset="0.399" stop-color="#361CAC"/>
<stop offset="0.768" stop-color="#440B89"/>
<stop offset="1" stop-color="#4E0070"/>
</linearGradient>
<linearGradient id="paint8_linear_377_257" x1="35.028" y1="102.521" x2="70.925" y2="84.8637" gradientUnits="userSpaceOnUse">
<stop offset="0.00505051" stop-color="#00C7C5"/>
<stop offset="0.399" stop-color="#5277F7"/>
<stop offset="0.5195" stop-color="#6176F6"/>
<stop offset="0.7529" stop-color="#8A72F5"/>
<stop offset="1" stop-color="#BB6DF3"/>
</linearGradient>
<linearGradient id="paint9_linear_377_257" x1="39.9041" y1="111.598" x2="61.0542" y2="86.567" gradientUnits="userSpaceOnUse">
<stop offset="0.00505051" stop-color="#00C7C5"/>
<stop offset="0.399" stop-color="#5277F7"/>
<stop offset="0.5195" stop-color="#6176F6"/>
<stop offset="0.7529" stop-color="#8A72F5"/>
<stop offset="1" stop-color="#BB6DF3"/>
</linearGradient>
</defs>
</svg>
