<svg width="60" height="60" viewBox="0 0 60 60" fill="none" xmlns="http://www.w3.org/2000/svg">
<path d="M51.5975 32.4609C50.0389 30.9023 48.0584 29.9648 45.9491 29.707C46.4998 28.0312 46.7811 26.2734 46.7811 24.4687C46.7811 22.1835 46.3241 19.9804 45.4334 17.9062L48.1991 15.1406C48.2225 15.1171 48.2459 15.082 48.2577 15.0585C48.2694 15.0468 48.2694 15.0468 48.2694 15.0351C48.3045 14.9882 48.328 14.9414 48.3397 14.8828C48.3397 14.871 48.3397 14.871 48.3514 14.8593C48.3631 14.8359 48.3631 14.8124 48.3748 14.8007L52.0077 3.32807C52.078 3.10542 52.0194 2.85932 51.8553 2.68354C51.6912 2.51948 51.4334 2.44917 51.2108 2.5312L39.6678 6.18745C39.6561 6.19917 39.6444 6.19917 39.6444 6.19917C39.6209 6.21089 39.6092 6.2226 39.5975 6.2226C39.5389 6.24604 39.4803 6.2812 39.4334 6.33979C39.4334 6.33979 39.4217 6.35151 39.41 6.35151L36.6795 9.08198C34.2303 8.01557 31.5116 7.54682 28.8045 7.7226C27.4452 7.81635 26.1092 8.08589 24.8319 8.50776C24.5623 6.43354 23.6248 4.48823 22.0897 2.95307C19.6873 0.562449 16.2889 -0.398489 12.9842 0.386667C12.7616 0.445261 12.5858 0.621042 12.5155 0.83198C12.4569 1.05464 12.5155 1.30073 12.6795 1.46479L18.5506 7.33589L12.7733 13.1015L6.9139 7.23042C6.74984 7.06635 6.51546 6.99604 6.28109 7.06635C6.05843 7.12495 5.89437 7.31245 5.83578 7.5351C5.0389 10.8515 5.99984 14.2499 8.40218 16.6523C9.94906 18.1992 11.9178 19.1367 14.0037 19.4062C13.6522 20.5195 13.4178 21.6679 13.3006 22.8281C13.0311 25.6992 13.4764 28.5703 14.6131 31.1601L13.453 32.3203C13.453 32.3203 13.453 32.3203 13.4412 32.3203L9.11703 36.6445C7.55843 38.2031 7.55843 40.746 9.10531 42.3046L12.2459 45.4335C13.0077 46.1953 14.0155 46.6054 15.0819 46.6054C16.16 46.5937 17.1561 46.1835 17.9178 45.4218L21.2225 42.1171C21.6444 43.5234 21.8787 45 21.9139 46.5117C20.9998 46.8515 20.3436 47.7187 20.3436 48.75V49.4062C20.3436 50.0625 20.6131 50.6601 21.035 51.0937C20.6014 51.5273 20.3436 52.125 20.3436 52.7812V53.4375C20.3436 54.7617 21.4217 55.8398 22.7459 55.8398H23.1678V56.121C23.1678 58.1835 24.8436 59.8593 26.9061 59.8593H33.117C35.1795 59.8593 36.8553 58.1835 36.8553 56.121V55.8398H37.2772C38.6014 55.8398 39.6795 54.7617 39.6795 53.4375V52.7812C39.6795 52.125 39.41 51.5273 38.9881 51.0937C39.4217 50.6601 39.6795 50.0625 39.6795 49.4062V48.75C39.6795 47.9648 39.2928 47.2734 38.7069 46.8398C40.4295 48.2226 42.5858 48.9726 44.7889 48.9726C45.5389 48.9726 46.2889 48.8906 47.0272 48.7031C47.2498 48.6562 47.4256 48.4804 47.4959 48.2578C47.5662 48.0351 47.4959 47.8007 47.3319 47.6367L41.4725 41.7656L47.2381 36L53.1092 41.871C53.2733 42.0351 53.5077 42.1054 53.742 42.0351C53.9647 41.9765 54.1287 41.8007 54.1873 41.5664C54.9608 38.2734 53.9998 34.8632 51.5975 32.4609ZM44.8827 16.664L44.8475 16.5937L37.16 24.2812L35.3202 22.4414L33.9959 21.1171L43.6287 11.4843L46.8514 14.707L44.8827 16.664ZM45.3514 24.4687C45.3514 26.2265 45.0584 27.9374 44.4842 29.5664C43.91 29.5781 43.3358 29.6484 42.7616 29.7656L38.2264 25.2304L44.367 19.0781C45.0233 20.8007 45.3514 22.6054 45.3514 24.4687ZM50.4256 4.12495L47.4608 13.4882L44.2616 10.289C44.2498 10.2773 44.2381 10.2773 44.2381 10.2656L41.0623 7.08979L50.4256 4.12495ZM37.9217 9.64448L39.8553 7.71089L42.7147 10.5703L33.0819 20.2031L30.2694 17.3906L37.992 9.66792L37.9217 9.64448ZM24.9959 9.96089C26.2498 9.52729 27.5741 9.25776 28.91 9.16401C31.1834 8.99995 33.4452 9.33979 35.5194 10.1484L29.3319 16.3476L24.7967 11.8007C24.9139 11.1914 24.9725 10.582 24.9959 9.96089ZM20.7537 40.7812L17.0037 44.5312C16.4881 45.0468 15.8084 45.3281 15.0819 45.3281C14.3553 45.3281 13.6756 45.0468 13.16 44.5312L10.0194 41.4023C8.96468 40.3359 8.96468 38.6015 10.0311 37.5468L13.8983 33.6796L14.6014 34.371L17.2147 36.9843L20.8358 40.5937L20.742 40.6875L20.7537 40.7812ZM15.6678 29.9882C14.8123 27.7851 14.4959 25.3828 14.7186 22.957C14.8358 21.7968 15.0819 20.6484 15.4569 19.5468C16.0545 19.5351 16.6522 19.4648 17.2381 19.3476L21.7733 23.8828L15.6678 29.9882ZM22.8397 24.8437L25.6522 27.6562L17.66 35.6367L14.8006 32.7773L15.1756 32.4023L15.2108 32.4726L22.8397 24.8437ZM21.7264 39.7031L18.5623 36.539L26.5428 28.5585L29.7069 31.7226L21.7264 39.7031ZM36.7381 44.871C36.6795 45.3632 36.6561 45.8554 36.6444 46.3593H23.3553C23.2967 44.5312 22.9686 42.75 22.3944 41.0625L30.6795 32.7773L35.2264 37.3242C34.6639 39.9609 35.2147 42.6796 36.7381 44.871ZM35.4139 56.1445C35.4139 57.4218 34.3827 58.4531 33.1053 58.4531H26.8944C25.617 58.4531 24.5858 57.4101 24.5858 56.1445V55.8632H35.4139V56.1445ZM38.2264 53.4492C38.2264 53.9882 37.7928 54.4218 37.2537 54.4218H22.7342C22.1952 54.4218 21.7616 53.9882 21.7616 53.4492V52.7929C21.7616 52.2539 22.1952 51.8203 22.7342 51.8203H37.2655C37.8045 51.8203 38.2381 52.2539 38.2381 52.7929V53.4492H38.2264ZM38.2264 49.4179C38.2264 49.957 37.7928 50.3906 37.2537 50.3906H22.7342C22.1952 50.3906 21.7616 49.957 21.7616 49.4179V48.7617C21.7616 48.2226 22.1952 47.789 22.7342 47.789H37.2655C37.8045 47.789 38.2381 48.2226 38.2381 48.7617V49.4179H38.2264ZM38.0741 46.5117C38.0741 46.4414 38.0858 46.371 38.0858 46.3007C38.2498 46.4531 38.4139 46.6171 38.5897 46.7578C38.4256 46.664 38.2616 46.582 38.0741 46.5117ZM53.1209 40.1015L47.6834 34.664C47.4373 34.4062 47.0272 34.4062 46.7811 34.664L40.1131 41.332C39.867 41.5781 39.867 41.9882 40.1131 42.2343L45.5506 47.6718C43.0897 47.9062 40.5936 47.0156 38.8241 45.246C38.6131 45.0351 38.4256 44.8125 38.2381 44.5781L38.2498 44.4843L38.0858 44.25C36.5975 42.246 36.0936 39.7031 36.7147 37.2539L36.8084 36.8671L30.6912 30.75L30.6444 30.8085L27.0233 27.1992L23.7655 23.9414L23.8241 23.8828L17.7069 17.7656L17.3202 17.8593C16.5702 18.0468 15.7967 18.1171 15.0116 18.1054L14.4959 18.0937L14.4725 18.1523C12.5623 17.9765 10.7459 17.1445 9.33968 15.7265C7.49984 13.9453 6.63265 11.496 6.87874 9.01167L12.3162 14.4492C12.5741 14.6953 12.9725 14.6953 13.2186 14.4492L19.8866 7.7812C20.1327 7.5351 20.1327 7.12495 19.8866 6.87885L14.4491 1.44135C16.9334 1.19526 19.3709 2.07417 21.1756 3.86714C22.5702 5.27339 23.4022 7.06635 23.5897 8.96479L23.5311 8.98823L23.5545 9.49214C23.5897 10.289 23.4959 11.0859 23.3084 11.8476L23.2147 12.246L29.3319 18.3632L29.3905 18.3046L36.2694 25.1835L36.2108 25.2304L42.328 31.3476L42.7147 31.2539C43.4647 31.0664 44.2264 30.9843 44.9647 31.0078L45.4686 31.0312L45.492 30.9609C47.4256 31.125 49.2655 31.957 50.6834 33.3867C52.4998 35.1679 53.367 37.6171 53.1209 40.1015Z" fill="#263238"/>
<path d="M46.8516 14.6953L44.8828 16.6641L44.8477 16.582L37.1602 24.2695L35.3203 22.4297L33.9961 21.1055L43.6289 11.4727L46.8516 14.6953Z" fill="#4CAF4F"/>
<path d="M42.7266 10.5703L33.0937 20.2031L30.2812 17.3906L38.0039 9.67969L37.9219 9.64453L39.8672 7.71094L42.7266 10.5703Z" fill="#4CAF4F"/>
<path d="M18.5654 36.5278L26.544 28.5492L29.709 31.7142L21.7304 39.6928L18.5654 36.5278Z" fill="#4CAF4F"/>
<path d="M25.6523 27.6562L17.6602 35.6367L14.8008 32.7773L15.1758 32.4023L15.1992 32.4727L22.8398 24.8438L25.6523 27.6562Z" fill="#4CAF4F"/>
<path d="M53.1211 40.1015L47.6836 34.6639C47.4375 34.4061 47.0273 34.4061 46.7812 34.6639L40.1133 41.3319C39.8672 41.578 39.8672 41.9882 40.1133 42.2343L45.5508 47.6718C43.0898 47.9061 40.5937 47.0155 38.8242 45.246C38.6133 45.035 38.4258 44.8124 38.2383 44.578L38.25 44.4843L38.0859 44.2499C36.5976 42.246 36.0937 39.703 36.7148 37.2538L36.8086 36.8671L30.6914 30.7499L30.6445 30.8085L27.0234 27.1991L23.7656 23.9413L23.8242 23.8827L17.707 17.7655L17.3203 17.8593C16.5703 18.0468 15.7969 18.1171 15.0117 18.1054L14.4961 18.0936L14.4726 18.1522C12.5625 17.9764 10.7461 17.1444 9.33982 15.7264C7.49998 13.9452 6.63279 11.496 6.87888 9.0116L12.3164 14.4491C12.5742 14.6952 12.9726 14.6952 13.2187 14.4491L19.8867 7.78113C20.1328 7.53504 20.1328 7.12488 19.8867 6.87879L14.4492 1.44129C16.9336 1.1952 19.3711 2.0741 21.1758 3.86707C22.5703 5.27332 23.4023 7.06629 23.5898 8.96473L23.5312 8.98816L23.5547 9.49207C23.5898 10.2889 23.4961 11.0858 23.3086 11.8475L23.2148 12.246L29.332 18.3632L29.3906 18.3046L36.2695 25.1835L36.2109 25.2304L42.3281 31.3475L42.7148 31.2538C43.4648 31.0663 44.2265 30.9843 44.9648 31.0077L45.4687 31.0311L45.4922 30.9608C47.4258 31.1249 49.2656 31.9569 50.6836 33.3866C52.5 35.1679 53.3672 37.6171 53.1211 40.1015Z" fill="#D2EBD3"/>
<path d="M35.519 10.1366L29.3315 16.3358L24.7964 11.789C24.9253 11.1913 24.9839 10.5819 24.9956 9.96084C26.2495 9.52724 27.5737 9.25771 28.9097 9.16396C31.1714 8.98818 33.4331 9.33974 35.519 10.1366Z" fill="white"/>
<path d="M21.7731 23.8828L15.6676 29.9883C14.8121 27.7852 14.4957 25.3828 14.7184 22.957C14.8356 21.7969 15.0817 20.6484 15.4567 19.5469C16.0543 19.5352 16.652 19.4648 17.2379 19.3477L21.7731 23.8828Z" fill="white"/>
<path d="M45.3511 24.4687C45.3511 26.2266 45.0581 27.9375 44.4839 29.5664C43.9097 29.5781 43.3354 29.6484 42.7612 29.7656L38.2261 25.2305L44.3667 19.0781C45.0229 20.8008 45.3511 22.6055 45.3511 24.4687Z" fill="white"/>
<path d="M36.7378 44.8711C36.6792 45.3633 36.6558 45.8555 36.644 46.3594H23.355C23.2964 44.5312 22.9683 42.75 22.394 41.0625L30.6792 32.7773L35.2261 37.3242C34.6636 39.9609 35.2144 42.6797 36.7378 44.8711Z" fill="white"/>
<path d="M20.7305 40.6992L20.7539 40.7813L17.0039 44.5313C16.4883 45.0469 15.8086 45.3281 15.082 45.3281C14.3555 45.3281 13.6758 45.0469 13.1602 44.5313L10.0195 41.4023C8.96485 40.3359 8.96485 38.6016 10.0313 37.5469L13.8984 33.6797L14.6016 34.3711L17.2148 36.9844L20.8359 40.5938L20.7305 40.6992Z" fill="#D2EBD3"/>
<path d="M50.4258 4.125L47.4609 13.4883L44.2617 10.2891C44.25 10.2773 44.2383 10.2773 44.2383 10.2656L41.0625 7.08984L50.4258 4.125Z" fill="#D2EBD3"/>
<path d="M35.4141 55.8516V56.1328C35.4141 57.4102 34.3828 58.4414 33.1055 58.4414H26.8945C25.6172 58.4414 24.5859 57.3984 24.5859 56.1328V55.8516H35.4141Z" fill="#C8E6C9"/>
<path d="M38.2266 52.8047V53.4609C38.2266 54 37.793 54.4336 37.2539 54.4336H22.7344C22.1953 54.4336 21.7617 54 21.7617 53.4609V52.8047C21.7617 52.2656 22.1953 51.832 22.7344 51.832H37.2656C37.793 51.8203 38.2266 52.2539 38.2266 52.8047Z" fill="#C8E6C9"/>
<path d="M38.2266 48.7617V49.418C38.2266 49.957 37.793 50.3906 37.2539 50.3906H22.7344C22.1953 50.3906 21.7617 49.957 21.7617 49.418V48.7617C21.7617 48.2227 22.1953 47.7891 22.7344 47.7891H37.2656C37.793 47.8008 38.2266 48.2344 38.2266 48.7617Z" fill="#C8E6C9"/>
</svg>
