<svg width="72" height="72" viewBox="0 0 72 72" fill="none" xmlns="http://www.w3.org/2000/svg">
<g clip-path="url(#clip0_125_3612)">
<path d="M63.5827 1.54639H8.41732C4.54574 1.54639 1.40723 4.6849 1.40723 8.55648V13.273H70.5927V8.55634C70.5927 4.6849 67.4543 1.54639 63.5827 1.54639Z" fill="#FF521C"/>
<path d="M27.4619 63.6154H44.5388L41.6778 52.2605H30.3228L27.4619 63.6154Z" fill="#FF521C"/>
<path d="M17.6162 30.3222C17.6162 30.3222 21.0624 30.9267 24.1842 33.3267C25.3003 34.1848 26.89 34.0255 27.8378 32.9846C30.629 29.9193 34.1982 28.1483 36.9498 27.1589C38.0272 26.7715 38.0272 25.2538 36.9498 24.8662C34.1982 23.8768 30.629 22.106 27.8378 19.0406C26.89 17.9996 25.3003 17.8404 24.1842 18.6985C21.0624 21.0985 17.6162 21.703 17.6162 21.703V30.3222Z" fill="#FFD277"/>
<path d="M24.1916 63.6155C22.3723 63.6155 20.8975 65.0903 20.8975 66.9097V70.4617H51.1018V66.9097C51.1018 65.0903 49.627 63.6155 47.8077 63.6155H44.5382H27.4612H24.1916Z" fill="#FF521C"/>
<path d="M1.40751 22.4063L17.6162 21.7032C17.6162 21.7032 21.0624 21.0986 24.1842 18.6987C25.3003 17.8406 26.89 17.9999 27.8378 19.0408C30.6289 22.1061 34.1982 23.877 36.9497 24.8664C38.0272 25.2538 38.0272 26.7716 36.9497 27.1591C34.1982 28.1485 30.6289 29.9194 27.8378 32.9848C26.89 34.0258 25.3003 34.185 24.1842 33.3269C21.0624 30.9269 17.6162 30.3224 17.6162 30.3224L1.40751 29.6193V45.6397C1.40751 49.2965 4.37194 52.2609 8.02864 52.2609H30.3227H41.6775H63.9716C67.6284 52.2609 70.5927 49.2965 70.5927 45.6397V43.9559C69.4919 43.9559 45.6975 43.9559 44.6174 43.9559C42.7088 43.9559 41.8159 42.9688 38.9882 41.573C37.3475 40.686 37.3475 38.332 38.9882 37.445C42.3709 35.6159 43.0375 35.0622 44.6174 35.0622H70.5927V13.2729H1.40723V22.4063H1.40751Z" fill="white"/>
<path d="M45.1766 35.0618C42.4258 35.0826 42.6932 35.6185 38.9883 37.4446C37.3477 38.3316 37.3477 40.6856 38.9883 41.5727C39.4085 41.7999 41.3552 42.8524 42.3202 43.3741C43.6894 44.1145 44.8674 43.9268 45.1766 43.9555C47.2472 41.3524 47.2472 37.6648 45.1766 35.0618Z" fill="#FFD277"/>
<path d="M71.988 8.12389C71.7839 4.11296 68.759 0.834244 64.8627 0.237309C63.6614 0.0532358 66.7382 0.174732 8.41734 0.140139C3.92985 0.140139 0.238271 3.67521 0.0120121 8.12389C-0.005003 8.45843 0.0010437 5.99644 0.0010437 45.6393C0.0010437 50.0656 3.60206 53.6666 8.02839 53.6666H28.518L26.3656 62.2092H24.1919C21.6001 62.2092 19.4915 64.3178 19.4915 66.9096V69.0553H14.2133C13.4367 69.0553 12.8071 69.6849 12.8071 70.4615C12.8071 71.2382 13.4367 71.8678 14.2133 71.8678H57.7865C58.563 71.8678 59.1927 71.2382 59.1927 70.4615C59.1927 69.6849 58.563 69.0553 57.7865 69.0553H52.5083V66.9096C52.5083 64.3178 50.3997 62.2092 47.8079 62.2092H45.6343L43.482 53.6666H63.9716C68.398 53.6666 71.9991 50.0656 71.9991 45.6393C71.9991 45.2069 72.005 8.45688 71.988 8.12389ZM8.41734 2.95256H63.5828C66.6728 2.95256 69.1867 5.46644 69.1867 8.55644V11.8668H2.8136V8.5563C2.81346 5.46644 5.32734 2.95256 8.41734 2.95256ZM19.0221 27.4189H25.6793C26.4559 27.4189 27.0855 26.7893 27.0855 26.0127C27.0855 25.236 26.4559 24.6065 25.6793 24.6065H19.0221V22.8068C20.4009 22.4128 22.7913 21.5429 25.0408 19.8134C25.568 19.4082 26.3396 19.4845 26.7978 19.9875C29.6706 23.1425 33.2994 24.9884 35.9949 26.0127C33.2995 27.0368 29.6706 28.8828 26.7978 32.0379C26.3398 32.5409 25.5682 32.6174 25.0408 32.212C22.7913 30.4825 20.4008 29.6126 19.0221 29.2186V27.4189ZM16.2097 28.8537L2.81346 28.2726V23.7528L16.2097 23.1717V28.8537ZM49.696 66.9097V69.0555H22.3041V66.9097C22.3041 65.8687 23.151 65.0218 24.1921 65.0218H47.8081C48.8492 65.0216 49.696 65.8686 49.696 66.9097ZM42.734 62.2092H29.2661L31.4186 53.6666H40.5817L42.734 62.2092ZM63.9716 50.8544C61.3181 50.8544 10.2321 50.8544 8.02853 50.8544C5.15297 50.8544 2.8136 48.515 2.8136 45.6394V40.915H23.0723C23.8489 40.915 24.4785 40.2854 24.4785 39.5088C24.4785 38.7321 23.8489 38.1026 23.0723 38.1026H2.81346V31.0877L17.4511 31.7226C17.9483 31.8244 20.7585 32.4672 23.3267 34.4416C25.0071 35.7335 27.4449 35.5043 28.8771 33.9313C31.5351 31.0122 34.9926 29.3569 37.425 28.4823C39.7395 27.6501 39.7449 24.3773 37.425 23.5431C34.9926 22.6684 31.535 21.0131 28.877 18.094C27.4422 16.5184 25.0041 16.2942 23.3265 17.5839C20.7775 19.5436 17.9412 20.2003 17.4487 20.3029L2.81332 20.9378V14.6794H69.1864V24.6066H46.455C45.6785 24.6066 45.0488 25.2362 45.0488 26.0128C45.0488 26.7895 45.6785 27.419 46.455 27.419H69.1864V33.6557C66.8214 33.6557 47.0015 33.6557 44.6172 33.6557C42.2201 33.6557 41.0377 34.8902 38.3191 36.2078C35.6936 37.6276 35.6974 41.3923 38.3192 42.8099C41.0241 44.1209 42.217 45.362 44.6172 45.362H69.1864V45.6396C69.1865 48.515 66.8471 50.8544 63.9716 50.8544ZM69.1865 42.5494H47.5819C48.3331 40.5906 48.3331 38.4267 47.5819 36.468H69.1867V42.5494H69.1865ZM39.6571 40.3358C38.9993 39.9801 38.9984 39.0378 39.657 38.6816C43.1435 36.7992 43.4452 36.5213 44.4554 36.4731C45.6222 38.3349 45.6222 40.6825 44.4554 42.5444C43.3583 42.4921 43.0205 42.1517 39.6571 40.3358Z" fill="#0E191E"/>
<path d="M60.408 9.8041C60.9572 10.3532 61.8473 10.3534 62.3968 9.8041L62.8027 9.39827L63.2085 9.8041C63.7578 10.3532 64.6479 10.3532 65.1973 9.8041C65.7464 9.25498 65.7464 8.36456 65.1973 7.81544L64.7915 7.40961L65.1973 7.00378C65.7464 6.45465 65.7464 5.56424 65.1973 5.01511C64.6482 4.46599 63.7581 4.46599 63.2085 5.01511L62.8027 5.42095L62.3968 5.01511C61.8476 4.46599 60.9574 4.46599 60.408 5.01511C59.8589 5.56424 59.8589 6.45465 60.408 7.00378L60.8139 7.40961L60.408 7.81544C59.8588 8.3647 59.8588 9.25498 60.408 9.8041Z" fill="#0E191E"/>
</g>
<defs>
<clipPath id="clip0_125_3612">
<rect width="72" height="72" fill="white"/>
</clipPath>
</defs>
</svg>
