<svg width="120" height="136" viewBox="0 0 120 136" fill="none" xmlns="http://www.w3.org/2000/svg">
<circle cx="60" cy="60" r="60" fill="#794AFF" fill-opacity="0.05"/>
<path d="M90.0342 108.77L61.6207 125.319L79.4318 133.159L99.8474 121.977L90.0342 108.77Z" fill="url(#paint0_linear_377_279)"/>
<g opacity="0.95">
<path d="M28.182 65.5974L20 70.6487L34.391 78.9623L42.573 73.911L28.182 65.5974Z" fill="#E5E9FF"/>
<path d="M20 103.666L34.391 111.98V78.9623L20 70.6487V103.666Z" fill="url(#paint1_linear_377_279)"/>
<path d="M34.391 111.98L42.573 106.902V73.9111L34.391 78.9624V111.98Z" fill="#AFB6E5"/>
</g>
<path d="M42.2047 74.0951L34.4436 78.3572L20 70.6487L33.9437 79.278L34.391 111.98L35.075 79.1728L42.2047 74.0951Z" fill="url(#paint2_radial_377_279)"/>
<g opacity="0.95">
<path d="M48.8872 52.6799L40.6788 57.7313L55.0698 66.0448L63.2518 60.9935L48.8872 52.6799Z" fill="#E5E9FF"/>
<path d="M40.6789 115.663L55.0699 123.977V66.0448L40.6789 57.7312V115.663Z" fill="url(#paint3_linear_377_279)"/>
<path d="M55.07 123.977L63.2783 118.926V60.9934L55.07 66.0447V123.977Z" fill="#AFB6E5"/>
</g>
<path d="M62.8836 61.1514L55.1488 65.4397L40.6789 57.7312L54.6226 66.3605L55.0699 123.977L55.7539 66.2552L62.8836 61.1514Z" fill="url(#paint4_radial_377_279)"/>
<g opacity="0.95">
<path d="M69.5659 36L61.3838 41.0513L75.7485 49.3649L83.9568 44.3136L69.5659 36Z" fill="#E5E9FF"/>
<path d="M61.3575 127.686L75.7484 136V49.3649L61.3575 41.0513V127.686Z" fill="url(#paint5_linear_377_279)"/>
<path d="M75.7483 136L83.9566 130.949V44.3135L75.7483 49.3648V136Z" fill="#AFB6E5"/>
</g>
<path d="M83.5885 44.4977L75.8274 48.7597L61.3575 41.0513L75.3275 49.6806L75.7484 136L76.4324 49.5753L83.5885 44.4977Z" fill="url(#paint6_radial_377_279)"/>
<defs>
<linearGradient id="paint0_linear_377_279" x1="81.1238" y1="122.604" x2="92.6924" y2="117.318" gradientUnits="userSpaceOnUse">
<stop stop-color="#E5E9FF"/>
<stop offset="0.226" stop-color="#F0F2FF"/>
<stop offset="0.6032" stop-color="#FBFCFF"/>
<stop offset="1" stop-color="white"/>
</linearGradient>
<linearGradient id="paint1_linear_377_279" x1="57.9607" y1="38.5539" x2="18.217" y2="106.686" gradientUnits="userSpaceOnUse">
<stop stop-color="#00C7C5"/>
<stop offset="0.3301" stop-color="#2D9BE0"/>
<stop offset="0.6313" stop-color="#5277F7"/>
<stop offset="0.6913" stop-color="#5B76F7"/>
<stop offset="0.7887" stop-color="#7374F6"/>
<stop offset="0.9106" stop-color="#9A70F4"/>
<stop offset="1" stop-color="#BB6DF3"/>
</linearGradient>
<radialGradient id="paint2_radial_377_279" cx="0" cy="0" r="1" gradientUnits="userSpaceOnUse" gradientTransform="translate(40.3522 80.8092) rotate(180) scale(17.1655 17.1655)">
<stop stop-color="white"/>
<stop offset="1"/>
</radialGradient>
<linearGradient id="paint3_linear_377_279" x1="70.2891" y1="45.3853" x2="35.81" y2="115.329" gradientUnits="userSpaceOnUse">
<stop stop-color="#00C7C5"/>
<stop offset="0.3301" stop-color="#2D9BE0"/>
<stop offset="0.6313" stop-color="#5277F7"/>
<stop offset="0.6913" stop-color="#5B76F7"/>
<stop offset="0.7887" stop-color="#7374F6"/>
<stop offset="0.9106" stop-color="#9A70F4"/>
<stop offset="1" stop-color="#BB6DF3"/>
</linearGradient>
<radialGradient id="paint4_radial_377_279" cx="0" cy="0" r="1" gradientUnits="userSpaceOnUse" gradientTransform="translate(61.039 74.0206) rotate(180) scale(24.8801 24.8801)">
<stop stop-color="white"/>
<stop offset="1"/>
</radialGradient>
<linearGradient id="paint5_linear_377_279" x1="87.4175" y1="53.1378" x2="49.9307" y2="123.487" gradientUnits="userSpaceOnUse">
<stop stop-color="#00C7C5"/>
<stop offset="0.3301" stop-color="#2D9BE0"/>
<stop offset="0.6313" stop-color="#5277F7"/>
<stop offset="0.6913" stop-color="#5B76F7"/>
<stop offset="0.7887" stop-color="#7374F6"/>
<stop offset="0.9106" stop-color="#9A70F4"/>
<stop offset="1" stop-color="#BB6DF3"/>
</linearGradient>
<radialGradient id="paint6_radial_377_279" cx="0" cy="0" r="1" gradientUnits="userSpaceOnUse" gradientTransform="translate(81.7257 64.3987) rotate(180) scale(34.3265 34.3265)">
<stop stop-color="white"/>
<stop offset="1"/>
</radialGradient>
</defs>
</svg>
