<svg width="72" height="72" viewBox="0 0 72 72" fill="none" xmlns="http://www.w3.org/2000/svg">
<g clip-path="url(#clip0_128_4556)">
<g clip-path="url(#clip1_128_4556)">
<path d="M67.6043 56.9458H66.5198H43.7299L43.3716 58.9538C43.1421 60.2399 42.0235 61.1765 40.7171 61.1765H31.283C29.9766 61.1765 28.8582 60.2399 28.6286 58.9538L28.2703 56.9458H5.48016H4.39566C2.74472 56.9458 1.40625 58.2841 1.40625 59.9351V65.2559H70.5938V59.9351C70.5938 58.2841 69.2554 56.9458 67.6043 56.9458Z" fill="#FF521C"/>
<path d="M66.5199 21.6694C66.5199 19.822 65.0223 18.3242 63.1747 18.3242H56.4147V36.875C56.4147 39.0921 54.6174 40.8895 52.4003 40.8895H19.5998C17.3827 40.8895 15.5854 39.0921 15.5854 36.875V18.3242H8.82541C6.97788 18.3242 5.48022 19.8219 5.48022 21.6694V49.6705H66.5199V21.6694Z" fill="white"/>
<path d="M43.7299 56.9458H66.5199V49.6704H5.48022V56.9458H28.2702H43.7299Z" fill="white"/>
<path d="M56.4149 10.7583C56.4149 8.54108 54.6176 6.7439 52.4005 6.7439H19.5999C17.3828 6.7439 15.5854 8.54122 15.5854 10.7583V13.7974H56.4149V10.7583Z" fill="#FF521C"/>
<path d="M28.6285 58.9538C28.858 60.2399 29.9765 61.1765 31.2829 61.1765H40.717C42.0234 61.1765 43.1418 60.2399 43.3715 58.9538L43.7298 56.9458H28.27L28.6285 58.9538Z" fill="white"/>
<path d="M15.5852 13.7974V18.3242V36.8751C15.5852 39.0921 17.3825 40.8895 19.5996 40.8895H52.4003C54.6174 40.8895 56.4147 39.0921 56.4147 36.8751V18.3242V13.7974H15.5852ZM30.7589 33.3956L30.0275 30.8355H25.9036L25.1862 33.3971C24.896 34.3496 22.459 33.8222 22.459 32.785C22.459 32.7577 22.4719 32.6889 22.4975 32.5792L26.2163 20.4728C26.5378 19.4593 29.1076 19.4256 29.4307 20.5568L33.1456 32.6642C33.1712 32.767 33.1841 32.8311 33.1841 32.8566C33.1843 33.7733 31.0209 34.3714 30.7589 33.3956ZM43.9871 24.2718C43.9871 25.7733 43.5732 26.877 42.7455 27.5826C41.015 29.0587 38.7857 28.5283 37.3078 28.6412V33.1069C37.3078 34.1413 34.8055 34.1735 34.8055 33.1069V20.5953C34.8055 20.2176 35.1418 19.8254 35.7487 19.8254H39.6176C42.3414 19.8254 43.987 21.2551 43.987 24.1562V24.2718H43.9871ZM48.0292 33.1069C48.0292 34.1413 45.5269 34.1735 45.5269 33.1069V20.5953C45.5269 19.7741 46.9768 19.6571 47.6635 20.0179C47.907 20.1464 48.0292 20.3388 48.0292 20.5953V33.1069Z" fill="#FFD277"/>
<path d="M26.4534 28.8721H29.782L28.1074 22.9629L26.4534 28.8721Z" fill="#FFD277"/>
<path d="M39.4638 22.0198H37.3079V26.678C39.0037 26.5822 40.1543 26.9646 40.9554 26.1197C41.5902 25.4503 41.469 24.3685 41.4847 24.2334C41.4848 22.745 40.7229 22.0198 39.4638 22.0198Z" fill="#FFD277"/>
<path d="M29.4307 20.557C29.1076 19.4258 26.5378 19.4597 26.2163 20.473L22.4975 32.5794C22.4719 32.6891 22.459 32.7579 22.459 32.7852C22.459 33.8224 24.896 34.3498 25.1863 33.3973L25.9036 30.8357H30.0276L30.759 33.3958C31.0208 34.3716 33.1843 33.7735 33.1843 32.8567C33.1843 32.8312 33.1714 32.7672 33.1458 32.6644L29.4307 20.557ZM26.4532 28.8721L28.107 22.9629L29.7816 28.8721H26.4532Z" fill="#0E191E"/>
<path d="M47.6634 20.0179C46.9767 19.6572 45.5269 19.7742 45.5269 20.5953V33.1069C45.5269 34.1735 48.0291 34.1413 48.0291 33.1069V20.5953C48.0291 20.3388 47.9069 20.1465 47.6634 20.0179Z" fill="#0E191E"/>
<path d="M39.6177 19.8254H35.7488C35.1418 19.8254 34.8057 20.2176 34.8057 20.5954V33.1069C34.8057 34.1735 37.3079 34.1413 37.3079 33.1069V28.6412C38.7858 28.5282 41.0151 29.0587 42.7456 27.5826C43.5733 26.8771 43.9872 25.7733 43.9872 24.2719V24.1564C43.9871 21.2552 42.3415 19.8254 39.6177 19.8254ZM40.9555 26.1197C40.1543 26.9644 39.0037 26.5822 37.3079 26.678V22.0198H39.4639C40.723 22.0198 41.4849 22.745 41.4849 24.2333C41.469 24.3686 41.5904 25.4503 40.9555 26.1197Z" fill="#0E191E"/>
<path d="M67.9261 55.5526C67.9261 53.655 67.9261 22.8805 67.9261 21.6694C67.9261 19.0496 65.7946 16.9181 63.1747 16.9181H57.8209C57.8209 14.9376 57.8209 12.6835 57.8209 10.7583C57.8209 7.76933 55.3892 5.33765 52.4002 5.33765H19.5996C16.6106 5.33765 14.1789 7.76933 14.1789 10.7583V16.9181H8.82534C6.2055 16.9181 4.07391 19.0496 4.07391 21.6694V55.5526C1.8 55.718 0 57.6198 0 59.9352V65.256C0 66.0325 0.629578 66.6622 1.40625 66.6622H70.5938C71.3704 66.6622 72 66.0325 72 65.256V59.9352C72 57.6198 70.2 55.718 67.9261 55.5526ZM6.88641 51.0768H65.1136V55.5395C63.5082 55.5395 8.66616 55.5395 6.88641 55.5395V51.0768ZM42.0504 58.3521L41.987 58.7067C41.877 59.3229 41.3429 59.7702 40.717 59.7702H31.2829C30.657 59.7702 30.1229 59.3229 30.0129 58.7067L29.9496 58.3521H42.0504ZM16.9916 10.7583C16.9916 9.32015 18.1616 8.15015 19.5998 8.15015H52.4004C53.8386 8.15015 55.0086 9.32015 55.0086 10.7583V12.3911H16.9916V10.7583ZM8.82534 19.7306H14.1791V36.8751C14.1791 39.864 16.6108 42.2957 19.5998 42.2957H38.1049C38.8815 42.2957 39.5111 41.666 39.5111 40.8895C39.5111 40.1129 38.8815 39.4832 38.1049 39.4832H19.5996C18.1614 39.4832 16.9914 38.3132 16.9914 36.8751C16.9914 32.3623 16.9914 19.8825 16.9914 15.2038H55.0084V36.8751C55.0084 38.3132 53.8384 39.4832 52.4002 39.4832H49.3547C48.5781 39.4832 47.9485 40.1129 47.9485 40.8895C47.9485 41.666 48.5781 42.2957 49.3547 42.2957H52.4002C55.3892 42.2957 57.8209 39.864 57.8209 36.8751V19.7306H63.1747C64.2438 19.7306 65.1136 20.6004 65.1136 21.6694V48.2643H6.88641V21.6694C6.88641 20.6002 7.75617 19.7306 8.82534 19.7306ZM69.1875 63.8497H2.8125V59.9352C2.8125 59.0622 3.52266 58.352 4.39552 58.352H5.47748C5.47847 58.352 5.47931 58.3521 5.48016 58.3521H27.0927L27.2441 59.2008C27.5939 61.1604 29.2923 62.5827 31.2829 62.5827H40.717C42.7075 62.5827 44.406 61.1604 44.7557 59.2008L44.9072 58.3521C45.7109 58.3521 66.8039 58.352 67.6043 58.352C68.4773 58.352 69.1874 59.0622 69.1874 59.9352V63.8497H69.1875Z" fill="#0E191E"/>
<path d="M51.4688 8.8645H49.0781C48.3015 8.8645 47.6719 9.49422 47.6719 10.2708C47.6719 11.0473 48.3015 11.677 49.0781 11.677H51.4688C52.2454 11.677 52.875 11.0473 52.875 10.2708C52.875 9.49422 52.2454 8.8645 51.4688 8.8645Z" fill="#0E191E"/>
<path d="M43.7298 39.4832C42.9531 39.4832 42.3252 40.1129 42.3252 40.8894C42.3252 41.6659 42.9566 42.2957 43.7333 42.2957C44.5099 42.2957 45.1395 41.6659 45.1395 40.8894C45.1395 40.1129 44.5099 39.4832 43.7333 39.4832H43.7298Z" fill="#0E191E"/>
</g>
</g>
<defs>
<clipPath id="clip0_128_4556">
<rect width="72" height="72" fill="white"/>
</clipPath>
<clipPath id="clip1_128_4556">
<rect width="72" height="72" fill="white"/>
</clipPath>
</defs>
</svg>
