<svg width="72" height="72" viewBox="0 0 72 72" fill="none" xmlns="http://www.w3.org/2000/svg">
<g clip-path="url(#clip0_128_4530)">
<g clip-path="url(#clip1_128_4530)">
<path d="M36.4854 40.2267C36.4854 38.4499 37.9259 37.0096 39.7025 37.0096H53.4651V17.9932H1.40625V43.8436C1.40625 45.955 3.11794 47.6667 5.22942 47.6667H36.4854C36.4854 46.1222 36.4854 41.7731 36.4854 40.2267Z" fill="white"/>
<path d="M53.4652 9.3222C53.4652 7.21071 51.7535 5.49902 49.642 5.49902H5.22942C3.11794 5.49916 1.40625 7.21085 1.40625 9.3222V17.9931H53.4652V9.3222ZM8.037 13.989C6.72089 13.989 5.65383 12.9221 5.65383 11.6058C5.65383 10.2897 6.72075 9.22263 8.037 9.22263C9.35311 9.22263 10.4202 10.2896 10.4202 11.6058C10.4202 12.9221 9.35325 13.989 8.037 13.989ZM17.2059 13.989C15.8898 13.989 14.8227 12.9221 14.8227 11.6058C14.8227 10.2897 15.8896 9.22263 17.2059 9.22263C18.5221 9.22263 19.5891 10.2896 19.5891 11.6058C19.5889 12.9221 18.522 13.989 17.2059 13.989ZM26.3746 13.989C25.0585 13.989 23.9915 12.9221 23.9915 11.6058C23.9915 10.2897 25.0584 9.22263 26.3746 9.22263C27.6909 9.22263 28.7578 10.2897 28.7578 11.6058C28.7578 12.9221 27.6909 13.989 26.3746 13.989Z" fill="#FF521C"/>
<path d="M9.71975 13.2904C10.6503 12.3598 10.6503 10.8511 9.71975 9.92057C8.7892 8.99002 7.28049 8.99002 6.34994 9.92057C5.4194 10.8511 5.4194 12.3598 6.34994 13.2904C7.28049 14.2209 8.7892 14.2209 9.71975 13.2904Z" fill="white"/>
<path d="M18.8877 13.2913C19.8183 12.3608 19.8183 10.8521 18.8877 9.92154C17.9572 8.991 16.4485 8.991 15.5179 9.92154C14.5874 10.8521 14.5874 12.3608 15.5179 13.2913C16.4485 14.2219 17.9572 14.2219 18.8877 13.2913Z" fill="#FFD277"/>
<path d="M26.3749 13.989C27.6911 13.989 28.758 12.922 28.758 11.6058C28.758 10.2896 27.6911 9.22266 26.3749 9.22266C25.0587 9.22266 23.9917 10.2896 23.9917 11.6058C23.9917 12.922 25.0587 13.989 26.3749 13.989Z" fill="white"/>
<path d="M70.5942 45.058V44.3079H69.8442C70.1211 44.5295 70.3728 44.7811 70.5942 45.058Z" fill="white"/>
<path d="M66.8705 52.7977C64.2382 52.7977 62.1043 50.6637 62.1043 48.0315C62.1043 46.5247 62.8035 45.1813 63.8952 44.3079H36.4858V60.94L45.2582 51.9957C47.4168 49.7948 50.9407 49.7284 53.1806 51.8466L60.4308 58.7028C61.8388 60.0344 63.9887 60.1933 65.5772 59.0833L70.5942 55.578V51.005C69.7207 52.0974 68.3778 52.7977 66.8705 52.7977Z" fill="white"/>
<path d="M69.8439 44.3079H63.8949C62.8032 45.1813 62.104 46.5247 62.104 48.0315C62.104 50.6638 64.2378 52.7977 66.8702 52.7977C68.3774 52.7977 69.7204 52.0972 70.5938 51.005V45.058C70.3725 44.7811 70.1208 44.5295 69.8439 44.3079Z" fill="white"/>
<path d="M67.3764 37.0095H53.465H39.7024C37.9256 37.0095 36.4854 38.4498 36.4854 40.2266V44.3077H70.5937V40.2266C70.5935 38.4499 69.1531 37.0095 67.3764 37.0095Z" fill="#FF521C"/>
<path d="M60.4303 58.7029L53.1801 51.8467C50.9402 49.7285 47.4163 49.7948 45.2577 51.9958L36.4854 60.9401V63.2836C36.4854 65.0604 37.9258 66.5007 39.7024 66.5007H67.3764C69.1532 66.5007 70.5935 65.0602 70.5935 63.2836V55.5782L65.5767 59.0835C63.9882 60.1934 61.8383 60.0343 60.4303 58.7029Z" fill="#FFD277"/>
<path d="M67.3765 35.6033H54.8713C54.8713 34.1656 54.8713 10.8975 54.8713 9.3222C54.8713 6.43868 52.5254 4.09277 49.6419 4.09277H5.22942C2.34591 4.09291 0 6.43882 0 9.3222V43.8437C0 46.7272 2.34591 49.0731 5.22942 49.0731H35.0793V60.94V63.2835C35.0793 65.8329 37.1533 67.9069 39.7027 67.9069H67.3767C69.9261 67.9069 72.0001 65.8328 72.0001 63.2835C72.0001 56.1904 72.0001 47.4981 72.0001 40.2268C72 37.6774 69.9259 35.6033 67.3765 35.6033ZM37.8917 47.6668V45.7141H61.1477C59.1093 50.7505 64.1513 55.7921 69.1875 53.7539V54.845L64.7715 57.9306C63.7346 58.6549 62.3154 58.5499 61.3967 57.6812L54.1464 50.825C51.3683 48.1981 46.9306 48.2818 44.2537 51.0112L37.8917 57.4979V47.6668ZM64.4383 45.7141H69.1875V50.4634C68.5655 51.058 67.7429 51.3916 66.8701 51.3916C63.9159 51.3916 62.4137 47.8319 64.4383 45.7141ZM69.1875 40.2268V42.9016C68.2605 42.9016 38.8194 42.9016 37.8917 42.9016V40.2268C37.8917 39.2282 38.7041 38.416 39.7027 38.416H67.3765C68.3751 38.4158 69.1875 39.2282 69.1875 40.2268ZM5.22942 46.2606C3.89672 46.2606 2.8125 45.1764 2.8125 43.8437V19.3995H36.9844C37.7609 19.3995 38.3906 18.7699 38.3906 17.9933C38.3906 17.2166 37.7609 16.587 36.9844 16.587H2.8125V9.32234C2.8125 7.98963 3.89672 6.90541 5.22942 6.90541H49.642C50.9747 6.90541 52.059 7.98963 52.059 9.32234V16.587H48.2344C47.4578 16.587 46.8281 17.2166 46.8281 17.9933C46.8281 18.7699 47.4578 19.3995 48.2344 19.3995H52.0588V35.6033H39.7025C37.1531 35.6033 35.0792 37.6774 35.0792 40.2266V46.2604H5.22942V46.2606ZM69.1875 63.2835C69.1875 64.2821 68.3751 65.0944 67.3765 65.0944H39.7025C38.7039 65.0944 37.8917 64.282 37.8917 63.2835V61.5146L46.2618 52.9805C47.8723 51.3384 50.5426 51.2879 52.2139 52.8686L59.4643 59.7247C61.3481 61.5062 64.2576 61.721 66.3823 60.2363L69.1875 58.2761V63.2835Z" fill="#0E191E"/>
<path d="M8.03684 7.81641C5.94743 7.81641 4.24756 9.51628 4.24756 11.6057C4.24756 13.6951 5.94743 15.3951 8.03684 15.3951C10.1262 15.3951 11.8263 13.6952 11.8263 11.6057C11.8263 9.51614 10.1264 7.81641 8.03684 7.81641ZM8.03684 12.5826C7.49825 12.5826 7.06006 12.1444 7.06006 11.6057C7.06006 11.0671 7.49825 10.6289 8.03684 10.6289C8.57543 10.6289 9.01362 11.0671 9.01362 11.6057C9.01376 12.1444 8.57543 12.5826 8.03684 12.5826Z" fill="#0E191E"/>
<path d="M17.2058 7.81641C15.1164 7.81641 13.4165 9.51628 13.4165 11.6057C13.4165 13.6951 15.1164 15.3951 17.2058 15.3951C19.2952 15.3951 20.9951 13.6952 20.9951 11.6057C20.9951 9.51614 19.2952 7.81641 17.2058 7.81641ZM17.2058 12.5826C16.6672 12.5826 16.229 12.1444 16.229 11.6057C16.229 11.0671 16.6672 10.6289 17.2058 10.6289C17.7444 10.6289 18.1826 11.0671 18.1826 11.6057C18.1826 12.1444 17.7444 12.5826 17.2058 12.5826Z" fill="#0E191E"/>
<path d="M26.3747 7.81641C24.2853 7.81641 22.5854 9.51628 22.5854 11.6057C22.5854 13.6951 24.2853 15.3951 26.3747 15.3951C28.4641 15.3951 30.1642 13.6952 30.1642 11.6057C30.1642 9.51614 28.4641 7.81641 26.3747 7.81641ZM26.3747 12.5826C25.8361 12.5826 25.3979 12.1444 25.3979 11.6057C25.3979 11.0671 25.8361 10.6289 26.3747 10.6289C26.9135 10.6289 27.3517 11.0671 27.3517 11.6057C27.3517 12.1444 26.9135 12.5826 26.3747 12.5826Z" fill="#0E191E"/>
<path d="M23.4365 29.0574C23.9439 28.4693 23.8785 27.5812 23.2904 27.074C22.7021 26.5665 21.8144 26.6322 21.307 27.2201L18.9829 29.9138C17.9881 31.0672 17.9881 32.8064 18.983 33.9598L21.307 36.6535C21.8134 37.2405 22.7014 37.3077 23.2904 36.7996C23.8785 36.2924 23.9439 35.4043 23.4365 34.8163L21.1126 32.1227C21.0212 32.0168 21.0212 31.8569 21.1125 31.751L23.4365 29.0574Z" fill="#0E191E"/>
<path d="M35.8883 29.9137L33.5643 27.22C33.0571 26.632 32.1689 26.5667 31.5809 27.0739C30.9928 27.5811 30.9275 28.4692 31.4348 29.0573L33.7587 31.7508C33.8501 31.8567 33.8501 32.0166 33.7588 32.1225L31.4348 34.8161C30.9275 35.4042 30.9928 36.2923 31.5809 36.7995C32.1702 37.3079 33.0581 37.2402 33.5643 36.6534L35.8884 33.9597C36.8832 32.8065 36.8832 31.0671 35.8883 29.9137Z" fill="#0E191E"/>
<path d="M28.5008 25.8604C27.736 25.7242 27.0061 26.2346 26.8704 26.9993L25.2319 36.2338C25.0794 37.0939 25.7404 37.886 26.6182 37.886C27.2872 37.886 27.8803 37.4068 28.0013 36.7253L29.6397 27.4908C29.7754 26.7259 29.2653 25.9961 28.5008 25.8604Z" fill="#0E191E"/>
<path d="M42.613 19.3994C43.3895 19.3994 44.0193 18.7698 44.0193 17.9932C44.0193 17.2165 43.3895 16.5869 42.613 16.5869H42.6095C41.833 16.5869 41.2051 17.2165 41.2051 17.9932C41.2051 18.7698 41.8365 19.3994 42.613 19.3994Z" fill="#0E191E"/>
</g>
</g>
<defs>
<clipPath id="clip0_128_4530">
<rect width="72" height="72" fill="white"/>
</clipPath>
<clipPath id="clip1_128_4530">
<rect width="72" height="72" fill="white"/>
</clipPath>
</defs>
</svg>
