<svg width="72" height="72" viewBox="0 0 72 72" fill="none" xmlns="http://www.w3.org/2000/svg">
<g clip-path="url(#clip0_125_3693)">
<g clip-path="url(#clip1_125_3693)">
<path d="M29.6717 70.5939H42.2407L44.3426 53.6465H27.5698L29.6717 70.5939Z" fill="#FF521C"/>
<path d="M50.6329 34.7227C43.9812 29.1694 40.2293 21.7026 38.1874 16.0247C37.4347 13.9315 34.4777 13.9315 33.725 16.0247C31.6831 21.7028 27.9312 29.1694 21.2795 34.7227C19.7595 35.9917 19.5362 38.2512 20.8235 39.7558C26.2446 46.0919 27.5698 53.6463 27.5698 53.6463H44.3426C44.3426 53.6463 45.668 46.0918 51.0891 39.7558C52.3762 38.2514 52.1529 35.9917 50.6329 34.7227ZM35.9561 43.3382C33.8333 43.3382 32.1124 41.6172 32.1124 39.4945C32.1124 37.3716 33.8334 35.6508 35.9561 35.6508C38.0789 35.6508 39.7998 37.3718 39.7998 39.4945C39.8 41.6172 38.079 43.3382 35.9561 43.3382Z" fill="white"/>
<path d="M38.6657 42.2114C40.1665 40.7106 40.1665 38.2772 38.6657 36.7764C37.1648 35.2756 34.7315 35.2756 33.2307 36.7764C31.7298 38.2772 31.7298 40.7106 33.2307 42.2114C34.7315 43.7122 37.1648 43.7122 38.6657 42.2114Z" fill="white"/>
<path d="M34.0955 8.919H37.8168C38.8638 8.919 39.7125 8.07019 39.7125 7.02323V3.30202C39.7125 2.25506 38.8638 1.40625 37.8168 1.40625H34.0955C33.0485 1.40625 32.1997 2.25506 32.1997 3.30202V7.02338C32.1997 8.07033 33.0485 8.919 34.0955 8.919Z" fill="#FFD277"/>
<path d="M16.772 19.7515H13.0508C12.0038 19.7515 11.155 20.6001 11.155 21.6472V25.3686C11.155 26.4155 12.0038 27.2644 13.0508 27.2644H16.7722C17.8191 27.2644 18.6679 26.4155 18.6679 25.3686V21.6472C18.6678 20.6001 17.819 19.7515 16.772 19.7515Z" fill="#FFD277"/>
<path d="M58.8616 19.7515H55.1404C54.0934 19.7515 53.2446 20.6001 53.2446 21.6472V25.3686C53.2446 26.4155 54.0933 27.2644 55.1404 27.2644H58.8618C59.9087 27.2644 60.7575 26.4155 60.7575 25.3686V21.6472C60.7574 20.6001 59.9087 19.7515 58.8616 19.7515Z" fill="#FFD277"/>
<path d="M7.43554 8.46509C9.1141 8.14202 10.213 6.51939 9.88989 4.84083C9.56682 3.16226 7.94419 2.06341 6.26562 2.38648C4.58706 2.70954 3.48821 4.33218 3.81128 6.01074C4.13434 7.6893 5.75698 8.78815 7.43554 8.46509Z" fill="#FFD277"/>
<path d="M67.8022 7.03152C68.7013 5.57688 68.2509 3.6688 66.7963 2.76969C65.3417 1.87058 63.4336 2.32093 62.5345 3.77557C61.6354 5.23021 62.0857 7.13829 63.5404 8.0374C64.995 8.93651 66.9031 8.48616 67.8022 7.03152Z" fill="#FFD277"/>
<path d="M51.5342 33.6432C45.0187 28.2037 41.3996 20.8011 39.5107 15.549C38.3129 12.2179 33.6015 12.213 32.4016 15.549C30.5128 20.8011 26.8939 28.2036 20.3781 33.6432C18.2482 35.4216 17.9625 38.5751 19.7548 40.6701C24.6837 46.431 26.0844 53.3651 26.1795 53.8616L28.2762 70.7671C28.3635 71.4714 28.962 72.0003 29.6718 72.0003H42.2407C42.9504 72.0003 43.5489 71.4714 43.6363 70.7671L45.733 53.8623C45.8296 53.3579 47.2312 46.4282 52.1576 40.6703C53.947 38.5785 53.6675 35.4243 51.5342 33.6432ZM40.9981 69.1876H30.9143L29.1613 55.0527H42.7512L40.9981 69.1876ZM35.9562 41.932C34.6121 41.932 33.5187 40.8386 33.5187 39.4945C33.5187 38.1504 34.6121 37.057 35.9562 37.057C37.3003 37.057 38.3936 38.1505 38.3936 39.4945C38.3936 40.8385 37.3003 41.932 35.9562 41.932ZM50.0203 38.8417C45.6299 43.9733 43.8194 49.7988 43.2133 52.2402H37.3626V44.5517C39.5766 43.9352 41.2063 41.9023 41.2063 39.4945C41.2063 36.5996 38.8512 34.2445 35.9563 34.2445C33.0614 34.2445 30.7063 36.5997 30.7063 39.4945C30.7063 41.9023 32.3361 43.9352 34.5501 44.5517V52.2402H28.6994C28.093 49.7988 26.2824 43.9733 21.8921 38.8417C21.1108 37.9286 21.2661 36.5658 22.181 35.8023C29.1807 29.9583 33.0418 22.0805 35.0484 16.5008C35.3558 15.646 36.5559 15.643 36.8643 16.5008C38.871 22.0805 42.7323 29.9584 49.7318 35.8023C50.6456 36.5653 50.8026 37.9274 50.0203 38.8417Z" fill="#0E191E"/>
<path d="M65.1488 0.923484C63.2563 0.923484 61.6337 2.09827 60.9694 3.75638H41.1188V3.30202C41.1188 1.48134 39.6376 0 37.8169 0H34.0956C32.2749 0 30.7937 1.48134 30.7937 3.30202V3.75638H11.0304C10.3661 2.09827 8.74355 0.923484 6.85102 0.923484C4.36898 0.923484 2.34961 2.94272 2.34961 5.42475C2.34961 7.90678 4.36884 9.92602 6.85102 9.92602C8.93775 9.92602 10.697 8.49853 11.2045 6.56888H25.1198C20.007 9.11995 16.0558 13.3349 13.7976 18.3452H13.0509C11.2302 18.3452 9.74902 19.8266 9.74902 21.6473V25.3685C9.74902 27.1891 11.2302 28.6705 13.0509 28.6705H16.7722C18.5929 28.6705 20.0741 27.1891 20.0741 25.3685V21.6473C20.0741 19.8766 18.6732 18.4275 16.9216 18.349C19.6788 13.0972 24.6245 8.97511 30.8224 7.45102C31.0329 9.07031 32.42 10.3254 34.0957 10.3254H37.8171C39.4926 10.3254 40.8796 9.07059 41.0903 7.45158C47.0332 8.91787 52.139 12.9291 54.9898 18.3492C53.2387 18.4282 51.8384 19.8772 51.8384 21.6474V25.3686C51.8384 27.1893 53.3196 28.6706 55.1402 28.6706H58.8616C60.6823 28.6706 62.1635 27.1893 62.1635 25.3686V21.6474C62.1635 19.8267 60.6823 18.3454 58.8616 18.3454H58.1142C55.8979 13.429 51.9971 9.1658 46.7934 6.56902H60.7953C61.3028 8.49867 63.0621 9.92616 65.1488 9.92616C67.6308 9.92616 69.6502 7.90692 69.6502 5.42489C69.6502 2.94286 67.631 0.923484 65.1488 0.923484ZM17.2616 21.6473V25.3685C17.2616 25.6383 17.042 25.858 16.7722 25.858H13.0509C12.781 25.858 12.5615 25.6383 12.5615 25.3685V21.6473C12.5615 21.3774 12.7812 21.1577 13.0509 21.1577H16.7722C17.042 21.1577 17.2616 21.3773 17.2616 21.6473ZM59.3511 21.6473V25.3685C59.3511 25.6383 59.1315 25.858 58.8617 25.858H55.1404C54.8705 25.858 54.651 25.6383 54.651 25.3685V21.6473C54.651 21.3774 54.8707 21.1577 55.1404 21.1577H58.8617C59.1315 21.1577 59.3511 21.3773 59.3511 21.6473ZM6.85102 7.11352C5.9198 7.11352 5.16211 6.35597 5.16211 5.42475C5.16211 4.49353 5.9198 3.73598 6.85102 3.73598C7.78223 3.73598 8.53978 4.49353 8.53978 5.42475C8.53978 6.35597 7.78223 7.11352 6.85102 7.11352ZM38.3063 7.02323C38.3063 7.29309 38.0866 7.51275 37.8169 7.51275H34.0956C33.8257 7.51275 33.6062 7.29309 33.6062 7.02323V3.30202C33.6062 3.03216 33.8258 2.8125 34.0956 2.8125H37.8169C38.0868 2.8125 38.3063 3.03216 38.3063 3.30202V7.02323ZM65.1488 7.11352C64.2176 7.11352 63.46 6.35597 63.46 5.42475C63.46 4.49353 64.2176 3.73598 65.1488 3.73598C66.08 3.73598 66.8377 4.49353 66.8377 5.42475C66.8377 6.35597 66.08 7.11352 65.1488 7.11352Z" fill="#0E191E"/>
<path d="M34.1964 26.5647C33.491 26.2394 32.6557 26.5473 32.3303 27.2525C29.7811 32.7779 25.4885 35.8468 25.422 35.8938C24.7862 36.3381 24.6303 37.2137 25.0739 37.8504C25.5177 38.4875 26.3941 38.6443 27.0317 38.2C27.2331 38.0597 31.9954 34.692 34.8841 28.4308C35.2095 27.7256 34.9015 26.8901 34.1964 26.5647Z" fill="#0E191E"/>
<path d="M35.5781 22.1016C34.8016 22.1016 34.1719 22.7311 34.1719 23.5078C34.1719 24.2845 34.8016 24.9141 35.5781 24.9141H35.5816C36.3582 24.9141 36.9861 24.2845 36.9861 23.5078C36.9861 22.7311 36.3547 22.1016 35.5781 22.1016Z" fill="#0E191E"/>
</g>
</g>
<defs>
<clipPath id="clip0_125_3693">
<rect width="72" height="72" fill="white"/>
</clipPath>
<clipPath id="clip1_125_3693">
<rect width="72" height="72" fill="white"/>
</clipPath>
</defs>
</svg>
