<svg width="28" height="28" viewBox="0 0 28 28" fill="none" xmlns="http://www.w3.org/2000/svg">
<path d="M27.9603 26.5314C28.1283 27.1544 27.7585 27.7937 27.1355 27.9605C27.034 27.9874 26.9325 28.0014 26.8322 28.0014C26.3177 28.0014 25.8463 27.6572 25.7063 27.1369C25.291 25.5852 23.835 24.5014 22.1667 24.5014C20.4983 24.5014 19.0423 25.5852 18.627 27.1369C18.459 27.7587 17.8197 28.1285 17.1978 27.9617C16.5748 27.7949 16.205 27.1555 16.373 26.5325C17.0625 23.9624 19.4448 22.168 22.1667 22.168C24.8885 22.168 27.2708 23.9624 27.9603 26.5325V26.5314ZM22.1667 15.1669C20.5578 15.1669 19.25 16.4747 19.25 18.0835C19.25 19.6924 20.5578 21.0002 22.1667 21.0002C23.7755 21.0002 25.0833 19.6924 25.0833 18.0835C25.0833 16.4747 23.7755 15.1669 22.1667 15.1669ZM4.66667 17.5002H5.83333C7.23333 17.5002 8.477 16.8679 9.33333 15.8879C10.1897 16.8679 11.4333 17.5002 12.8333 17.5002H15.1667C15.701 17.5002 16.2248 17.4104 16.723 17.233C17.3308 17.0172 17.6482 16.351 17.4323 15.7432C17.2153 15.1354 16.548 14.8204 15.9437 15.0339C15.6963 15.1214 15.4338 15.1657 15.1667 15.1657H12.8333C11.5465 15.1657 10.5 14.1192 10.5 12.8324C10.5 12.1884 9.97733 11.6657 9.33333 11.6657C8.68933 11.6657 8.16667 12.1884 8.16667 12.8324C8.16667 14.1192 7.12017 15.1657 5.83333 15.1657H4.66667C3.409 15.1657 2.38117 14.1659 2.3345 12.9187L3.6715 4.81152C4.11833 3.34969 5.48567 2.33236 7.01983 2.33236H8.16667V5.83236C8.16667 6.47636 8.68933 6.99902 9.33333 6.99902C9.97733 6.99902 10.5 6.47636 10.5 5.83236V2.33236H17.5V5.83236C17.5 6.47636 18.0215 6.99902 18.6667 6.99902C19.3118 6.99902 19.8333 6.47636 19.8333 5.83236V2.33236H20.979C22.512 2.33236 23.8805 3.34852 24.3273 4.81152L25.6643 12.9187C25.655 13.1555 25.6107 13.3877 25.5325 13.6105C25.3178 14.2184 25.6375 14.8845 26.2442 15.0992C26.8532 15.315 27.5182 14.9954 27.7328 14.3875C27.9078 13.8882 27.9988 13.3644 27.9988 12.8324C27.9988 12.7682 26.6 4.27252 26.5872 4.22936C25.8755 1.73852 23.5678 -0.000976562 20.9778 -0.000976562H7.01983C4.42983 0.000190104 2.12333 1.73969 1.4105 4.23052C1.39767 4.27369 0 12.7694 0 12.8335C0 14.006 0.449167 15.0665 1.16667 15.8879V23.3335C1.16667 25.9072 3.25967 28.0002 5.83333 28.0002H12.8333C13.4773 28.0002 14 27.4775 14 26.8335C14 26.1895 13.4773 25.6669 12.8333 25.6669H5.83333C4.5465 25.6669 3.5 24.6204 3.5 23.3335V17.3345C3.87567 17.4325 4.26183 17.5002 4.66667 17.5002Z" fill="#794AFF"/>
</svg>
