<svg width="28" height="28" viewBox="0 0 28 28" fill="none" xmlns="http://www.w3.org/2000/svg">
<g clip-path="url(#clip0_125_2626)">
<path d="M26.8543 10.2492C26.1602 9.61683 25.2723 9.2925 24.3238 9.33683C23.3858 9.38 22.5213 9.78717 21.8913 10.4813L18.1382 14.6043C17.4953 13.5427 16.3298 12.8322 15.001 12.8322H3.5C1.57033 12.8322 0 14.4025 0 16.3322V24.4988C0 26.4285 1.57033 27.9988 3.5 27.9988H15.6893L27.1075 15.1842C28.3838 13.7538 28.2707 11.5407 26.8543 10.2492ZM25.3668 13.6313L14.6452 25.6667H3.5C2.85717 25.6667 2.33333 25.144 2.33333 24.5V16.3333C2.33333 15.6893 2.85717 15.1667 3.5 15.1667H15.001C15.7348 15.1667 16.3333 15.7652 16.3333 16.5002C16.3333 17.1582 15.8422 17.7263 15.19 17.8185L9.16883 18.6783L9.499 20.9883L15.5202 20.1285C16.891 19.9325 18.004 18.9758 18.4532 17.7263L23.618 12.0517C23.8292 11.8183 24.1197 11.683 24.4335 11.6678C24.7508 11.6585 25.0507 11.7635 25.2828 11.9735C25.7577 12.4075 25.7962 13.1507 25.3668 13.6313ZM16.3333 0L13.125 3.5L9.91667 0L6.70833 3.5L3.5 0V10.5H16.3333V0ZM14 8.16667H5.83333V5.83333H7.735L9.91667 3.45333L12.0983 5.83333H14V8.16667Z" fill="#0E191E"/>
</g>
<defs>
<clipPath id="clip0_125_2626">
<rect width="28" height="28" fill="white"/>
</clipPath>
</defs>
</svg>
