<svg width="28" height="28" viewBox="0 0 28 28" fill="none" xmlns="http://www.w3.org/2000/svg">
<g clip-path="url(#clip0_125_2599)">
<path d="M12.0027 12.9116C14.0502 12.5173 16.135 13.9371 16.3193 16.0138C16.5037 18.0905 14.8727 19.8335 12.8333 19.8335H8.16667C7.37217 19.8335 6.80983 19.0681 7.0455 18.3086C7.62767 16.4326 9.30417 13.4308 12.0027 12.9116ZM23.3333 14.0001C22.6893 14.0001 22.1667 14.5216 22.1667 15.1668V22.1668C22.1667 24.0965 20.5963 25.6668 18.6667 25.6668H5.83333C3.90367 25.6668 2.33333 24.0965 2.33333 22.1668V9.33348C2.33333 7.40381 3.90367 5.83348 5.83333 5.83348H14C14.644 5.83348 15.1667 5.31198 15.1667 4.66681C15.1667 4.02165 14.644 3.50015 14 3.50015H5.83333C2.61683 3.50015 0 6.11698 0 9.33348V22.1668C0 25.3833 2.61683 28.0002 5.83333 28.0002H18.6667C21.8832 28.0002 24.5 25.3833 24.5 22.1668V15.1668C24.5 14.5216 23.9773 14.0001 23.3333 14.0001ZM26.9955 1.00698C25.655 -0.334687 23.4815 -0.335854 22.1398 1.00465C22.0943 1.05015 14.2905 9.49798 14.2905 9.49798C13.7632 10.0883 13.9837 11.003 14.707 11.3238C14.7152 11.3273 14.7233 11.3308 14.7315 11.3343C15.1818 11.5361 15.7092 11.4136 16.037 11.045L23.7498 2.69515C24.1558 2.24131 24.8535 2.20281 25.3062 2.60881C25.3213 2.62281 25.3353 2.63565 25.3505 2.65081C25.781 3.08015 25.781 3.77665 25.3517 4.20715L25.3505 4.20831L17.325 12.0086C16.9388 12.3948 16.884 12.9933 17.1815 13.4518C17.1862 13.4588 17.1908 13.4658 17.1943 13.4716C17.5898 14.0888 18.452 14.1786 18.97 13.6606L26.9943 5.86148C28.3337 4.51981 28.3337 2.34631 26.9943 1.00465L26.9955 1.00698Z" fill="#0E191E"/>
</g>
<defs>
<clipPath id="clip0_125_2599">
<rect width="28" height="28" fill="white"/>
</clipPath>
</defs>
</svg>
