<svg width="66" height="66" viewBox="0 0 66 66" fill="none" xmlns="http://www.w3.org/2000/svg">
<g clip-path="url(#clip0_395_2216)">
<path d="M60.1901 42.8573L46.9803 51.698L43.0436 51.4769L42.8895 49.927C42.6599 47.6208 40.8839 45.7693 38.5888 45.4445L28.0406 44.23C25.6075 43.8861 23.2645 43.0703 21.1436 41.8296C18.2473 40.1357 14.9526 39.2424 11.5975 39.2424H3.99255V56.602L24.0924 64.2135C24.8517 64.428 25.6498 64.4924 26.4293 64.3691C26.4338 64.3686 26.4384 64.3676 26.4434 64.3671L46.6792 61.4501C48.2381 61.2013 49.7034 60.5447 50.9265 59.5467L64.0055 47.784C65.1792 46.7417 65.3967 44.9903 64.5135 43.6922C63.5472 42.2722 61.6157 41.8991 60.1901 42.8573Z" fill="#FFE8C2"/>
<path d="M64.226 43.3301L50.9265 52.7206C49.7034 53.7181 48.2381 54.3747 46.6792 54.6235L26.4434 57.5405C26.4389 57.5415 26.4338 57.542 26.4293 57.543C25.6498 57.6659 24.8517 57.6019 24.0924 57.3874L3.99255 49.7759V56.6019L24.0924 64.2134C24.8517 64.4279 25.6498 64.4924 26.4293 64.369C26.4338 64.3685 26.4384 64.3675 26.4434 64.367L46.6792 61.45C48.2381 61.2012 49.7034 60.5446 50.9265 59.5466L64.0055 47.7839C65.1792 46.7416 65.3967 44.9902 64.5135 43.6921C64.4254 43.5627 64.3287 43.4419 64.226 43.3301Z" fill="#EFD5AF"/>
<path d="M7.87837 61.7068H2.01213C1.4245 61.7068 0.948151 61.2304 0.948151 60.6428V36.9694C0.948151 36.3817 1.4245 35.9054 2.01213 35.9054H7.87837C8.466 35.9054 8.94235 36.3817 8.94235 36.9694V60.6433C8.94235 61.2309 8.466 61.7068 7.87837 61.7068Z" fill="#794AFF"/>
<path d="M0.948151 60.6434C0.948151 61.231 1.4245 61.7068 2.01213 61.7068H7.87837C8.466 61.7068 8.94235 61.231 8.94235 60.6434V54.8809H0.948151V60.6434Z" fill="#916AFF"/>
<path d="M51.1602 20.2277C51.1602 30.5195 42.817 38.8627 32.5251 38.8627C22.2333 38.8627 13.8901 30.5195 13.8901 20.2277C13.8901 9.93581 22.2333 1.59265 32.5251 1.59265C42.817 1.59265 51.1602 9.93581 51.1602 20.2277Z" fill="#88DBFD"/>
<path d="M32.5251 1.59265C31.3589 1.59265 30.2184 1.70091 29.1122 1.90585C37.7735 3.50912 44.3337 11.102 44.3337 20.2277C44.3337 29.3538 37.7735 36.9462 29.1122 38.5495C30.2184 38.7544 31.3589 38.8627 32.5251 38.8627C42.8165 38.8627 51.1602 30.5195 51.1602 20.2277C51.1602 9.93581 42.817 1.59265 32.5251 1.59265Z" fill="#5ABFE9"/>
<path d="M32.5252 39.8109C43.3231 39.8109 52.1083 31.0261 52.1083 20.2277C52.1083 9.42929 43.3231 0.644531 32.5252 0.644531C21.7267 0.644531 12.942 9.42929 12.942 20.2277C12.942 31.0261 21.7267 39.8109 32.5252 39.8109ZM16.2004 27.0346H23.7767C24.2047 29.5361 24.8703 31.8353 25.7485 33.7926C26.3769 35.1929 27.0915 36.3657 27.8719 37.2932C22.5908 35.8515 18.2866 32.0186 16.2004 27.0346ZM32.5252 2.54086C34.3354 2.54086 36.1743 4.32591 37.5706 7.4388C38.3486 9.17299 38.9483 11.2038 39.3491 13.4209H25.7007C26.1015 11.2038 26.7012 9.17299 27.4792 7.4388C28.8755 4.32642 30.7144 2.54086 32.5252 2.54086ZM39.6377 15.3172C39.8345 16.8938 39.9363 18.5424 39.9363 20.2277C39.9363 21.9131 39.8345 23.5616 39.6377 25.1382H25.4122C25.2153 23.5616 25.1141 21.9131 25.1141 20.2277C25.1141 18.5424 25.2153 16.8938 25.4122 15.3172H39.6377ZM50.2115 20.2277C50.2115 21.9312 49.9698 23.5783 49.5181 25.1382H41.5471C41.7354 23.5536 41.8326 21.9065 41.8326 20.2277C41.8326 18.5489 41.7354 16.9018 41.5471 15.3177H49.5181C49.9698 16.8772 50.2115 18.5247 50.2115 20.2277ZM32.5252 37.9146C30.7144 37.9146 28.8755 36.129 27.4792 33.0166C26.7012 31.2824 26.1015 29.2516 25.7007 27.0346H39.3491C38.9483 29.2516 38.3486 31.2824 37.5706 33.0166C36.1743 36.129 34.3354 37.9146 32.5252 37.9146ZM23.5027 25.1382H15.5317C15.08 23.5783 14.8383 21.9312 14.8383 20.2277C14.8383 18.5247 15.0805 16.8772 15.5317 15.3177H23.5027C23.3144 16.9018 23.2172 18.5494 23.2172 20.2277C23.2172 21.9065 23.3144 23.5536 23.5027 25.1382ZM37.1784 37.2932C37.9589 36.3657 38.6734 35.1929 39.3013 33.7926C40.1795 31.8353 40.8452 29.5361 41.2732 27.0346H48.8494C46.7638 32.0186 42.4595 35.8515 37.1784 37.2932ZM48.8494 13.4209H41.2732C40.8452 10.9193 40.1795 8.62061 39.3013 6.66284C38.6734 5.2625 37.9589 4.08975 37.1784 3.16223C42.4595 4.60387 46.7638 8.43732 48.8494 13.4209ZM27.8719 3.16223C27.0915 4.08975 26.3769 5.263 25.749 6.66284C24.8708 8.62061 24.2047 10.9193 23.7767 13.4209H16.2009C18.2866 8.43732 22.5903 4.60387 27.8719 3.16223Z" fill="#101828"/>
<path d="M7.87839 34.9573H2.01215C0.902847 34.9573 0 35.8596 0 36.9689V60.6429C0 61.7527 0.902847 62.655 2.01215 62.655H7.87839C8.98819 62.655 9.89053 61.7527 9.89053 60.6429V36.9689C9.89053 35.8596 8.98819 34.9573 7.87839 34.9573ZM7.9942 60.6434C7.9942 60.7068 7.94234 60.7587 7.87839 60.7587H2.01215C1.9482 60.7587 1.89633 60.7068 1.89633 60.6434V36.9689C1.89633 36.9055 1.9482 36.8536 2.01215 36.8536H7.87839C7.94234 36.8536 7.9942 36.9055 7.9942 36.9689V60.6434Z" fill="#101828"/>
<path d="M65.2976 43.1589C64.0422 41.3134 61.5135 40.8255 59.6629 42.0687L46.7169 50.7332L43.9067 50.5755L43.8332 49.8333C43.5597 47.0835 41.458 44.8926 38.7217 44.5059C38.7137 44.5044 38.7056 44.5034 38.6976 44.5024L28.1615 43.2893C25.8437 42.96 23.6437 42.1931 21.6225 41.0108C18.9492 39.4473 15.9018 38.5203 12.8106 38.331C12.2899 38.3033 11.8382 38.697 11.806 39.2197C11.7738 39.7424 12.1721 40.192 12.6947 40.2243C15.4909 40.3955 18.2468 41.2334 20.6648 42.6478C22.9035 43.9575 25.3401 44.8055 27.9077 45.169C27.9163 45.17 27.9243 45.1711 27.9324 45.1721L38.4674 46.3851C40.33 46.654 41.7596 48.1475 41.9459 50.0212L42.0119 50.6833L27.0748 53.1008L20.5913 51.5096C20.0822 51.3842 19.5691 51.6954 19.4447 52.2045C19.3198 52.7131 19.6305 53.2267 20.1396 53.3516L26.8105 54.9886C26.8845 55.0067 26.9605 55.0158 27.0361 55.0158C27.0869 55.0158 27.1378 55.0117 27.1876 55.0037L43.0935 52.4296L46.9274 52.6446C47.1334 52.6567 47.3368 52.6003 47.508 52.486L60.7194 43.6443C61.7088 42.9791 63.0593 43.2405 63.73 44.2254C64.3428 45.1262 64.1908 46.3514 63.3715 47.079L50.3102 58.8255C49.2231 59.7078 47.9189 60.2903 46.5362 60.5124L26.3085 63.4284C26.3039 63.4289 26.2999 63.4294 26.2954 63.4299L26.2813 63.4319C25.67 63.5286 25.033 63.4883 24.388 63.3111L13.7456 59.2813C13.2557 59.0954 12.7083 59.3422 12.5225 59.8321C12.3372 60.3221 12.584 60.8694 13.0739 61.0547L23.7565 65.1002C23.7822 65.1102 23.8084 65.1188 23.8351 65.1258C24.4343 65.295 25.0335 65.3801 25.6251 65.3801C25.9449 65.3801 26.2631 65.355 26.5773 65.3056C26.5778 65.3051 26.5819 65.3046 26.5849 65.3041L46.8146 62.3881C46.8192 62.3876 46.8242 62.3866 46.8287 62.3861C48.5508 62.1111 50.1752 61.383 51.5262 60.2813C51.5383 60.2717 51.5499 60.2616 51.561 60.2516L64.6354 48.4929C66.1601 47.1384 66.4451 44.8453 65.2976 43.1589Z" fill="#101828"/>
</g>
<defs>
<clipPath id="clip0_395_2216">
<rect width="66" height="66" fill="white"/>
</clipPath>
</defs>
</svg>
