<svg width="66" height="66" viewBox="0 0 66 66" fill="none" xmlns="http://www.w3.org/2000/svg">
<g clip-path="url(#clip0_395_2264)">
<path d="M55.5395 30.5734C55.5395 45.6434 43.3231 57.8598 28.2531 57.8598C13.1832 57.8598 0.966797 45.6434 0.966797 30.5734C0.966797 15.5035 13.1832 3.28711 28.2531 3.28711C43.3231 3.28711 55.5395 15.5035 55.5395 30.5734Z" fill="#88DBFD"/>
<path d="M28.2531 3.28711C27.0743 3.28711 25.9132 3.36163 24.7737 3.50665C38.2006 5.21567 48.5805 16.6823 48.5805 30.5734C48.5805 44.4646 38.2006 55.9312 24.7737 57.6402C25.9132 57.7852 27.0743 57.8598 28.2531 57.8598C43.3231 57.8598 55.5395 45.6434 55.5395 30.5734C55.5395 15.5035 43.3231 3.28711 28.2531 3.28711Z" fill="#5ABFE9"/>
<path d="M45.5336 42.4953H41.6941V39.6891C41.6941 39.0934 42.177 38.6105 42.7732 38.6105H44.4545C45.0502 38.6105 45.5336 39.0934 45.5336 39.6891V42.4953Z" fill="#794AFF"/>
<path d="M53.8038 42.4953H49.9643V39.6891C49.9643 39.0934 50.4472 38.6105 51.0434 38.6105H52.7247C53.3204 38.6105 53.8038 39.0934 53.8038 39.6891V42.4953Z" fill="#794AFF"/>
<path d="M53.8702 42.1075H41.4766C41.0375 42.1075 40.6186 42.2893 40.3185 42.6091L32.5388 50.9079C32.0644 51.4135 31.8011 52.0802 31.8011 52.773V59.9107C31.8011 61.4163 33.0222 62.6374 34.5277 62.6374H60.8191C62.3252 62.6374 63.5457 61.4163 63.5457 59.9107V52.773C63.5457 52.0802 63.2824 51.4135 62.8086 50.9079L55.0289 42.6091C54.7283 42.2893 54.3093 42.1075 53.8702 42.1075Z" fill="#916AFF"/>
<path d="M62.8081 50.9079L55.0284 42.6096C54.7283 42.2893 54.3093 42.1075 53.8702 42.1075H47.5886L55.8386 50.9079C56.3124 51.4135 56.5757 52.0802 56.5757 52.773V59.9107C56.5757 61.4168 55.3552 62.6374 53.8491 62.6374H60.8191C62.3252 62.6374 63.5457 61.4168 63.5457 59.9107V52.773C63.5457 52.0802 63.2819 51.4135 62.8081 50.9079Z" fill="#794AFF"/>
<path d="M59.8261 44.2662C58.5345 44.2662 57.4031 43.2239 57.3039 41.9424C57.0083 38.114 55.0173 36.3697 53.2927 36.3697H42.0542C40.329 36.3697 38.338 38.114 38.0424 41.9424C37.9438 43.2239 36.8123 44.2662 35.5207 44.2662H32.8741C31.4622 44.2662 30.3131 43.1176 30.3131 41.7057C30.3131 37.5132 32.9335 33.7246 36.8335 32.2784C39.7691 31.1898 43.1201 30.9612 45.4138 30.9612H49.9325C52.2262 30.9612 55.5772 31.1898 58.5134 32.2784C62.4128 33.7246 65.0332 37.5132 65.0332 41.7057C65.0332 43.1176 63.8846 44.2662 62.4722 44.2662H59.8261Z" fill="#916AFF"/>
<path d="M32.8741 44.2662H35.5207C36.8123 44.2662 37.9438 43.2239 38.0424 41.9424C38.1301 40.8109 38.3652 39.8618 38.6981 39.0858H30.6611C30.434 39.9277 30.3131 40.8074 30.3131 41.7057C30.3131 43.1177 31.4622 44.2662 32.8741 44.2662Z" fill="#794AFF"/>
<path d="M53.4896 53.6185C53.4896 56.8311 50.8853 59.4354 47.6728 59.4354C44.4602 59.4354 41.8559 56.8311 41.8559 53.6185C41.8559 50.4059 44.4602 47.8016 47.6728 47.8016C50.8853 47.8016 53.4896 50.4059 53.4896 53.6185Z" fill="#FED066"/>
<path d="M57.3035 41.9425C57.4027 43.224 58.5341 44.2664 59.8257 44.2664H62.4723C63.8842 44.2664 65.0328 43.1178 65.0328 41.7059C65.0328 40.8075 64.9125 39.9279 64.6854 39.0859H56.6479C56.9807 39.8619 57.2163 40.8111 57.3035 41.9425Z" fill="#794AFF"/>
<path d="M62.4727 45.233C64.4179 45.233 66 43.6509 66 41.7057C66 37.1109 63.1263 32.9582 58.8492 31.3721C58.0854 31.0891 57.2968 30.8615 56.5063 30.6792C56.5063 30.6439 56.5063 30.6087 56.5063 30.5734C56.5063 23.0269 53.5676 15.9315 48.2311 10.5955C42.8951 5.25897 35.8002 2.32031 28.2531 2.32031C20.7066 2.32031 13.6117 5.25897 8.27518 10.5955C2.93866 15.932 0 23.0269 0 30.5734C0 38.12 2.93866 45.2154 8.27518 50.5514C13.6117 55.8879 20.7066 58.8266 28.2531 58.8266C29.1137 58.8266 29.9778 58.7873 30.8343 58.7097V59.9107C30.8343 61.947 32.4909 63.6042 34.5277 63.6042H60.8186C62.8554 63.6042 64.5125 61.947 64.5125 59.9107V52.773C64.5125 51.8309 64.1575 50.9336 63.5135 50.2462L58.5929 44.9984C58.9801 45.1494 59.3966 45.233 59.8256 45.233H62.4727ZM49.9325 29.9944H45.4138C44.2894 29.9944 42.9177 30.0482 41.4595 30.226C41.4459 27.7375 41.2852 25.2999 40.9877 22.9619H53.4508C54.1567 25.2948 54.547 27.7632 54.5717 30.3176C52.8601 30.0659 51.2317 29.9944 49.9325 29.9944ZM52.837 41.1407H50.9311V39.689C50.9311 39.6271 50.9814 39.5767 51.0434 39.5767H52.7247C52.7866 39.5767 52.837 39.6271 52.837 39.689V41.1407ZM53.5621 37.8224C53.3063 37.7076 53.0228 37.6436 52.7247 37.6436H51.0434C49.9154 37.6436 48.9975 38.5611 48.9975 39.689V41.1407H46.5004V39.689C46.5004 38.5611 45.5825 37.6436 44.4545 37.6436H42.7732C41.6453 37.6436 40.7273 38.5611 40.7273 39.689V41.2535C40.3054 41.3834 39.9191 41.6216 39.613 41.9479L38.8672 42.7435C38.9398 42.5099 38.9871 42.2666 39.0067 42.0169C39.2439 38.9443 40.7193 37.3365 42.0542 37.3365H53.2927C53.4276 37.3365 53.558 37.3506 53.6854 37.3768C53.6451 37.5258 53.6044 37.6744 53.5621 37.8224ZM44.5668 41.1407H42.6609V39.689C42.6609 39.6271 42.7113 39.5767 42.7732 39.5767H44.4545C44.5165 39.5767 44.5668 39.6271 44.5668 39.689V41.1407ZM31.8333 50.2467C31.1888 50.9336 30.8343 51.8309 30.8343 52.773V56.1603C29.9858 56.6467 29.1197 56.893 28.2531 56.893C25.4288 56.893 22.5954 54.1885 20.48 49.4723C19.2695 46.7738 18.351 43.5925 17.7589 40.119H29.4616C29.3856 40.6397 29.3463 41.1699 29.3463 41.7057C29.3463 43.6509 30.9289 45.233 32.8741 45.233H35.5207C35.9497 45.233 36.3662 45.1499 36.7534 44.9984L31.8333 50.2467ZM29.9249 38.1855H17.4673C17.146 35.7478 16.9799 33.1903 16.9799 30.5734C16.9799 27.9671 17.146 25.4091 17.4698 22.9619H39.039C39.3587 25.3865 39.5249 27.9299 39.5269 30.5322C38.5082 30.7341 37.482 31.007 36.4971 31.3721C33.3535 32.5378 30.9682 35.0902 29.9249 38.1855ZM52.7821 21.0283H40.7062C40.0888 17.2649 39.1034 13.8101 37.7902 10.8835C36.6376 8.31395 35.2881 6.28166 33.8042 4.84305C42.4963 6.71622 49.6062 12.8952 52.7821 21.0283ZM22.6991 4.84355C21.1794 6.31792 19.8012 8.41566 18.63 11.0774C18.415 11.5658 18.6365 12.1363 19.1255 12.3513C19.6139 12.5658 20.1844 12.3448 20.3999 11.8559C22.5254 7.02438 25.388 4.25391 28.2531 4.25391C31.0775 4.25391 33.9109 6.95842 36.0263 11.6746C37.2368 14.373 38.1557 17.5544 38.7474 21.0283H17.7624C18.0997 19.054 18.5434 17.1667 19.0887 15.4013C19.2463 14.8912 18.9603 14.3499 18.4502 14.1923C17.9401 14.0347 17.3988 14.3202 17.2412 14.8303C16.6415 16.7719 16.1596 18.852 15.8021 21.0283H3.72469C6.90001 12.8962 14.0085 6.71773 22.6991 4.84355ZM3.05548 22.9619H15.5201C15.2069 25.4172 15.0463 27.9737 15.0463 30.5734C15.0463 33.1823 15.2069 35.7383 15.5186 38.1855H3.05548C2.32585 35.7745 1.93359 33.219 1.93359 30.5734C1.93359 27.9278 2.32585 25.3724 3.05548 22.9619ZM3.72469 40.119H15.8001C16.4174 43.8825 17.4034 47.3373 18.7161 50.2639C19.8687 52.8329 21.2182 54.8652 22.7021 56.3038C14.01 54.4307 6.90051 48.2517 3.72469 40.119ZM62.5789 52.773V59.9107C62.5789 60.881 61.7894 61.6706 60.8191 61.6706H34.5277C33.5574 61.6706 32.7679 60.881 32.7679 59.9107V57.6558C32.7684 57.6407 32.7684 57.6256 32.7679 57.6105V52.773C32.7679 52.3244 32.9371 51.8969 33.2437 51.569L41.0234 43.2707C41.1402 43.1458 41.3054 43.0743 41.4766 43.0743H53.8702C54.0414 43.0743 54.2061 43.1458 54.3229 43.2707L62.1031 51.569C62.4098 51.8963 62.5789 52.3239 62.5789 52.773ZM55.7338 41.9479C55.4644 41.6609 55.1331 41.4424 54.7706 41.3054V40.3451C54.9735 39.7948 55.1598 39.2353 55.3285 38.6709C55.8955 39.5631 56.2454 40.7943 56.3401 42.0169C56.3592 42.2666 56.4071 42.5099 56.4796 42.7435L55.7338 41.9479ZM58.2681 41.8683C57.9252 37.4261 55.4483 35.4029 53.2927 35.4029H42.0542C40.8522 35.4029 39.6533 36.0243 38.765 37.1074C37.8123 38.268 37.2292 39.9141 37.0787 41.8683C37.0188 42.6443 36.3052 43.2994 35.5207 43.2994H32.8741C31.9949 43.2994 31.2799 42.5844 31.2799 41.7057C31.2799 37.9156 33.647 34.4915 37.1693 33.1853C39.971 32.146 43.1992 31.928 45.4143 31.928H49.9325C52.1471 31.928 55.3753 32.146 58.177 33.1853C61.6998 34.4915 64.0664 37.9156 64.0664 41.7057C64.0664 42.5844 63.3514 43.2994 62.4727 43.2994H59.8261C59.0416 43.2994 58.3276 42.6438 58.2681 41.8683Z" fill="#101828"/>
<path d="M52.7257 50.5519C52.2272 50.7437 51.9789 51.3032 52.1703 51.8017C52.8586 53.5902 52.4281 55.6215 51.0731 56.976C50.1571 57.8925 48.9391 58.397 47.6434 58.397C46.3478 58.397 45.1298 57.8925 44.2138 56.976C43.2979 56.0601 42.7934 54.842 42.7934 53.5464C42.7934 52.2513 43.2979 51.0333 44.2138 50.1173C45.7582 48.5725 48.1591 48.2512 50.0514 49.3348C50.5146 49.6007 51.1058 49.4396 51.3712 48.9763C51.6365 48.513 51.4759 47.9224 51.0126 47.657C48.3645 46.1404 45.0064 46.59 42.8467 48.7502C41.5652 50.0312 40.8598 51.7347 40.8598 53.5469C40.8598 55.3587 41.5652 57.0622 42.8467 58.3437C44.169 59.6665 45.9062 60.3276 47.6434 60.3276C49.3807 60.3276 51.1179 59.6665 52.4407 58.3437C54.335 56.4493 54.9372 53.6089 53.975 51.1073C53.7836 50.6088 53.2242 50.3595 52.7257 50.5519Z" fill="#101828"/>
</g>
<defs>
<clipPath id="clip0_395_2264">
<rect width="66" height="66" fill="white"/>
</clipPath>
</defs>
</svg>
