<svg width="66" height="66" viewBox="0 0 66 66" fill="none" xmlns="http://www.w3.org/2000/svg">
<g clip-path="url(#clip0_603_27837)">
<path d="M60.1903 42.8571L46.9804 51.6978L43.0437 51.4767L42.8896 49.9268C42.66 47.6206 40.884 45.7691 38.5889 45.4443L28.0407 44.2298C25.6076 43.8858 23.2647 43.0701 21.1438 41.8294C18.2474 40.1355 14.9527 39.2422 11.5976 39.2422H3.99268V56.6017L24.0925 64.2132C24.8518 64.4277 25.6499 64.4922 26.4294 64.3688C26.4339 64.3683 26.4385 64.3673 26.4435 64.3668L46.6793 61.4498C48.2382 61.2011 49.7035 60.5444 50.9266 59.5464L64.0056 47.7837C65.1793 46.7414 65.3969 44.9901 64.5137 43.692C63.5474 42.272 61.6158 41.8989 60.1903 42.8571Z" fill="#FFE8C2"/>
<path d="M64.2261 43.3301L50.9266 52.7206C49.7035 53.7181 48.2382 54.3747 46.6793 54.6235L26.4435 57.5405C26.439 57.5415 26.4339 57.542 26.4294 57.543C25.6499 57.6659 24.8518 57.6019 24.0925 57.3874L3.99268 49.7759V56.6019L24.0925 64.2134C24.8518 64.4279 25.6499 64.4924 26.4294 64.369C26.4339 64.3685 26.4385 64.3675 26.4435 64.367L46.6793 61.45C48.2382 61.2012 49.7035 60.5446 50.9266 59.5466L64.0056 47.7839C65.1793 46.7416 65.3969 44.9902 64.5137 43.6921C64.4255 43.5627 64.3289 43.4419 64.2261 43.3301Z" fill="#EFD5AF"/>
<path d="M7.87846 61.7067H2.01222C1.42459 61.7067 0.948242 61.2303 0.948242 60.6427V36.9693C0.948242 36.3816 1.42459 35.9053 2.01222 35.9053H7.87846C8.46609 35.9053 8.94244 36.3816 8.94244 36.9693V60.6432C8.94244 61.2308 8.46609 61.7067 7.87846 61.7067Z" fill="#FF774D"/>
<path d="M0.948242 60.6434C0.948242 61.231 1.42459 61.7068 2.01222 61.7068H7.87846C8.46609 61.7068 8.94244 61.231 8.94244 60.6434V54.8809H0.948242V60.6434Z" fill="#FF521C"/>
<path d="M51.1602 20.2278C51.1602 30.5196 42.817 38.8628 32.5251 38.8628C22.2333 38.8628 13.8901 30.5196 13.8901 20.2278C13.8901 9.93593 22.2333 1.59277 32.5251 1.59277C42.817 1.59277 51.1602 9.93593 51.1602 20.2278Z" fill="#FFD277"/>
<path d="M32.5251 1.59277C31.3589 1.59277 30.2183 1.70103 29.1121 1.90598C37.7735 3.50925 44.3336 11.1021 44.3336 20.2278C44.3336 29.3539 37.7735 36.9463 29.1121 38.5496C30.2183 38.7545 31.3589 38.8628 32.5251 38.8628C42.8164 38.8628 51.1601 30.5196 51.1601 20.2278C51.1601 9.93593 42.8169 1.59277 32.5251 1.59277Z" fill="#FFC34A"/>
<path d="M32.5251 39.8109C43.323 39.8109 52.1082 31.0261 52.1082 20.2277C52.1082 9.42929 43.323 0.644531 32.5251 0.644531C21.7267 0.644531 12.9419 9.42929 12.9419 20.2277C12.9419 31.0261 21.7267 39.8109 32.5251 39.8109ZM16.2003 27.0346H23.7766C24.2046 29.5361 24.8703 31.8353 25.7484 33.7926C26.3768 35.1929 27.0914 36.3657 27.8719 37.2932C22.5907 35.8515 18.2865 32.0186 16.2003 27.0346ZM32.5251 2.54086C34.3353 2.54086 36.1742 4.32591 37.5705 7.4388C38.3485 9.17299 38.9482 11.2038 39.349 13.4209H25.7006C26.1014 11.2038 26.7011 9.17299 27.4791 7.4388C28.8754 4.32642 30.7143 2.54086 32.5251 2.54086ZM39.6376 15.3172C39.8345 16.8938 39.9362 18.5424 39.9362 20.2277C39.9362 21.9131 39.8345 23.5616 39.6376 25.1382H25.4121C25.2152 23.5616 25.114 21.9131 25.114 20.2277C25.114 18.5424 25.2152 16.8938 25.4121 15.3172H39.6376ZM50.2114 20.2277C50.2114 21.9312 49.9697 23.5783 49.518 25.1382H41.547C41.7353 23.5536 41.8325 21.9065 41.8325 20.2277C41.8325 18.5489 41.7353 16.9018 41.547 15.3177H49.518C49.9697 16.8772 50.2114 18.5247 50.2114 20.2277ZM32.5251 37.9146C30.7143 37.9146 28.8754 36.129 27.4791 33.0166C26.7011 31.2824 26.1014 29.2516 25.7006 27.0346H39.349C38.9482 29.2516 38.3485 31.2824 37.5705 33.0166C36.1742 36.129 34.3353 37.9146 32.5251 37.9146ZM23.5026 25.1382H15.5316C15.0799 23.5783 14.8382 21.9312 14.8382 20.2277C14.8382 18.5247 15.0804 16.8772 15.5316 15.3177H23.5026C23.3143 16.9018 23.2171 18.5494 23.2171 20.2277C23.2171 21.9065 23.3143 23.5536 23.5026 25.1382ZM37.1783 37.2932C37.9588 36.3657 38.6733 35.1929 39.3012 33.7926C40.1794 31.8353 40.8451 29.5361 41.2731 27.0346H48.8493C46.7637 32.0186 42.4594 35.8515 37.1783 37.2932ZM48.8493 13.4209H41.2731C40.8451 10.9193 40.1794 8.62061 39.3012 6.66284C38.6733 5.2625 37.9588 4.08975 37.1783 3.16223C42.4594 4.60387 46.7637 8.43732 48.8493 13.4209ZM27.8719 3.16223C27.0914 4.08975 26.3768 5.263 25.7489 6.66284C24.8708 8.62061 24.2046 10.9193 23.7766 13.4209H16.2008C18.2865 8.43732 22.5902 4.60387 27.8719 3.16223Z" fill="#0E191E"/>
<path d="M7.87839 34.957H2.01215C0.902847 34.957 0 35.8594 0 36.9687V60.6426C0 61.7524 0.902847 62.6548 2.01215 62.6548H7.87839C8.98819 62.6548 9.89053 61.7524 9.89053 60.6426V36.9687C9.89053 35.8594 8.98819 34.957 7.87839 34.957ZM7.9942 60.6431C7.9942 60.7066 7.94234 60.7584 7.87839 60.7584H2.01215C1.9482 60.7584 1.89633 60.7066 1.89633 60.6431V36.9687C1.89633 36.9052 1.9482 36.8534 2.01215 36.8534H7.87839C7.94234 36.8534 7.9942 36.9052 7.9942 36.9687V60.6431Z" fill="#0E191E"/>
<path d="M65.2976 43.1589C64.0423 41.3134 61.5135 40.8255 59.663 42.0687L46.717 50.7332L43.9067 50.5755L43.8332 49.8333C43.5598 47.0835 41.458 44.8926 38.7218 44.5059C38.7137 44.5044 38.7056 44.5034 38.6976 44.5024L28.1615 43.2893C25.8437 42.96 23.6437 42.1931 21.6225 41.0108C18.9492 39.4473 15.9018 38.5203 12.8106 38.331C12.2899 38.3033 11.8383 38.697 11.806 39.2197C11.7738 39.7424 12.1721 40.192 12.6948 40.2243C15.4909 40.3955 18.2468 41.2334 20.6648 42.6478C22.9035 43.9575 25.3402 44.8055 27.9077 45.169C27.9163 45.17 27.9243 45.1711 27.9324 45.1721L38.4675 46.3851C40.3301 46.654 41.7596 48.1475 41.9459 50.0212L42.0119 50.6833L27.0749 53.1008L20.5913 51.5096C20.0822 51.3842 19.5691 51.6954 19.4447 52.2045C19.3199 52.7131 19.6305 53.2267 20.1396 53.3516L26.8105 54.9886C26.8845 55.0067 26.9606 55.0158 27.0361 55.0158C27.087 55.0158 27.1378 55.0117 27.1877 55.0037L43.0935 52.4296L46.9274 52.6446C47.1334 52.6567 47.3368 52.6003 47.508 52.486L60.7194 43.6443C61.7089 42.9791 63.0594 43.2405 63.7301 44.2254C64.3429 45.1262 64.1908 46.3514 63.3716 47.079L50.3102 58.8255C49.2231 59.7078 47.9189 60.2903 46.5362 60.5124L26.3085 63.4284C26.304 63.4289 26.2999 63.4294 26.2954 63.4299L26.2813 63.4319C25.67 63.5286 25.033 63.4883 24.388 63.3111L13.7457 59.2813C13.2557 59.0954 12.7084 59.3422 12.5226 59.8321C12.3373 60.3221 12.584 60.8694 13.0739 61.0547L23.7565 65.1002C23.7822 65.1102 23.8084 65.1188 23.8351 65.1258C24.4343 65.295 25.0335 65.3801 25.6252 65.3801C25.9449 65.3801 26.2632 65.355 26.5774 65.3056C26.5779 65.3051 26.5819 65.3046 26.5849 65.3041L46.8147 62.3881C46.8192 62.3876 46.8242 62.3866 46.8288 62.3861C48.5509 62.1111 50.1753 61.383 51.5263 60.2813C51.5384 60.2717 51.5499 60.2616 51.561 60.2516L64.6354 48.4929C66.1602 47.1384 66.4452 44.8453 65.2976 43.1589Z" fill="#0E191E"/>
</g>
<defs>
<clipPath id="clip0_603_27837">
<rect width="66" height="66" fill="white"/>
</clipPath>
</defs>
</svg>
