<svg width="66" height="66" viewBox="0 0 66 66" fill="none" xmlns="http://www.w3.org/2000/svg">
<g clip-path="url(#clip0_603_27819)">
<path d="M55.5395 30.5734C55.5395 45.6434 43.3231 57.8598 28.2531 57.8598C13.1832 57.8598 0.966797 45.6434 0.966797 30.5734C0.966797 15.5035 13.1832 3.28711 28.2531 3.28711C43.3231 3.28711 55.5395 15.5035 55.5395 30.5734Z" fill="#FFD277"/>
<path d="M28.2531 3.28711C27.0744 3.28711 25.9132 3.36163 24.7737 3.50665C38.2006 5.21567 48.5806 16.6823 48.5806 30.5734C48.5806 44.4646 38.2006 55.9312 24.7737 57.6402C25.9132 57.7852 27.0744 57.8598 28.2531 57.8598C43.3231 57.8598 55.5395 45.6434 55.5395 30.5734C55.5395 15.5035 43.3231 3.28711 28.2531 3.28711Z" fill="#FFC34A"/>
<path d="M45.5336 42.4952H41.6941V39.6889C41.6941 39.0932 42.177 38.6104 42.7732 38.6104H44.4545C45.0502 38.6104 45.5336 39.0932 45.5336 39.6889V42.4952Z" fill="#33BCA5"/>
<path d="M53.8038 42.4952H49.9644V39.6889C49.9644 39.0932 50.4473 38.6104 51.0434 38.6104H52.7248C53.3204 38.6104 53.8038 39.0932 53.8038 39.6889V42.4952Z" fill="#33BCA5"/>
<path d="M53.8702 42.1074H41.4765C41.0375 42.1074 40.6185 42.2892 40.3184 42.6089L32.5387 50.9078C32.0644 51.4133 31.801 52.08 31.801 52.7729V59.9106C31.801 61.4162 33.0221 62.6373 34.5277 62.6373H60.819C62.3251 62.6373 63.5457 61.4162 63.5457 59.9106V52.7729C63.5457 52.08 63.2823 51.4133 62.8085 50.9078L55.0288 42.6089C54.7282 42.2892 54.3093 42.1074 53.8702 42.1074Z" fill="#FF521C"/>
<path d="M62.8081 50.9078L55.0284 42.6095C54.7283 42.2892 54.3094 42.1074 53.8703 42.1074H47.5886L55.8386 50.9078C56.3125 51.4133 56.5758 52.08 56.5758 52.7729V59.9106C56.5758 61.4167 55.3552 62.6373 53.8491 62.6373H60.8191C62.3252 62.6373 63.5458 61.4167 63.5458 59.9106V52.7729C63.5458 52.08 63.282 51.4133 62.8081 50.9078Z" fill="#FF774D"/>
<path d="M59.826 44.266C58.5344 44.266 57.4029 43.2236 57.3037 41.9421C57.0082 38.1137 55.0172 36.3695 53.2925 36.3695H42.054C40.3289 36.3695 38.3379 38.1137 38.0423 41.9421C37.9436 43.2236 36.8122 44.266 35.5206 44.266H32.874C31.4621 44.266 30.313 43.1174 30.313 41.7055C30.313 37.513 32.9334 33.7244 36.8333 32.2782C39.769 31.1895 43.12 30.9609 45.4137 30.9609H49.9324C52.226 30.9609 55.5771 31.1895 58.5132 32.2782C62.4127 33.7244 65.0331 37.513 65.0331 41.7055C65.0331 43.1174 63.8845 44.266 62.4721 44.266H59.826Z" fill="#FF521C"/>
<path d="M32.874 44.2664H35.5206C36.8122 44.2664 37.9436 43.224 38.0423 41.9425C38.1299 40.8111 38.3651 39.8619 38.6979 39.0859H30.6609C30.4338 39.9279 30.313 40.8075 30.313 41.7059C30.313 43.1178 31.4621 44.2664 32.874 44.2664Z" fill="#FF774D"/>
<path d="M53.4897 53.6187C53.4897 56.8312 50.8854 59.4355 47.6729 59.4355C44.4603 59.4355 41.856 56.8312 41.856 53.6187C41.856 50.4061 44.4603 47.8018 47.6729 47.8018C50.8854 47.8018 53.4897 50.4061 53.4897 53.6187Z" fill="#FED066"/>
<path d="M57.3036 41.9425C57.4028 43.224 58.5342 44.2664 59.8258 44.2664H62.4724C63.8843 44.2664 65.0329 43.1178 65.0329 41.7059C65.0329 40.8075 64.9126 39.9279 64.6855 39.0859H56.6479C56.9808 39.8619 57.2164 40.8111 57.3036 41.9425Z" fill="#FF774D"/>
<path d="M62.4727 45.233C64.4179 45.233 66 43.6509 66 41.7057C66 37.1109 63.1263 32.9582 58.8492 31.3721C58.0854 31.0891 57.2968 30.8615 56.5063 30.6792C56.5063 30.6439 56.5063 30.6087 56.5063 30.5734C56.5063 23.0269 53.5676 15.9315 48.2311 10.5955C42.8951 5.25897 35.8002 2.32031 28.2531 2.32031C20.7066 2.32031 13.6117 5.25897 8.27518 10.5955C2.93866 15.932 0 23.0269 0 30.5734C0 38.12 2.93866 45.2154 8.27518 50.5514C13.6117 55.8879 20.7066 58.8266 28.2531 58.8266C29.1137 58.8266 29.9778 58.7873 30.8343 58.7097V59.9107C30.8343 61.947 32.4909 63.6042 34.5277 63.6042H60.8186C62.8554 63.6042 64.5125 61.947 64.5125 59.9107V52.773C64.5125 51.8309 64.1575 50.9336 63.5135 50.2462L58.5929 44.9984C58.9801 45.1494 59.3966 45.233 59.8256 45.233H62.4727ZM49.9325 29.9944H45.4138C44.2894 29.9944 42.9177 30.0482 41.4595 30.226C41.4459 27.7375 41.2852 25.2999 40.9877 22.9619H53.4508C54.1567 25.2948 54.547 27.7632 54.5717 30.3176C52.8601 30.0659 51.2317 29.9944 49.9325 29.9944ZM52.837 41.1407H50.9311V39.689C50.9311 39.6271 50.9814 39.5767 51.0434 39.5767H52.7247C52.7866 39.5767 52.837 39.6271 52.837 39.689V41.1407ZM53.5621 37.8224C53.3063 37.7076 53.0228 37.6436 52.7247 37.6436H51.0434C49.9154 37.6436 48.9975 38.5611 48.9975 39.689V41.1407H46.5004V39.689C46.5004 38.5611 45.5825 37.6436 44.4545 37.6436H42.7732C41.6453 37.6436 40.7273 38.5611 40.7273 39.689V41.2535C40.3054 41.3834 39.9191 41.6216 39.613 41.9479L38.8672 42.7435C38.9398 42.5099 38.9871 42.2666 39.0067 42.0169C39.2439 38.9443 40.7193 37.3365 42.0542 37.3365H53.2927C53.4276 37.3365 53.558 37.3506 53.6854 37.3768C53.6451 37.5258 53.6044 37.6744 53.5621 37.8224ZM44.5668 41.1407H42.6609V39.689C42.6609 39.6271 42.7113 39.5767 42.7732 39.5767H44.4545C44.5165 39.5767 44.5668 39.6271 44.5668 39.689V41.1407ZM31.8333 50.2467C31.1888 50.9336 30.8343 51.8309 30.8343 52.773V56.1603C29.9858 56.6467 29.1197 56.893 28.2531 56.893C25.4288 56.893 22.5954 54.1885 20.48 49.4723C19.2695 46.7738 18.351 43.5925 17.7589 40.119H29.4616C29.3856 40.6397 29.3463 41.1699 29.3463 41.7057C29.3463 43.6509 30.9289 45.233 32.8741 45.233H35.5207C35.9497 45.233 36.3662 45.1499 36.7534 44.9984L31.8333 50.2467ZM29.9249 38.1855H17.4673C17.146 35.7478 16.9799 33.1903 16.9799 30.5734C16.9799 27.9671 17.146 25.4091 17.4698 22.9619H39.039C39.3587 25.3865 39.5249 27.9299 39.5269 30.5322C38.5082 30.7341 37.482 31.007 36.4971 31.3721C33.3535 32.5378 30.9682 35.0902 29.9249 38.1855ZM52.7821 21.0283H40.7062C40.0888 17.2649 39.1034 13.8101 37.7902 10.8835C36.6376 8.31395 35.2881 6.28166 33.8042 4.84305C42.4963 6.71622 49.6062 12.8952 52.7821 21.0283ZM22.6991 4.84355C21.1794 6.31792 19.8012 8.41566 18.63 11.0774C18.415 11.5658 18.6365 12.1363 19.1255 12.3513C19.6139 12.5658 20.1844 12.3448 20.3999 11.8559C22.5254 7.02438 25.388 4.25391 28.2531 4.25391C31.0775 4.25391 33.9109 6.95842 36.0263 11.6746C37.2368 14.373 38.1557 17.5544 38.7474 21.0283H17.7624C18.0997 19.054 18.5434 17.1667 19.0887 15.4013C19.2463 14.8912 18.9603 14.3499 18.4502 14.1923C17.9401 14.0347 17.3988 14.3202 17.2412 14.8303C16.6415 16.7719 16.1596 18.852 15.8021 21.0283H3.72469C6.90001 12.8962 14.0085 6.71773 22.6991 4.84355ZM3.05548 22.9619H15.5201C15.2069 25.4172 15.0463 27.9737 15.0463 30.5734C15.0463 33.1823 15.2069 35.7383 15.5186 38.1855H3.05548C2.32585 35.7745 1.93359 33.219 1.93359 30.5734C1.93359 27.9278 2.32585 25.3724 3.05548 22.9619ZM3.72469 40.119H15.8001C16.4174 43.8825 17.4034 47.3373 18.7161 50.2639C19.8687 52.8329 21.2182 54.8652 22.7021 56.3038C14.01 54.4307 6.90051 48.2517 3.72469 40.119ZM62.5789 52.773V59.9107C62.5789 60.881 61.7894 61.6706 60.8191 61.6706H34.5277C33.5574 61.6706 32.7679 60.881 32.7679 59.9107V57.6558C32.7684 57.6407 32.7684 57.6256 32.7679 57.6105V52.773C32.7679 52.3244 32.9371 51.8969 33.2437 51.569L41.0234 43.2707C41.1402 43.1458 41.3054 43.0743 41.4766 43.0743H53.8702C54.0414 43.0743 54.2061 43.1458 54.3229 43.2707L62.1031 51.569C62.4098 51.8963 62.5789 52.3239 62.5789 52.773ZM55.7338 41.9479C55.4644 41.6609 55.1331 41.4424 54.7706 41.3054V40.3451C54.9735 39.7948 55.1598 39.2353 55.3285 38.6709C55.8955 39.5631 56.2454 40.7943 56.3401 42.0169C56.3592 42.2666 56.4071 42.5099 56.4796 42.7435L55.7338 41.9479ZM58.2681 41.8683C57.9252 37.4261 55.4483 35.4029 53.2927 35.4029H42.0542C40.8522 35.4029 39.6533 36.0243 38.765 37.1074C37.8123 38.268 37.2292 39.9141 37.0787 41.8683C37.0188 42.6443 36.3052 43.2994 35.5207 43.2994H32.8741C31.9949 43.2994 31.2799 42.5844 31.2799 41.7057C31.2799 37.9156 33.647 34.4915 37.1693 33.1853C39.971 32.146 43.1992 31.928 45.4143 31.928H49.9325C52.1471 31.928 55.3753 32.146 58.177 33.1853C61.6998 34.4915 64.0664 37.9156 64.0664 41.7057C64.0664 42.5844 63.3514 43.2994 62.4727 43.2994H59.8261C59.0416 43.2994 58.3276 42.6438 58.2681 41.8683Z" fill="#0E191E"/>
<path d="M52.7258 50.5521C52.2273 50.744 51.979 51.3034 52.1704 51.8019C52.8587 53.5905 52.4282 55.6218 51.0732 56.9763C50.1572 57.8927 48.9392 58.3973 47.6436 58.3973C46.3479 58.3973 45.1299 57.8927 44.2139 56.9763C43.298 56.0604 42.7935 54.8423 42.7935 53.5467C42.7935 52.2516 43.298 51.0335 44.2139 50.1176C45.7583 48.5727 48.1592 48.2515 50.0515 49.3351C50.5147 49.6009 51.1059 49.4398 51.3713 48.9766C51.6366 48.5133 51.476 47.9226 51.0127 47.6573C48.3646 46.1406 45.0065 46.5903 42.8468 48.7505C41.5653 50.0315 40.8599 51.7349 40.8599 53.5472C40.8599 55.3589 41.5653 57.0624 42.8468 58.3439C44.1691 59.6667 45.9063 60.3279 47.6436 60.3279C49.3808 60.3279 51.118 59.6667 52.4408 58.3439C54.3351 56.4496 54.9373 53.6091 53.9751 51.1075C53.7837 50.609 53.2243 50.3598 52.7258 50.5521Z" fill="#0E191E"/>
</g>
<defs>
<clipPath id="clip0_603_27819">
<rect width="66" height="66" fill="white"/>
</clipPath>
</defs>
</svg>
