<svg width="66" height="66" viewBox="0 0 66 66" fill="none" xmlns="http://www.w3.org/2000/svg">
<g clip-path="url(#clip0_395_2241)">
<path d="M61.3252 5.77344H37.0727C35.0555 5.77344 33.42 7.40894 33.42 9.42612V23.1446C33.42 25.1617 35.0555 26.7972 37.0727 26.7972H45.6998L44.3055 32.4253C44.1237 33.1585 44.9677 33.7103 45.5669 33.2501L53.9674 26.7972H61.3257C63.3428 26.7972 64.9783 25.1622 64.9783 23.1446V9.42612C64.9778 7.40894 63.3428 5.77344 61.3252 5.77344Z" fill="#88DBFD"/>
<path d="M45.3835 28.0723L44.3055 32.4254C44.1237 33.1586 44.9676 33.7105 45.5668 33.2502L53.9674 26.7974H47.0432L45.3835 28.0723Z" fill="#5ABFE9"/>
<path d="M61.3251 5.77344H54.4009C56.4186 5.77344 58.0536 7.40894 58.0536 9.42612V23.1446C58.0536 25.1617 56.4186 26.7972 54.4009 26.7972H61.3251C63.3428 26.7972 64.9778 25.1622 64.9778 23.1446V9.42612C64.9778 7.40894 63.3428 5.77344 61.3251 5.77344Z" fill="#5ABFE9"/>
<path d="M51.9064 49.0413C51.7246 45.9415 49.7568 43.4157 46.8282 42.0441C43.2435 40.3658 33.4814 37.8264 33.4814 37.8264C32.5378 37.6512 31.8534 36.8279 31.8534 35.8687V30.2885H21.2403V35.8687C21.2403 36.8279 20.556 37.6512 19.6129 37.8264C19.6129 37.8264 9.85076 40.3658 6.26555 42.0441C3.33696 43.4157 1.36913 45.9415 1.18735 49.0413L0.967306 62.3453C0.949178 63.8242 2.14358 65.0332 3.62298 65.0332H49.4708C50.9502 65.0332 52.1446 63.8242 52.127 62.3453L51.9064 49.0413Z" fill="#FCC18B"/>
<path d="M51.9064 49.0413C51.7246 45.9415 49.7568 43.4157 46.8282 42.0441C43.2435 40.3658 33.4814 37.8264 33.4814 37.8264C32.5377 37.6512 31.8534 36.8279 31.8534 35.8687V30.2885H24.9293V39.2157C24.9293 40.175 25.6136 40.9982 26.5567 41.173C26.5567 41.173 36.3193 43.7128 39.904 45.3911C42.8326 46.7623 44.8005 49.2885 44.9822 52.3878L45.1917 65.0332H49.4708C50.9502 65.0332 52.1446 63.8242 52.127 62.3453L51.9064 49.0413Z" fill="#EAAB65"/>
<path d="M15.5443 16.1605H14.151C13.6465 16.1605 13.1812 16.3312 12.8106 16.6177C12.1671 17.1152 11.8846 17.9521 12.0301 18.7527L12.5775 21.7654C13.002 23.9981 15.5479 22.978 15.5479 22.978L15.5443 16.1605Z" fill="#EAAB65"/>
<path d="M37.5495 16.1605H38.9428C39.4473 16.1605 39.9126 16.3312 40.2832 16.6177C40.9267 17.1152 41.2092 17.9521 41.0637 18.7527L40.5163 21.7654C40.0919 23.9981 37.546 22.978 37.546 22.978L37.5495 16.1605Z" fill="#FCC18B"/>
<path d="M34.2694 4.71092C32.4577 3.03564 29.9108 1.57387 26.5471 1.53308C23.183 1.57387 20.6361 3.03564 18.8243 4.71092C16.5136 6.84744 15.2618 10.0208 15.2618 13.2953L15.2648 24.713C15.2648 30.111 22.2806 35.7008 26.5471 35.7008C30.8131 35.7008 37.8294 30.111 37.8294 24.713L37.8325 13.2953C37.832 10.0208 36.5802 6.84744 34.2694 4.71092Z" fill="#FCC18B"/>
<path d="M34.2694 4.71092C32.4577 3.03564 29.9108 1.57387 26.5471 1.53308C25.2782 1.54869 24.1256 1.76622 23.0848 2.12122C24.8034 2.70734 26.2168 3.66759 27.3452 4.71092C29.656 6.84744 30.9078 10.0208 30.9078 13.2953L30.9048 24.713C30.9048 28.7973 26.888 32.9912 23.0848 34.7904C24.3079 35.369 25.5088 35.7008 26.5466 35.7008C30.8131 35.7008 37.8289 30.111 37.8289 24.713L37.832 13.2953C37.832 10.0208 36.5802 6.84744 34.2694 4.71092Z" fill="#EAAB65"/>
<path d="M33.5282 0.966797H19.5656C15.9728 0.966797 13.0609 3.87927 13.0609 7.47153V16.4476C13.0609 16.4476 14.8519 16.4068 16.003 17.5459C16.2427 17.783 16.6501 17.6098 16.6501 17.2724V10.238C16.6501 8.64981 17.9376 7.36276 19.5253 7.36276H22.1382C22.8235 7.36276 23.4877 7.59943 24.0179 8.03348L24.2742 8.24295C24.9152 8.76713 25.7183 9.05365 26.5467 9.05365C27.3755 9.05365 28.1781 8.76713 28.8196 8.24295L29.0759 8.03348C29.6062 7.59943 30.2703 7.36276 30.9557 7.36276H33.568C35.1562 7.36276 36.4437 8.64981 36.4437 10.238V17.2729C36.4437 17.6098 36.8511 17.7835 37.0908 17.5464C38.2414 16.4068 40.033 16.4476 40.033 16.4476V7.47203C40.033 3.87927 37.1205 0.966797 33.5282 0.966797Z" fill="#426175"/>
<path d="M33.5282 0.966797H31.1132C32.3283 2.39735 33.0906 4.54596 33.1098 7.36276H33.5685C35.1561 7.36276 36.4437 8.64981 36.4437 10.238V17.2729C36.4437 17.6098 36.8511 17.7835 37.0907 17.5464C38.2418 16.4068 40.0329 16.4476 40.0329 16.4476V7.47203C40.0329 3.87927 37.1205 0.966797 33.5282 0.966797Z" fill="#2C4456"/>
<path d="M46.8282 42.044C44.7421 41.0676 40.5647 39.7992 37.4357 38.9094L36.7589 39.1662C30.1792 41.6582 22.9146 41.6582 16.3348 39.1662L15.6581 38.9094C12.5291 39.7992 8.35172 41.0676 6.26555 42.044C3.33696 43.4156 1.36913 45.9414 1.18735 49.0412L0.967306 62.3452C0.949178 63.8241 2.14358 65.0331 3.62298 65.0331H49.4708C50.9502 65.0331 52.1446 63.8241 52.127 62.3452L51.9064 49.0412C51.7246 45.9414 49.7568 43.4156 46.8282 42.044Z" fill="#794AFF"/>
<path d="M42.8241 61.6991H9.78481C8.78025 61.6991 7.94588 60.9227 7.87438 59.9201L6.52338 40.9613C6.44433 39.8526 7.3225 38.9094 8.43381 38.9094H44.1756C45.2869 38.9094 46.1651 39.8526 46.086 40.9613L44.7345 59.9201C44.663 60.9227 43.8291 61.6991 42.8241 61.6991Z" fill="#F2F2F2"/>
<path d="M44.1756 38.9094H37.2006C38.3119 38.9094 39.19 39.8526 39.111 40.9613L37.6331 61.6991H42.8241C43.8292 61.6991 44.6635 60.9227 44.7345 59.9201L46.086 40.9613C46.1651 39.8526 45.2869 38.9094 44.1756 38.9094Z" fill="#CDD6DF"/>
<path d="M45.1937 65.0333H7.90005C6.97958 65.0333 6.23334 64.287 6.23334 63.3666C6.23334 62.4456 6.97958 61.6993 7.90005 61.6993H45.1937C46.1142 61.6993 46.8605 62.4456 46.8605 63.3666C46.8605 64.287 46.1142 65.0333 45.1937 65.0333Z" fill="#CDD6DF"/>
<path d="M29.2144 51.0689C29.2144 52.5422 28.02 53.7366 26.5467 53.7366C25.0733 53.7366 23.8789 52.5422 23.8789 51.0689C23.8789 49.5955 25.0733 48.4011 26.5467 48.4011C28.02 48.4011 29.2144 49.5955 29.2144 51.0689Z" fill="white"/>
<path d="M47.8031 15.0874C47.8031 14.598 47.3489 14.2158 46.9908 14.2158C46.9073 14.2158 46.8237 14.2279 46.7643 14.2757L43.7314 16.2456C43.457 16.4249 43.3613 16.7114 43.3613 16.9143C43.3613 17.1172 43.457 17.4037 43.7314 17.583L46.7643 19.5528C46.8237 19.6007 46.9073 19.6128 46.9908 19.6128C47.3489 19.6128 47.8031 19.2306 47.8031 18.7411C47.8031 18.5382 47.7195 18.3589 47.588 18.2754L45.4863 16.9143L47.588 15.5532C47.719 15.4696 47.8031 15.2904 47.8031 15.0874Z" fill="#101828"/>
<path d="M53.8088 11.0043C53.5938 11.0043 53.4024 11.0994 53.3073 11.3029L49.1163 19.9109C49.0806 19.9824 49.0564 20.066 49.0564 20.138C49.0564 20.4361 49.3192 20.7704 49.7256 20.7704C49.9522 20.7704 50.1793 20.6511 50.2629 20.4723L54.4654 11.8638C54.5012 11.7923 54.5133 11.7087 54.5133 11.6367C54.5128 11.255 54.1427 11.0043 53.8088 11.0043Z" fill="#101828"/>
<path d="M59.8382 16.2456L56.8059 14.2757C56.746 14.2279 56.6624 14.2158 56.5788 14.2158C56.2208 14.2158 55.7671 14.598 55.7671 15.0874C55.7671 15.2904 55.8507 15.4696 55.9821 15.5532L58.0834 16.9143L55.9821 18.2754C55.8507 18.3589 55.7671 18.5382 55.7671 18.7411C55.7671 19.2306 56.2208 19.6128 56.5788 19.6128C56.6624 19.6128 56.746 19.6007 56.8059 19.5528L59.8382 17.583C60.1131 17.4037 60.2083 17.1172 60.2083 16.9143C60.2083 16.7114 60.1131 16.4249 59.8382 16.2456Z" fill="#101828"/>
<path d="M61.325 4.80679H40.5087C39.4331 1.99905 36.7095 0 33.5276 0H19.5655C15.446 0 12.0939 3.35207 12.0939 7.47153V15.9557C11.2611 16.6732 10.8739 17.7956 11.0788 18.9256L11.6277 21.9458C11.825 22.9831 12.3759 23.5163 12.8029 23.7807C13.2808 24.0763 13.811 24.174 14.2979 24.1765V24.7132C14.2979 27.4364 15.8866 30.4375 18.6566 32.9476C19.1782 33.42 19.7205 33.8555 20.2734 34.2493V35.8687C20.2734 36.3621 19.9215 36.7856 19.436 36.8757C19.4134 36.8798 19.3912 36.8848 19.3691 36.8904C19.3525 36.8949 17.6928 37.3274 15.523 37.9427H8.4337C7.63659 37.9427 6.86769 38.2776 6.32437 38.8607C5.78105 39.4438 5.50209 40.2349 5.55899 41.03L5.57812 41.3029C2.40733 42.8931 0.412304 45.7441 0.221965 48.9844C0.221462 48.998 0.220958 49.0116 0.220455 49.0252L0.000407816 62.3332C-0.0116772 63.3091 0.359935 64.229 1.04525 64.9234C1.73158 65.6178 2.64651 66 3.62287 66H49.4707C50.4466 66 51.362 65.6178 52.0478 64.9234C52.7336 64.229 53.1052 63.3096 53.0932 62.3292L52.8731 49.0252C52.8726 49.0116 52.8721 48.998 52.8711 48.9844C52.6757 45.6504 50.5699 42.7289 47.2375 41.1684C47.1766 41.1397 47.1126 41.1105 47.0467 41.0808L47.0502 41.03C47.1066 40.2349 46.8276 39.4443 46.2848 38.8607C45.7415 38.2776 44.9726 37.9427 44.1755 37.9427H37.5705C35.4013 37.3274 33.7411 36.8949 33.7245 36.8909C33.7023 36.8848 33.6802 36.8798 33.6575 36.8757C33.1721 36.7856 32.8201 36.3621 32.8201 35.8687V34.2498C33.373 33.8555 33.9153 33.42 34.437 32.9476C36.1974 31.3524 37.4809 29.5588 38.1823 27.7642H44.464L43.3668 32.1928C43.184 32.9315 43.4771 33.6778 44.1135 34.0942C44.4126 34.2901 44.748 34.3873 45.0818 34.3873C45.4595 34.3873 45.8351 34.2634 46.1554 34.0172L54.2956 27.7642H61.325C63.8724 27.7642 65.9445 25.6921 65.9445 23.1447V9.42627C65.9445 6.87936 63.8724 4.80679 61.325 4.80679ZM38.7977 17.6259C39.1673 17.5 39.5172 17.4482 39.7453 17.4275C40.049 17.6969 40.192 18.1405 40.1124 18.5796L39.5666 21.5847C39.487 22.0042 39.3259 22.1039 39.273 22.1366C39.1607 22.2061 38.995 22.2419 38.7967 22.2439L38.7977 17.6259ZM14.0275 7.47153C14.0275 4.41806 16.512 1.93359 19.5655 1.93359H33.5281C36.5816 1.93359 39.066 4.41806 39.066 7.47153V15.572C38.5877 15.6566 37.992 15.8187 37.4104 16.1289V10.238C37.4104 8.11958 35.6868 6.39597 33.5684 6.39597H30.9555C30.0497 6.39597 29.1649 6.71169 28.4635 7.28471L28.2077 7.49419C27.7404 7.87637 27.1503 8.08685 26.5465 8.08685C25.9428 8.08685 25.3531 7.87637 24.8859 7.49469L24.6296 7.28471C23.9286 6.71169 23.0434 6.39597 22.1375 6.39597H19.5252C17.4068 6.39597 15.6832 8.11908 15.6832 10.238V16.1284C15.1016 15.8187 14.5059 15.6561 14.0275 15.572V7.47153ZM13.8206 22.1366C13.7677 22.1039 13.6066 22.0042 13.5285 21.5928L12.9812 18.5801C12.9016 18.141 13.0446 17.6979 13.3472 17.428C13.5753 17.4487 13.9258 17.4995 14.2959 17.6254L14.2969 22.2439C14.099 22.2419 13.9334 22.2061 13.8206 22.1366ZM5.26643 63.366C5.26643 63.6087 5.29966 63.8433 5.36109 64.0664H3.62287C3.16767 64.0664 2.74118 63.8882 2.42092 63.5644C2.10118 63.2406 1.92846 62.8116 1.9335 62.3609L2.15354 49.078C2.29655 46.7567 3.58309 44.7441 5.72969 43.4278L6.90998 59.9887C6.93164 60.2929 7.00112 60.5834 7.10989 60.8538C6.04238 61.1902 5.26643 62.1892 5.26643 63.366ZM45.6987 59.9887L46.8981 43.1609C49.3242 44.4626 50.7869 46.5931 50.94 49.078L51.1601 62.3569C51.1651 62.8116 50.9919 63.2406 50.6726 63.5644C50.3524 63.8882 49.9259 64.0664 49.4707 64.0664H47.7325C47.7944 63.8433 47.8271 63.6087 47.8271 63.366C47.8271 62.0301 46.8276 60.9238 45.537 60.7551C45.6242 60.5129 45.68 60.2561 45.6987 59.9887ZM45.8935 63.366C45.8935 63.7522 45.5793 64.0664 45.1936 64.0664H7.89994C7.51423 64.0664 7.20002 63.7522 7.20002 63.366C7.20002 62.9803 7.51423 62.6661 7.89994 62.6661H45.1936C45.5793 62.6661 45.8935 62.9803 45.8935 63.366ZM44.8699 40.1785C45.0511 40.3733 45.1408 40.6266 45.1216 40.8925L43.7701 59.8518C43.7349 60.3457 43.3195 60.7325 42.824 60.7325H9.78469C9.28971 60.7325 8.87429 60.3457 8.83854 59.8513L7.48754 40.8925C7.46841 40.6266 7.55804 40.3733 7.73931 40.1785C7.92109 39.9836 8.16732 39.8763 8.4337 39.8763H44.1755C44.4413 39.8763 44.6881 39.9836 44.8699 40.1785ZM31.736 37.9427H21.3576C21.8863 37.405 22.207 36.6688 22.207 35.8687V35.4361C23.7312 36.2252 25.2459 36.6678 26.5465 36.6678C27.8472 36.6678 29.3618 36.2252 30.8865 35.4361V35.8687C30.8865 36.6688 31.2073 37.405 31.736 37.9427ZM33.1384 31.5146C30.9797 33.4703 28.3925 34.7342 26.5465 34.7342C24.7011 34.7342 22.1139 33.4703 19.9552 31.5146C17.5886 29.371 16.2315 26.8916 16.2315 24.7127L16.2295 18.6219C16.2421 18.6219 16.2547 18.6224 16.2673 18.6224C16.442 18.6224 16.6182 18.5882 16.7869 18.5177C17.291 18.3072 17.6168 17.8183 17.6168 17.2724V10.238C17.6168 9.18558 18.4728 8.32956 19.5252 8.32956H22.138C22.5988 8.32956 23.0489 8.49019 23.4054 8.78174L23.6623 8.99171C24.474 9.65488 25.4982 10.0204 26.5465 10.0204C27.5949 10.0204 28.6196 9.65488 29.4313 8.99121L29.6876 8.78174C30.0441 8.49019 30.4948 8.32956 30.9555 8.32956H33.5679C34.6203 8.32956 35.4768 9.18558 35.4768 10.238V17.2724C35.4768 17.8188 35.8021 18.3072 36.3066 18.5177C36.4869 18.5932 36.6768 18.627 36.8636 18.6219L36.8621 24.7132C36.8626 26.8916 35.505 29.371 33.1384 31.5146ZM64.0109 23.1447C64.0109 24.6256 62.8064 25.8306 61.325 25.8306H53.9673C53.7543 25.8306 53.5474 25.9011 53.3787 26.031L45.3593 32.1908L46.6378 27.03C46.7093 26.7415 46.6443 26.4359 46.461 26.2017C46.2777 25.9676 45.9968 25.8306 45.6997 25.8306H38.71C38.7669 25.4545 38.7962 25.0813 38.7962 24.7132V24.1765C39.2826 24.174 39.8128 24.0763 40.2907 23.7807C40.7182 23.5163 41.269 22.9831 41.4674 21.9382L42.0148 18.9256C42.2202 17.7956 41.832 16.6727 40.9996 15.9557V7.47153C40.9996 7.2253 40.9876 6.98108 40.9639 6.74039H61.325C62.8064 6.74039 64.0109 7.94536 64.0109 9.42627V23.1447Z" fill="#101828"/>
<path d="M26.5467 54.7034C28.5508 54.7034 30.1812 53.073 30.1812 51.0689C30.1812 49.0648 28.5508 47.4343 26.5467 47.4343C24.5426 47.4343 22.9121 49.0648 22.9121 51.0689C22.9121 53.073 24.5426 54.7034 26.5467 54.7034ZM26.5467 49.3679C27.4848 49.3679 28.2476 50.1313 28.2476 51.0689C28.2476 52.007 27.4848 52.7698 26.5467 52.7698C25.6091 52.7698 24.8457 52.007 24.8457 51.0689C24.8457 50.1313 25.6091 49.3679 26.5467 49.3679Z" fill="#101828"/>
</g>
<defs>
<clipPath id="clip0_395_2241">
<rect width="66" height="66" fill="white"/>
</clipPath>
</defs>
</svg>
