<svg width="66" height="66" viewBox="0 0 66 66" fill="none" xmlns="http://www.w3.org/2000/svg">
<g clip-path="url(#clip0_603_27860)">
<path d="M61.3251 5.77344H37.0726C35.0554 5.77344 33.4199 7.40894 33.4199 9.42612V23.1446C33.4199 25.1617 35.0554 26.7972 37.0726 26.7972H45.6998L44.3054 32.4253C44.1237 33.1585 44.9676 33.7103 45.5668 33.2501L53.9674 26.7972H61.3256C63.3428 26.7972 64.9783 25.1622 64.9783 23.1446V9.42612C64.9778 7.40894 63.3428 5.77344 61.3251 5.77344Z" fill="#FFD277"/>
<path d="M45.3835 28.0723L44.3054 32.4254C44.1236 33.1586 44.9676 33.7105 45.5668 33.2502L53.9673 26.7974H47.0431L45.3835 28.0723Z" fill="#FFC34A"/>
<path d="M61.3251 5.77344H54.4009C56.4186 5.77344 58.0536 7.40894 58.0536 9.42612V23.1446C58.0536 25.1617 56.4186 26.7972 54.4009 26.7972H61.3251C63.3427 26.7972 64.9777 25.1622 64.9777 23.1446V9.42612C64.9777 7.40894 63.3427 5.77344 61.3251 5.77344Z" fill="#FFC34A"/>
<path d="M51.9066 49.0414C51.7248 45.9416 49.757 43.4159 46.8284 42.0442C43.2437 40.3659 33.4816 37.8266 33.4816 37.8266C32.5379 37.6513 31.8536 36.828 31.8536 35.8688V30.2886H21.2405V35.8688C21.2405 36.828 20.5562 37.6513 19.6131 37.8266C19.6131 37.8266 9.85094 40.3659 6.26574 42.0442C3.33715 43.4159 1.36931 45.9416 1.18754 49.0414L0.967489 62.3454C0.949361 63.8243 2.14376 65.0333 3.62316 65.0333H49.471C50.9504 65.0333 52.1448 63.8243 52.1272 62.3454L51.9066 49.0414Z" fill="#FCC18B"/>
<path d="M51.9064 49.0414C51.7246 45.9416 49.7567 43.4159 46.8282 42.0442C43.2435 40.3659 33.4813 37.8266 33.4813 37.8266C32.5377 37.6513 31.8534 36.828 31.8534 35.8688V30.2886H24.9292V39.2158C24.9292 40.1751 25.6135 40.9984 26.5566 41.1731C26.5566 41.1731 36.3193 43.713 39.904 45.3913C42.8326 46.7624 44.8004 49.2887 44.9822 52.3879L45.1916 65.0333H49.4707C50.9501 65.0333 52.1445 63.8243 52.1269 62.3454L51.9064 49.0414Z" fill="#EAAB65"/>
<path d="M15.5443 16.1606H14.151C13.6465 16.1606 13.1812 16.3313 12.8106 16.6179C12.1671 17.1154 11.8846 17.9522 12.0301 18.7529L12.5775 21.7655C13.002 23.9982 15.5479 22.9781 15.5479 22.9781L15.5443 16.1606Z" fill="#EAAB65"/>
<path d="M37.5494 16.1606H38.9427C39.4473 16.1606 39.9125 16.3313 40.2831 16.6179C40.9267 17.1154 41.2092 17.9522 41.0636 18.7529L40.5163 21.7655C40.0918 23.9982 37.5459 22.9781 37.5459 22.9781L37.5494 16.1606Z" fill="#FCC18B"/>
<path d="M34.2693 4.71104C32.4576 3.03577 29.9107 1.57399 26.5471 1.5332C23.1829 1.57399 20.636 3.03577 18.8243 4.71104C16.5135 6.84756 15.2617 10.0209 15.2617 13.2954L15.2647 24.7132C15.2647 30.1111 22.2806 35.7009 26.5471 35.7009C30.813 35.7009 37.8294 30.1111 37.8294 24.7132L37.8324 13.2954C37.8319 10.0209 36.5801 6.84756 34.2693 4.71104Z" fill="#FCC18B"/>
<path d="M34.2696 4.71104C32.4579 3.03577 29.9109 1.57399 26.5473 1.5332C25.2784 1.54881 24.1258 1.76634 23.085 2.12134C24.8035 2.70746 26.217 3.66771 27.3454 4.71104C29.6562 6.84756 30.908 10.0209 30.908 13.2954L30.9049 24.7132C30.9049 28.7974 26.8882 32.9914 23.085 34.7905C24.3081 35.3691 25.509 35.7009 26.5468 35.7009C30.8133 35.7009 37.8291 30.1111 37.8291 24.7132L37.8321 13.2954C37.8321 10.0209 36.5803 6.84756 34.2696 4.71104Z" fill="#EAAB65"/>
<path d="M33.5284 0.966797H19.5658C15.973 0.966797 13.061 3.87927 13.061 7.47153V16.4476C13.061 16.4476 14.8521 16.4068 16.0032 17.5459C16.2429 17.783 16.6503 17.6098 16.6503 17.2724V10.238C16.6503 8.64981 17.9378 7.36276 19.5255 7.36276H22.1384C22.8237 7.36276 23.4878 7.59943 24.0181 8.03348L24.2744 8.24295C24.9154 8.76713 25.7185 9.05365 26.5468 9.05365C27.3757 9.05365 28.1783 8.76713 28.8198 8.24295L29.0761 8.03348C29.6064 7.59943 30.2705 7.36276 30.9558 7.36276H33.5682C35.1564 7.36276 36.4439 8.64981 36.4439 10.238V17.2729C36.4439 17.6098 36.8513 17.7835 37.091 17.5464C38.2416 16.4068 40.0332 16.4476 40.0332 16.4476V7.47203C40.0332 3.87927 37.1207 0.966797 33.5284 0.966797Z" fill="#426175"/>
<path d="M33.5283 0.966797H31.1133C32.3283 2.39735 33.0907 4.54596 33.1098 7.36276H33.5685C35.1562 7.36276 36.4438 8.64981 36.4438 10.238V17.2729C36.4438 17.6098 36.8511 17.7835 37.0908 17.5464C38.2419 16.4068 40.033 16.4476 40.033 16.4476V7.47203C40.033 3.87927 37.1205 0.966797 33.5283 0.966797Z" fill="#2C4456"/>
<path d="M46.8284 42.0442C44.7422 41.0678 40.5649 39.7994 37.4359 38.9097L36.7591 39.1665C30.1794 41.6585 22.9148 41.6585 16.335 39.1665L15.6583 38.9097C12.5293 39.7994 8.3519 41.0678 6.26574 42.0442C3.33715 43.4158 1.36931 45.9416 1.18754 49.0414L0.967489 62.3454C0.949361 63.8243 2.14376 65.0333 3.62316 65.0333H49.471C50.9504 65.0333 52.1448 63.8243 52.1272 62.3454L51.9066 49.0414C51.7248 45.9416 49.757 43.4158 46.8284 42.0442Z" fill="#FF774D"/>
<path d="M42.8242 61.6994H9.78493C8.78037 61.6994 7.946 60.9229 7.8745 59.9204L6.5235 40.9616C6.44445 39.8528 7.32262 38.9097 8.43393 38.9097H44.1757C45.287 38.9097 46.1652 39.8528 46.0861 40.9616L44.7346 59.9204C44.6631 60.9229 43.8293 61.6994 42.8242 61.6994Z" fill="#F2F2F2"/>
<path d="M44.1757 38.9097H37.2007C38.312 38.9097 39.1902 39.8528 39.1111 40.9616L37.6332 61.6994H42.8242C43.8293 61.6994 44.6637 60.9229 44.7347 59.9204L46.0862 40.9616C46.1652 39.8528 45.287 38.9097 44.1757 38.9097Z" fill="#CDD6DF"/>
<path d="M45.1938 65.0332H7.90012C6.97964 65.0332 6.2334 64.2869 6.2334 63.3664C6.2334 62.4455 6.97964 61.6992 7.90012 61.6992H45.1938C46.1143 61.6992 46.8605 62.4455 46.8605 63.3664C46.8605 64.2869 46.1143 65.0332 45.1938 65.0332Z" fill="#CDD6DF"/>
<path d="M29.2144 51.0691C29.2144 52.5425 28.02 53.7369 26.5467 53.7369C25.0733 53.7369 23.8789 52.5425 23.8789 51.0691C23.8789 49.5958 25.0733 48.4014 26.5467 48.4014C28.02 48.4014 29.2144 49.5958 29.2144 51.0691Z" fill="white"/>
<path d="M47.8031 15.0874C47.8031 14.598 47.3489 14.2158 46.9908 14.2158C46.9073 14.2158 46.8237 14.2279 46.7643 14.2757L43.7314 16.2456C43.457 16.4249 43.3613 16.7114 43.3613 16.9143C43.3613 17.1172 43.457 17.4037 43.7314 17.583L46.7643 19.5528C46.8237 19.6007 46.9073 19.6128 46.9908 19.6128C47.3489 19.6128 47.8031 19.2306 47.8031 18.7411C47.8031 18.5382 47.7195 18.3589 47.588 18.2754L45.4863 16.9143L47.588 15.5532C47.719 15.4696 47.8031 15.2904 47.8031 15.0874Z" fill="#0E191E"/>
<path d="M53.8086 11.0044C53.5936 11.0044 53.4022 11.0996 53.307 11.303L49.1161 19.911C49.0803 19.9825 49.0562 20.0661 49.0562 20.1381C49.0562 20.4362 49.319 20.7706 49.7254 20.7706C49.9519 20.7706 50.179 20.6512 50.2626 20.4725L54.4652 11.8639C54.5009 11.7924 54.513 11.7088 54.513 11.6368C54.5125 11.2552 54.1424 11.0044 53.8086 11.0044Z" fill="#0E191E"/>
<path d="M59.8382 16.2456L56.8059 14.2757C56.746 14.2279 56.6624 14.2158 56.5788 14.2158C56.2208 14.2158 55.7671 14.598 55.7671 15.0874C55.7671 15.2904 55.8507 15.4696 55.9821 15.5532L58.0834 16.9143L55.9821 18.2754C55.8507 18.3589 55.7671 18.5382 55.7671 18.7411C55.7671 19.2306 56.2208 19.6128 56.5788 19.6128C56.6624 19.6128 56.746 19.6007 56.8059 19.5528L59.8382 17.583C60.1131 17.4037 60.2083 17.1172 60.2083 16.9143C60.2083 16.7114 60.1131 16.4249 59.8382 16.2456Z" fill="#0E191E"/>
<path d="M61.3249 4.80679H40.5086C39.433 1.99905 36.7094 0 33.5275 0H19.5653C15.4459 0 12.0938 3.35207 12.0938 7.47153V15.9557C11.261 16.6732 10.8737 17.7956 11.0787 18.9256L11.6275 21.9458C11.8249 22.9831 12.3758 23.5163 12.8028 23.7807C13.2807 24.0763 13.8109 24.174 14.2978 24.1765V24.7132C14.2978 27.4364 15.8865 30.4375 18.6564 32.9476C19.1781 33.42 19.7204 33.8555 20.2733 34.2493V35.8687C20.2733 36.3621 19.9213 36.7856 19.4359 36.8757C19.4133 36.8798 19.3911 36.8848 19.3689 36.8904C19.3523 36.8949 17.6927 37.3274 15.5229 37.9427H8.43357C7.63647 37.9427 6.86756 38.2776 6.32424 38.8607C5.78092 39.4438 5.50196 40.2349 5.55886 41.03L5.578 41.3029C2.40721 42.8931 0.412181 45.7441 0.221843 48.9844C0.22134 48.998 0.220836 49.0116 0.220333 49.0252L0.000285746 62.3332C-0.0117992 63.3091 0.359813 64.229 1.04513 64.9234C1.73146 65.6178 2.64639 66 3.62275 66H49.4706C50.4464 66 51.3619 65.6178 52.0477 64.9234C52.7335 64.229 53.1051 63.3096 53.093 62.3292L52.873 49.0252C52.8725 49.0116 52.872 48.998 52.871 48.9844C52.6756 45.6504 50.5698 42.7289 47.2374 41.1684C47.1764 41.1397 47.1125 41.1105 47.0465 41.0808L47.0501 41.03C47.1065 40.2349 46.8275 39.4443 46.2847 38.8607C45.7414 38.2776 44.9725 37.9427 44.1753 37.9427H37.5704C35.4012 37.3274 33.741 36.8949 33.7244 36.8909C33.7022 36.8848 33.6801 36.8798 33.6574 36.8757C33.172 36.7856 32.82 36.3621 32.82 35.8687V34.2498C33.3729 33.8555 33.9152 33.42 34.4369 32.9476C36.1973 31.3524 37.4808 29.5588 38.1822 27.7642H44.4639L43.3667 32.1928C43.1839 32.9315 43.4769 33.6778 44.1134 34.0942C44.4125 34.2901 44.7479 34.3873 45.0817 34.3873C45.4594 34.3873 45.835 34.2634 46.1553 34.0172L54.2955 27.7642H61.3249C63.8723 27.7642 65.9444 25.6921 65.9444 23.1447V9.42627C65.9444 6.87936 63.8723 4.80679 61.3249 4.80679ZM38.7975 17.6259C39.1671 17.5 39.5171 17.4482 39.7452 17.4275C40.0488 17.6969 40.1918 18.1405 40.1123 18.5796L39.5664 21.5847C39.4869 22.0042 39.3258 22.1039 39.2729 22.1366C39.1606 22.2061 38.9949 22.2419 38.7965 22.2439L38.7975 17.6259ZM14.0274 7.47153C14.0274 4.41806 16.5119 1.93359 19.5653 1.93359H33.528C36.5815 1.93359 39.0659 4.41806 39.0659 7.47153V15.572C38.5876 15.6566 37.9919 15.8187 37.4103 16.1289V10.238C37.4103 8.11958 35.6867 6.39597 33.5683 6.39597H30.9554C30.0495 6.39597 29.1648 6.71169 28.4634 7.28471L28.2076 7.49419C27.7403 7.87637 27.1502 8.08685 26.5464 8.08685C25.9427 8.08685 25.353 7.87637 24.8857 7.49469L24.6294 7.28471C23.9285 6.71169 23.0433 6.39597 22.1374 6.39597H19.525C17.4067 6.39597 15.683 8.11908 15.683 10.238V16.1284C15.1014 15.8187 14.5058 15.6561 14.0274 15.572V7.47153ZM13.8204 22.1366C13.7676 22.1039 13.6064 22.0042 13.5284 21.5928L12.981 18.5801C12.9015 18.141 13.0445 17.6979 13.3471 17.428C13.5752 17.4487 13.9257 17.4995 14.2958 17.6254L14.2968 22.2439C14.0989 22.2419 13.9332 22.2061 13.8204 22.1366ZM5.26631 63.366C5.26631 63.6087 5.29954 63.8433 5.36097 64.0664H3.62275C3.16755 64.0664 2.74105 63.8882 2.4208 63.5644C2.10105 63.2406 1.92834 62.8116 1.93338 62.3609L2.15342 49.078C2.29643 46.7567 3.58297 44.7441 5.72956 43.4278L6.90986 59.9887C6.93151 60.2929 7.001 60.5834 7.10977 60.8538C6.04226 61.1902 5.26631 62.1892 5.26631 63.366ZM45.6986 59.9887L46.898 43.1609C49.324 44.4626 50.7868 46.5931 50.9399 49.078L51.16 62.3569C51.165 62.8116 50.9918 63.2406 50.6725 63.5644C50.3523 63.8882 49.9258 64.0664 49.4706 64.0664H47.7324C47.7943 63.8433 47.827 63.6087 47.827 63.366C47.827 62.0301 46.8275 60.9238 45.5369 60.7551C45.624 60.5129 45.6799 60.2561 45.6986 59.9887ZM45.8934 63.366C45.8934 63.7522 45.5792 64.0664 45.1935 64.0664H7.89982C7.51411 64.0664 7.1999 63.7522 7.1999 63.366C7.1999 62.9803 7.51411 62.6661 7.89982 62.6661H45.1935C45.5792 62.6661 45.8934 62.9803 45.8934 63.366ZM44.8697 40.1785C45.051 40.3733 45.1406 40.6266 45.1215 40.8925L43.77 59.8518C43.7347 60.3457 43.3193 60.7325 42.8238 60.7325H9.78457C9.28959 60.7325 8.87417 60.3457 8.83842 59.8513L7.48742 40.8925C7.46829 40.6266 7.55792 40.3733 7.73919 40.1785C7.92097 39.9836 8.1672 39.8763 8.43357 39.8763H44.1753C44.4412 39.8763 44.688 39.9836 44.8697 40.1785ZM31.7359 37.9427H21.3574C21.8861 37.405 22.2069 36.6688 22.2069 35.8687V35.4361C23.7311 36.2252 25.2458 36.6678 26.5464 36.6678C27.8471 36.6678 29.3617 36.2252 30.8864 35.4361V35.8687C30.8864 36.6688 31.2072 37.405 31.7359 37.9427ZM33.1383 31.5146C30.9796 33.4703 28.3924 34.7342 26.5464 34.7342C24.7009 34.7342 22.1137 33.4703 19.9551 31.5146C17.5884 29.371 16.2314 26.8916 16.2314 24.7127L16.2294 18.6219C16.242 18.6219 16.2546 18.6224 16.2671 18.6224C16.4419 18.6224 16.6181 18.5882 16.7868 18.5177C17.2908 18.3072 17.6166 17.8183 17.6166 17.2724V10.238C17.6166 9.18558 18.4726 8.32956 19.525 8.32956H22.1379C22.5987 8.32956 23.0488 8.49019 23.4053 8.78174L23.6621 8.99171C24.4738 9.65488 25.498 10.0204 26.5464 10.0204C27.5948 10.0204 28.6195 9.65488 29.4312 8.99121L29.6875 8.78174C30.044 8.49019 30.4947 8.32956 30.9554 8.32956H33.5678C34.6202 8.32956 35.4767 9.18558 35.4767 10.238V17.2724C35.4767 17.8188 35.802 18.3072 36.3065 18.5177C36.4868 18.5932 36.6766 18.627 36.8634 18.6219L36.8619 24.7132C36.8624 26.8916 35.5049 29.371 33.1383 31.5146ZM64.0108 23.1447C64.0108 24.6256 62.8063 25.8306 61.3249 25.8306H53.9672C53.7542 25.8306 53.5472 25.9011 53.3785 26.031L45.3592 32.1908L46.6377 27.03C46.7092 26.7415 46.6442 26.4359 46.4609 26.2017C46.2776 25.9676 45.9967 25.8306 45.6996 25.8306H38.7099C38.7668 25.4545 38.796 25.0813 38.796 24.7132V24.1765C39.2824 24.174 39.8127 24.0763 40.2905 23.7807C40.718 23.5163 41.2689 22.9831 41.4673 21.9382L42.0147 18.9256C42.2201 17.7956 41.8319 16.6727 40.9995 15.9557V7.47153C40.9995 7.2253 40.9874 6.98108 40.9638 6.74039H61.3249C62.8063 6.74039 64.0108 7.94536 64.0108 9.42627V23.1447Z" fill="#0E191E"/>
<path d="M26.5467 54.7037C28.5508 54.7037 30.1812 53.0732 30.1812 51.0691C30.1812 49.065 28.5508 47.4346 26.5467 47.4346C24.5426 47.4346 22.9121 49.065 22.9121 51.0691C22.9121 53.0732 24.5426 54.7037 26.5467 54.7037ZM26.5467 49.3682C27.4848 49.3682 28.2476 50.1315 28.2476 51.0691C28.2476 52.0072 27.4848 52.7701 26.5467 52.7701C25.6091 52.7701 24.8457 52.0072 24.8457 51.0691C24.8457 50.1315 25.6091 49.3682 26.5467 49.3682Z" fill="#0E191E"/>
</g>
<defs>
<clipPath id="clip0_603_27860">
<rect width="66" height="66" fill="white"/>
</clipPath>
</defs>
</svg>
