<?xml version="1.0" encoding="UTF-8"?>
<svg xmlns="http://www.w3.org/2000/svg" xmlns:xlink="http://www.w3.org/1999/xlink" viewBox="0 0 2000 2000">
  <defs>
    <style>
      .cls-1, .cls-2, .cls-3, .cls-4, .cls-5 {
        fill-rule: evenodd;
      }

      .cls-1, .cls-6 {
        fill: #662e91;
      }

      .cls-7 {
        fill: url(#linear-gradient-2);
      }

      .cls-8 {
        mask: url(#mask-1);
      }

      .cls-9 {
        fill: #cc067f;
      }

      .cls-2, .cls-3, .cls-10, .cls-11 {
        fill: #cc0680;
      }

      .cls-12 {
        mask: url(#mask);
      }

      .cls-13 {
        fill: #89005b;
      }

      .cls-14 {
        fill: url(#linear-gradient-4);
      }

      .cls-15 {
        mask: url(#mask-2);
      }

      .cls-16 {
        fill: #6a4a37;
      }

      .cls-17 {
        fill: url(#linear-gradient-3);
      }

      .cls-3 {
        opacity: .4;
      }

      .cls-18 {
        isolation: isolate;
      }

      .cls-19 {
        clip-rule: evenodd;
        fill: none;
      }

      .cls-20 {
        mix-blend-mode: screen;
        opacity: .3;
      }

      .cls-20, .cls-21 {
        fill: #885f48;
      }

      .cls-10 {
        opacity: .5;
      }

      .cls-4 {
        fill: #290391;
      }

      .cls-5 {
        fill: #f9fcba;
      }

      .cls-22 {
        fill: url(#linear-gradient);
      }

      .cls-21 {
        mix-blend-mode: multiply;
        opacity: .49;
      }

      .cls-23 {
        clip-path: url(#clippath);
      }
    </style>
    <clipPath id="clippath">
      <path class="cls-19" d="M304.49,737.47c105.83-107.88,229.08-107.69,251.99-195.45,87.92,134.94-142.35,218.31-185.73,261.7-54.4,54.4-54.4,143.88,0,198.29,13.45,13.45,29.05,23.58,45.72,30.37-60.87-21.48-100.54-111.31-180.02-119.74v-.04c-2.58-63.16,20.1-127.19,68.04-175.13"/>
    </clipPath>
    <linearGradient id="linear-gradient" x1="4141.89" y1="-3185.29" x2="4706.01" y2="-2859.73" gradientTransform="translate(3490.12 5161.8) rotate(-90)" gradientUnits="userSpaceOnUse">
      <stop offset="0" stop-color="#ff057e"/>
      <stop offset="1" stop-color="#fadf44"/>
    </linearGradient>
    <linearGradient id="linear-gradient-2" x1="3492.82" y1="-2899.37" x2="4677.31" y2="-2899.37" gradientTransform="translate(3335.93 5019.39) rotate(-90)" gradientUnits="userSpaceOnUse">
      <stop offset="0" stop-color="#fff"/>
      <stop offset="1" stop-color="#000"/>
    </linearGradient>
    <mask id="mask" x="296.8" y="542.03" width="279.52" height="490.35" maskUnits="userSpaceOnUse">
      <rect class="cls-7" x="296.8" y="542.03" width="279.51" height="490.35"/>
    </mask>
    <linearGradient id="linear-gradient-3" x1="5175.97" y1="-2937.89" x2="4009.12" y2="-2937.89" gradientTransform="translate(3334.53 5011.13) rotate(-90)" xlink:href="#linear-gradient-2"/>
    <mask id="mask-1" x="236.26" y="542.03" width="320.75" height="376.43" maskUnits="userSpaceOnUse">
      <rect class="cls-17" x="236.26" y="542.03" width="320.75" height="376.43"/>
    </mask>
    <linearGradient id="linear-gradient-4" x1="4690.05" y1="-2371.04" x2="3674.12" y2="-2957.6" gradientTransform="translate(3350.49 5021.55) rotate(-90)" xlink:href="#linear-gradient-2"/>
    <mask id="mask-2" x="416.47" y="926.49" width="360.6" height="135.63" maskUnits="userSpaceOnUse">
      <rect class="cls-14" x="416.47" y="926.49" width="360.59" height="135.63"/>
    </mask>
  </defs>
  <g class="cls-18">
    <g id="Layer_1" data-name="Layer 1">
      <g>
        <path class="cls-2" d="M556.48,542.03c35.27,54.13,19.34,99.97-15.19,138.24,22.14,7.03,43.43,17.42,63.03,31.19,30.43-59.06,28.51-133.74-47.84-169.43"/>
        <g>
          <path class="cls-1" d="M370.75,803.72c-54.39,54.4-54.39,143.89,0,198.29,54.4,54.4,143.89,54.4,198.28,0l29.31-29.31c8.98-8.98,24.32-2.62,24.32,10.08v90.57c0,4.32-1.97,8.39-5.32,11.11-91.65,74.41-227.64,69.02-312.85-16.18-90.98-90.97-90.98-239.83,0-330.8,85.22-85.22,221.21-90.61,312.85-16.18,3.35,2.72,5.32,6.79,5.32,11.11v90.56c0,12.69-15.35,19.05-24.33,10.08l-29.31-29.31c-54.39-54.4-143.88-54.4-198.28,0Z"/>
          <g class="cls-23">
            <rect class="cls-22" x="233.87" y="542.03" width="410.53" height="490.35"/>
          </g>
          <path class="cls-3" d="M332.84,874.39c-9.14,44.73,3.49,93.2,37.91,127.62,13.37,13.36,28.84,23.44,45.4,30.24h0c-60.69-21.69-100.37-111.2-179.7-119.62v-.04c-.78-19.4.81-38.9,4.79-58,.11,0,50.46-4.77,91.6,19.79"/>
          <g class="cls-12">
            <path class="cls-2" d="M556.48,542.03c87.92,134.94-142.35,218.31-185.73,261.7-54.4,54.4-54.4,143.88,0,198.29,13.45,13.45,29.05,23.58,45.72,30.37-42.96-15.15-75.36-64.34-118.64-94.95-21.86-241.5,311.66-223.51,258.65-395.4"/>
          </g>
          <g class="cls-8">
            <path class="cls-5" d="M304.49,737.47c105.83-107.88,229.08-107.69,251.99-195.45,14.02,165.46-256.16,113.42-294.4,376.41h0c-8.09-2.83-16.6-4.85-25.63-5.8v-.04c-2.58-63.16,20.1-127.19,68.04-175.13"/>
          </g>
          <g class="cls-15">
            <path class="cls-4" d="M416.47,1032.38c50.78,20.71,111.62,10.58,152.56-30.37l29.76-29.75c8.81-8.81,23.88-2.57,23.88,9.89v65.58c-100.03,36.39-191.96-6.65-206.2-15.35"/>
          </g>
        </g>
        <path class="cls-6" d="M756.06,1003.39c0,4.64-2.56,6.96-7.67,6.96-2.26,0-5.56-.15-9.9-.45-4.34-.29-7.58-.45-9.72-.45-9.87,0-16.58,1.55-20.15,4.64-3.57,3.09-5.35,9.33-5.35,18.72,0,5.11.09,12.87.27,23.27.18,10.4.27,18.16.27,23.27,0,3.45.24,8.59.71,15.43.47,6.84.71,11.92.71,15.25,0,2.85-1.96,4.46-5.88,4.82-5.71.47-14.44.71-26.21.71s-20.33-.36-27.11-1.07c-3.92-.47-5.88-2.44-5.88-5.89,0-9.51.06-23.75.18-42.71.12-18.96.18-33.2.18-42.71,0-27.94-2.56-50.94-7.67-69.01-.24-1.07-.36-1.96-.36-2.67,0-1.78.89-2.97,2.68-3.57,6.54-.71,16.11-2.02,28.71-3.92,18.78-3.68,28.47-5.53,29.07-5.53,2.14,0,3.51,3.75,4.1,11.23.59,7.49,1.66,11.24,3.21,11.24-1.67,0,3.21-3.12,14.62-9.36,11.41-6.24,22.41-9.36,32.99-9.36,6.66,0,9.99,1.43,9.99,4.28,0,3.45-.36,8.32-1.07,14.62-.71,6.78-1.13,11.65-1.25,14.62,0,3.45.06,8.02.18,13.73.24,7.02.36,11.65.36,13.91Z"/>
        <path class="cls-6" d="M940.27,1017.66c0,12.01-3.87,18.84-11.59,20.51-1.31.24-13.61,1.55-36.91,3.92-14.03,1.55-34.95,3.39-62.77,5.53,1.66,7.73,6.71,13.61,15.16,17.65,6.89,3.33,14.74,4.99,23.54,4.99,10.58,0,21.22-2.85,31.92-8.56,4.52-2.85,9.03-5.71,13.55-8.56,2.5,1.19,6.69,7.25,12.57,18.19,5.89,10.94,8.83,17.89,8.83,20.86,0,.83-.89,2.2-2.67,4.1-14.51,15.58-37.03,23.36-67.59,23.36-28.3,0-51.12-8.26-68.48-24.79-17.83-16.76-26.75-39.17-26.75-67.23s7.96-49.75,23.9-67.23c16.41-18.07,38.16-27.11,65.27-27.11,22.83,0,42.2,8.32,58.14,24.97,15.93,16.65,23.9,36.44,23.9,59.38ZM877.85,1006.78c0-7.37-2.62-13.85-7.85-19.44-5.23-5.59-11.47-8.38-18.72-8.38s-13.67,3.15-18.55,9.45c-4.52,5.83-6.78,12.66-6.78,20.51,0,3.21,1.66,4.82,4.99,4.82,8.8,0,22.47-1.37,41.02-4.1,3.92-.59,5.88-1.54,5.88-2.85Z"/>
        <path class="cls-6" d="M1139.11,1025.32c0,9.16.53,22.77,1.6,40.84,1.07,18.07,1.6,31.63,1.6,40.66,0,4.76-2.08,7.31-6.24,7.67-14.74,1.07-31.63,1.6-50.65,1.6-2.26,0-3.78-3.42-4.55-10.25-.77-6.84-1.69-10.31-2.76-10.43-.95.48-2.2,1.49-3.75,3.03-13.32,13.44-27.58,20.15-42.8,20.15-23.18,0-42.38-9.15-57.6-27.46-14.39-17.12-21.58-37.57-21.58-61.35,0-27.46,7.43-49.58,22.29-66.34,15.45-17.36,36.62-26.04,63.49-26.04,18.66,0,33.41,6.54,44.23,19.62.47.6.89.89,1.25.89,1.07,0,2.29-2.88,3.66-8.65,1.37-5.77,3-8.65,4.9-8.65,4.4,0,12.78,1.25,25.14,3.75,11.77,2.38,20.21,4.4,25.32,6.06,1.78.71,2.67,1.67,2.67,2.85,0,.48-.18,1.73-.53,3.75-3.81,21.52-5.71,44.29-5.71,68.3ZM1081.69,1026.39c0-10.1-3.18-18.46-9.54-25.06-6.36-6.6-14.65-9.9-24.88-9.9s-18.49,3.27-24.79,9.81c-6.3,6.54-9.45,14.92-9.45,25.14,0,9.63,3.33,17.89,9.99,24.79,6.66,6.9,14.74,10.34,24.25,10.34,10.1,0,18.37-3.3,24.79-9.9,6.42-6.6,9.63-15.01,9.63-25.23Z"/>
        <path class="cls-6" d="M1293.9,1062.24c0,3.57-.45,8.98-1.34,16.23-.89,7.25-1.34,12.57-1.34,15.96s-.36,5.56-1.07,6.51c-.71.95-2.67,2.32-5.88,4.1-15.34,8.44-32.34,12.66-51,12.66-34.36,0-51.54-13.14-51.54-39.41,0-7.85.3-19.64.89-35.4.59-15.75.89-27.55.89-35.4,0-5.23-3.03-7.85-9.09-7.85h-2.32c-1.07.12-1.84.18-2.32.18-4.52,0-6.78-1.6-6.78-4.81,0-1.9.15-4.82.45-8.74.3-3.92.45-6.84.45-8.74,0-2.5-.15-6.3-.45-11.41-.3-5.11-.45-8.92-.45-11.41s3.8-3.68,11.41-3.92c4.28-.12,6.6-1.31,6.95-3.57.71-4.52.95-11.65.71-21.4-.48-15.34-.71-22.65-.71-21.93,0-13.79,1.31-20.69,3.92-20.69,3.21,0,7.79.71,13.73,2.14,6.78,1.55,11.47,2.44,14.09,2.68,6.06.83,15.22,1.96,27.46,3.39,2.97.24,4.46,1.25,4.46,3.03,0,4.76-.39,11.95-1.16,21.58-.78,9.63-1.16,16.88-1.16,21.76,0,5.83,1.72,8.74,5.17,8.74,4.16,0,10.46-.18,18.9-.53,8.44-.36,14.8-.53,19.08-.53,2.61,0,3.92.89,3.92,2.67,0,2.74-.3,6.84-.89,12.31-.6,5.47-.89,9.57-.89,12.3s.06,7.02.18,12.48c.12,5.47.18,9.63.18,12.48,0,2.5-1.73,3.75-5.17,3.75-2.38,0-6.36-.09-11.95-.27-5.59-.18-9.57-.27-11.95-.27h-13.37c-1.78,0-2.67,2.62-2.67,7.85v12.66c.12,5.71.18,9.93.18,12.66,0,9.99,1.13,16.88,3.39,20.69,3.21,5.11,9.51,7.67,18.9,7.67,2.97,0,7.22-.68,12.75-2.05,5.53-1.37,9.42-2.05,11.68-2.05,2.5,0,3.75,1.31,3.75,3.92Z"/>
        <path class="cls-6" d="M1378.6,1032.63c0,8.68.18,21.61.53,38.79.36,17.18.53,30.05.53,38.61,0,2.5-1.49,3.98-4.46,4.46-4.04.71-13.14,1.07-27.28,1.07s-23.42-.36-27.46-1.07c-2.62-.47-4.22-1.25-4.81-2.32-.24-.47-.36-2.26-.36-5.35,0-8.2.18-20.54.53-37,.36-16.47.53-28.86.53-37.18,0-33.76-1.31-60.63-3.92-80.6-.24-1.9-.36-3.15-.36-3.74,0-2.38,1.6-3.57,4.81-3.57s8.41.36,15.25,1.07c6.83.71,11.98,1.07,15.43,1.07s8.62-.3,15.51-.89c6.89-.59,12.07-.89,15.51-.89,2.85,0,4.28,1.19,4.28,3.57,0,.48-.12,1.6-.36,3.39-2.62,23.18-3.92,50.05-3.92,80.6Z"/>
        <path class="cls-6" d="M1584.58,990.73c0,20.33-.65,32.34-1.96,36.02-2.74,8.44-10.94,22.77-24.61,42.98-11.89,17.36-22.05,30.91-30.49,40.66-3.09,3.69-12.42,5.53-28,5.53-13.55,0-22.35-.48-26.39-1.43-2.5-.59-4.58-1.78-6.24-3.57-7.13-7.73-17.3-21.16-30.49-40.3-14.15-20.57-22.59-34.65-25.32-42.26-2.97-8.2-4.46-20.51-4.46-36.91,0-4.64.06-11.62.18-20.95.12-9.33.18-16.38.18-21.13,0-3.09,2.08-4.64,6.24-4.64,6.06,0,15.19.18,27.37.53,12.19.36,21.31.53,27.37.53,2.73,0,4.1,1.84,4.1,5.53,0,3.33-.24,8.35-.71,15.07-.48,6.72-.71,11.8-.71,15.25,0,12.37.36,22.47,1.07,30.32.36,4.04,3.8,11.65,10.34,22.83,6.78,11.77,11.71,17.65,14.8,17.65s7.73-5.76,14.27-17.3c6.3-10.82,9.69-18.19,10.16-22.11.95-8.44,1.43-18.66,1.43-30.67,0-3.45-.36-8.65-1.07-15.6-.71-6.96-1.07-12.1-1.07-15.43,0-3.68,1.25-5.53,3.75-5.53,2.85,0,7.1.06,12.75.18,5.65.12,9.9.18,12.75.18s7.16-.24,12.93-.71c5.76-.47,10.08-.71,12.93-.71s4.93,1.55,5.89,4.64c2.02,6.78,3.03,20.57,3.03,41.37Z"/>
        <path class="cls-6" d="M1772.18,1017.66c0,12.01-3.87,18.84-11.59,20.51-1.31.24-13.61,1.55-36.91,3.92-14.03,1.55-34.95,3.39-62.77,5.53,1.66,7.73,6.71,13.61,15.16,17.65,6.89,3.33,14.74,4.99,23.54,4.99,10.58,0,21.22-2.85,31.92-8.56,4.52-2.85,9.03-5.71,13.55-8.56,2.5,1.19,6.69,7.25,12.57,18.19,5.89,10.94,8.83,17.89,8.83,20.86,0,.83-.89,2.2-2.67,4.1-14.51,15.58-37.03,23.36-67.59,23.36-28.3,0-51.12-8.26-68.48-24.79-17.83-16.76-26.75-39.17-26.75-67.23s7.96-49.75,23.9-67.23c16.41-18.07,38.16-27.11,65.27-27.11,22.83,0,42.2,8.32,58.14,24.97,15.93,16.65,23.9,36.44,23.9,59.38ZM1709.76,1006.78c0-7.37-2.62-13.85-7.85-19.44-5.23-5.59-11.47-8.38-18.72-8.38s-13.67,3.15-18.55,9.45c-4.52,5.83-6.78,12.66-6.78,20.51,0,3.21,1.66,4.82,4.99,4.82,8.8,0,22.47-1.37,41.02-4.1,3.92-.59,5.88-1.54,5.88-2.85Z"/>
        <g>
          <path class="cls-9" d="M932.65,1232.99v-71.85c0-1.08.65-1.72,1.72-1.72h9.04c1.08,0,1.72.65,1.72,1.72v62.17c0,.32.22.65.65.65h35.5c1.08,0,1.72.65,1.72,1.72v7.31c0,1.08-.65,1.72-1.72,1.72h-46.9c-1.08,0-1.72-.65-1.72-1.72Z"/>
          <path class="cls-9" d="M1020.1,1219.33c-1.18-3.44-1.83-7.96-1.83-12.26s.65-8.93,1.72-12.26c3.23-10,11.83-15.92,23.34-15.92s19.25,5.92,22.59,15.81c1.29,3.44,1.94,7.96,1.94,12.26s-.65,8.71-1.83,12.26c-3.23,10.22-11.72,16.35-22.8,16.35s-20.01-6.13-23.13-16.24ZM1054.09,1216.21c.86-2.47,1.18-5.81,1.18-9.04,0-3.55-.43-6.78-1.08-9.04-1.61-5.38-5.7-8.5-11.19-8.5s-9.47,3.12-11.08,8.5c-.65,2.26-1.08,5.49-1.08,9.04,0,3.33.43,6.78,1.08,9.04,1.61,5.38,5.7,8.61,11.29,8.61,5.27,0,9.25-3.23,10.86-8.61Z"/>
          <path class="cls-9" d="M1141.97,1179.74h9.04c1.08,0,1.72.65,1.72,1.72v49.59c0,21.94-17,26.35-34.1,24.74-1.08-.11-1.51-.75-1.51-1.94l.32-7.96c0-1.08.75-1.61,1.94-1.51,13.88,1.18,20.87-1.94,20.87-13.66v-.65c0-.54-.32-.75-.75-.32-2.69,2.8-6.56,4.63-12.37,4.63-8.39,0-17.64-3.98-20.87-14.41-1.08-3.87-1.4-8.39-1.4-13.02,0-5.06.32-9.79,1.72-13.66,2.8-8.5,10.11-14.41,19.79-14.41,5.92,0,10.11,1.83,13.12,4.84.43.43.75.22.75-.32v-1.94c0-1.08.65-1.72,1.72-1.72ZM1140.25,1206.85c0-5.7-.22-7.21-.86-9.36-1.08-4.52-4.63-7.85-10.22-7.85s-8.93,3.44-10.43,7.85c-.86,2.04-1.29,4.95-1.29,9.47s.43,7.74,1.08,9.36c1.4,4.41,5.16,7.85,10.76,7.85s9.14-3.44,10.22-7.74c.54-2.04.75-3.76.75-9.57Z"/>
          <path class="cls-9" d="M1192.84,1219.33c-1.18-3.44-1.83-7.96-1.83-12.26s.65-8.93,1.72-12.26c3.23-10,11.83-15.92,23.34-15.92s19.25,5.92,22.59,15.81c1.29,3.44,1.94,7.96,1.94,12.26s-.65,8.71-1.83,12.26c-3.23,10.22-11.72,16.35-22.8,16.35s-20.01-6.13-23.13-16.24ZM1226.84,1216.21c.86-2.47,1.18-5.81,1.18-9.04,0-3.55-.43-6.78-1.08-9.04-1.61-5.38-5.7-8.5-11.19-8.5s-9.47,3.12-11.08,8.5c-.65,2.26-1.08,5.49-1.08,9.04,0,3.33.43,6.78,1.08,9.04,1.61,5.38,5.7,8.61,11.29,8.61,5.27,0,9.25-3.23,10.86-8.61Z"/>
          <path class="cls-9" d="M1328.91,1232.99v-71.85c0-1.08.65-1.72,1.72-1.72h25.82c15.49,0,25.6,8.61,25.6,22.05v31.19c0,13.45-10.11,22.05-25.6,22.05h-25.82c-1.08,0-1.72-.65-1.72-1.72ZM1342.03,1223.95h14.95c7.53,0,12.48-5.16,12.59-13.23v-27.21c0-8.18-4.95-13.34-12.69-13.34h-14.84c-.43,0-.65.22-.65.65v52.49c0,.43.22.65.65.65Z"/>
          <path class="cls-9" d="M1457.45,1219.11c.65-.97,1.51-1.18,2.37-.54l5.16,4.09c.75.65,1.08,1.4.43,2.37-4.09,6.45-11.4,10.54-20.87,10.54-11.62,0-19.25-5.92-22.59-15.27-1.4-3.87-2.15-8.39-2.15-13.34s.22-8.17,1.18-11.4c2.69-10.11,11.19-16.67,22.7-16.67,14.41,0,21.41,8.39,23.56,22.05.43,2.69.65,5.7.75,8.82,0,1.08-.65,1.72-1.72,1.72h-33.35c-.43,0-.65.22-.65.65,0,1.94.22,3.55.65,4.73,1.51,5.06,6.13,8.17,12.8,8.17,5.38-.21,9.36-2.47,11.72-5.92ZM1433.25,1197.17c-.43,1.29-.75,2.69-.86,4.52-.11.43.11.65.54.65h21.62c.43,0,.65-.22.65-.65-.22-1.61-.32-2.9-.65-3.87-1.29-4.95-5.16-8.17-10.97-8.17s-9.04,3.01-10.33,7.53Z"/>
          <path class="cls-9" d="M1504.24,1220.08v-.54c0-1.08.65-1.72,1.72-1.72h8.61c1.08,0,1.72.32,1.72.75v.75c0,3.55,4.2,6.67,10.43,6.67,5.81,0,9.68-2.69,9.68-6.24,0-4.52-6.35-5.27-13.45-7.64-8.61-2.58-18.18-6.02-18.18-16.56s8.71-16.46,21.41-16.46,21.94,6.78,21.94,16.35c0,.75-.65,1.29-1.72,1.29h-8.28c-1.08,0-1.72-.22-1.72-.65v-.65c0-3.55-3.76-6.56-10.22-6.56-5.49,0-9.47,2.04-9.47,5.92,0,4.41,6.02,5.49,13.23,7.53,8.93,2.58,18.93,5.92,18.93,16.67s-8.82,16.35-22.05,16.35-22.59-6.56-22.59-15.27Z"/>
          <path class="cls-9" d="M1585.34,1165.01c0-4.52,3.33-7.74,8.07-7.74s7.96,3.23,7.96,7.74-3.23,7.85-7.96,7.85-8.07-3.23-8.07-7.85ZM1587.17,1232.99v-51.52c0-1.08.65-1.72,1.72-1.72h9.04c1.08,0,1.72.65,1.72,1.72v51.52c0,1.08-.65,1.72-1.72,1.72h-9.04c-1.08,0-1.72-.65-1.72-1.72Z"/>
          <path class="cls-9" d="M1676.02,1179.74h9.04c1.08,0,1.72.65,1.72,1.72v49.59c0,21.94-17,26.35-34.1,24.74-1.08-.11-1.51-.75-1.51-1.94l.32-7.96c0-1.08.75-1.61,1.94-1.51,13.88,1.18,20.87-1.94,20.87-13.66v-.65c0-.54-.32-.75-.75-.32-2.69,2.8-6.56,4.63-12.37,4.63-8.39,0-17.64-3.98-20.87-14.41-1.08-3.87-1.4-8.39-1.4-13.02,0-5.06.32-9.79,1.72-13.66,2.8-8.5,10.11-14.41,19.79-14.41,5.92,0,10.11,1.83,13.12,4.84.43.43.75.22.75-.32v-1.94c0-1.08.65-1.72,1.72-1.72ZM1674.3,1206.85c0-5.7-.22-7.21-.86-9.36-1.08-4.52-4.63-7.85-10.22-7.85s-8.93,3.44-10.43,7.85c-.86,2.04-1.29,4.95-1.29,9.47s.43,7.74,1.08,9.36c1.4,4.41,5.16,7.85,10.76,7.85s9.14-3.44,10.22-7.74c.54-2.04.75-3.76.75-9.57Z"/>
          <path class="cls-9" d="M1772.18,1198.14v34.85c0,1.08-.65,1.72-1.72,1.72h-9.04c-1.08,0-1.72-.65-1.72-1.72v-32.27c0-6.56-4.09-11.08-10.33-11.08s-10.33,4.41-10.33,10.97v32.38c0,1.08-.65,1.72-1.72,1.72h-9.04c-1.08,0-1.72-.65-1.72-1.72v-51.52c0-1.08.65-1.72,1.72-1.72h9.04c1.08,0,1.72.65,1.72,1.72v2.9c0,.54.32.75.65.32,3.12-3.98,7.53-5.81,13.23-5.81,11.62,0,19.25,7.31,19.25,19.25Z"/>
        </g>
        <g>
          <path class="cls-11" d="M1360.4,939.06s-.1.04-.15.07c-1.93.4-3.94.5-5.85.53-4.13.05-8.25-.2-12.31-.98-1.96-.37-4-.75-5.78-1.67-1.57-.82-2.93-1.97-4.14-3.25-1.22-1.29-2.29-2.71-3.32-4.15-1.13-1.59-2.24-3.19-3.21-4.89-.08-.13-.15-.27-.22-.4-5.96-13.3-8.66-28.83-5.63-43.26.7-3.34,1.71-6.62,3.07-9.8,5.17-12.11,12.99-22.87,18.48-34.82.95-2.06,1.82-4.16,2.6-6.29.28-.78,2.29-7.61,3.07-6.38.5.79-.39,1.63-.59,2.35-3.16,11.06,9.21,22.59,15.62,30.17,7.5,8.87,13.48,18.35,16.05,29.78,1.8,7.99,2.06,16.49.22,24.5-.21.93-.46,1.86-.74,2.79-1.37,5.39-3.63,10.59-6.09,15.56-.09.18-.18.36-.26.54-1.22,1.79-2.6,3.47-4.17,4.98-1.95,1.88-4.18,3.47-6.63,4.64Z"/>
          <path class="cls-13" d="M1347.37,840.78c2.72,6.92,8.01,12.43,12.5,18.22,4.5,5.81,8.46,12.07,11.14,18.94,2.4,6.14,3.75,12.69,4,19.28.25,6.55-.58,13.14-2.5,19.41-1.92,6.29-4.91,12.25-8.85,17.52-.5.67-1.05,1.3-1.59,1.93-.23.27-.82-.13-.6-.42,3.95-5.3,7.2-11.03,9.33-17.3,2.09-6.16,3.18-12.66,3.19-19.16.01-6.55-1.06-13.09-3.21-19.28-2.38-6.86-6.08-13.16-10.37-18.98-4.24-5.75-9.34-11.07-12.26-17.68-.36-.81-.68-1.64-.98-2.47-.05-.13.16-.1.2,0Z"/>
          <path class="cls-13" d="M1357.97,938.41c.29-.97.74-1.89,1.15-2.81.42-.93.81-1.86,1.19-2.81.74-1.87,1.43-3.75,2.04-5.66,1.24-3.85,2.24-7.77,3.07-11.73,1.61-7.71,2.46-15.59,1.99-23.47-.26-4.37-.87-8.81-2.16-13.01-.07-.21.26-.17.32,0,1.19,3.77,2.05,7.61,2.48,11.55.44,4.02.51,8.08.29,12.12-.21,3.92-.73,7.82-1.48,11.67-.78,3.99-1.7,7.97-2.91,11.86-.69,2.21-1.45,4.4-2.33,6.54-.42,1.03-.87,2.05-1.34,3.06-.49,1.05-.98,2.12-1.7,3.03-.19.24-.69-.06-.6-.34Z"/>
          <path class="cls-16" d="M1343.8,837.23c.18-.78.38-1.54.62-2.3.06-.19.37-.02.34.15-.59,3.28-1.05,6.57-1.22,9.91-.17,3.32-.14,6.65.07,9.97.42,6.61,1.45,13.16,2.67,19.67,1.29,6.9,2.81,13.75,4.31,20.61,1.49,6.86,2.91,13.76,3.84,20.73.46,3.4.86,6.87.71,10.3-.14,3.1-.77,6.13-1.83,9.05-.26.72-.57,1.42-.9,2.11-.14.3-.72-.08-.63-.36.95-3.02,1.9-6.01,2.24-9.17.36-3.35.05-6.74-.34-10.07-.82-7.02-2.22-13.99-3.71-20.9-1.47-6.84-3.03-13.66-4.34-20.53-1.24-6.51-2.36-13.06-2.88-19.67-.51-6.5-.43-13.12,1.04-19.5Z"/>
          <path class="cls-13" d="M1358.38,933.29c-1.01,2.25-2.43,4.31-3.8,6.36-.06,0-.12,0-.18,0-.47,0-.94,0-1.42,0,.79-1.44,1.56-2.87,2.15-4.42.69-1.81,1.22-3.67,1.63-5.56.84-3.82,1.22-7.72,1.51-11.62.67-9.21.02-18.47-1.61-27.55-.92-5.12-2.11-10.24-3.68-15.21-.08-.27.33-.21.39,0,1.49,4.48,2.82,9,3.8,13.62.97,4.6,1.66,9.26,2.05,13.95.38,4.66.45,9.36.19,14.03-.22,3.95-.57,7.92-1.31,11.81-.37,1.92-.84,3.82-1.47,5.67.15-.26.29-.52.42-.78,1.13-2.19,1.91-4.59,2.57-6.96,1.36-4.91,2.13-9.96,2.38-15.05.14-2.89.15-5.77-.01-8.66-.01-.23.35-.1.37.08.43,5.14.53,10.3-.1,15.43-.63,5.07-1.78,10.19-3.88,14.86Z"/>
          <path class="cls-16" d="M1332.23,865.02c.54-3.28,1.09-6.63,2.22-9.76,1.15-3.17,2.87-6.1,3.93-9.31.06-.18.36-.02.32.14-.82,2.9-2.06,5.64-3.13,8.45-1.05,2.75-1.59,5.64-2.08,8.53-1.04,6.16-1.79,12.36-1.97,18.61-.17,6.08.14,12.2.97,18.23.83,6.05,2.3,11.98,4.23,17.77,1.07,3.2,2.32,6.32,3.82,9.35,1.47,2.97,3.11,5.87,4.27,8.98.18.49-.56.33-.71.01-1.31-2.79-2.78-5.49-4.19-8.22-1.39-2.7-2.61-5.46-3.63-8.31-2.04-5.67-3.56-11.57-4.5-17.52-1.93-12.25-1.56-24.73.46-36.93Z"/>
          <path class="cls-16" d="M1349.92,939.57c-.23-.01-.47-.03-.7-.04-.08-1.14,0-2.29.05-3.43.04-1.14.05-2.28.05-3.42,0-2.27-.09-4.54-.25-6.81-.32-4.55-.93-9.07-1.73-13.56-1.6-9.07-3.95-17.98-6.13-26.92-.6-2.46-1.2-4.92-1.73-7.39-.54-2.51-1-5.04-1.52-7.55-.05-.25.31-.19.35,0,.95,4.52,2.24,8.98,3.38,13.45,1.14,4.45,2.29,8.9,3.38,13.37,2.18,8.92,4.08,17.95,4.87,27.12.22,2.58.36,5.16.38,7.75.01,1.26,0,2.53-.06,3.79-.05,1.21-.08,2.45-.34,3.64Z"/>
          <path class="cls-16" d="M1323.14,911.55c1.36,3.93,3.03,7.77,4.95,11.45,1.84,3.52,4.16,6.67,6.73,9.69.76.89,1.57,1.77,2.45,2.55-.08-.11-.16-.23-.24-.34-.87-1.31-1.83-2.56-2.7-3.87-1.94-2.96-3.48-6.2-4.86-9.46-1.4-3.32-2.54-6.73-3.49-10.21-.95-3.47-1.76-6.98-2.22-10.55-.26-2-.37-4.01-.36-6.03.01-2.02.27-4.01.56-6.01.03-.21.39-.02.36.16-.43,3.53-.23,7.17.19,10.69.42,3.49,1.17,6.93,2.07,10.33,1.78,6.67,4.17,13.27,7.67,19.25.92,1.57,2.01,3,3.01,4.51.84,1.26,1.61,2.76,2.9,3.64.35.24.18.82-.26.57-.31-.17-.59-.37-.85-.59-.07,0-.15,0-.24-.04-1.65-.77-2.95-2.1-4.14-3.45-1.26-1.43-2.46-2.92-3.6-4.45-2.53-3.39-4.45-7.17-6.02-11.08-.89-2.21-1.63-4.48-2.3-6.76-.07-.24.29-.18.35,0Z"/>
          <path class="cls-10" d="M1360.4,939.06s-.1.04-.15.07c-1.93.4-3.94.5-5.85.53-4.13.05-8.25-.2-12.31-.98-1.96-.37-4-.75-5.78-1.67-1.57-.82-2.93-1.97-4.14-3.25-1.22-1.29-2.29-2.71-3.32-4.15-1.13-1.59-2.24-3.19-3.21-4.89-.08-.13-.15-.27-.22-.4-5.96-13.3-8.66-28.83-5.63-43.26.7-3.34,1.71-6.62,3.07-9.8,5.17-12.11,12.99-22.87,18.48-34.82.95-2.06,1.82-4.16,2.6-6.29.24-.65,1.65-5.45,2.58-6.37-.49,2.12-.77,4.3-.98,6.46-.27,2.81-.5,5.63-.72,8.44-.54,6.85-.54,13.71.17,20.54.71,6.84,1.94,13.61,3.24,20.36.57,2.96,1.1,5.93,1.67,8.89.63,3.29,1.34,6.56,2.16,9.81.86,3.41,1.83,6.83,3.18,10.08.54,1.3,1.13,2.6,1.91,3.78.56.86,1.24,1.73,2.14,2.26,2.59,1.5,4.57-1.6,5.35-3.67.74-1.97,1.06-4.08,1.27-6.16.19-1.9.26-3.81.27-5.72.02-2.85-.16-5.67-.52-8.49-.28-2.19-.62-4.36-.94-6.54.5,1.48.94,2.98,1.34,4.5,1.29,4.98,2.07,10.08,2.21,15.23.07,2.68,0,5.37-.27,8.05-.14,1.34-.3,2.68-.54,4-.22,1.24-.46,2.49-.48,3.75,0,.32.34.49.61.35,1.89-1.02,3.08-3.03,3.93-4.93,1.87-4.15,2.8-8.85,3.09-13.37.32-5.02-.21-10.03-.72-15.02.33,1.21.62,2.43.85,3.66,1.74,9.02,1.23,18.69-1.66,27.42-.15.46.49.66.74.31,2.08-2.96,3.33-6.43,4.12-9.94.7-3.11,1.06-6.29,1.26-9.47.09-1.38.13-2.76.14-4.14.47,5.47.18,11.02-1.05,16.34-.21.93-.46,1.86-.74,2.79-1.37,5.39-3.63,10.59-6.09,15.56-.09.18-.18.36-.26.54-1.22,1.79-2.6,3.47-4.17,4.98-1.95,1.88-4.18,3.47-6.63,4.64Z"/>
          <path class="cls-21" d="M1367.03,934.41c1.56-1.51,2.94-3.19,4.17-4.98.09-.18.17-.36.26-.54,1.1-2.22,2.15-4.49,3.11-6.8-1.5,2.04-3.27,3.87-5.33,5.32-1.62,1.14-3.42,2.02-5.34,2.52-.24.06-.53-.12-.51-.39.12-1.84.43-3.64.81-5.43-.31.63-.65,1.25-1.05,1.85-1.09,1.62-2.9,3.35-4.96,3.51-1.86.14-3.26-1.29-4.19-2.74-1.11-1.74-1.81-3.72-2.46-5.66-.97-2.87-2.13-5.66-3.04-8.56-1.1-3.52-2.01-7.1-2.8-10.71-.78-3.56-1.5-7.15-2.02-10.76-1.08-7.58-1.13-15.26-1.96-22.87-.86,6.61-.5,13.35.12,19.97.36,3.82.74,7.64,1.27,11.44.54,3.9,1.24,7.77,1.97,11.64.77,4.12,2.42,8.02,2.65,12.24.02.34-.46.55-.69.29-2.31-2.69-4.1-5.78-5.62-8.97-1.63-3.42-2.97-6.97-4.15-10.56-2.59-7.86-4.66-15.9-5.02-24.2-.19-4.19.01-8.44.72-12.59.61-3.58,1.67-7.07,2.9-10.48,2.56-7.14,5.85-14,8.19-21.21.56-1.72,1.06-3.48,1.47-5.25,0-.09.02-.17.02-.26.21-2.16.49-4.34.98-6.46-.92.92-2.34,5.73-2.58,6.37-.78,2.13-1.66,4.23-2.6,6.29-5.49,11.95-13.3,22.71-18.48,34.82-1.36,3.18-2.37,6.46-3.07,9.8-3.02,14.43-.33,29.96,5.63,43.26.07.13.14.27.22.4.97,1.7,2.08,3.3,3.21,4.89,1.03,1.44,2.1,2.86,3.32,4.15,1.21,1.28,2.57,2.43,4.14,3.25,1.78.93,3.83,1.3,5.78,1.67,4.06.77,8.19,1.03,12.31.98,1.92-.03,3.93-.13,5.85-.53.05-.02.1-.04.15-.07,2.45-1.17,4.68-2.76,6.63-4.64ZM1337.34,921.14c.03.32-.36.49-.61.35-2.62-1.46-4.36-4.18-5.75-6.75-.73-1.35-1.38-2.73-2.03-4.12-.73-1.57-1.48-3.13-2.07-4.76-2.7-7.38-3-15.5-2.01-23.24.56-4.35,1.67-8.62,3.66-12.54.18-.36.76-.19.75.2-.11,5.57-.08,11.16.5,16.7.33,2.28.68,4.56,1.04,6.84.13.66.26,1.31.41,1.96.03.12,0,.22-.05.3.46,2.77.92,5.55,1.56,8.28.63,2.66,1.57,5.23,2.43,7.82.97,2.92,1.86,5.88,2.16,8.95Z"/>
          <path class="cls-20" d="M1345.78,858.87c-.43-2.04-.9-4.07-1.23-6.13-.04-.23-.06-.47-.1-.7-.17-1.89-.34-3.77-.51-5.66-.15-1.6-.26-3.22-.12-4.82.06-.67.18-1.35.42-1.98.14-.38.49-1.26.98-1.3.4-.03.77.53.96.8.12.18.23.36.34.55.14.25.29.5.43.75.08.16.17.31.25.46.81,1.53,1.77,2.97,2.76,4.39,2.28,3.27,4.8,6.36,7.53,9.26,1.95,2.21,3.95,4.38,5.8,6.66,3.13,3.87,5.94,8.07,8.39,12.4,1.77,3.12,3.3,6.39,4.48,9.78.59,1.69,1.12,3.45,1.32,5.23.14,1.26.15,2.84-.9,3.74-.13.11-.37.07-.51,0-2.24-1.06-3.22-3.93-3.99-6.09-.43-1.19-.8-2.41-1.23-3.6-.49-1.35-1.16-2.63-1.82-3.9-1.62-3.16-3.47-6.31-5.96-8.87-.45-.47-.92-.96-1.48-1.31-.26-.16-.53-.27-.74-.28-.49-.01-.91.46-1.21.92-.9,1.39-1.28,3.04-2.2,4.43-.99,1.51-2.66,2.2-4.34,1.31-1.12-.59-1.94-1.63-2.61-2.67-.72-1.14-1.3-2.37-1.82-3.61-.54-1.27-1.07-2.54-1.48-3.86-.61-1.94-1.01-3.94-1.43-5.93Z"/>
          <path class="cls-20" d="M1335.76,862.08c.36,1.8,1.16,3.87,2.8,4.88.6.37,1.33.56,2.01.29.8-.33,1.24-1.16,1.52-1.94.55-1.55.6-3.31.68-4.94.09-1.96.1-3.94-.15-5.88-.07-.56-.16-1.35-.4-2.06-.12-1.21-.38-2.52-1.11-3.47-.89-1.14-2.19-1.01-3.17-.08-1.65,1.58-2.28,3.91-2.51,6.12-.24,2.35-.12,4.76.34,7.08Z"/>
        </g>
      </g>
    </g>
  </g>
</svg>