<svg width="133" height="40" viewBox="0 0 133 40" fill="none" xmlns="http://www.w3.org/2000/svg">
<g clip-path="url(#clip0_195_334)">
<path d="M12.3896 0L22.7746 8.82887C23.3911 9.35302 23.7465 10.1222 23.7465 10.9323V17.5862L13.3616 8.75734C12.745 8.23319 12.3896 7.464 12.3896 6.65386V0Z" fill="black"/>
<path d="M12.3896 40.0003L22.7746 31.1714C23.3911 30.6473 23.7465 29.8781 23.7465 29.068V22.4141L13.3616 31.243C12.745 31.7671 12.3896 32.5363 12.3896 33.3464V40.0003Z" fill="black"/>
<path d="M0 9.3103L10.2437 17.9705C10.7403 18.3904 11.3693 18.6207 12.0191 18.6207H20.2802L10.0617 9.96249C9.56472 9.54137 8.93487 9.3103 8.28397 9.3103H0Z" fill="black"/>
<path d="M0 30.6893L10.1807 22.0341C10.6782 21.6111 11.3095 21.3789 11.9619 21.3789H20.3048L10.0611 30.039C9.56446 30.4589 8.93555 30.6893 8.28569 30.6893H0Z" fill="black"/>
<path d="M37.8559 0L27.4709 8.82887C26.8544 9.35302 26.499 10.1222 26.499 10.9323V17.5862L36.8839 8.75734C37.5005 8.23319 37.8559 7.464 37.8559 6.65386V0Z" fill="black"/>
<path d="M37.8559 40.0003L27.4709 31.1714C26.8544 30.6473 26.499 29.8781 26.499 29.068V22.4141L36.8839 31.243C37.5005 31.7671 37.8559 32.5363 37.8559 33.3464V40.0003Z" fill="black"/>
<path d="M50.246 9.31055L40.0023 17.9707C39.5057 18.3906 38.8767 18.6209 38.2269 18.6209H29.9658L40.1843 9.96274C40.6813 9.54162 41.3111 9.31055 41.962 9.31055H50.246Z" fill="black"/>
<path d="M50.2462 30.6893L40.0655 22.0341C39.568 21.6111 38.9367 21.3789 38.2843 21.3789H29.9414L40.1851 30.039C40.6817 30.4589 41.3106 30.6893 41.9605 30.6893H50.2462Z" fill="black"/>
<path fill-rule="evenodd" clip-rule="evenodd" d="M115.343 29.7904C116.693 30.5365 118.203 30.9096 119.874 30.9096C121.568 30.9096 123.11 30.5365 124.503 29.7904C125.917 29.023 127.031 27.9464 127.845 26.5607C128.659 25.1751 129.066 23.5869 129.066 21.7962C129.066 20.0055 128.67 18.4173 127.877 17.0317C127.085 15.646 126.002 14.5801 124.632 13.834C123.26 13.0879 121.728 12.7148 120.035 12.7148C118.343 12.7148 116.81 13.0879 115.439 13.834C114.068 14.5801 112.986 15.646 112.193 17.0317C111.4 18.4173 111.004 20.0055 111.004 21.7962C111.004 23.6082 111.39 25.2071 112.161 26.5927C112.932 27.9571 113.993 29.023 115.343 29.7904ZM122.51 27.0724C121.696 27.52 120.817 27.7439 119.874 27.7439C118.396 27.7439 117.164 27.2323 116.178 26.209C115.214 25.1644 114.732 23.6935 114.732 21.7962C114.732 20.5171 114.967 19.4406 115.439 18.5666C115.911 17.6712 116.543 16.9997 117.335 16.552C118.15 16.1044 119.028 15.8805 119.971 15.8805C120.913 15.8805 121.792 16.1044 122.607 16.552C123.421 16.9997 124.074 17.6712 124.567 18.5666C125.06 19.4406 125.306 20.5171 125.306 21.7962C125.306 23.0753 125.049 24.1625 124.535 25.0578C124.021 25.9532 123.345 26.6247 122.51 27.0724Z" fill="black"/>
<path fill-rule="evenodd" clip-rule="evenodd" d="M96.0463 29.8311C96.0215 29.8177 95.9966 29.8041 95.9718 29.7904C94.6219 29.023 93.5612 27.9571 92.7899 26.5927C92.0185 25.2071 91.6328 23.6082 91.6328 21.7962C91.6328 20.0055 92.0292 18.4173 92.822 17.0317C93.6148 15.646 94.6969 14.5801 96.0682 13.834C97.4396 13.0879 98.9716 12.7148 100.664 12.7148C102.357 12.7148 103.889 13.0879 105.261 13.834C106.632 14.5801 107.714 15.646 108.507 17.0317C109.3 18.4173 109.696 20.0055 109.696 21.7962C109.696 23.5869 109.289 25.1751 108.475 26.5607C107.661 27.9464 106.546 29.023 105.132 29.7904C103.934 30.432 102.626 30.7978 101.206 30.8876C102.946 31.6794 105.591 32.3187 107.077 32.6776C107.713 32.8313 108.136 32.9335 108.185 32.9744L108.187 32.9749V36.6228H94.8384V32.9749H102.531C100.574 32.5352 97.9162 31.0919 96.0463 29.8311ZM100.504 27.7439C101.446 27.7439 102.324 27.52 103.139 27.0724C103.975 26.6247 104.65 25.9532 105.164 25.0578C105.678 24.1625 105.935 23.0753 105.935 21.7962C105.935 20.5171 105.689 19.4406 105.197 18.5666C104.703 17.6712 104.05 16.9997 103.236 16.552C102.421 16.1044 101.543 15.8805 100.6 15.8805C99.6573 15.8805 98.7788 16.1044 97.9645 16.552C97.1717 16.9997 96.5396 17.6712 96.0682 18.5666C95.5968 19.4406 95.3611 20.5171 95.3611 21.7962C95.3611 23.6935 95.8432 25.1644 96.8074 26.209C97.7931 27.2323 99.0252 27.7439 100.504 27.7439Z" fill="black"/>
<path fill-rule="evenodd" clip-rule="evenodd" d="M76.6009 29.7904C77.9508 30.5365 79.4614 30.9096 81.1327 30.9096C82.8254 30.9096 84.3682 30.5365 85.761 29.7904C87.1751 29.023 88.2893 27.9464 89.1035 26.5607C89.9178 25.1751 90.3249 23.5869 90.3249 21.7962C90.3249 20.0055 89.9285 18.4173 89.1357 17.0317C88.3429 15.646 87.2608 14.5801 85.8895 13.834C84.5182 13.0879 82.9861 12.7148 81.2934 12.7148C79.6006 12.7148 78.0687 13.0879 76.6973 13.834C75.326 14.5801 74.244 15.646 73.4512 17.0317C72.6584 18.4173 72.262 20.0055 72.262 21.7962C72.262 23.6082 72.6476 25.2071 73.419 26.5927C74.1904 27.9571 75.251 29.023 76.6009 29.7904ZM83.7682 27.0724C82.954 27.52 82.0755 27.7439 81.1327 27.7439C79.6542 27.7439 78.4222 27.2323 77.4366 26.209C76.4724 25.1644 75.9903 23.6935 75.9903 21.7962C75.9903 20.5171 76.2259 19.4406 76.6973 18.5666C77.1688 17.6712 77.8008 16.9997 78.5936 16.552C79.4078 16.1044 80.2863 15.8805 81.2291 15.8805C82.1719 15.8805 83.0504 16.1044 83.8646 16.552C84.6789 16.9997 85.3324 17.6712 85.8252 18.5666C86.318 19.4406 86.5644 20.5171 86.5644 21.7962C86.5644 23.0753 86.3073 24.1625 85.793 25.0578C85.2788 25.9532 84.6039 26.6247 83.7682 27.0724Z" fill="black"/>
<path d="M63.9589 27.6802H71.5118V30.6221H60.2949V8.39819H63.9589V27.6802Z" fill="black"/>
</g>
<defs>
<clipPath id="clip0_195_334">
<rect width="133" height="40" fill="white"/>
</clipPath>
</defs>
</svg>
