<svg width="136" height="36" viewBox="0 0 136 36" fill="none" xmlns="http://www.w3.org/2000/svg">
<g clip-path="url(#clip0_195_307)">
<path fill-rule="evenodd" clip-rule="evenodd" d="M0.282227 3.96293L2.65981 2.93741C11.4985 -0.874969 21.5388 -0.874969 30.3774 2.93741L32.7551 3.96293V19.8102C32.7551 28.6956 25.4858 35.8988 16.5186 35.8988C7.5515 35.8988 0.282227 28.6956 0.282227 19.8102V3.96293ZM5.42643 7.31434V14.2494C5.97503 14.1178 6.51376 13.944 7.0376 13.729C8.36387 13.1847 9.56894 12.3868 10.584 11.3809C11.5991 10.3751 12.4043 9.18102 12.9537 7.86683C13.297 7.04552 13.5362 6.18731 13.6673 5.31191C10.8614 5.58108 8.08506 6.24858 5.42643 7.31434ZM5.42736 19.9552C5.97564 20.0868 6.51405 20.2605 7.0376 20.4754C8.36387 21.0198 9.56894 21.8176 10.584 22.8235C11.5991 23.8293 12.4043 25.0234 12.9537 26.3376C13.5008 27.6463 13.7835 29.0487 13.7858 30.4652C9.02654 29.2704 5.49356 25.027 5.42736 19.9552ZM16.3579 21.8398C15.7427 20.8961 15.0271 20.0173 14.2215 19.2191C13.416 18.4209 12.5291 17.7117 11.5768 17.1022C12.5291 16.4926 13.416 15.7835 14.2215 14.9853C15.0271 14.1871 15.7427 13.3083 16.3579 12.3646C16.973 13.3083 17.6887 14.1871 18.4942 14.9853C19.2998 15.7835 20.1866 16.4926 21.139 17.1022C20.1866 17.7117 19.2998 18.4209 18.4942 19.2191C17.6887 20.0173 16.973 20.8961 16.3579 21.8398ZM18.93 30.5409C23.8736 29.4549 27.5764 25.1004 27.6106 19.883C26.9509 20.0205 26.3039 20.2186 25.6782 20.4754C24.3519 21.0198 23.1468 21.8176 22.1317 22.8235C21.1167 23.8293 20.3115 25.0234 19.7621 26.3376C19.2127 27.6517 18.93 29.0603 18.93 30.4827V30.5409ZM25.6782 13.729C26.304 13.9859 26.9511 14.1839 27.6108 14.3215V7.31434C24.8493 6.20732 21.9609 5.53001 19.0441 5.28244C19.1742 6.16807 19.4149 7.03631 19.7621 7.86683C20.3115 9.18102 21.1167 10.3751 22.1317 11.3809C23.1468 12.3868 24.3519 13.1847 25.6782 13.729Z" fill="black"/>
<path fill-rule="evenodd" clip-rule="evenodd" d="M71.3846 32.737C70.6129 32.737 69.9185 32.5535 69.3012 32.1865C68.6839 31.8092 68.1952 31.2994 67.8351 30.6572C67.4853 30.0047 67.3104 29.2707 67.3104 28.4551C67.3104 27.6293 67.4853 26.8953 67.8351 26.253C68.1952 25.6108 68.6787 25.1061 69.2857 24.7391C69.903 24.3619 70.6027 24.1733 71.3846 24.1733C72.0945 24.1733 72.7272 24.3263 73.2828 24.6321C73.7377 24.8825 74.1133 25.2046 74.4094 25.5984V20.9773H75.5668V32.5535H74.4094V31.2177C74.1322 31.6519 73.7618 32.0004 73.2982 32.2629C72.7324 32.579 72.0945 32.737 71.3846 32.737ZM71.4463 31.59C72.0019 31.59 72.5009 31.4523 72.9433 31.1771C73.396 30.9018 73.7509 30.5297 74.0081 30.0608C74.2756 29.5816 74.4094 29.0464 74.4094 28.4551C74.4094 27.8638 74.2756 27.3337 74.0081 26.8647C73.7509 26.3856 73.396 26.0084 72.9433 25.7331C72.5009 25.4579 72.0019 25.3202 71.4463 25.3202C70.901 25.3202 70.4072 25.4579 69.9648 25.7331C69.5224 26.0084 69.1726 26.3805 68.9154 26.8494C68.6684 27.3184 68.545 27.8536 68.545 28.4551C68.545 29.0464 68.6684 29.5816 68.9154 30.0608C69.1726 30.5297 69.5172 30.9018 69.9493 31.1771C70.3917 31.4523 70.8907 31.59 71.4463 31.59Z" fill="#96989C"/>
<path fill-rule="evenodd" clip-rule="evenodd" d="M79.1469 32.187C79.7745 32.554 80.4741 32.7375 81.2457 32.7375C81.8116 32.7375 82.326 32.6457 82.789 32.4622C83.2622 32.2685 83.6686 32.0188 84.0081 31.7128C84.3477 31.3968 84.5997 31.0552 84.7643 30.6882L83.7767 30.1683C83.5194 30.5965 83.1851 30.9533 82.7735 31.2387C82.362 31.5242 81.8527 31.6669 81.2457 31.6669C80.721 31.6669 80.2272 31.5344 79.7642 31.2693C79.3115 31.0043 78.9514 30.6322 78.6839 30.153C78.4762 29.7577 78.3691 29.3091 78.3627 28.8073H84.8724C84.8929 28.6748 84.9084 28.5474 84.9187 28.425C84.929 28.2925 84.9341 28.1752 84.9341 28.0733C84.9341 27.584 84.8467 27.1099 84.6717 26.6511C84.4968 26.1822 84.2448 25.7642 83.9155 25.3972C83.5863 25.02 83.1851 24.7243 82.7118 24.5103C82.2488 24.286 81.719 24.1738 81.1222 24.1738C80.3712 24.1738 79.6922 24.3573 79.0851 24.7243C78.4884 25.0913 78.0151 25.596 77.6653 26.2383C77.3155 26.8703 77.1406 27.5992 77.1406 28.425C77.1406 29.2508 77.3207 29.9899 77.6808 30.6424C78.0409 31.2948 78.5296 31.8097 79.1469 32.187ZM78.381 27.7369C78.4193 27.3753 78.5151 27.0491 78.6685 26.7582C78.9154 26.279 79.2549 25.9069 79.687 25.6419C80.1294 25.3768 80.6078 25.2443 81.1222 25.2443C81.6367 25.2443 82.0996 25.3768 82.5112 25.6419C82.9227 25.8967 83.2365 26.2484 83.4526 26.697C83.6153 27.0121 83.6953 27.3587 83.6934 27.7369H78.381Z" fill="#96989C"/>
<path d="M86.5117 24.3573H87.6692V25.3558C87.8801 25.0332 88.1527 24.7717 88.4871 24.5714C88.9398 24.3064 89.4336 24.1738 89.9686 24.1738C90.6065 24.1738 91.1827 24.3522 91.6971 24.709C92.0948 24.9849 92.4034 25.3246 92.6227 25.7284C92.8346 25.2843 93.1381 24.9344 93.5336 24.6785C94.048 24.342 94.6138 24.1738 95.2311 24.1738C95.7867 24.1738 96.296 24.3064 96.759 24.5714C97.2323 24.8365 97.6078 25.2035 97.8856 25.6724C98.1736 26.1312 98.3177 26.6511 98.3177 27.2322V32.554H97.1602V27.6757C97.1602 27.1762 97.0676 26.7531 96.8824 26.4065C96.7075 26.0598 96.4658 25.7948 96.1571 25.6113C95.8485 25.4176 95.4935 25.3207 95.0923 25.3207C94.7013 25.3207 94.3463 25.4176 94.0274 25.6113C93.7085 25.7948 93.4564 26.0649 93.2712 26.4218C93.086 26.7684 92.9934 27.1864 92.9934 27.6757V32.554H91.836V27.6757C91.836 27.1762 91.7434 26.7531 91.5582 26.4065C91.3833 26.0598 91.1415 25.7948 90.8329 25.6113C90.5242 25.4176 90.1692 25.3207 89.768 25.3207C89.3668 25.3207 89.0067 25.4176 88.6877 25.6113C88.3791 25.7948 88.1321 26.0649 87.9469 26.4218C87.7618 26.7684 87.6692 27.1864 87.6692 27.6757V32.554H86.5117V24.3573Z" fill="#96989C"/>
<path d="M100.084 35.9183C99.9192 35.9183 99.7494 35.903 99.5745 35.8725C99.4099 35.8521 99.2453 35.8113 99.0807 35.7501V34.6797C99.1836 34.6899 99.3122 34.7052 99.4665 34.7255C99.6311 34.7561 99.7957 34.7714 99.9604 34.7714C100.464 34.7714 100.85 34.6644 101.118 34.4503C101.385 34.2464 101.648 33.8488 101.905 33.2575L102.204 32.5601L98.8955 24.3574H100.146L102.854 31.1234L105.547 24.3574H106.828L103.047 33.5939C102.882 33.9915 102.671 34.3687 102.414 34.7255C102.167 35.0824 101.853 35.3678 101.473 35.5819C101.092 35.8062 100.629 35.9183 100.084 35.9183Z" fill="#96989C"/>
<path fill-rule="evenodd" clip-rule="evenodd" d="M60.2693 32.4469C60.6808 32.6406 61.1489 32.7375 61.674 32.7375C62.1575 32.7375 62.5999 32.6661 63.0008 32.5234C63.4124 32.3705 63.7673 32.1717 64.0657 31.927C64.2724 31.7563 64.4422 31.5742 64.575 31.3807V32.554H65.7327V26.9264C65.7327 26.3861 65.599 25.912 65.3312 25.5042C65.074 25.0863 64.7087 24.76 64.2358 24.5255C63.7725 24.2911 63.2378 24.1738 62.6305 24.1738C62.1678 24.1738 61.7199 24.2605 61.2878 24.4338C60.8557 24.5969 60.4699 24.8212 60.1304 25.1066C59.8015 25.3921 59.5594 25.7081 59.405 26.0547L60.4548 26.6206C60.6397 26.223 60.9226 25.9018 61.3036 25.6572C61.6839 25.4023 62.1263 25.2749 62.6305 25.2749C63.2066 25.2749 63.6751 25.4278 64.0352 25.7336C64.3949 26.0395 64.575 26.437 64.575 26.9264V27.3495L61.581 27.8439C60.974 27.9459 60.475 28.1192 60.0844 28.3638C59.6931 28.6085 59.405 28.9093 59.2199 29.2661C59.035 29.6127 58.9424 30.0001 58.9424 30.4283C58.9424 30.8768 59.0604 31.2744 59.297 31.621C59.534 31.9678 59.8577 32.2431 60.2693 32.4469ZM64.575 28.3893V29.0061C64.575 29.5057 64.457 29.9593 64.22 30.3671C63.9834 30.7749 63.6542 31.1011 63.2327 31.3458C62.8108 31.5803 62.317 31.6975 61.7508 31.6975C61.2878 31.6975 60.9071 31.5701 60.6088 31.3152C60.321 31.0603 60.177 30.7494 60.177 30.3824C60.177 30.0052 60.3056 29.679 60.5625 29.4037C60.83 29.1284 61.2621 28.9398 61.8588 28.8379L64.575 28.3893Z" fill="#96989C"/>
<path d="M54.4225 32.7375C53.6097 32.7375 52.8947 32.5489 52.2774 32.1717C51.6601 31.7944 51.1765 31.2846 50.8267 30.6424C50.4769 29.9899 50.302 29.2559 50.302 28.4403C50.302 27.6247 50.4769 26.8958 50.8267 26.2535C51.1765 25.6113 51.6601 25.1066 52.2774 24.7396C52.8947 24.3624 53.6097 24.1738 54.4225 24.1738C54.9369 24.1738 55.4205 24.2656 55.8732 24.4491C56.3259 24.6326 56.7271 24.8824 57.0769 25.1984C57.4267 25.5042 57.6891 25.861 57.864 26.2688L56.8146 26.8041C56.6088 26.3657 56.295 26.0089 55.8732 25.7336C55.4514 25.4584 54.9678 25.3207 54.4225 25.3207C53.8772 25.3207 53.3834 25.4584 52.941 25.7336C52.5089 25.9987 52.1642 26.3708 51.907 26.8499C51.6601 27.3189 51.5366 27.8541 51.5366 28.4556C51.5366 29.0469 51.6601 29.5821 51.907 30.0613C52.1642 30.5302 52.5089 30.9023 52.941 31.1776C53.3834 31.4528 53.8772 31.5905 54.4225 31.5905C54.9678 31.5905 55.4462 31.4528 55.8577 31.1776C56.2796 30.9023 56.5985 30.5353 56.8146 30.0766L57.864 30.6424C57.6891 31.04 57.4267 31.3968 57.0769 31.7128C56.7271 32.029 56.3259 32.2787 55.8732 32.4622C55.4205 32.6457 54.9369 32.7375 54.4225 32.7375Z" fill="#96989C"/>
<path fill-rule="evenodd" clip-rule="evenodd" d="M44.518 21.1611L40.3203 32.5538H41.6167L42.6198 29.7706H47.7588L48.7465 32.5538H50.0429L45.8452 21.1611H44.518ZM47.3267 28.6236H43.021L45.1809 22.5971L47.3267 28.6236Z" fill="#96989C"/>
<path d="M41.3662 2.70703V16.3051H50.0239V13.841H44.2212V2.70703H41.3662Z" fill="black"/>
<path d="M84.9678 16.3057H87.7309V6.33984H84.9678V16.3057Z" fill="black"/>
<path d="M84.9678 2.70703V5.44492H87.7309V2.70703H84.9678Z" fill="black"/>
<path fill-rule="evenodd" clip-rule="evenodd" d="M89.2002 19.9564V6.34012H91.7791V7.37399C92.0771 7.02654 92.4452 6.74883 92.8841 6.54089C93.4612 6.26102 94.1184 6.12109 94.8553 6.12109C95.8131 6.12109 96.6786 6.35229 97.4525 6.81468C98.226 7.27708 98.8401 7.90373 99.2944 8.69468C99.7487 9.47346 99.976 10.3496 99.976 11.323C99.976 12.2843 99.7487 13.1604 99.2944 13.9514C98.8523 14.7423 98.2444 15.369 97.4708 15.8314C96.6972 16.2938 95.8192 16.525 94.8366 16.525C94.1489 16.525 93.5104 16.4033 92.9211 16.1599C92.5581 15.9992 92.2388 15.7928 91.9633 15.5406V19.9564H89.2002ZM94.5052 14.0609C95.0209 14.0609 95.4752 13.9453 95.8684 13.7141C96.2613 13.4829 96.5683 13.1604 96.7892 12.7467C97.0104 12.333 97.1207 11.8584 97.1207 11.323C97.1207 10.7876 97.0104 10.3191 96.7892 9.9176C96.5683 9.50388 96.2613 9.18141 95.8684 8.95022C95.4752 8.70685 95.0209 8.58515 94.5052 8.58515C94.0139 8.58515 93.5718 8.70076 93.1789 8.93196C92.7982 9.16316 92.4973 9.4856 92.2764 9.89934C92.0675 10.3131 91.9633 10.7876 91.9633 11.323C91.9633 11.8584 92.0675 12.333 92.2764 12.7467C92.4973 13.1604 92.7982 13.4829 93.1789 13.7141C93.5718 13.9453 94.0139 14.0609 94.5052 14.0609Z" fill="black"/>
<path d="M102.091 15.7584C102.914 16.2694 103.878 16.525 104.983 16.525C105.769 16.525 106.451 16.3972 107.028 16.1417C107.605 15.874 108.053 15.5089 108.373 15.0465C108.704 14.5841 108.87 14.0427 108.87 13.4221C108.87 12.7041 108.649 12.1018 108.207 11.6151C107.765 11.1162 107.126 10.745 106.291 10.5017L104.688 10.0271C104.443 9.95411 104.234 9.875 104.062 9.78981C103.903 9.70465 103.786 9.6073 103.712 9.4978C103.639 9.38827 103.602 9.26657 103.602 9.13273C103.602 8.8772 103.7 8.67642 103.897 8.53042C104.105 8.38438 104.388 8.31139 104.744 8.31139C105.235 8.31139 105.671 8.43914 106.052 8.69468C106.445 8.93805 106.715 9.26657 106.862 9.68032L108.907 8.73119C108.6 7.90373 108.072 7.26491 107.323 6.81468C106.586 6.35229 105.726 6.12109 104.744 6.12109C103.995 6.12109 103.332 6.25493 102.754 6.52264C102.177 6.77817 101.729 7.13712 101.41 7.59951C101.09 8.06194 100.931 8.60341 100.931 9.22401C100.931 9.92977 101.152 10.5443 101.594 11.0675C102.036 11.5786 102.668 11.9497 103.491 12.1809L105.204 12.6554C105.425 12.7163 105.61 12.7893 105.757 12.8745C105.904 12.9597 106.015 13.057 106.088 13.1665C106.162 13.2639 106.199 13.3855 106.199 13.5316C106.199 13.8115 106.094 14.0305 105.886 14.1887C105.677 14.3468 105.376 14.4259 104.983 14.4259C104.443 14.4259 103.952 14.2739 103.51 13.9696C103.067 13.6654 102.718 13.2456 102.46 12.7102L100.434 13.6593C100.728 14.5355 101.281 15.2351 102.091 15.7584Z" fill="black"/>
<path d="M120.443 6.34012H123.022V7.54399C123.211 7.17975 123.475 6.88796 123.814 6.66864C124.379 6.30361 125.054 6.12109 125.841 6.12109C126.676 6.12109 127.406 6.33404 128.033 6.75992C128.405 7.00125 128.696 7.29227 128.906 7.633C129.172 7.24745 129.489 6.93817 129.856 6.70515C130.47 6.31578 131.189 6.12109 132.011 6.12109C132.736 6.12109 133.375 6.27927 133.927 6.59566C134.492 6.91201 134.934 7.35615 135.253 7.92807C135.572 8.48782 135.732 9.1449 135.732 9.89934V16.3059H132.969V10.4834C132.969 10.094 132.896 9.75942 132.748 9.47954C132.613 9.19967 132.417 8.98064 132.159 8.82243C131.901 8.66426 131.588 8.58515 131.219 8.58515C130.863 8.58515 130.55 8.66426 130.28 8.82243C130.022 8.98064 129.819 9.19967 129.672 9.47954C129.537 9.75942 129.47 10.094 129.47 10.4834V16.3059H126.706V10.4834C126.706 10.094 126.633 9.75942 126.485 9.47954C126.35 9.19967 126.154 8.98064 125.896 8.82243C125.638 8.66426 125.325 8.58515 124.956 8.58515C124.6 8.58515 124.287 8.66426 124.017 8.82243C123.759 8.98064 123.557 9.19967 123.409 9.47954C123.274 9.75942 123.206 10.094 123.206 10.4834V16.3059H120.443V6.34012Z" fill="black"/>
<path d="M113.579 16.5247C112.769 16.5247 112.075 16.3543 111.498 16.0136C110.933 15.6608 110.503 15.174 110.209 14.5534C109.914 13.9328 109.767 13.2088 109.767 12.3814V6.33984H112.53V12.1624C112.53 12.5396 112.603 12.8742 112.751 13.1662C112.91 13.4461 113.131 13.6651 113.414 13.8234C113.696 13.9815 114.015 14.0606 114.372 14.0606C114.74 14.0606 115.059 13.9815 115.329 13.8234C115.612 13.6651 115.827 13.4461 115.974 13.1662C116.134 12.8742 116.214 12.5396 116.214 12.1624V6.33984H118.977V16.3057H116.398V15.0929C116.163 15.5305 115.832 15.8678 115.403 16.1049C114.887 16.3848 114.279 16.5247 113.579 16.5247Z" fill="black"/>
<path fill-rule="evenodd" clip-rule="evenodd" d="M78.5135 16.525C77.5187 16.525 76.6098 16.2999 75.787 15.8496C74.9765 15.3994 74.3257 14.7849 73.8345 14.0061C73.3557 13.2152 73.1162 12.3208 73.1162 11.323C73.1162 10.3131 73.3557 9.41869 73.8345 8.63991C74.3257 7.86114 74.9765 7.24665 75.787 6.79643C76.6098 6.34621 77.5187 6.12109 78.5135 6.12109C79.5079 6.12109 80.4107 6.34621 81.2212 6.79643C82.0314 7.24665 82.6764 7.86114 83.1551 8.63991C83.6464 9.41869 83.892 10.3131 83.892 11.323C83.892 12.3208 83.6464 13.2152 83.1551 14.0061C82.6764 14.7849 82.0314 15.3994 81.2212 15.8496C80.4107 16.2999 79.5079 16.525 78.5135 16.525ZM78.5135 14.0609C79.0169 14.0609 79.4529 13.9453 79.821 13.7141C80.2017 13.4829 80.4965 13.1604 80.7052 12.7467C80.9264 12.333 81.037 11.8584 81.037 11.323C81.037 10.7876 80.9264 10.3191 80.7052 9.9176C80.4965 9.50388 80.2017 9.18141 79.821 8.95022C79.4529 8.70685 79.0169 8.58515 78.5135 8.58515C78.01 8.58515 77.5679 8.70685 77.1872 8.95022C76.8062 9.18141 76.5056 9.50388 76.2844 9.9176C76.0757 10.3191 75.9712 10.7876 75.9712 11.323C75.9712 11.8584 76.0757 12.333 76.2844 12.7467C76.5056 13.1604 76.8062 13.4829 77.1872 13.7141C77.5679 13.9453 78.01 14.0609 78.5135 14.0609Z" fill="black"/>
<path fill-rule="evenodd" clip-rule="evenodd" d="M64.9114 19.9382C65.5744 20.1937 66.293 20.3215 67.0665 20.3215C68.0366 20.3215 68.8902 20.1268 69.6271 19.7374C70.3762 19.348 70.9655 18.8065 71.3954 18.1129C71.8249 17.4315 72.04 16.6528 72.04 15.7766V6.34012H69.4612V7.38683C69.1577 7.03406 68.814 6.75813 68.4298 6.55915C67.8893 6.2671 67.2569 6.12109 66.5322 6.12109C65.6114 6.12109 64.7886 6.32795 64.0639 6.74166C63.3396 7.15538 62.7686 7.7273 62.3509 8.4574C61.9333 9.17533 61.7246 10.0028 61.7246 10.9397C61.7246 11.8767 61.9333 12.7163 62.3509 13.4586C62.7686 14.1887 63.3457 14.7666 64.0826 15.1926C64.8192 15.6063 65.6541 15.8131 66.5875 15.8131C67.3122 15.8131 67.9446 15.6793 68.4847 15.4116C68.7776 15.2599 69.0419 15.0671 69.277 14.8331V15.7766C69.277 16.2025 69.185 16.5736 69.0008 16.89C68.8288 17.2064 68.577 17.4437 68.2455 17.6019C67.9137 17.7722 67.5208 17.8574 67.0665 17.8574C66.4894 17.8574 65.9921 17.7235 65.5744 17.4558C65.1571 17.1881 64.8806 16.8231 64.7455 16.3607L62.185 17.2551C62.394 17.8757 62.7316 18.411 63.1984 18.8613C63.6772 19.3237 64.2482 19.6826 64.9114 19.9382ZM68.1902 13.0388C67.8462 13.2335 67.4411 13.3308 66.9743 13.3308C66.5078 13.3308 66.0901 13.2335 65.722 13.0388C65.3657 12.8319 65.0831 12.552 64.8745 12.1991C64.678 11.8463 64.5796 11.4386 64.5796 10.9762C64.5796 10.5017 64.678 10.0879 64.8745 9.73508C65.0831 9.37001 65.3657 9.09014 65.722 8.89545C66.0901 8.68859 66.5078 8.58515 66.9743 8.58515C67.4289 8.58515 67.8279 8.68859 68.1716 8.89545C68.5156 9.09014 68.7857 9.37001 68.9821 9.73508C69.1789 10.0879 69.277 10.5017 69.277 10.9762C69.277 11.4508 69.1789 11.8645 68.9821 12.2174C68.7979 12.5703 68.5339 12.8441 68.1902 13.0388Z" fill="black"/>
<path fill-rule="evenodd" clip-rule="evenodd" d="M55.676 16.525C54.6812 16.525 53.7726 16.2999 52.9499 15.8496C52.1393 15.3994 51.4886 14.7849 50.9973 14.0061C50.5183 13.2152 50.2791 12.3208 50.2791 11.323C50.2791 10.3131 50.5183 9.41869 50.9973 8.63991C51.4886 7.86114 52.1393 7.24665 52.9499 6.79643C53.7726 6.34621 54.6812 6.12109 55.676 6.12109C56.6707 6.12109 57.5732 6.34621 58.3838 6.79643C59.1943 7.24665 59.8389 7.86114 60.318 8.63991C60.8092 9.41869 61.0549 10.3131 61.0549 11.323C61.0549 12.3208 60.8092 13.2152 60.318 14.0061C59.8389 14.7849 59.1943 15.3994 58.3838 15.8496C57.5732 16.2999 56.6707 16.525 55.676 16.525ZM55.676 14.0609C56.1795 14.0609 56.6154 13.9453 56.9839 13.7141C57.3646 13.4829 57.6594 13.1604 57.868 12.7467C58.0892 12.333 58.1995 11.8584 58.1995 11.323C58.1995 10.7876 58.0892 10.3191 57.868 9.9176C57.6594 9.50388 57.3646 9.18141 56.9839 8.95022C56.6154 8.70685 56.1795 8.58515 55.676 8.58515C55.1725 8.58515 54.7304 8.70685 54.3497 8.95022C53.9691 9.18141 53.6681 9.50388 53.4472 9.9176C53.2386 10.3191 53.1341 10.7876 53.1341 11.323C53.1341 11.8584 53.2386 12.333 53.4472 12.7467C53.6681 13.1604 53.9691 13.4829 54.3497 13.7141C54.7304 13.9453 55.1725 14.0609 55.676 14.0609Z" fill="black"/>
</g>
<defs>
<clipPath id="clip0_195_307">
<rect width="136" height="36" fill="white"/>
</clipPath>
</defs>
</svg>
