<svg width="74" height="47" viewBox="0 0 74 47" fill="none" xmlns="http://www.w3.org/2000/svg">
<g clip-path="url(#clip0_195_285)">
<path d="M69.2711 5.77763C69.2711 5.83243 69.2711 5.90093 69.2572 5.94204C69.1879 6.47635 69.1879 7.01067 69.2294 7.55869C69.2572 7.69569 69.2849 7.8327 69.3959 7.9423C69.5762 8.1478 69.8535 8.10671 69.9645 7.8601C70.02 7.7368 70.02 7.61349 69.9922 7.49019C69.8535 6.96956 69.8258 6.42155 69.8119 5.88723C69.8119 5.85983 69.8119 5.81873 69.8119 5.77763C69.9645 5.76393 70.1032 5.75022 70.2279 5.75022C70.3251 5.73653 70.4082 5.72282 70.4776 5.68172C70.6855 5.57213 70.6855 5.33922 70.4636 5.22961C70.3804 5.18851 70.2696 5.1748 70.1725 5.1748C69.8258 5.18851 69.4791 5.18851 69.1324 5.18851C69.0076 5.18851 68.8828 5.20221 68.7579 5.21591C68.6886 5.22961 68.6054 5.22961 68.55 5.27072C68.4529 5.31181 68.3975 5.38031 68.3975 5.47621C68.4113 5.57213 68.4529 5.62692 68.55 5.66803C68.6054 5.70913 68.6747 5.72282 68.7441 5.72282C68.9105 5.73653 69.0908 5.76393 69.2711 5.77763ZM73.0846 6.40785C73.0846 6.42155 73.0985 6.43525 73.0985 6.43525C73.154 6.80516 73.2095 7.16138 73.251 7.51758C73.265 7.64088 73.2788 7.75049 73.362 7.84639C73.5423 8.0793 73.8197 8.0519 73.9444 7.8053C73.9999 7.68199 74.0137 7.55869 73.986 7.42168C73.9028 7.01067 73.8612 6.59965 73.778 6.20234C73.7225 5.95573 73.6533 5.72282 73.5839 5.50362C73.5423 5.36662 73.4452 5.27071 73.2788 5.25701C73.1124 5.22961 72.9876 5.31181 72.9182 5.43512C72.835 5.54472 72.7657 5.65432 72.7102 5.77763C72.6131 5.99683 72.5299 6.21605 72.419 6.42155C72.4051 6.47635 72.3912 6.51746 72.3635 6.55855C72.3497 6.53115 72.3358 6.51746 72.3358 6.51746C72.1555 6.17494 71.9891 5.83243 71.8089 5.50362C71.7811 5.47621 71.7672 5.44881 71.7534 5.42142C71.6702 5.29812 71.5731 5.22961 71.4206 5.22961C71.2819 5.24331 71.1709 5.32551 71.1016 5.44881C71.0738 5.50362 71.0738 5.54472 71.06 5.59952C71.0045 6.03794 70.9351 6.47635 70.8797 6.91477C70.8519 7.16138 70.8381 7.40798 70.8381 7.65459C70.8242 7.70939 70.8381 7.77789 70.8658 7.8327C70.8936 7.94229 70.9768 8.01081 71.0877 8.0245C71.2264 8.0382 71.3234 7.9971 71.3651 7.8875C71.4066 7.8053 71.4206 7.7368 71.4344 7.66829C71.4899 7.42168 71.5315 7.18878 71.5731 6.95587C71.6008 6.81886 71.6147 6.70926 71.6563 6.55855C71.684 6.61336 71.7117 6.65446 71.7395 6.69555C71.8643 6.85997 71.9891 7.02437 72.1417 7.16138C72.2942 7.27097 72.419 7.25728 72.5438 7.13397C72.5716 7.10657 72.5854 7.09287 72.6131 7.06547C72.738 6.87366 72.8905 6.68186 73.0153 6.49005C73.0431 6.46265 73.0569 6.43525 73.0846 6.40785Z" fill="black"/>
<path d="M41.1323 6.0469C41.0359 6.30727 41.0175 6.49485 41.0621 6.65076C41.1112 6.86277 41.2388 6.93218 41.412 6.87826C43.0408 6.48033 46.6126 7.60983 47.935 7.92463C48.2468 7.99073 48.5005 7.59299 48.2877 7.23639C47.9771 6.89105 44.407 5.4125 43.0447 5.33189C42.5108 5.30207 41.5562 5.1668 41.1323 6.0469Z" fill="black"/>
<path d="M55.0915 1.26004C55.2651 1.35903 55.3621 1.45346 55.41 1.55896C55.4814 1.69735 55.4437 1.79311 55.3238 1.84196C54.2471 2.36112 52.8144 4.5962 52.236 5.36705C52.0959 5.54438 51.7725 5.44133 51.7236 5.14972C51.7337 4.81999 53.0037 2.39444 53.7125 1.7338C53.9911 1.47587 54.4513 0.96977 55.0915 1.26004Z" fill="black"/>
<path d="M46.5167 0.160009C46.7253 0.00472017 46.942 -0.0496978 47.0527 0.0512206C48.6772 1.42378 49.5387 3.59735 50.0721 5.5872C50.0922 5.63356 50.0935 5.70009 50.0774 5.76948C50.0707 5.8288 50.0269 5.89146 49.9572 5.93995C49.8828 5.99347 49.8187 6.00977 49.7886 5.96365C49.0766 5.00691 45.0101 1.2844 46.5167 0.160009Z" fill="black"/>
<path d="M12.1159 23.9571C12.5053 23.6707 12.9285 23.4323 13.3765 23.2473C13.8451 23.115 14.3446 23.1369 14.7995 23.3099C15.2543 23.483 15.6398 23.7975 15.8975 24.2062C16.1281 24.6138 16.2183 25.0845 16.1546 25.5472C16.091 26.0098 15.8769 26.4396 15.5445 26.7717C15.2869 27.0409 14.9944 27.2753 14.6748 27.4691C13.2504 28.3782 11.8134 29.2375 10.3764 30.1466C10.0823 30.3741 9.77038 30.5782 9.44354 30.7568C8.9464 31.0018 8.37825 31.0674 7.83732 30.9423C7.2964 30.8173 6.81673 30.5093 6.48126 30.0719C6.23047 29.7622 6.01882 29.4234 5.85098 29.0631C4.48959 26.2362 3.07779 23.4216 1.76681 20.5448C1.16175 19.2995 0.670137 17.8673 0.191129 16.485C-0.0161115 16.0833 -0.0565809 15.6177 0.0783382 15.187C0.213257 14.7563 0.51292 14.3946 0.913584 14.1789C1.31425 13.9631 1.7843 13.9103 2.22377 14.0317C2.66325 14.153 3.03748 14.439 3.26686 14.8286C3.97192 15.7543 4.59605 16.7376 5.13247 17.7678C6.49386 20.2584 7.79223 22.7491 9.10319 25.1651C9.17953 25.2986 9.2637 25.4275 9.3553 25.5512C10.342 25.1413 11.2701 24.6054 12.1159 23.9571Z" fill="black"/>
<path d="M26.1914 23.0875C23.0779 26.6866 17.8592 25.7774 15.2373 21.1447C13.3717 17.857 13.044 12.4272 17.103 9.00247C17.9697 8.28547 19.0061 7.79705 20.1156 7.58275C21.4759 7.39008 22.8631 7.62717 24.0788 8.26016C25.2946 8.89314 26.2766 9.88959 26.8848 11.1071C29.1033 15.0923 28.7882 20.1733 26.1914 23.0875ZM24.9309 14.6938C24.6001 13.7145 23.9366 12.8784 23.0527 12.3275C22.5525 11.9754 21.9448 11.8041 21.3319 11.8427C20.7188 11.8812 20.138 12.1273 19.687 12.5392C17.8845 14.1209 17.5063 17.8695 18.8172 20.0987C18.9844 20.4622 19.2297 20.7852 19.5364 21.0452C19.8431 21.3052 20.2036 21.4958 20.5926 21.6037C20.9816 21.7117 21.3898 21.7344 21.7886 21.6702C22.1875 21.6059 22.5672 21.4563 22.9015 21.2319C23.8786 20.4834 24.5955 19.4528 24.9524 18.2834C25.3094 17.1138 25.2886 15.8635 24.8932 14.7063L24.9309 14.6938Z" fill="black"/>
<path d="M38.8984 16.263C38.5797 16.3307 38.2504 16.3347 37.9299 16.2748C37.6096 16.2149 37.3045 16.0924 37.0329 15.9143C36.7951 15.7799 36.5904 15.5952 36.4336 15.3734C36.2768 15.1515 36.1717 14.8981 36.1259 14.6313C36.08 14.3646 36.0947 14.0911 36.1686 13.8306C36.2426 13.5701 36.3743 13.329 36.5539 13.1246C36.8668 12.714 37.311 12.4201 37.8144 12.2903C39.1287 11.9134 40.4818 11.6837 41.8481 11.6054C42.1484 11.5709 42.4525 11.596 42.7427 11.6792C43.033 11.7625 43.3034 11.9021 43.5383 12.0901C43.7731 12.278 43.9676 12.5104 44.1103 12.7736C44.2529 13.0368 44.341 13.3256 44.3692 13.6228C44.7631 15.083 44.8062 16.6141 44.4952 18.0937C43.3608 22.8759 39.4531 24.5197 35.0664 22.9879C33.835 22.5784 32.7553 21.8153 31.9654 20.7961C30.9119 19.5688 30.1649 18.1142 29.7847 16.5494C29.4766 15.156 29.5103 13.7101 29.8832 12.3323C30.2559 10.9544 30.9569 9.68461 31.9276 8.62893C32.8488 7.48152 34.0444 6.57851 35.4068 6.00121C36.2676 5.53244 37.2749 5.39915 38.2304 5.6276C38.4471 5.68687 38.6438 5.80234 38.8002 5.96204C38.9565 6.12175 39.0668 6.31987 39.1195 6.53587C39.1723 6.75185 39.1655 6.97785 39.1001 7.19042C39.0346 7.40297 38.9128 7.59436 38.7472 7.74472C38.4324 8.02624 38.0904 8.27651 37.7261 8.49193C36.6054 9.19701 35.6302 10.1055 34.8521 11.1694C34.342 11.8579 33.9907 12.6484 33.823 13.4854C33.6553 14.3223 33.6753 15.1854 33.8815 16.014C34.1674 17.1437 34.8018 18.1577 35.6966 18.9156C38.4698 21.4064 42.075 19.0027 41.4447 15.6029C40.5246 15.8271 39.7178 16.0637 38.8984 16.263Z" fill="black"/>
<path d="M55.8398 23.2871C51.7431 25.7779 47.0791 23.2871 46.058 18.0567C45.3143 14.3206 46.7261 9.09005 51.6675 7.09747C52.7188 6.68265 53.8592 6.537 54.9827 6.67405C56.3326 6.91818 57.5709 7.57472 58.523 8.55111C59.475 9.52749 60.093 10.7744 60.2896 12.1163C61.1215 16.5622 59.2307 21.307 55.8398 23.2871ZM57.2643 14.9059C57.2631 13.8713 56.8926 12.8702 56.2181 12.0789C55.8575 11.5895 55.3362 11.2388 54.7432 11.0866C54.15 10.9345 53.5219 10.9902 52.9658 11.2446C50.7473 12.191 49.1842 15.6282 49.7514 18.1563C49.7948 18.5531 49.9252 18.9357 50.1338 19.2774C50.3424 19.6191 50.624 19.9117 50.959 20.1347C51.2939 20.3576 51.6742 20.5057 52.073 20.5684C52.472 20.631 52.8799 20.6068 53.2683 20.4976C54.441 20.0928 55.4564 19.3365 56.1727 18.334C56.8892 17.3315 57.2708 16.133 57.2643 14.9059Z" fill="black"/>
<path d="M64.4331 24.3336C64.3713 24.7894 64.1288 25.2022 63.7588 25.4813C63.3888 25.7604 62.9217 25.8829 62.4604 25.8218C61.999 25.7607 61.5811 25.521 61.2987 25.1554C61.0161 24.79 60.8922 24.3286 60.954 23.8728C61.0159 23.417 61.2585 23.0041 61.6284 22.725C61.9984 22.4459 62.4654 22.3235 62.9268 22.3846C63.3881 22.4457 63.806 22.6853 64.0886 23.0508C64.371 23.4163 64.4951 23.8778 64.4331 24.3336ZM63.3364 7.53361C63.5762 7.17188 63.9279 6.8964 64.3391 6.74828C64.7502 6.60015 65.1989 6.58731 65.6181 6.71168C66.0442 6.81701 66.4206 7.06377 66.6846 7.41065C66.9485 7.75753 67.0837 8.18344 67.0677 8.61708C67.0121 9.31265 66.9068 10.0035 66.7526 10.6844C66.3366 12.9883 65.9332 15.2922 65.492 17.5712C65.2903 18.4804 65.0256 19.3521 64.7357 20.2736C64.6348 20.5617 64.4663 20.822 64.2441 21.0333C64.1059 21.1923 63.9295 21.3142 63.731 21.3878C63.5324 21.4615 63.3183 21.4844 63.1085 21.4546C62.8987 21.4248 62.6997 21.3432 62.5302 21.2174C62.3608 21.0914 62.2262 20.9253 62.139 20.7345C61.9891 20.392 61.9077 20.024 61.8994 19.651C61.8994 18.1067 61.8995 16.5501 62.0003 14.9933C62.1717 12.7717 62.5087 10.5656 63.0087 8.39291C63.0676 8.10183 63.1785 7.82348 63.3364 7.57098V7.53361Z" fill="black"/>
<path fill-rule="evenodd" clip-rule="evenodd" d="M6.78974 34.3406C6.6409 34.6689 6.60009 35.0348 6.67282 35.387C6.7212 35.8512 6.82748 36.3079 6.98922 36.7465C7.19116 37.2836 7.41712 37.8147 7.69574 38.4692C7.75982 38.6198 7.82678 38.7771 7.89684 38.9425C8.27257 39.8293 8.74402 40.9627 9.37286 42.6029C9.55085 43.0688 9.7089 43.5386 9.86807 44.0116C9.93236 44.2027 9.99689 44.3944 10.0629 44.5866C10.2997 45.2698 10.7071 45.8836 11.2471 46.37C11.4764 46.6374 11.7805 46.8322 12.1215 46.9297C12.4692 47.029 12.839 47.0227 13.183 46.9116C13.527 46.8004 13.8291 46.5896 14.0502 46.3064C14.2669 46.0288 14.3958 45.6942 14.4208 45.3447C14.5614 44.6638 14.5134 43.9579 14.2817 43.3015C13.9139 42.2116 13.495 41.1201 13.0119 40.0526L13.0096 40.0479C12.2149 38.3777 11.407 36.719 10.5609 35.0597L10.5546 35.0481C10.3069 34.6158 9.98501 34.2293 9.60338 33.9061C9.35563 33.6176 9.01388 33.4229 8.63648 33.3558C8.25104 33.2874 7.85351 33.3564 7.51487 33.5507C7.19451 33.7314 6.94056 34.008 6.78974 34.3406Z" fill="black"/>
<path fill-rule="evenodd" clip-rule="evenodd" d="M18.9285 30.2285C17.6823 29.9096 16.3809 29.8632 15.1148 30.0924C14.1342 30.1878 13.1698 30.4113 12.5001 30.8539C12.1595 31.0792 11.8841 31.3685 11.7309 31.7361C11.5769 32.1058 11.5572 32.5286 11.6835 32.9997C11.9139 33.8626 12.2132 34.7015 12.5114 35.5378L12.5597 35.6732L12.5609 35.6762C13.4588 38.1057 14.3653 40.5269 15.2801 42.9399C15.3867 43.3201 15.5376 43.6869 15.7296 44.0329L15.7332 44.0393C15.9868 44.4692 16.312 44.8536 16.6953 45.1765C16.8869 45.3541 17.1239 45.4769 17.3809 45.5318C17.6405 45.5871 17.9103 45.5711 18.1612 45.4852C18.4122 45.3995 18.6344 45.2472 18.8037 45.0451C18.9703 44.8463 19.0794 44.6069 19.1195 44.352C19.2848 43.6596 19.2319 42.9338 18.9676 42.2719C18.8851 42.0492 18.8204 41.8216 18.7522 41.582C18.7295 41.5021 18.7065 41.4208 18.6822 41.338C20.776 40.5294 23.004 39.4421 23.7874 36.9126C24.0942 36.0385 24.1198 35.092 23.8606 34.2029C23.6012 33.3128 23.0689 32.5238 22.3371 31.9446C21.3412 31.1339 20.1778 30.5481 18.9285 30.2285ZM15.4743 33.331C15.5155 33.3193 15.557 33.3084 15.5987 33.2982C16.9619 33.0865 18.3566 33.3686 19.526 34.0924C20.0413 34.4465 20.2524 34.8399 20.2887 35.2185C20.3261 35.6083 20.1827 36.0306 19.8945 36.4367C19.35 37.2036 18.3562 37.8175 17.4586 37.9319C16.8043 36.4431 16.1397 34.894 15.4743 33.331Z" fill="black"/>
<path d="M27.2374 27.5033C28.7214 26.8262 30.5596 26.7092 31.9981 27.1853C32.3604 27.2895 32.6747 27.515 32.8873 27.8232C33.0985 28.1295 33.1959 28.4985 33.1634 28.8675C33.1613 29.107 33.1017 29.3426 32.9898 29.5552C32.8758 29.7716 32.7108 29.9577 32.5087 30.0978C32.3066 30.2378 32.0732 30.3279 31.8285 30.36C31.5837 30.3923 31.3347 30.3658 31.1025 30.2828L31.0848 30.2765L31.0682 30.2679C30.9494 30.2064 30.8232 30.1602 30.6926 30.1301L30.6844 30.1282C29.6725 29.8627 28.718 30.3027 28.3693 30.8433C28.203 31.101 28.1824 31.3612 28.3209 31.598C28.4692 31.8514 28.833 32.1359 29.5691 32.3386C29.7715 32.3935 29.979 32.4465 30.1895 32.5004C30.7716 32.6493 31.3765 32.8039 31.9614 33.0183L31.9636 33.0192C34.6621 34.0335 35.6669 36.1343 35.3229 38.1102C34.9826 40.0643 33.3308 41.8426 30.8469 42.262C29.943 42.46 29.0024 42.4214 28.1181 42.1502C27.2315 41.8781 26.4324 41.3817 25.8002 40.7101L25.7837 40.6926C25.5841 40.4395 25.4498 40.1422 25.3903 39.8268C25.3356 39.5421 25.3644 39.2479 25.4733 38.9789C25.5815 38.7114 25.7646 38.4799 26.0009 38.3113C26.2505 38.1201 26.5514 38.0053 26.8663 37.9814C27.1802 37.9576 27.4942 38.025 27.7698 38.1752C28.0451 38.3066 28.3012 38.4742 28.531 38.6735L28.5353 38.6771C28.9419 39.0445 29.4338 39.1402 29.9055 39.0515C30.384 38.9616 30.8341 38.6818 31.1235 38.3106C31.4111 37.9418 31.5265 37.5036 31.3895 37.0783C31.2516 36.6498 30.8371 36.1698 29.9264 35.7685C29.6883 35.6686 29.4415 35.588 29.1847 35.5096C29.1155 35.4885 29.0451 35.4674 28.9738 35.4461C28.784 35.3891 28.5886 35.3305 28.397 35.2659C28.2651 35.2214 28.1342 35.1793 28.0046 35.1376C27.6504 35.0236 27.305 34.9125 26.9726 34.7635C26.2492 34.5202 25.6243 34.053 25.1907 33.431C24.7554 32.8065 24.5364 32.0597 24.5662 31.3022C24.5685 29.456 25.7454 28.1841 27.2374 27.5033Z" fill="black"/>
<path d="M46.0516 27.3057C45.7638 27.1669 45.4456 27.101 45.1257 27.1139C44.8057 27.1269 44.4941 27.2184 44.2189 27.3802C43.9454 27.5408 43.7164 27.7658 43.5524 28.0351C43.4019 28.2619 43.2978 28.5155 43.2459 28.7818C43.194 29.0478 43.1953 29.3213 43.2495 29.5867C43.3031 29.9279 43.3625 30.2597 43.4212 30.5869C43.5183 31.1283 43.6128 31.6576 43.6752 32.1973L43.6775 32.2109C43.8195 33.0573 43.8938 33.9132 43.9005 34.7709L43.9011 34.7831C43.9496 35.7095 43.6302 36.6177 43.0112 37.3152L43.0014 37.3276C42.8 37.5826 42.5308 37.7772 42.2237 37.8897C41.9167 38.0022 41.5841 38.028 41.263 37.9644C40.942 37.9007 40.6452 37.7501 40.4059 37.5293C40.1666 37.3085 39.9939 37.0254 39.9078 36.7134C39.7238 36.0558 39.6174 35.3793 39.5903 34.6976L39.9045 29.7558C39.9091 29.6913 39.9144 29.6251 39.9198 29.5582C39.9318 29.4081 39.944 29.2553 39.9491 29.1127C39.9565 28.9029 39.9502 28.6871 39.9007 28.4829C39.85 28.2742 39.7537 28.0756 39.5829 27.9065C39.4138 27.7391 39.1854 27.6156 38.8981 27.5316C38.3785 27.383 37.9392 27.3877 37.5731 27.5412C37.2068 27.6947 36.9558 27.9797 36.7782 28.3089C36.602 28.6353 36.4888 29.0218 36.4031 29.4089C36.3396 29.6961 36.2885 29.9977 36.24 30.2847C36.2232 30.3836 36.2068 30.4807 36.1902 30.575L36.1898 30.5778C35.9302 32.1519 35.8529 33.7501 35.9594 35.3415C35.9793 36.2015 36.1608 37.0503 36.4949 37.8447C36.8718 38.8698 37.5544 39.7579 38.4526 40.3918C39.3528 41.0271 40.4269 41.3771 41.5329 41.3956C42.6389 41.4141 43.7245 41.1001 44.6459 40.4954C45.5658 39.8916 46.2787 39.0262 46.6904 38.0136C47.2662 36.7238 47.5366 35.3211 47.4808 33.9123C47.447 32.8839 47.3903 31.8475 47.334 30.8164C47.3063 30.3106 47.2787 29.8059 47.254 29.3043C47.2415 28.8013 47.0736 28.3141 46.7727 27.9081C46.5866 27.6514 46.3388 27.4444 46.0516 27.3057Z" fill="black"/>
<path d="M56.236 35.0552C56.2068 35.0919 56.176 35.1298 56.1439 35.1692C55.9099 33.8353 55.6929 32.5017 55.4757 31.1662C55.3978 30.687 55.3194 30.2058 55.2407 29.726L55.2318 29.6724L55.2031 29.6262C55.1488 29.5391 55.1434 29.4538 55.1434 29.2718V29.2507L55.1402 29.2299C55.0814 28.854 54.9093 28.5042 54.6464 28.2262C54.3842 27.949 54.0437 27.7561 53.6691 27.6724C53.2952 27.5813 52.9023 27.6013 52.5398 27.7302C52.1782 27.8587 51.8631 28.0896 51.6337 28.394C51.443 28.6277 51.2867 28.8868 51.1695 29.1637C50.9037 29.7601 50.6355 30.3581 50.3665 30.9577L50.3619 30.968C49.6905 32.4649 49.0145 33.9718 48.3583 35.4905L48.3563 35.4954C47.9534 36.4802 47.6208 37.5178 47.2894 38.5522C47.2232 38.7587 47.157 38.9651 47.0903 39.1709C46.9707 39.4974 46.9183 39.8441 46.9363 40.1907C46.9145 40.501 46.9897 40.8106 47.1519 41.0775C47.3172 41.3499 47.5649 41.5642 47.8599 41.6903C48.1726 41.8258 48.5222 41.8545 48.8534 41.7721C49.1839 41.6897 49.4774 41.5013 49.6876 41.2364C49.9561 40.91 50.1871 40.5541 50.3755 40.177C50.9315 39.0535 51.4628 37.9163 51.9917 36.7841C52.1963 36.3461 52.3952 35.9539 52.6214 35.5267C52.6369 35.5794 52.6528 35.6308 52.6692 35.6822C52.9063 36.7136 53.3065 37.7014 53.8551 38.6096C53.9589 38.802 54.1035 38.9701 54.279 39.1025C54.4566 39.2364 54.6616 39.3304 54.8797 39.3782C55.0978 39.4259 55.3238 39.4261 55.542 39.3788C55.7598 39.3316 55.9655 39.2375 56.1432 39.1042L56.4949 38.8441L59.2247 36.5724L59.0633 37.5887C58.8417 38.9858 58.6218 40.3712 58.3882 41.757C58.2354 42.3712 58.2356 43.0128 58.3889 43.6267C58.4552 43.9723 58.6244 44.2904 58.8747 44.5406C59.1272 44.7928 59.4504 44.9641 59.8027 45.0325C60.1549 45.1007 60.5198 45.0629 60.85 44.9237C61.1754 44.7867 61.4521 44.5574 61.6456 44.2653C62.0957 43.7136 62.3759 43.0457 62.4528 42.341C62.5687 41.3459 62.6996 40.3372 62.8305 39.3288C62.9814 38.1665 63.1323 37.0045 63.2596 35.8649L63.2601 35.8614C63.3827 34.6138 63.442 33.3612 63.4379 32.1078C63.4647 31.7117 63.3649 31.3171 63.1522 30.9799C62.9388 30.6415 62.6227 30.3784 62.2491 30.2279C61.8605 30.0534 61.4255 30.0067 61.008 30.0949C60.5933 30.1825 60.2179 30.3985 59.9363 30.7114C59.4328 31.1714 58.9605 31.6637 58.5223 32.1851L58.5193 32.1886C58.0409 32.7775 57.5659 33.378 57.0939 33.9745C56.8068 34.3372 56.5207 34.699 56.236 35.0552Z" fill="black"/>
</g>
<defs>
<clipPath id="clip0_195_285">
<rect width="74" height="47" fill="white"/>
</clipPath>
</defs>
</svg>
