<svg width="204" height="192" viewBox="0 0 204 192" fill="none" xmlns="http://www.w3.org/2000/svg">
<circle cx="124.481" cy="79.4318" r="47.5496" stroke="#290391" stroke-width="10.7077"/>
<circle cx="124.481" cy="79.4318" r="22.6729" fill="#FD5269"/>
<path d="M124.481 0.184387C168.248 0.184492 203.728 35.6646 203.728 79.4315C203.728 123.198 168.248 158.678 124.481 158.679C108.711 158.678 94.0173 154.072 81.6713 146.132C77.3572 143.357 70.7566 145.46 66.6386 148.518V148.518C62.9266 151.275 59.5421 156.14 59.7203 160.76C59.7351 161.145 59.7426 161.531 59.7426 161.919C59.7424 178.257 46.4977 191.502 30.1595 191.502C13.8213 191.502 0.576699 178.257 0.576538 161.919C0.576538 145.58 13.8212 132.336 30.1595 132.336C30.3995 132.336 30.6388 132.339 30.8775 132.344C36.0648 132.468 41.6514 128.816 45.1063 124.945V124.945C48.9379 120.652 52.7451 113.64 50.6493 108.281C47.1531 99.3409 45.2338 89.6104 45.2338 79.4315C45.2339 35.6646 80.7139 0.184499 124.481 0.184387ZM124.481 8.94513C85.5524 8.94524 53.9946 40.503 53.9945 79.4315C53.9945 118.36 85.5523 149.918 124.481 149.918C163.409 149.918 194.967 118.36 194.967 79.4315C194.967 40.503 163.409 8.94523 124.481 8.94513Z" fill="#CC067F"/>
</svg>
