<svg width="48" height="48" viewBox="0 0 48 48" fill="none" xmlns="http://www.w3.org/2000/svg">
<path d="M37.7923 7H10.1069C9.44371 7 8.94617 7.56118 9.00468 8.22428L11.5334 36.5616C11.592 37.2242 12.1651 37.9177 12.8079 38.0968L22.7765 40.8658C23.4184 41.0438 24.4677 41.0449 25.1105 40.8682L35.0915 38.103C35.7344 37.9244 36.3075 37.2372 36.366 36.5735L38.8958 8.22428C38.9543 7.56118 38.4589 7 37.7923 7ZM32.9909 17.229C32.9905 17.2333 32.9871 17.2367 32.9828 17.2374C32.9785 17.2382 32.9743 17.2359 32.9724 17.2319L25.1623 20.4324C25.0511 20.478 24.9877 20.596 25.0108 20.7139C25.034 20.8319 25.1375 20.917 25.2577 20.917H31.3327C31.6559 20.917 31.9638 21.0542 32.1799 21.2945C32.3959 21.5349 32.4998 21.8556 32.4655 22.1769L31.5163 31.0813C31.4697 31.5182 31.1761 31.8893 30.7617 32.0351L24.3135 34.304C24.0707 34.3895 23.8059 34.3902 23.5625 34.3058L17.1445 32.0826C16.7275 31.9381 16.4315 31.5659 16.3846 31.1271L15.9543 27.0945C15.9317 26.8828 16.0001 26.6714 16.1424 26.5132C16.2847 26.3548 16.4876 26.2644 16.7005 26.2644H18.4865C18.8703 26.2644 19.1921 26.5538 19.2327 26.9354L19.4967 29.4141L23.9406 30.9588L28.4048 29.4L28.9508 24.2592H16.3286C15.946 24.2592 15.6246 23.9713 15.5826 23.591L15.3423 21.4122C15.3056 21.0799 15.4931 20.7634 15.8022 20.6361L23.8805 17.3055C23.9721 17.2677 24.0242 17.1705 24.005 17.0733C23.9857 16.9762 23.9006 16.9062 23.8015 16.9062H15.2962C15.0401 16.9062 14.8254 16.7128 14.7986 16.4583L14.5526 14.1164C14.5378 13.9755 14.5835 13.8348 14.6784 13.7294C14.7732 13.6241 14.9083 13.564 15.0501 13.564H32.8468C32.9893 13.564 33.125 13.6248 33.2199 13.731C33.3148 13.8374 33.3599 13.9791 33.3438 14.1207L32.9909 17.229Z" fill="#0B0C0D"/>
</svg>
