<svg width="1728" height="1993" viewBox="0 0 1728 1993" fill="none" xmlns="http://www.w3.org/2000/svg">
<g clip-path="url(#clip0_358_1129)">
<circle cx="261.408" cy="261.408" r="259.908" transform="matrix(0.866025 0.5 0.5 -0.866025 -383.211 888.221)" stroke="url(#paint0_linear_358_1129)" stroke-width="3"/>
<circle cx="214.193" cy="214.193" r="212.693" transform="matrix(0.866025 0.5 0.5 -0.866025 -318.714 870.939)" stroke="url(#paint1_linear_358_1129)" stroke-width="3"/>
<circle cx="168.162" cy="168.162" r="166.662" transform="matrix(0.866025 0.5 0.5 -0.866025 -255.835 854.09)" stroke="url(#paint2_linear_358_1129)" stroke-width="3"/>
<circle cx="261.408" cy="261.408" r="259.908" transform="matrix(0.866025 0.5 0.5 -0.866025 1426 197.081)" stroke="url(#paint3_linear_358_1129)" stroke-width="3"/>
<circle cx="214.193" cy="214.193" r="212.693" transform="matrix(0.866025 0.5 0.5 -0.866025 1490.5 179.799)" stroke="url(#paint4_linear_358_1129)" stroke-width="3"/>
<circle cx="168.162" cy="168.162" r="166.662" transform="matrix(0.866025 0.5 0.5 -0.866025 1553.38 162.95)" stroke="url(#paint5_linear_358_1129)" stroke-width="3"/>
<g opacity="0.2">
<circle cx="261.408" cy="261.408" r="259.908" transform="matrix(0.866025 0.5 0.5 -0.866025 -383.211 1917.26)" stroke="url(#paint6_linear_358_1129)" stroke-width="3"/>
<circle cx="214.193" cy="214.193" r="212.693" transform="matrix(0.866025 0.5 0.5 -0.866025 -318.714 1899.98)" stroke="url(#paint7_linear_358_1129)" stroke-width="3"/>
<circle cx="168.162" cy="168.162" r="166.662" transform="matrix(0.866025 0.5 0.5 -0.866025 -255.835 1883.13)" stroke="url(#paint8_linear_358_1129)" stroke-width="3"/>
<circle cx="261.408" cy="261.408" r="259.908" transform="matrix(0.866025 0.5 0.5 -0.866025 1426 1226.12)" stroke="url(#paint9_linear_358_1129)" stroke-width="3"/>
<circle cx="214.193" cy="214.193" r="212.693" transform="matrix(0.866025 0.5 0.5 -0.866025 1490.5 1208.84)" stroke="url(#paint10_linear_358_1129)" stroke-width="3"/>
<circle cx="168.162" cy="168.162" r="166.662" transform="matrix(0.866025 0.5 0.5 -0.866025 1553.38 1191.99)" stroke="url(#paint11_linear_358_1129)" stroke-width="3"/>
</g>
<g filter="url(#filter0_f_358_1129)">
<circle cx="-117.43" cy="-52.946" r="300.244" fill="#CC067F"/>
</g>
<g filter="url(#filter1_f_358_1129)">
<circle cx="1799.26" cy="1878.42" r="300.244" fill="#CC067F"/>
</g>
</g>
<defs>
<filter id="filter0_f_358_1129" x="-1017.67" y="-953.19" width="1800.49" height="1800.49" filterUnits="userSpaceOnUse" color-interpolation-filters="sRGB">
<feFlood flood-opacity="0" result="BackgroundImageFix"/>
<feBlend mode="normal" in="SourceGraphic" in2="BackgroundImageFix" result="shape"/>
<feGaussianBlur stdDeviation="300" result="effect1_foregroundBlur_358_1129"/>
</filter>
<filter id="filter1_f_358_1129" x="899.014" y="978.178" width="1800.49" height="1800.49" filterUnits="userSpaceOnUse" color-interpolation-filters="sRGB">
<feFlood flood-opacity="0" result="BackgroundImageFix"/>
<feBlend mode="normal" in="SourceGraphic" in2="BackgroundImageFix" result="shape"/>
<feGaussianBlur stdDeviation="300" result="effect1_foregroundBlur_358_1129"/>
</filter>
<linearGradient id="paint0_linear_358_1129" x1="261.408" y1="0" x2="261.408" y2="522.816" gradientUnits="userSpaceOnUse">
<stop stop-color="#662E91"/>
<stop offset="1" stop-color="#CC067F"/>
</linearGradient>
<linearGradient id="paint1_linear_358_1129" x1="214.193" y1="0" x2="214.193" y2="428.385" gradientUnits="userSpaceOnUse">
<stop stop-color="#662E91"/>
<stop offset="1" stop-color="#CC067F"/>
</linearGradient>
<linearGradient id="paint2_linear_358_1129" x1="168.162" y1="0" x2="168.162" y2="336.324" gradientUnits="userSpaceOnUse">
<stop stop-color="#662E91"/>
<stop offset="1" stop-color="#CC067F"/>
</linearGradient>
<linearGradient id="paint3_linear_358_1129" x1="261.408" y1="0" x2="261.408" y2="522.816" gradientUnits="userSpaceOnUse">
<stop stop-color="#662E91"/>
<stop offset="1" stop-color="#CC067F"/>
</linearGradient>
<linearGradient id="paint4_linear_358_1129" x1="214.193" y1="0" x2="214.193" y2="428.385" gradientUnits="userSpaceOnUse">
<stop stop-color="#662E91"/>
<stop offset="1" stop-color="#CC067F"/>
</linearGradient>
<linearGradient id="paint5_linear_358_1129" x1="168.162" y1="0" x2="168.162" y2="336.324" gradientUnits="userSpaceOnUse">
<stop stop-color="#662E91"/>
<stop offset="1" stop-color="#CC067F"/>
</linearGradient>
<linearGradient id="paint6_linear_358_1129" x1="261.408" y1="0" x2="261.408" y2="522.816" gradientUnits="userSpaceOnUse">
<stop stop-color="#662E91"/>
<stop offset="1" stop-color="#CC067F"/>
</linearGradient>
<linearGradient id="paint7_linear_358_1129" x1="214.193" y1="0" x2="214.193" y2="428.385" gradientUnits="userSpaceOnUse">
<stop stop-color="#662E91"/>
<stop offset="1" stop-color="#CC067F"/>
</linearGradient>
<linearGradient id="paint8_linear_358_1129" x1="168.162" y1="0" x2="168.162" y2="336.324" gradientUnits="userSpaceOnUse">
<stop stop-color="#662E91"/>
<stop offset="1" stop-color="#CC067F"/>
</linearGradient>
<linearGradient id="paint9_linear_358_1129" x1="261.408" y1="0" x2="261.408" y2="522.816" gradientUnits="userSpaceOnUse">
<stop stop-color="#662E91"/>
<stop offset="1" stop-color="#CC067F"/>
</linearGradient>
<linearGradient id="paint10_linear_358_1129" x1="214.193" y1="0" x2="214.193" y2="428.385" gradientUnits="userSpaceOnUse">
<stop stop-color="#662E91"/>
<stop offset="1" stop-color="#CC067F"/>
</linearGradient>
<linearGradient id="paint11_linear_358_1129" x1="168.162" y1="0" x2="168.162" y2="336.324" gradientUnits="userSpaceOnUse">
<stop stop-color="#662E91"/>
<stop offset="1" stop-color="#CC067F"/>
</linearGradient>
<clipPath id="clip0_358_1129">
<rect width="1728" height="1993" fill="white"/>
</clipPath>
</defs>
</svg>
