<svg width="73" height="116" viewBox="0 0 73 116" fill="none" xmlns="http://www.w3.org/2000/svg">
<path d="M31.3016 87.9318C21.4221 87.9318 12.8839 86.9098 5.68719 84.8658L6.58146 80.586C12.4581 82.4172 20.6982 83.3327 31.3016 83.3327C37.6041 83.3327 40.7553 81.6719 40.7553 78.3504C40.7553 75.7101 37.7106 74.39 31.621 74.39H17.696V69.7909H31.6849C35.6026 69.7909 38.8603 70.4723 41.458 71.835C44.0556 73.1977 45.3545 75.3695 45.3545 78.3504C45.3545 81.5442 44.0343 83.9502 41.3941 85.5684C38.7965 87.144 35.4323 87.9318 31.3016 87.9318ZM44.5879 42.5796L40.1805 41.6214C40.5637 40.9827 40.7553 39.918 40.7553 38.4276C40.7553 34.6802 37.6041 32.8065 31.3016 32.8065C20.6982 32.8065 12.4581 33.722 6.58146 35.5532L5.68719 31.2734C12.8839 29.2294 21.4221 28.2074 31.3016 28.2074C35.4323 28.2074 38.7965 29.0591 41.3941 30.7624C44.0343 32.4658 45.3545 35.0209 45.3545 38.4276C45.3545 40.2587 45.0989 41.6427 44.5879 42.5796ZM4.79292 26.9298L3.89865 22.4585C11.8619 20.1589 20.9962 19.0092 31.3016 19.0092C37.9448 19.0092 43.4807 20.7551 47.9095 24.247C52.3383 27.6964 54.5527 32.4232 54.5527 38.4276C54.5527 40.8549 54.0842 43.2609 53.1474 45.6456L48.8677 43.921C49.5916 42.3028 49.9536 40.4716 49.9536 38.4276C49.9536 33.7433 48.1863 30.1024 44.6518 27.5047C41.1173 24.9071 36.6673 23.6083 31.3016 23.6083C21.4221 23.6083 12.5858 24.7155 4.79292 26.9298ZM61.068 49.9892L57.2993 47.6897C58.5343 44.7514 59.1518 41.664 59.1518 38.4276C59.1518 31.1457 56.4902 25.3329 51.1672 20.9893C45.8442 16.6032 39.2223 14.4101 31.3016 14.4101C21.5498 14.4101 12.1174 15.645 3.00438 18.1149L2.04624 13.5158C10.8612 11.0459 20.613 9.81096 31.3016 9.81096C37.2634 9.81096 42.6929 10.9607 47.5901 13.2603C52.4873 15.5598 56.4051 18.924 59.3434 23.3528C62.2817 27.7389 63.7509 32.7639 63.7509 38.4276C63.7509 42.5583 62.8566 46.4122 61.068 49.9892ZM67.9028 56.6324L64.5813 53.1831C67.0937 48.6265 68.35 43.708 68.35 38.4276C68.35 31.9122 66.6679 26.0994 63.3037 20.9893C59.9822 15.8792 55.5108 11.9828 49.8897 9.29995C44.3111 6.57456 38.1151 5.21186 31.3016 5.21186C20.8685 5.21186 10.8186 6.48939 1.15197 9.04444L0.193821 4.44534C9.47719 1.89029 19.8465 0.612757 31.3016 0.612757C37.0079 0.612757 42.3948 1.52832 47.4624 3.35944C52.5725 5.19057 57.0013 7.74562 60.7487 11.0246C64.4961 14.261 67.4557 18.2639 69.6275 23.0334C71.8419 27.7602 72.9491 32.8916 72.9491 38.4276C72.9491 45.1133 71.267 51.1816 67.9028 56.6324ZM31.3016 92.5309C36.6673 92.5309 41.1173 91.296 44.6518 88.8261C48.1863 86.3136 49.9536 82.8217 49.9536 78.3504C49.9536 74.2197 48.2076 71.0046 44.7157 68.705C41.2664 66.3629 37.0931 65.1918 32.1959 65.1918H17.696V60.5927H32.2598C38.4345 60.5927 43.6937 62.2109 48.0373 65.4473C52.3809 68.6411 54.5527 72.9422 54.5527 78.3504C54.5527 84.1844 52.3383 88.7835 47.9095 92.1477C43.4807 95.4692 37.9448 97.13 31.3016 97.13C20.9962 97.13 11.8619 95.9803 3.89865 93.6807L4.79292 89.2094C12.5858 91.4237 21.4221 92.5309 31.3016 92.5309ZM31.3016 101.729C39.2223 101.729 45.8442 99.6212 51.1672 95.4054C56.4902 91.1469 59.1518 85.4619 59.1518 78.3504C59.1518 71.5795 56.5328 66.1713 51.295 62.1257C46.0997 58.0377 39.8398 55.9936 32.5153 55.9936H17.696V51.3945H32.643C38.2642 51.3945 43.4594 52.5869 48.2289 54.9716C52.9983 57.3137 56.767 60.5714 59.535 64.7447C62.3456 68.8754 63.7509 73.4106 63.7509 78.3504C63.7509 83.8863 62.2817 88.8048 59.3434 93.1058C56.4051 97.4068 52.4873 100.686 47.5901 102.943C42.6929 105.2 37.2634 106.328 31.3016 106.328C20.613 106.328 10.8612 105.093 2.04624 102.623L3.00438 98.0243C12.1174 100.494 21.5498 101.729 31.3016 101.729ZM31.3016 110.927C38.1151 110.927 44.3111 109.607 49.8897 106.967C55.5108 104.284 59.9822 100.452 63.3037 95.4692C66.6679 90.4443 68.35 84.738 68.35 78.3504C68.35 73.6661 67.3279 69.3225 65.2839 65.3196C63.2398 61.2741 60.5357 57.9312 57.1716 55.291C53.85 52.6082 50.06 50.5215 45.8016 49.0311C41.5432 47.5406 37.157 46.7954 32.643 46.7954H17.696V42.1963H32.8985C38.1364 42.1963 43.1614 43.0693 47.9734 44.8152C52.828 46.5612 57.0864 48.9672 60.7487 52.0333C64.4535 55.0993 67.4131 58.9319 69.6275 63.531C71.8419 68.0875 72.9491 73.0273 72.9491 78.3504C72.9491 85.5897 71.0754 92.0625 67.3279 97.7688C63.5805 103.475 58.5343 107.861 52.1892 110.927C45.8868 113.993 38.9242 115.526 31.3016 115.526C19.8465 115.526 9.47719 114.249 0.193821 111.694L1.15197 107.095C10.8186 109.65 20.8685 110.927 31.3016 110.927Z" fill="#FD5269"/>
</svg>
