<svg width="70" height="111" viewBox="0 0 70 111" fill="none" xmlns="http://www.w3.org/2000/svg">
<path d="M1.91848 92.4993V87.9002H64.2619V92.4993H1.91848ZM1.91848 101.698V97.0984H64.2619V101.698H1.91848ZM1.91848 110.896V106.297H64.2619V110.896H1.91848ZM9.00877 85.3452H3.64315C6.62405 81.2997 9.56236 77.3393 12.4581 73.4642C15.3538 69.589 17.7598 66.3739 19.6761 63.8188C21.635 61.2212 23.53 58.6874 25.3611 56.2175C27.1923 53.7476 28.6614 51.7675 29.7686 50.277C30.9184 48.7866 32.0043 47.3387 33.0263 45.9334C34.0483 44.5282 34.8148 43.4423 35.3259 42.6757C35.8369 41.8666 36.284 41.1001 36.6673 40.3762C37.0931 39.6523 37.3699 39.0774 37.4977 38.6515C37.6254 38.1831 37.6893 37.736 37.6893 37.3101C37.6893 35.3512 36.8802 34.095 35.262 33.5414C33.6438 32.9878 30.7906 32.711 26.7025 32.711C20.0594 32.711 13.4162 33.584 6.77309 35.3299L5.81495 30.9225C6.87955 30.454 9.56236 29.8579 13.8634 29.1339C18.207 28.3674 22.3802 27.9842 26.3832 27.9842C28.8105 27.9842 30.9184 28.1332 32.7069 28.4313C34.4955 28.6868 36.1137 29.1552 37.5615 29.8366C39.052 30.4753 40.1805 31.4335 40.947 32.711C41.7135 33.946 42.0968 35.479 42.0968 37.3101C42.0968 39.1412 41.1599 41.4834 39.2862 44.3365C37.4125 47.1897 32.6005 53.7902 24.8501 64.1382C18.5476 72.5273 13.2672 79.5963 9.00877 85.3452ZM19.4206 85.3452H14.055C29.9389 63.9679 38.7539 52.023 40.4998 49.5105C44.0769 44.4004 46.0784 40.7594 46.5042 38.5876C46.632 37.9915 46.6959 37.3527 46.6959 36.6714C46.6959 27.8564 40.0101 23.4489 26.6387 23.4489C22.5506 23.4489 18.3986 23.8109 14.1828 24.5348C9.96691 25.2588 6.87955 25.9827 4.92068 26.7066L4.02641 22.2992C11.3083 20.0422 18.867 18.9137 26.7025 18.9137C29.4279 18.9137 31.9404 19.1053 34.24 19.4886C36.5821 19.8293 38.8178 20.4254 40.947 21.2771C43.0762 22.1288 44.886 23.236 46.3765 24.5987C47.8669 25.9188 49.038 27.6009 49.8897 29.6449C50.7839 31.689 51.2311 34.0311 51.2311 36.6714C51.2311 39.3967 49.8897 42.8248 47.2069 46.9555C44.5241 51.0861 36.4969 62.2006 23.1255 80.2989C21.5073 82.4707 20.2723 84.1528 19.4206 85.3452ZM30.088 85.3452H24.7224C39.2436 65.5009 48.0586 53.1515 51.1672 48.2969C54.2759 43.3997 55.8302 39.3116 55.8302 36.0326C55.8302 32.0297 55.0424 28.5803 53.4668 25.6846C51.9337 22.7889 49.7619 20.5319 46.9514 18.9137C44.1834 17.2955 41.1173 16.1244 37.7532 15.4005C34.4316 14.6766 30.7267 14.3146 26.6387 14.3146C18.7606 14.3146 10.9038 15.507 3.06826 17.8917L2.11011 13.2287C10.4992 10.7588 18.6115 9.52387 26.447 9.52387C30.2796 9.52387 33.8354 9.80067 37.1144 10.3543C40.3934 10.9079 43.4807 11.8447 46.3765 13.1648C49.3148 14.4424 51.7847 16.0819 53.7861 18.0833C55.8302 20.0848 57.4484 22.6185 58.6407 25.6846C59.8331 28.7081 60.4293 32.1574 60.4293 36.0326C60.4293 38.8006 59.7692 41.6324 58.4491 44.5282C57.1716 47.3813 54.4888 51.7462 50.4007 57.6228C46.3552 63.4994 39.5843 72.7402 30.088 85.3452ZM41.1386 85.3452H35.773C44.7583 73.4642 51.2524 64.5428 55.2553 58.581C59.3008 52.5766 61.941 48.0414 63.176 44.9753C64.4109 41.8666 65.0284 38.6728 65.0284 35.3938C65.0284 31.2206 64.3896 27.4519 63.1121 24.0877C61.8772 20.681 60.1099 17.8278 57.8104 15.5283C55.5534 13.1861 52.828 11.2272 49.6342 9.65163C46.4403 8.07601 42.9271 6.92623 39.0946 6.2023C35.3046 5.47837 31.1952 5.1164 26.7664 5.1164C18.5902 5.1164 10.0734 6.39393 1.21584 8.94899L0.257697 4.41376C9.24298 1.81612 18.0366 0.517298 26.6387 0.517298C33.0263 0.517298 38.7965 1.21994 43.9492 2.62522C49.1445 3.98792 53.6584 6.05325 57.491 8.82123C61.3661 11.5892 64.347 15.2302 66.4337 19.7441C68.5629 24.258 69.6275 29.4746 69.6275 35.3938C69.6275 39.1412 69.01 42.6757 67.7751 45.9973C66.5827 49.3189 63.9425 54.0244 59.8544 60.114C55.8089 66.2035 49.5703 74.6139 41.1386 85.3452Z" fill="#F9FCBA"/>
</svg>
