<svg width="648" height="648" viewBox="0 0 648 648" fill="none" xmlns="http://www.w3.org/2000/svg">
<path d="M54.5862 0.987366V647.257" stroke="#EAEAEA" stroke-width="1.11462"/>
<path d="M108.442 0.987366V647.257" stroke="#EAEAEA" stroke-width="1.11462"/>
<path d="M162.297 0.987366V647.257" stroke="#EAEAEA" stroke-width="1.11462"/>
<path d="M216.153 0.987366V647.257" stroke="#EAEAEA" stroke-width="1.11462"/>
<path d="M270.009 0.987366V647.257" stroke="#EAEAEA" stroke-width="1.11462"/>
<path d="M323.865 0.987366V647.257" stroke="#EAEAEA" stroke-width="1.11462"/>
<path d="M377.721 0.987366V647.257" stroke="#EAEAEA" stroke-width="1.11462"/>
<path d="M431.577 0.987366V647.257" stroke="#EAEAEA" stroke-width="1.11462"/>
<path d="M485.433 0.987366V647.257" stroke="#EAEAEA" stroke-width="1.11462"/>
<path d="M539.289 0.987366V647.257" stroke="#EAEAEA" stroke-width="1.11462"/>
<path d="M593.144 0.987366V647.257" stroke="#EAEAEA" stroke-width="1.11462"/>
<path d="M0.72998 54.8431H647" stroke="#EAEAEA" stroke-width="1.11462"/>
<path d="M0.72998 108.699H647" stroke="#EAEAEA" stroke-width="1.11462"/>
<path d="M0.72998 162.555H647" stroke="#EAEAEA" stroke-width="1.11462"/>
<path d="M0.72998 216.411H647" stroke="#EAEAEA" stroke-width="1.11462"/>
<path d="M0.72998 270.266H647" stroke="#EAEAEA" stroke-width="1.11462"/>
<path d="M0.72998 324.122H647" stroke="#EAEAEA" stroke-width="1.11462"/>
<path d="M0.72998 377.978H647" stroke="#EAEAEA" stroke-width="1.11462"/>
<path d="M0.72998 431.834H647" stroke="#EAEAEA" stroke-width="1.11462"/>
<path d="M0.72998 485.69H647" stroke="#EAEAEA" stroke-width="1.11462"/>
<path d="M0.72998 539.546H647" stroke="#EAEAEA" stroke-width="1.11462"/>
<path d="M0.72998 593.401H647" stroke="#EAEAEA" stroke-width="1.11462"/>
<path d="M0.72998 0.987366V647.257" stroke="#B3B3B3" stroke-width="1.11462" stroke-dasharray="2.23 2.23"/>
<path d="M647 0.987366V647.257" stroke="#B3B3B3" stroke-width="1.11462" stroke-dasharray="2.23 2.23"/>
<path d="M0.72998 0.987366H647" stroke="#B3B3B3" stroke-width="1.11462" stroke-dasharray="2.23 2.23"/>
<path d="M0.72998 647.257H647" stroke="#B3B3B3" stroke-width="1.11462" stroke-dasharray="2.23 2.23"/>
</svg>
