<svg width="42" height="42" viewBox="0 0 42 42" fill="none" xmlns="http://www.w3.org/2000/svg">
<path d="M39.6615 20.9999C39.6615 10.6906 31.3041 2.33325 20.9948 2.33325C10.6855 2.33325 2.32812 10.6906 2.32812 20.9999C2.32812 30.3168 9.15422 38.0394 18.0781 39.4398V26.3957H13.3385V20.9999H18.0781V16.8874C18.0781 12.2091 20.865 9.62492 25.1288 9.62492C27.1712 9.62492 29.3073 9.9895 29.3073 9.9895V14.5833H26.9535C24.6348 14.5833 23.9115 16.0223 23.9115 17.4985V20.9999H29.0885L28.2609 26.3957H23.9115V39.4398C32.8354 38.0394 39.6615 30.3172 39.6615 20.9999Z" fill="#1877F2"/>
<path d="M28.2622 26.3958L29.0898 21H23.9128V17.4985C23.9128 16.0223 24.6361 14.5833 26.9548 14.5833H29.3086V9.98958C29.3086 9.98958 27.1725 9.625 25.1301 9.625C20.8663 9.625 18.0794 12.2092 18.0794 16.8875V21H13.3398V26.3958H18.0794V39.4399C19.0299 39.589 20.0037 39.6667 20.9961 39.6667C21.9885 39.6667 22.9623 39.589 23.9128 39.4399V26.3958H28.2622Z" fill="white"/>
</svg>
