<svg width="40" height="40" viewBox="0 0 40 40" fill="none" xmlns="http://www.w3.org/2000/svg">
<rect width="40" height="40" rx="20" fill="#FF521C"/>
<path d="M8 20.7561C9.46585 20.8283 10.9795 20.5933 12.4006 20.8197C14.9112 23.4183 17.4311 26.0197 19.8849 28.6751C22.3622 26.1396 24.7634 23.5707 27.2108 21.0091C27.6327 20.4545 31.0199 20.878 32 20.7517C29.7194 22.518 27.6578 24.5317 25.6324 26.5867C23.6031 28.6456 21.5846 30.7169 19.7783 33C19.6023 32.7561 19.4276 32.4779 19.2189 32.2312C15.7689 28.1123 12.0326 24.2472 8 20.7561Z" fill="white"/>
<path d="M19.9693 25.0614C17.7718 22.9126 15.718 20.6391 13.5917 18.4173C13.4863 18.3049 13.3805 18.2546 13.2303 18.256C11.6395 18.2562 10.0496 18.3091 8.45898 18.2648C10.0567 16.9283 11.5624 15.4995 13.0689 14.0164C15.3554 16.3718 17.652 18.7375 19.9749 21.1305C22.2403 18.7393 24.5087 16.3446 26.7535 13.975C28.304 15.4052 29.8396 16.8218 31.3804 18.2431C29.9068 18.2895 28.4222 18.2695 26.9464 18.2592C26.6104 18.2537 26.3874 18.3517 26.1587 18.5946C24.12 20.7506 21.9908 22.9589 19.9693 25.0614Z" fill="white"/>
<path d="M25.7608 13.0008C25.1374 13.6726 24.5221 14.3356 23.9009 15.0052C22.5933 13.6168 21.2842 12.2268 19.9967 10.8597C18.651 12.2524 17.3345 13.6152 16.002 14.9944C15.4102 14.3608 14.8094 13.7174 14.1785 13.0419C15.9791 11.2329 17.6987 9.36265 19.46 7.51539C19.6562 7.40046 19.8777 6.8152 20.1087 7.05873C21.9877 9.04766 23.855 11.0391 25.7608 13.0008Z" fill="white"/>
</svg>
