<svg width="35" height="35" viewBox="0 0 35 35" fill="none" xmlns="http://www.w3.org/2000/svg">
<mask id="mask0_3019_2633" style="mask-type:luminance" maskUnits="userSpaceOnUse" x="0" y="0" width="35" height="35">
<path fill-rule="evenodd" clip-rule="evenodd" d="M34.0998 14.5568H18.0096V21.0767H27.2713C26.4079 25.2188 22.7974 27.5966 18.0096 27.5966C12.3585 27.5966 7.80614 23.1477 7.80614 17.625C7.80614 12.1023 12.3585 7.65341 18.0096 7.65341C20.4428 7.65341 22.6404 8.49716 24.3672 9.87784L29.3904 4.96875C26.3294 2.3608 22.405 0.75 18.0096 0.75C8.43405 0.75 0.742188 8.26705 0.742188 17.625C0.742188 26.983 8.43405 34.5 18.0096 34.5C26.6434 34.5 34.4922 28.3636 34.4922 17.625C34.4922 16.6278 34.3352 15.554 34.0998 14.5568Z" fill="white"/>
</mask>
<g mask="url(#mask0_3019_2633)">
<path d="M-0.828125 27.5965V7.65332L12.5149 17.6249L-0.828125 27.5965Z" fill="#FBBC05"/>
</g>
<mask id="mask1_3019_2633" style="mask-type:luminance" maskUnits="userSpaceOnUse" x="0" y="0" width="35" height="35">
<path fill-rule="evenodd" clip-rule="evenodd" d="M34.0998 14.5568H18.0096V21.0767H27.2713C26.4079 25.2188 22.7974 27.5966 18.0096 27.5966C12.3585 27.5966 7.80614 23.1477 7.80614 17.625C7.80614 12.1023 12.3585 7.65341 18.0096 7.65341C20.4428 7.65341 22.6404 8.49716 24.3672 9.87784L29.3904 4.96875C26.3294 2.3608 22.405 0.75 18.0096 0.75C8.43405 0.75 0.742188 8.26705 0.742188 17.625C0.742188 26.983 8.43405 34.5 18.0096 34.5C26.6434 34.5 34.4922 28.3636 34.4922 17.625C34.4922 16.6278 34.3352 15.554 34.0998 14.5568Z" fill="white"/>
</mask>
<g mask="url(#mask1_3019_2633)">
<path d="M-0.828125 7.65332L12.5149 17.6249L18.0091 12.9459L36.8463 9.95446V-0.78418H-0.828125V7.65332Z" fill="#EA4335"/>
</g>
<mask id="mask2_3019_2633" style="mask-type:luminance" maskUnits="userSpaceOnUse" x="0" y="0" width="35" height="35">
<path fill-rule="evenodd" clip-rule="evenodd" d="M34.0998 14.5568H18.0096V21.0767H27.2713C26.4079 25.2188 22.7974 27.5966 18.0096 27.5966C12.3585 27.5966 7.80614 23.1477 7.80614 17.625C7.80614 12.1023 12.3585 7.65341 18.0096 7.65341C20.4428 7.65341 22.6404 8.49716 24.3672 9.87784L29.3904 4.96875C26.3294 2.3608 22.405 0.75 18.0096 0.75C8.43405 0.75 0.742188 8.26705 0.742188 17.625C0.742188 26.983 8.43405 34.5 18.0096 34.5C26.6434 34.5 34.4922 28.3636 34.4922 17.625C34.4922 16.6278 34.3352 15.554 34.0998 14.5568Z" fill="white"/>
</mask>
<g mask="url(#mask2_3019_2633)">
<path d="M-0.828125 27.5965L22.7184 9.95446L28.919 10.7215L36.8463 -0.78418V36.034H-0.828125V27.5965Z" fill="#34A853"/>
</g>
<mask id="mask3_3019_2633" style="mask-type:luminance" maskUnits="userSpaceOnUse" x="0" y="0" width="35" height="35">
<path fill-rule="evenodd" clip-rule="evenodd" d="M34.0998 14.5568H18.0096V21.0767H27.2713C26.4079 25.2188 22.7974 27.5966 18.0096 27.5966C12.3585 27.5966 7.80614 23.1477 7.80614 17.625C7.80614 12.1023 12.3585 7.65341 18.0096 7.65341C20.4428 7.65341 22.6404 8.49716 24.3672 9.87784L29.3904 4.96875C26.3294 2.3608 22.405 0.75 18.0096 0.75C8.43405 0.75 0.742188 8.26705 0.742188 17.625C0.742188 26.983 8.43405 34.5 18.0096 34.5C26.6434 34.5 34.4922 28.3636 34.4922 17.625C34.4922 16.6278 34.3352 15.554 34.0998 14.5568Z" fill="white"/>
</mask>
<g mask="url(#mask3_3019_2633)">
<path d="M36.8537 36.034L12.5223 17.6249L9.38281 15.3238L36.8537 7.65332V36.034Z" fill="#4285F4"/>
</g>
</svg>
