<svg width="86" height="35" viewBox="0 0 86 35" fill="none" xmlns="http://www.w3.org/2000/svg">
<g clip-path="url(#clip0_125_3118)">
<mask id="mask0_125_3118" style="mask-type:luminance" maskUnits="userSpaceOnUse" x="0" y="0" width="86" height="35">
<path d="M86 0H0V35H86V0Z" fill="white"/>
</mask>
<g mask="url(#mask0_125_3118)">
<mask id="mask1_125_3118" style="mask-type:luminance" maskUnits="userSpaceOnUse" x="0" y="0" width="86" height="25">
<path d="M86 0H0V24.5783H86V0Z" fill="white"/>
</mask>
<g mask="url(#mask1_125_3118)">
<path d="M9.31388 13.9107H2.99885V20.6177H0V4.06885H2.99885V11.002H9.31388V4.06885H12.3121V20.6177H9.31388V13.9107Z" fill="#EFF4F5"/>
<path d="M21.9095 15.2687C21.9095 16.647 20.7959 17.7684 19.4291 17.7684C18.0619 17.7684 16.9491 16.647 16.9491 15.2687V8.18066H14.1094V15.2687C14.1094 18.2258 16.4958 20.6313 19.4291 20.6313C22.3617 20.6313 24.7482 18.2258 24.7482 15.2687V8.18066H21.9095V15.2687Z" fill="#EFF4F5"/>
<path d="M42.9782 8.91055C42.9782 7.45729 43.9322 6.99648 44.9768 6.99648C45.8179 6.99648 46.9308 7.64182 47.6568 8.42599L49.5192 6.21281C48.5884 4.94518 46.7036 4.06885 45.1585 4.06885C42.069 4.06885 39.8428 5.89026 39.8428 8.91055C39.8428 14.5124 46.6353 12.7368 46.6353 15.8729C46.6353 16.84 45.7041 17.6938 44.6371 17.6938C42.9554 17.6938 42.4099 16.8638 41.6379 15.9876L39.5703 18.1543C40.8886 19.7913 42.5237 20.6217 44.4773 20.6217C47.4076 20.6217 49.7705 18.7773 49.7705 15.8951C49.7705 9.67081 42.9782 11.6076 42.9782 8.91055Z" fill="#EFF4F5"/>
<path d="M84.9947 17.9735C83.3143 17.9735 82.8375 17.241 82.8375 16.1183V11.1489H85.4491V8.62984H82.8375V5.30859L79.9531 6.61384V16.7369C79.9531 19.3251 81.7241 20.6308 84.1541 20.6308C84.5174 20.6308 85.0178 20.6071 85.2906 20.5392L85.995 17.9285C85.6772 17.9506 85.3138 17.9735 84.9947 17.9735Z" fill="#EFF4F5"/>
<path d="M32.7368 8.26349C31.3283 8.26349 30.3451 8.67569 29.3956 9.61529V4.16748H26.5469V14.2639C26.5469 18.0429 29.2568 20.6311 32.3018 20.6311C35.6866 20.6311 38.6523 17.9969 38.6523 14.4476C38.6523 10.9432 35.9176 8.26349 32.7368 8.26349ZM32.7191 17.7406C30.9345 17.7406 29.488 16.2822 29.488 14.483C29.488 12.684 30.9345 11.2255 32.7191 11.2255C34.5035 11.2255 35.9501 12.684 35.9501 14.483C35.9501 16.2822 34.5035 17.7406 32.7191 17.7406Z" fill="#EFF4F5"/>
<path d="M63.66 14.2983C63.66 10.749 60.6943 8.11475 57.3095 8.11475C54.2645 8.11475 51.5547 10.7029 51.5547 14.482V24.5784H54.4036V19.1306C55.353 20.0702 56.3361 20.4824 57.7446 20.4824C60.9253 20.4824 63.66 17.8027 63.66 14.2983ZM60.9578 14.2628C60.9578 16.0619 59.5114 17.5203 57.7269 17.5203C55.9424 17.5203 54.496 16.0619 54.496 14.2628C54.496 12.4637 55.9424 11.0053 57.7269 11.0053C59.5114 11.0053 60.9578 12.4637 60.9578 14.2628Z" fill="#EFF4F5"/>
<path d="M72.8597 7.97553V5.09056C73.6068 4.73483 74.1303 3.97299 74.1303 3.08883V3.02217C74.1303 1.80207 73.1401 0.803773 71.9298 0.803773H71.8636C70.6537 0.803773 69.6634 1.80207 69.6634 3.02217V3.08883C69.6634 3.97299 70.1866 4.73491 70.9336 5.0906V7.97561C69.8215 8.1488 68.8055 8.61122 67.967 9.29178L60.1102 3.12989C60.1621 2.92923 60.1983 2.72249 60.1983 2.50553C60.2005 1.12354 59.0905 0.00178905 57.7195 1.99917e-06C56.349 -0.00172616 55.2361 1.11718 55.2344 2.49917C55.2327 3.88117 56.3427 5.00293 57.7132 5.00466C58.1601 5.00521 58.5736 4.87727 58.9362 4.66946L66.6648 10.731C66.0071 11.7313 65.6222 12.9295 65.6222 14.2193C65.6222 15.5697 66.0455 16.8186 66.7605 17.846L64.4102 20.2157C64.2243 20.1596 64.0317 20.1202 63.8276 20.1202C62.7012 20.1202 61.7877 21.0409 61.7877 22.1765C61.7877 23.3122 62.7012 24.2328 63.8276 24.2328C64.9541 24.2328 65.8672 23.3122 65.8672 22.1765C65.8672 21.9709 65.828 21.7764 65.7723 21.589L68.0973 19.2451C69.1525 20.0573 70.4665 20.5452 71.8969 20.5452C75.3622 20.5452 78.1711 17.713 78.1711 14.2193C78.1711 11.0566 75.8668 8.44377 72.8597 7.97553ZM71.8969 17.4625C70.1204 17.4625 68.6799 16.0104 68.6799 14.2193C68.6799 12.4281 70.1204 10.9761 71.8969 10.9761C73.6734 10.9761 75.1139 12.4281 75.1139 14.2193C75.1139 16.0104 73.6734 17.4625 71.8969 17.4625Z" fill="#FF521C"/>
</g>
<path d="M0 34.5859V28.2578H2.40421C2.89675 28.2578 3.30997 28.3484 3.64389 28.5297C3.97989 28.711 4.23348 28.9602 4.40459 29.2775C4.57781 29.5926 4.66445 29.9511 4.66445 30.3528C4.66445 30.7585 4.57781 31.119 4.40459 31.4342C4.23137 31.7494 3.97572 31.9976 3.63763 32.1789C3.29953 32.3581 2.88318 32.4477 2.38856 32.4477H0.795146V31.5053H2.23204C2.52004 31.5053 2.75587 31.4558 2.93953 31.357C3.12318 31.2581 3.25884 31.1221 3.34649 30.9491C3.43623 30.776 3.4811 30.5773 3.4811 30.3528C3.4811 30.1282 3.43623 29.9304 3.34649 29.7595C3.25884 29.5885 3.12214 29.4557 2.9364 29.3609C2.75274 29.2641 2.51587 29.2157 2.22578 29.2157H1.16141V34.5859H0Z" fill="#EFF4F5"/>
<path d="M5.625 34.586V29.8399H6.72382V30.6309H6.7739C6.86155 30.357 7.01179 30.1458 7.22468 29.9975C7.43964 29.8472 7.68487 29.772 7.96036 29.772C8.02297 29.772 8.09286 29.7751 8.17009 29.7813C8.24939 29.7854 8.31516 29.7926 8.3673 29.8029V30.8318C8.31933 30.8153 8.24315 30.8009 8.13877 30.7885C8.03654 30.7741 7.93739 30.7669 7.8414 30.7669C7.63479 30.7669 7.44904 30.8112 7.28417 30.8998C7.12136 30.9863 6.99303 31.1068 6.89911 31.2613C6.80518 31.4158 6.75826 31.594 6.75826 31.7959V34.586H5.625Z" fill="#EFF4F5"/>
<path d="M11.0228 34.6789C10.5532 34.6789 10.1463 34.5769 9.80193 34.373C9.45755 34.1691 9.19044 33.8837 9.00053 33.5171C8.81268 33.1504 8.71875 32.7219 8.71875 32.2317C8.71875 31.7414 8.81268 31.3119 9.00053 30.9432C9.19044 30.5745 9.45755 30.2881 9.80193 30.0842C10.1463 29.8803 10.5532 29.7783 11.0228 29.7783C11.4924 29.7783 11.8994 29.8803 12.2437 30.0842C12.588 30.2881 12.8541 30.5745 13.042 30.9432C13.2319 31.3119 13.3268 31.7414 13.3268 32.2317C13.3268 32.7219 13.2319 33.1504 13.042 33.5171C12.8541 33.8837 12.588 34.1691 12.2437 34.373C11.8994 34.5769 11.4924 34.6789 11.0228 34.6789ZM11.0291 33.7828C11.2837 33.7828 11.4965 33.7138 11.6677 33.5758C11.8388 33.4357 11.9661 33.2483 12.0496 33.0134C12.1352 32.7786 12.178 32.517 12.178 32.2286C12.178 31.9381 12.1352 31.6755 12.0496 31.4407C11.9661 31.2038 11.8388 31.0153 11.6677 30.8752C11.4965 30.7351 11.2837 30.6651 11.0291 30.6651C10.7682 30.6651 10.5511 30.7351 10.3779 30.8752C10.2068 31.0153 10.0784 31.2038 9.99286 31.4407C9.90939 31.6755 9.86765 31.9381 9.86765 32.2286C9.86765 32.517 9.90939 32.7786 9.99286 33.0134C10.0784 33.2483 10.2068 33.4357 10.3779 33.5758C10.5511 33.7138 10.7682 33.7828 11.0291 33.7828Z" fill="#EFF4F5"/>
<path d="M16.7175 29.8401V30.7053H13.875V29.8401H16.7175ZM14.5856 34.5862V29.392C14.5856 29.0728 14.6524 28.807 14.786 28.5948C14.9216 28.3827 15.1032 28.2241 15.3307 28.119C15.5582 28.014 15.8107 27.9614 16.0882 27.9614C16.2844 27.9614 16.4587 27.9769 16.611 28.0078C16.7634 28.0387 16.8761 28.0665 16.9491 28.0912L16.7237 28.9564C16.6757 28.942 16.6152 28.9276 16.5422 28.9131C16.4691 28.8966 16.3877 28.8884 16.298 28.8884C16.0872 28.8884 15.938 28.9389 15.8503 29.0398C15.7648 29.1387 15.722 29.2808 15.722 29.4662V34.5862H14.5856Z" fill="#EFF4F5"/>
<path d="M19.5541 34.6789C19.072 34.6789 18.6556 34.58 18.305 34.3823C17.9565 34.1824 17.6883 33.9002 17.5005 33.5356C17.3126 33.1689 17.2188 32.7374 17.2188 32.2409C17.2188 31.7527 17.3126 31.3243 17.5005 30.9555C17.6904 30.5848 17.9554 30.2964 18.2956 30.0904C18.6358 29.8823 19.0355 29.7783 19.4946 29.7783C19.791 29.7783 20.0705 29.8257 20.3335 29.9204C20.5985 30.0131 20.8324 30.1573 21.0347 30.353C21.2393 30.5487 21.3999 30.798 21.5168 31.1008C21.6337 31.4015 21.6922 31.76 21.6922 32.1761V32.519H17.7509V31.7651H20.6059C20.6038 31.5509 20.5569 31.3603 20.465 31.1935C20.3732 31.0246 20.2449 30.8917 20.08 30.7949C19.9172 30.6981 19.7273 30.6497 19.5103 30.6497C19.2786 30.6497 19.075 30.7053 18.8997 30.8165C18.7244 30.9257 18.5878 31.0699 18.4897 31.2491C18.3937 31.4262 18.3447 31.6209 18.3426 31.8331V32.4912C18.3426 32.7672 18.3937 33.0041 18.496 33.2019C18.5982 33.3976 18.7412 33.5479 18.9248 33.653C19.1085 33.756 19.3234 33.8075 19.5697 33.8075C19.7345 33.8075 19.8838 33.7849 20.0174 33.7395C20.151 33.6922 20.2668 33.6231 20.3649 33.5325C20.463 33.4419 20.5369 33.3296 20.587 33.1957L21.6453 33.3132C21.5785 33.5891 21.4512 33.8302 21.2633 34.0362C21.0776 34.2401 20.8397 34.3987 20.5496 34.512C20.2595 34.6232 19.9277 34.6789 19.5541 34.6789Z" fill="#EFF4F5"/>
<path d="M26.4507 31.0946L25.4177 31.2058C25.3885 31.1028 25.3373 31.006 25.2643 30.9154C25.1933 30.8247 25.0973 30.7516 24.9763 30.696C24.8553 30.6404 24.7071 30.6126 24.5318 30.6126C24.2959 30.6126 24.0977 30.663 23.937 30.764C23.7784 30.8649 23.7001 30.9957 23.7022 31.1564C23.7001 31.2944 23.7512 31.4067 23.8556 31.4932C23.962 31.5797 24.1373 31.6508 24.3815 31.7064L25.2017 31.8794C25.6567 31.9762 25.9948 32.1297 26.216 32.3398C26.4393 32.5499 26.552 32.8249 26.5541 33.1648C26.552 33.4635 26.4633 33.7272 26.288 33.9558C26.1148 34.1824 25.8737 34.3596 25.5648 34.4873C25.256 34.615 24.9012 34.6789 24.5005 34.6789C23.9119 34.6789 23.4382 34.5573 23.0792 34.3143C22.7203 34.0691 22.5063 33.7282 22.4375 33.2915L23.5426 33.1864C23.5926 33.4007 23.6991 33.5624 23.8619 33.6715C24.0246 33.7807 24.2365 33.8353 24.4973 33.8353C24.7666 33.8353 24.9826 33.7807 25.1454 33.6715C25.3102 33.5624 25.3927 33.4275 25.3927 33.2668C25.3927 33.1308 25.3395 33.0186 25.233 32.93C25.1287 32.8414 24.9659 32.7734 24.7447 32.726L23.9245 32.5561C23.4632 32.4613 23.122 32.3017 22.9008 32.0772C22.6796 31.8506 22.57 31.5642 22.5721 31.2182C22.57 30.9257 22.6504 30.6723 22.8131 30.4581C22.978 30.2418 23.2065 30.0749 23.4987 29.9575C23.793 29.838 24.1321 29.7783 24.5161 29.7783C25.0796 29.7783 25.5231 29.8967 25.8466 30.1336C26.1721 30.3705 26.3736 30.6909 26.4507 31.0946Z" fill="#EFF4F5"/>
<path d="M31.2945 31.0946L30.2615 31.2058C30.2323 31.1028 30.1812 31.006 30.1082 30.9154C30.0372 30.8247 29.9412 30.7516 29.8202 30.696C29.6991 30.6404 29.551 30.6126 29.3757 30.6126C29.1398 30.6126 28.9415 30.663 28.7808 30.764C28.6222 30.8649 28.5439 30.9957 28.546 31.1564C28.5439 31.2944 28.595 31.4067 28.6994 31.4932C28.8058 31.5797 28.9811 31.6508 29.2253 31.7064L30.0455 31.8794C30.5004 31.9762 30.8385 32.1297 31.0598 32.3398C31.2831 32.5499 31.3958 32.8249 31.3979 33.1648C31.3958 33.4635 31.3071 33.7272 31.1318 33.9558C30.9585 34.1824 30.7175 34.3596 30.4086 34.4873C30.0997 34.615 29.745 34.6789 29.3442 34.6789C28.7557 34.6789 28.282 34.5573 27.923 34.3143C27.564 34.0691 27.3501 33.7282 27.2812 33.2915L28.3863 33.1864C28.4364 33.4007 28.5429 33.5624 28.7057 33.6715C28.8685 33.7807 29.0804 33.8353 29.3412 33.8353C29.6104 33.8353 29.8264 33.7807 29.9893 33.6715C30.1541 33.5624 30.2365 33.4275 30.2365 33.2668C30.2365 33.1308 30.1832 33.0186 30.0768 32.93C29.9725 32.8414 29.8096 32.7734 29.5884 32.726L28.7682 32.5561C28.307 32.4613 27.9658 32.3017 27.7446 32.0772C27.5234 31.8506 27.4138 31.5642 27.4159 31.2182C27.4138 30.9257 27.4941 30.6723 27.6569 30.4581C27.8219 30.2418 28.0504 30.0749 28.3426 29.9575C28.6369 29.838 28.9759 29.7783 29.3599 29.7783C29.9234 29.7783 30.3669 29.8967 30.6903 30.1336C31.0159 30.3705 31.2174 30.6909 31.2945 31.0946Z" fill="#EFF4F5"/>
<path d="M32.322 34.5862V29.8401H33.4552V34.5862H32.322ZM32.8918 29.1665C32.7123 29.1665 32.5578 29.1078 32.4285 28.9904C32.299 28.8709 32.2344 28.7277 32.2344 28.5609C32.2344 28.392 32.299 28.2488 32.4285 28.1314C32.5578 28.0119 32.7123 27.9521 32.8918 27.9521C33.0733 27.9521 33.2278 28.0119 33.3551 28.1314C33.4845 28.2488 33.5492 28.392 33.5492 28.5609C33.5492 28.7277 33.4845 28.8709 33.3551 28.9904C33.2278 29.1078 33.0733 29.1665 32.8918 29.1665Z" fill="#EFF4F5"/>
<path d="M36.7259 34.6789C36.2563 34.6789 35.8494 34.5769 35.505 34.373C35.1607 34.1691 34.8935 33.8837 34.7036 33.5171C34.5158 33.1504 34.4219 32.7219 34.4219 32.2317C34.4219 31.7414 34.5158 31.3119 34.7036 30.9432C34.8935 30.5745 35.1607 30.2881 35.505 30.0842C35.8494 29.8803 36.2563 29.7783 36.7259 29.7783C37.1955 29.7783 37.6024 29.8803 37.9468 30.0842C38.2912 30.2881 38.5573 30.5745 38.7451 30.9432C38.935 31.3119 39.03 31.7414 39.03 32.2317C39.03 32.7219 38.935 33.1504 38.7451 33.5171C38.5573 33.8837 38.2912 34.1691 37.9468 34.373C37.6024 34.5769 37.1955 34.6789 36.7259 34.6789ZM36.7322 33.7828C36.9868 33.7828 37.1997 33.7138 37.3708 33.5758C37.5419 33.4357 37.6692 33.2483 37.7527 33.0134C37.8383 32.7786 37.8811 32.517 37.8811 32.2286C37.8811 31.9381 37.8383 31.6755 37.7527 31.4407C37.6692 31.2038 37.5419 31.0153 37.3708 30.8752C37.1997 30.7351 36.9868 30.6651 36.7322 30.6651C36.4713 30.6651 36.2543 30.7351 36.081 30.8752C35.9099 31.0153 35.7816 31.2038 35.696 31.4407C35.6125 31.6755 35.5708 31.9381 35.5708 32.2286C35.5708 32.517 35.6125 32.7786 35.696 33.0134C35.7816 33.2483 35.9099 33.4357 36.081 33.5758C36.2543 33.7138 36.4713 33.7828 36.7322 33.7828Z" fill="#EFF4F5"/>
<path d="M41.1176 31.8053V34.5862H39.9844V29.8401H41.0675V30.6466H41.1238C41.2345 30.3808 41.4108 30.1697 41.6529 30.0131C41.8971 29.8566 42.1988 29.7783 42.5575 29.7783C42.8893 29.7783 43.1785 29.8483 43.4247 29.9884C43.673 30.1285 43.8653 30.3314 44.0006 30.5971C44.1384 30.8629 44.2063 31.1852 44.2042 31.5642V34.5862H43.071V31.7373C43.071 31.4201 42.9875 31.1718 42.8206 30.9926C42.6558 30.8134 42.4273 30.7238 42.135 30.7238C41.9367 30.7238 41.7604 30.7671 41.6059 30.8536C41.4536 30.938 41.3336 31.0606 41.246 31.2213C41.1604 31.382 41.1176 31.5766 41.1176 31.8053Z" fill="#EFF4F5"/>
<path d="M46.7498 34.6819C46.445 34.6819 46.1705 34.6284 45.9264 34.5213C45.6844 34.4121 45.4922 34.2514 45.3506 34.0393C45.2106 33.8271 45.1406 33.5655 45.1406 33.2544C45.1406 32.9866 45.1908 32.7652 45.2911 32.5901C45.391 32.415 45.528 32.2749 45.7009 32.1699C45.8742 32.0648 46.0693 31.9855 46.2864 31.932C46.5057 31.8763 46.732 31.8362 46.9656 31.8114C47.2476 31.7826 47.4761 31.7569 47.6515 31.7342C47.8269 31.7095 47.9542 31.6724 48.0334 31.6229C48.1148 31.5715 48.1553 31.4921 48.1553 31.385V31.3665C48.1553 31.1337 48.0853 30.9535 47.9457 30.8258C47.8058 30.6981 47.6043 30.6342 47.3416 30.6342C47.0638 30.6342 46.8438 30.6939 46.681 30.8134C46.5204 30.9329 46.4117 31.074 46.3552 31.2367L45.297 31.0884C45.3805 30.8 45.5183 30.559 45.7106 30.3654C45.9024 30.1697 46.1372 30.0234 46.4146 29.9266C46.6924 29.8277 46.9993 29.7783 47.3353 29.7783C47.5668 29.7783 47.7974 29.8051 48.0271 29.8587C48.2564 29.9122 48.4664 30.0008 48.6561 30.1244C48.8462 30.2459 48.9984 30.4117 49.1135 30.6218C49.2303 30.8319 49.2884 31.0946 49.2884 31.4097V34.5862H48.1991V33.9342H48.1616C48.0929 34.066 47.9959 34.1896 47.8703 34.305C47.7472 34.4183 47.592 34.5099 47.404 34.58C47.2181 34.648 47.0002 34.6819 46.7498 34.6819ZM47.044 33.86C47.2717 33.86 47.4689 33.8158 47.6359 33.7272C47.8028 33.6365 47.931 33.5171 48.0208 33.3688C48.1127 33.2204 48.1586 33.0587 48.1586 32.8836V32.3244C48.1232 32.3532 48.0625 32.38 47.9769 32.4047C47.8935 32.4294 47.7995 32.4511 47.6953 32.4696C47.5908 32.4881 47.4875 32.5046 47.3855 32.519C47.283 32.5335 47.1945 32.5458 47.119 32.5561C46.95 32.5788 46.7987 32.6158 46.6654 32.6673C46.5318 32.7188 46.4264 32.7909 46.3493 32.8836C46.2717 32.9743 46.2333 33.0917 46.2333 33.2359C46.2333 33.4419 46.3092 33.5974 46.4618 33.7025C46.614 33.8075 46.8084 33.86 47.044 33.86Z" fill="#EFF4F5"/>
<path d="M51.5555 28.2578V34.5859H50.4219V28.2578H51.5555Z" fill="#EFF4F5"/>
<path d="M54.9609 34.5859V28.2578H57.3651C57.8575 28.2578 58.2707 28.3484 58.6046 28.5297C58.9405 28.711 59.1943 28.9602 59.3655 29.2775C59.5388 29.5926 59.6252 29.9511 59.6252 30.3528C59.6252 30.7585 59.5388 31.119 59.3655 31.4342C59.1922 31.7494 58.9363 31.9976 58.5982 32.1789C58.2601 32.3581 57.844 32.4477 57.3491 32.4477H55.756V31.5053H57.1927C57.4807 31.5053 57.7167 31.4558 57.9001 31.357C58.0839 31.2581 58.2197 31.1221 58.3074 30.9491C58.3971 30.776 58.4418 30.5773 58.4418 30.3528C58.4418 30.1282 58.3971 29.9304 58.3074 29.7595C58.2197 29.5885 58.0831 29.4557 57.8972 29.3609C57.7134 29.2641 57.4764 29.2157 57.1864 29.2157H56.1219V34.5859H54.9609Z" fill="#EFF4F5"/>
<path d="M61.8748 34.6819C61.57 34.6819 61.2955 34.6284 61.0514 34.5213C60.8094 34.4121 60.6172 34.2514 60.4756 34.0393C60.3356 33.8271 60.2656 33.5655 60.2656 33.2544C60.2656 32.9866 60.3158 32.7652 60.4161 32.5901C60.516 32.415 60.6531 32.2749 60.8259 32.1699C60.9992 32.0648 61.1943 31.9855 61.4114 31.932C61.6307 31.8763 61.857 31.8362 62.091 31.8114C62.3726 31.7826 62.6011 31.7569 62.7765 31.7342C62.9519 31.7095 63.0792 31.6724 63.1584 31.6229C63.2398 31.5715 63.2803 31.4921 63.2803 31.385V31.3665C63.2803 31.1337 63.2103 30.9535 63.0707 30.8258C62.9308 30.6981 62.7293 30.6342 62.4666 30.6342C62.1888 30.6342 61.9688 30.6939 61.806 30.8134C61.6454 30.9329 61.5367 31.074 61.4802 31.2367L60.4225 31.0884C60.5059 30.8 60.6434 30.559 60.8356 30.3654C61.0274 30.1697 61.2622 30.0234 61.54 29.9266C61.8174 29.8277 62.1243 29.7783 62.4603 29.7783C62.6918 29.7783 62.9224 29.8051 63.1521 29.8587C63.3814 29.9122 63.5914 30.0008 63.7811 30.1244C63.9712 30.2459 64.1234 30.4117 64.2385 30.6218C64.3553 30.8319 64.4134 31.0946 64.4134 31.4097V34.5862H63.3241V33.9342H63.2866C63.2179 34.066 63.1209 34.1896 62.9957 34.305C62.8722 34.4183 62.717 34.5099 62.529 34.58C62.3435 34.648 62.1252 34.6819 61.8748 34.6819ZM62.169 33.86C62.3967 33.86 62.594 33.8158 62.7609 33.7272C62.9278 33.6365 63.056 33.5171 63.1458 33.3688C63.2377 33.2204 63.2836 33.0587 63.2836 32.8836V32.3244C63.2482 32.3532 63.1875 32.38 63.1019 32.4047C63.0185 32.4294 62.9245 32.4511 62.8203 32.4696C62.7158 32.4881 62.6125 32.5046 62.5105 32.519C62.408 32.5335 62.3195 32.5458 62.2441 32.5561C62.075 32.5788 61.9237 32.6158 61.7904 32.6673C61.6568 32.7188 61.5514 32.7909 61.4743 32.8836C61.3967 32.9743 61.3583 33.0917 61.3583 33.2359C61.3583 33.4419 61.4346 33.5974 61.5868 33.7025C61.739 33.8075 61.9334 33.86 62.169 33.86Z" fill="#EFF4F5"/>
<path d="M65.5625 34.586V29.8399H66.6615V30.6309H66.7117C66.7994 30.357 66.9495 30.1458 67.1624 29.9975C67.3774 29.8472 67.6227 29.772 67.898 29.772C67.9608 29.772 68.0304 29.7751 68.1079 29.7813C68.1872 29.7854 68.253 29.7926 68.3048 29.8029V30.8318C68.2572 30.8153 68.1809 30.8009 68.0763 30.7885C67.9743 30.7741 67.8752 30.7669 67.7791 30.7669C67.5725 30.7669 67.3866 30.8112 67.2218 30.8998C67.0591 30.9863 66.9309 31.1068 66.8369 31.2613C66.7429 31.4158 66.6961 31.594 66.6961 31.7959V34.586H65.5625Z" fill="#EFF4F5"/>
<path d="M71.7173 29.8397V30.7049H68.9531V29.8397H71.7173ZM69.6352 28.7026H70.7688V33.1583C70.7688 33.3086 70.7916 33.424 70.8375 33.5043C70.8856 33.5826 70.948 33.6362 71.0251 33.665C71.1027 33.6938 71.1883 33.7083 71.2819 33.7083C71.3531 33.7083 71.4176 33.7031 71.4762 33.6928C71.5365 33.6825 71.5824 33.6732 71.6141 33.665L71.805 34.5395C71.7443 34.56 71.6579 34.5827 71.5449 34.6074C71.4345 34.6321 71.2987 34.6466 71.1381 34.6507C70.8544 34.6589 70.5985 34.6167 70.3713 34.524C70.1436 34.4292 69.9632 34.283 69.8296 34.0852C69.698 33.8875 69.6331 33.6403 69.6352 33.3436V28.7026Z" fill="#EFF4F5"/>
<path d="M73.7972 31.8053V34.5862H72.6641V29.8401H73.7471V30.6466H73.8036C73.914 30.3808 74.0902 30.1697 74.3326 30.0131C74.5767 29.8566 74.8781 29.7783 75.2373 29.7783C75.5691 29.7783 75.8583 29.8483 76.1045 29.9884C76.3528 30.1285 76.5446 30.3314 76.6804 30.5971C76.8182 30.8629 76.8861 31.1852 76.884 31.5642V34.5862H75.7508V31.7373C75.7508 31.4201 75.6673 31.1718 75.5004 30.9926C75.3351 30.8134 75.1066 30.7238 74.8145 30.7238C74.6163 30.7238 74.4401 30.7671 74.2854 30.8536C74.1332 30.938 74.0131 31.0606 73.9254 31.2213C73.8398 31.382 73.7972 31.5766 73.7972 31.8053Z" fill="#EFF4F5"/>
<path d="M80.1636 34.6789C79.6813 34.6789 79.2653 34.58 78.9145 34.3823C78.5659 34.1824 78.2978 33.9002 78.1102 33.5356C77.9221 33.1689 77.8281 32.7374 77.8281 32.2409C77.8281 31.7527 77.9221 31.3243 78.1102 30.9555C78.2999 30.5848 78.565 30.2964 78.9052 30.0904C79.2454 29.8823 79.6451 29.7783 80.1042 29.7783C80.4005 29.7783 80.68 29.8257 80.9431 29.9204C81.2083 30.0131 81.4418 30.1573 81.6442 30.353C81.849 30.5487 82.0097 30.798 82.1264 31.1008C82.2432 31.4015 82.3018 31.76 82.3018 32.1761V32.519H78.3606V31.7651H81.2154C81.2133 31.5509 81.1665 31.3603 81.0746 31.1935C80.9827 31.0246 80.8546 30.8917 80.6897 30.7949C80.5266 30.6981 80.3369 30.6497 80.1198 30.6497C79.8883 30.6497 79.6847 30.7053 79.5093 30.8165C79.334 30.9257 79.1974 31.0699 79.0992 31.2491C79.0035 31.4262 78.9541 31.6209 78.952 31.8331V32.4912C78.952 32.7672 79.0035 33.0041 79.1055 33.2019C79.2079 33.3976 79.3508 33.5479 79.5342 33.653C79.718 33.756 79.933 33.8075 80.1792 33.8075C80.3441 33.8075 80.4933 33.7849 80.6269 33.7395C80.7606 33.6922 80.8765 33.6231 80.9743 33.5325C81.0725 33.4419 81.1467 33.3296 81.1969 33.1957L82.2546 33.3132C82.188 33.5891 82.0607 33.8302 81.8731 34.0362C81.6872 34.2401 81.4494 34.3987 81.1589 34.512C80.8689 34.6232 80.5371 34.6789 80.1636 34.6789Z" fill="#EFF4F5"/>
<path d="M83.2578 34.586V29.8399H84.3564V30.6309H84.4066C84.4943 30.357 84.6448 30.1458 84.8577 29.9975C85.0722 29.8472 85.3176 29.772 85.5933 29.772C85.6557 29.772 85.7257 29.7751 85.8028 29.7813C85.8821 29.7854 85.9478 29.7926 86.0001 29.8029V30.8318C85.9521 30.8153 85.8758 30.8009 85.7716 30.7885C85.6692 30.7741 85.5701 30.7669 85.474 30.7669C85.2674 30.7669 85.0819 30.8112 84.9171 30.8998C84.7544 30.9863 84.6258 31.1068 84.5318 31.2613C84.4382 31.4158 84.391 31.594 84.391 31.7959V34.586H83.2578Z" fill="#EFF4F5"/>
</g>
</g>
<defs>
<clipPath id="clip0_125_3118">
<rect width="86" height="35" fill="white"/>
</clipPath>
</defs>
</svg>
