<svg width="142" height="35" viewBox="0 0 142 35" fill="none" xmlns="http://www.w3.org/2000/svg">
<g clip-path="url(#clip0_125_3153)">
<mask id="mask0_125_3153" style="mask-type:luminance" maskUnits="userSpaceOnUse" x="0" y="0" width="142" height="35">
<path d="M142 0H0V35H142V0Z" fill="white"/>
</mask>
<g mask="url(#mask0_125_3153)">
<path d="M21.0557 15.6821H18.0469V33.9834H21.0557V15.6821Z" fill="#EFF4F5"/>
<path d="M31.1514 27.7792C31.2022 28.6483 30.8938 29.4981 30.3061 30.1082C29.7184 30.7183 28.9092 31.0288 28.0881 30.9592C26.3258 30.9592 26.0306 29.2522 26.0306 28.2084V20.7656H23.0686V28.189C22.998 29.7995 23.5396 31.3731 24.5727 32.559C25.5184 33.4865 26.771 33.984 28.0604 33.9442C29.1701 33.9668 30.2561 33.6036 31.1514 32.9102V33.9832H34.0949V20.7656H31.1514V27.7792Z" fill="#EFF4F5"/>
<path d="M41.0246 16.6987H38.2146V21.2086H36.1094V24.2183H38.2146V33.9833H41.0246V24.2183H43.1299V21.2086H41.0246V16.6987Z" fill="#EFF4F5"/>
<path d="M52.7435 30.107C52.0944 30.7281 51.2505 31.0708 50.3761 31.0685C49.4384 31.0984 48.5309 30.7153 47.8693 30.0103C47.2077 29.3052 46.851 28.3412 46.8839 27.3474C46.8468 26.359 47.2046 25.4 47.8696 24.7062C48.5344 24.0123 49.4446 23.648 50.3761 23.7031C51.2491 23.6934 52.096 24.0177 52.7615 24.6165L53.1969 25.0204L55.1471 22.953L54.6573 22.4915C53.4818 21.3733 51.9554 20.7597 50.3761 20.7703C48.7103 20.7029 47.0928 21.3714 45.9097 22.6164C44.7267 23.8615 44.0842 25.5714 44.1357 27.3377C44.0959 29.1075 44.7395 30.8177 45.9178 32.0723C47.0961 33.3268 48.7065 34.0166 50.3761 33.982C51.9692 33.9997 53.5102 33.382 54.6936 32.2512L55.1653 31.7801L53.1606 29.6838L52.7435 30.107Z" fill="#EFF4F5"/>
<path d="M64.8893 22.6186C63.2813 21.0135 60.7613 20.8722 58.9919 22.2879V15.6821H56.1641V33.9834H58.9919V27.1205C58.9919 24.3642 60.9394 24.0978 61.6216 24.0978C63.3362 24.0978 63.2824 25.7423 63.2824 26.7254V33.9834H66.1728V26.7438C66.2993 25.2486 65.8373 23.7637 64.8893 22.6186Z" fill="#EFF4F5"/>
<path d="M50.4434 29.4078C51.5513 29.4078 52.4494 28.4973 52.4494 27.3743C52.4494 26.2513 51.5513 25.3408 50.4434 25.3408C49.3356 25.3408 48.4375 26.2513 48.4375 27.3743C48.4375 28.4973 49.3356 29.4078 50.4434 29.4078Z" fill="#FF521C"/>
<path d="M13.4787 30.3017C12.2951 31.4673 10.671 32.1189 8.97934 32.1071C5.4993 32.1071 2.94083 29.4888 2.94083 25.8683C2.94083 22.2478 5.46993 19.6011 8.94994 19.6011C10.6325 19.5962 12.2467 20.2433 13.4298 21.397L13.9101 21.8603L16.0274 19.8184L15.5667 19.3552C13.8401 17.6384 11.4595 16.6784 8.97934 16.6991C3.85251 16.7273 0 20.6597 0 25.8871C0 31.1147 3.92111 34.9997 8.97934 34.9997C11.4663 35.0164 13.8527 34.0537 15.5863 32.3341L16.0471 31.8803L13.9689 29.829L13.4787 30.3017Z" fill="#EFF4F5"/>
<path d="M83.9632 9.12139L80.9535 10.9507C80.7876 11.0553 80.5746 11.0478 80.4166 10.9316C80.2585 10.8154 80.1864 10.6141 80.2357 10.4236L81.0073 6.99772L78.3603 4.67234C78.2144 4.5434 78.159 4.33958 78.2194 4.15419C78.2799 3.96881 78.4446 3.83737 78.6377 3.81978L82.1266 3.52517L83.5234 0.300786C83.5966 0.119078 83.7719 0 83.9671 0C84.1624 0 84.3382 0.119078 84.4108 0.300786L85.7848 3.53302L89.2732 3.8275C89.4657 3.84771 89.6277 3.98021 89.6859 4.16513C89.7447 4.34992 89.6887 4.55207 89.5434 4.68018L86.9036 7.00544L87.6757 10.4313C87.7196 10.6224 87.6452 10.8213 87.4866 10.9362C87.3285 11.0511 87.1172 11.0599 86.9502 10.9584L83.9632 9.12139Z" fill="#FF521C"/>
<path d="M96.9165 9.12139L93.9062 10.9507C93.7403 11.0553 93.5279 11.0478 93.3692 10.9316C93.2111 10.8154 93.1396 10.6141 93.1884 10.4236L93.9605 6.99772L91.313 4.67234C91.1671 4.5434 91.1122 4.33958 91.1727 4.15419C91.2331 3.96881 91.3973 3.83737 91.5909 3.81978L95.0793 3.52517L96.4766 0.300786C96.5492 0.119078 96.7251 0 96.9203 0C97.1156 0 97.2909 0.119078 97.3641 0.300786L98.738 3.53302L102.226 3.8275C102.418 3.84771 102.58 3.98021 102.639 4.16513C102.697 4.34992 102.641 4.55207 102.497 4.68018L99.8568 7.00544L100.628 10.4313C100.672 10.6224 100.598 10.8213 100.44 10.9362C100.282 11.0511 100.07 11.0599 99.9029 10.9584L96.9165 9.12139Z" fill="#FF521C"/>
<path d="M110.347 9.12139L107.335 10.9507C107.17 11.0553 106.957 11.0478 106.8 10.9316C106.641 10.8154 106.569 10.6141 106.618 10.4236L107.39 6.99772L104.743 4.67234C104.598 4.5434 104.541 4.33958 104.602 4.15419C104.662 3.96881 104.828 3.83737 105.021 3.81978L108.51 3.52517L109.906 0.300786C109.979 0.119078 110.154 0 110.351 0C110.545 0 110.721 0.119078 110.794 0.300786L112.168 3.53302L115.657 3.8275C115.848 3.84771 116.01 3.98021 116.069 4.16513C116.127 4.34992 116.071 4.55207 115.926 4.68018L113.286 7.00544L114.059 10.4313C114.102 10.6224 114.028 10.8213 113.87 10.9362C113.712 11.0511 113.5 11.0599 113.333 10.9584L110.347 9.12139Z" fill="#FF521C"/>
<path d="M123.3 9.12139L120.29 10.9507C120.124 11.0553 119.911 11.0478 119.753 10.9316C119.594 10.8154 119.523 10.6141 119.572 10.4236L120.343 6.99772L117.696 4.67234C117.55 4.5434 117.494 4.33958 117.556 4.15419C117.615 3.96881 117.781 3.83737 117.974 3.81978L121.463 3.52517L122.859 0.300786C122.934 0.119078 123.109 0 123.304 0C123.499 0 123.675 0.119078 123.747 0.300786L125.121 3.53302L128.61 3.8275C128.802 3.84771 128.964 3.98021 129.022 4.16513C129.081 4.34992 129.025 4.55207 128.88 4.68018L126.24 7.00544L127.012 10.4313C127.056 10.6224 126.981 10.8213 126.823 10.9362C126.664 11.0511 126.454 11.0599 126.286 10.9584L123.3 9.12139Z" fill="#FF521C"/>
<path d="M136.253 9.12139L133.243 10.9507C133.076 11.0553 132.863 11.0478 132.706 10.9316C132.547 10.8154 132.476 10.6141 132.525 10.4236L133.296 6.99772L130.649 4.67234C130.503 4.5434 130.448 4.33958 130.508 4.15419C130.569 3.96881 130.733 3.83737 130.927 3.81978L134.415 3.52517L135.812 0.300786C135.886 0.119078 136.062 0 136.256 0C136.452 0 136.627 0.119078 136.7 0.300786L138.074 3.53302L141.563 3.8275C141.755 3.84771 141.917 3.98021 141.975 4.16513C142.034 4.34992 141.978 4.55207 141.833 4.68018L139.194 7.00544L139.965 10.4313C140.009 10.6224 139.934 10.8213 139.777 10.9362C139.618 11.0511 139.407 11.0599 139.24 10.9584L136.253 9.12139Z" fill="#FF521C"/>
<path d="M78.2031 33.9144V33.049L80.9732 30.2751C81.2688 29.9738 81.5129 29.7098 81.7043 29.4832C81.899 29.2539 82.0443 29.0363 82.1402 28.8302C82.2362 28.6242 82.2839 28.4053 82.2839 28.1734C82.2839 27.9107 82.2201 27.6841 82.092 27.4935C81.9644 27.3003 81.7897 27.1522 81.5684 27.0492C81.3476 26.9436 81.0985 26.8908 80.8212 26.8908C80.5283 26.8908 80.2721 26.9488 80.0535 27.0647C79.8355 27.1805 79.6674 27.3441 79.5499 27.5553C79.4328 27.7665 79.374 28.0138 79.374 28.297H78.1953C78.1953 27.8154 78.3096 27.3943 78.5387 27.0337C78.7683 26.6732 79.0823 26.3937 79.4822 26.1954C79.8821 25.9945 80.3364 25.894 80.8451 25.894C81.3592 25.894 81.8124 25.9932 82.204 26.1915C82.5984 26.3873 82.9063 26.6551 83.1276 26.9951C83.3489 27.3325 83.4593 27.7137 83.4593 28.1387C83.4593 28.4323 83.4022 28.7195 83.2873 29.0002C83.1753 29.2809 82.9795 29.5939 82.6999 29.939C82.4198 30.2815 82.031 30.6975 81.5329 31.1869L79.906 32.8327V32.8907H83.5913V33.9144H78.2031Z" fill="#EFF4F5"/>
<path d="M88.2141 26.0024V33.9147H86.975V27.2001H86.9268L84.9688 28.4364V27.2928L87.011 26.0024H88.2141Z" fill="#EFF4F5"/>
<path d="M93.5156 33.9147V26.0024H96.4333C97.0678 26.0024 97.5937 26.1081 98.0125 26.3192C98.4335 26.5304 98.748 26.8228 98.9554 27.1962C99.1634 27.5671 99.2672 27.9959 99.2672 28.4827C99.2672 28.9669 99.1623 29.3932 98.9516 29.7616C98.7436 30.1273 98.429 30.4119 98.008 30.6153C97.5898 30.8188 97.0634 30.9206 96.4294 30.9206H94.219V29.8929H96.3173C96.7173 29.8929 97.0423 29.8375 97.293 29.7268C97.546 29.616 97.7313 29.4551 97.8483 29.2438C97.9659 29.0326 98.0241 28.7789 98.0241 28.4827C98.0241 28.184 97.9642 27.9251 97.8444 27.7062C97.7274 27.4873 97.5421 27.3198 97.2886 27.2039C97.0384 27.0855 96.709 27.0262 96.3013 27.0262H94.7509V33.9147H93.5156ZM97.5565 30.3449L99.5789 33.9147H98.1722L96.1898 30.3449H97.5565Z" fill="#EFF4F5"/>
<path d="M100.773 33.9147V26.0024H105.905V27.0301H102.008V29.4409H105.637V30.4647H102.008V32.887H105.954V33.9147H100.773Z" fill="#EFF4F5"/>
<path d="M108.272 26.0024L110.551 32.4466H110.642L112.921 26.0024H114.256L111.31 33.9147H109.883L106.938 26.0024H108.272Z" fill="#EFF4F5"/>
<path d="M116.672 26.0024V33.9147H115.438V26.0024H116.672Z" fill="#EFF4F5"/>
<path d="M118.469 33.9147V26.0024H123.601V27.0301H119.704V29.4409H123.333V30.4647H119.704V32.887H123.649V33.9147H118.469Z" fill="#EFF4F5"/>
<path d="M126.848 33.9147L124.578 26.0024H125.877L127.472 32.1298H127.548L129.207 26.0024H130.494L132.153 32.1337H132.229L133.82 26.0024H135.123L132.849 33.9147H131.605L129.883 27.9882H129.819L128.096 33.9147H126.848Z" fill="#EFF4F5"/>
<path d="M140.695 28.0807C140.652 27.715 140.476 27.4317 140.167 27.2308C139.858 27.0273 139.469 26.9255 139 26.9255C138.664 26.9255 138.373 26.977 138.128 27.0801C137.883 27.1805 137.693 27.3196 137.557 27.4973C137.424 27.6725 137.357 27.8721 137.357 28.0962C137.357 28.2842 137.402 28.4464 137.493 28.5829C137.586 28.7195 137.707 28.8341 137.857 28.9268C138.009 29.0169 138.171 29.0929 138.344 29.1548C138.518 29.214 138.684 29.2629 138.844 29.3015L139.643 29.5024C139.904 29.5643 140.172 29.648 140.447 29.7535C140.721 29.8592 140.976 29.9983 141.21 30.1708C141.445 30.3434 141.634 30.5572 141.778 30.8122C141.925 31.0671 141.998 31.3723 141.998 31.7278C141.998 32.1759 141.877 32.5739 141.638 32.9215C141.401 33.2693 141.055 33.5435 140.603 33.7445C140.152 33.9454 139.608 34.0458 138.968 34.0458C138.355 34.0458 137.825 33.9518 137.377 33.7638C136.93 33.5758 136.579 33.3092 136.326 32.964C136.073 32.6163 135.933 32.2043 135.906 31.7278H137.145C137.169 32.0137 137.265 32.2519 137.433 32.4425C137.604 32.6305 137.82 32.7709 138.085 32.8636C138.351 32.9538 138.643 32.9988 138.96 32.9988C139.309 32.9988 139.619 32.946 139.891 32.8404C140.166 32.7323 140.381 32.5829 140.538 32.3923C140.696 32.1991 140.775 31.9737 140.775 31.7162C140.775 31.4818 140.705 31.2899 140.567 31.1405C140.431 30.9912 140.246 30.8675 140.011 30.7697C139.779 30.6718 139.517 30.5855 139.224 30.5108L138.256 30.2558C137.601 30.0833 137.081 29.8295 136.698 29.4947C136.317 29.1599 136.126 28.7169 136.126 28.1657C136.126 27.7098 136.254 27.3119 136.51 26.9719C136.765 26.6319 137.112 26.3679 137.549 26.1799C137.986 25.9893 138.479 25.894 139.028 25.894C139.582 25.894 140.071 25.988 140.495 26.176C140.921 26.3641 141.257 26.6229 141.502 26.9526C141.747 27.2797 141.875 27.6558 141.886 28.0807H140.695Z" fill="#EFF4F5"/>
<path d="M0 6.6239V0.0893555H2.54579C3.09912 0.0893555 3.55829 0.176568 3.9233 0.350993C4.29064 0.525418 4.56498 0.766849 4.74633 1.07528C4.92767 1.38159 5.01834 1.73575 5.01834 2.13778C5.01834 2.53768 4.92651 2.88973 4.74284 3.1939C4.5615 3.49595 4.28715 3.731 3.91982 3.89905C3.5548 4.06709 3.09563 4.15112 2.5423 4.15112H0.613778V3.30239H2.44465C2.79339 3.30239 3.07703 3.25665 3.29558 3.16519C3.51644 3.07372 3.67803 2.94078 3.78032 2.76635C3.88262 2.59193 3.93377 2.3824 3.93377 2.13778C3.93377 1.89104 3.88145 1.67726 3.77683 1.49645C3.67454 1.31565 3.51296 1.17738 3.29209 1.08166C3.07355 0.983816 2.78642 0.934888 2.43071 0.934888H1.0776V6.6239H0ZM3.52574 3.6757L5.29036 6.6239H4.0628L2.33306 3.6757H3.52574Z" fill="#EFF4F5"/>
<path d="M6.32812 6.6239V0.0893555H10.806V0.938083H7.40573V2.92908H10.5723V3.77461H7.40573V5.77518H10.8478V6.6239H6.32812Z" fill="#EFF4F5"/>
<path d="M12.8679 0.0893555L14.8557 5.41144H14.9359L16.9237 0.0893555H18.0885L15.5183 6.6239H14.2733L11.7031 0.0893555H12.8679Z" fill="#EFF4F5"/>
<path d="M20.2026 0.0893555V6.6239H19.125V0.0893555H20.2026Z" fill="#EFF4F5"/>
<path d="M21.7656 6.6239V0.0893555H26.2434V0.938083H22.8432V2.92908H26.0098V3.77461H22.8432V5.77518H26.2853V6.6239H21.7656Z" fill="#EFF4F5"/>
<path d="M29.0902 6.6239L27.1094 0.0893555H28.2428L29.6343 5.1498H29.7005L31.1478 0.0893555H32.2707L33.718 5.15299H33.7842L35.1722 0.0893555H36.3091L34.3247 6.6239H33.2402L31.7371 1.72938H31.6813L30.1782 6.6239H29.0902Z" fill="#EFF4F5"/>
<path d="M37.2812 6.6239V0.0893555H41.759V0.938083H38.3588V2.92908H41.5254V3.77461H38.3588V5.77518H41.8009V6.6239H37.2812Z" fill="#EFF4F5"/>
<path d="M45.5153 6.6239H43.2031V0.0893555H45.5885C46.2883 0.0893555 46.8893 0.220174 47.3915 0.481812C47.8937 0.741322 48.2785 1.11463 48.5458 1.60174C48.8155 2.08673 48.9504 2.6685 48.9504 3.34706C48.9504 4.02774 48.8143 4.6127 48.5423 5.10194C48.2726 5.59118 47.882 5.96768 47.3705 6.23146C46.8591 6.49307 46.2407 6.6239 45.5153 6.6239ZM44.2807 5.7624H45.456C46 5.7624 46.4522 5.66885 46.8126 5.48163C47.173 5.29232 47.4427 5.01898 47.6217 4.66163C47.8007 4.30214 47.8902 3.86395 47.8902 3.34706C47.8902 2.83442 47.8007 2.39942 47.6217 2.04206C47.445 1.6847 47.1811 1.41349 46.83 1.22843C46.4789 1.04337 46.043 0.950844 45.5223 0.950844H44.2807V5.7624Z" fill="#EFF4F5"/>
<path d="M59.0985 3.35662C59.0985 4.05431 58.9587 4.65417 58.6797 5.15617C58.4007 5.65606 58.0185 6.04106 57.5326 6.31122C57.0489 6.57922 56.4992 6.71322 55.883 6.71322C55.2645 6.71322 54.7124 6.57922 54.2265 6.31122C53.7428 6.04106 53.3616 5.655 53.0826 5.15298C52.8036 4.65097 52.6641 4.05219 52.6641 3.35662C52.6641 2.65892 52.8036 2.06013 53.0826 1.56025C53.3616 1.05825 53.7428 0.673239 54.2265 0.405219C54.7124 0.135073 55.2645 0 55.883 0C56.4992 0 57.0489 0.135073 57.5326 0.405219C58.0185 0.673239 58.4007 1.05825 58.6797 1.56025C58.9587 2.06013 59.0985 2.65892 59.0985 3.35662ZM58.0313 3.35662C58.0313 2.82483 57.937 2.37707 57.7489 2.01333C57.5626 1.64746 57.3069 1.37094 56.9813 1.18375C56.6584 0.994433 56.2923 0.899778 55.883 0.899778C55.4714 0.899778 55.1041 0.994433 54.7809 1.18375C54.4578 1.37094 54.202 1.64746 54.0137 2.01333C53.8277 2.37707 53.7347 2.82483 53.7347 3.35662C53.7347 3.88839 53.8277 4.33722 54.0137 4.70309C54.202 5.06683 54.4578 5.34336 54.7809 5.53267C55.1041 5.71983 55.4714 5.81344 55.883 5.81344C56.2923 5.81344 56.6584 5.71983 56.9813 5.53267C57.3069 5.34336 57.5626 5.06683 57.7489 4.70309C57.937 4.33722 58.0313 3.88839 58.0313 3.35662Z" fill="#EFF4F5"/>
<path d="M66.2018 0.0893555V6.6239H65.2117L61.5813 1.83148H61.5147V6.6239H60.4375V0.0893555H61.4348L65.0686 4.88817H65.1346V0.0893555H66.2018Z" fill="#EFF4F5"/>
</g>
</g>
<defs>
<clipPath id="clip0_125_3153">
<rect width="142" height="35" fill="white"/>
</clipPath>
</defs>
</svg>
