<svg width="210" height="42" viewBox="0 0 210 42" fill="none" xmlns="http://www.w3.org/2000/svg">
<g clip-path="url(#clip0_125_3189)">
<path d="M188.722 0H20.7778C9.30254 0 0 9.30254 0 20.7778C0 32.2531 9.30254 41.5556 20.7778 41.5556H188.722C200.197 41.5556 209.5 32.2531 209.5 20.7778C209.5 9.30254 200.197 0 188.722 0Z" fill="white" fill-opacity="0.05"/>
<path fill-rule="evenodd" clip-rule="evenodd" d="M52.1169 12.6274L43.8385 28.9283H36.063L39.5274 22.1725H39.372C36.5138 25.9098 32.2494 28.37 26.1733 28.9283V22.266C26.1733 22.266 30.0604 22.0347 32.3454 19.6148H26.1733V12.6276H33.1101V18.3745L33.2658 18.3738L36.1004 12.6276H41.3465V18.338L41.5024 18.3378L44.4434 12.6274H52.1169Z" fill="#146EF5"/>
<path d="M61.8071 15.751H66.1791C67.0433 15.751 67.74 15.9957 68.2691 16.4851C68.7983 16.9702 69.0628 17.6536 69.0628 18.5355C69.0628 19.2939 68.8269 19.9553 68.3551 20.5198C67.8833 21.0797 67.158 21.3597 66.1791 21.3597H63.1233V25.4671H61.8071V15.751ZM67.7334 18.5421C67.7334 17.8278 67.4688 17.3428 66.9397 17.087C66.6487 16.9503 66.2496 16.882 65.7425 16.882H63.1233V20.2486H65.7425C66.3334 20.2486 66.8118 20.1229 67.1778 19.8716C67.5482 19.6202 67.7334 19.1771 67.7334 18.5421Z" fill="white"/>
<path d="M70.5908 18.3834H71.7218V19.607C71.8144 19.3689 72.0415 19.0801 72.4031 18.7405C72.7646 18.3966 73.1813 18.2246 73.6531 18.2246C73.6752 18.2246 73.7127 18.2268 73.7656 18.2313C73.8185 18.2357 73.9089 18.2445 74.0368 18.2577V19.5144C73.9662 19.5012 73.9001 19.4924 73.8383 19.4879C73.781 19.4835 73.7171 19.4813 73.6465 19.4813C73.0469 19.4813 72.5861 19.6753 72.2642 20.0634C71.9423 20.447 71.7813 20.8901 71.7813 21.3928V25.4671H70.5908V18.3834Z" fill="white"/>
<path d="M77.8793 24.6999C78.6686 24.6999 79.2087 24.4022 79.4997 23.807C79.7952 23.2073 79.9429 22.5415 79.9429 21.8095C79.9429 21.1481 79.8372 20.6101 79.6255 20.1957C79.2903 19.5431 78.7127 19.2168 77.8925 19.2168C77.165 19.2168 76.6358 19.4946 76.3051 20.0501C75.9744 20.6057 75.8092 21.276 75.8092 22.0608C75.8092 22.8149 75.9744 23.4432 76.3051 23.9459C76.6358 24.4485 77.1605 24.6999 77.8793 24.6999ZM77.9256 18.1783C78.8383 18.1783 79.61 18.4826 80.2405 19.0911C80.8711 19.6996 81.1864 20.5947 81.1864 21.7764C81.1864 22.9185 80.9087 23.8621 80.3531 24.6073C79.7975 25.3525 78.9353 25.7251 77.7668 25.7251C76.7924 25.7251 76.0186 25.3966 75.4454 24.7396C74.8722 24.0782 74.5854 23.1919 74.5854 22.0807C74.5854 20.8901 74.8875 19.9421 75.4916 19.2366C76.0957 18.5311 76.907 18.1783 77.9256 18.1783Z" fill="white"/>
<path d="M82.9064 17.3053C82.9241 16.8114 83.01 16.4499 83.1644 16.2206C83.4422 15.8149 83.9779 15.6121 84.7716 15.6121C84.8466 15.6121 84.9237 15.6143 85.0031 15.6187C85.0825 15.6231 85.1729 15.6297 85.2743 15.6385V16.7232C85.1508 16.7144 85.0604 16.71 85.0031 16.71C84.9502 16.7056 84.8995 16.7034 84.851 16.7034C84.4894 16.7034 84.2733 16.7982 84.2028 16.9878C84.1322 17.173 84.097 17.6492 84.097 18.4165H85.2743V19.3557H84.0837V25.4671H82.9064V19.3557H81.9209V18.4165H82.9064V17.3053Z" fill="white"/>
<path d="M89.3287 18.2246C89.8313 18.2246 90.3186 18.3437 90.7904 18.5818C91.2622 18.8155 91.6216 19.1198 91.8685 19.4946C92.1066 19.8517 92.2653 20.2684 92.3447 20.7446C92.4153 21.0709 92.4505 21.5912 92.4505 22.3056H87.2584C87.2805 23.0243 87.4502 23.6019 87.7677 24.0385C88.0852 24.4706 88.5768 24.6867 89.2427 24.6867C89.8644 24.6867 90.3605 24.4816 90.7309 24.0715C90.9425 23.8334 91.0924 23.5578 91.1806 23.2448H92.3513C92.3204 23.5049 92.2168 23.796 92.0404 24.1178C91.8685 24.4353 91.6745 24.6955 91.4584 24.8983C91.0968 25.2511 90.6493 25.4892 90.1157 25.6126C89.8291 25.6832 89.505 25.7185 89.1435 25.7185C88.2616 25.7185 87.5142 25.3988 86.9013 24.7594C86.2884 24.1156 85.9819 23.2161 85.9819 22.0608C85.9819 20.9232 86.2906 19.9994 86.9079 19.2895C87.5252 18.5796 88.3321 18.2246 89.3287 18.2246ZM91.2269 21.3597C91.1784 20.8438 91.066 20.4316 90.8896 20.1229C90.5633 19.5497 90.0187 19.2631 89.2559 19.2631C88.7091 19.2631 88.2505 19.4615 87.8802 19.8583C87.5098 20.2508 87.3135 20.7512 87.2915 21.3597H91.2269Z" fill="white"/>
<path d="M94.6267 23.2448C94.662 23.6416 94.7612 23.9459 94.9243 24.1575C95.2242 24.5411 95.7445 24.733 96.4852 24.733C96.9262 24.733 97.3142 24.6382 97.6493 24.4485C97.9845 24.2545 98.152 23.9569 98.152 23.5556C98.152 23.2514 98.0175 23.0199 97.7485 22.8612C97.5766 22.7641 97.2371 22.6517 96.73 22.5238L95.7842 22.2857C95.1801 22.1358 94.7347 21.9682 94.4481 21.7831C93.9366 21.4612 93.6809 21.0158 93.6809 20.447C93.6809 19.7768 93.9212 19.2344 94.4018 18.8199C94.8868 18.4054 95.5372 18.1982 96.353 18.1982C97.42 18.1982 98.1895 18.5113 98.6613 19.1374C98.9567 19.5342 99.1 19.962 99.0912 20.4205H97.9668C97.9448 20.1516 97.85 19.9068 97.6824 19.6864C97.409 19.3733 96.935 19.2168 96.2604 19.2168C95.8106 19.2168 95.4689 19.3027 95.2352 19.4747C95.0059 19.6467 94.8912 19.8738 94.8912 20.156C94.8912 20.4646 95.0434 20.7116 95.3476 20.8968C95.524 21.007 95.7842 21.104 96.1281 21.1878L96.9152 21.3796C97.7706 21.5868 98.3438 21.7875 98.6348 21.9815C99.0978 22.2857 99.3293 22.7641 99.3293 23.4167C99.3293 24.0473 99.089 24.5919 98.6084 25.0504C98.1322 25.509 97.4046 25.7383 96.4257 25.7383C95.3719 25.7383 94.6245 25.5002 94.1835 25.024C93.747 24.5434 93.5133 23.9503 93.4824 23.2448H94.6267Z" fill="white"/>
<path d="M101.399 23.2448C101.435 23.6416 101.534 23.9459 101.697 24.1575C101.997 24.5411 102.517 24.733 103.258 24.733C103.699 24.733 104.087 24.6382 104.422 24.4485C104.757 24.2545 104.925 23.9569 104.925 23.5556C104.925 23.2514 104.79 23.0199 104.521 22.8612C104.349 22.7641 104.01 22.6517 103.503 22.5238L102.557 22.2857C101.953 22.1358 101.507 21.9682 101.221 21.7831C100.709 21.4612 100.454 21.0158 100.454 20.447C100.454 19.7768 100.694 19.2344 101.174 18.8199C101.66 18.4054 102.31 18.1982 103.126 18.1982C104.193 18.1982 104.962 18.5113 105.434 19.1374C105.729 19.5342 105.873 19.962 105.864 20.4205H104.739C104.717 20.1516 104.623 19.9068 104.455 19.6864C104.182 19.3733 103.708 19.2168 103.033 19.2168C102.583 19.2168 102.242 19.3027 102.008 19.4747C101.779 19.6467 101.664 19.8738 101.664 20.156C101.664 20.4646 101.816 20.7116 102.12 20.8968C102.297 21.007 102.557 21.104 102.901 21.1878L103.688 21.3796C104.543 21.5868 105.116 21.7875 105.408 21.9815C105.871 22.2857 106.102 22.7641 106.102 23.4167C106.102 24.0473 105.862 24.5919 105.381 25.0504C104.905 25.509 104.177 25.7383 103.198 25.7383C102.145 25.7383 101.397 25.5002 100.956 25.024C100.52 24.5434 100.286 23.9503 100.255 23.2448H101.399Z" fill="white"/>
<path d="M107.465 18.4165H108.675V25.4671H107.465V18.4165ZM107.465 15.751H108.675V17.1002H107.465V15.751Z" fill="white"/>
<path d="M113.292 24.6999C114.081 24.6999 114.621 24.4022 114.912 23.807C115.207 23.2073 115.355 22.5415 115.355 21.8095C115.355 21.1481 115.249 20.6101 115.038 20.1957C114.703 19.5431 114.125 19.2168 113.305 19.2168C112.577 19.2168 112.048 19.4946 111.717 20.0501C111.387 20.6057 111.221 21.276 111.221 22.0608C111.221 22.8149 111.387 23.4432 111.717 23.9459C112.048 24.4485 112.573 24.6999 113.292 24.6999ZM113.338 18.1783C114.251 18.1783 115.022 18.4826 115.653 19.0911C116.283 19.6996 116.599 20.5947 116.599 21.7764C116.599 22.9185 116.321 23.8621 115.765 24.6073C115.21 25.3525 114.348 25.7251 113.179 25.7251C112.205 25.7251 111.431 25.3966 110.858 24.7396C110.284 24.0782 109.998 23.1919 109.998 22.0807C109.998 20.8901 110.3 19.9421 110.904 19.2366C111.508 18.5311 112.319 18.1783 113.338 18.1783Z" fill="white"/>
<path d="M118.021 18.3834H119.152V19.3887C119.487 18.9742 119.842 18.6766 120.217 18.4958C120.591 18.315 121.008 18.2246 121.467 18.2246C122.472 18.2246 123.151 18.5752 123.504 19.2763C123.698 19.6599 123.795 20.2089 123.795 20.9232V25.4671H122.584V21.0026C122.584 20.5705 122.52 20.2221 122.393 19.9575C122.181 19.5166 121.797 19.2961 121.242 19.2961C120.96 19.2961 120.728 19.3248 120.547 19.3821C120.221 19.4791 119.934 19.6731 119.687 19.9642C119.489 20.1979 119.359 20.4404 119.297 20.6917C119.24 20.9386 119.211 21.2936 119.211 21.7566V25.4671H118.021V18.3834Z" fill="white"/>
<path d="M126.474 23.5821C126.474 23.926 126.599 24.1972 126.851 24.3956C127.102 24.5941 127.4 24.6933 127.743 24.6933C128.162 24.6933 128.568 24.5963 128.96 24.4022C129.622 24.0804 129.953 23.5534 129.953 22.8215V21.8624C129.807 21.955 129.62 22.0322 129.39 22.0939C129.161 22.1556 128.936 22.1997 128.716 22.2262L127.995 22.3188C127.563 22.3761 127.239 22.4665 127.023 22.59C126.657 22.7972 126.474 23.1279 126.474 23.5821ZM129.357 21.1746C129.631 21.1393 129.814 21.0246 129.906 20.8306C129.959 20.7248 129.986 20.5727 129.986 20.3742C129.986 19.9686 129.84 19.6753 129.549 19.4946C129.263 19.3094 128.85 19.2168 128.312 19.2168C127.691 19.2168 127.25 19.3843 126.989 19.7194C126.844 19.9046 126.749 20.1802 126.705 20.5462H125.594C125.616 19.6731 125.898 19.0668 126.44 18.7273C126.987 18.3834 127.62 18.2114 128.339 18.2114C129.172 18.2114 129.849 18.3702 130.369 18.6876C130.885 19.0051 131.143 19.499 131.143 20.1692V24.2501C131.143 24.3736 131.167 24.4728 131.216 24.5478C131.269 24.6227 131.377 24.6602 131.54 24.6602C131.593 24.6602 131.652 24.658 131.719 24.6536C131.785 24.6448 131.855 24.6337 131.93 24.6205V25.5002C131.745 25.5531 131.604 25.5862 131.507 25.5994C131.41 25.6126 131.278 25.6193 131.11 25.6193C130.7 25.6193 130.402 25.4737 130.217 25.1827C130.12 25.0284 130.052 24.8101 130.012 24.5279C129.77 24.8454 129.421 25.121 128.967 25.3547C128.513 25.5884 128.012 25.7052 127.466 25.7052C126.809 25.7052 126.271 25.5068 125.852 25.11C125.437 24.7087 125.23 24.2082 125.23 23.6086C125.23 22.9515 125.435 22.4423 125.845 22.0807C126.255 21.7191 126.793 21.4964 127.459 21.4127L129.357 21.1746Z" fill="white"/>
<path d="M133.134 15.751H134.325V25.4671H133.134V15.751Z" fill="white"/>
<path d="M140.171 15.751H144.543C145.408 15.751 146.104 15.9957 146.633 16.4851C147.163 16.9702 147.427 17.6536 147.427 18.5355C147.427 19.2939 147.191 19.9553 146.719 20.5198C146.248 21.0797 145.522 21.3597 144.543 21.3597H141.488V25.4671H140.171V15.751ZM146.098 18.5421C146.098 17.8278 145.833 17.3428 145.304 17.087C145.013 16.9503 144.614 16.882 144.107 16.882H141.488V20.2486H144.107C144.698 20.2486 145.176 20.1229 145.542 19.8716C145.912 19.6202 146.098 19.1771 146.098 18.5421Z" fill="white"/>
<path d="M149.835 23.5821C149.835 23.926 149.96 24.1972 150.212 24.3956C150.463 24.5941 150.761 24.6933 151.105 24.6933C151.523 24.6933 151.929 24.5963 152.322 24.4022C152.983 24.0804 153.314 23.5534 153.314 22.8215V21.8624C153.168 21.955 152.981 22.0322 152.752 22.0939C152.522 22.1556 152.297 22.1997 152.077 22.2262L151.356 22.3188C150.924 22.3761 150.6 22.4665 150.384 22.59C150.018 22.7972 149.835 23.1279 149.835 23.5821ZM152.718 21.1746C152.992 21.1393 153.175 21.0246 153.267 20.8306C153.32 20.7248 153.347 20.5727 153.347 20.3742C153.347 19.9686 153.201 19.6753 152.91 19.4946C152.624 19.3094 152.211 19.2168 151.673 19.2168C151.052 19.2168 150.611 19.3843 150.351 19.7194C150.205 19.9046 150.11 20.1802 150.066 20.5462H148.955C148.977 19.6731 149.259 19.0668 149.802 18.7273C150.348 18.3834 150.981 18.2114 151.7 18.2114C152.533 18.2114 153.21 18.3702 153.73 18.6876C154.246 19.0051 154.504 19.499 154.504 20.1692V24.2501C154.504 24.3736 154.529 24.4728 154.577 24.5478C154.63 24.6227 154.738 24.6602 154.901 24.6602C154.954 24.6602 155.014 24.658 155.08 24.6536C155.146 24.6448 155.216 24.6337 155.291 24.6205V25.5002C155.106 25.5531 154.965 25.5862 154.868 25.5994C154.771 25.6126 154.639 25.6193 154.471 25.6193C154.061 25.6193 153.763 25.4737 153.578 25.1827C153.481 25.0284 153.413 24.8101 153.373 24.5279C153.131 24.8454 152.782 25.121 152.328 25.3547C151.874 25.5884 151.374 25.7052 150.827 25.7052C150.17 25.7052 149.632 25.5068 149.213 25.11C148.798 24.7087 148.591 24.2082 148.591 23.6086C148.591 22.9515 148.796 22.4423 149.206 22.0807C149.616 21.7191 150.154 21.4964 150.82 21.4127L152.718 21.1746Z" fill="white"/>
<path d="M156.495 18.3834H157.626V19.607C157.719 19.3689 157.946 19.0801 158.307 18.7405C158.669 18.3966 159.086 18.2246 159.557 18.2246C159.58 18.2246 159.617 18.2268 159.67 18.2313C159.723 18.2357 159.813 18.2445 159.941 18.2577V19.5144C159.871 19.5012 159.804 19.4924 159.743 19.4879C159.685 19.4835 159.621 19.4813 159.551 19.4813C158.951 19.4813 158.49 19.6753 158.168 20.0634C157.847 20.447 157.686 20.8901 157.686 21.3928V25.4671H156.495V18.3834Z" fill="white"/>
<path d="M161.211 16.4058H162.415V18.3834H163.546V19.3557H162.415V23.9789C162.415 24.2259 162.499 24.3912 162.666 24.475C162.759 24.5235 162.913 24.5478 163.129 24.5478C163.186 24.5478 163.248 24.5478 163.314 24.5478C163.38 24.5434 163.458 24.5367 163.546 24.5279V25.4671C163.409 25.5068 163.266 25.5355 163.116 25.5531C162.97 25.5707 162.812 25.5796 162.64 25.5796C162.084 25.5796 161.707 25.4385 161.509 25.1563C161.31 24.8696 161.211 24.4993 161.211 24.0451V19.3557H160.252V18.3834H161.211V16.4058Z" fill="white"/>
<path d="M164.743 18.3834H165.874V19.3887C166.209 18.9742 166.564 18.6766 166.939 18.4958C167.314 18.315 167.73 18.2246 168.189 18.2246C169.194 18.2246 169.873 18.5752 170.226 19.2763C170.42 19.6599 170.517 20.2089 170.517 20.9232V25.4671H169.307V21.0026C169.307 20.5705 169.243 20.2221 169.115 19.9575C168.903 19.5166 168.52 19.2961 167.964 19.2961C167.682 19.2961 167.45 19.3248 167.27 19.3821C166.943 19.4791 166.657 19.6731 166.41 19.9642C166.211 20.1979 166.081 20.4404 166.019 20.6917C165.962 20.9386 165.933 21.2936 165.933 21.7566V25.4671H164.743V18.3834Z" fill="white"/>
<path d="M175.233 18.2246C175.736 18.2246 176.223 18.3437 176.695 18.5818C177.166 18.8155 177.526 19.1198 177.773 19.4946C178.011 19.8517 178.17 20.2684 178.249 20.7446C178.32 21.0709 178.355 21.5912 178.355 22.3056H173.163C173.185 23.0243 173.355 23.6019 173.672 24.0385C173.99 24.4706 174.481 24.6867 175.147 24.6867C175.769 24.6867 176.265 24.4816 176.635 24.0715C176.847 23.8334 176.997 23.5578 177.085 23.2448H178.256C178.225 23.5049 178.121 23.796 177.945 24.1178C177.773 24.4353 177.579 24.6955 177.363 24.8983C177.001 25.2511 176.554 25.4892 176.02 25.6126C175.733 25.6832 175.409 25.7185 175.048 25.7185C174.166 25.7185 173.418 25.3988 172.806 24.7594C172.193 24.1156 171.886 23.2161 171.886 22.0608C171.886 20.9232 172.195 19.9994 172.812 19.2895C173.43 18.5796 174.236 18.2246 175.233 18.2246ZM177.131 21.3597C177.083 20.8438 176.97 20.4316 176.794 20.1229C176.468 19.5497 175.923 19.2631 175.16 19.2631C174.613 19.2631 174.155 19.4615 173.784 19.8583C173.414 20.2508 173.218 20.7512 173.196 21.3597H177.131Z" fill="white"/>
<path d="M179.856 18.3834H180.987V19.607C181.08 19.3689 181.307 19.0801 181.669 18.7405C182.03 18.3966 182.447 18.2246 182.919 18.2246C182.941 18.2246 182.978 18.2268 183.031 18.2313C183.084 18.2357 183.174 18.2445 183.302 18.2577V19.5144C183.232 19.5012 183.166 19.4924 183.104 19.4879C183.046 19.4835 182.983 19.4813 182.912 19.4813C182.312 19.4813 181.852 19.6753 181.53 20.0634C181.208 20.447 181.047 20.8901 181.047 21.3928V25.4671H179.856V18.3834Z" fill="white"/>
</g>
<defs>
<clipPath id="clip0_125_3189">
<rect width="210" height="42" fill="white"/>
</clipPath>
</defs>
</svg>
