<svg width="72" height="72" viewBox="0 0 72 72" fill="none" xmlns="http://www.w3.org/2000/svg">
<g clip-path="url(#clip0_125_2677)">
<path d="M37.3809 46.6296C37.2444 46.6296 37.1058 46.6113 36.9677 46.5733C36.1443 46.3456 35.6614 45.4934 35.889 44.67C36.5331 42.3409 36.2279 39.8963 35.0297 37.7867C33.8256 35.6665 31.868 34.1435 29.5177 33.4981C28.6938 33.272 28.2092 32.4207 28.4355 31.5968C28.6616 30.7728 29.5134 30.2883 30.3368 30.5146C33.4851 31.3789 36.1072 33.4189 37.7201 36.2587C39.327 39.0878 39.7358 42.3677 38.8713 45.4947C38.6816 46.18 38.0593 46.6296 37.3809 46.6296Z" fill="#FF521C"/>
<path d="M30.5911 44.7654C30.4545 44.7654 30.3159 44.7471 30.1779 44.7091C29.3545 44.4814 28.8715 43.6292 29.0991 42.8058C29.2458 42.2755 29.1768 41.7197 28.9048 41.2409C28.6307 40.7583 28.1839 40.4114 27.6466 40.2639C26.8227 40.0378 26.3381 39.1865 26.5644 38.3626C26.7905 37.5385 27.6423 37.0537 28.4657 37.2804C29.801 37.6469 30.9124 38.5109 31.5952 39.7129C32.2759 40.9112 32.4484 42.3026 32.0814 43.6303C31.8917 44.3158 31.2694 44.7654 30.5911 44.7654Z" fill="#FF521C"/>
<path d="M48.7401 53.8277H57.881C58.7353 53.8277 59.4279 53.1351 59.4279 52.2808C59.4279 51.4264 58.7353 50.7338 57.881 50.7338H48.7401C45.6324 50.7338 43.1043 53.2556 43.1043 56.3554C43.1043 59.4551 45.6326 61.9769 48.7401 61.9769H53.8253C55.2086 61.9769 56.334 63.096 56.334 64.4715C56.334 65.847 55.2086 66.9662 53.8253 66.9662H38.4183C39.3866 65.9224 40.0706 64.6407 40.4009 63.2178C40.9013 61.0635 40.5306 58.8436 39.3573 56.967L36.3631 52.1785C34.6363 49.4171 30.9778 48.5691 28.2072 50.2894L26.3884 51.4185L18.9181 39.4711L20.7287 38.3469C22.0736 37.5118 23.0112 36.2041 23.3687 34.6646C23.7256 33.1276 23.4612 31.5441 22.6243 30.2053L19.6301 25.4168C17.2082 21.5434 12.0767 20.3551 8.1906 22.7679L4.37302 25.1383C2.48715 26.3092 1.17253 28.1427 0.67132 30.3011C0.170954 32.4553 0.541658 34.6753 1.71495 36.5518L21.442 68.1018C23.0148 70.6173 25.7297 72.0002 28.5048 72.0001C30.0029 71.9999 31.5191 71.5967 32.8814 70.7509L34.0857 70.0031C34.2184 70.0401 34.3581 70.0599 34.5026 70.0599H53.8253C56.9146 70.0599 59.4279 67.5529 59.4279 64.4714C59.4279 61.3899 56.9146 58.8828 53.8253 58.8828H48.7401C47.3384 58.8828 46.1982 57.7491 46.1982 56.3553C46.1982 54.9615 47.3384 53.8277 48.7401 53.8277ZM31.2493 68.1225C28.8086 69.6378 25.5857 68.893 24.0655 66.4615L4.33828 34.9117C3.60405 33.7374 3.372 32.3485 3.68491 31.001C3.99866 29.6495 4.82276 28.501 6.00504 27.7667L9.82262 25.3964C10.6792 24.8645 11.6316 24.6111 12.5734 24.6111C14.3155 24.6111 16.02 25.479 17.0066 27.0573L20.0008 31.8458C20.3987 32.482 20.5245 33.2346 20.3549 33.9648C20.1848 34.6975 19.7378 35.3203 19.0966 35.7186L15.9678 37.6613C15.6186 37.8781 15.37 38.2251 15.277 38.6255C15.1841 39.0258 15.2542 39.4469 15.4722 39.7955L24.5827 54.3663C25.0347 55.0892 25.9861 55.3102 26.7105 54.8604L29.8394 52.9177C31.1651 52.0948 32.9147 52.4987 33.7398 53.8187L36.734 58.6072C37.4682 59.7815 37.7002 61.1702 37.3873 62.5179C37.0736 63.8693 36.2495 65.0179 35.0672 65.752L31.2493 68.1225Z" fill="#0E191E"/>
<path d="M61.0193 19.6952C61.0345 17.0015 61.0407 14.2656 61.0068 13.8608C60.9217 12.8469 60.3032 12.0164 59.4311 11.745C58.5611 11.4739 57.641 11.7997 56.9712 12.6159C56.3041 13.4287 53.2767 18.847 52.3647 20.4883C52.0983 20.9675 52.1057 21.5518 52.3837 22.0242C52.6617 22.4966 53.1688 22.7867 53.7169 22.7867H57.9042C57.8994 23.4244 57.8945 24.0355 57.8895 24.5928C57.8821 25.4471 58.5686 26.1458 59.423 26.1533H59.4368C60.2848 26.1533 60.976 25.4695 60.9834 24.6198C60.9872 24.1737 60.9926 23.5339 60.9983 22.7854C61.8216 22.7501 62.4779 22.0717 62.4779 21.2399C62.4781 20.4148 61.8326 19.7407 61.0193 19.6952ZM57.9247 19.6927H56.3567C56.9192 18.6963 57.4654 17.7398 57.9368 16.9269C57.9347 17.7588 57.9303 18.7101 57.9247 19.6927Z" fill="#0E191E"/>
<path d="M50.3739 23.0332C49.4466 23.0447 48.4702 23.0532 47.6004 23.0568C48.1899 22.2624 48.9567 21.2077 49.9359 19.8121C50.6733 18.7613 51.1554 17.7631 51.3689 16.8452C51.3807 16.7944 51.3899 16.7431 51.3966 16.6913L51.4522 16.2586C51.4605 16.1933 51.4647 16.1277 51.4647 16.062C51.4647 13.6305 49.483 11.6523 47.0473 11.6523C44.9418 11.6523 43.1189 13.1478 42.713 15.2081C42.5479 16.0462 43.0936 16.8596 43.9319 17.0249C44.7695 17.1893 45.5835 16.6443 45.7487 15.806C45.8697 15.192 46.4159 14.7462 47.0473 14.7462C47.75 14.7462 48.3268 15.2937 48.3684 15.9821L48.3391 16.2112C48.2421 16.5829 47.9997 17.1853 47.4035 18.035C45.6303 20.5619 44.5722 21.9436 44.0038 22.6859C43.2872 23.6213 42.8928 24.1366 43.1513 24.978C43.3052 25.4789 43.6834 25.8624 44.1888 26.0304C44.3923 26.098 44.5647 26.1557 46.786 26.1557C47.6468 26.1557 48.8157 26.1469 50.4128 26.127C51.2671 26.1163 51.951 25.4151 51.9402 24.5608C51.9295 23.7063 51.2241 23.0175 50.3739 23.0332Z" fill="#0E191E"/>
<path d="M52.5808 0C42.1242 0 33.6169 8.47993 33.6169 18.9031C33.6169 29.3263 42.1242 37.8062 52.5809 37.8062C63.0377 37.8062 71.5449 29.3263 71.5449 18.9031C71.5449 8.47993 63.0376 0 52.5808 0ZM52.5808 34.7123C43.83 34.7123 36.7107 27.6203 36.7107 18.9031C36.7107 10.1859 43.8302 3.09389 52.5808 3.09389C61.3314 3.09389 68.4509 10.1859 68.4509 18.9031C68.4509 27.6203 61.3316 34.7123 52.5808 34.7123Z" fill="#0E191E"/>
</g>
<defs>
<clipPath id="clip0_125_2677">
<rect width="72" height="72" fill="white"/>
</clipPath>
</defs>
</svg>
